<svg xmlns="http://www.w3.org/2000/svg" viewBox="0 0 512 512"><path fill="#d80027" d="M0 0h512v512H0z"/><path fill="#338af3" d="M0 .007h512V181.8H0z"/><path fill="#6da544" d="M0 330.207h512V512H0z"/><g fill="#fff"><path d="M173.389 115.322c0-19.617 13.787-36.006 32.198-40.027a41.102 41.102 0 00-8.781-.954c-22.634.001-40.98 18.347-40.98 40.981s18.346 40.98 40.98 40.98c3.016 0 5.951-.335 8.781-.954-18.411-4.02-32.198-20.408-32.198-40.026zM229.808 133.95l2.775 8.537h8.977l-7.263 5.278 2.775 8.537-7.264-5.275-7.263 5.275 2.775-8.537-7.264-5.278h8.978zM258.462 133.95l2.774 8.537h8.978l-7.263 5.278 2.774 8.537-7.263-5.275-7.264 5.275 2.775-8.537-7.262-5.278h8.976zM287.115 133.95l2.775 8.537h8.977l-7.263 5.278 2.775 8.537-7.264-5.275-7.262 5.275 2.773-8.537-7.262-5.278h8.977zM315.768 133.95l2.775 8.537h8.978l-7.264 5.278 2.775 8.537-7.264-5.275-7.262 5.275 2.774-8.537-7.263-5.278h8.977zM344.422 133.95l2.774 8.537h8.978l-7.263 5.278 2.774 8.537-7.263-5.275-7.263 5.275 2.774-8.537-7.262-5.278h8.977zM258.462 104.146l2.774 8.537h8.978l-7.263 5.277 2.774 8.538-7.263-5.276-7.264 5.276 2.775-8.538-7.262-5.277h8.976zM287.115 104.146l2.775 8.537h8.977l-7.263 5.277 2.775 8.538-7.264-5.276-7.262 5.276 2.773-8.538-7.262-5.277h8.977zM315.768 104.146l2.775 8.537h8.978l-7.264 5.277 2.775 8.538-7.264-5.276-7.262 5.276 2.774-8.538-7.263-5.277h8.977zM344.422 104.146l2.774 8.537h8.978l-7.263 5.277 2.774 8.538-7.263-5.276-7.263 5.276 2.774-8.538-7.262-5.277h8.977zM287.115 74.342l2.775 8.539h8.977l-7.263 5.275 2.775 8.54-7.264-5.278-7.262 5.278 2.773-8.54-7.262-5.275h8.977zM315.768 74.342l2.775 8.539h8.978l-7.264 5.275 2.775 8.54-7.264-5.278-7.262 5.278 2.774-8.54-7.263-5.275h8.977zM344.422 74.342l2.774 8.539h8.978l-7.263 5.275 2.774 8.54-7.263-5.278-7.263 5.278 2.774-8.54-7.262-5.275h8.977zM0 200.348h512v111.304H0z"/></g></svg>
