<svg xmlns="http://www.w3.org/2000/svg" viewBox="0 0 512 512"><path fill="#d80027" d="M0 0h512v512H0z"/><g fill="#fff"><path d="M280.68 194.736c-5.845 24.31-16.228 19.673-21.326 40.874-30.019-7.218-48.508-37.405-41.291-67.427 7.216-30.02 37.405-48.508 67.426-41.291-10.192 42.401.42 46.102-4.809 67.844zM202.782 212.749c21.314 13.07 13.695 21.515 32.282 32.914-16.141 26.321-50.563 34.573-76.885 18.433-26.321-16.14-34.574-50.564-18.434-76.885 37.175 22.797 43.972 13.848 63.037 25.538zM195.841 292.403c19.017-16.232 24.693-6.377 41.277-20.531 20.046 23.484 17.257 58.773-6.226 78.819-23.485 20.046-58.774 17.254-78.818-6.227 33.166-28.312 26.758-37.542 43.767-52.061zM269.453 323.618c-9.563-23.102 1.564-25.458-6.773-45.603 28.528-11.806 61.23 1.75 73.038 30.278 11.806 28.528-1.752 61.229-30.28 73.037-16.676-40.291-27.433-37.047-35.985-57.712zM321.888 263.256c-24.927 1.956-23.73-9.355-45.464-7.65-2.414-30.779 20.585-57.692 51.367-60.109 30.78-2.41 57.692 20.587 60.105 51.37-43.476 3.407-43.716 14.641-66.008 16.389z"/></g></svg>
