<svg xmlns="http://www.w3.org/2000/svg" viewBox="0 0 512 512"><path fill="#fff" d="M0 0h512v512H0z"/><g fill="#0052b4"><path d="M461.664 199.866c-4.016 0-13.378-5.315-20.212-9.197-10.958-6.223-21.308-12.1-31.204-12.1s-20.246 5.877-31.204 12.1c-6.835 3.881-16.196 9.197-20.212 9.197s-13.378-5.315-20.211-9.197c-10.958-6.223-21.308-12.1-31.204-12.1s-20.246 5.877-31.204 12.1c-6.835 3.881-16.196 9.197-20.212 9.197-4.016 0-13.378-5.315-20.212-9.197-10.958-6.223-21.308-12.1-31.204-12.1s-20.246 5.877-31.204 12.1c-6.834 3.881-16.195 9.197-20.211 9.197-4.016 0-13.378-5.315-20.212-9.197-10.958-6.223-21.308-12.1-31.204-12.1s-20.246 5.877-31.204 12.1c-6.835 3.881-16.196 9.197-20.212 9.197s-13.378-5.315-20.211-9.197C19.565 184.672 9.57 179.012 0 178.608v22.332c4.437.746 12.847 5.516 19.131 9.086 10.958 6.223 21.308 12.1 31.204 12.1s20.246-5.877 31.204-12.1c6.835-3.881 16.196-9.197 20.212-9.197s13.378 5.315 20.212 9.197c10.958 6.223 21.308 12.1 31.204 12.1s20.246-5.877 31.204-12.1c6.834-3.881 16.195-9.197 20.211-9.197 4.016 0 13.378 5.315 20.212 9.197 10.958 6.223 21.308 12.1 31.204 12.1s20.246-5.877 31.204-12.1c6.835-3.881 16.196-9.197 20.212-9.197 4.016 0 13.378 5.315 20.211 9.197 10.958 6.223 21.308 12.1 31.204 12.1s20.246-5.877 31.204-12.1c6.835-3.881 16.196-9.197 20.212-9.197s13.378 5.315 20.212 9.197c10.958 6.223 21.308 12.1 31.204 12.1s20.246-5.877 31.204-12.1c6.284-3.57 14.694-8.34 19.131-9.086v-22.332c-9.57.404-19.565 6.064-30.125 12.061-6.83 3.882-16.19 9.197-20.207 9.197zM0 33.985c4.437.746 12.847 5.516 19.131 9.086 10.958 6.223 21.308 12.1 31.204 12.1s20.246-5.877 31.204-12.1c6.835-3.881 16.196-9.197 20.212-9.197s13.378 5.315 20.212 9.197c10.958 6.223 21.308 12.1 31.204 12.1s20.246-5.877 31.204-12.1c6.834-3.881 16.195-9.197 20.211-9.197 4.016 0 13.378 5.315 20.212 9.197 10.958 6.223 21.308 12.1 31.204 12.1s20.246-5.877 31.204-12.1c6.835-3.881 16.196-9.197 20.212-9.197 4.016 0 13.378 5.315 20.211 9.197 10.958 6.223 21.308 12.1 31.204 12.1s20.246-5.877 31.204-12.1c6.835-3.881 16.196-9.197 20.212-9.197s13.378 5.315 20.212 9.197c10.958 6.223 21.308 12.1 31.204 12.1s20.246-5.877 31.204-12.1c6.284-3.57 14.694-8.34 19.131-9.086V11.651c-9.57.404-19.565 6.064-30.125 12.061-6.834 3.881-16.195 9.197-20.211 9.197s-13.378-5.315-20.212-9.197c-10.958-6.223-21.308-12.1-31.204-12.1s-20.246 5.877-31.204 12.1c-6.835 3.881-16.196 9.197-20.212 9.197-4.016 0-13.378-5.315-20.211-9.197-10.958-6.223-21.308-12.1-31.204-12.1s-20.246 5.877-31.204 12.1c-6.835 3.881-16.196 9.197-20.212 9.197-4.016 0-13.378-5.315-20.212-9.197-10.958-6.223-21.308-12.1-31.204-12.1s-20.246 5.877-31.204 12.1c-6.834 3.881-16.195 9.197-20.211 9.197-4.016 0-13.378-5.315-20.212-9.197-10.958-6.223-21.308-12.1-31.204-12.1s-20.246 5.877-31.204 12.1c-6.835 3.881-16.196 9.197-20.212 9.197s-13.378-5.315-20.211-9.197C19.565 17.715 9.57 12.055 0 11.651v22.334zM461.664 88.562c-4.016 0-13.378-5.315-20.212-9.197-10.958-6.223-21.308-12.1-31.204-12.1s-20.246 5.877-31.204 12.1c-6.835 3.881-16.196 9.197-20.212 9.197s-13.378-5.315-20.211-9.197c-10.958-6.223-21.308-12.1-31.204-12.1s-20.246 5.877-31.204 12.1c-6.835 3.881-16.196 9.197-20.212 9.197-4.016 0-13.378-5.315-20.212-9.197-10.958-6.223-21.308-12.1-31.204-12.1s-20.246 5.877-31.204 12.1c-6.834 3.881-16.195 9.197-20.211 9.197-4.016 0-13.378-5.315-20.212-9.197-10.958-6.223-21.308-12.1-31.204-12.1s-20.246 5.877-31.204 12.1c-6.835 3.881-16.196 9.197-20.212 9.197s-13.378-5.315-20.211-9.197C19.565 73.367 9.57 67.708 0 67.304v22.332c4.437.746 12.847 5.516 19.131 9.086 10.958 6.223 21.308 12.1 31.204 12.1s20.246-5.877 31.204-12.1c6.835-3.881 16.196-9.197 20.212-9.197s13.378 5.315 20.212 9.197c10.958 6.223 21.308 12.1 31.204 12.1s20.246-5.877 31.204-12.1c6.834-3.881 16.195-9.197 20.211-9.197 4.016 0 13.378 5.315 20.212 9.197 10.958 6.223 21.308 12.1 31.204 12.1s20.246-5.877 31.204-12.1c6.835-3.881 16.196-9.197 20.212-9.197 4.016 0 13.378 5.315 20.211 9.197 10.958 6.223 21.308 12.1 31.204 12.1s20.246-5.877 31.204-12.1c6.835-3.881 16.196-9.197 20.212-9.197s13.378 5.315 20.212 9.197c10.958 6.223 21.308 12.1 31.204 12.1s20.246-5.877 31.204-12.1c6.284-3.57 14.694-8.34 19.131-9.086V67.304c-9.57.404-19.565 6.064-30.125 12.061-6.83 3.882-16.19 9.197-20.207 9.197zM512 122.956c-9.57.404-19.565 6.064-30.125 12.061-6.834 3.881-16.195 9.197-20.211 9.197s-13.378-5.315-20.212-9.197c-10.958-6.223-21.308-12.1-31.204-12.1s-20.246 5.877-31.204 12.1c-6.835 3.881-16.196 9.197-20.212 9.197-4.016 0-13.378-5.315-20.211-9.197-10.958-6.223-21.308-12.1-31.204-12.1s-20.246 5.877-31.204 12.1c-6.835 3.881-16.196 9.197-20.212 9.197-4.016 0-13.378-5.315-20.212-9.197-10.958-6.223-21.308-12.1-31.204-12.1s-20.246 5.877-31.204 12.1c-6.834 3.881-16.195 9.197-20.211 9.197s-13.378-5.315-20.212-9.197c-10.958-6.223-21.308-12.1-31.204-12.1s-20.246 5.877-31.204 12.1c-6.835 3.881-16.196 9.197-20.212 9.197s-13.378-5.315-20.211-9.197C19.565 129.02 9.57 123.36 0 122.956v22.332c4.437.746 12.847 5.516 19.131 9.086 10.958 6.223 21.308 12.1 31.204 12.1s20.246-5.877 31.204-12.1c6.835-3.881 16.196-9.197 20.212-9.197s13.378 5.315 20.212 9.197c10.958 6.223 21.308 12.1 31.204 12.1s20.246-5.877 31.204-12.1c6.834-3.881 16.195-9.197 20.211-9.197 4.016 0 13.378 5.315 20.212 9.197 10.958 6.223 21.308 12.1 31.204 12.1s20.246-5.877 31.204-12.1c6.835-3.881 16.196-9.197 20.212-9.197 4.016 0 13.378 5.315 20.211 9.197 10.958 6.223 21.308 12.1 31.204 12.1s20.246-5.877 31.204-12.1c6.835-3.881 16.196-9.197 20.212-9.197s13.378 5.315 20.212 9.197c10.958 6.223 21.308 12.1 31.204 12.1s20.246-5.877 31.204-12.1c6.284-3.57 14.694-8.34 19.131-9.086v-22.332H512zM461.664 255.518c-4.016 0-13.378-5.315-20.212-9.197-10.958-6.223-21.308-12.1-31.204-12.1s-20.246 5.877-31.204 12.1c-6.835 3.881-16.196 9.197-20.212 9.197s-13.378-5.315-20.211-9.197c-10.958-6.223-21.308-12.1-31.204-12.1s-20.246 5.877-31.204 12.1c-6.835 3.881-16.196 9.197-20.212 9.197-4.016 0-13.378-5.315-20.212-9.197-10.958-6.223-21.308-12.1-31.204-12.1s-20.246 5.877-31.204 12.1c-6.834 3.881-16.195 9.197-20.211 9.197-4.016 0-13.378-5.315-20.212-9.197-10.958-6.223-21.308-12.1-31.204-12.1s-20.246 5.877-31.204 12.1c-6.835 3.881-16.196 9.197-20.212 9.197s-13.378-5.315-20.211-9.197C19.565 240.324 9.57 234.664 0 234.26v22.332c4.437.746 12.847 5.516 19.131 9.086 10.958 6.223 21.308 12.1 31.204 12.1s20.246-5.877 31.204-12.1c6.835-3.881 16.196-9.197 20.212-9.197s13.378 5.315 20.212 9.197c10.958 6.223 21.308 12.1 31.204 12.1s20.246-5.877 31.204-12.1c6.834-3.881 16.195-9.197 20.211-9.197 4.016 0 13.378 5.315 20.212 9.197 10.958 6.223 21.308 12.1 31.204 12.1s20.246-5.877 31.204-12.1c6.835-3.881 16.196-9.197 20.212-9.197 4.016 0 13.378 5.315 20.211 9.197 10.958 6.223 21.308 12.1 31.204 12.1s20.246-5.877 31.204-12.1c6.835-3.881 16.196-9.197 20.212-9.197s13.378 5.315 20.212 9.197c10.958 6.223 21.308 12.1 31.204 12.1s20.246-5.877 31.204-12.1c6.284-3.57 14.694-8.34 19.131-9.086V234.26c-9.57.404-19.565 6.064-30.125 12.061-6.83 3.882-16.19 9.197-20.207 9.197zM512 289.912c-9.57.404-19.565 6.064-30.125 12.061-6.834 3.881-16.195 9.197-20.211 9.197s-13.378-5.315-20.212-9.197c-10.958-6.223-21.308-12.1-31.204-12.1s-20.246 5.877-31.204 12.1c-6.835 3.881-16.196 9.197-20.212 9.197-4.016 0-13.378-5.315-20.211-9.197-10.958-6.223-21.308-12.1-31.204-12.1s-20.246 5.877-31.204 12.1c-6.835 3.881-16.196 9.197-20.212 9.197-4.016 0-13.378-5.315-20.212-9.197-10.958-6.223-21.308-12.1-31.204-12.1s-20.246 5.877-31.204 12.1c-6.834 3.881-16.195 9.197-20.211 9.197s-13.378-5.315-20.212-9.197c-10.958-6.223-21.308-12.1-31.204-12.1s-20.246 5.877-31.204 12.1c-6.835 3.881-16.196 9.197-20.212 9.197s-13.378-5.315-20.211-9.197C19.565 295.976 9.57 290.316 0 289.912v22.332c4.437.746 12.847 5.516 19.131 9.086 10.958 6.223 21.308 12.1 31.204 12.1s20.246-5.877 31.204-12.1c6.835-3.881 16.196-9.197 20.212-9.197s13.378 5.315 20.212 9.197c10.958 6.223 21.308 12.1 31.204 12.1s20.246-5.877 31.204-12.1c6.834-3.881 16.195-9.197 20.211-9.197 4.016 0 13.378 5.315 20.212 9.197 10.958 6.223 21.308 12.1 31.204 12.1s20.246-5.877 31.204-12.1c6.835-3.881 16.196-9.197 20.212-9.197 4.016 0 13.378 5.315 20.211 9.197 10.958 6.223 21.308 12.1 31.204 12.1s20.246-5.877 31.204-12.1c6.835-3.881 16.196-9.197 20.212-9.197s13.378 5.315 20.212 9.197c10.958 6.223 21.308 12.1 31.204 12.1s20.246-5.877 31.204-12.1c6.284-3.57 14.694-8.34 19.131-9.086v-22.332H512zM512 345.564c-9.57.404-19.565 6.064-30.125 12.061-6.834 3.881-16.195 9.197-20.211 9.197s-13.378-5.315-20.212-9.197c-10.958-6.223-21.308-12.1-31.204-12.1s-20.246 5.877-31.204 12.1c-6.835 3.881-16.196 9.197-20.212 9.197-4.016 0-13.378-5.315-20.211-9.197-10.958-6.223-21.308-12.1-31.204-12.1s-20.246 5.877-31.204 12.1c-6.835 3.881-16.196 9.197-20.212 9.197-4.016 0-13.378-5.315-20.212-9.197-10.958-6.223-21.308-12.1-31.204-12.1s-20.246 5.877-31.204 12.1c-6.834 3.881-16.195 9.197-20.211 9.197s-13.378-5.315-20.212-9.197c-10.958-6.223-21.308-12.1-31.204-12.1s-20.246 5.877-31.204 12.1c-6.835 3.881-16.196 9.197-20.212 9.197s-13.378-5.315-20.211-9.197C19.565 351.628 9.57 345.968 0 345.564v22.332c4.437.746 12.847 5.516 19.131 9.086 10.958 6.223 21.308 12.1 31.204 12.1s20.246-5.877 31.204-12.1c6.835-3.881 16.196-9.197 20.212-9.197s13.378 5.315 20.212 9.197c10.958 6.223 21.308 12.1 31.204 12.1s20.246-5.877 31.204-12.1c6.834-3.881 16.195-9.197 20.211-9.197 4.016 0 13.378 5.315 20.212 9.197 10.958 6.223 21.308 12.1 31.204 12.1s20.246-5.877 31.204-12.1c6.835-3.881 16.196-9.197 20.212-9.197 4.016 0 13.378 5.315 20.211 9.197 10.958 6.223 21.308 12.1 31.204 12.1s20.246-5.877 31.204-12.1c6.835-3.881 16.196-9.197 20.212-9.197s13.378 5.315 20.212 9.197c10.958 6.223 21.308 12.1 31.204 12.1s20.246-5.877 31.204-12.1c6.284-3.57 14.694-8.34 19.131-9.086v-22.332H512zM512 401.217c-9.57.404-19.565 6.064-30.125 12.061-6.834 3.881-16.195 9.197-20.211 9.197s-13.378-5.315-20.212-9.197c-10.958-6.223-21.308-12.1-31.204-12.1s-20.246 5.877-31.204 12.1c-6.835 3.881-16.196 9.197-20.212 9.197-4.016 0-13.378-5.315-20.211-9.197-10.958-6.223-21.308-12.1-31.204-12.1s-20.246 5.877-31.204 12.1c-6.835 3.881-16.196 9.197-20.212 9.197-4.016 0-13.378-5.315-20.212-9.197-10.958-6.223-21.308-12.1-31.204-12.1s-20.246 5.877-31.204 12.1c-6.834 3.881-16.195 9.197-20.211 9.197s-13.378-5.315-20.212-9.197c-10.958-6.223-21.308-12.1-31.204-12.1s-20.246 5.877-31.204 12.1c-6.835 3.881-16.196 9.197-20.212 9.197s-13.378-5.315-20.211-9.197C19.565 407.28 9.57 401.621 0 401.217v22.332c4.437.746 12.847 5.516 19.131 9.086 10.958 6.223 21.308 12.1 31.204 12.1s20.246-5.877 31.204-12.1c6.835-3.881 16.196-9.197 20.212-9.197s13.378 5.315 20.212 9.197c10.958 6.223 21.308 12.1 31.204 12.1s20.246-5.877 31.204-12.1c6.834-3.881 16.195-9.197 20.211-9.197 4.016 0 13.378 5.315 20.212 9.197 10.958 6.223 21.308 12.1 31.204 12.1s20.246-5.877 31.204-12.1c6.835-3.881 16.196-9.197 20.212-9.197 4.016 0 13.378 5.315 20.211 9.197 10.958 6.223 21.308 12.1 31.204 12.1s20.246-5.877 31.204-12.1c6.835-3.881 16.196-9.197 20.212-9.197s13.378 5.315 20.212 9.197c10.958 6.223 21.308 12.1 31.204 12.1s20.246-5.877 31.204-12.1c6.284-3.57 14.694-8.34 19.131-9.086v-22.332H512zM512 456.869c-9.57.404-19.565 6.064-30.125 12.061-6.834 3.881-16.195 9.197-20.211 9.197s-13.378-5.315-20.212-9.197c-10.958-6.223-21.308-12.1-31.204-12.1s-20.246 5.877-31.204 12.1c-6.835 3.881-16.196 9.197-20.212 9.197-4.016 0-13.378-5.315-20.211-9.197-10.958-6.223-21.308-12.1-31.204-12.1s-20.246 5.877-31.204 12.1c-6.835 3.881-16.196 9.197-20.212 9.197-4.016 0-13.378-5.315-20.212-9.197-10.958-6.223-21.308-12.1-31.204-12.1s-20.246 5.877-31.204 12.1c-6.834 3.881-16.195 9.197-20.211 9.197s-13.378-5.315-20.212-9.197c-10.958-6.223-21.308-12.1-31.204-12.1s-20.246 5.877-31.204 12.1c-6.835 3.881-16.196 9.197-20.212 9.197s-13.378-5.315-20.211-9.197C19.565 462.933 9.57 457.273 0 456.869v22.332c4.437.746 12.847 5.516 19.131 9.086 10.958 6.223 21.308 12.1 31.204 12.1s20.246-5.877 31.204-12.1c6.835-3.881 16.196-9.197 20.212-9.197s13.378 5.315 20.212 9.197c10.958 6.223 21.308 12.1 31.204 12.1s20.246-5.877 31.204-12.1c6.834-3.881 16.195-9.197 20.211-9.197 4.016 0 13.378 5.315 20.212 9.197 10.958 6.223 21.308 12.1 31.204 12.1s20.246-5.877 31.204-12.1c6.835-3.881 16.196-9.197 20.212-9.197 4.016 0 13.378 5.315 20.211 9.197 10.958 6.223 21.308 12.1 31.204 12.1s20.246-5.877 31.204-12.1c6.835-3.881 16.196-9.197 20.212-9.197s13.378 5.315 20.212 9.197c10.958 6.223 21.308 12.1 31.204 12.1s20.246-5.877 31.204-12.1c6.284-3.57 14.694-8.34 19.131-9.086v-22.332H512z"/></g><g fill="#fff"><path d="M256 85.334h-.029.029zM255.544 256H256v-.456l-.456.456z"/></g><path fill="#496e2d" d="M278.261 256v-.001z"/><path fill="#6da544" d="M350.609 168.812h66.782L384 202.203z"/><g fill="#a2001d"><path d="M376.576 194.783h14.84v40.812h-14.84zM376.576 302.381h14.84v40.812h-14.84z"/></g><path fill="#ffda44" d="M428.522 280.116c0-12.295-9.966-22.261-22.261-22.261a22.173 22.173 0 00-14.84 5.672v-13.093h7.421v-14.84h-7.421v-7.421h-14.84v7.421h-7.421v14.84h7.421v13.093a22.175 22.175 0 00-14.84-5.672c-12.295 0-22.261 9.966-22.261 22.261 0 6.591 2.867 12.512 7.421 16.589v13.093h74.203v-13.094c4.551-4.076 7.418-9.996 7.418-16.588z"/><path fill="#d80027" d="M406.261 272.696a7.31 7.31 0 00-4.943 1.889l-9.898 8.861h-14.84l-9.898-8.861a7.31 7.31 0 00-4.942-1.889c-4.092 0-7.421 3.329-7.421 7.421 0 2.882 1.554 4.703 2.48 5.533l4.941 4.424v4.883h44.522v-4.884l4.941-4.424c.926-.829 2.48-2.651 2.48-5.533-.002-4.091-3.331-7.42-7.422-7.42z"/><path fill="#fff" d="M0 0h256v256H0z"/><path fill="#d80027" d="M0 152.001h104.001v104h48v-104H256v-48H152.001v-104h-48v104H0z"/><g fill="#0052b4"><path d="M203.46 166.958l52.54 52.54v-52.54zM166.957 166.958L256 256.001v-25.18l-63.863-63.863zM232.282 256.001l-65.325-65.331v65.331z"/></g><path fill="#fff" d="M166.957 166.958L256 256.001v-25.18l-63.863-63.863z"/><path fill="#d80027" d="M166.957 166.958L256 256.001v-25.18l-63.863-63.863z"/><g fill="#0052b4"><path d="M40.151 166.958L0 207.108v-40.15zM89.041 178.281v77.718H11.33z"/></g><path fill="#d80027" d="M63.862 166.96L0 230.822v25.179l89.041-89.041z"/><g fill="#0052b4"><path d="M52.54 89.045L0 36.504v52.541zM89.043 89.045L0 .001v25.18l63.863 63.864zM23.718.001l65.325 65.331V.001z"/></g><path fill="#fff" d="M89.043 89.045L0 .001v25.18l63.863 63.864z"/><path fill="#d80027" d="M89.043 89.045L0 .001v25.18l63.863 63.864z"/><g fill="#0052b4"><path d="M215.849 89.045L256 48.894v40.151zM166.959 77.722V.002h77.711z"/></g><path fill="#d80027" d="M192.138 89.042L256 25.18V.001l-89.041 89.041z"/></svg>
