<svg xmlns="http://www.w3.org/2000/svg" viewBox="0 0 512 512"><path fill="#0052b4" d="M0 0h512v512H0z"/><g fill="#fff"><path d="M512 233.739v44.522H278.261v148.402h-44.522V278.261H0v-44.522h233.739V85.337h44.522v148.402z"/><path d="M278.261 0h-44.522v233.739H0v44.522h233.739V512h44.522V278.261H512v-44.522H278.261z"/><path d="M383.943 138.332a5.405 5.405 0 015.4-5.399h11.571c18.292 0 33.172-14.88 33.172-33.171s-14.88-33.171-33.172-33.171h-10.989c-3.586-2.694-8.398-4.355-13.706-4.355-11.071 0-20.046 7.18-20.046 16.037 0 8.771 8.803 15.886 19.726 16.024l-.004.065h25.019c2.979 0 5.4 2.422 5.4 5.4a5.404 5.404 0 01-5.4 5.399h-11.571c-18.292 0-33.17 14.88-33.17 33.17 0 18.291 14.879 33.171 33.17 33.171h44.743v-27.77h-44.743a5.404 5.404 0 01-5.4-5.4zM105.682 138.332a5.405 5.405 0 015.4-5.399h11.571c18.292 0 33.172-14.88 33.172-33.171s-14.88-33.171-33.172-33.171h-10.989c-3.586-2.694-8.398-4.355-13.706-4.355-11.071 0-20.046 7.18-20.046 16.037 0 8.771 8.803 15.886 19.726 16.024l-.004.065h25.019c2.979 0 5.4 2.422 5.4 5.4a5.404 5.404 0 01-5.4 5.399h-11.571c-18.291.001-33.17 14.881-33.17 33.171 0 18.291 14.879 33.171 33.17 33.171h44.743v-27.77h-44.743a5.406 5.406 0 01-5.4-5.401zM383.943 416.593a5.404 5.404 0 015.4-5.399h11.571c18.292 0 33.172-14.88 33.172-33.171 0-18.291-14.88-33.171-33.172-33.171h-10.989c-3.586-2.694-8.398-4.355-13.706-4.355-11.071 0-20.046 7.18-20.046 16.037 0 8.771 8.803 15.886 19.726 16.024l-.004.065h25.019c2.979 0 5.4 2.422 5.4 5.4a5.405 5.405 0 01-5.4 5.399h-11.571c-18.292 0-33.17 14.88-33.17 33.17 0 18.291 14.879 33.171 33.17 33.171h44.743v-27.77h-44.743a5.404 5.404 0 01-5.4-5.4zM105.682 416.593a5.404 5.404 0 015.4-5.399h11.571c18.292 0 33.172-14.88 33.172-33.171 0-18.291-14.88-33.171-33.172-33.171h-10.989c-3.586-2.694-8.398-4.355-13.706-4.355-11.071 0-20.046 7.18-20.046 16.037 0 8.771 8.803 15.886 19.726 16.024l-.004.065h25.019c2.979 0 5.4 2.422 5.4 5.4a5.405 5.405 0 01-5.4 5.399h-11.571c-18.291.001-33.17 14.881-33.17 33.171 0 18.291 14.879 33.171 33.17 33.171h44.743v-27.77h-44.743a5.406 5.406 0 01-5.4-5.401z"/></g></svg>
