<svg xmlns="http://www.w3.org/2000/svg" viewBox="0 0 512 512"><path fill="#fff" d="M0 0h512v512H0z"/><g fill="#d80027"><path d="M0 341.337h512V512H0zM332.8 219.64v-25.6h8.534v-17.067h-17.067v8.534H307.2v-8.534h-17.066v17.067h8.533v25.6H281.6v-59.732h8.534v-17.067h-17.068v8.532h-8.532v-8.532h-17.068v8.532h-8.532v-8.532h-17.068v17.067h8.534v59.732h-17.067v-25.6h8.533v-17.067H204.8v8.534h-17.067v-8.534h-17.067v17.067h8.533v25.6h-17.066v68.268h187.734V219.64z"/></g><path fill="#ffda44" d="M256 279.374c-14.138 0-25.6 11.462-25.6 25.6 0 11.145 7.125 20.624 17.066 24.137v35.596h-25.6v34.134h42.667v-69.73c9.942-3.514 17.066-12.993 17.066-24.137.001-14.138-11.461-25.6-25.599-25.6zm0 34.134a8.534 8.534 0 01-8.534-8.534A8.533 8.533 0 01256 296.44a8.534 8.534 0 010 17.068z"/></svg>
