<svg xmlns="http://www.w3.org/2000/svg" viewBox="0 0 512 512"><path fill="#fff" d="M0 0h512v512H0z"/><path fill="#6da544" d="M0 0h170.663v512H0z"/><path fill="#d80027" d="M341.337 0H512v512H341.337z"/><path fill="#6da544" d="M208 256c0 26.509 21.491 48 48 48s48-21.491 48-48v-16h-96v16z"/><path fill="#ff9811" d="M320 224h-48c0-8.836-7.164-16-16-16s-16 7.164-16 16h-48c0 8.836 7.697 16 16.533 16H208c0 8.836 7.164 16 16 16 0 8.836 7.164 16 16 16h32c8.836 0 16-7.164 16-16 8.836 0 16-7.164 16-16h-.533c8.836 0 16.533-7.164 16.533-16z"/></svg>
