<svg xmlns="http://www.w3.org/2000/svg" viewBox="0 0 512 512"><path fill="#6da544" d="M0 0h512v512H0z"/><g fill="#ffda44"><path d="M355.958 339l5.211 10.897 11.771-2.719-5.272 10.87 9.466 7.506-11.784 2.655.032 12.081-9.424-7.558-9.424 7.558.032-12.081-11.785-2.655 9.466-7.506-5.271-10.87 11.77 2.719zM307.472 223.387l5.211 10.898 11.77-2.721-5.27 10.871 9.464 7.506-11.784 2.655.033 12.081-9.424-7.558-9.425 7.558.033-12.081-11.784-2.655 9.464-7.506-5.271-10.871 11.77 2.721zM355.958 157.322l5.211 10.899 11.771-2.721-5.271 10.871 9.465 7.505-11.784 2.656.032 12.081-9.424-7.559-9.424 7.559.032-12.081-11.784-2.656 9.465-7.505-5.271-10.871 11.77 2.721zM398.31 206.87l5.212 10.899 11.77-2.721-5.271 10.871 9.465 7.505-11.784 2.656.033 12.081-9.425-7.558-9.424 7.558.033-12.081-11.785-2.656 9.465-7.505-5.271-10.871 11.77 2.721zM368.026 264.677l4.1 12.618h13.266l-10.733 7.798 4.1 12.616-10.733-7.798-10.733 7.798 4.1-12.616-10.733-7.798h13.266z"/><path d="M274.97 310.096c-29.646 0-53.678-24.032-53.678-53.678s24.032-53.678 53.678-53.678c9.244 0 17.94 2.337 25.534 6.451-11.912-11.649-28.201-18.838-46.18-18.838-36.486 0-66.064 29.578-66.064 66.065s29.578 66.065 66.064 66.065c17.978 0 34.268-7.189 46.18-18.838-7.594 4.114-16.291 6.451-25.534 6.451zM183.83 140.806c-5.712-9.87-16.378-16.516-28.602-16.516-12.223 0-22.89 6.645-28.602 16.516h57.204zM183.939 140.997l-28.712 28.712-28.712-28.712a32.861 32.861 0 00-4.32 16.325c0 18.244 14.789 33.032 33.032 33.032s33.032-14.789 33.032-33.032a32.85 32.85 0 00-4.32-16.325z"/></g><path fill="#a2001d" d="M146.97 161.451v27.863a33.102 33.102 0 008.258 1.041c2.852 0 5.619-.362 8.258-1.041v-27.863H146.97z"/></svg>
