<svg xmlns="http://www.w3.org/2000/svg" viewBox="0 0 512.006 512.006"><path fill="#338af3" d="M.003.017h512v511.989h-512z"/><path fill="#fff" d="M512.003 0v250.031l-512 6.227V0z"/><path fill="#6da544" d="M338.566 191.524l-82.563 82.563-82.563-82.563c-10.676 15.85-16.915 34.926-16.915 55.433v27.13c0 43.563 28.149 80.672 67.212 94.103-5.214 10.218-4.334 22.971 3.306 32.505 10.146-8.132 20.653-16.551 29.564-23.691l29.564 23.691c7.73-9.646 8.545-22.589 3.125-32.867 38.529-13.724 66.187-50.56 66.187-93.742v-27.13c-.002-20.506-6.241-39.583-16.917-55.432z"/><path fill="#ffda44" d="M256.003 346.435c-39.893 0-72.348-32.455-72.348-72.348v-27.13c0-39.893 32.455-72.348 72.348-72.348s72.348 32.455 72.348 72.348v27.13c0 39.893-32.456 72.348-72.348 72.348z"/><path fill="#338af3" d="M301.22 274.087v-27.13c0-24.933-20.284-45.217-45.217-45.217s-45.217 20.284-45.217 45.217v27.13l45.217 9.043 45.217-9.043z"/><path fill="#6da544" d="M210.785 274.087c0 24.933 20.284 45.217 45.217 45.217s45.217-20.284 45.217-45.217h-90.434z"/><path fill="#ffda44" d="M310.264 174.609c0-14.984-12.147-27.13-27.13-27.13a27.026 27.026 0 00-18.087 6.913v-15.957h9.043v-18.087h-9.043v-9.043H246.96v9.043h-9.043v18.087h9.043v15.957a27.026 27.026 0 00-18.087-6.913c-14.984 0-27.13 12.147-27.13 27.13 0 8.033 3.495 15.249 9.043 20.217v15.957h90.435v-15.957c5.548-4.969 9.043-12.184 9.043-20.217z"/></svg>
