<svg xmlns="http://www.w3.org/2000/svg" viewBox="0 0 512 512"><path fill="#0052b4" d="M21.858 0H0v13.62l4.499 13.833 27.548-.017L9.765 43.63l8.525 26.21L0 56.558V512h450.359l-21.591-15.678 27.548-.018 8.508-26.21 8.525 26.21 27.548-.017L479.275 512H512v-21.857L21.858 0zm-1.246 116.742l8.49-26.193-22.3-16.191 27.548-.018 8.508-26.21 8.525 26.21 27.548-.017-22.282 16.192 8.526 26.21-22.299-16.193-22.264 16.21zm46.885 46.885l8.491-26.193-22.298-16.192 27.548-.018 8.508-26.209 8.525 26.209 27.548-.017-22.284 16.193 8.526 26.21-22.299-16.193-22.265 16.21zm46.885 46.885l8.491-26.192-22.3-16.193 27.548-.018 8.508-26.21 8.525 26.21 27.548-.017-22.282 16.193 8.525 26.21-22.299-16.193-22.264 16.21zm46.885 46.885l8.49-26.193-22.299-16.193 27.548-.018 8.508-26.21 8.525 26.21 27.548-.017-22.282 16.193 8.526 26.21-22.299-16.193-22.265 16.211zm46.884 46.885l8.491-26.193-22.299-16.193 27.548-.018 8.508-26.209 8.525 26.209 27.548-.017-22.282 16.193 8.526 26.21-22.299-16.193-22.266 16.211zm46.886 46.884l8.491-26.192-22.3-16.193 27.548-.018 8.508-26.21 8.525 26.21 27.548-.017-22.282 16.193 8.525 26.21-22.299-16.193-22.264 16.21zm46.885 46.886l8.49-26.193-22.299-16.193 27.548-.018 8.508-26.21 8.525 26.21 27.548-.017-22.282 16.193 8.526 26.21-22.299-16.193-22.265 16.211zm46.885 46.885l8.491-26.193-22.299-16.193 27.548-.018 8.508-26.209 8.525 26.209 27.548-.017-22.282 16.193 8.526 26.21-22.299-16.193-22.266 16.211zm91.448 46.868l-22.299-16.193-22.265 16.209 8.491-26.192-22.3-16.193 27.548-.018 8.508-26.21 8.525 26.21 27.548-.017-22.282 16.193 8.526 26.211z"/><path fill="#ffda44" d="M512 0H21.857h.001L512 490.143z"/><g fill="#fff"><path d="M9.765 43.63l22.282-16.192-27.548.016L0 13.621v42.937L18.291 69.84z"/><path d="M56.649 90.515l22.284-16.193-27.548.017-8.526-26.21-8.508 26.21-27.548.018 22.3 16.192-8.491 26.193 22.265-16.21 22.298 16.193z"/><path d="M103.535 137.4l22.282-16.193-27.548.017-8.524-26.209-8.51 26.209-27.546.018 22.298 16.192-8.49 26.193 22.264-16.21 22.299 16.193z"/><path d="M150.42 184.285l22.282-16.193-27.548.017-8.525-26.209-8.508 26.209-27.548.017 22.299 16.193-8.49 26.193 22.264-16.21 22.299 16.192z"/><path d="M197.305 231.17l22.282-16.192-27.548.016-8.525-26.21-8.508 26.21-27.548.018 22.299 16.192-8.49 26.193 22.264-16.209 22.3 16.192z"/><path d="M244.189 278.055l22.284-16.193-27.548.017-8.526-26.209-8.508 26.209-27.547.018 22.299 16.192-8.492 26.193 22.266-16.21 22.298 16.193z"/><path d="M291.075 324.94l22.282-16.193-27.547.017-8.525-26.209-8.508 26.209-27.548.018 22.298 16.192-8.49 26.192 22.264-16.209L299.6 351.15z"/><path d="M337.96 371.824l22.282-16.191-27.548.017-8.525-26.21-8.508 26.21-27.548.016 22.299 16.193-8.49 26.193 22.264-16.21 22.299 16.192z"/><path d="M384.845 418.71l22.282-16.192-27.548.016-8.525-26.21-8.508 26.21-27.548.018 22.3 16.192-8.491 26.193 22.265-16.21 22.299 16.192z"/><path d="M426.464 449.419l-8.524-26.21-8.509 26.21-27.548.018 22.3 16.192-8.492 26.193 22.266-16.21 22.298 16.193-8.526-26.21 22.283-16.193z"/><path d="M473.35 496.304l-8.525-26.209-8.509 26.209-27.547.018L450.359 512h28.916l21.622-15.713z"/></g></svg>
