<svg xmlns="http://www.w3.org/2000/svg" viewBox="0 0 512 512"><path fill="#d80027" d="M0 0h512v512H0z"/><path d="M0 0h170.663v512H0z"/><path fill="#496e2d" d="M341.337 0H512v512H341.337z"/><g fill="#ffda44"><path d="M256 183.652c-39.956 0-72.348 32.392-72.348 72.348s32.392 72.348 72.348 72.348 72.348-32.392 72.348-72.348-32.392-72.348-72.348-72.348zm0 117.565c-24.973 0-45.217-20.244-45.217-45.217s20.244-45.217 45.217-45.217 45.217 20.244 45.217 45.217-20.244 45.217-45.217 45.217z"/><path d="M256 228.87c-9.99 0-18.087 8.097-18.087 18.087v27.13h36.174v-27.13c0-9.99-8.097-18.087-18.087-18.087z"/></g></svg>
