<svg xmlns="http://www.w3.org/2000/svg" viewBox="0 0 512 512"><path fill="#0052b4" d="M0 0h512v512H0z"/><path fill="#d80027" d="M0 322.783h512v22.261H0z"/><g fill="#fff"><path d="M0 300.522h512v22.261H0zM0 345.043h512v22.261H0z"/></g><g fill="#ffda44"><path d="M180.384 261.278l3.004 9.248h9.725l-7.867 5.716 3.005 9.248-7.867-5.715-7.867 5.715 3.005-9.248-7.866-5.716h9.724zM180.384 382.337l3.004 9.247h9.725l-7.867 5.716 3.005 9.248-7.867-5.715-7.867 5.715 3.005-9.248-7.866-5.716h9.724zM124.033 341.395l3.004 9.248h9.725l-7.866 5.716 3.004 9.248-7.867-5.716-7.867 5.716 3.005-9.248-7.867-5.716h9.725zM145.557 273.383l3.004 9.249h9.725l-7.866 5.715 3.004 9.249-7.867-5.716-7.867 5.716 3.005-9.249-7.867-5.715h9.725zM111.304 311.467l9.723.002 3.005-9.25 3.005 9.248 9.725-.001-7.867 5.717 3.005 9.249-7.868-5.715-7.866 5.713 3.004-9.247zM137.69 392.676l3.005-9.246-7.868-5.716h9.725l3.005-9.249 3.005 9.247h9.724l-7.867 5.717 3.004 9.248-7.867-5.715zM236.714 341.395l-3.004 9.248h-9.724l7.865 5.716-3.004 9.248 7.867-5.716 7.867 5.716-3.005-9.248 7.867-5.716h-9.725zM215.19 273.383l-3.004 9.249h-9.725l7.866 5.715-3.004 9.249 7.867-5.716 7.867 5.716-3.005-9.249 7.867-5.715h-9.725zM249.443 311.467l-9.722.002-3.006-9.25-3.005 9.248-9.724-.001 7.867 5.717-3.006 9.249 7.868-5.715 7.866 5.713-3.004-9.247zM223.057 392.676l-3.005-9.246 7.867-5.716h-9.724l-3.005-9.249-3.005 9.247h-9.724l7.867 5.717-3.004 9.248 7.867-5.715z"/></g></svg>
