<svg xmlns="http://www.w3.org/2000/svg" viewBox="0 0 512.006 512.006"><path fill="#fff" d="M.003.017h512v511.989h-512z"/><path fill="#496e2d" d="M128.003 0h384v512h-384z"/><g fill="#fff"><path d="M372.459 297.284c-31.577 22.816-75.671 15.714-98.488-15.863-22.817-31.578-15.714-75.673 15.863-98.488 9.845-7.113 20.907-11.319 32.163-12.781-21.652-3.239-44.538 1.641-63.686 15.475-38.864 28.082-47.606 82.352-19.525 121.217 28.081 38.863 82.352 47.606 121.216 19.522 19.148-13.834 30.966-34.029 34.689-55.605-4.922 10.226-12.387 19.408-22.232 26.523zM371.107 169.19l17.788 19.169 23.727-10.99-12.736 22.839 17.786 19.171-25.658-5.055-12.736 22.84-3.121-25.964-25.657-5.055 23.728-10.991z"/></g></svg>
