<svg xmlns="http://www.w3.org/2000/svg" viewBox="0 0 512 512"><path fill="#ffda44" d="M0 .001h512v511.978H0z"/><path fill="#6da544" d="M0 .005h512v170.663H0z"/><path fill="#d80027" d="M0 341.336h512v170.663H0z"/><circle cx="256" cy="255.999" r="128" fill="#0052b4"/><g fill="#ffda44"><path d="M255.973 156.88l23.107 71.113h74.892l-60.612 43.952 23.287 71.326-60.674-44.162-60.582 44.08 23.194-71.244-60.557-43.952h74.837z"/><path d="M348.13 273.698l-73.304-23.819 45.303-62.352-18.827-13.68-45.304 62.354-45.3-62.353-18.829 13.678 45.302 62.356-73.301 23.815 7.191 22.135 73.302-23.817v77.074h23.274v-77.075l73.299 23.818z"/></g></svg>
