<svg xmlns="http://www.w3.org/2000/svg" viewBox="0 0 512 512"><path fill="#d80027" d="M0 0h512v512H0z"/><g fill="#fff"><path d="M255.767 203.717l23.459 32.326 37.991-12.319-23.495 32.299 23.456 32.326-37.979-12.364-23.495 32.298.024-39.939-37.979-12.366 37.993-12.319z"/><path d="M191.744 336.802c-44.626 0-80.803-36.176-80.803-80.803s36.176-80.803 80.803-80.803c13.914 0 27.006 3.518 38.437 9.711-17.931-17.535-42.454-28.358-69.514-28.358-54.924 0-99.449 44.525-99.449 99.449s44.525 99.449 99.449 99.449c27.06 0 51.583-10.823 69.514-28.358-11.431 6.194-24.523 9.713-38.437 9.713z"/></g></svg>
