<svg xmlns="http://www.w3.org/2000/svg" viewBox="0 0 512 512"><path fill="#fff" d="M0 0h512v512H0z"/><g fill="#338af3"><path d="M0 0h170.663v512H0zM341.337 0H512v512H341.337z"/></g><path fill="#acabb1" d="M304.083 286.741l-31.112-31.112 29.615-29.616-1.342-15.641-8.478-8.48L256 238.658l-36.766-36.766-8.478 8.48-1.342 15.641 29.615 29.616-31.112 31.112 16.97 16.971L256 272.6l31.113 31.112z"/><path fill="#6da544" d="M301.255 210.373l-16.971 16.971c7.238 7.239 11.716 17.239 11.716 28.285 0 22.092-17.909 40.001-40.001 40.001s-40.001-17.909-40.001-40.001c0-11.045 4.478-21.045 11.716-28.285l-16.971-16.971C199.162 221.954 192 237.954 192 255.628c0 35.346 28.654 64 64 64s64-28.654 64-64c0-17.674-7.164-33.674-18.745-45.255z"/></svg>
