<svg xmlns="http://www.w3.org/2000/svg" viewBox="0 0 512 512"><path fill="#2e52b2" d="M.002.002H512V512H.002z"/><path fill="#f3f3f3" d="M319.999 196.57v73.141c0 48.99 64 64.001 64 64.001s64-15.01 64-64.001V196.57l-64-18.285-64 18.285z"/><path fill="#d80027" d="M447.998 201.142v-27.429H319.999v27.429h54.856V256h-54.856v18.285h54.856v61.194c5.518 1.953 9.144 2.805 9.144 2.805s3.624-.852 9.141-2.805v-61.195h54.858V255.998H393.14V201.14h54.858v.002z"/><path fill="#fff" d="M255.999 0v48.896l-40.147 40.147h40.147v77.913h-52.536l52.536 52.535v36.508H232.28l-65.324-65.335v65.335H89.043v-77.724l-77.712 77.724H0v-48.896l40.147-40.147H0V89.043h52.535L0 36.508V0h23.719l65.324 65.335V0h77.913v77.723L244.668 0z"/><path fill="#d80027" d="M0 152h104v103.999h48V152h103.999v-48H152V0h-48v104H0z"/><path fill="#0052b4" d="M166.956 166.956l89.043 89.043v-25.18l-63.863-63.863z"/><path fill="#fff" d="M166.956 166.956l89.043 89.043v-25.18l-63.863-63.863z"/><g fill="#d80027"><path d="M166.956 166.956l89.043 89.043v-25.18l-63.863-63.863zM63.862 166.958L0 230.82v25.179l89.041-89.041z"/></g><path fill="#0052b4" d="M89.043 89.043L0 0v25.18l63.863 63.863z"/><path fill="#fff" d="M89.043 89.043L0 0v25.18l63.863 63.863z"/><g fill="#d80027"><path d="M89.043 89.043L0 0v25.18l63.863 63.863zM192.137 89.041l63.862-63.862V0l-89.041 89.041z"/></g></svg>
