<svg xmlns="http://www.w3.org/2000/svg" viewBox="0 0 512 512"><path fill="#6da544" d="M0 0h512v512H0z"/><path fill="#ffda44" d="M256 114.527L448 256 256 397.473 64 256z"/><circle cx="256" cy="256" r="80.84" fill="#fff"/><g fill="#0052b4"><path d="M215.579 250.948c-14.058 0-27.625 2.138-40.395 6.105.565 44.161 36.521 79.79 80.816 79.79 27.39 0 51.58-13.634 66.203-34.471-25.018-31.32-63.515-51.424-106.624-51.424zM335.343 271.488A81.137 81.137 0 00336.842 256c0-44.648-36.194-80.843-80.843-80.843-33.314 0-61.913 20.156-74.29 48.935a166.852 166.852 0 0133.869-3.46c46.957 0 89.433 19.517 119.765 50.856z"/></g></svg>
