<svg xmlns="http://www.w3.org/2000/svg" viewBox="0 0 512 512"><path d="M0 0h512v512H0z"/><path fill="#ffda44" d="M369.883 208.509H142.117l46.534-21.891-24.78-45.066 50.529 9.665 6.406-51.045L256 137.716l35.197-37.544 6.402 51.045 50.531-9.665-24.779 45.07z"/><path fill="#0052b4" d="M88.751 204.797c-2.239 16.543-3.417 33.665-3.417 51.201s1.179 34.657 3.417 51.201L256 322.781l167.249-15.583c2.239-16.543 3.417-33.665 3.417-51.201s-1.179-34.657-3.417-51.201"/><path fill="#fff" d="M423.249 307.198H88.751C104.564 424.049 173.433 512 256 512s151.436-87.951 167.249-204.802z"/><g fill="#a2001d"><path d="M255.997 511.994L0 0v511.994zM512 511.994V0L256.003 511.994z"/></g></svg>
