<svg xmlns="http://www.w3.org/2000/svg" viewBox="0 0 512 512"><path fill="#6da544" d="M0 0h512v512H0z"/><g fill="#fff"><path d="M159.397 299.472c0 16.006 12.976 28.981 28.981 28.981h86.943c0 13.338 10.813 24.151 24.151 24.151h28.981c13.339 0 24.151-10.813 24.151-24.151v-28.981H159.397zM355.019 159.397v67.623c0 10.654-8.667 19.32-19.32 19.32v28.981c26.634 0 48.302-21.668 48.302-48.302v-67.623h-28.982zM147.32 227.019c0 10.654-8.667 19.32-19.32 19.32v28.981c26.634 0 48.302-21.668 48.302-48.302v-67.623H147.32v67.624z"/><path d="M311.552 159.399h28.984v67.623h-28.984zM268.075 198.038c0 2.664-2.167 4.831-4.831 4.831s-4.831-2.167-4.831-4.831v-38.642h-28.981v38.642c0 2.664-2.167 4.831-4.831 4.831s-4.831-2.167-4.831-4.831v-38.642h-28.98v38.642c0 18.643 15.167 33.811 33.811 33.811 7.18 0 13.84-2.256 19.32-6.088a33.61 33.61 0 0019.32 6.088c1.446 0 2.867-.102 4.266-.279-2.055 8.461-9.673 14.77-18.757 14.77v28.981c26.634 0 48.302-21.668 48.302-48.302v-67.623h-28.981v38.642h.004z"/><path d="M190.787 246.339h43.475v28.984h-43.475z"/></g></svg>
