<svg xmlns="http://www.w3.org/2000/svg" viewBox="0 0 512 512"><path fill="#fff" d="M0 0h512v512H0z"/><path fill="#d80027" d="M0 304h208v208h96V304h208v-96H304V0h-96v208H0z"/><g fill="#0052b4"><path d="M406.92 333.913L512 438.993v-105.08zM333.913 333.913L512 512v-50.36L384.273 333.913zM464.564 512L333.913 381.336V512z"/></g><path fill="#fff" d="M333.913 333.913L512 512v-50.36L384.273 333.913z"/><path fill="#d80027" d="M333.913 333.913L512 512v-50.36L384.273 333.913z"/><g fill="#0052b4"><path d="M80.302 333.913L0 414.215v-80.302zM178.084 356.559v155.438H22.658z"/></g><path fill="#d80027" d="M127.724 333.916L0 461.641V512l178.084-178.084z"/><g fill="#0052b4"><path d="M105.08 178.087L0 73.007v105.08zM178.087 178.087L0 0v50.36l127.727 127.727zM47.436 0l130.651 130.663V0z"/></g><path fill="#fff" d="M178.087 178.087L0 0v50.36l127.727 127.727z"/><path fill="#d80027" d="M178.087 178.087L0 0v50.36l127.727 127.727z"/><g fill="#0052b4"><path d="M431.698 178.087L512 97.785v80.302zM333.916 155.441V.003h155.426z"/></g><path fill="#d80027" d="M384.276 178.084L512 50.359V0L333.916 178.084z"/></svg>
