<svg xmlns="http://www.w3.org/2000/svg" viewBox="0 0 512 512"><path fill="#496e2d" d="M0 0h512v512H0z"/><path fill="#0052b4" d="M0 512V0h512"/><path fill="#ffda44" d="M0 466.745V512h45.255L512 45.255V0h-45.255z"/><g fill="#fff"><path d="M64.531 35.184l7.68 23.635h24.851L76.956 73.425l7.68 23.637-20.105-14.609-20.106 14.609 7.68-23.637L32 58.819h24.851zM191.469 35.184l7.68 23.635H224l-20.106 14.606 7.681 23.637-20.106-14.609-20.105 14.609 7.68-23.637-20.106-14.606h24.851zM64.531 158.938l7.68 23.635h24.851l-20.106 14.606 7.68 23.637-20.105-14.609-20.106 14.609 7.68-23.637L32 182.573h24.851zM191.469 158.938l7.68 23.635H224l-20.106 14.606 7.681 23.637-20.106-14.609-20.105 14.609 7.68-23.637-20.106-14.606h24.851zM128 97.062l7.68 23.634h24.851l-20.106 14.607 7.681 23.635L128 144.331l-20.105 14.607 7.68-23.635-20.106-14.607h24.851z"/></g></svg>
