<svg xmlns="http://www.w3.org/2000/svg" viewBox="0 0 512 512"><path fill="#d80027" d="M0 0h512v512H0z"/><path fill="#6da544" d="M512 0H0v512"/><path fill="#ffda44" d="M512 0v110.191L110.202 511.989H0v-110.18L401.798.011h47.215l.011-.011z"/><path d="M62.967 511.991L512 62.974V0h-62.975l-.009.009L0 449.04v62.951z"/><g fill="#fff"><path d="M178.452 288.791l19.177 9.771 15.217-15.219-3.366 21.258 19.177 9.77-21.258 3.367-3.367 21.257-9.77-19.176-21.257 3.367 15.217-15.218zM288.791 178.452l19.177 9.77 15.218-15.217-3.367 21.257 19.176 9.77-21.257 3.367-3.367 21.258-9.77-19.177-21.258 3.367 15.219-15.218z"/></g></svg>
