<svg xmlns="http://www.w3.org/2000/svg" viewBox="0 0 512 512"><path fill="#496e2d" d="M0 0h512v512H0z"/><path fill="#ff9811" d="M490.668 195.479h-48c0-8.836-7.164-16-16-16s-16 7.164-16 16h-48c0 8.836 7.697 16 16.533 16h-.533c0 8.836 7.162 16 16 16 0 8.836 7.162 16 16 16h32c8.836 0 16-7.164 16-16 8.836 0 16-7.164 16-16h-.533c8.837 0 16.533-7.163 16.533-16z"/><path fill="#d80027" d="M341.337 256h56.888v256h-56.888z"/><path fill="#ff9811" d="M455.112 256H512v256h-56.888z"/><path d="M398.225 256h56.888v256h-56.888z"/></svg>
