<svg xmlns="http://www.w3.org/2000/svg" viewBox="0 0 512 512"><path fill="#d80027" d="M0 .019h512v511.978H0z"/><path fill="#0052b4" d="M512 .003v250.026L0 256.257V.003z"/><path fill="#ffda44" d="M192 177.857c0-17.673-14.327-32-32-32a31.877 31.877 0 00-21.334 8.154v-18.82h10.666v-21.334h-10.666v-10.666h-21.334v10.666h-10.666v21.334h10.666v18.82a31.873 31.873 0 00-21.334-8.154c-17.673 0-32 14.327-32 32 0 9.475 4.122 17.986 10.666 23.846v18.82H181.33v-18.82c6.548-5.86 10.67-14.371 10.67-23.846z"/></svg>
