<svg xmlns="http://www.w3.org/2000/svg" viewBox="0 0 512 512"><path fill="#0052b4" d="M0 0h512v512H0z"/><path fill="#ffda44" d="M332.058 189.217v81.623c0 39.76 51.942 51.942 51.942 51.942s51.942-12.182 51.942-51.942v-81.623H332.058z"/><path fill="#ff9811" d="M376.579 218.899c0 8.196-6.644 29.682-14.84 29.682s-14.84-21.485-14.84-29.682c0-8.196 14.84-14.84 14.84-14.84s14.84 6.643 14.84 14.84z"/><path fill="#a2001d" d="M415.961 235.063c2.394-5.843 4.257-14.385 4.257-18.637 0-6.831-8.904-12.367-8.904-12.367s-8.904 5.537-8.904 12.367c0 4.252 1.862 12.793 4.257 18.637l-5.14 11.607a25.918 25.918 0 009.788 1.911c3.463 0 6.766-.682 9.788-1.911l-5.142-11.607z"/><path fill="#6da544" d="M372.87 270.84s-7.421 14.84-7.421 29.682h37.101c0-14.84-7.421-29.682-7.421-29.682l-11.13-7.421-11.129 7.421z"/><path fill="#d80027" d="M395.13 270.84v-3.71c0-6.147-4.983-11.13-11.13-11.13-6.147 0-11.13 4.983-11.13 11.13v3.71h22.26z"/><path fill="#fff" d="M256 0v48.896l-40.147 40.147H256v77.914h-52.536L256 219.492V256h-23.719l-65.324-65.336V256H89.043v-77.724L11.331 256H0v-48.896l40.147-40.147H0V89.043h52.536L0 36.508V0h23.719l65.324 65.336V0h77.914v77.724L244.669 0z"/><path fill="#d80027" d="M0 152.001h103.999V256h48V152.001H256v-48H151.999V0h-48v104.001H0z"/><path fill="#0052b4" d="M166.957 166.957L256 256v-25.18l-63.863-63.863z"/><path fill="#fff" d="M166.957 166.957L256 256v-25.18l-63.863-63.863z"/><g fill="#d80027"><path d="M166.957 166.957L256 256v-25.18l-63.863-63.863zM63.862 166.959L0 230.821V256l89.041-89.041z"/></g><path fill="#0052b4" d="M89.043 89.043L0 0v25.18l63.863 63.863z"/><path fill="#fff" d="M89.043 89.043L0 0v25.18l63.863 63.863z"/><g fill="#d80027"><path d="M89.043 89.043L0 0v25.18l63.863 63.863zM192.138 89.041L256 25.179V0l-89.041 89.041z"/></g></svg>
