<svg xmlns="http://www.w3.org/2000/svg" viewBox="0 0 512 512"><path fill="#fff" d="M0 0h512v512H0z"/><g fill="#0052b4"><path d="M0 0h512v170.663H0zM0 341.337h512V512H0z"/></g><path fill="#ffda44" d="M219.049 264.001l36.951-64 36.951 64z"/><path fill="#6da544" d="M304 285.132l-48 24-48-24v-32h96z"/><path fill="#ffda44" d="M301.255 202.745l-16.971 16.971c7.238 7.239 11.716 17.239 11.716 28.285 0 22.092-17.909 40.001-40.001 40.001s-40.001-17.909-40.001-40.001c0-11.045 4.478-21.045 11.716-28.285l-16.971-16.971C199.162 214.327 192 230.327 192 248.001c0 35.346 28.654 64 64 64s64-28.654 64-64c0-17.674-7.164-33.674-18.745-45.256z"/></svg>
