<svg xmlns="http://www.w3.org/2000/svg" viewBox="0 0 512 512"><path fill="#338af3" d="M0 0h512v512H0z"/><path fill="#ffda44" d="M360.727 266.662H151.273c0 14.461 12.594 26.182 27.054 26.182h-.872c0 14.461 11.721 26.182 26.182 26.182 0 14.461 11.721 26.182 26.182 26.182h52.363c14.461 0 26.182-11.721 26.182-26.182 14.461 0 26.182-11.721 26.182-26.182h-.872c14.458 0 27.053-11.722 27.053-26.182z"/><path fill="#338af3" d="M328.504 232.423c0 40.042-32.461 72.504-72.504 72.504s-72.504-32.461-72.504-72.504"/><path fill="#ffda44" d="M327.871 225.638l-29.367 11.89 15.638 24.48-31.889-5.251-4.041 27.727L256 264.092l-22.213 20.392-4.04-27.727-31.889 5.25 15.637-24.48-29.366-11.889 29.367-11.889-15.638-24.479 31.889 5.25 4.041-27.727L256 187.185l22.213-20.392 4.04 27.727 31.89-5.25-15.638 24.48z"/></svg>
