<svg xmlns="http://www.w3.org/2000/svg" viewBox="0 0 512 512"><path fill="#fff" d="M0 .019h512v511.978H0z"/><path fill="#ffda44" d="M0 356.173h512v155.815H0z"/><path fill="#496e2d" d="M0 .003h512v156.761H0z"/><path d="M0 188.304h512v134.478H0z"/><path fill="#a2001d" d="M256 256.007L0 511.994V.003z"/><path fill="#ffda44" d="M83.477 187.194l17.078 52.561h55.271l-44.713 32.489 17.077 52.563-44.713-32.486-44.714 32.486 17.081-52.563-44.714-32.489h55.269z"/><path fill="#fff" d="M33.503 255.999h99.962v45.869H33.503z"/><path d="M152.395 203.412l-16.219-16.218-52.698 52.698-52.698-52.698-16.218 16.218 52.745 52.651-52.745 52.745 16.218 15.999 52.698-52.603 52.698 52.603 16.219-15.999-52.745-52.745z"/></svg>
