<svg xmlns="http://www.w3.org/2000/svg" viewBox="0 0 512 512"><path fill="#338af3" d="M0 0h512v512H0z"/><g fill="#fff"><path d="M255.999 128l9.776 30.087h31.637l-25.595 18.595 9.776 30.087-25.594-18.593-25.593 18.593 9.777-30.087-25.595-18.595h31.636zM128 256.002l30.087-9.777v-31.637l18.595 25.595 30.087-9.776-18.595 25.595 18.595 25.592-30.087-9.777-18.595 25.595v-31.636zM256.001 384l-9.776-30.087h-31.637l25.595-18.595-9.776-30.087 25.594 18.593 25.593-18.593-9.777 30.087 25.595 18.595h-31.636zM384 255.999l-30.087 9.776v31.637l-18.595-25.595-30.087 9.776 18.593-25.594-18.593-25.593 30.087 9.777 18.595-25.595v31.636z"/></g></svg>
