<svg xmlns="http://www.w3.org/2000/svg" viewBox="0 0 512 512"><path fill="#d80027" d="M0 0h512v512H0z"/><path fill="#0052b4" d="M0 0h512v256H0z"/><path fill="#fff" d="M0 512l256-256L0 0z"/><g fill="#ffda44"><path d="M169.699 256l-31.835-14.974 16.953-30.832-34.57 6.612-4.381-34.922-24.08 25.684-24.078-25.684-4.383 34.922-34.568-6.613 16.952 30.832L13.873 256l31.836 14.974-16.952 30.832 34.571-6.612 4.378 34.922 24.08-25.684 24.08 25.684 4.381-34.922 34.568 6.613-16.952-30.831zM21.789 50.825L30.87 63.52l14.879-4.713-9.268 12.559 9.081 12.694-14.809-4.932-9.268 12.559.117-15.607-14.809-4.934 14.88-4.713zM21.789 420.313l9.081 12.695 14.879-4.713-9.268 12.559 9.081 12.696-14.809-4.933-9.268 12.558.117-15.607-14.809-4.934 14.88-4.713zM210.395 235.569l-9.081 12.695-14.879-4.713 9.268 12.559-9.081 12.696 14.809-4.933 9.268 12.558-.117-15.607 14.809-4.934-14.88-4.713z"/></g></svg>
