<svg xmlns="http://www.w3.org/2000/svg" viewBox="0 0 512 512"><path fill="#fff" d="M0 .008h512v511.989H0z"/><path d="M0 .002h512v170.663H0z"/><path fill="#496e2d" d="M0 341.337h512V512H0z"/><g fill="#d80027"><path d="M256 256.008L0 512V0zM354.034 256c0-28.691 20.164-52.659 47.091-58.539a60.099 60.099 0 00-12.842-1.394c-33.102 0-59.934 26.832-59.934 59.933s26.832 59.933 59.933 59.933c4.411 0 8.704-.49 12.842-1.394-26.927-5.88-47.09-29.848-47.09-58.539z"/><path d="M403.642 217.472l8.501 26.163h27.509l-22.256 16.169 8.502 26.162-22.256-16.169-22.255 16.169 8.502-26.162-22.257-16.169h27.508z"/></g></svg>
