<svg xmlns="http://www.w3.org/2000/svg" viewBox="0 0 512 512"><path fill="#2e52b2" d="M.002.002H512V512H.002z"/><circle cx="383.998" cy="181.793" r="29.681" fill="#6da544"/><path fill="#d80027" d="M332.053 174.38h103.88v44.522h-103.88z"/><path fill="#496e2d" d="M435.94 255.999v-.001.001z"/><path fill="#ffda44" d="M332.056 285.68v29.681h15.616c9.364 9.176 22.18 14.84 36.326 14.84 14.147 0 26.962-5.664 36.326-14.84h15.616V285.68H332.056z"/><path fill="#338af3" d="M332.056 211.477v44.522c0 39.759 51.942 51.942 51.942 51.942s51.942-12.182 51.942-51.942v-44.522H332.056z"/><g fill="#f3f3f3"><path d="M383.995 235.259c-12.985 0-12.985 11.873-25.969 11.873-12.985 0-12.985-11.873-25.969-11.873v20.777c12.985 0 12.985 11.873 25.969 11.873 12.985 0 12.985-11.873 25.969-11.873 12.986 0 12.986 11.873 25.973 11.873 12.986 0 12.986-11.873 25.973-11.873v-20.777c-12.986 0-12.986 11.873-25.973 11.873-12.986-.001-12.986-11.873-25.973-11.873zM383.995 193.669c-12.985 0-12.985 11.873-25.969 11.873-12.985 0-12.985-11.873-25.969-11.873v20.777c12.985 0 12.985 11.873 25.969 11.873 12.985 0 12.985-11.873 25.969-11.873 12.986 0 12.986 11.873 25.973 11.873 12.986 0 12.986-11.873 25.973-11.873v-20.777c-12.986 0-12.986 11.873-25.973 11.873-12.986 0-12.986-11.873-25.973-11.873z"/></g><path fill="#fff" d="M255.999 0v48.896l-40.147 40.147h40.147v77.913h-52.536l52.536 52.535v36.508H232.28l-65.324-65.335v65.335H89.043v-77.724l-77.712 77.724H0v-48.896l40.147-40.147H0V89.043h52.535L0 36.508V0h23.719l65.324 65.335V0h77.913v77.723L244.668 0z"/><path fill="#d80027" d="M0 152h104v103.999h48V152h103.999v-48H152V0h-48v104H0z"/><path fill="#0052b4" d="M166.956 166.956l89.043 89.043v-25.18l-63.863-63.863z"/><path fill="#fff" d="M166.956 166.956l89.043 89.043v-25.18l-63.863-63.863z"/><g fill="#d80027"><path d="M166.956 166.956l89.043 89.043v-25.18l-63.863-63.863zM63.862 166.958L0 230.82v25.179l89.041-89.041z"/></g><path fill="#0052b4" d="M89.043 89.043L0 0v25.18l63.863 63.863z"/><path fill="#fff" d="M89.043 89.043L0 0v25.18l63.863 63.863z"/><g fill="#d80027"><path d="M89.043 89.043L0 0v25.18l63.863 63.863zM192.137 89.041l63.862-63.862V0l-89.041 89.041z"/></g></svg>
