<svg xmlns="http://www.w3.org/2000/svg" viewBox="0 0 512 512"><path fill="#ffda44" d="M0 0h512v512H0z"/><path d="M0 170.615l512 310.781V411.39L273.232 269.797 0 100.616z"/><path fill="#fff" d="M512 411.384v-69.997L0 30.604v70.012"/><g fill="#d80027"><path d="M304.224 237.452c0 26.633-21.591 48.224-48.224 48.224s-48.224-21.591-48.224-48.224a48.002 48.002 0 015.796-22.94c-10.465 10.702-16.925 25.337-16.925 41.488 0 32.779 26.573 59.353 59.353 59.353s59.353-26.574 59.353-59.353c0-16.15-6.46-30.786-16.925-41.488a48.002 48.002 0 015.796 22.94z"/><path d="M244.87 181.805h22.258v111.282H244.87z"/><path d="M293.095 204.066h-74.191c0 5.122 4.461 9.274 9.583 9.274h-.309a9.274 9.274 0 009.274 9.274 9.274 9.274 0 009.274 9.274h18.548a9.274 9.274 0 009.274-9.274 9.274 9.274 0 009.274-9.274h-.308c5.119 0 9.581-4.151 9.581-9.274zM204.065 300.511h103.869v22.258H204.065z"/><path d="M278.261 307.935h44.514v22.258h-44.514zM189.229 307.935h44.514v22.258h-44.514z"/></g></svg>
