<svg xmlns="http://www.w3.org/2000/svg" viewBox="0 0 512 512"><path fill="#d80027" d="M0 0v512h512V0z"/><path fill="#ffda44" d="M390.587 217.82H287.772L256 120.038l-31.772 97.782H121.413l83.18 60.434-31.773 97.784L256 315.605l83.18 60.434-31.773-97.784 83.18-60.435zm-162.715 52.87l10.744-33.065h34.767l10.744 33.065v.001L256 291.125l-28.128-20.435zm39.077-52.87h-21.898L256 184.122l10.949 33.698zm34.024 40.631l-6.767-20.826h35.433l-28.666 20.826zm-83.179-20.827l-6.767 20.826-28.665-20.826h35.432zm-7.305 86.568l10.949-33.697 17.716 12.871-28.665 20.826zm62.357-20.826l17.716-12.871 10.949 33.697-28.665-20.826z"/></svg>
