<svg xmlns="http://www.w3.org/2000/svg" viewBox="0 0 512 512"><path d="M0 0h512v512H0z"/><path fill="#a2001d" d="M0 0h512v511.996"/><g fill="#fff"><path d="M192.64 350.815l3.585 11.037h11.606l-9.39 6.82 3.588 11.037-9.389-6.822-9.389 6.822 3.586-11.037-9.388-6.82h11.604zM163.002 244.867l5.978 18.397h19.34l-15.648 11.366 5.977 18.395-15.647-11.368-15.647 11.368 5.978-18.395-15.65-11.366h19.342zM163.002 379.709l5.976 18.395h19.342l-15.649 11.368 5.978 18.394-15.647-11.368-15.647 11.368 5.976-18.394-15.648-11.368h19.341zM219.551 293.025l5.978 18.396h19.341l-15.648 11.367 5.976 18.394-15.647-11.368-15.647 11.368 5.978-18.394-15.648-11.367h19.34zM106.451 293.025l5.979 18.396h19.34l-15.648 11.367 5.977 18.394-15.648-11.368-15.648 11.368 5.979-18.394-15.648-11.367h19.34z"/></g><path fill="#ffda44" d="M376.525 204.164c-7.628-7.628-17.537-12.133-28.188-12.908l31.88-24.795c-12.698-12.698-29.714-18.431-46.319-17.218a44.31 44.31 0 00-11.396-19.511l-12.593 25.186a18.47 18.47 0 00-3.148-4.197c-7.245-7.245-18.991-7.244-26.234 0s-7.245 18.99 0 26.234a18.536 18.536 0 004.197 3.148l-25.186 12.593a44.303 44.303 0 0019.519 11.399c-1.217 16.605 4.511 33.619 17.209 46.317L324.12 214.6a11.053 11.053 0 017.807-3.202c2.973 0 5.768 1.158 7.87 3.26a11.055 11.055 0 013.26 7.87c0 2.974-1.158 5.768-3.26 7.87l10.494 10.494c4.905-4.905 7.607-11.428 7.607-18.364 0-5.675-1.81-11.071-5.153-15.534a29.485 29.485 0 0113.288 7.663c11.573 11.572 11.573 30.403 0 41.975l10.494 10.494c8.409-8.409 13.04-19.59 13.04-31.482-.002-11.89-4.633-23.071-13.042-31.48z"/></svg>
