<svg xmlns="http://www.w3.org/2000/svg" viewBox="0 0 512.006 512.006"><path fill="#0052b4" d="M.003.017h512v511.989h-512z"/><path fill="#d80027" d="M512.003 0v250.031l-512 6.227V0z"/><path fill="#fff" d="M256.003 256.008L.003 512V0z"/><g fill="#ffda44"><path d="M44.815 256.001a74.99 74.99 0 00-.24 5.713c0 41.027 33.259 74.287 74.287 74.287 41.027 0 74.286-33.259 74.286-74.287 0-1.924-.097-3.826-.242-5.713H44.815z"/><circle cx="118.865" cy="198.856" r="22.857"/></g><path fill="#d80027" d="M67.432 193.142v74.287c0 39.367 51.429 51.429 51.429 51.429s51.429-12.061 51.429-51.429v-74.287H67.432z"/><path fill="#338af3" d="M118.886 294.936c-9.54-3.433-28.596-12.209-28.596-27.508v-51.429h57.144v51.429c-.002 15.348-19.055 24.103-28.548 27.508z"/><path fill="#f3f3f3" d="M130.289 244.571v-11.428l-11.429-5.715-11.427 5.715v11.428l-5.715 5.715v22.856h34.285v-22.856z"/></svg>
