<svg xmlns="http://www.w3.org/2000/svg" viewBox="0 0 512 512"><path fill="#d80027" d="M0 0h512v512H0z"/><path fill="#0052b4" d="M0 .001h256V255.99H0z"/><g fill="#fff"><path d="M187.973 145.805l4.421 13.606h14.305l-11.574 8.407 4.421 13.605-11.573-8.408-11.573 8.408 4.421-13.605-11.573-8.407h14.304zM116.127 38.953l7.369 22.676h23.84l-19.288 14.012 7.367 22.674-19.288-14.013-19.288 14.013 7.369-22.674-19.289-14.012h23.84zM187.362 62.698l7.368 22.676h23.841l-19.288 14.012 7.367 22.675-19.288-14.015-19.288 14.015 7.368-22.675-19.289-14.012h23.842zM131.055 157.678l7.369 22.676h23.84l-19.289 14.011 7.368 22.675-19.288-14.014-19.288 14.014 7.368-22.675-19.288-14.011h23.84zM68.638 98.315l7.367 22.676h23.842l-19.289 14.012 7.368 22.675-19.288-14.014-19.288 14.014 7.367-22.675-19.288-14.012H61.27z"/></g></svg>
