<svg xmlns="http://www.w3.org/2000/svg" viewBox="0 0 512 512"><path fill="#d80027" d="M0 0h512v512H0z"/><path fill="#ffda44" d="M373.008 256l-47.81 22.488 25.459 46.305-51.918-9.933-6.577 52.444-36.163-38.569-36.161 38.569-6.579-52.444-51.913 9.932 25.457-46.306L138.994 256l47.81-22.487-25.458-46.306 51.912 9.934 6.583-52.445 36.158 38.57 36.165-38.57 6.575 52.445 51.92-9.934-25.46 46.308z"/><circle cx="256" cy="256" r="72.815" fill="#d80027"/><g fill="#ffda44"><path d="M219.592 256a52.18 52.18 0 00-5.195.26 41.433 41.433 0 009.737 26.487 72.99 72.99 0 0114.068-23.292 51.727 51.727 0 00-18.61-3.455zM242.005 295.189a41.507 41.507 0 0013.995 2.42c4.912 0 9.621-.857 13.995-2.42-2.384-9.357-7.307-17.711-13.995-24.274-6.688 6.564-11.611 14.918-13.995 24.274zM292.033 235.202c-7.195-12.436-20.63-20.811-36.033-20.811-15.401 0-28.838 8.375-36.033 20.811a72.353 72.353 0 0136.033 9.79 72.337 72.337 0 0136.033-9.79zM273.796 259.456a72.992 72.992 0 0114.069 23.292 41.434 41.434 0 009.738-26.487c-1.71-.17-3.442-.26-5.195-.26a51.703 51.703 0 00-18.612 3.455z"/></g></svg>
