<svg xmlns="http://www.w3.org/2000/svg" viewBox="0 0 512 512"><path fill="#fff" d="M0 .007h512v511.989H0z"/><g fill="#d80027"><path d="M0 .001h512v170.663H0zM0 341.336h512v170.663H0z"/></g><path fill="#ffda44" d="M322.783 255.999c0 36.883-29.9 58.435-66.783 58.435s-66.783-21.552-66.783-58.435 29.9-66.783 66.783-66.783 66.783 29.9 66.783 66.783z"/><path fill="#0052b4" d="M322.783 255.999c0 36.883-29.9 66.783-66.783 66.783s-66.783-29.9-66.783-66.783"/><g fill="#d80027"><path d="M214.261 239.303h16.696v33.391h-16.696zM281.043 239.303h16.696v33.391h-16.696zM247.652 214.26h16.696v58.435h-16.696z"/></g></svg>
