<svg xmlns="http://www.w3.org/2000/svg" viewBox="0 0 512 512"><path d="M0 0h512v512H0z"/><path fill="#d80027" d="M0 0h512v256H0z"/><g fill="#ffda44"><path d="M232.598 221.075l14.469 10.499-5.513 17.005 14.456-10.516 14.47 10.5-5.536-17 14.458-10.517-17.877.011-5.535-16.999-5.515 17.006z"/><path d="M298.666 182.099A84.776 84.776 0 00256 170.695v22.255a62.663 62.663 0 0131.536 8.427c30.119 17.389 40.476 56.04 23.086 86.158-17.388 30.119-56.04 40.476-86.158 23.087a62.657 62.657 0 01-21.08-19.882L184.8 303.01c7.066 10.739 16.662 20.037 28.533 26.891 40.75 23.526 93.04 9.515 116.567-31.234 23.527-40.749 9.516-93.041-31.234-116.568z"/><path d="M206.792 241.16c-5.9 10.786-1.939 24.313 8.846 30.214l72.299 39.506c-4.916 8.988-2.306 19.927 6.682 24.843l19.531 10.683c8.988 4.917 20.261 1.616 25.178-7.372l10.683-19.529-143.219-78.345z"/></g></svg>
