<svg xmlns="http://www.w3.org/2000/svg" viewBox="0 0 512.006 512.006"><path fill="#fff" d="M.003.017h512v511.989h-512z"/><path fill="#d80027" d="M.003 322.794h211.478V512H.003z"/><path fill="#0052b4" d="M.003 0h211.478v189.229H.003z"/><path fill="#d80027" d="M300.525 0h211.478v189.229H300.525z"/><path fill="#0052b4" d="M300.525 322.794h211.478V512H300.525z"/><path fill="#496e2d" d="M320.003 256.006c0 35.347-28.653 64-64 64-35.346 0-64-28.653-64-64s64-64 64-64 64 28.653 64 64z"/><path fill="#0052b4" d="M192.003 256.006c0-35.347 28.654-64 64-64 35.347 0 64 28.653 64 64"/><path fill="#d80027" d="M220.003 224.006v40.001c0 19.882 16.118 36 36 36s36-16.118 36-36v-40.001h-72z"/></svg>
