<svg xmlns="http://www.w3.org/2000/svg" viewBox="0 0 512 512"><path fill="#fff" d="M0 0h512v512H0z"/><path fill="#d80027" d="M350.445 256c0 23.611-42.285 82.639-94.445 82.639S161.555 279.611 161.555 256c0-52.161 42.285-94.445 94.445-94.445s94.445 42.284 94.445 94.445z"/><path fill="#0052b4" d="M350.445 256c0 52.161-42.285 94.445-94.445 94.445S161.555 308.161 161.555 256"/><path d="M356.182 339.49l25.043-25.043 16.693 16.693-25.044 25.043zM314.443 381.225l25.043-25.043 16.692 16.693-25.043 25.043zM406.269 389.555l25.043-25.043 16.693 16.692-25.044 25.044zM364.53 431.312l25.043-25.043 16.692 16.693-25.042 25.043zM381.226 364.522l25.042-25.043 16.693 16.693-25.043 25.042zM339.487 406.269l25.043-25.043 16.692 16.693-25.042 25.042zM406.26 172.51l-66.78-66.78 16.693-16.692 66.78 66.779zM339.493 155.813l-25.043-25.044 16.692-16.692 25.044 25.043zM381.22 197.554l-25.042-25.043 16.693-16.692 25.042 25.042zM389.559 105.736l-25.044-25.043 16.693-16.692 25.043 25.043zM431.307 147.467l-25.042-25.043 16.692-16.692L448 130.774zM80.692 364.53l66.779 66.78-16.693 16.692L64 381.222zM147.464 381.217l25.043 25.043-16.692 16.693-25.044-25.044zM105.732 339.48l25.044 25.044-16.692 16.693-25.045-25.044zM130.781 314.447l66.78 66.779-16.693 16.693-66.779-66.78zM147.47 80.693l-66.778 66.78-16.693-16.693L130.779 64zM172.51 105.74l-66.779 66.779-16.692-16.693 66.779-66.779zM197.554 130.783l-66.78 66.78-16.692-16.693 66.78-66.779z"/></svg>
