<svg xmlns="http://www.w3.org/2000/svg" viewBox="0 0 512 512"><path fill="#ffda44" d="M0 0h512v512H0z"/><g fill="#0052b4"><path d="M0 0h170.663v512H0zM341.337 0H512v512H341.337z"/></g><path d="M307.942 189.217l9.955 4.978-9.955-4.978-9.955-4.978c-.6 1.201-13.599 27.649-15.723 68.05H267.13v-63.073L256 174.377l-11.13 14.84v63.073h-15.133c-2.124-40.401-15.123-66.849-15.723-68.05l-19.911 9.955c.137.273 13.666 27.81 13.666 69.226v11.13h37.101v63.073h22.261v-63.073h37.101v-11.13c0-21.413 3.705-39.068 6.813-50.109 3.389-12.04 6.831-19.072 6.865-19.141l-9.968-4.954z"/></svg>
