<svg xmlns="http://www.w3.org/2000/svg" viewBox="0 0 512 512"><path fill="#0052b4" d="M0 0h512v512H0z"/><path fill="#fff" d="M256 0v48.9L215.9 89H256v78h-52.5l52.5 52.5V256h-23.7L167 190.7V256H89v-77.7L11.3 256H0v-48.9L40.1 167H0V89h52.5L0 36.5V0h23.7L89 65.3V0h78v77.7L244.7 0z"/><g fill="#d80027"><path d="M446 216.7l5 15.6h16.5l-13.3 9.7 5 15.6L446 248l-13.3 9.6 5.1-15.6-13.3-9.7H441zm-58.8 112.6l7.6 23.5h24.7l-20 14.5 7.6 23.4-20-14.5-19.9 14.5 7.6-23.4-20-14.5h24.7zm2.2-184.3l6.3 19.6h20.6l-16.6 12 6.3 19.6-16.6-12-16.6 12 6.3-19.5-16.6-12.1H383zm-56.6 71l7.6 23.5h24.7l-20 14.5 7.7 23.4-20-14.5-20 14.5 7.7-23.4-20-14.5h24.7zM0 152h104v104h48V152h104v-48H152V0h-48v104H0z"/><path d="M167 167l89 89v-25.2L192.1 167zm-103.1 0L0 230.8V256l89-89zM89 89L0 0v25.2L63.9 89zm103.1 0L256 25.2V0l-89 89z"/></g></svg>
