<svg xmlns="http://www.w3.org/2000/svg" viewBox="0 0 512 512"><path fill="#2e52b2" d="M.002.002H512V512H.002z"/><path fill="#f3f3f3" d="M427.755 295.821c4.907-6.752 8.185-14.997 8.185-24.982v-74.203a36.93 36.93 0 01-22.261 7.421c-12.138 0-22.912-5.829-29.681-14.839-6.77 9.01-17.544 14.839-29.681 14.839a36.943 36.943 0 01-22.261-7.418v74.201c0 9.985 3.278 18.232 8.185 24.982h87.514z"/><g fill="#ff9811"><path d="M412.318 257.073c2.362-5.763 4.2-14.188 4.2-18.382 0-6.737-8.783-12.198-8.783-12.198s-8.783 5.461-8.783 12.198c0 4.194 1.838 12.619 4.199 18.382l-5.07 11.448a25.56 25.56 0 009.653 1.885 25.56 25.56 0 009.653-1.885l-5.069-11.448zM377.992 220.007c-6.171.836-14.385 3.459-18.017 5.556-5.835 3.369-6.173 13.704-6.173 13.704s9.121 4.875 14.955 1.507c3.632-2.097 10.008-7.9 13.816-12.828l12.45-1.333a25.618 25.618 0 00-3.194-9.302 25.583 25.583 0 00-6.459-7.418l-7.378 10.114zM363.058 268.269c3.809 4.925 10.187 10.727 13.818 12.824 5.835 3.368 14.955-1.507 14.955-1.507s-.339-10.336-6.173-13.705c-3.633-2.097-11.846-4.717-18.019-5.552l-7.378-10.115a25.627 25.627 0 00-6.459 7.416 25.602 25.602 0 00-3.194 9.304l12.45 1.335z"/></g><path fill="#338af3" d="M338.406 293.101c13.86 22.236 45.592 29.679 45.592 29.679s31.733-7.443 45.592-29.679h-91.184z"/><path fill="#fff" d="M255.999 0v48.896l-40.147 40.147h40.147v77.913h-52.536l52.536 52.535v36.508H232.28l-65.324-65.335v65.335H89.043v-77.724l-77.712 77.724H0v-48.896l40.147-40.147H0V89.043h52.535L0 36.508V0h23.719l65.324 65.335V0h77.913v77.723L244.668 0z"/><path fill="#d80027" d="M0 152h104v103.999h48V152h103.999v-48H152V0h-48v104H0z"/><path fill="#0052b4" d="M166.956 166.956l89.043 89.043v-25.18l-63.863-63.863z"/><path fill="#fff" d="M166.956 166.956l89.043 89.043v-25.18l-63.863-63.863z"/><g fill="#d80027"><path d="M166.956 166.956l89.043 89.043v-25.18l-63.863-63.863zM63.862 166.958L0 230.82v25.179l89.041-89.041z"/></g><path fill="#0052b4" d="M89.043 89.043L0 0v25.18l63.863 63.863z"/><path fill="#fff" d="M89.043 89.043L0 0v25.18l63.863 63.863z"/><g fill="#d80027"><path d="M89.043 89.043L0 0v25.18l63.863 63.863zM192.137 89.041l63.862-63.862V0l-89.041 89.041z"/></g></svg>
