<svg xmlns="http://www.w3.org/2000/svg" viewBox="0 0 512 512"><path fill="#496e2d" d="M0 0h512v512H0z"/><path fill="#fff" d="M294.273 248.16c-5.402 0-10.53 1.077-15.293 2.79 2.609-5.815 4.358-12.285 4.358-19.193 0-27.337-27.337-47.841-27.337-47.841s-27.337 20.503-27.337 47.841c0 6.909 1.749 13.378 4.358 19.193-4.763-1.713-9.892-2.79-15.293-2.79-27.337 0-47.841 27.337-47.841 27.337s20.503 27.339 47.841 27.339c16.028 0 29.698-9.394 38.273-17.17 8.575 7.776 22.245 17.17 38.273 17.17 27.337 0 47.841-27.339 47.841-27.339s-20.505-27.337-47.843-27.337z"/><g fill="#ffda44"><path d="M256 123.382l5.648 17.379h18.272l-14.782 10.741 5.644 17.379L256 158.139l-14.782 10.742 5.644-17.379-14.782-10.741h18.272zM186.513 153.778l10.863 9.782 12.661-7.31-5.945 13.354 10.862 9.784-14.538-1.529-5.946 13.354-3.04-14.298-14.538-1.528 12.659-7.311zM135.644 204.646l14.3 3.04 7.309-12.661 1.529 14.538 14.298 3.042-13.354 5.946 1.528 14.536-9.782-10.862-13.354 5.946 7.309-12.66zM325.487 153.778l-10.863 9.782-12.66-7.31 5.945 13.354-10.862 9.784 14.537-1.529 5.946 13.354 3.041-14.298 14.539-1.528-12.661-7.311zM376.356 204.646l-14.299 3.04-7.31-12.661-1.528 14.538-14.298 3.042 13.354 5.946-1.528 14.536 9.782-10.862 13.355 5.946-7.31-12.66z"/></g><g fill="#fff"><path d="M256 379.382c21.715 0 41.731-7.245 57.788-19.436H198.213c16.056 12.19 36.072 19.436 57.787 19.436zM168.288 321.972a95.623 95.623 0 0011.412 19.436h152.602a95.642 95.642 0 0011.412-19.436H168.288z"/></g></svg>
