<svg xmlns="http://www.w3.org/2000/svg" viewBox="0 0 512 512"><path fill="#ffda44" d="M0 0h512v512H0z"/><path fill="#0052b4" d="M0 0h170.663v512H0z"/><g fill="#d80027"><path d="M341.337 0H512v512H341.337zM256 321.855v-66.783h50.087v25.043c0 4.351-8.348 20.292-28.951 33.391-7.805 4.964-15.882 6.56-21.136 8.349z"/><path d="M205.913 204.989H256v50.087h-50.087z"/></g><path fill="#ff9811" d="M281.043 188.29c0-9.22-7.475-16.696-16.696-16.696-3.045 0-5.89.828-8.348 2.252a16.594 16.594 0 00-8.348-2.252c-9.22 0-16.696 7.475-16.696 16.696h-41.739v83.477c0 31.077 24.68 49.05 44.033 58.366a16.605 16.605 0 00-2.294 8.418c0 9.22 7.475 16.696 16.696 16.696 3.045 0 5.89-.828 8.348-2.252a16.594 16.594 0 008.348 2.252c9.22 0 16.696-7.475 16.696-16.696 0-3.074-.846-5.945-2.295-8.418 19.354-9.316 44.034-27.288 44.034-58.366V188.29h-41.739zm16.696 83.477c0 4.351 0 17.589-20.604 30.688-7.805 4.962-15.882 8.179-21.136 9.968-5.254-1.79-13.331-5.006-21.136-9.968-20.604-13.098-20.604-26.337-20.604-30.688v-58.434h83.478v58.434z"/></svg>
