<svg xmlns="http://www.w3.org/2000/svg" viewBox="0 0 512 512"><path fill="#2e52b2" d="M.002.002H512V512H.002z"/><path fill="#ffda44" d="M383.998 259.709l-46.129 46.129c8.645 16.674 26.051 28.074 46.129 28.074s37.484-11.4 46.129-28.074l-46.129-46.129z"/><path fill="#6da544" d="M332.056 178.086v81.623c.001 39.759 51.942 51.941 51.942 51.941s51.941-12.182 51.942-51.942v-81.622H332.056z"/><path fill="#fff" d="M372.868 215.184h22.261v59.358h-22.261z"/><circle cx="383.998" cy="215.184" r="11.13" fill="#a2001d"/><g fill="#ffda44"><path d="M346.901 192.923h14.84v14.84h-14.84zM346.901 226.314h14.84v14.84h-14.84zM346.901 259.705h14.84v14.84h-14.84zM406.259 192.923h14.84v14.84h-14.84zM406.259 226.314h14.84v14.84h-14.84zM406.259 259.705h14.84v14.84h-14.84z"/></g><path fill="#fff" d="M255.999 0v48.896l-40.147 40.147h40.147v77.913h-52.536l52.536 52.535v36.508H232.28l-65.324-65.335v65.335H89.043v-77.724l-77.712 77.724H0v-48.896l40.147-40.147H0V89.043h52.535L0 36.508V0h23.719l65.324 65.335V0h77.913v77.723L244.668 0z"/><path fill="#d80027" d="M0 152h104v103.999h48V152h103.999v-48H152V0h-48v104H0z"/><path fill="#0052b4" d="M166.956 166.956l89.043 89.043v-25.18l-63.863-63.863z"/><path fill="#fff" d="M166.956 166.956l89.043 89.043v-25.18l-63.863-63.863z"/><g fill="#d80027"><path d="M166.956 166.956l89.043 89.043v-25.18l-63.863-63.863zM63.862 166.958L0 230.82v25.179l89.041-89.041z"/></g><path fill="#0052b4" d="M89.043 89.043L0 0v25.18l63.863 63.863z"/><path fill="#fff" d="M89.043 89.043L0 0v25.18l63.863 63.863z"/><g fill="#d80027"><path d="M89.043 89.043L0 0v25.18l63.863 63.863zM192.137 89.041l63.862-63.862V0l-89.041 89.041z"/></g></svg>
