<svg xmlns="http://www.w3.org/2000/svg" viewBox="0 0 512 512"><path fill="#a2001d" d="M0 0h512v512H0z"/><path fill="#6da544" d="M150.261 345.043H512V512H150.261z"/><g fill="#fff"><path d="M19.478 461.52l27.826-49.692L75.13 461.52l27.826-49.692 27.826 49.692L102.96 512h47.303V0H102.96l27.825 49.688-27.826 50.483-27.826-50.483-27.826 50.483L19.48 49.688 47.303 0H0v512h47.303l-27.825-50.48zm83.48-86.794l-27.826-50.483-27.826 50.483-27.826-50.483 27.826-49.692 27.826 49.692 27.826-49.692 27.826 49.692-27.826 50.483zM47.304 137.274l27.826 49.692 27.826-49.692 27.826 49.692-27.826 50.483-27.826-50.483-27.826 50.483-27.826-50.483 27.826-49.692z"/><path d="M75.132 461.52L47.307 512h55.648zM75.132 49.688L102.957 0h-55.65z"/></g><g fill="#a2001d"><path d="M130.784 186.966l-27.826-49.692-27.826 49.692 27.826 50.483zM47.304 237.449l27.828-50.483-27.828-49.692-27.826 49.692zM102.958 274.551l-27.826 49.693 27.826 50.482 27.826-50.482zM19.478 324.244l27.826 50.482 27.828-50.482-27.828-49.693zM130.784 461.52l-27.826-49.692-27.826 49.692L102.955 512h.005zM75.132 461.52l-27.828-49.692-27.826 49.692L47.303 512h.004zM75.132 49.688l27.826 50.484 27.826-50.484L102.96 0h-.003zM19.478 49.688l27.826 50.484 27.828-50.484L47.307 0h-.004z"/></g></svg>
