<svg xmlns="http://www.w3.org/2000/svg" viewBox="0 0 512 512"><path fill="#0052b4" d="M0 0h512v512H0z"/><g fill="#fff"><path d="M128 307.482l13.697 28.642 30.933-7.15-13.852 28.568 24.874 19.726-30.97 6.98.085 31.749L128 396.134l-24.767 19.863.086-31.749-30.971-6.98 24.875-19.726-13.853-28.568 30.933 7.15zM387.844 343.989l6.534 13.661 14.753-3.409-6.607 13.624 11.865 9.41-14.772 3.329.041 15.143-11.814-9.474-11.812 9.474.041-15.143-14.772-3.329 11.865-9.41-6.609-13.624 14.755 3.409zM327.066 199.066l6.533 13.662 14.754-3.411-6.606 13.626 11.864 9.409-14.773 3.329.04 15.143-11.812-9.474-11.813 9.474.041-15.143-14.772-3.329 11.864-9.409-6.607-13.626 14.753 3.411zM387.844 116.253l6.534 13.661 14.753-3.41-6.606 13.626 11.864 9.408-14.772 3.331.041 15.142-11.814-9.474-11.812 9.474.041-15.142-14.772-3.331 11.864-9.408-6.608-13.626 14.755 3.41zM440.934 178.363l6.534 13.661 14.753-3.41-6.607 13.626 11.864 9.409-14.772 3.329.041 15.143-11.813-9.475-11.812 9.475.04-15.143-14.773-3.329 11.864-9.409-6.607-13.626 14.755 3.41zM402.973 250.824l5.139 15.817h16.63l-13.455 9.774 5.139 15.816-13.453-9.775-13.455 9.775 5.139-15.816-13.453-9.774h16.629zM256 0v48.896l-40.147 40.147H256v77.914h-52.536L256 219.492V256h-23.719l-65.324-65.336V256H89.043v-77.724L11.331 256H0v-48.896l40.147-40.147H0V89.043h52.536L0 36.508V0h23.719l65.324 65.336V0h77.914v77.724L244.669 0z"/></g><path fill="#d80027" d="M0 152.001h103.999L104.001 256h48V152.001H256v-48H151.999L152.001 0h-48v104.001H0z"/><path fill="#0052b4" d="M166.957 166.957L256 256v-25.18l-63.863-63.863z"/><path fill="#fff" d="M166.957 166.957L256 256v-25.18l-63.863-63.863z"/><g fill="#d80027"><path d="M166.957 166.957L256 256v-25.18l-63.863-63.863zM63.862 166.959L0 230.821V256l89.041-89.041z"/></g><path fill="#0052b4" d="M89.043 89.043L0 0v25.18l63.863 63.863z"/><path fill="#fff" d="M89.043 89.043L0 0v25.18l63.863 63.863z"/><g fill="#d80027"><path d="M89.043 89.043L0 0v25.18l63.863 63.863zM192.138 89.041L256 25.179V0l-89.041 89.041z"/></g></svg>
