<svg xmlns="http://www.w3.org/2000/svg" viewBox="0 0 512 512"><g fill="#496e2d"><path d="M0 0h512v512H0z"/><path d="M449.016.009l.009-.009H401.81l-.008.009z"/></g><path fill="#0052b4" d="M401.81 0H0v401.81L401.802.009z"/><path fill="#ffda44" d="M203.694 139.124l-34.111 16.044 18.164 33.035-37.039-7.085-4.693 37.416-25.8-27.52-25.799 27.52-4.692-37.416-37.039 7.083 18.162-33.034-34.109-16.043 34.111-16.045-18.164-33.034 37.037 7.085 4.695-37.416 25.798 27.52 25.801-27.52 4.692 37.416 37.04-7.085-18.164 33.035z"/><path fill="#fff" d="M512 .004v110.192L110.202 511.993H0v-110.18L401.798.016h47.215l.011-.012z"/><path fill="#a2001d" d="M62.967 511.996L512 62.978V.004h-62.975l-.009.009L0 449.044v62.952z"/></svg>
