<svg xmlns="http://www.w3.org/2000/svg" viewBox="0 0 512 512"><path fill="#0052b4" d="M0 0h512v512H0z"/><g fill="#fff"><path d="M200.348 121.764l-29.563 13.905 15.742 28.63-32.1-6.141-4.068 32.428L128 166.736l-22.36 23.85-4.067-32.428-32.1 6.139 15.74-28.629-29.561-13.904 29.563-13.906-15.742-28.629 32.099 6.139 4.069-32.427L128 76.791l22.36-23.85 4.067 32.427 32.101-6.139-15.742 28.629zM404.656 0L0 504.285v5.642L503.756 0z"/></g><path fill="#ff9811" d="M512 0h-8.244L0 509.927V512h3.723L512 99.754z"/></svg>
