<svg xmlns="http://www.w3.org/2000/svg" viewBox="0 0 512 512"><path fill="#fff" d="M0 0h512v512H0z"/><g fill="#d80027"><path d="M129.855 92.753V55.652H92.753v37.101H55.652v37.102h37.101v37.102h37.102v-37.102h37.102V92.753zM419.247 92.753V55.652h-37.102v37.101h-37.102v37.102h37.102v37.102h37.102v-37.102h37.101V92.753zM129.855 382.145v-37.102H92.753v37.102H55.652v37.102h37.101v37.101h37.102v-37.101h37.102v-37.102zM419.247 382.145v-37.102h-37.102v37.102h-37.102v37.102h37.102v37.101h37.102v-37.101h37.101v-37.102zM224 0h64v512h-64z"/><path d="M0 224h512v64H0z"/></g></svg>
