<svg xmlns="http://www.w3.org/2000/svg" viewBox="0 0 512 512"><path fill="#338af3" d="M0 0h512v512H0z"/><path fill="#f3f3f3" d="M249.88 376.882c-5.207-.252-9.515-3.636-11.204-8.23-2.981 3.889-8.104 5.846-13.152 4.543-5.055-1.301-8.592-5.484-9.322-10.338-3.712 3.208-9.12 4.082-13.798 1.789a12.608 12.608 0 01-7.038-12.01 12.589 12.589 0 01-13.874-1.024 12.615 12.615 0 01-4.477-13.168 12.575 12.575 0 01-13.379-3.788 12.588 12.588 0 01-1.755-13.789 12.602 12.602 0 01-12.346-6.4c-2.544-4.552-1.957-10.003 1.059-13.874-4.88-.47-9.246-3.788-10.809-8.76-1.57-4.972.109-10.195 3.847-13.379a12.589 12.589 0 01-8.81-10.759c-.53-5.182 2.158-9.944 6.45-12.312-4.292-2.352-6.995-7.113-6.483-12.287h.008c.512-5.19 4.107-9.33 8.785-10.792-3.736-3.174-5.434-8.39-3.88-13.362 1.554-4.98 5.912-8.306 10.792-8.793-3.015-3.863-3.62-9.314-1.092-13.874 2.528-4.552 7.466-6.929 12.346-6.416a12.594 12.594 0 011.722-13.807c3.385-3.956 8.693-5.291 13.37-3.813a12.59 12.59 0 014.451-13.176c4.107-3.2 9.582-3.444 13.857-1.059a12.606 12.606 0 017.013-12.018c4.669-2.302 10.086-1.445 13.807 1.763.713-4.854 4.25-9.052 9.297-10.364 5.039-1.31 10.162.63 13.152 4.51 1.688-4.594 5.988-7.986 11.195-8.248 5.199-.268 9.818 2.654 11.967 7.047 2.57-4.166 7.459-6.635 12.606-5.854 5.157.772 9.112 4.568 10.338 9.314 3.359-3.578 8.651-4.998 13.538-3.2a12.61 12.61 0 018.239 11.228c4.006-2.822 9.482-3.149 13.907-.394 4.427 2.746 6.551 7.794 5.794 12.64 4.493-1.957 9.918-1.176 13.698 2.402a12.598 12.598 0 013.141 13.547c4.795-1.016 9.952.831 12.941 5.107 2.99 4.266 2.965 9.741.37 13.899a12.617 12.617 0 0111.648 7.601c2.066 4.787.933 10.153-2.452 13.706a12.592 12.592 0 019.877 9.8c1.05 5.107-1.143 10.12-5.166 12.917 4.502 1.907 7.677 6.367 7.684 11.573v.277c0 5.207-3.158 9.675-7.659 11.598 4.031 2.78 6.24 7.794 5.19 12.9-1.042 5.107-5.039 8.852-9.852 9.826 3.393 3.544 4.543 8.902 2.487 13.697-2.058 4.787-6.735 7.651-11.64 7.625 2.603 4.157 2.646 9.632-.336 13.907a12.599 12.599 0 01-12.926 5.132 12.608 12.608 0 01-3.115 13.555c-3.779 3.586-9.196 4.375-13.689 2.435.765 4.837-1.352 9.894-5.77 12.656-4.418 2.764-9.893 2.443-13.907-.37-.227 4.904-3.317 9.432-8.205 11.245h-.008a12.61 12.61 0 01-13.547-3.174 12.604 12.604 0 01-10.313 9.347c-5.148.781-10.044-1.672-12.623-5.837-2.049 4.225-6.383 7.097-11.321 7.097-.208.004-.418-.005-.628-.014z"/><circle cx="255.967" cy="255.254" r="83.979" fill="#338af3"/><path fill="#bdbcc1" d="M274.352 226.75c4.126-3.06 6.812-7.953 6.812-13.485v-8.398c0-9.277-7.52-16.797-16.797-16.797H247.57c-9.276 0-16.797 7.52-16.797 16.797v8.398c0 5.532 2.686 10.424 6.812 13.485l-15.21 154.482s8.399 8.399 33.594 8.399 33.594-8.399 33.594-8.399L274.352 226.75z"/><path fill="#fff" d="M255.968 188.071l14.591 44.909h47.224l-38.203 27.758 14.591 44.909-38.203-27.755-38.204 27.755 14.594-44.909-38.203-27.758h47.221z"/></svg>
