<svg xmlns="http://www.w3.org/2000/svg" viewBox="0 0 512 512"><path fill="#496e2d" d="M0 0h512v512H0z"/><g fill="#fff"><path d="M407.816 147.517c12.596-35.108-1.555-73.288-31.922-92.305a78.223 78.223 0 0116.327 3.932c40.505 14.532 61.558 59.145 47.026 99.649-14.532 40.505-59.145 61.558-99.649 47.026a78.154 78.154 0 01-15.104-7.344c35.53 4.625 70.727-15.851 83.322-50.958zM337.957 45.589L327.012 59.73l-16.83-6.038 10.067 14.778-10.943 14.14 17.165-5.006 10.068 14.776.541-17.872 17.165-5.007-16.829-6.037z"/><path d="M367.509 91.668l-10.944 14.141-16.831-6.039 10.068 14.779-10.945 14.14 17.167-5.008 10.067 14.779.541-17.873 17.167-5.007-16.832-6.039zM285.852 62.371l-10.945 14.14-16.83-6.038 10.067 14.778-10.944 14.14 17.165-5.006 10.069 14.778.541-17.873 17.165-5.007-16.829-6.039zM284.652 115.154l-10.945 14.142-16.83-6.039 10.068 14.778L256 152.175l17.166-5.006 10.068 14.778.541-17.874 17.166-5.006-16.831-6.039zM334.879 133.175l-10.944 14.141-16.831-6.039 10.068 14.778-10.945 14.14 17.167-5.006 10.067 14.778.541-17.874 17.167-5.007-16.832-6.038z"/></g><path fill="#d80027" d="M41.74 0h133.565v512H41.74z"/><path fill="#fff" d="M92.712 134.783L70.35 118.125V94.569l22.362-16.658h31.625l22.362 16.658v23.556l-22.362 16.658z"/><g fill="#ff9811"><path d="M108.524 77.911H92.712L70.35 94.569v11.516h38.174zM108.524 134.783h15.813l22.362-16.658v-12.016h-38.175z"/></g><path fill="#fff" d="M92.712 434.091L70.35 417.434v-23.558l22.362-16.658h31.625l22.362 16.658v23.558l-22.362 16.657z"/><g fill="#ff9811"><path d="M108.524 377.218H92.712L70.35 393.876v11.517h38.174zM108.524 434.091h15.813l22.362-16.657v-12.018h-38.175z"/></g><g fill="#496e2d"><path d="M92.712 284.437L70.35 267.779v-23.556l22.362-16.659h31.625l22.362 16.659v23.556l-22.362 16.658zM147.482 321.087h-9.74v-9.739h-17.116l-12.103-12.102-12.101 12.102H79.307v9.739h-9.74v19.48h9.74v9.739h17.114l12.103 12.103 12.102-12.103h17.116v-9.739h9.74zM147.482 171.434h-9.74v-9.739h-17.116l-12.103-12.103-12.101 12.103H79.307v9.739h-9.74v19.479h9.74v9.739h17.114l12.103 12.103 12.102-12.103h17.116v-9.739h9.74z"/></g><g fill="#d80027"><path d="M97.391 244.87h22.261v22.261H97.391z"/><circle cx="108.522" cy="181.17" r="11.13"/><circle cx="108.522" cy="330.83" r="11.13"/></g></svg>
