<svg xmlns="http://www.w3.org/2000/svg" viewBox="0 0 512 512"><path fill="#0052b4" d="M0 .008h512v511.989H0z"/><path fill="#ffda44" d="M0 .002h512v128H0z"/><path fill="#fff" d="M0 128h512v128H0z"/><path fill="#d80027" d="M0 256h512v128H0z"/><path fill="#6da544" d="M256 256.008L0 512V0z"/><g fill="#fff"><path d="M65.192 256c0-30.638 21.532-56.232 50.286-62.512A64.214 64.214 0 00101.764 192c-35.347 0-64 28.653-64 64s28.653 64 64 64a64.2 64.2 0 0013.714-1.488c-28.753-6.28-50.286-31.874-50.286-62.512z"/><path d="M114.773 201.143l3.404 10.477h11.015l-8.912 6.474 3.405 10.477-8.912-6.474-8.913 6.474 3.405-10.477-8.913-6.474h11.016zM114.773 228.571l3.404 10.477h11.015l-8.912 6.475L123.685 256l-8.912-6.475L105.86 256l3.405-10.477-8.913-6.475h11.016zM114.773 256l3.404 10.477h11.015l-8.912 6.475 3.405 10.477-8.912-6.475-8.913 6.475 3.405-10.477-8.913-6.475h11.016zM114.773 283.429l3.404 10.477h11.015l-8.912 6.474 3.405 10.477-8.912-6.475-8.913 6.475 3.405-10.477-8.913-6.474h11.016z"/></g></svg>
