<svg xmlns="http://www.w3.org/2000/svg" viewBox="0 0 512 512"><path fill="#fff" d="M0 .006h512v511.989H0z"/><path fill="#6da544" d="M0 0h512v170.663H0z"/><path fill="#d80027" d="M0 341.337h512V512H0z"/><g fill="#fff"><path d="M44.522 155.826h22.261v30.049H44.522zM0 155.826h22.261v30.049H0zM89.043 155.826h22.261v30.049H89.043zM133.565 155.826h22.261v30.049h-22.261zM178.087 155.826h22.261v30.049h-22.261zM222.609 155.826h22.261v30.049h-22.261zM267.13 155.826h22.261v30.049H267.13zM311.652 155.826h22.261v30.049h-22.261zM356.174 155.826h22.261v30.049h-22.261zM400.696 155.826h22.261v30.049h-22.261zM445.217 155.826h22.261v30.049h-22.261zM489.739 155.826H512v30.049h-22.261zM44.522 326.678h22.261v29.492H44.522zM0 326.678h22.261v29.492H0zM89.043 326.678h22.261v29.492H89.043zM133.565 326.678h22.261v29.492h-22.261zM178.087 326.678h22.261v29.492h-22.261zM222.609 326.678h22.261v29.492h-22.261zM267.13 326.678h22.261v29.492H267.13zM311.652 326.678h22.261v29.492h-22.261zM356.174 326.678h22.261v29.492h-22.261zM400.696 326.678h22.261v29.492h-22.261zM445.217 326.678h22.261v29.492h-22.261zM489.739 326.678H512v29.492h-22.261z"/></g><path fill="#d80027" d="M319.746 204.8h-25.679c.213 2.822.333 5.669.333 8.534 0 18.986-4.745 37.388-13.018 50.488-2.552 4.04-6.841 9.746-12.582 13.595V204.8h-25.6v72.615c-5.74-3.849-10.03-9.553-12.582-13.595-8.273-13.099-13.018-31.501-13.018-50.488 0-2.864.121-5.712.333-8.534h-25.679a145.41 145.41 0 00-.254 8.534c0 52.636 28.112 93.866 64 93.866s64-41.23 64-93.866c0-2.88-.089-5.724-.254-8.532z"/></svg>
