<svg xmlns="http://www.w3.org/2000/svg" viewBox="0 0 512 512"><path fill="#fff" d="M0 0h512v512H0z"/><g fill="#0052b4"><path d="M352 200.575h-64.001L256 145.15l-31.998 55.425H160L192.002 256 160 311.425h64.002L256 366.85l31.999-55.425H352L319.998 256 352 200.575zM295.314 256l-19.656 34.048h-39.314L216.686 256l19.657-34.048h39.314L295.314 256zM256 187.903l7.316 12.672h-14.63L256 187.903zm-58.972 34.049h14.632l-7.316 12.672-7.316-12.672zm0 68.096l7.317-12.672 7.316 12.672h-14.633zM256 324.097l-7.315-12.672h14.63L256 324.097zm58.972-34.049H300.34l7.317-12.672 7.315 12.672zm-14.632-68.096h14.632l-7.316 12.672-7.316-12.672zM0 32h512v64H0zM0 416h512v64H0z"/></g></svg>
