<svg xmlns="http://www.w3.org/2000/svg" viewBox="0 0 512 512"><path fill="#d80027" d="M0 0h512v512H0z"/><path fill="#0052b4" d="M11.13 11.13h489.739v489.739H11.13z"/><path fill="#d80027" d="M245.344 374.865c-2.573-2.206-63.028-54.762-63.028-118.865s60.455-116.659 63.028-118.865L256 128l10.656 9.134c2.573 2.206 63.028 54.762 63.028 118.866s-60.455 116.66-63.028 118.866L256 384l-10.656-9.135z"/><path fill="#338af3" d="M313.311 256c0-57.311-57.311-106.434-57.311-106.434S198.689 198.692 198.689 256c0 17.532 5.367 34.295 12.813 49.123h88.994c7.446-14.828 12.815-31.591 12.815-49.123z"/><path fill="#0052b4" d="M313.311 256c0 17.532-5.368 34.295-12.813 49.123L256 313.311l-44.497-8.188c-7.445-14.828-12.813-31.591-12.813-49.123h114.621z"/><path fill="#ffda44" d="M256 362.434s27.605-23.669 44.497-57.311h-88.994C228.395 338.765 256 362.434 256 362.434z"/><path fill="#6da544" d="M219.157 223.251h73.685L256 260.094z"/><path fill="#a2001d" d="M243.723 247.808h24.565v73.683h-24.565z"/></svg>
