<svg xmlns="http://www.w3.org/2000/svg" viewBox="0 0 512 512"><path fill="#0052b4" d="M0 0h512v512H0z"/><path fill="#6da544" d="M0 0h512v512"/><circle cx="256" cy="256" r="44.522" fill="#ffda44"/><g fill="#fff"><path d="M104.073 322.734l5.615 11.742 12.682-2.932-5.68 11.713 10.199 8.087-12.697 2.862.035 13.016-10.154-8.143-10.154 8.143.035-13.016-12.697-2.862 10.197-8.087-5.678-11.713 12.68 2.932zM67.338 224.858l5.615 11.743 12.682-2.932-5.678 11.713 10.197 8.087-12.697 2.862.034 13.015-10.153-8.143-10.154 8.143.035-13.015-12.697-2.862 10.197-8.087-5.678-11.713 12.681 2.932zM104.073 144.778l5.615 11.743 12.682-2.932-5.679 11.712 10.198 8.088-12.697 2.861.035 13.016-10.154-8.143-10.154 8.143.035-13.016-12.697-2.861 10.197-8.088-5.678-11.712 12.68 2.932zM149.705 207.063l5.617 11.742 12.681-2.931-5.679 11.712 10.198 8.088-12.698 2.861.036 13.016-10.155-8.143-10.153 8.143.035-13.016-12.698-2.861 10.198-8.088-5.679-11.712 12.682 2.931zM117.075 260.449l4.418 13.595h14.294l-11.565 8.402 4.418 13.593-11.565-8.401-11.564 8.401 4.418-13.593-11.565-8.402h14.294z"/></g><path fill="#6da544" d="M256 285.682h14.84s6.431-11.376 0-22.261l14.84-14.84-7.42-14.841h-7.421s-3.71 11.13-18.551 11.13c-14.841 0-18.55-11.13-18.55-11.13h-7.42l7.42 14.84-7.421 14.84 7.421 7.421s7.421-14.84 22.261-7.421c.001.001 6.309 9.276.001 22.262z"/><path fill="#ffda44" d="M401.989 135.226c.477-2.487.731-5.051.731-7.676 0-18-11.753-33.247-28-38.506 4.964 10.091 7.762 21.441 7.762 33.447 0 4.049-.326 8.022-.937 11.9a41.426 41.426 0 00-9.423-10.592c-14.455-11.502-34.209-11.806-48.815-2.119 11.275 2.461 22.177 7.466 31.82 15.139 7.549 6.007 13.649 14.132 18.32 21.976l-61.795 19.348c60.711 10.119 111.304-30.356 111.304-30.356-5.605-11.212-14.312-13.101-20.967-12.561z"/></svg>
