<svg xmlns="http://www.w3.org/2000/svg" viewBox="0 0 512 512"><path fill="#0052b4" d="M0 0h512v512H0z"/><path fill="#d80027" d="M0 0h512v170.663H0z"/><path fill="#fff" d="M0 341.337h512V512H0z"/><path fill="#d80027" d="M101.787 155.826v122.386c0 69.616 90.947 90.948 90.947 90.948s90.947-21.331 90.947-90.948V155.826H101.787z"/><g fill="#ffda44"><path d="M139.401 177.16h106.666v-42.667l-21.334 10.667-32-32-32 32-21.332-10.667zM262.348 295.251l-69.334-69.333-69.333 69.333 22.627 22.628 46.706-46.707 46.707 46.707z"/></g><path fill="#fff" d="M262.348 230.493h-32.35a21.2 21.2 0 002.877-10.664c0-11.784-9.552-21.334-21.334-21.334-8.141 0-15.211 4.56-18.807 11.264-3.597-6.703-10.666-11.264-18.807-11.264-11.782 0-21.334 9.55-21.334 21.334 0 3.889 1.059 7.525 2.877 10.664h-31.79c0 11.783 10.262 21.334 22.044 21.334h-.71c0 11.783 9.551 21.334 21.334 21.334 0 10.433 7.492 19.1 17.387 20.954l-16.809 37.953a69.105 69.105 0 0026.09 5.093 69.124 69.124 0 0026.09-5.093l-16.809-37.953c9.894-1.854 17.387-10.522 17.387-20.954 11.783 0 21.334-9.551 21.334-21.334h-.71c11.777-.001 22.04-9.552 22.04-21.334z"/></svg>
