<svg xmlns="http://www.w3.org/2000/svg" viewBox="0 0 512.006 512.006"><path fill="#496e2d" d="M.003.017h512v511.989h-512z"/><path fill="#fff" d="M256.003 0h256v512h-256z"/><g fill="#d80027"><path d="M319.392 200.757l-23.63 32.564-38.269-12.41 23.667 32.535-23.628 32.562 38.257-12.455 23.666 32.534-.024-40.231 38.256-12.456-38.27-12.409z"/><path d="M281.405 337.391c-44.951 0-81.391-36.44-81.391-81.391s36.44-81.391 81.391-81.391c14.015 0 27.203 3.544 38.717 9.783-18.062-17.663-42.764-28.565-70.022-28.565-55.324 0-100.174 44.85-100.174 100.174s44.85 100.174 100.174 100.174c27.258 0 51.959-10.902 70.022-28.565-11.515 6.237-24.702 9.781-38.717 9.781z"/></g></svg>
