<svg xmlns="http://www.w3.org/2000/svg" viewBox="0 0 512 512"><path fill="#a2001d" d="M0 0h512v512H0z"/><path fill="#496e2d" d="M256 256L44.522 467.478V44.522z"/><g fill="#ffda44"><path d="M256 256l211.478 211.478H44.522zM467.478 44.522L256 256 44.522 44.522z"/></g><path fill="#496e2d" d="M467.478 44.522v422.956L256 256z"/><circle cx="256" cy="256" r="64" fill="#a2001d"/><g fill="#ffda44"><path d="M255.999 192l14.346 44.153h46.429l-37.559 27.292L293.56 307.6l-37.561-27.289-37.562 27.289 14.348-44.155-37.559-27.292h46.426zM122.607 251.481c7.027 11.104 3.724 25.798-7.379 32.827-11.103 7.028-25.798 3.725-32.827-7.378C69.677 256.828 77.055 224 77.055 224s32.827 7.379 45.552 27.481z"/></g><circle cx="108.867" cy="274.254" r="11.895" fill="#a2001d"/><g fill="#ffda44"><path d="M256 8.904l3.316 10.204h10.728l-8.679 6.306 3.316 10.203L256 29.311l-8.68 6.306 3.316-10.203-8.68-6.306h10.728zM170.094 8.904l3.316 10.204h10.727l-8.679 6.306 3.316 10.203-8.68-6.306-8.679 6.306 3.315-10.203-8.68-6.306h10.728zM341.906 8.904l3.316 10.204h10.728l-8.679 6.306 3.315 10.203-8.68-6.306-8.679 6.306 3.315-10.203-8.679-6.306h10.727zM256 476.383l3.316 10.203h10.728l-8.679 6.306 3.316 10.204-8.681-6.307-8.68 6.307 3.316-10.204-8.68-6.306h10.728zM170.094 476.383l3.316 10.203h10.727l-8.679 6.306 3.316 10.204-8.68-6.307-8.679 6.307 3.315-10.204-8.68-6.306h10.728zM341.906 476.383l3.316 10.203h10.728l-8.679 6.306 3.315 10.204-8.68-6.307-8.679 6.307 3.315-10.204-8.679-6.306h10.727z"/></g></svg>
