<svg xmlns="http://www.w3.org/2000/svg" viewBox="0 0 512 512"><path fill="#2e52b2" d="M.002.002H512V512H.002z"/><g fill="#fff"><path d="M383.998 156.706l5.283 16.254h17.089l-13.826 10.045 5.282 16.253-13.828-10.045-13.825 10.045 5.281-16.253-13.825-10.045h17.088zM313.79 185.787l15.228 7.759 12.084-12.084-2.674 16.88 15.228 7.758-16.879 2.673-2.674 16.881-7.76-15.228-16.878 2.673 12.085-12.083zM284.709 255.996l16.253-5.281.001-17.088 10.044 13.824 16.254-5.282-10.045 13.827 10.045 13.827-16.254-5.282-10.044 13.827v-17.09zM313.79 326.204l7.759-15.229-12.084-12.083 16.88 2.674 7.758-15.227 2.674 16.878 16.879 2.673-15.228 7.76 2.674 16.88-12.084-12.086zM383.998 355.285l-5.281-16.253h-17.091l13.828-10.046-5.281-16.253 13.825 10.044 13.828-10.044-5.282 16.253 13.826 10.046h-17.089zM454.207 326.204l-15.229-7.757-12.083 12.083 2.673-16.88-15.227-7.758 16.879-2.675 2.675-16.878 7.757 15.227 16.88-2.674-12.086 12.085zM483.288 255.996l-16.254 5.282v17.09l-10.045-13.828-16.253 5.283 10.045-13.827-10.045-13.827 16.253 5.282 10.045-13.824v17.088zM454.207 185.788l-7.757 15.228 12.082 12.083-16.88-2.673-7.757 15.228-2.675-16.881-16.879-2.674 15.227-7.757-2.673-16.879 12.084 12.083zM255.999 0v48.896l-40.147 40.147h40.147v77.913h-52.536l52.536 52.535v36.508H232.28l-65.324-65.335v65.335H89.043v-77.724l-77.712 77.724H0v-48.896l40.147-40.147H0V89.043h52.535L0 36.508V0h23.719l65.324 65.335V0h77.913v77.723L244.668 0z"/></g><path fill="#d80027" d="M0 152h104v103.999h48V152h103.999v-48H152V0h-48v104H0z"/><path fill="#0052b4" d="M166.956 166.956l89.043 89.043v-25.18l-63.863-63.863z"/><path fill="#fff" d="M166.956 166.956l89.043 89.043v-25.18l-63.863-63.863z"/><g fill="#d80027"><path d="M166.956 166.956l89.043 89.043v-25.18l-63.863-63.863zM63.862 166.958L0 230.82v25.179l89.041-89.041z"/></g><path fill="#0052b4" d="M89.043 89.043L0 0v25.18l63.863 63.863z"/><path fill="#fff" d="M89.043 89.043L0 0v25.18l63.863 63.863z"/><g fill="#d80027"><path d="M89.043 89.043L0 0v25.18l63.863 63.863zM192.137 89.041l63.862-63.862V0l-89.041 89.041z"/></g></svg>
