<svg xmlns="http://www.w3.org/2000/svg" viewBox="0 0 512 512"><path fill="#fff" d="M0 0h512v512H0z"/><path fill="#0052b4" d="M0 166.957h512v178.076H0z"/><path fill="#d80027" d="M0 345.043h512V512H0z"/><path fill="#fff" d="M83.597 141.308V288.17c0 83.541 109.136 109.137 109.136 109.137S301.87 371.71 301.87 288.17V141.308H83.597z"/><path fill="#d80027" d="M109.197 141.308V288.17c0 9.807 2.179 19.07 6.493 27.753h154.085c4.315-8.683 6.493-17.946 6.493-27.753V141.308H109.197z"/><path fill="#fff" d="M243.933 243.708h-38.397v-25.6h25.6v-25.6h-25.6v-25.6h-25.6v25.6h-25.599v25.6h25.599v25.6h-38.403v25.6h38.403v25.6h25.6v-25.6h38.397z"/><path fill="#0052b4" d="M150.611 351.658c16.496 10.366 33.445 16.386 42.122 19.062 8.677-2.676 25.627-8.696 42.122-19.062 16.637-10.456 28.299-22.413 34.921-35.736a44.586 44.586 0 00-25.843-8.215 44.81 44.81 0 00-10.185 1.178c-6.938-15.765-22.686-26.778-41.015-26.778s-34.077 11.012-41.015 26.778a44.852 44.852 0 00-10.185-1.178 44.593 44.593 0 00-25.843 8.215c6.622 13.323 18.285 25.28 34.921 35.736z"/></svg>
