<svg xmlns="http://www.w3.org/2000/svg" viewBox="0 0 512 512"><path fill="#fff" d="M0 .006h512v511.989H0z"/><g fill="#338af3"><path d="M0 0h512v170.663H0zM0 341.337h512V512H0zM182.158 183.827l7.556 23.25h24.444l-19.776 14.369 7.554 23.249-19.778-14.37-19.777 14.37 7.554-23.249-19.777-14.369h24.445zM182.158 267.305l7.556 23.251h24.444l-19.776 14.368 7.554 23.249-19.778-14.369-19.777 14.369 7.554-23.249-19.777-14.368h24.445zM329.842 183.827l7.555 23.25h24.445l-19.777 14.369 7.554 23.249-19.777-14.37-19.778 14.37 7.554-23.249-19.776-14.369h24.444zM329.842 267.305l7.555 23.251h24.445l-19.777 14.368 7.554 23.249-19.777-14.369-19.778 14.369 7.554-23.249-19.776-14.368h24.444zM256 225.566l7.555 23.25H288l-19.777 14.369 7.555 23.249L256 272.065l-19.778 14.369 7.555-23.249L224 248.816h24.445z"/></g></svg>
