<svg xmlns="http://www.w3.org/2000/svg" viewBox="0 0 512 512"><path fill="#d80027" d="M0 0h512v512H0z"/><g fill="#6da544"><path d="M0 256h211.478v128H0zM300.522 256H512v128H300.522z"/></g><path fill="#0052b4" d="M0 0v128h211.478V.006h89.044V128H512V0z"/><g fill="#fff"><path d="M300.522 128H512v128H300.522zM0 128h211.478v128H0z"/></g><g fill="#ffda44"><path d="M300.522 511.994h-89.044V384H0v128h512V384H300.522zM161.39 33.566l7.554 23.248h24.447l-19.776 14.371 7.554 23.249-19.779-14.368-19.777 14.368 7.556-23.249-19.778-14.371h24.446z"/></g></svg>
