<svg xmlns="http://www.w3.org/2000/svg" viewBox="0 0 512 512"><path fill="#fff" d="M0 0h512v512H0z"/><path fill="#fff" d="M0 0h512v512H0z"/><path fill="#d80027" d="M301.255 256L512 45.255V0h-45.255L256 210.745 45.255 0H0v45.255L210.745 256 0 466.745V512h45.255L256 301.255 466.745 512H512v-45.255z"/><path fill="#ffda44" d="M211.479 91.827L256 102.958l44.521-11.131V53.985l-17.809 8.904L256 36.176l-26.713 26.713-17.808-8.904z"/><path fill="#d80027" d="M211.479 91.827v27.827c0 34.079 44.521 44.521 44.521 44.521s44.521-10.443 44.521-44.521V91.827h-89.042z"/></svg>
