<svg xmlns="http://www.w3.org/2000/svg" viewBox="0 0 512 512"><path fill="#fff" d="M0 0h512v512H0z"/><path fill="#0052b4" d="M0 512V0l280.419 262.131H87.61L271.186 512z"/><path fill="#d80027" d="M244.769 246.832L10.199 27.56V496.701h234.57L61.193 246.832z"/><g fill="#fff"><path d="M106.819 367.304l-18.192-8.557 9.687-17.618-19.754 3.779-2.504-19.956-13.759 14.677-13.759-14.677-2.505 19.956-19.753-3.779 9.687 17.618-18.192 8.557 18.192 8.557-9.687 17.619 19.754-3.779 2.502 19.956 13.761-14.677 13.759 14.677 2.504-19.956 19.754 3.779-9.688-17.619zM99.398 162.343l-15.16-7.131 8.073-14.682-16.463 3.149-2.084-16.63-11.467 12.231-11.467-12.231-2.085 16.63-16.463-3.149 8.074 14.682-15.161 7.131 37.102 7.419z"/><path d="M106.819 162.343c0 24.588-19.933 44.522-44.522 44.522s-44.522-19.933-44.522-44.522"/></g></svg>
