<svg xmlns="http://www.w3.org/2000/svg" viewBox="0 0 512 512"><path fill="#0052b4" d="M0 0h512v512H0z"/><path fill="#ffda44" d="M256 105.7l8 24.6h25.9l-21 15.2 8 24.6L256 155l-21 15.2 8-24.6-20.9-15.2h26zM149.7 149.8l23 11.7 18.4-18.3-4 25.5 23 11.8-25.6 4-4 25.6-11.8-23-25.5 4 18.3-18.3zM105.7 256l24.6-8v-25.9l15.2 21 24.6-8L155 256l15.2 21-24.6-8-15.2 20.9v-26zM149.7 362.3l11.8-23-18.3-18.4 25.5 4 11.8-23 4 25.6 25.6 4-23 11.8 4 25.5-18.3-18.3zM256 406.3l-8-24.6h-25.9l21-15.2-8-24.6L256 357l21-15.2-8 24.6 20.9 15.2h-26zM362.3 362.3l-23-11.8-18.4 18.3 4-25.5-23-11.8 25.6-4 4-25.6 11.8 23 25.5-4-18.3 18.3zM406.3 256l-24.6 8v25.9l-15.2-21-24.6 8L357 256l-15.2-21 24.6 8 15.2-20.9v26zM362.3 149.8l-11.8 23 18.3 18.3-25.5-4-11.8 23-4-25.6-25.6-4 23-11.8-4-25.5 18.3 18.3z"/></svg>
