<svg xmlns="http://www.w3.org/2000/svg" viewBox="0 0 512.006 512.006"><path fill="#d80027" d="M.003.017h512v511.989h-512z"/><g fill="#6da544"><path d="M215.866 256.008L.003 471.864V40.136zM512.003 40.136v431.728L296.139 256.008z"/></g><path fill="#0052b4" d="M512.003 40.136L296.139 256.008l215.864 215.856V512h-40.125L256.003 296.127 40.128 512H.003v-40.136l215.863-215.856L.003 40.136V0h40.125l215.875 215.873L471.878 0h40.125z"/><g fill="#fff"><path d="M512.003 40.136L296.139 256.008l215.864 215.856V512h-40.125L256.003 296.127 40.128 512H.003v-40.136l215.863-215.856L.003 40.136V0h40.125l215.875 215.873L471.878 0h40.125z"/><circle cx="256.003" cy="256" r="74.207"/></g><g fill="#d80027"><path d="M256.003 204.058l6.425 11.13h12.853l-6.426 11.13 6.426 11.131h-12.853l-6.425 11.13-6.426-11.13h-12.852l6.425-11.131-6.425-11.13h12.852zM223.339 256l6.426 11.13h12.852l-6.425 11.131 6.425 11.13h-12.852l-6.426 11.131-6.426-11.131H204.06l6.427-11.13-6.427-11.131h12.853zM288.666 256l6.427 11.13h12.852l-6.427 11.131 6.427 11.13h-12.852l-6.427 11.131-6.425-11.131h-12.853l6.426-11.13-6.426-11.131h12.853z"/></g></svg>
