<svg xmlns="http://www.w3.org/2000/svg" viewBox="0 0 512 512"><path fill="#fff" d="M0 0h512v512H0z"/><path fill="#a2001d" d="M0 0h512v170.663H0z"/><path d="M0 341.337h512V512H0z"/><path fill="#496e2d" d="M208.152 242.758c-.111 0-.22.007-.331.009v-.009H169.01c1.968-7.602 8.867-13.242 17.074-13.242v-26.483c-24.338 0-44.138 19.8-44.138 44.138v22.071h66.206a4.42 4.42 0 014.414 4.414v8.828h-88.275v26.483h114.757v-35.31c0-17.038-13.859-30.899-30.896-30.899zm66.207 39.725v-79.448h-26.483v105.93h44.138v-26.482zm88.276.001v-79.449h-26.483v79.449h-8.827v-26.483h-26.484v52.965h79.449v-26.482z"/></svg>
