<svg xmlns="http://www.w3.org/2000/svg" viewBox="0 0 512 512"><path fill="#fff" d="M0 0h512v512H0z"/><g fill="#d80027"><path d="M0 64h512v64H0zM0 192h512v64H0zM0 320h512v64H0zM0 448h512v64H0z"/></g><path fill="#2e52b2" d="M0 0h256v275.69H0z"/><g fill="#fff"><path d="M51.518 115.318l-5.594 17.211H27.826l14.643 10.634-5.594 17.212 14.643-10.634 14.637 10.634-5.595-17.212 14.643-10.634H57.106zM57.106 194.645l-5.588-17.211-5.594 17.211H27.826l14.643 10.634-5.594 17.211 14.643-10.633 14.637 10.633-5.595-17.211 14.643-10.634zM51.518 53.202l-5.594 17.212H27.826l14.643 10.633-5.594 17.212 14.643-10.634 14.637 10.634-5.595-17.212 14.643-10.633H57.106zM128.003 115.318l-5.594 17.211h-18.098l14.643 10.634-5.594 17.212 14.643-10.634 14.637 10.634-5.595-17.212 14.644-10.634h-18.098zM133.591 194.645l-5.588-17.211-5.594 17.211h-18.098l14.643 10.634-5.594 17.211 14.643-10.633 14.637 10.633-5.595-17.211 14.644-10.634zM210.076 194.645l-5.587-17.211-5.595 17.211h-18.097l14.643 10.634-5.595 17.211 14.644-10.633 14.636 10.633-5.594-17.211 14.643-10.634zM204.489 115.318l-5.595 17.211h-18.097l14.643 10.634-5.595 17.212 14.644-10.634 14.636 10.634-5.594-17.212 14.643-10.634h-18.098zM128.003 53.202l-5.594 17.212h-18.098l14.643 10.633-5.594 17.212 14.643-10.634 14.637 10.634-5.595-17.212 14.644-10.633h-18.098zM204.489 53.202l-5.595 17.212h-18.097l14.643 10.633-5.595 17.212 14.644-10.634 14.636 10.634-5.594-17.212 14.643-10.633h-18.098z"/></g></svg>
