<svg xmlns="http://www.w3.org/2000/svg" viewBox="0 0 512 512"><path fill="#ffda44" d="M0 .006h512v511.989H0z"/><path fill="#a2001d" d="M22.261 22.259h467.478v467.478H22.261z"/><g fill="#ffda44"><path d="M194.164 182.931h123.672v-49.469l-24.735 12.367L256 108.728l-37.101 37.101-24.735-12.367zM367.304 257.133h-61.813a28.348 28.348 0 003.833-14.237c0-15.763-12.779-28.54-28.54-28.54-10.89 0-20.348 6.102-25.16 15.068-4.812-8.968-14.27-15.068-25.16-15.068-15.761 0-28.54 12.777-28.54 28.54 0 5.191 1.41 10.044 3.833 14.237h-61.063c0 18.914 16.474 34.247 35.388 34.247h-1.14c0 15.515 10.319 28.613 24.467 32.824l-27.797 27.797 26.234 26.234 37.213-37.215c1.458.533 2.966.962 4.523 1.253l-22.487 50.773a92.455 92.455 0 0034.902 6.814 92.458 92.458 0 0034.902-6.814l-22.487-50.773a28.467 28.467 0 004.522-1.253l37.214 37.215 26.234-26.234-27.797-27.797c14.148-4.21 24.468-17.308 24.468-32.824h-1.141c18.916.001 35.392-15.332 35.392-34.247z"/></g><path fill="#6da544" d="M256 275.684l-40.193 18.551v37.101L256 356.07l40.193-24.734v-37.101z"/><path fill="#0052b4" d="M215.808 257.133h80.384v49.464h-80.384z"/></svg>
