<svg xmlns="http://www.w3.org/2000/svg" viewBox="0 0 512 512"><path fill="#fff" d="M0 0h512v512H0z"/><g fill="#ffda44"><path d="M284.986 204.563c0-16.008-12.977-28.986-28.986-28.986s-28.986 12.978-28.986 28.986h-63.768c0 15.761 13.729 28.538 29.49 28.538h-.949c0 15.762 12.777 28.541 28.54 28.541 0 13.955 10.023 25.551 23.26 28.031l-.075.167h24.977l-.073-.167c13.237-2.48 23.259-14.076 23.259-28.031 15.763 0 28.54-12.778 28.54-28.541h-.951c15.761 0 29.49-12.778 29.49-28.538h-63.768z"/><path d="M243.258 286.883l-17.972 40.575A81.349 81.349 0 00256 333.455a81.355 81.355 0 0030.713-5.997l-17.971-40.575h-25.484z"/></g><path fill="#fff" d="M218.899 218.817v49.928c0 28.399 37.101 37.101 37.101 37.101s37.101-8.702 37.101-37.101v-49.928h-74.202z"/><g fill="#338af3"><path d="M126.719 257.201l20.066 56.123 19.857-56.123h15.154l-28.95 74.203h-12.123l-29.158-74.203h15.154zM359.884 331.404v-74.203h14.423v74.203h-14.423z"/></g><g fill="#d80027"><path d="M233.739 234.94v60.503c5.101 3.753 10.588 6.337 14.84 7.989V234.94h-14.84zM278.261 234.94v60.503c-5.101 3.753-10.588 6.337-14.84 7.989V234.94h14.84z"/></g><path fill="#0052b4" d="M218.902 218.813h74.207v23.541h-74.207z"/></svg>
