<svg xmlns="http://www.w3.org/2000/svg" viewBox="0 0 512 512"><path fill="#fff" d="M0 0h512v512H0z"/><g fill="#338af3"><path d="M0 0h512v170.663H0zM0 341.337h512V512H0z"/></g><path fill="#ffda44" d="M256 192c-35.346 0-64 28.653-64 64s28.654 64 64 64 64-28.653 64-64-28.654-64-64-64zm0 100.571c-20.197 0-36.571-16.373-36.571-36.571s16.374-36.571 36.571-36.571 36.571 16.373 36.571 36.571-16.374 36.571-36.571 36.571z"/><path fill="#0052b4" d="M287.673 265.143L256 256l-31.673 9.143-10.557 18.286h84.46z"/><path fill="#338af3" d="M256 210.286l-21.114 36.571L256 256l21.114-9.143z"/><path fill="#6da544" d="M224.327 265.143h63.346l-10.559-18.286h-42.228z"/></svg>
