<svg xmlns="http://www.w3.org/2000/svg" viewBox="0 0 512 512"><path fill="#fff" d="M0 0h512v512H0z"/><g fill="#d80027"><path d="M0 64h512v64H0zM0 192h512v64H0zM0 320h512v64H0zM0 448h512v64H0z"/></g><path fill="#0052b4" d="M0 0h256v256H0z"/><g fill="#ffda44"><path d="M142.964 176.883c-26.997 0-48.883-21.886-48.883-48.883s21.886-48.883 48.883-48.883a48.652 48.652 0 0123.253 5.876c-10.848-10.607-25.682-17.155-42.053-17.155C90.937 67.838 64 94.773 64 128s26.937 60.162 60.162 60.162c16.371 0 31.206-6.548 42.053-17.155a48.664 48.664 0 01-23.251 5.876z"/><path d="M156.738 93.621l8.678 18.149 19.6-4.529-8.778 18.099L192 137.839l-19.624 4.424.056 20.116-15.694-12.585-15.694 12.585.054-20.116-19.624-4.424 15.762-12.499-8.777-18.099 19.599 4.529z"/></g></svg>
