<svg xmlns="http://www.w3.org/2000/svg" viewBox="0 0 512 512"><path fill="#0052b4" d="M0 0h512v512H0z"/><path fill="#338af3" d="M309.334 160v117.333C309.334 334.487 384 352 384 352s74.666-17.513 74.666-74.667V160H309.334z"/><path fill="#a2001d" d="M309.334 277.333C309.334 334.487 384 352 384 352s74.666-17.513 74.666-74.667H309.334z"/><path d="M416 213.335h-21.335V192h-21.332v21.335H352v21.332h21.333v63.999h21.332v-63.999H416z"/><path fill="#fff" d="M256 0v48.896l-40.147 40.147H256v77.914h-52.536L256 219.492V256h-23.719l-65.324-65.336V256H89.043v-77.724L11.331 256H0v-48.896l40.147-40.147H0V89.043h52.536L0 36.508V0h23.719l65.324 65.336V0h77.914v77.724L244.669 0z"/><path fill="#d80027" d="M0 152.001h104.001V256h48V152.001H256v-48H152.001V0h-48v104.001H0z"/><path fill="#0052b4" d="M166.957 166.957L256 256v-25.18l-63.863-63.863z"/><path fill="#fff" d="M166.957 166.957L256 256v-25.18l-63.863-63.863z"/><g fill="#d80027"><path d="M166.957 166.957L256 256v-25.18l-63.863-63.863zM63.862 166.959L0 230.821V256l89.041-89.041z"/></g><path fill="#0052b4" d="M89.043 89.043L0 0v25.18l63.863 63.863z"/><path fill="#fff" d="M89.043 89.043L0 0v25.18l63.863 63.863z"/><g fill="#d80027"><path d="M89.043 89.043L0 0v25.18l63.863 63.863zM192.138 89.041L256 25.179V0l-89.041 89.041z"/></g></svg>
