<svg xmlns="http://www.w3.org/2000/svg" viewBox="0 0 512 512"><path d="M0 0h512v512H0z"/><path fill="#ffda44" d="M0 85.326h512v85.337H0z"/><path fill="#d80027" d="M0 170.663h512V256H0z"/><path fill="#ffda44" d="M0 341.337h512v85.337H0z"/><path fill="#d80027" d="M0 426.663h512V512H0z"/><path fill="#fff" d="M341.334 255.998c0 47.132-38.202 85.334-85.334 85.334s-85.335-38.202-85.335-85.334 38.202-85.334 85.335-85.334 85.334 38.202 85.334 85.334z"/><path d="M287.261 260.35L256 246.803s7.314-24.278 7.704-25.938c.285-1.214.437-2.48.437-3.781 0-4.606-1.867-8.775-4.885-11.793l7.863-7.863c-5.03-5.031-11.979-8.141-19.655-8.141s-14.625 3.111-19.655 8.141l7.863 7.863a16.62 16.62 0 00-4.885 11.793c0 1.684.255 3.307.719 4.841l-11.837 11.837h21.513s-8.894 13.36-13.749 24.33c-4.855 10.971.067 24.363 11.288 29.351l6.488 2.884 10.793 10.145v11.118l-11.118 11.118h22.237v-22.236l10.145-10.145h20.985c.101-.208.207-.413.303-.626 4.985-11.224-.069-24.364-11.293-29.351z"/></svg>
