<svg xmlns="http://www.w3.org/2000/svg" viewBox="0 0 512 512"><path fill="#d80027" d="M0 .006h512v511.989H0z"/><path fill="#338af3" d="M0 0h512v170.663H0z"/><path fill="#6da544" d="M0 341.337h512V512H0z"/><g fill="#fff"><path d="M261.334 325.334C223.042 325.334 192 294.292 192 256s31.042-69.334 69.334-69.334c11.94 0 23.172 3.019 32.982 8.333-15.387-15.046-36.428-24.333-59.648-24.333-47.128 0-85.333 38.205-85.333 85.334s38.205 85.334 85.333 85.334c23.22 0 44.261-9.287 59.648-24.333-9.81 5.313-21.043 8.333-32.982 8.333z"/><path d="M314.666 208l9.184 25.828 24.759-11.77-11.771 24.757L362.666 256l-25.828 9.185 11.771 24.757-24.759-11.77L314.666 304l-9.182-25.828-24.759 11.77 11.769-24.757L266.666 256l25.828-9.185-11.769-24.757 24.759 11.77z"/></g></svg>
