<svg xmlns="http://www.w3.org/2000/svg" viewBox="0 0 512 512"><path fill="#fff" d="M0 .009h512v511.978H0z"/><path fill="#0052b4" d="M0 170.665h512v170.663H0z"/><path fill="#d80027" d="M0 341.328h512v170.663H0z"/><path fill="#fff" d="M233.606 196.639v14.837c0 34.081-44.522 44.522-44.522 44.522s-44.522-10.44-44.522-44.522v-14.837l-.145-44.188 89.043-.266.146 44.454z"/><path fill="#0052b4" d="M253.011 193.395v21.294c0 48.913-63.896 63.896-63.896 63.896s-63.896-14.984-63.896-63.896v-21.294l-.208-63.417 127.792-.382.208 63.799z"/><path fill="#fff" d="M253.011 193.395v21.294c0 48.913-63.896 63.896-63.896 63.896s-63.896-14.984-63.896-63.896v-21.294l21.309 21.294 42.587-31.948 42.603 31.948 21.293-21.294z"/></svg>
