<svg xmlns="http://www.w3.org/2000/svg" viewBox="0 0 512.006 512.006"><path fill="#ffda44" d="M.003.017h512v511.989h-512z"/><path fill="#fff" d="M256.003 0h256v512h-256z"/><path fill="#acabb1" d="M362.259 230.125l37.455 49.55c-5.901 8.936-5.87 20.975.955 30.004 8.657 11.453 24.96 13.719 36.414 5.062 11.453-8.657 13.719-24.96 5.061-36.414-6.824-9.028-18.4-12.343-28.605-9.102L355.165 192l-13.825 10.45-20.738 15.676 20.902 27.649 20.755-15.65zm53.922 56.965a8.666 8.666 0 0110.451 13.825 8.665 8.665 0 01-10.451-13.825z"/><path fill="#ffda44" d="M426.503 245.777l20.902-27.649-20.738-15.676-13.825-10.45-58.375 77.225c-10.206-3.24-21.781.073-28.605 9.102-8.658 11.453-6.391 27.756 5.061 36.414 11.453 8.657 27.756 6.391 36.414-5.062 6.825-9.028 6.856-21.069.955-30.004l37.455-49.55 20.756 15.65zm-72.992 53.45a8.664 8.664 0 01-12.138 1.688 8.667 8.667 0 01-1.687-12.139 8.666 8.666 0 0113.825 10.451z"/></svg>
