<svg xmlns="http://www.w3.org/2000/svg" viewBox="0 0 512 512"><path fill="#fff" d="M0 0h512v512H0z"/><g fill="#acabb1"><path d="M428.364 213.069h-72.19c0-13.172-10.679-23.851-23.851-23.851l-19.081 38.162s20.353 57.243 19.718 57.243h23.85c13.173 0 23.851-10.677 23.851-23.851 13.173 0 23.851-10.679 23.851-23.851h-.795c13.172-.002 24.647-10.679 24.647-23.852zM83.637 213.069h72.189c0-13.172 10.679-23.851 23.851-23.851l19.081 38.162s-20.353 57.243-19.718 57.243h-23.85c-13.173 0-23.851-10.677-23.851-23.851-13.173 0-23.851-10.679-23.851-23.851h.795c-13.172-.002-24.646-10.679-24.646-23.852z"/></g><path fill="#ffda44" d="M332.324 341.863v9.54H179.676v-9.54h-38.16v38.162h38.16v9.54h152.648v-9.54h38.16v-38.162z"/><path fill="#0052b4" d="M179.676 189.217v95.403c0 58.423 76.324 76.324 76.324 76.324s76.324-17.901 76.324-76.324v-95.403L256 179.676l-76.324 9.541z"/><path fill="#d80027" d="M179.679 227.384h152.643v57.244H179.679z"/><path fill="#ffda44" d="M294.162 141.516v14.31l-9.541 4.771-9.54-9.541v-28.621h-38.162v28.621l-9.54 9.541-9.541-4.771v-14.31h-38.162v47.701h152.648v-47.701z"/></svg>
