<svg xmlns="http://www.w3.org/2000/svg" viewBox="0 0 512 512"><path fill="#ffda44" d="M0 0v512h512V0H0zm489.739 478.609h-267.13V33.391h267.13v445.218z"/><path fill="#a2001d" d="M222.609 33.391h267.13v445.217h-267.13z"/><path fill="#d80027" d="M22.261 107.598h200.348v296.815H22.261z"/><path fill="#ffda44" d="M200.348 85.337h22.261v341.337h-22.261z"/><path fill="#6da544" d="M22.261 33.391h89.043v445.217H22.261z"/><path fill="#ff9811" d="M111.304 33.391h89.043v445.217h-89.043z"/><g fill="#ffda44"><path d="M358.675 250.44v-44.522c0-7.424-11.13-14.848-11.13-14.848s-11.13 7.424-11.13 14.848h-44.522v44.522h22.261v22.261c0 4.875.979 9.539 2.76 13.768l-10.184 8.493h-29.674V157.679c-12.299 0-22.261 9.973-22.261 22.261v96.467a22.19 22.19 0 007.413 16.584v35.361h14.848v-18.554h66.783v29.685H328.99v14.837h29.685v-29.685l13.601-14.837h44.288v29.685h-14.848v14.837h29.685v-29.685l13.601-14.837 12.552-40.259-11.038-19.1h-38.945c-14.169-.121-40.637.09-48.896.001z"/><path d="M370.551 211.847v25.23h71.513v13.363h4.452v-17.815h-71.513v-16.326h75.965v-4.452zM222.609 33.391h22.261v22.261h-22.261zM467.478 33.391h22.261v22.261h-22.261zM222.609 456.348h22.261v22.261h-22.261zM467.478 456.348h22.261v22.261h-22.261z"/></g></svg>
