<svg xmlns="http://www.w3.org/2000/svg" viewBox="0 0 512 512"><path fill="#d80027" d="M0 0h512v512H0z"/><path fill="#0052b4" d="M0 144.685h512v222.62H0z"/><g fill="#fff"><path d="M422.957 300.778l-12.049 9.414 5.229 14.366-12.678-8.548-12.048 9.413 4.214-14.698-12.676-8.552 15.28-.532 4.216-14.697 5.231 14.368zM392.103 247.341l-8.101 12.968 9.828 11.71-14.836-3.695-8.103 12.964-1.069-15.252-14.836-3.701 14.179-5.727-1.065-15.255 9.828 11.715zM344.834 207.677l-3.178 14.956 13.241 7.646-15.206 1.602-3.179 14.953-6.22-13.966-15.206 1.596 11.363-10.233-6.219-13.966 13.242 7.644zM286.851 186.574l2.13 15.142 15.057 2.654-13.743 6.705 2.128 15.142-10.62-11-13.745 6.703 7.18-13.501-10.623-10.997 15.059 2.653zM225.148 186.574l7.18 13.501 15.055-2.657-10.62 11.003 7.177 13.501-13.741-6.705-10.623 10.997 2.13-15.139-13.744-6.701 15.059-2.658zM167.165 207.677l11.365 10.232 13.238-7.644-6.216 13.971 11.361 10.23-15.205-1.598-6.222 13.966-3.175-14.956-15.207-1.596 13.242-7.647zM119.896 247.341l14.18 5.727 9.825-11.711-1.063 15.255 14.175 5.728-14.836 3.699-1.068 15.249-8.1-12.964-14.837 3.698 9.829-11.713zM89.043 300.778l15.285.534 5.227-14.367 4.219 14.699 15.279.535-12.677 8.549 4.214 14.698-12.047-9.414-12.677 8.549 5.23-14.369z"/></g><path fill="#ffda44" d="M0 0h512v144.685H0z"/></svg>
