<svg xmlns="http://www.w3.org/2000/svg" viewBox="0 0 512 512"><path fill="#0052b4" d="M0 0h512v512H0z"/><path fill="#ffda44" d="M413.681 293.101v7.421h-59.363v-7.421h-22.26v29.682h14.841v7.42h74.202v-7.42h14.841v-29.682z"/><path fill="#338af3" d="M332.058 181.797v81.623c0 39.759 51.942 51.942 51.942 51.942s51.942-12.182 51.942-51.942v-81.623H332.058z"/><g fill="#f3f3f3"><path d="M383.997 242.68c-12.985 0-12.985 11.873-25.97 11.873s-12.985-11.873-25.97-11.873v20.777c12.985 0 12.985 11.873 25.97 11.873s12.985-11.873 25.97-11.873c12.986 0 12.986 11.873 25.973 11.873 12.986 0 12.986-11.873 25.973-11.873V242.68c-12.986 0-12.986 11.873-25.973 11.873-12.986-.001-12.986-11.873-25.973-11.873zM383.997 201.09c-12.985 0-12.985 11.873-25.97 11.873s-12.985-11.873-25.97-11.873v20.777c12.985 0 12.985 11.873 25.97 11.873s12.985-11.873 25.97-11.873c12.986 0 12.986 11.873 25.973 11.873 12.986 0 12.986-11.873 25.973-11.873V201.09c-12.986 0-12.986 11.873-25.973 11.873-12.986-.001-12.986-11.873-25.973-11.873z"/></g><path fill="#fff" d="M256 0v48.896l-40.147 40.147H256v77.914h-52.536L256 219.492V256h-23.719l-65.324-65.336V256H89.043v-77.724L11.331 256H0v-48.896l40.147-40.147H0V89.043h52.536L0 36.508V0h23.719l65.324 65.336V0h77.914v77.724L244.669 0z"/><path fill="#d80027" d="M0 152.001h103.999V256h48V152.001H256v-48H151.999V0h-48v104.001H0z"/><path fill="#0052b4" d="M166.957 166.957L256 256v-25.18l-63.863-63.863z"/><path fill="#fff" d="M166.957 166.957L256 256v-25.18l-63.863-63.863z"/><g fill="#d80027"><path d="M166.957 166.957L256 256v-25.18l-63.863-63.863zM63.862 166.959L0 230.821V256l89.041-89.041z"/></g><path fill="#0052b4" d="M89.043 89.043L0 0v25.18l63.863 63.863z"/><path fill="#fff" d="M89.043 89.043L0 0v25.18l63.863 63.863z"/><g fill="#d80027"><path d="M89.043 89.043L0 0v25.18l63.863 63.863zM192.138 89.041L256 25.179V0l-89.041 89.041z"/></g></svg>
