<svg xmlns="http://www.w3.org/2000/svg" viewBox="0 0 512 512"><path d="M0 .007h512v511.989H0z"/><path fill="#d80027" d="M0 .001h512v170.663H0z"/><path fill="#496e2d" d="M0 341.336h512v170.663H0z"/><g fill="#fff"><path d="M290.723 228.72l12.238 16.866 19.822-6.426-12.258 16.851 12.238 16.866-19.816-6.451-12.258 16.851.012-20.838-19.814-6.451 19.822-6.428z"/><path d="M257.318 298.157c-23.283 0-42.158-18.875-42.158-42.158s18.875-42.158 42.158-42.158a41.96 41.96 0 0120.054 5.067c-9.355-9.148-22.15-14.796-36.269-14.796-28.655 0-51.886 23.231-51.886 51.887s23.23 51.886 51.887 51.886c14.119 0 26.913-5.648 36.269-14.796a41.965 41.965 0 01-20.055 5.068z"/></g></svg>
