<svg xmlns="http://www.w3.org/2000/svg" viewBox="0 0 512 512"><path fill="#338af3" d="M0 0h512v512H0z"/><path fill="#6da544" d="M0 0h512v256H0z"/><path fill="#d80027" d="M0 512c-.004.041 512-256.008 512-256.008L0 0v512z"/><path fill="#ffda44" d="M140.986 156.865c-46.03 0-83.478 37.448-83.478 83.478v31.304c0 46.03 37.448 83.478 83.478 83.478s83.478-37.448 83.478-83.478v-31.304c0-46.031-37.448-83.478-83.478-83.478zm52.174 114.782c0 23.317-15.377 43.108-36.522 49.772v-34.12l22.147-22.147-22.135-22.135-.012-7.879V224.69h-31.304v31.304l-22.132 22.131 22.132 22.131v21.162c-21.144-6.664-36.521-26.455-36.521-49.772v-31.304c0-28.769 23.405-52.174 52.174-52.174s52.174 23.405 52.174 52.174v31.305z"/></svg>
