<svg xmlns="http://www.w3.org/2000/svg" viewBox="0 0 512 512"><path fill="#fff" d="M0 .007h512v511.989H0z"/><path fill="#d80027" d="M0 .001h512v170.663H0z"/><path fill="#6da544" d="M0 341.336h512v170.663H0z"/><g fill="#ffda44"><path d="M213.259 320.926h85.482v-36.33l-17.096 8.548L256 267.5l-25.645 25.644-17.096-8.548zM164.351 278.185l3.979 12.245h12.873l-10.414 7.567 3.978 12.244-10.416-7.568-10.415 7.568 3.978-12.244-10.415-7.567h12.874zM176.687 235.445l3.978 12.244h12.874l-10.416 7.567 3.978 12.244-10.414-7.566-10.416 7.566 3.978-12.244-10.415-7.567h12.874zM211.949 203.39l3.978 12.243h12.875l-10.416 7.568 3.978 12.244-10.415-7.567-10.416 7.567 3.978-12.244-10.415-7.568h12.874zM347.648 278.185l-3.978 12.245h-12.875l10.416 7.567-3.978 12.244 10.415-7.568 10.416 7.568-3.978-12.244 10.415-7.567h-12.874zM335.313 235.445l-3.978 12.244h-12.874l10.416 7.567-3.979 12.244 10.415-7.566 10.416 7.566-3.978-12.244 10.415-7.567h-12.874zM300.051 203.39l-3.979 12.243h-12.874l10.416 7.568-3.978 12.244 10.415-7.567 10.416 7.567-3.978-12.244 10.414-7.568H304.03zM256 187.361l3.979 12.244h12.874l-10.416 7.567 3.979 12.244L256 211.849l-10.416 7.567 3.979-12.244-10.416-7.567h12.874z"/></g></svg>
