<svg xmlns="http://www.w3.org/2000/svg" viewBox="0 0 512 512"><path fill="#fff" d="M0 .001h512v511.978H0z"/><path fill="#d80027" d="M0 .005h512v170.663H0z"/><path fill="#0052b4" d="M0 341.336h512v170.663H0z"/><path fill="#6da544" d="M311.092 190.768l-20.659 20.659c8.812 8.813 14.263 20.986 14.263 34.433 0 26.894-21.801 48.696-48.696 48.696s-48.696-21.801-48.696-48.696c0-13.447 5.451-25.62 14.263-34.433l-20.659-20.659c-14.1 14.099-22.821 33.577-22.821 55.092 0 43.03 34.883 77.913 77.913 77.913s77.913-34.883 77.913-77.913c0-21.514-8.721-40.993-22.821-55.092z"/><path fill="#ffda44" d="M256 216.643l7.253 22.321h23.468l-18.986 13.794 7.252 22.32L256 261.283l-18.987 13.795 7.252-22.32-18.986-13.794h23.468z"/></svg>
