<svg xmlns="http://www.w3.org/2000/svg" viewBox="0 0 512 512"><path d="M0 0h512v512H0z"/><path fill="#6da544" d="M512 256v256H0l215.185-256z"/><path fill="#d80027" d="M512 0v256H215.185L0 0z"/><path d="M221.001 230.957L26.868 0H8.956l208.168 247.652H512v-16.695zM8.956 512h17.912l194.133-230.957H512v-16.695H217.124zM0 10.655v21.309L188.317 256 0 480.036v21.309L206.229 256z"/><g fill="#ffda44"><path d="M8.956 0H0v10.655L206.229 256 0 501.345V512h8.956l208.168-247.652H512v-16.696H217.124z"/><path d="M55.76 320v-25.147c25.095 0 45.509-20.417 45.509-45.509 0-17.754-14.444-32.198-32.198-32.198-12.094 0-21.935 9.839-21.935 21.936 0 7.733 6.292 14.027 14.028 14.027 4.372 0 7.929-3.56 7.929-7.93h25.146c0 18.239-14.838 33.077-33.075 33.077-21.602 0-39.174-17.574-39.174-39.174 0-25.962 21.121-47.083 47.081-47.083 31.619 0 57.345 25.725 57.345 57.345C126.416 288.303 94.72 320 55.76 320z"/></g></svg>
