<svg xmlns="http://www.w3.org/2000/svg" viewBox="0 0 512 512"><path fill="#fff" d="M0 0h512v512H0z"/><path fill="#d80027" d="M0 0h512v256H0z"/><g fill="#fff"><path d="M69.565 128c0-35.744 25.121-65.604 58.666-72.93a74.903 74.903 0 00-16-1.736c-41.238 0-74.666 33.428-74.666 74.666s33.428 74.666 74.666 74.666c5.495 0 10.843-.61 16-1.736-33.544-7.326-58.666-37.186-58.666-72.93zM165.565 58.666l5.296 16.299h17.135l-13.863 10.072 5.296 16.297-13.864-10.072-13.864 10.072 5.296-16.297-13.863-10.072h17.135z"/><path d="M123.996 90.666l5.296 16.299h17.136l-13.863 10.072 5.295 16.297-13.864-10.072-13.863 10.072 5.296-16.297-13.864-10.072h17.136zM207.134 90.666l5.296 16.299h17.135l-13.864 10.072 5.296 16.297-13.863-10.072-13.864 10.072 5.296-16.297-13.863-10.072h17.135zM191.134 138.666l5.296 16.299h17.135l-13.864 10.072 5.296 16.297-13.863-10.072-13.864 10.072 5.296-16.297-13.863-10.072h17.135zM139.996 138.666l5.296 16.299h17.136l-13.863 10.072 5.295 16.297-13.864-10.072-13.863 10.072 5.296-16.297-13.864-10.072h17.136z"/></g></svg>
