<svg xmlns="http://www.w3.org/2000/svg" viewBox="0 0 512 512"><path fill="#0052b4" d="M0 0h512v512H0z"/><path fill="#acabb1" d="M409.043 201.739L384 210.087l-25.043-8.348-8.348-20.869 8.348-20.87h50.086l-8.347 20.87z"/><path fill="#338af3" d="M325.565 201.739v91.825C325.565 338.294 384 352 384 352s58.435-13.706 58.435-58.436v-91.825h-116.87z"/><path fill="#6da544" d="M330.832 315.319C345.196 342.895 384 352 384 352s38.804-9.105 53.168-36.681L384 226.783l-53.168 88.536z"/><path fill="#ffda44" d="M442.435 292.637L384 201.739l-58.435 90.899v.927c0 8.279 2.006 15.491 5.267 21.754L384 232.613l53.168 82.706c3.262-6.263 5.267-13.476 5.267-21.754v-.928z"/><path fill="#fff" d="M256 0v48.896l-40.147 40.147H256v77.914h-52.536L256 219.492V256h-23.719l-65.324-65.336V256H89.043v-77.724L11.331 256H0v-48.896l40.147-40.147H0V89.043h52.536L0 36.508V0h23.719l65.324 65.336V0h77.914v77.724L244.669 0z"/><path fill="#d80027" d="M0 152.001h104.001V256h48V152.001H256v-48H152.001V0h-48v104.001H0z"/><path fill="#0052b4" d="M166.957 166.957L256 256v-25.18l-63.863-63.863z"/><path fill="#fff" d="M166.957 166.957L256 256v-25.18l-63.863-63.863z"/><g fill="#d80027"><path d="M166.957 166.957L256 256v-25.18l-63.863-63.863zM63.862 166.959L0 230.821V256l89.041-89.041z"/></g><path fill="#0052b4" d="M89.043 89.043L0 0v25.18l63.863 63.863z"/><path fill="#fff" d="M89.043 89.043L0 0v25.18l63.863 63.863z"/><g fill="#d80027"><path d="M89.043 89.043L0 0v25.18l63.863 63.863zM192.138 89.041L256 25.179V0l-89.041 89.041z"/></g></svg>
