<svg id="Countryflags.com" xmlns="http://www.w3.org/2000/svg" viewBox="0 0 24 16"><defs><style>.cls-1{fill:#c60b1e;}.cls-2{fill:#ffc400;}.cls-18,.cls-3,.cls-38,.cls-51{fill:#ad1519;}.cls-10,.cls-11,.cls-14,.cls-15,.cls-16,.cls-17,.cls-20,.cls-21,.cls-22,.cls-23,.cls-24,.cls-25,.cls-26,.cls-27,.cls-28,.cls-29,.cls-30,.cls-31,.cls-32,.cls-33,.cls-34,.cls-35,.cls-36,.cls-4,.cls-42,.cls-46,.cls-54,.cls-55,.cls-56,.cls-57,.cls-58,.cls-59,.cls-6,.cls-60,.cls-61,.cls-62,.cls-63,.cls-64,.cls-65,.cls-66,.cls-67,.cls-68,.cls-7{fill:none;}.cls-10,.cls-11,.cls-14,.cls-15,.cls-16,.cls-17,.cls-18,.cls-19,.cls-20,.cls-21,.cls-22,.cls-23,.cls-24,.cls-25,.cls-26,.cls-27,.cls-28,.cls-29,.cls-30,.cls-31,.cls-32,.cls-33,.cls-34,.cls-35,.cls-36,.cls-37,.cls-38,.cls-39,.cls-4,.cls-40,.cls-41,.cls-42,.cls-43,.cls-44,.cls-45,.cls-48,.cls-49,.cls-50,.cls-51,.cls-52,.cls-54,.cls-55,.cls-56,.cls-57,.cls-58,.cls-59,.cls-6,.cls-60,.cls-61,.cls-62,.cls-63,.cls-64,.cls-65,.cls-66,.cls-67,.cls-68,.cls-7{stroke:#000;}.cls-11,.cls-4,.cls-44,.cls-55{stroke-linejoin:round;}.cls-16,.cls-18,.cls-4,.cls-40,.cls-41,.cls-46,.cls-6{stroke-width:0.01px;}.cls-19,.cls-41,.cls-43,.cls-44,.cls-5,.cls-52{fill:#c8b100;}.cls-7{stroke-width:0.01px;}.cls-37,.cls-8{fill:#fff;}.cls-39,.cls-50,.cls-9{fill:#058e6e;}.cls-10,.cls-11,.cls-19,.cls-37,.cls-38,.cls-39,.cls-48{stroke-width:0.01px;}.cls-12,.cls-40{fill:#005bbf;}.cls-13{fill:#ccc;}.cls-14{stroke-width:0.01px;}.cls-15{stroke-width:0.01px;}.cls-16{stroke-linecap:round;}.cls-17{stroke-width:0px;}.cls-20{stroke-width:0px;}.cls-21{stroke-width:0px;}.cls-22{stroke-width:0.01px;}.cls-23{stroke-width:0.01px;}.cls-24{stroke-width:0.01px;}.cls-25{stroke-width:0.01px;}.cls-26{stroke-width:0.01px;}.cls-27{stroke-width:0.01px;}.cls-28,.cls-52{stroke-width:0.01px;}.cls-29{stroke-width:0.02px;}.cls-30{stroke-width:0.02px;}.cls-31{stroke-width:0.02px;}.cls-32{stroke-width:0.02px;}.cls-33{stroke-width:0.02px;}.cls-34{stroke-width:0.02px;}.cls-35{stroke-width:0.02px;}.cls-36{stroke-width:0.03px;}.cls-42,.cls-43,.cls-45,.cls-49,.cls-50,.cls-51{stroke-width:0.02px;}.cls-44{stroke-width:0.02px;}.cls-45{fill:#c7b500;}.cls-46{stroke:#c8b100;}.cls-47{fill:#db4446;}.cls-48{fill:#ed72aa;}.cls-49{fill:#ffd691;}.cls-53{fill:#0039f0;}.cls-54{stroke-width:0.02px;}.cls-55,.cls-56{stroke-width:0.01px;}.cls-57{stroke-width:0px;}.cls-58{stroke-width:0px;}.cls-59{stroke-width:0px;}.cls-60{stroke-width:0px;}.cls-61{stroke-width:0px;}.cls-62{stroke-width:0px;}.cls-63{stroke-width:0px;}.cls-64{stroke-width:0px;}.cls-65{stroke-width:0px;}.cls-66{stroke-width:0px;}.cls-67{stroke-width:0px;}.cls-68{stroke-width:0px;}</style></defs><rect id="_627" data-name="627" class="cls-1" width="24" height="16"/><rect id="_626" data-name="626" class="cls-2" y="4" width="24" height="8"/><path id="_625" data-name="625" class="cls-3" d="M5.38,7.11h0l0,0,0,0,0,0a.08.08,0,0,1,0-.06.08.08,0,0,1,0,0l.05,0h.37l0,0,.06,0,.08,0L6,7S6,7,6,7V7S6,7,6,7l0,0,0,0h0a2.1,2.1,0,0,0-.25,0,1.62,1.62,0,0,0-.24,0"/><path id="_624" data-name="624" class="cls-4" d="M5.38,7.11h0l0,0,0,0,0,0a.08.08,0,0,1,0-.06.08.08,0,0,1,0,0l.05,0h.37l0,0,.06,0,.08,0L6,7S6,7,6,7V7S6,7,6,7l0,0,0,0h0a2.1,2.1,0,0,0-.25,0,1.62,1.62,0,0,0-.24,0Z"/><path id="_623" data-name="623" class="cls-5" d="M5.58,6.9s0-.08,0-.08,0,0,0,.08,0,.08,0,.08,0,0,0-.08"/><path id="_622" data-name="622" class="cls-6" d="M5.58,6.9s0-.08,0-.08,0,0,0,.08,0,.08,0,.08S5.58,7,5.58,6.9Z"/><path id="_621" data-name="621" class="cls-5" d="M5.6,6.9s0-.07,0-.07,0,0,0,.07,0,.08,0,.08,0,0,0-.08"/><path id="_620" data-name="620" class="cls-6" d="M5.6,6.9s0-.07,0-.07,0,0,0,.07,0,.08,0,.08S5.6,6.94,5.6,6.9Z"/><path id="_619" data-name="619" class="cls-5" d="M5.59,6.82a0,0,0,0,1,0,0,0,0,0,0,1,0,0,0,0,0,0,1,0,0l0,0"/><path id="_618" data-name="618" class="cls-5" d="M5.64,6.81v0h0v0h0v0h0v0h0v0h0v0h0v0h0v0h0"/><path id="_617" data-name="617" class="cls-7" d="M5.64,6.81v0h0v0h0v0h0v0h0v0h0v0h0v0h0v0h0"/><path id="_616" data-name="616" class="cls-5" d="M5.66,6.81v0H5.58v0h0v0h0v0h0v0h0v0h0v0h0v0h0"/><path id="_615" data-name="615" class="cls-7" d="M5.66,6.81v0H5.58v0h0v0h0v0h0v0h0v0h0v0h0v0h0"/><path id="_614" data-name="614" class="cls-6" d="M5.63,6.79s0,0,0,0a0,0,0,0,1,0,0l0,0s0,0,0,0"/><path id="_613" data-name="613" class="cls-5" d="M5.62,7.11H5.47V7c0-.06-.08-.09-.1-.08l0,0s.12,0,.17.12l0,0h.13V7c.06-.09.14-.14.17-.12s0,0,0,0,0,0-.1.08v.13H5.62"/><path id="_612" data-name="612" class="cls-6" d="M5.62,7.11H5.47V7c0-.06-.08-.09-.1-.08l0,0s.12,0,.17.12l0,0h.13V7c.06-.09.14-.14.17-.12s0,0,0,0,0,0-.1.08v.13Z"/><path id="_611" data-name="611" class="cls-6" d="M5.36,6.89s.1,0,.15.12m.37-.12s-.09,0-.15.12"/><path id="_610" data-name="610" class="cls-5" d="M5.39,7.18a.1.1,0,0,0,0,0,.83.83,0,0,1,.24,0,.85.85,0,0,1,.25,0l0,0v0a.69.69,0,0,0-.22,0,.65.65,0,0,0-.22,0v0h0"/><path id="_609" data-name="609" class="cls-6" d="M5.39,7.18a.1.1,0,0,0,0,0,.83.83,0,0,1,.24,0,.85.85,0,0,1,.25,0l0,0v0a.69.69,0,0,0-.22,0,.65.65,0,0,0-.22,0v0h0"/><path id="_608" data-name="608" class="cls-5" d="M5.62,7.26l.2,0s0,0,0,0h0a.65.65,0,0,0-.22,0,.58.58,0,0,0-.21,0h0s0,0,0,0l.19,0"/><path id="_607" data-name="607" class="cls-6" d="M5.62,7.26l.2,0s0,0,0,0h0a.65.65,0,0,0-.22,0,.58.58,0,0,0-.21,0h0s0,0,0,0Z"/><path id="_606" data-name="606" class="cls-5" d="M5.87,7.11l0,0h0l0,0,0,0,0,0h0s0,0,0,0,0,0,0,0a.07.07,0,0,1,0,0s0,0,0,0a.08.08,0,0,1,0,0l0,0h0a1.42,1.42,0,0,1,.24,0,1.56,1.56,0,0,1,.25,0h0"/><path id="_605" data-name="605" class="cls-6" d="M5.87,7.11l0,0h0l0,0,0,0,0,0h0s0,0,0,0,0,0,0,0a.07.07,0,0,1,0,0s0,0,0,0a.08.08,0,0,1,0,0l0,0h0a1.42,1.42,0,0,1,.24,0,1.56,1.56,0,0,1,.25,0Z"/><path id="_604" data-name="604" class="cls-5" d="M5.62,7h0a0,0,0,0,0,0,0l0,0h0a0,0,0,0,0,0,0,0,0,0,0,0,0,0h0v0a0,0,0,0,0,0,0s0,0,0,0h0s0,0,0,0h0l0,0v0l0,0h0a0,0,0,0,1,0,0h0s0,0,0,0l0,0,0,0h0l0,0,0,0h0l0,0,0,0a.05.05,0,0,1,0,0s0,0,0,0l0,0h0l0,0v0l0,0h0s0,0,0,0h0l0,0a0,0,0,0,0,0,0V7h0s0,0,0,0,0,0,0,0h0a.05.05,0,0,0,0,0,0,0,0,0,0,0,0h0"/><path id="_603" data-name="603" class="cls-6" d="M5.62,7h0a0,0,0,0,0,0,0l0,0h0a0,0,0,0,0,0,0,0,0,0,0,0,0,0h0v0a0,0,0,0,0,0,0s0,0,0,0h0s0,0,0,0h0l0,0v0l0,0h0a0,0,0,0,1,0,0h0s0,0,0,0l0,0,0,0h0l0,0,0,0h0l0,0,0,0a.05.05,0,0,1,0,0s0,0,0,0l0,0h0l0,0v0l0,0h0s0,0,0,0h0l0,0a0,0,0,0,0,0,0V7h0s0,0,0,0,0,0,0,0h0a.05.05,0,0,0,0,0,0,0,0,0,0,0,0h0Z"/><path id="_602" data-name="602" class="cls-5" d="M5.62,7.11a.83.83,0,0,0-.24,0h0s0,0,0,0a.8.8,0,0,1,.5,0h0a.9.9,0,0,0-.25,0"/><path id="_601" data-name="601" class="cls-4" d="M5.62,7.11a.83.83,0,0,0-.24,0h0s0,0,0,0a.8.8,0,0,1,.5,0h0A.9.9,0,0,0,5.62,7.11Z"/><path id="_600" data-name="600" class="cls-8" d="M5.53,7.15s0,0,0,0a0,0,0,0,1,0,0h0"/><path id="_599" data-name="599" class="cls-6" d="M5.53,7.15s0,0,0,0a0,0,0,0,1,0,0h0Z"/><path id="_598" data-name="598" class="cls-3" d="M5.62,7.15h0a0,0,0,0,1,0,0h.08s0,0,0,0h0"/><path id="_597" data-name="597" class="cls-6" d="M5.62,7.15h0a0,0,0,0,1,0,0h.08s0,0,0,0h0"/><path id="_596" data-name="596" class="cls-9" d="M5.47,7.16h0a0,0,0,0,1,0,0h0"/><path id="_595" data-name="595" class="cls-6" d="M5.47,7.16h0a0,0,0,0,1,0,0h0"/><path id="_594" data-name="594" class="cls-3" d="M5.38,7.18v0h0"/><path id="_593" data-name="593" class="cls-6" d="M5.38,7.18v0h0"/><path id="_592" data-name="592" class="cls-8" d="M5.69,7.15s0,0,0,0,0,0,0,0h0"/><path id="_591" data-name="591" class="cls-6" d="M5.69,7.15s0,0,0,0,0,0,0,0h0Z"/><path id="_590" data-name="590" class="cls-9" d="M5.78,7.16h0"/><path id="_589" data-name="589" class="cls-6" d="M5.78,7.16h0"/><path id="_588" data-name="588" class="cls-3" d="M5.86,7.18v0h0v0h0"/><path id="_587" data-name="587" class="cls-6" d="M5.86,7.18v0h0v0h0"/><path id="_586" data-name="586" class="cls-3" d="M5.62,7.24l-.2,0a.68.68,0,0,1,.4,0l-.2,0"/><path id="_585" data-name="585" class="cls-4" d="M5.62,7.24l-.2,0a.68.68,0,0,1,.4,0Z"/><path id="_584" data-name="584" class="cls-5" d="M5.87,7.07s0,0,0,0h0s0,0,0,0h0"/><path id="_583" data-name="583" class="cls-6" d="M5.87,7.07s0,0,0,0h0s0,0,0,0Z"/><path id="_582" data-name="582" class="cls-5" d="M5.71,7h0s0,0,0,0h0"/><path id="_581" data-name="581" class="cls-6" d="M5.71,7h0s0,0,0,0Z"/><path id="_580" data-name="580" class="cls-5" d="M5.53,7h0"/><path id="_579" data-name="579" class="cls-6" d="M5.53,7h0Z"/><path id="_578" data-name="578" class="cls-5" d="M5.38,7.07s0,0,0,0h0v0h0"/><path id="_577" data-name="577" class="cls-6" d="M5.38,7.07s0,0,0,0h0v0Z"/><path id="_576" data-name="576" class="cls-5" d="M5.62,7l0,0,0,0h0l0,0,0,0"/><path id="_575" data-name="575" class="cls-6" d="M5.62,7l0,0,0,0h0l0,0,0,0"/><path id="_574" data-name="574" class="cls-5" d="M5.56,7h0V7"/><path id="_573" data-name="573" class="cls-6" d="M5.56,7h0V7"/><path id="_572" data-name="572" class="cls-5" d="M5.68,7h0V7"/><path id="_571" data-name="571" class="cls-6" d="M5.68,7h0V7"/><path id="_570" data-name="570" class="cls-5" d="M5.44,7l0,0,0,0h0V7h0"/><path id="_569" data-name="569" class="cls-6" d="M5.44,7l0,0,0,0h0V7h0"/><path id="_568" data-name="568" class="cls-5" d="M5.4,7v0l0,0h0V7"/><path id="_567" data-name="567" class="cls-6" d="M5.4,7v0l0,0h0V7"/><path id="_566" data-name="566" class="cls-5" d="M5.52,7V7h0l0,0,0,0"/><path id="_565" data-name="565" class="cls-6" d="M5.52,7V7h0l0,0,0,0"/><path id="_564" data-name="564" class="cls-5" d="M5.35,7.05v0h0l0,0,0,0"/><path id="_563" data-name="563" class="cls-6" d="M5.35,7.05v0h0l0,0,0,0"/><path id="_562" data-name="562" class="cls-5" d="M5.44,7a0,0,0,0,1,0,0,0,0,0,0,1,0,0h0"/><path id="_561" data-name="561" class="cls-6" d="M5.44,7a0,0,0,0,1,0,0,0,0,0,0,1,0,0h0Z"/><path id="_560" data-name="560" class="cls-5" d="M5.8,7l0,0,0,0h0V7h0"/><path id="_559" data-name="559" class="cls-6" d="M5.8,7l0,0,0,0h0V7h0"/><path id="_558" data-name="558" class="cls-5" d="M5.85,7l0,0,0,0h0V7"/><path id="_557" data-name="557" class="cls-6" d="M5.85,7l0,0,0,0h0V7"/><path id="_556" data-name="556" class="cls-5" d="M5.73,7V7h0l0,0V7"/><path id="_555" data-name="555" class="cls-6" d="M5.73,7V7h0l0,0V7"/><path id="_554" data-name="554" class="cls-5" d="M5.88,7.05v0h.05l0,0,0,0"/><path id="_553" data-name="553" class="cls-6" d="M5.88,7.05v0h.05l0,0,0,0"/><path id="_552" data-name="552" class="cls-5" d="M5.61,7h0a0,0,0,0,1,0,0s0,0,0,0"/><path id="_551" data-name="551" class="cls-6" d="M5.61,7h0a0,0,0,0,1,0,0S5.61,7,5.61,7Z"/><path id="_550" data-name="550" class="cls-5" d="M5.77,7a0,0,0,0,1,0,0s0,0,0,0h0"/><path id="_549" data-name="549" class="cls-6" d="M5.77,7a0,0,0,0,1,0,0s0,0,0,0h0Z"/><path id="_548" data-name="548" class="cls-5" d="M5.29,7.07l0,0h0v0h0"/><path id="_547" data-name="547" class="cls-6" d="M5.29,7.07l0,0h0v0Z"/><path id="_546" data-name="546" class="cls-5" d="M5.29,7.06s0,0,0,0h0s0,0,0,0"/><path id="_545" data-name="545" class="cls-6" d="M5.29,7.06s0,0,0,0h0S5.29,7.07,5.29,7.06Z"/><path id="_544" data-name="544" class="cls-5" d="M5.94,7.07l0,0h0v0h0"/><path id="_543" data-name="543" class="cls-6" d="M5.94,7.07l0,0h0v0Z"/><path id="_542" data-name="542" class="cls-5" d="M5.94,7.06a0,0,0,0,0,0,0h0s0,0,0,0"/><path id="_541" data-name="541" class="cls-6" d="M5.94,7.06a0,0,0,0,0,0,0h0S6,7.07,5.94,7.06Z"/><path id="_540" data-name="540" class="cls-5" d="M5.27,7.44H6V7.25H5.27v.19Z"/><path id="_539" data-name="539" class="cls-10" d="M5.27,7.44H6V7.25H5.27v.19Z"/><path id="_538" data-name="538" class="cls-5" d="M5.34,7.56H5.9s0,0,0,0a0,0,0,0,1,0,0H5.34s0,0,0,0,0,0,0,0"/><path id="_537" data-name="537" class="cls-11" d="M5.34,7.56H5.9s0,0,0,0a0,0,0,0,1,0,0H5.34s0,0,0,0S5.36,7.55,5.34,7.56Z"/><path id="_536" data-name="536" class="cls-5" d="M5.35,7.56h.54s0,0,0,0a0,0,0,0,1,0,0H5.35a0,0,0,0,1,0,0l0,0"/><path id="_535" data-name="535" class="cls-10" d="M5.35,7.56h.54s0,0,0,0a0,0,0,0,1,0,0H5.35a0,0,0,0,1,0,0Z"/><path id="_534" data-name="534" class="cls-5" d="M5.35,7.44h.54s0,0,0,0,0,0,0,0H5.35l0,0,0,0"/><path id="_533" data-name="533" class="cls-10" d="M5.35,7.44h.54s0,0,0,0,0,0,0,0H5.35l0,0Z"/><path id="_532" data-name="532" class="cls-12" d="M6.12,10.58a.21.21,0,0,1-.12,0l-.13,0-.12,0a.28.28,0,0,1-.13,0,.21.21,0,0,1-.12,0l-.13,0-.12,0a.25.25,0,0,1-.13,0v.08a.25.25,0,0,0,.13,0,.24.24,0,0,1,.12,0,.28.28,0,0,1,.13,0,.21.21,0,0,0,.12,0,.28.28,0,0,0,.13,0,.21.21,0,0,1,.12,0,.28.28,0,0,1,.13,0,.21.21,0,0,0,.12,0v-.08"/><path id="_531" data-name="531" class="cls-10" d="M6.12,10.58a.21.21,0,0,1-.12,0l-.13,0-.12,0a.28.28,0,0,1-.13,0,.21.21,0,0,1-.12,0l-.13,0-.12,0a.25.25,0,0,1-.13,0v.08a.25.25,0,0,0,.13,0,.24.24,0,0,1,.12,0,.28.28,0,0,1,.13,0,.21.21,0,0,0,.12,0,.28.28,0,0,0,.13,0,.21.21,0,0,1,.12,0,.28.28,0,0,1,.13,0,.21.21,0,0,0,.12,0v-.08Z"/><path id="_530" data-name="530" class="cls-13" d="M6.12,10.66a.21.21,0,0,1-.12,0,.28.28,0,0,0-.13,0,.21.21,0,0,0-.12,0,.28.28,0,0,1-.13,0,.21.21,0,0,1-.12,0,.28.28,0,0,0-.13,0,.24.24,0,0,0-.12,0,.25.25,0,0,1-.13,0v.08a.42.42,0,0,0,.13,0,.24.24,0,0,1,.12,0,.28.28,0,0,1,.13,0,.35.35,0,0,0,.12,0,.28.28,0,0,0,.13,0,.21.21,0,0,1,.12,0,.28.28,0,0,1,.13,0,.21.21,0,0,0,.12,0v-.08"/><path id="_529" data-name="529" class="cls-10" d="M6.12,10.66a.21.21,0,0,1-.12,0,.28.28,0,0,0-.13,0,.21.21,0,0,0-.12,0,.28.28,0,0,1-.13,0,.21.21,0,0,1-.12,0,.28.28,0,0,0-.13,0,.24.24,0,0,0-.12,0,.25.25,0,0,1-.13,0v.08a.42.42,0,0,0,.13,0,.24.24,0,0,1,.12,0,.28.28,0,0,1,.13,0,.35.35,0,0,0,.12,0,.28.28,0,0,0,.13,0,.21.21,0,0,1,.12,0,.28.28,0,0,1,.13,0,.21.21,0,0,0,.12,0v-.08"/><path id="_528" data-name="528" class="cls-12" d="M6.12,10.74a.21.21,0,0,1-.12,0,.28.28,0,0,0-.13,0,.21.21,0,0,0-.12,0,.28.28,0,0,1-.13,0,.35.35,0,0,1-.12,0,.28.28,0,0,0-.13,0,.24.24,0,0,0-.12,0,.42.42,0,0,1-.13,0v.07a.25.25,0,0,0,.13,0l.12,0,.13,0a.21.21,0,0,0,.12,0l.13,0a.21.21,0,0,1,.12,0,.28.28,0,0,1,.13,0l.12,0v-.07"/><path id="_527" data-name="527" class="cls-10" d="M6.12,10.74a.21.21,0,0,1-.12,0,.28.28,0,0,0-.13,0,.21.21,0,0,0-.12,0,.28.28,0,0,1-.13,0,.35.35,0,0,1-.12,0,.28.28,0,0,0-.13,0,.24.24,0,0,0-.12,0,.42.42,0,0,1-.13,0v.07a.25.25,0,0,0,.13,0l.12,0,.13,0a.21.21,0,0,0,.12,0l.13,0a.21.21,0,0,1,.12,0,.28.28,0,0,1,.13,0l.12,0v-.07"/><path id="_526" data-name="526" class="cls-13" d="M6.12,10.89a.21.21,0,0,1-.12,0l-.13,0-.12,0a.28.28,0,0,1-.13,0,.21.21,0,0,1-.12,0l-.13,0-.12,0a.25.25,0,0,1-.13,0v-.08a.25.25,0,0,0,.13,0l.12,0,.13,0a.21.21,0,0,0,.12,0l.13,0a.21.21,0,0,1,.12,0,.28.28,0,0,1,.13,0l.12,0v.08"/><path id="_525" data-name="525" class="cls-10" d="M6.12,10.89a.21.21,0,0,1-.12,0l-.13,0-.12,0a.28.28,0,0,1-.13,0,.21.21,0,0,1-.12,0l-.13,0-.12,0a.25.25,0,0,1-.13,0v-.08a.25.25,0,0,0,.13,0l.12,0,.13,0a.21.21,0,0,0,.12,0l.13,0a.21.21,0,0,1,.12,0,.28.28,0,0,1,.13,0l.12,0v.08"/><path id="_524" data-name="524" class="cls-12" d="M6.12,11a.21.21,0,0,1-.12,0,.28.28,0,0,0-.13,0,.21.21,0,0,0-.12,0,.28.28,0,0,1-.13,0,.21.21,0,0,1-.12,0,.28.28,0,0,0-.13,0,.24.24,0,0,0-.12,0,.25.25,0,0,1-.13,0v-.08a.25.25,0,0,0,.13,0l.12,0,.13,0a.21.21,0,0,0,.12,0,.28.28,0,0,0,.13,0l.12,0,.13,0a.21.21,0,0,0,.12,0V11"/><path id="_523" data-name="523" class="cls-10" d="M6.12,11a.21.21,0,0,1-.12,0,.28.28,0,0,0-.13,0,.21.21,0,0,0-.12,0,.28.28,0,0,1-.13,0,.21.21,0,0,1-.12,0,.28.28,0,0,0-.13,0,.24.24,0,0,0-.12,0,.25.25,0,0,1-.13,0v-.08a.25.25,0,0,0,.13,0l.12,0,.13,0a.21.21,0,0,0,.12,0,.28.28,0,0,0,.13,0l.12,0,.13,0a.21.21,0,0,0,.12,0V11Z"/><path id="_522" data-name="522" class="cls-5" d="M5.34,10.26v0a.1.1,0,0,1-.09.09H6a.09.09,0,0,1-.09-.09v0H5.34"/><path id="_521" data-name="521" class="cls-11" d="M5.34,10.26v0a.1.1,0,0,1-.09.09H6a.09.09,0,0,1-.09-.09v0H5.34Z"/><path id="_520" data-name="520" class="cls-5" d="M5.35,10.22h.54s0,0,0,0a0,0,0,0,1,0,0H5.35a0,0,0,0,1,0,0l0,0"/><path id="_519" data-name="519" class="cls-10" d="M5.35,10.22h.54s0,0,0,0a0,0,0,0,1,0,0H5.35a0,0,0,0,1,0,0Z"/><path id="_518" data-name="518" class="cls-5" d="M5.26,10.56H6v-.19H5.26Z"/><path id="_517" data-name="517" class="cls-10" d="M5.26,10.56H6v-.19H5.26Z"/><path id="_516" data-name="516" class="cls-3" d="M5.2,9.56c-.07,0-.12.08-.11.1s0,0,.06.06.08.1,0,.13a.18.18,0,0,0,.07-.15.15.15,0,0,0-.07-.14"/><path id="_515" data-name="515" class="cls-10" d="M5.2,9.56c-.07,0-.12.08-.11.1s0,0,.06.06.08.1,0,.13a.18.18,0,0,0,.07-.15A.15.15,0,0,0,5.2,9.56Z"/><path id="_514" data-name="514" class="cls-13" d="M5.36,10.19h.52V7.64H5.36Z"/><path id="_513" data-name="513" class="cls-10" d="M5.73,7.64v2.54m.06-2.54v2.54"/><path id="_512" data-name="512" class="cls-10" d="M5.36,10.19h.52V7.64H5.36Z"/><path id="_511" data-name="511" class="cls-3" d="M6.41,8.59a1.57,1.57,0,0,0-.52-.09l-.25,0c-.32.06-.55.18-.53.28h0S5,8.55,5,8.54s.24-.25.59-.31a1.06,1.06,0,0,1,.3,0,1.47,1.47,0,0,1,.53.07v.31"/><path id="_510" data-name="510" class="cls-11" d="M6.41,8.59a1.57,1.57,0,0,0-.52-.09l-.25,0c-.32.06-.55.18-.53.28h0S5,8.55,5,8.54s.24-.25.59-.31a1.06,1.06,0,0,1,.3,0,1.47,1.47,0,0,1,.53.07v.31"/><path id="_509" data-name="509" class="cls-3" d="M5.36,8.91c-.14,0-.24-.05-.25-.11s0-.1.12-.15h.13v.25"/><path id="_508" data-name="508" class="cls-10" d="M5.36,8.91c-.14,0-.24-.05-.25-.11s0-.1.12-.15h.13v.25"/><path id="_507" data-name="507" class="cls-3" d="M5.88,8.72a.35.35,0,0,1,.19.06h0s-.07.1-.2.18V8.72"/><path id="_506" data-name="506" class="cls-10" d="M5.88,8.72a.35.35,0,0,1,.19.06h0s-.07.1-.2.18V8.72"/><path id="_505" data-name="505" class="cls-3" d="M5,9.4s.12-.12.32-.19l.26-.11c.28-.12.48-.26.46-.31h0a1.27,1.27,0,0,1,0,.26c0,.05-.16.19-.41.31l-.34.13c-.14,0-.29.15-.27.18L5,9.4"/><path id="_504" data-name="504" class="cls-11" d="M5,9.4s.12-.12.32-.19l.26-.11c.28-.12.48-.26.46-.31h0a1.27,1.27,0,0,1,0,.26c0,.05-.16.19-.41.31l-.34.13c-.14,0-.29.15-.27.18L5,9.4Z"/><path id="_503" data-name="503" class="cls-5" d="M5.33,8.47c.06,0,.1-.05.08-.1s0,0-.09,0l-.09,0,.08.19h.05l0-.08Zm0-.09h0a0,0,0,0,1,.05,0s0,0,0,0h0l0-.07"/><path id="_502" data-name="502" class="cls-5" d="M5.53,8.3H5.47l0,.2.14,0h0v0l-.08,0,0-.17"/><path id="_501" data-name="501" class="cls-5" d="M5.81,8.47l.09-.22h0l-.06.15-.08-.14H5.66l.12.2h0"/><path id="_500" data-name="500" class="cls-5" d="M6.1,8.31l0,0-.06,0Q6,8.26,6,8.32c0,.07.1.07.1.11a.05.05,0,0,1-.05,0,0,0,0,0,1,0,0H6a.06.06,0,0,1,0,0l.06,0c.06,0,.1,0,.11-.06S6,8.35,6,8.31s0,0,0,0,0,0,0,0h0"/><path id="_499" data-name="499" class="cls-3" d="M10.4,7.05s0,0-.05,0,0,0,0,0l0,0,0,0,0,0h0l0,0h0l0,0h0V7s0,0,.07,0h.07s.05,0,.1,0l.1,0,.09,0s.09,0,.1,0h.07c.05,0,.08,0,.07,0v0h0l0,0h0l0,0h0l0,0,0,0,0,0s0,0,0,0,0,0,0,0"/><path id="_498" data-name="498" class="cls-14" d="M10.4,7.05s0,0-.05,0,0,0,0,0l0,0,0,0,0,0h0l0,0h0l0,0h0V7s0,0,.07,0h.07s.05,0,.1,0l.1,0,.09,0s.09,0,.1,0h.07c.05,0,.08,0,.07,0v0h0l0,0h0l0,0h0l0,0,0,0,0,0s0,0,0,0,0,0,0,0Z"/><path id="_497" data-name="497" class="cls-5" d="M10.35,6.92s0-.06,0-.06,0,0,0,.06a.06.06,0,0,1,0,.06s0,0,0-.06"/><path id="_496" data-name="496" class="cls-6" d="M10.35,6.92s0-.06,0-.06,0,0,0,.06a.06.06,0,0,1,0,.06S10.35,7,10.35,6.92Z"/><path id="_495" data-name="495" class="cls-5" d="M10.38,6.92s0-.06,0-.06,0,0,0,.06,0,.06,0,.06,0,0,0-.06"/><path id="_494" data-name="494" class="cls-6" d="M10.38,6.92s0-.06,0-.06,0,0,0,.06,0,.06,0,.06S10.38,7,10.38,6.92Z"/><path id="_493" data-name="493" class="cls-5" d="M10.17,7.18l0,0a.83.83,0,0,1,.24,0,.85.85,0,0,1,.25,0l0,0v0a.65.65,0,0,0-.22,0,.58.58,0,0,0-.21,0v0h0"/><path id="_492" data-name="492" class="cls-6" d="M10.17,7.18l0,0a.83.83,0,0,1,.24,0,.85.85,0,0,1,.25,0l0,0v0a.65.65,0,0,0-.22,0,.58.58,0,0,0-.21,0v0h0"/><path id="_491" data-name="491" class="cls-5" d="M10.39,7.26l.2,0s0,0,0,0h0a.65.65,0,0,0-.22,0,.62.62,0,0,0-.21,0h0s0,0,0,0l.19,0"/><path id="_490" data-name="490" class="cls-6" d="M10.39,7.26l.2,0s0,0,0,0h0a.65.65,0,0,0-.22,0,.62.62,0,0,0-.21,0h0s0,0,0,0Z"/><path id="_489" data-name="489" class="cls-8" d="M10.58,7l0,0s0,0,0,0h0"/><path id="_488" data-name="488" class="cls-15" d="M10.58,7l0,0s0,0,0,0h0Z"/><path id="_487" data-name="487" class="cls-15" d="M10.58,6.9s0,0,0,0,0,0,0,0h0Zm0,0v0l0,0h0Zm0,0h0s0,0,0,0A0,0,0,0,1,10.49,6.85Zm0,0s0,0,0,0a0,0,0,0,1,0,0h0Z"/><path id="_486" data-name="486" class="cls-16" d="M10.73,7V7a.09.09,0,0,0-.09-.1h0"/><path id="_485" data-name="485" class="cls-6" d="M10.57,7V7a.07.07,0,0,0-.08-.07h-.05"/><path id="_484" data-name="484" class="cls-15" d="M10.74,7V7l0,0h0Zm0,0,0,0s0,0,0,0h0Zm0,0h0Zm0,0s0,0,0,0l0,0s0,0,0,0S10.66,6.9,10.66,6.89Zm-.05,0h0a0,0,0,0,1,0,0S10.61,6.9,10.61,6.89Z"/><path id="_483" data-name="483" class="cls-5" d="M10.64,7.11v0h-.05a0,0,0,0,1,0,0l-.05,0,0,0h0s0,0,0,0,0,0,0,0a0,0,0,0,1,0,0,.07.07,0,0,1,0,0l0,0,0,0h0a0,0,0,0,1,0,0h0a1.56,1.56,0,0,1,.25,0,1.42,1.42,0,0,1,.24,0h0"/><path id="_482" data-name="482" class="cls-6" d="M10.64,7.11v0h-.05a0,0,0,0,1,0,0l-.05,0,0,0h0s0,0,0,0,0,0,0,0a0,0,0,0,1,0,0,.07.07,0,0,1,0,0l0,0,0,0h0a0,0,0,0,1,0,0h0a1.56,1.56,0,0,1,.25,0,1.42,1.42,0,0,1,.24,0Z"/><path id="_481" data-name="481" class="cls-8" d="M10.18,7s0,0,0,0,0,0,0,0h0"/><path id="_480" data-name="480" class="cls-15" d="M10.18,7s0,0,0,0,0,0,0,0h0Z"/><path id="_479" data-name="479" class="cls-15" d="M10.18,6.9a0,0,0,0,1,0,0s0,0,0,0h0Zm0,0v0l0,0h0Zm0,0h0s0,0,0,0A0,0,0,0,1,10.26,6.85Zm.05,0a0,0,0,0,1,0,0,0,0,0,0,1,0,0h0Z"/><path id="_478" data-name="478" class="cls-16" d="M10.06,7V7a.09.09,0,0,1,.09-.1h0"/><path id="_477" data-name="477" class="cls-6" d="M10.22,7V7a.08.08,0,0,1,.09-.07h0"/><path id="_476" data-name="476" class="cls-15" d="M10,7V7l0,0h0Zm0,0,0,0s0,0,0,0h0Zm0,0h0Zm0,0,0,0v0a0,0,0,0,1,0,0S10.1,6.9,10.1,6.89Zm.05,0h0s0,0,0,0S10.15,6.9,10.15,6.89Z"/><path id="_475" data-name="475" class="cls-5" d="M10.4,7h0s0,0,0,0l0,0h0a0,0,0,0,0,0,0,0,0,0,0,0,0,0h0v0a0,0,0,0,0,0,0l0,0h0l0,0h0l0,0v0l0,0h0a0,0,0,0,1,0,0h0a.05.05,0,0,1,0,0l0,0,0,0h0l0,0,0,0h0l0,0,0,0a.05.05,0,0,1-.05,0h0a0,0,0,0,1,0,0h0l0,0v0l0,0h0l0,0h0l0,0a0,0,0,0,0,0,0V7h0a0,0,0,0,0,0,0,0,0,0,0,0,0,0h0l0,0s0,0,0,0h0"/><path id="_474" data-name="474" class="cls-6" d="M10.4,7h0s0,0,0,0l0,0h0a0,0,0,0,0,0,0,0,0,0,0,0,0,0h0v0a0,0,0,0,0,0,0l0,0h0l0,0h0l0,0v0l0,0h0a0,0,0,0,1,0,0h0a.05.05,0,0,1,0,0l0,0,0,0h0l0,0,0,0h0l0,0,0,0a.05.05,0,0,1-.05,0h0a0,0,0,0,1,0,0h0l0,0v0l0,0h0l0,0h0l0,0a0,0,0,0,0,0,0V7h0a0,0,0,0,0,0,0,0,0,0,0,0,0,0h0l0,0s0,0,0,0h0Z"/><path id="_473" data-name="473" class="cls-5" d="M10.39,7.11a.83.83,0,0,0-.24,0h0a.93.93,0,0,1,.25,0,1,1,0,0,1,.26,0h0a.85.85,0,0,0-.25,0"/><path id="_472" data-name="472" class="cls-6" d="M10.39,7.11a.83.83,0,0,0-.24,0h0a.93.93,0,0,1,.25,0,1,1,0,0,1,.26,0h0A.85.85,0,0,0,10.39,7.11Z"/><path id="_471" data-name="471" class="cls-8" d="M10.3,7.15a0,0,0,0,1,0,0,0,0,0,0,1,0,0h0"/><path id="_470" data-name="470" class="cls-6" d="M10.3,7.15a0,0,0,0,1,0,0,0,0,0,0,1,0,0h0Z"/><path id="_469" data-name="469" class="cls-3" d="M10.4,7.15h0a0,0,0,0,1,0,0h.09a0,0,0,0,1,0,0h0"/><path id="_468" data-name="468" class="cls-6" d="M10.4,7.15h0a0,0,0,0,1,0,0h.09a0,0,0,0,1,0,0h0"/><path id="_467" data-name="467" class="cls-9" d="M10.24,7.16h0s0,0,0,0h0"/><path id="_466" data-name="466" class="cls-6" d="M10.24,7.16h0s0,0,0,0h0"/><path id="_465" data-name="465" class="cls-3" d="M10.15,7.18v0h0"/><path id="_464" data-name="464" class="cls-6" d="M10.15,7.18v0h0"/><path id="_463" data-name="463" class="cls-8" d="M10.46,7.15a0,0,0,0,1,0,0,0,0,0,0,1,0,0h0"/><path id="_462" data-name="462" class="cls-6" d="M10.46,7.15a0,0,0,0,1,0,0,0,0,0,0,1,0,0h0Z"/><path id="_461" data-name="461" class="cls-9" d="M10.55,7.16h0s0,0,0,0h0"/><path id="_460" data-name="460" class="cls-6" d="M10.55,7.16h0s0,0,0,0h0"/><path id="_459" data-name="459" class="cls-3" d="M10.64,7.18v0h0v0h0"/><path id="_458" data-name="458" class="cls-6" d="M10.64,7.18v0h0v0h0"/><path id="_457" data-name="457" class="cls-3" d="M10.39,7.24l-.2,0a.64.64,0,0,1,.2,0,.66.66,0,0,1,.21,0l-.21,0"/><path id="_456" data-name="456" class="cls-4" d="M10.39,7.24l-.2,0a.64.64,0,0,1,.2,0,.66.66,0,0,1,.21,0Z"/><path id="_455" data-name="455" class="cls-5" d="M10.64,7.07v0h0s0,0,0,0h0"/><path id="_454" data-name="454" class="cls-6" d="M10.64,7.07v0h0s0,0,0,0Z"/><path id="_453" data-name="453" class="cls-5" d="M10.49,7h0"/><path id="_452" data-name="452" class="cls-6" d="M10.49,7h0Z"/><path id="_451" data-name="451" class="cls-5" d="M10.31,7s0,0,0,0h0"/><path id="_450" data-name="450" class="cls-6" d="M10.31,7s0,0,0,0h0Z"/><path id="_449" data-name="449" class="cls-5" d="M10.15,7.07v0h0s0,0,0,0h0"/><path id="_448" data-name="448" class="cls-6" d="M10.15,7.07v0h0s0,0,0,0Z"/><path id="_447" data-name="447" class="cls-5" d="M10.39,7l0,0,0,0h0l0,0,0,0"/><path id="_446" data-name="446" class="cls-6" d="M10.39,7l0,0,0,0h0l0,0,0,0"/><path id="_445" data-name="445" class="cls-5" d="M10.33,7h0l0,0"/><path id="_444" data-name="444" class="cls-6" d="M10.33,7h0l0,0"/><path id="_443" data-name="443" class="cls-5" d="M10.46,7h0l0,0"/><path id="_442" data-name="442" class="cls-6" d="M10.46,7h0l0,0"/><path id="_441" data-name="441" class="cls-5" d="M10.22,7l0,0,0,0h0V7h0"/><path id="_440" data-name="440" class="cls-6" d="M10.22,7l0,0,0,0h0V7h0"/><path id="_439" data-name="439" class="cls-5" d="M10.17,7l0,0,0,0h-.05V7"/><path id="_438" data-name="438" class="cls-6" d="M10.17,7l0,0,0,0h-.05V7"/><path id="_437" data-name="437" class="cls-5" d="M10.29,7V7h0l0,0,0,0"/><path id="_436" data-name="436" class="cls-6" d="M10.29,7V7h0l0,0,0,0"/><path id="_435" data-name="435" class="cls-5" d="M10.13,7.05v0h0l0,0,0,0"/><path id="_434" data-name="434" class="cls-6" d="M10.13,7.05v0h0l0,0,0,0"/><path id="_433" data-name="433" class="cls-5" d="M10.21,7a0,0,0,0,1,0,0,0,0,0,0,1,0,0h0"/><path id="_432" data-name="432" class="cls-6" d="M10.21,7a0,0,0,0,1,0,0,0,0,0,0,1,0,0h0Z"/><path id="_431" data-name="431" class="cls-5" d="M10.57,7l0,0,0,0h0V7h0"/><path id="_430" data-name="430" class="cls-6" d="M10.57,7l0,0,0,0h0V7h0"/><path id="_429" data-name="429" class="cls-5" d="M10.62,7l0,0,0,0h0V7"/><path id="_428" data-name="428" class="cls-6" d="M10.62,7l0,0,0,0h0V7"/><path id="_427" data-name="427" class="cls-5" d="M10.5,7V7h.05l0,0,0,0"/><path id="_426" data-name="426" class="cls-6" d="M10.5,7V7h.05l0,0,0,0"/><path id="_425" data-name="425" class="cls-5" d="M10.66,7.05v0h.05l0,0,0,0"/><path id="_424" data-name="424" class="cls-6" d="M10.66,7.05v0h.05l0,0,0,0"/><path id="_423" data-name="423" class="cls-5" d="M10.38,7h0a0,0,0,0,1,0,0V7"/><path id="_422" data-name="422" class="cls-6" d="M10.38,7h0a0,0,0,0,1,0,0Z"/><path id="_421" data-name="421" class="cls-5" d="M10.54,7a0,0,0,0,1,0,0,0,0,0,0,1,0,0h0"/><path id="_420" data-name="420" class="cls-6" d="M10.54,7a0,0,0,0,1,0,0,0,0,0,0,1,0,0h0Z"/><path id="_419" data-name="419" class="cls-5" d="M10.37,6.85s0,0,0,0a0,0,0,0,1,0,0s0,0,0,0a0,0,0,0,1,0,0"/><path id="_418" data-name="418" class="cls-5" d="M10.42,6.84v0h-.05v0h0v0h0v0h0v0h0v0h0"/><path id="_417" data-name="417" class="cls-7" d="M10.42,6.84v0h-.05v0h0v0h0v0h0v0h0v0Z"/><path id="_416" data-name="416" class="cls-5" d="M10.44,6.84v0h-.08v0h0v0h0v0h0v0h0v0h0"/><path id="_415" data-name="415" class="cls-6" d="M10.4,6.82s0,0,0,0,0,0,0,0a0,0,0,0,1,0,0s0,0,0,0"/><path id="_414" data-name="414" class="cls-5" d="M10.07,7.07l0,0h0v0h0"/><path id="_413" data-name="413" class="cls-6" d="M10.07,7.07l0,0h0v0Z"/><path id="_412" data-name="412" class="cls-5" d="M10.07,7.06a0,0,0,0,1,0,0h0a0,0,0,0,1,0,0"/><path id="_411" data-name="411" class="cls-6" d="M10.07,7.06a0,0,0,0,1,0,0h0A0,0,0,0,1,10.07,7.06Z"/><path id="_410" data-name="410" class="cls-5" d="M10.72,7.07l0,0h0v0h0"/><path id="_409" data-name="409" class="cls-6" d="M10.72,7.07l0,0h0v0Z"/><path id="_408" data-name="408" class="cls-5" d="M10.72,7.06h0s0,0,0,0h0s0,0,0,0"/><path id="_407" data-name="407" class="cls-6" d="M10.72,7.06h0s0,0,0,0h0S10.72,7.07,10.72,7.06Z"/><path id="_406" data-name="406" class="cls-5" d="M10,7.44h.71V7.25H10Z"/><path id="_405" data-name="405" class="cls-10" d="M10,7.44h.71V7.25H10Z"/><path id="_404" data-name="404" class="cls-5" d="M10.68,7.56h-.56s0,0,0,0a0,0,0,0,0,0,0h.57s0,0,0,0,0,0,0,0"/><path id="_403" data-name="403" class="cls-11" d="M10.68,7.56h-.56s0,0,0,0a0,0,0,0,0,0,0h.57s0,0,0,0,0,0,0,0Z"/><path id="_402" data-name="402" class="cls-5" d="M10.13,7.56h.53s0,0,0,0,0,0,0,0h-.53a0,0,0,0,1,0,0s0,0,0,0"/><path id="_401" data-name="401" class="cls-10" d="M10.13,7.56h.53s0,0,0,0,0,0,0,0h-.53a0,0,0,0,1,0,0S10.11,7.56,10.13,7.56Z"/><path id="_400" data-name="400" class="cls-5" d="M10.13,7.44h.53l0,0,0,0h-.53s0,0,0,0,0,0,0,0"/><path id="_399" data-name="399" class="cls-10" d="M10.13,7.44h.53l0,0,0,0h-.53s0,0,0,0S10.11,7.44,10.13,7.44Z"/><path id="_398" data-name="398" class="cls-12" d="M9.9,10.58a.21.21,0,0,0,.12,0l.13,0,.12,0a.25.25,0,0,0,.13,0,.21.21,0,0,0,.12,0l.12,0,.13,0a.24.24,0,0,0,.12,0v.08a.24.24,0,0,1-.12,0,.25.25,0,0,0-.13,0,.27.27,0,0,0-.12,0,.21.21,0,0,1-.12,0,.25.25,0,0,1-.13,0,.21.21,0,0,0-.12,0,.28.28,0,0,0-.13,0,.21.21,0,0,1-.12,0v-.08"/><path id="_397" data-name="397" class="cls-10" d="M9.9,10.58a.21.21,0,0,0,.12,0l.13,0,.12,0a.25.25,0,0,0,.13,0,.21.21,0,0,0,.12,0l.12,0,.13,0a.24.24,0,0,0,.12,0v.08a.24.24,0,0,1-.12,0,.25.25,0,0,0-.13,0,.27.27,0,0,0-.12,0,.21.21,0,0,1-.12,0,.25.25,0,0,1-.13,0,.21.21,0,0,0-.12,0,.28.28,0,0,0-.13,0,.21.21,0,0,1-.12,0v-.08Z"/><path id="_396" data-name="396" class="cls-13" d="M9.9,10.66a.21.21,0,0,0,.12,0,.28.28,0,0,1,.13,0,.21.21,0,0,1,.12,0,.25.25,0,0,0,.13,0,.21.21,0,0,0,.12,0,.27.27,0,0,1,.12,0,.25.25,0,0,1,.13,0,.24.24,0,0,0,.12,0v.08l-.12,0a.25.25,0,0,0-.13,0,.27.27,0,0,0-.12,0,.35.35,0,0,1-.12,0,.25.25,0,0,1-.13,0,.21.21,0,0,0-.12,0,.28.28,0,0,0-.13,0,.21.21,0,0,1-.12,0v-.08"/><path id="_395" data-name="395" class="cls-10" d="M9.9,10.66a.21.21,0,0,0,.12,0,.28.28,0,0,1,.13,0,.21.21,0,0,1,.12,0,.25.25,0,0,0,.13,0,.21.21,0,0,0,.12,0,.27.27,0,0,1,.12,0,.25.25,0,0,1,.13,0,.24.24,0,0,0,.12,0v.08l-.12,0a.25.25,0,0,0-.13,0,.27.27,0,0,0-.12,0,.35.35,0,0,1-.12,0,.25.25,0,0,1-.13,0,.21.21,0,0,0-.12,0,.28.28,0,0,0-.13,0,.21.21,0,0,1-.12,0v-.08"/><path id="_394" data-name="394" class="cls-12" d="M9.9,10.74a.21.21,0,0,0,.12,0,.28.28,0,0,1,.13,0,.21.21,0,0,1,.12,0,.25.25,0,0,0,.13,0,.35.35,0,0,0,.12,0,.27.27,0,0,1,.12,0,.25.25,0,0,1,.13,0l.12,0v.07a.24.24,0,0,1-.12,0l-.13,0-.12,0a.21.21,0,0,1-.12,0l-.13,0a.21.21,0,0,0-.12,0,.28.28,0,0,0-.13,0l-.12,0v-.07"/><path id="_393" data-name="393" class="cls-10" d="M9.9,10.74a.21.21,0,0,0,.12,0,.28.28,0,0,1,.13,0,.21.21,0,0,1,.12,0,.25.25,0,0,0,.13,0,.35.35,0,0,0,.12,0,.27.27,0,0,1,.12,0,.25.25,0,0,1,.13,0l.12,0v.07a.24.24,0,0,1-.12,0l-.13,0-.12,0a.21.21,0,0,1-.12,0l-.13,0a.21.21,0,0,0-.12,0,.28.28,0,0,0-.13,0l-.12,0v-.07"/><path id="_392" data-name="392" class="cls-13" d="M9.9,10.89a.21.21,0,0,0,.12,0l.13,0,.12,0a.25.25,0,0,0,.13,0,.21.21,0,0,0,.12,0l.12,0,.13,0a.24.24,0,0,0,.12,0v-.08a.24.24,0,0,1-.12,0l-.13,0-.12,0a.21.21,0,0,1-.12,0l-.13,0a.21.21,0,0,0-.12,0,.28.28,0,0,0-.13,0l-.12,0v.08"/><path id="_391" data-name="391" class="cls-10" d="M9.9,10.89a.21.21,0,0,0,.12,0l.13,0,.12,0a.25.25,0,0,0,.13,0,.21.21,0,0,0,.12,0l.12,0,.13,0a.24.24,0,0,0,.12,0v-.08a.24.24,0,0,1-.12,0l-.13,0-.12,0a.21.21,0,0,1-.12,0l-.13,0a.21.21,0,0,0-.12,0,.28.28,0,0,0-.13,0l-.12,0v.08"/><path id="_390" data-name="390" class="cls-12" d="M9.9,11a.21.21,0,0,0,.12,0,.28.28,0,0,1,.13,0,.21.21,0,0,1,.12,0,.25.25,0,0,0,.13,0,.21.21,0,0,0,.12,0l.12,0a.25.25,0,0,1,.13,0,.24.24,0,0,0,.12,0v-.08a.24.24,0,0,1-.12,0l-.13,0-.12,0a.21.21,0,0,1-.12,0,.25.25,0,0,1-.13,0l-.12,0-.13,0a.21.21,0,0,1-.12,0V11"/><path id="_389" data-name="389" class="cls-10" d="M9.9,11a.21.21,0,0,0,.12,0,.28.28,0,0,1,.13,0,.21.21,0,0,1,.12,0,.25.25,0,0,0,.13,0,.21.21,0,0,0,.12,0l.12,0a.25.25,0,0,1,.13,0,.24.24,0,0,0,.12,0v-.08a.24.24,0,0,1-.12,0l-.13,0-.12,0a.21.21,0,0,1-.12,0,.25.25,0,0,1-.13,0l-.12,0-.13,0a.21.21,0,0,1-.12,0V11Z"/><path id="_388" data-name="388" class="cls-5" d="M10.68,10.26v0a.09.09,0,0,0,.09.09H10a.09.09,0,0,0,.09-.09v0h.56"/><path id="_387" data-name="387" class="cls-11" d="M10.68,10.26v0a.09.09,0,0,0,.09.09H10a.09.09,0,0,0,.09-.09v0h.56Z"/><path id="_386" data-name="386" class="cls-5" d="M10.13,10.22h.53l0,0s0,0,0,0h-.53a0,0,0,0,1,0,0s0,0,0,0"/><path id="_385" data-name="385" class="cls-10" d="M10.13,10.22h.53l0,0s0,0,0,0h-.53a0,0,0,0,1,0,0S10.11,10.22,10.13,10.22Z"/><path id="_384" data-name="384" class="cls-5" d="M10,10.56h.73v-.19H10Z"/><path id="_383" data-name="383" class="cls-10" d="M10,10.56h.73v-.19H10Z"/><path id="_382" data-name="382" class="cls-3" d="M10.82,9.56c.07,0,.12.08.11.1s0,0-.06.06-.08.1-.06.13a.21.21,0,0,1-.07-.15.16.16,0,0,1,.08-.14"/><path id="_381" data-name="381" class="cls-10" d="M10.82,9.56c.07,0,.12.08.11.1s0,0-.06.06-.08.1-.06.13a.21.21,0,0,1-.07-.15A.16.16,0,0,1,10.82,9.56Z"/><path id="_380" data-name="380" class="cls-13" d="M10.14,10.19h.52V7.64h-.52Z"/><path id="_379" data-name="379" class="cls-10" d="M10.51,7.64v2.54m.06-2.54v2.54"/><path id="_378" data-name="378" class="cls-10" d="M10.14,10.19h.52V7.64h-.52Z"/><path id="_377" data-name="377" class="cls-3" d="M9.61,8.59a1.57,1.57,0,0,1,.52-.09l.25,0c.31.06.55.18.53.28h0s.12-.26.12-.27-.24-.25-.59-.31a1.06,1.06,0,0,0-.3,0,1.44,1.44,0,0,0-.53.07v.31"/><path id="_376" data-name="376" class="cls-11" d="M9.61,8.59a1.57,1.57,0,0,1,.52-.09l.25,0c.31.06.55.18.53.28h0s.12-.26.12-.27-.24-.25-.59-.31a1.06,1.06,0,0,0-.3,0,1.44,1.44,0,0,0-.53.07v.31"/><path id="_375" data-name="375" class="cls-3" d="M10.66,8.91c.14,0,.24-.05.25-.11s0-.1-.13-.15h-.12v.25"/><path id="_374" data-name="374" class="cls-10" d="M10.66,8.91c.14,0,.24-.05.25-.11s0-.1-.13-.15h-.12v.25"/><path id="_373" data-name="373" class="cls-3" d="M10.14,8.72a.43.43,0,0,0-.2.06h0s.06.1.2.18V8.72"/><path id="_372" data-name="372" class="cls-10" d="M10.14,8.72a.43.43,0,0,0-.2.06h0s.06.1.2.18V8.72"/><path id="_371" data-name="371" class="cls-3" d="M11,9.4s-.13-.12-.32-.19L10.4,9.1c-.28-.12-.48-.26-.46-.31h0a2.6,2.6,0,0,0,0,.26c0,.05.16.19.41.31l.34.13c.14,0,.29.15.27.18L11,9.4"/><path id="_370" data-name="370" class="cls-11" d="M11,9.4s-.13-.12-.32-.19L10.4,9.1c-.28-.12-.48-.26-.46-.31h0a2.6,2.6,0,0,0,0,.26c0,.05.16.19.41.31l.34.13c.14,0,.29.15.27.18L11,9.4Z"/><path id="_369" data-name="369" class="cls-5" d="M9.93,8.48A1.42,1.42,0,0,1,10,8.26h0c0,.06,0,.11-.05.16l-.09-.13H9.76l.14.18h0"/><path id="_368" data-name="368" class="cls-5" d="M10.13,8.26h-.06v.21h.14v0h-.09V8.26"/><path id="_367" data-name="367" class="cls-5" d="M10.35,8.29h.07l-.19,0v0h.07l0,.18h.06V8.29"/><path id="_366" data-name="366" class="cls-5" d="M10.43,8.5h.06l0-.09h0l0,0,0,.07h.06v0l0-.1s.06,0,.07,0a.06.06,0,0,0,0-.05l-.06,0h-.08l-.05.2m.1-.18s.05,0,.05,0h0s0,0-.07,0l0-.08"/><path id="_365" data-name="365" class="cls-5" d="M10.8,8.56a.2.2,0,0,1,0,.07h0l0,0,0-.23h0l-.2.13h0l.06,0,.07,0Zm-.06-.05.07,0v.08l-.06,0"/><path id="_364" data-name="364" class="cls-17" d="M7.21,6.41a.07.07,0,0,1,.07-.06.06.06,0,0,1,.06.06.07.07,0,0,1-.06.07A.07.07,0,0,1,7.21,6.41Z"/><path id="_363" data-name="363" class="cls-18" d="M8,5.85a1.45,1.45,0,0,1,.52.08A1.5,1.5,0,0,0,8.78,6H9a1,1,0,0,1,.34.08,1.08,1.08,0,0,1,.25.16l-.05,0v.12l-.14.16-.07.06-.16.13H9.07l0,.07L8,6.71l-1.06.13,0-.07H6.83l-.16-.13L6.6,6.57l-.14-.16V6.29l0,0a1.08,1.08,0,0,1,.25-.16A1,1,0,0,1,7,6h.22a1.38,1.38,0,0,0,.26-.07A1.49,1.49,0,0,1,8,5.85Z"/><path id="_362" data-name="362" class="cls-19" d="M8,7.24a3.82,3.82,0,0,1-1-.12.05.05,0,0,1,0,0S7,7,7,7a3.43,3.43,0,0,1,1-.12A3.46,3.46,0,0,1,9,7s0,0,0,0a.05.05,0,0,1,0,0,3.84,3.84,0,0,1-1,.12"/><path id="_361" data-name="361" class="cls-3" d="M8,7.19a3.84,3.84,0,0,1-.91-.11,4.24,4.24,0,0,1,1.83,0A3.86,3.86,0,0,1,8,7.19"/><path id="_360" data-name="360" class="cls-20" d="M8,7.19V7"/><path id="_359" data-name="359" class="cls-21" d="M8,7.19V7"/><path id="_358" data-name="358" class="cls-22" d="M7.92,7.19V7"/><path id="_357" data-name="357" class="cls-23" d="M7.87,7.19V7"/><path id="_356" data-name="356" class="cls-24" d="M7.82,7.19V7"/><path id="_355" data-name="355" class="cls-25" d="M7.73,7.18V7m0,.19V7"/><path id="_354" data-name="354" class="cls-26" d="M7.64,7.17V7m.05.18V7"/><path id="_353" data-name="353" class="cls-27" d="M7.53,7.16V7m0,.16V7m0,.17V7"/><path id="_352" data-name="352" class="cls-28" d="M7.49,7.16V7"/><path id="_351" data-name="351" class="cls-29" d="M7.46,7.15V7"/><path id="_350" data-name="350" class="cls-30" d="M7.42,7.15V7"/><path id="_349" data-name="349" class="cls-31" d="M7.34,7.13V7m0,.11V7"/><path id="_348" data-name="348" class="cls-32" d="M7.29,7.13V7"/><path id="_347" data-name="347" class="cls-33" d="M7.26,7.12V7"/><path id="_346" data-name="346" class="cls-34" d="M7.21,7.11V7.05"/><path id="_345" data-name="345" class="cls-35" d="M7.17,7.1v0"/><path id="_344" data-name="344" class="cls-36" d="M7.13,7.09v0"/><path id="_343" data-name="343" class="cls-17" d="M8.26,7.18V7m-.1.2V7m-.07.21V7"/><path id="_342" data-name="342" class="cls-19" d="M8,6.91A4.34,4.34,0,0,0,7,7s0,0,0-.1-.08-.08-.08-.08A4.11,4.11,0,0,1,8,6.73a4.19,4.19,0,0,1,1.1.13s0,0-.08.08S9,7,9,7a4.36,4.36,0,0,0-1-.13"/><path id="_341" data-name="341" class="cls-19" d="M8,6.73a4.11,4.11,0,0,0-1.09.13s0,0,0,0,0,0,0,0A4.18,4.18,0,0,1,8,6.66a4.26,4.26,0,0,1,1.12.14s0,0,0,0,0,0,0,0A4.19,4.19,0,0,0,8,6.73"/><path id="_340" data-name="340" class="cls-11" d="M8,7.19a3.84,3.84,0,0,1-.91-.11,4.24,4.24,0,0,1,1.83,0A3.86,3.86,0,0,1,8,7.19Z"/><path id="_339" data-name="339" class="cls-37" d="M7.7,6.83s0,0,0,0a0,0,0,0,1,0,0s0,0,0,0a0,0,0,0,1,0,0"/><path id="_338" data-name="338" class="cls-38" d="M8,6.85H7.9s0,0,0,0,0,0,0,0h.21s0,0,0,0,0,0,0,0H8"/><path id="_337" data-name="337" class="cls-39" d="M7.48,6.88H7.4s0,0,0,0a0,0,0,0,1,0,0h.16a0,0,0,0,1,0,0s0,0,0,0H7.48"/><path id="_336" data-name="336" class="cls-37" d="M7.17,6.89a0,0,0,0,1,0,0s0,0,0,0,0,0,0,0a0,0,0,0,1,0,0"/><path id="_335" data-name="335" class="cls-38" d="M6.94,7l0,0h.11L7,7,6.94,7"/><path id="_334" data-name="334" class="cls-39" d="M8.53,6.88h.08s0,0,0,0a0,0,0,0,0,0,0H8.46a0,0,0,0,0,0,0s0,0,0,0h.07"/><path id="_333" data-name="333" class="cls-37" d="M8.24,6.83a0,0,0,0,1,0,0s0,0,0,0a0,0,0,0,1,0,0s0,0,0,0"/><path id="_332" data-name="332" class="cls-37" d="M8.77,6.89s0,0,0,0a0,0,0,0,1,0,.06s0,0,0,0"/><path id="_331" data-name="331" class="cls-38" d="M9.07,7l0,0H8.93L9,7l.06,0"/><path id="_330" data-name="330" class="cls-10" d="M7,7.09A3.73,3.73,0,0,1,8,7a3.76,3.76,0,0,1,1,.11"/><path id="_329" data-name="329" class="cls-5" d="M7.21,6.13l0,0,.06-.11a.24.24,0,0,1-.12-.21v0c0-.13.18-.25.39-.25a.55.55,0,0,1,.29.08V5.58a.65.65,0,0,0-.29-.07c-.24,0-.44.14-.45.3v0a.3.3,0,0,0,.11.23l0,.06"/><path id="_328" data-name="328" class="cls-10" d="M7.21,6.13l0,0,.06-.11a.24.24,0,0,1-.12-.21v0c0-.13.18-.25.39-.25a.55.55,0,0,1,.29.08V5.58a.65.65,0,0,0-.29-.07c-.24,0-.44.14-.45.3v0a.3.3,0,0,0,.11.23l0,.06"/><path id="_327" data-name="327" class="cls-5" d="M7.21,6.13a.33.33,0,0,1-.13-.25.31.31,0,0,1,.18-.26.28.28,0,0,0-.12.19v0a.3.3,0,0,0,.11.23l0,.06"/><path id="_326" data-name="326" class="cls-10" d="M7.21,6.13a.33.33,0,0,1-.13-.25.31.31,0,0,1,.18-.26.28.28,0,0,0-.12.19v0a.3.3,0,0,0,.11.23l0,.06"/><path id="_325" data-name="325" class="cls-5" d="M6.47,6.24A.3.3,0,0,1,6.39,6a.61.61,0,0,1,0-.13A.61.61,0,0,1,7,5.67l.2,0,0,0H7a.52.52,0,0,0-.48.21.17.17,0,0,0,0,.1.28.28,0,0,0,.09.19l-.08.13,0,0,.06-.09"/><path id="_324" data-name="324" class="cls-10" d="M6.47,6.24A.3.3,0,0,1,6.39,6a.61.61,0,0,1,0-.13A.61.61,0,0,1,7,5.67l.2,0,0,0H7a.52.52,0,0,0-.48.21.17.17,0,0,0,0,.1.28.28,0,0,0,.09.19l-.08.13,0,0,.06-.09Z"/><path id="_323" data-name="323" class="cls-5" d="M6.56,5.78a.35.35,0,0,0-.14.13.61.61,0,0,0,0,.13.3.3,0,0,0,.08.2l0,.08a.35.35,0,0,1-.08-.22.38.38,0,0,1,.22-.32"/><path id="_322" data-name="322" class="cls-10" d="M6.56,5.78a.35.35,0,0,0-.14.13.61.61,0,0,0,0,.13.3.3,0,0,0,.08.2l0,.08a.35.35,0,0,1-.08-.22A.38.38,0,0,1,6.56,5.78Z"/><path id="_321" data-name="321" class="cls-5" d="M8,5.48a.12.12,0,0,1,.12.09.66.66,0,0,1,0,.15h0v0a.91.91,0,0,0,0,.27L8,6.19,7.83,6a.91.91,0,0,0,0-.27v0h0c0-.06,0-.11,0-.15A.12.12,0,0,1,8,5.48"/><path id="_320" data-name="320" class="cls-10" d="M8,5.48a.12.12,0,0,1,.12.09.66.66,0,0,1,0,.15h0v0a.91.91,0,0,0,0,.27L8,6.19,7.83,6a.91.91,0,0,0,0-.27v0h0c0-.06,0-.11,0-.15A.12.12,0,0,1,8,5.48Z"/><path id="_319" data-name="319" class="cls-5" d="M8,5.53a.06.06,0,0,1,.06,0,.61.61,0,0,1,0,.14h0v0a1.3,1.3,0,0,0,0,.26L8,6.12,7.89,6a1.3,1.3,0,0,0,0-.26v0h0a.61.61,0,0,1,0-.14.06.06,0,0,1,.06,0"/><path id="_318" data-name="318" class="cls-10" d="M8,5.53a.06.06,0,0,1,.06,0,.61.61,0,0,1,0,.14h0v0a1.3,1.3,0,0,0,0,.26L8,6.12,7.89,6a1.3,1.3,0,0,0,0-.26v0h0a.61.61,0,0,1,0-.14A.06.06,0,0,1,8,5.53Z"/><path id="_317" data-name="317" class="cls-5" d="M8.79,6.13l0,0-.07-.11a.24.24,0,0,0,.12-.21v0c0-.13-.18-.25-.39-.25a.49.49,0,0,0-.28.08.13.13,0,0,1,0-.06.65.65,0,0,1,.29-.07c.25,0,.44.14.45.3v0a.3.3,0,0,1-.11.23l0,.06"/><path id="_316" data-name="316" class="cls-10" d="M8.79,6.13l0,0-.07-.11a.24.24,0,0,0,.12-.21v0c0-.13-.18-.25-.39-.25a.49.49,0,0,0-.28.08.13.13,0,0,1,0-.06.65.65,0,0,1,.29-.07c.25,0,.44.14.45.3v0a.3.3,0,0,1-.11.23l0,.06"/><path id="_315" data-name="315" class="cls-5" d="M8.79,6.13a.33.33,0,0,0,.13-.25.32.32,0,0,0-.17-.26.31.31,0,0,1,.11.19v0a.3.3,0,0,1-.11.23l0,.06"/><path id="_314" data-name="314" class="cls-10" d="M8.79,6.13a.33.33,0,0,0,.13-.25.32.32,0,0,0-.17-.26.31.31,0,0,1,.11.19v0a.3.3,0,0,1-.11.23l0,.06"/><path id="_313" data-name="313" class="cls-5" d="M9.53,6.24A.3.3,0,0,0,9.61,6a.31.31,0,0,0,0-.13A.6.6,0,0,0,9,5.67l-.2,0,0,0H9a.52.52,0,0,1,.48.21.17.17,0,0,1,0,.1.28.28,0,0,1-.09.19l.08.13.05,0-.06-.09"/><path id="_312" data-name="312" class="cls-10" d="M9.53,6.24A.3.3,0,0,0,9.61,6a.31.31,0,0,0,0-.13A.6.6,0,0,0,9,5.67l-.2,0,0,0H9a.52.52,0,0,1,.48.21.17.17,0,0,1,0,.1.28.28,0,0,1-.09.19l.08.13.05,0Z"/><path id="_311" data-name="311" class="cls-5" d="M9.44,5.78a.3.3,0,0,1,.14.13.31.31,0,0,1,0,.13.3.3,0,0,1-.08.2l.05.08a.35.35,0,0,0,.08-.22.38.38,0,0,0-.22-.32"/><path id="_310" data-name="310" class="cls-10" d="M9.44,5.78a.3.3,0,0,1,.14.13.31.31,0,0,1,0,.13.3.3,0,0,1-.08.2l.05.08a.35.35,0,0,0,.08-.22A.38.38,0,0,0,9.44,5.78Z"/><path id="_309" data-name="309" class="cls-8" d="M7.94,6.05a.06.06,0,0,1,.12,0,.06.06,0,0,1-.12,0"/><path id="_308" data-name="308" class="cls-10" d="M7.94,6.05a.06.06,0,0,1,.12,0,.06.06,0,0,1-.12,0Z"/><path id="_307" data-name="307" class="cls-37" d="M7.94,5.93a.06.06,0,0,1,.12,0,.06.06,0,0,1-.12,0"/><path id="_306" data-name="306" class="cls-37" d="M8,5.81a.05.05,0,0,1,.1,0,.05.05,0,1,1-.1,0"/><path id="_305" data-name="305" class="cls-37" d="M8,5.7a0,0,0,0,1,0,0s0,0,0,0a0,0,0,0,1,0,0s0,0,0,0"/><path id="_304" data-name="304" class="cls-37" d="M8,5.61a0,0,0,0,1,0,0,0,0,0,0,1,0,0s0,0,0,0l0,0"/><path id="_303" data-name="303" class="cls-19" d="M8,6.39h0a.09.09,0,0,0,0,0,.16.16,0,0,0,.16.15.14.14,0,0,0,.14-.1s0-.06,0,0v0a.15.15,0,0,0,.16.13.16.16,0,0,0,.16-.15v0l0,0,0,.06a.17.17,0,0,0,0,.07.14.14,0,0,0,.15.14A.14.14,0,0,0,9,6.62l0,0v0a.09.09,0,0,0,.07.1.22.22,0,0,0,.13-.06.6.6,0,0,0,.11-.1v.06a.48.48,0,0,1-.13.13.28.28,0,0,1-.13,0A.15.15,0,0,1,9,6.71a.2.2,0,0,1-.11,0,.22.22,0,0,1-.2-.12.24.24,0,0,1-.17.07.23.23,0,0,1-.18-.08.25.25,0,0,1-.15.06A.23.23,0,0,1,8,6.57a.24.24,0,0,1-.19.1.26.26,0,0,1-.16-.06.23.23,0,0,1-.18.08.26.26,0,0,1-.17-.07.22.22,0,0,1-.2.12.2.2,0,0,1-.11,0,.15.15,0,0,1-.1.09.28.28,0,0,1-.13,0,.48.48,0,0,1-.13-.13V6.57a.6.6,0,0,0,.11.1.22.22,0,0,0,.13.06A.09.09,0,0,0,7,6.63v0l0,0a.14.14,0,0,0,.12.06.14.14,0,0,0,.15-.14.17.17,0,0,0,0-.07l0-.06,0,0v0a.16.16,0,0,0,.16.15.15.15,0,0,0,.16-.13v0s0,0,0,0a.16.16,0,0,0,.3,0v0H8"/><path id="_302" data-name="302" class="cls-37" d="M9.09,6.59a0,0,0,0,0,0-.06s0,0-.05,0a0,0,0,0,0,0,.06.06.06,0,0,0,.05,0"/><path id="_301" data-name="301" class="cls-37" d="M8.4,6.46s0-.06,0-.06a0,0,0,0,0,0,0s0,0,0,0a0,0,0,0,0,0,0"/><path id="_300" data-name="300" class="cls-37" d="M7.61,6.46s0-.06,0-.06a0,0,0,0,1,0,0s0,0,0,0a0,0,0,0,1,0,0"/><path id="_299" data-name="299" class="cls-37" d="M6.92,6.59s0,0,0-.06,0,0,0,0a.06.06,0,0,1,0,.06.06.06,0,0,1-.06,0"/><path id="_298" data-name="298" class="cls-19" d="M7.22,6.13a.16.16,0,0,1,.08.1s0,0,0,0h0v0a.28.28,0,0,1,0,.08.08.08,0,0,1,0,0,0,0,0,0,0,0,0,.05.05,0,0,0,0,0l0,0,0-.06,0,0h.07a.17.17,0,0,1,0-.12"/><path id="_297" data-name="297" class="cls-19" d="M7.24,6.46l0,0a0,0,0,0,1,0,0l-.06,0h-.1l0,0a.14.14,0,0,0-.1.06.15.15,0,0,0,.11,0v0h0l.07,0,0,0"/><path id="_296" data-name="296" class="cls-19" d="M7.33,6.44s0,0,0,0,0,0,0,0l.05,0,.07,0h0v0a.15.15,0,0,1,.11,0,.17.17,0,0,1-.1.06l0,0h-.1l-.06,0"/><path id="_295" data-name="295" class="cls-38" d="M7.21,6.41a.07.07,0,0,1,.07-.06.06.06,0,0,1,.06.06.07.07,0,0,1-.06.07.07.07,0,0,1-.07-.07"/><path id="_294" data-name="294" class="cls-19" d="M8,6a.19.19,0,0,1,.07.12s0,0,0,0h0l0,0s0,0,0,.08a.14.14,0,0,1,0,.06L8,6.29l0,0a.14.14,0,0,1,0-.06s0-.07,0-.08l0,0h0s0,0,0,0A.23.23,0,0,1,8,6"/><path id="_293" data-name="293" class="cls-19" d="M8,6.39s0,0,0,0a.06.06,0,0,1,0,0l-.06,0-.08,0h0v0l0,0a.19.19,0,0,0-.13,0,.2.2,0,0,0,.13.06l0,0v0h0l.08,0,.06,0"/><path id="_292" data-name="292" class="cls-19" d="M8.06,6.39s0,0,0,0a.06.06,0,0,0,0,0l.06,0,.08,0h0v0l0,0a.17.17,0,0,1,.12,0,.17.17,0,0,1-.12.06l0,0v0h0l-.08,0-.06,0"/><path id="_291" data-name="291" class="cls-19" d="M8.79,6.13a.18.18,0,0,0-.07.1l0,0h0s0,0,0,0a.28.28,0,0,0,0,.08.08.08,0,0,0,0,0,0,0,0,0,1,.05,0s0,0,0,0l0,0a.11.11,0,0,0,0-.06l0,0H8.82a.17.17,0,0,0,0-.12"/><path id="_290" data-name="290" class="cls-19" d="M8.78,6.46l0,0a0,0,0,0,0,0,0l.06,0H9a.08.08,0,0,0,0,0A.15.15,0,0,1,9,6.46a.15.15,0,0,1-.11,0v0h0l-.07,0,0,0"/><path id="_289" data-name="289" class="cls-19" d="M8.68,6.44s0,0,0,0,0,0,0,0l0,0-.07,0h0v0a0,0,0,0,0,0,0,.16.16,0,0,0-.12,0,.17.17,0,0,0,.1.06l0,0h.1l.06,0"/><path id="_288" data-name="288" class="cls-38" d="M8.67,6.41a.07.07,0,0,1,.07-.06.06.06,0,0,1,.06.06.07.07,0,0,1-.06.07.07.07,0,0,1-.07-.07"/><path id="_287" data-name="287" class="cls-38" d="M9.44,6.56s0,0-.07,0,0,0,0,.07.05,0,.08,0a0,0,0,0,0,0-.07"/><path id="_286" data-name="286" class="cls-19" d="M9.34,6.6l0,0s.06,0,.07,0h0a.21.21,0,0,1,.07-.09.39.39,0,0,1,.12,0,.1.1,0,0,0-.1-.09.09.09,0,0,0-.08,0v0a.1.1,0,0,0-.06.06.22.22,0,0,0,0,.12l0,0-.08,0,0,0v0a.24.24,0,0,0-.12,0,.15.15,0,0,0,.08.08l0,0v0h.18"/><path id="_285" data-name="285" class="cls-19" d="M6.67,6.6l0,0a0,0,0,0,0-.07,0h0a.21.21,0,0,0-.07-.09.31.31,0,0,0-.11,0,.09.09,0,0,1,.09-.09.09.09,0,0,1,.08,0v0a.1.1,0,0,1,.06.06.22.22,0,0,1,0,.12.15.15,0,0,1,0,0,.16.16,0,0,1,.08,0l0,0v0a.24.24,0,0,1,.12,0,.15.15,0,0,1-.08.08l0,0v0H6.67"/><path id="_284" data-name="284" class="cls-38" d="M6.57,6.56a0,0,0,0,1,.07,0s0,0,0,.07a0,0,0,0,1-.07,0s0,0,0-.07"/><path id="_283" data-name="283" class="cls-38" d="M7.94,6.35A.06.06,0,0,1,8,6.29a.07.07,0,0,1,.07.06A.07.07,0,0,1,8,6.42a.07.07,0,0,1-.06-.07"/><path id="_282" data-name="282" class="cls-40" d="M7.86,5.35a.14.14,0,0,1,.28,0,.14.14,0,1,1-.28,0"/><path id="_281" data-name="281" class="cls-41" d="M8,5v.07H7.89v.07H8v.21H7.87v0a.13.13,0,0,0,0,.06h.26a.13.13,0,0,0,0-.06v0H8V5.12h.08V5.05H8V5Z"/><path id="_280" data-name="280" class="cls-13" d="M8,11a2.77,2.77,0,0,1-1.19-.27.77.77,0,0,1-.42-.68V9H9.62v1.07a.76.76,0,0,1-.43.68A2.72,2.72,0,0,1,8,11"/><path id="_279" data-name="279" class="cls-42" d="M8,11a2.77,2.77,0,0,1-1.19-.27.77.77,0,0,1-.42-.68V9H9.62v1.07a.76.76,0,0,1-.43.68A2.72,2.72,0,0,1,8,11Z"/><path id="_278" data-name="278" class="cls-13" d="M8,9H9.62V7.22H8Z"/><path id="_277" data-name="277" class="cls-42" d="M8,9H9.62V7.22H8Z"/><path id="_276" data-name="276" class="cls-3" d="M8,10.07a.81.81,0,0,1-1.61,0V9H8v1.07"/><path id="_275" data-name="275" class="cls-43" d="M6.75,10.7a.76.76,0,0,0,.2.08V9H6.75Z"/><path id="_274" data-name="274" class="cls-44" d="M6.4,10.05a.89.89,0,0,0,.18.5V9H6.4v1.08Z"/><path id="_273" data-name="273" class="cls-45" d="M7.11,10.82H7.3V9H7.11Z"/><path id="_272" data-name="272" class="cls-43" d="M7.47,10.78a.68.68,0,0,0,.19-.08V9H7.47v1.82Z"/><path id="_271" data-name="271" class="cls-3" d="M6.4,9H8V7.22H6.4Z"/><path id="_270" data-name="270" class="cls-42" d="M6.4,9H8V7.22H6.4Z"/><path id="_269" data-name="269" class="cls-43" d="M7.83,10.54A.68.68,0,0,0,8,10.13V9H7.83Z"/><path id="_268" data-name="268" class="cls-42" d="M8,10.07a.81.81,0,0,1-1.61,0V9H8v1.07"/><path id="_267" data-name="267" class="cls-3" d="M9.62,9v1.07a.81.81,0,0,1-1.61,0V9H9.62"/><path id="_266" data-name="266" class="cls-42" d="M9.62,9v1.07a.81.81,0,0,1-1.61,0V9H9.62"/><path id="_265" data-name="265" class="cls-5" d="M8.3,9.8v0a0,0,0,0,1-.08,0H8.18v0a.09.09,0,0,0,.06.08V10H8.3V9.9l0-.05H8.5v0H8.3M9,9.8v0H8.88L9,10l0,0L8.84,9.9h0v.29H8.78V9.9h0l-.16.17,0,0,.15-.18H8.59v0Zm.08,0v0h.15a.1.1,0,0,0,.06.05V10h0V9.9a.08.08,0,0,0,.06-.08v0h0v0a0,0,0,0,1,0,0s0,0,0,0h-.2m-.22.74.12,0,0,0a.37.37,0,0,1-.14,0,.1.1,0,0,1-.09.07.08.08,0,0,1-.08-.07.42.42,0,0,1-.16,0l0,0,.13,0a.07.07,0,0,1,0,0v-.23h.06v.23a.07.07,0,0,1,.05,0Zm-.37-.07,0,0a.4.4,0,0,1-.12-.1.1.1,0,0,1-.09,0,.08.08,0,0,1,0-.11h0a.43.43,0,0,1,0-.16H8.3a.58.58,0,0,0,0,.14h.05l.14-.15,0,0-.14.15a.07.07,0,0,1,0,.09Zm-.2-.16a0,0,0,0,1,0,0s0,0,0,0a0,0,0,0,1-.06,0A0,0,0,0,1,8.32,10.31Zm-.07-.15H8.2V10l.05,0v.09s0,.06,0,.09ZM8.3,10h0s0,.1,0,.08,0,.07,0,.07l0,0a.28.28,0,0,1,0-.09V10Zm.18.46a.8.8,0,0,0,.16.08l0,0-.14-.07,0,0m0,0a.42.42,0,0,0,.16.09l0,0a.61.61,0,0,1-.14-.07l0-.06m.07-.31.05,0,.1-.11,0,0-.12.13m0,0,0-.05L8.55,10l.06,0-.12.14m.6.33,0,0,.12-.1a.08.08,0,0,0,.08,0,.07.07,0,0,0,0-.11h0a.75.75,0,0,0,0-.16H9.31a.32.32,0,0,1,0,.14h0L9.1,10.1l0,0,.14.15a.07.07,0,0,0,0,.09l-.1.09Zm.2-.16s0,0,0,0,0,0,0,0,0,0,0,0S9.31,10.32,9.29,10.31Zm.07-.15h.06V10l-.06,0v.09a.28.28,0,0,1,0,.09Zm0-.18H9.26v.08s0,.07,0,.07l.06,0s0-.06,0-.09V10m-.19.46L9,10.52v0l.13-.07,0,0m0,0a.51.51,0,0,1-.16.09l0,0,.13-.07v-.06m-.08-.31-.05,0-.1-.11,0,0,.11.13m.05,0,0-.05L9.06,10,9,10l.12.14m-.67-.29V9.9h.15l0-.05H8.46m.7,0,0,.05H9V9.85h.18m-.39.73a0,0,0,0,1,.08,0s0,0,0,0S8.77,10.6,8.77,10.58Zm.07-.26.05,0v-.14l-.05,0v.18m-.06,0,0,0v-.14l0,0v.18"/><path id="_264" data-name="264" class="cls-5" d="M8.18,9.81a.11.11,0,0,1,.06-.07V9.57H8.3v.17a.1.1,0,0,1,0,.06h0s0,0,0,0,0,0,0,0H8.18m.41,0h.14v0L8.56,9.6l0,0,.16.19h0V9.5h.05v.24h0L9,9.56l0,0-.17.19s0,0,0,0h-.3Zm.72,0s0,0,0,0,0,0,0,0h0a.11.11,0,0,0-.06-.07V9.57h0v.17a.09.09,0,0,0-.06.06h.05m-1-.5.2.22,0,0-.2-.22s0,0,0,0H8.5V9.2H8.36a.11.11,0,0,0-.09,0,.08.08,0,0,0-.09.08.09.09,0,0,0,.06.08v.17H8.3V9.31Zm1.06,0v.17h0V9.31h0l-.2.23,0,0,.21-.23H9.11V9.2h.15a.09.09,0,0,1,.08,0,.08.08,0,0,1,.09.08.08.08,0,0,1-.06.08Zm-.53,0v.11H8.78V9.31a.1.1,0,0,1-.06-.05H8.59V9.2h.13a.11.11,0,0,1,.09,0,.08.08,0,0,1,.08,0H9v.06H8.89l-.05.05Zm-.6.13H8.19V9.6h.05V9.44m.06,0h0V9.6h0V9.44m1,0H9.26V9.6h.06V9.44m0,0h.06V9.6H9.37V9.44m-.85,0,.05,0,.1.11,0,0-.12-.13m0,0,0,.05.09.11.06,0L8.48,9.5m.61,0L9,9.44l-.1.11,0,0,.12-.14m0,0,0,0-.1.11L9,9.63l.11-.13m-.67.3V9.74h.15l0,.06H8.46m-.23-.57a0,0,0,1,1,.08,0,0,0,0,0,1-.08,0A0,0,0,0,1,8.23,9.23Zm.41,0,0,.05H8.47l0-.05h.19m0-.06,0,0H8.47l0,0h.19m.52.6,0-.06H9V9.8h.18m.15-.57s0,0,0,0a0,0,0,0,1,0,.08S9.31,9.25,9.31,9.23Zm-.54,0a0,0,0,0,1,0,0s0,0,0,0,0,0,0,0A0,0,0,0,1,8.77,9.23Zm.21,0v.05h.16V9.26H9M9,9.2v0h.16v0H9m-.2.17,0,0v.14l0,0V9.37m.06,0,.05,0v.14l-.05,0V9.37"/><path id="_263" data-name="263" class="cls-46" d="M8.89,10.54l.12,0,0,0a.37.37,0,0,1-.14,0,.1.1,0,0,1-.09.07.08.08,0,0,1-.08-.07.42.42,0,0,1-.16,0l0,0,.13,0a.07.07,0,0,1,0,0v-.23h.06v.23a.07.07,0,0,1,.05,0Zm-.16-.68H8.59v0h.14v0L8.56,9.6l0,0,.16.19h0V9.5h.05v.24h0L9,9.56l0,0-.17.19s0,0,0,0H9v0H8.88L9,10l0,0L8.84,9.9h0v.29H8.78V9.9h0l-.16.17,0,0,.15-.18m-.42-.55.2.22,0,0-.2-.22v0H8.5V9.2H8.36a.11.11,0,0,0-.09,0,.08.08,0,0,0-.09.08.09.09,0,0,0,.06.08v.17H8.3V9.31Zm.21,1.16,0,0a.4.4,0,0,1-.12-.1.1.1,0,0,1-.09,0,.08.08,0,0,1,0-.11h0a.43.43,0,0,1,0-.16H8.3a.58.58,0,0,0,0,.14h.05l.14-.15,0,0-.14.15a.07.07,0,0,1,0,.09ZM8.24,10V9.9a.08.08,0,0,1,0-.16V9.57H8.3v.17a.1.1,0,0,1,0,.06H8.5v0H8.35l0,.05V10H8.24m.08.28a0,0,0,0,1,0,0s0,0,0,0a0,0,0,0,1-.06,0A0,0,0,0,1,8.32,10.31Zm-.07-.15H8.2V10l.05,0v.09s0,.06,0,.09ZM8.3,10h0s0,.1,0,.08,0,.07,0,.07l0,0a.28.28,0,0,1,0-.09V10Zm.18.46a.8.8,0,0,0,.16.08l0,0-.14-.07,0,0m0,0a.42.42,0,0,0,.16.09l0,0a.61.61,0,0,1-.14-.07l0-.06"/><path id="_262" data-name="262" class="cls-46" d="M8.53,10.17l.05,0,.1-.11,0,0-.12.13m0,0,0-.05L8.55,10l.06,0-.12.14m-.26-.32s0,0,0,0,0,0,0,0a0,0,0,0,1-.08,0Zm.86.65,0,0,.12-.1a.08.08,0,0,0,.08,0,.07.07,0,0,0,0-.11h0a.75.75,0,0,0,0-.16H9.31a.32.32,0,0,1,0,.14h0L9.1,10.1l0,0,.14.15a.07.07,0,0,0,0,.09l-.1.09ZM9.37,10V9.9a.08.08,0,0,0,0-.16V9.57h0v.17a.09.09,0,0,0-.06.06H9.11v0h.15a.1.1,0,0,0,.06.05V10Zm-.08.28s0,0,0,0,0,0,0,0,0,0,0,0S9.31,10.32,9.29,10.31Zm.07-.15h.06V10l-.06,0v.09a.28.28,0,0,1,0,.09Zm0-.18H9.26v.08s0,.07,0,.07l.06,0s0-.06,0-.09V10m0-.67v.17h0V9.31h0l-.2.23,0,0,.21-.23H9.11V9.2h.15a.09.09,0,0,1,.08,0,.08.08,0,0,1,.09.08.08.08,0,0,1-.06.08Zm-.53,0v.11H8.78V9.31a.1.1,0,0,1-.06-.05H8.59V9.2h.13a.11.11,0,0,1,.09,0,.08.08,0,0,1,.08,0H9v.06H8.89l-.05.05Zm.29,1.13L9,10.52v0l.13-.07,0,0m0,0a.51.51,0,0,1-.16.09l0,0,.13-.07v-.06m-.92-1H8.19V9.6h.05V9.44m.06,0h0V9.6h0V9.44m1,0H9.26V9.6h.06V9.44"/><path id="_261" data-name="261" class="cls-46" d="M9.37,9.44h.06V9.6H9.37V9.44m-.29.73-.05,0-.1-.11,0,0,.11.13m.05,0,0-.05L9.06,10,9,10l.12.14m-.61-.67.05,0,.1.11,0,0-.12-.13m0,0,0,.05.09.11.06,0L8.48,9.5m.61,0L9,9.44l-.1.11,0,0,.12-.14m0,0,0,0-.1.11L9,9.63l.11-.13m-.67.3V9.74h.15l0,.06H8.46m0,0V9.9h.15l0-.05H8.46m-.23-.62a0,0,0,1,1,.08,0,0,0,0,0,1-.08,0A0,0,0,0,1,8.23,9.23Zm.41,0,0,.05H8.47l0-.05h.19m0-.06,0,0H8.47l0,0h.19m.67.62a0,0,0,0,1,0,0s0,0,0,0a0,0,0,0,1,0,0S9.31,9.84,9.31,9.82Zm-.15,0,0-.06H9V9.8h.18m0,0,0,.05H9V9.85h.18m-.39.73a0,0,0,0,1,.08,0s0,0,0,0S8.77,10.6,8.77,10.58Zm.07-.26.05,0v-.14l-.05,0v.18m-.06,0,0,0v-.14l0,0v.18m.53-1.09s0,0,0,0a0,0,0,0,1,0,.08S9.31,9.25,9.31,9.23Zm-.54,0a0,0,0,0,1,0,0s0,0,0,0,0,0,0,0A0,0,0,0,1,8.77,9.23Zm.21,0v.05h.16V9.26H9M9,9.2v0h.16v0H9"/><path id="_260" data-name="260" class="cls-46" d="M8.78,9.37l0,0v.14h0V9.37m.06,0,.05,0v.14H8.84V9.37"/><path id="_259" data-name="259" class="cls-9" d="M8.72,9.82a.09.09,0,0,1,.18,0,.09.09,0,0,1-.18,0"/><path id="_258" data-name="258" class="cls-47" d="M8.83,7.66v0H8.76l-.08,0,0,0a.15.15,0,0,0-.08,0l.06,0a.22.22,0,0,0,.06.05h.16"/><path id="_257" data-name="257" class="cls-10" d="M8.83,7.66v0H8.76l-.08,0,0,0a.15.15,0,0,0-.08,0l.06,0a.22.22,0,0,0,.06.05h.16Z"/><path id="_256" data-name="256" class="cls-48" d="M9.07,7.58v0s0,0,0,0a0,0,0,0,0,0,0v0l0,0H9v0a.06.06,0,0,0,0,0l0,0v0a.07.07,0,0,0,0,0l0,0s0,0,0,0a.12.12,0,0,1,0,0l0,0a.08.08,0,0,0,0,0,.2.2,0,0,1,0,.06V8L9,8l0,0S9,8,9,8A.29.29,0,0,0,9,8.13s.07.12.17.1.07-.16.05-.23a.24.24,0,0,1,0-.15s0-.1,0-.11a.19.19,0,0,1,0-.1.22.22,0,0,1,0-.08s0,0,0,0v0l0,0v.05a.08.08,0,0,1,0-.06l.07,0v0a.2.2,0,0,1,0,.09l-.06.06H9.4l0,.06s0,0,0,.07,0,0-.05,0,0,.14,0,.15a.84.84,0,0,1,.07.19.17.17,0,0,1-.05.15s-.1,0-.11,0a.1.1,0,0,0,0,.09c0,.06,0,.07,0,.08l0,0,0,0s0,0,0,0,0,0,0,.06l0,.08a.06.06,0,0,0,0,0s0,0,0,0H9.1s0,0,0,0v0h0s0,0,0,0,0,0,0,0H9l0,0H9s0,0,0,0,0,0,0,0,0,0,0,0l0,0s0,0,0,0l0,0v0l0,0,0,0v0s0,0,0,0l0,0,0,0,0,0V8.42l0,0h0s0,0-.05,0a.1.1,0,0,0,0,.09.26.26,0,0,1,0,.07l0,0H8.69s0,0,0,0,0,0,0,0h0s0,0,0,0l0,0v0h0s0,0,0,0,0,0,0,0h.05a0,0,0,0,0,0,0s0,0,0,0l0,0,0,0s0,0,0,.05a.06.06,0,0,0,.07,0h0V8.4l0,0v0a.1.1,0,0,0,0,0s0,0,0,0v0a.08.08,0,0,1,0-.05s0-.06,0-.07a.06.06,0,0,1,.06-.05h.16l-.12-.07-.07-.06,0,0h0l0,0,0,0V8.06a.15.15,0,0,1,0,.06.11.11,0,0,0-.05,0v0a.1.1,0,0,1,0,0l0,0-.06,0v0H8.37s0,0,0,0,0,0,0,0H8.33s0,0,0,0h.05s0,0,0,0,0,0,0,0l0,0s0,0,0,0l0,0s.07,0,.07,0l0,0,.05,0,0,0,0,0-.06,0-.06,0h0s0,0,0,0h0l-.05,0h.06l0,0,0,0,0,0s0,0,0,0,0,0,0,0h0s0,0,0,0h0l0,0s0,0,0,0l0,0s0,0,0,0l0,0s0,0,0,0,0,0,0,0,0,0,0,0h0l0,0a.07.07,0,0,0,0,0l0,0,.06,0,.07,0h.15s0,0,0,0,0,0,0,0,0,0,0,0,.06,0,.07,0,0-.05,0-.06-.06,0-.06,0,0,0,0,0h.11l0,0h.05l.09,0,.07.07"/><path id="_255" data-name="255" d="M8.74,7.56v0h0s0,0,0,0h0"/><path id="_254" data-name="254" class="cls-6" d="M8.74,7.56v0h0s0,0,0,0h0Z"/><path id="_253" data-name="253" d="M8.87,7.52v0h0a.07.07,0,0,1,0,0H8.87"/><path id="_252" data-name="252" class="cls-17" d="M8.87,7.52v0h0a.07.07,0,0,1,0,0H8.87Z"/><path id="_251" data-name="251" class="cls-6" d="M9,7.71v0"/><path id="_250" data-name="250" class="cls-47" d="M8.38,7.55l0,0h0s0,0,0,0a.07.07,0,0,0,0,0s0,0,0,0l0,0"/><path id="_249" data-name="249" class="cls-10" d="M8.38,7.55l0,0h0s0,0,0,0a.07.07,0,0,0,0,0s0,0,0,0l0,0Z"/><path id="_248" data-name="248" class="cls-47" d="M8.31,7.59a0,0,0,0,0-.05,0l0,0h0s0,0,0,0h0l0,0"/><path id="_247" data-name="247" class="cls-10" d="M8.31,7.59a0,0,0,0,0-.05,0l0,0h0s0,0,0,0h0l0,0Z"/><path id="_246" data-name="246" class="cls-47" d="M8.27,7.69l0,0s0,0,0,0l0,0h0v0"/><path id="_245" data-name="245" class="cls-10" d="M8.27,7.69l0,0s0,0,0,0l0,0h0v0Z"/><path id="_244" data-name="244" d="M8.74,7.68h0"/><path id="_243" data-name="243" class="cls-6" d="M8.74,7.68h0"/><path id="_242" data-name="242" d="M8.76,7.68h0"/><path id="_241" data-name="241" class="cls-6" d="M8.76,7.68h0"/><path id="_240" data-name="240" d="M8.75,7.58h0v0"/><path id="_239" data-name="239" class="cls-6" d="M8.75,7.58h0v0"/><path id="_238" data-name="238" d="M8.78,7.59h0l0,0v0"/><path id="_237" data-name="237" class="cls-6" d="M8.78,7.59h0l0,0v0"/><path id="_236" data-name="236" class="cls-10" d="M8.61,7.79l0,0v0H8.7s0,0,0,0a.08.08,0,0,1,0,0,.12.12,0,0,1,0,0h0l.06,0,0,0s0,0,0,0a.35.35,0,0,0,0,.06l0,0,0,0s0,0,0,0V8l0,.06,0,0,0,0V8M8.57,8l0,0,0,0h0m0,.16.05,0,0,0"/><path id="_235" data-name="235" class="cls-47" d="M8.35,8h0a.07.07,0,0,0,0,0h.06V8"/><path id="_234" data-name="234" class="cls-10" d="M8.35,8h0a.07.07,0,0,0,0,0h.06Z"/><path id="_233" data-name="233" class="cls-47" d="M8.33,8.11a0,0,0,0,0,0,0s0,0,0,0,0,0,0,0h0v0a0,0,0,0,0,0,0"/><path id="_232" data-name="232" class="cls-10" d="M8.33,8.11a0,0,0,0,0,0,0s0,0,0,0,0,0,0,0h0v0a0,0,0,0,0,0,0Z"/><path id="_231" data-name="231" class="cls-47" d="M8.37,8.19a.13.13,0,0,0,0,.05h0V8.2H8.37"/><path id="_230" data-name="230" class="cls-10" d="M8.37,8.19a.13.13,0,0,0,0,.05h0V8.2H8.37Z"/><path id="_229" data-name="229" class="cls-10" d="M8.91,8.24s.06,0,.06.07a.19.19,0,0,1,0,.08"/><path id="_228" data-name="228" class="cls-47" d="M8.61,8.42l0,0-.05,0h0v0h0l0,0"/><path id="_227" data-name="227" class="cls-10" d="M8.61,8.42l0,0-.05,0h0v0h0Z"/><path id="_226" data-name="226" class="cls-47" d="M8.54,8.51h0a.1.1,0,0,0,0,0s0,0,0,0h0V8.51"/><path id="_225" data-name="225" class="cls-10" d="M8.54,8.51h0a.1.1,0,0,0,0,0s0,0,0,0h0V8.51Z"/><path id="_224" data-name="224" class="cls-47" d="M8.6,8.6s0,0,0,0l0,0s0,0,0,0l0,0H8.6"/><path id="_223" data-name="223" class="cls-10" d="M8.6,8.6s0,0,0,0l0,0s0,0,0,0l0,0Z"/><path id="_222" data-name="222" class="cls-47" d="M9,8.64H9s0,0,0,0l0,0H9a0,0,0,0,0,0,0v0"/><path id="_221" data-name="221" class="cls-10" d="M9,8.64H9s0,0,0,0l0,0H9a0,0,0,0,0,0,0v0Z"/><path id="_220" data-name="220" class="cls-47" d="M9,8.74s0,0,0,0l0,0a0,0,0,0,1,0,0h0l0,0H9"/><path id="_219" data-name="219" class="cls-10" d="M9,8.74s0,0,0,0l0,0a0,0,0,0,1,0,0h0l0,0Z"/><path id="_218" data-name="218" class="cls-47" d="M9.11,8.77a0,0,0,0,0,0,0l0,0s0,0,0,0,0,0,0,0H9.11"/><path id="_217" data-name="217" class="cls-10" d="M9.11,8.77a0,0,0,0,0,0,0l0,0s0,0,0,0,0,0,0,0H9.11Z"/><path id="_216" data-name="216" class="cls-49" d="M8.09,10.55a.12.12,0,0,1,.1.12.15.15,0,0,1-.17.14.16.16,0,0,1-.17-.14.11.11,0,0,1,.1-.12v0l0,0H8l0,0a0,0,0,0,1,0,0H8l0,0H8.1v0a0,0,0,0,0,0,0"/><path id="_215" data-name="215" class="cls-50" d="M8,10.89a.88.88,0,0,0-.18-.1H7.64l.06.05.11.06a.44.44,0,0,0,.2,0"/><path id="_214" data-name="214" class="cls-50" d="M8.05,10.9a.33.33,0,0,1,.16-.1.56.56,0,0,1,.21,0l-.05,0a.23.23,0,0,1-.13.05H8.05"/><path id="_213" data-name="213" class="cls-51" d="M8,10.79a.17.17,0,0,1,0-.12.14.14,0,0,1,0-.11.14.14,0,0,1,.05.11.17.17,0,0,1-.05.12"/><path id="_212" data-name="212" class="cls-50" d="M8,11a.3.3,0,0,0,0-.09v-.07H8a.24.24,0,0,1,0,.07V11s0,0,0,0H8"/><path id="_211" data-name="211" class="cls-8" d="M9.6,6.36a0,0,0,0,1,0,0,0,0,0,0,1,0,0,0,0,0,0,1,0,0s0,0,0,0"/><path id="_210" data-name="210" class="cls-10" d="M9.6,6.36a0,0,0,0,1,0,0,0,0,0,0,1,0,0,0,0,0,0,1,0,0S9.6,6.38,9.6,6.36Z"/><path id="_209" data-name="209" class="cls-8" d="M9.65,6.27a0,0,0,0,1,0,0s0,0,0,0a0,0,0,0,1,0,0s0,0,0,0"/><path id="_208" data-name="208" class="cls-10" d="M9.65,6.27a0,0,0,0,1,0,0s0,0,0,0a0,0,0,0,1,0,0S9.65,6.29,9.65,6.27Z"/><path id="_207" data-name="207" class="cls-8" d="M9.68,6.17a0,0,0,0,1,0,0l0,0a0,0,0,0,1,0,0,0,0,0,0,1,0,0"/><path id="_206" data-name="206" class="cls-10" d="M9.68,6.17a0,0,0,0,1,0,0l0,0a0,0,0,0,1,0,0A0,0,0,0,1,9.68,6.17Z"/><path id="_205" data-name="205" class="cls-8" d="M9.68,6.07s0,0,0,0a0,0,0,1,1,0,.06s0,0,0,0"/><path id="_204" data-name="204" class="cls-10" d="M9.68,6.07s0,0,0,0a0,0,0,1,1,0,.06S9.68,6.09,9.68,6.07Z"/><path id="_203" data-name="203" class="cls-8" d="M9.66,6a0,0,0,0,1,0,0,0,0,0,0,1,0,0,0,0,0,0,1,0,0s0,0,0,0"/><path id="_202" data-name="202" class="cls-10" d="M9.66,6a0,0,0,0,1,0,0,0,0,0,0,1,0,0,0,0,0,0,1,0,0S9.66,6,9.66,6Z"/><path id="_201" data-name="201" class="cls-8" d="M9.6,5.87s0,0,0,0a0,0,0,1,1,0,.06s0,0,0,0"/><path id="_200" data-name="200" class="cls-10" d="M9.6,5.87s0,0,0,0a0,0,0,1,1,0,.06S9.6,5.89,9.6,5.87Z"/><path id="_199" data-name="199" class="cls-8" d="M9.53,5.79s0,0,0,0a0,0,0,0,1,0,0s0,0,0,0a0,0,0,0,1,0,0"/><path id="_198" data-name="198" class="cls-10" d="M9.53,5.79s0,0,0,0a0,0,0,0,1,0,0s0,0,0,0A0,0,0,0,1,9.53,5.79Z"/><path id="_197" data-name="197" class="cls-8" d="M9.45,5.73a0,0,0,0,1,0,0s0,0,0,0,0,0,0,0a0,0,0,0,1,0,0"/><path id="_196" data-name="196" class="cls-10" d="M9.45,5.73a0,0,0,0,1,0,0s0,0,0,0,0,0,0,0A0,0,0,0,1,9.45,5.73Z"/><path id="_195" data-name="195" class="cls-8" d="M9.35,5.68s0,0,0,0a0,0,0,0,1,0,0,0,0,0,0,1,0,0,0,0,0,0,1,0,0"/><path id="_194" data-name="194" class="cls-10" d="M9.35,5.68s0,0,0,0a0,0,0,0,1,0,0,0,0,0,0,1,0,0A0,0,0,0,1,9.35,5.68Z"/><path id="_193" data-name="193" class="cls-8" d="M9.24,5.64a0,0,0,1,1,.08,0s0,0,0,0,0,0,0,0"/><path id="_192" data-name="192" class="cls-10" d="M9.24,5.64a0,0,0,1,1,.08,0s0,0,0,0S9.24,5.66,9.24,5.64Z"/><path id="_191" data-name="191" class="cls-8" d="M9.13,5.62s0,0,0,0a0,0,0,0,1,0,0s0,0,0,0a0,0,0,0,1,0,0"/><path id="_190" data-name="190" class="cls-10" d="M9.13,5.62s0,0,0,0a0,0,0,0,1,0,0s0,0,0,0A0,0,0,0,1,9.13,5.62Z"/><path id="_189" data-name="189" class="cls-8" d="M9,5.61a0,0,0,0,1,0,0s0,0,0,0,0,0,0,0a0,0,0,0,1,0,0"/><path id="_188" data-name="188" class="cls-10" d="M9,5.61a0,0,0,0,1,0,0s0,0,0,0,0,0,0,0A0,0,0,0,1,9,5.61Z"/><path id="_187" data-name="187" class="cls-8" d="M8.91,5.62a0,0,0,0,1,0,0s0,0,0,0a0,0,0,0,1,0,0,0,0,0,0,1,0,0"/><path id="_186" data-name="186" class="cls-10" d="M8.91,5.62a0,0,0,0,1,0,0s0,0,0,0a0,0,0,0,1,0,0A0,0,0,0,1,8.91,5.62Z"/><path id="_185" data-name="185" class="cls-8" d="M8.8,5.62a0,0,0,0,1,0,0s0,0,0,0a0,0,0,0,1,0,0,0,0,0,0,1,0,0"/><path id="_184" data-name="184" class="cls-10" d="M8.8,5.62a0,0,0,0,1,0,0s0,0,0,0a0,0,0,0,1,0,0A0,0,0,0,1,8.8,5.62Z"/><path id="_183" data-name="183" class="cls-37" d="M8.86,5.71s0,0,0,0a0,0,0,0,1,0,0s0,0,0,0a0,0,0,0,1,0,0"/><path id="_182" data-name="182" class="cls-37" d="M8.88,5.81a0,0,0,0,1,0,0s0,0,0,0,0,0,0,0a0,0,0,0,1,0,0"/><path id="_181" data-name="181" class="cls-37" d="M8.88,5.91s0,0,0,0a0,0,0,0,1,0,0s0,0,0,0a0,0,0,0,1,0,0"/><path id="_180" data-name="180" class="cls-37" d="M8.85,6a0,0,0,0,1,0,0,0,0,0,0,1,0,0s0,0,0,0a0,0,0,0,1,0,0"/><path id="_179" data-name="179" class="cls-37" d="M8.79,6.09s0,0,0,0a0,0,0,0,1,0,.06s0,0,0,0"/><path id="_178" data-name="178" class="cls-8" d="M8.72,5.55s0,0,0,0a0,0,0,1,1,0,.06s0,0,0,0"/><path id="_177" data-name="177" class="cls-10" d="M8.72,5.55s0,0,0,0a0,0,0,1,1,0,.06S8.72,5.57,8.72,5.55Z"/><path id="_176" data-name="176" class="cls-8" d="M8.63,5.5s0,0,0,0a0,0,0,0,1,0,0s0,0,0,0a0,0,0,0,1,0,0"/><path id="_175" data-name="175" class="cls-10" d="M8.63,5.5s0,0,0,0a0,0,0,0,1,0,0s0,0,0,0A0,0,0,0,1,8.63,5.5Z"/><path id="_174" data-name="174" class="cls-8" d="M8.52,5.47a0,0,0,0,1,0,0,0,0,0,0,1,0,0,0,0,0,0,1-.07,0"/><path id="_173" data-name="173" class="cls-10" d="M8.52,5.47a0,0,0,0,1,0,0,0,0,0,0,1,0,0,0,0,0,0,1-.07,0Z"/><path id="_172" data-name="172" class="cls-8" d="M8.41,5.45a0,0,0,0,1,0,0,0,0,0,0,1,0,0s0,0,0,0a0,0,0,0,1,0,0"/><path id="_171" data-name="171" class="cls-10" d="M8.41,5.45a0,0,0,0,1,0,0,0,0,0,0,1,0,0s0,0,0,0A0,0,0,0,1,8.41,5.45Z"/><path id="_170" data-name="170" class="cls-8" d="M8.3,5.45s0,0,0,0a0,0,0,1,1,0,.06s0,0,0,0"/><path id="_169" data-name="169" class="cls-10" d="M8.3,5.45s0,0,0,0a0,0,0,1,1,0,.06S8.3,5.47,8.3,5.45Z"/><path id="_168" data-name="168" class="cls-8" d="M8.19,5.47a0,0,0,0,1,0,0,0,0,0,0,1,0,0,0,0,0,0,1,0,0s0,0,0,0"/><path id="_167" data-name="167" class="cls-10" d="M8.19,5.47a0,0,0,0,1,0,0,0,0,0,0,1,0,0,0,0,0,0,1,0,0S8.19,5.49,8.19,5.47Z"/><path id="_166" data-name="166" class="cls-8" d="M8.09,5.5a0,0,0,0,1,0,0,0,0,0,0,1,0,0,0,0,0,0,1,0,0s0,0,0,0"/><path id="_165" data-name="165" class="cls-10" d="M8.09,5.5a0,0,0,0,1,0,0,0,0,0,0,1,0,0,0,0,0,0,1,0,0S8.09,5.52,8.09,5.5Z"/><path id="_164" data-name="164" class="cls-8" d="M6.33,6.36a0,0,0,0,1,0,0s0,0,0,0a0,0,0,0,1,0,0s0,0,0,0"/><path id="_163" data-name="163" class="cls-10" d="M6.33,6.36a0,0,0,0,1,0,0s0,0,0,0a0,0,0,0,1,0,0S6.33,6.38,6.33,6.36Z"/><path id="_162" data-name="162" class="cls-8" d="M6.28,6.27s0,0,0,0a0,0,0,0,1,0,0s0,0,0,0a0,0,0,0,1,0,0"/><path id="_161" data-name="161" class="cls-10" d="M6.28,6.27s0,0,0,0a0,0,0,0,1,0,0s0,0,0,0A0,0,0,0,1,6.28,6.27Z"/><path id="_160" data-name="160" class="cls-8" d="M6.25,6.17a0,0,0,0,1,0,0,0,0,0,0,1,0,0s0,0,0,0a0,0,0,0,1,0,0"/><path id="_159" data-name="159" class="cls-10" d="M6.25,6.17a0,0,0,0,1,0,0,0,0,0,0,1,0,0s0,0,0,0A0,0,0,0,1,6.25,6.17Z"/><path id="_158" data-name="158" class="cls-8" d="M6.25,6.07a0,0,0,0,1,0,0s0,0,0,0,0,0,0,0a0,0,0,0,1,0,0"/><path id="_157" data-name="157" class="cls-10" d="M6.25,6.07a0,0,0,0,1,0,0s0,0,0,0,0,0,0,0A0,0,0,0,1,6.25,6.07Z"/><path id="_156" data-name="156" class="cls-8" d="M6.27,6a0,0,0,0,1,0,0,0,0,0,0,1,0,0s0,0,0,0a0,0,0,0,1,0,0"/><path id="_155" data-name="155" class="cls-10" d="M6.27,6a0,0,0,0,1,0,0,0,0,0,0,1,0,0s0,0,0,0A0,0,0,0,1,6.27,6Z"/><path id="_154" data-name="154" class="cls-8" d="M6.33,5.87a0,0,0,0,1,0,0s0,0,0,0,0,0,0,0a0,0,0,0,1,0,0"/><path id="_153" data-name="153" class="cls-10" d="M6.33,5.87a0,0,0,0,1,0,0s0,0,0,0,0,0,0,0A0,0,0,0,1,6.33,5.87Z"/><path id="_152" data-name="152" class="cls-8" d="M6.4,5.79a0,0,0,0,1,0,0s0,0,0,0a0,0,0,0,1,0,0s0,0,0,0"/><path id="_151" data-name="151" class="cls-10" d="M6.4,5.79a0,0,0,0,1,0,0s0,0,0,0a0,0,0,0,1,0,0S6.4,5.81,6.4,5.79Z"/><path id="_150" data-name="150" class="cls-8" d="M6.48,5.73s0,0,0,0a0,0,0,1,1,0,.06s0,0,0,0"/><path id="_149" data-name="149" class="cls-10" d="M6.48,5.73s0,0,0,0a0,0,0,1,1,0,.06S6.48,5.75,6.48,5.73Z"/><path id="_148" data-name="148" class="cls-8" d="M6.58,5.68a0,0,0,0,1,0,0s0,0,0,0a0,0,0,0,1,0,0,0,0,0,0,1,0,0"/><path id="_147" data-name="147" class="cls-10" d="M6.58,5.68a0,0,0,0,1,0,0s0,0,0,0a0,0,0,0,1,0,0A0,0,0,0,1,6.58,5.68Z"/><path id="_146" data-name="146" class="cls-8" d="M6.69,5.64s0,0,0,0a0,0,0,0,1,0,0s0,0,0,0a0,0,0,0,1,0,0"/><path id="_145" data-name="145" class="cls-10" d="M6.69,5.64s0,0,0,0a0,0,0,0,1,0,0s0,0,0,0A0,0,0,0,1,6.69,5.64Z"/><path id="_144" data-name="144" class="cls-8" d="M6.8,5.62a0,0,0,0,1,0,0s0,0,0,0a0,0,0,0,1,0,0s0,0,0,0"/><path id="_143" data-name="143" class="cls-10" d="M6.8,5.62a0,0,0,0,1,0,0s0,0,0,0a0,0,0,0,1,0,0S6.8,5.64,6.8,5.62Z"/><path id="_142" data-name="142" class="cls-8" d="M6.91,5.61s0,0,0,0a0,0,0,1,1,0,.06s0,0,0,0"/><path id="_141" data-name="141" class="cls-10" d="M6.91,5.61s0,0,0,0a0,0,0,1,1,0,.06S6.91,5.63,6.91,5.61Z"/><path id="_140" data-name="140" class="cls-8" d="M7,5.62a0,0,0,0,1,0,0,0,0,0,0,1,0,.07,0,0,0,0,1,0-.07"/><path id="_139" data-name="139" class="cls-10" d="M7,5.62a0,0,0,0,1,0,0,0,0,0,0,1,0,.07A0,0,0,0,1,7.06,5.58Z"/><path id="_138" data-name="138" class="cls-8" d="M7.13,5.62s0,0,0,0a0,0,0,0,1,0,0,0,0,0,0,1,0,0,0,0,0,0,1,0,0"/><path id="_137" data-name="137" class="cls-10" d="M7.13,5.62s0,0,0,0a0,0,0,0,1,0,0,0,0,0,0,1,0,0A0,0,0,0,1,7.13,5.62Z"/><path id="_136" data-name="136" class="cls-37" d="M7.07,5.71a0,0,0,0,1,0,0s0,0,0,0a0,0,0,0,1,0,0s0,0,0,0"/><path id="_135" data-name="135" class="cls-37" d="M7.05,5.81s0,0,0,0a0,0,0,0,1,0,.06s0,0,0,0"/><path id="_134" data-name="134" class="cls-37" d="M7.05,5.91a0,0,0,0,1,0,0s0,0,0,0a0,0,0,0,1,0,0s0,0,0,0"/><path id="_133" data-name="133" class="cls-37" d="M7.08,6a0,0,0,0,1,.07,0,0,0,0,0,1,0,0,0,0,0,0,1,0,0"/><path id="_132" data-name="132" class="cls-37" d="M7.14,6.09a0,0,0,0,1,0,0s0,0,0,0,0,0,0,0a0,0,0,0,1,0,0"/><path id="_131" data-name="131" class="cls-8" d="M7.21,5.55a0,0,0,0,1,0,0s0,0,0,0,0,0,0,0a0,0,0,0,1,0,0"/><path id="_130" data-name="130" class="cls-10" d="M7.21,5.55a0,0,0,0,1,0,0s0,0,0,0,0,0,0,0A0,0,0,0,1,7.21,5.55Z"/><path id="_129" data-name="129" class="cls-8" d="M7.31,5.5s0,0,0,0a0,0,0,0,1,0,0s0,0,0,0a0,0,0,0,1,0,0"/><path id="_128" data-name="128" class="cls-10" d="M7.31,5.5s0,0,0,0a0,0,0,0,1,0,0s0,0,0,0A0,0,0,0,1,7.31,5.5Z"/><path id="_127" data-name="127" class="cls-8" d="M7.41,5.47a0,0,0,0,1,0,0s0,0,0,0a0,0,0,0,1,0,0,0,0,0,0,1,0,0"/><path id="_126" data-name="126" class="cls-10" d="M7.41,5.47a0,0,0,0,1,0,0s0,0,0,0a0,0,0,0,1,0,0A0,0,0,0,1,7.41,5.47Z"/><path id="_125" data-name="125" class="cls-8" d="M7.52,5.45a0,0,0,0,1,0,0s0,0,0,0a0,0,0,0,1,0,0s0,0,0,0"/><path id="_124" data-name="124" class="cls-10" d="M7.52,5.45a0,0,0,0,1,0,0s0,0,0,0a0,0,0,0,1,0,0S7.52,5.47,7.52,5.45Z"/><path id="_123" data-name="123" class="cls-8" d="M7.63,5.45a0,0,0,0,1,0,0s0,0,0,0,0,0,0,0a0,0,0,0,1,0,0"/><path id="_122" data-name="122" class="cls-10" d="M7.63,5.45a0,0,0,0,1,0,0s0,0,0,0,0,0,0,0A0,0,0,0,1,7.63,5.45Z"/><path id="_121" data-name="121" class="cls-8" d="M7.74,5.47a0,0,0,0,1,0,0s0,0,0,0a0,0,0,0,1,0,0s0,0,0,0"/><path id="_120" data-name="120" class="cls-10" d="M7.74,5.47a0,0,0,0,1,0,0s0,0,0,0a0,0,0,0,1,0,0S7.74,5.49,7.74,5.47Z"/><path id="_119" data-name="119" class="cls-8" d="M7.84,5.5a0,0,0,0,1,0,0,0,0,0,0,1,0,0s0,0,0,0a0,0,0,0,1,0,0"/><path id="_118" data-name="118" class="cls-10" d="M7.84,5.5a0,0,0,0,1,0,0,0,0,0,0,1,0,0s0,0,0,0A0,0,0,0,1,7.84,5.5Z"/><path id="_117" data-name="117" class="cls-52" d="M7,7.63h0v0H6.87v.12h.06V7.8H6.81V8h.06v.47H6.76v.24h.9V8.51H7.55V8h.06V7.8H7.49V7.72h.06V7.6H7.49v0h0v0h0v0h0v0H7.32v.12h.06V7.8H7.27V7.54h.05V7.42H7.27v0h0v0H7.18v0h0v0H7.1v.12h.05V7.8H7V7.72H7.1V7.6H7v0H7v0H7v0ZM6.76,8.75h.9m-.9-.06h.9m-.9-.06h.9m-.9-.05h.9m-.9-.07h.9m-.79,0h.68M6.87,8.4h.68m-.68-.07h.68m-.68-.06h.68m-.68-.06h.68m-.68-.06h.68M6.87,8.1h.68M6.81,8h.8M6.81,8h.8m-.8-.06h.8m-.8-.06h.8M6.93,7.8h.56m-.34-.06h.12m-.12-.06h.12m-.12-.06h.12m-.12-.06h.12M7.1,7.49h.22m-.39.25H7m-.17-.07H7.1M6.87,8.75V8.69m0-.06V8.58m-.06.05v.06m.12,0V8.63M7,8.75V8.69m0-.06V8.58m0-.07v0M7,8.4V8.33m-.05.25V8.51m-.12.07V8.51m.23,0v.07m.06-.07v0M6.93,8.4v.06M7,8.4v.06m.11-.06v.06M7.1,8.4V8.33m.05-.06v.06m0-.18v.06M7.1,8.1v.05M7.15,8V8.1M7,8V8.1M6.93,8V8.1M6.87,8V8M7,8V8M7.1,8V8m.05-.12V8M7,7.92V8m-.11-.06V8m-.06-.12v.06m.23-.06v.06M7,7.74V7.8m.51-.06H7.38m.17-.07H7.32m.23,1.08V8.69m0-.06V8.58m.06.05v.06m-.12,0V8.63m0,.12V8.69m0-.06V8.58m0-.07v0m0-.06V8.33m0,.25V8.51m.12.07V8.51m-.23,0v.07m-.06-.07v0m.17-.06v.06M7.38,8.4v.06M7.27,8.4v.06m.05-.06V8.33m-.05-.06v.06m0-.18v.06m.05-.11v.05M7.27,8V8.1M7.38,8V8.1M7.49,8V8.1M7.55,8V8M7.44,8V8M7.32,8V8m-.05-.12V8m.11-.06V8m.11-.06V8m.06-.12v.06m-.23-.06v.06m.12-.18V7.8m-.23.6V8.33m0-.18V8.1m0,.17V8.21m0-.17V8m0-.06V7.86m0-.12V7.68m0-.06V7.56m-.28.16H7m.11-.18h.12m.11.18h.11"/><path id="_116" data-name="116" class="cls-52" d="M7.36,8.75V8.6s0-.12-.15-.12-.15.09-.15.12v.15Z"/><path id="_115" data-name="115" class="cls-52" d="M7.11,8.61H7s0-.08,0-.09l.06.05S7.11,8.59,7.11,8.61Z"/><path id="_114" data-name="114" class="cls-52" d="M7.31,8.61h.07s0-.08,0-.09l-.06.05A.08.08,0,0,1,7.31,8.61Z"/><path id="_113" data-name="113" class="cls-52" d="M7.24,8.53l0-.07H7.15l0,.07Z"/><path id="_112" data-name="112" class="cls-52" d="M7.1,8.35V8.18A.08.08,0,0,0,7,8.1a.08.08,0,0,0-.08.08v.17Z"/><path id="_111" data-name="111" class="cls-52" d="M7.32,8.35V8.18a.08.08,0,0,1,.09-.08.08.08,0,0,1,.08.08v.17Z"/><path id="_110" data-name="110" class="cls-52" d="M7.27,8V7.8H7.14V8Z"/><path id="_109" data-name="109" class="cls-52" d="M7.38,8l0-.15h.15l0,.15Z"/><path id="_108" data-name="108" class="cls-52" d="M7,8V7.8H6.91l0,.15Z"/><path id="_107" data-name="107" class="cls-53" d="M7.31,8.75V8.62a.09.09,0,0,0-.1-.09.1.1,0,0,0-.1.09v.13Z"/><path id="_106" data-name="106" class="cls-53" d="M7.08,8.33V8.19A.06.06,0,0,0,7,8.12S7,8.15,7,8.19v.14Z"/><path id="_105" data-name="105" class="cls-53" d="M7.34,8.33V8.19a.06.06,0,0,1,.07-.07s.06,0,.06.07v.14Z"/><path id="_104" data-name="104" class="cls-3" d="M7.49,9A.56.56,0,0,1,8,8.41.59.59,0,0,1,8,9.58.56.56,0,0,1,7.49,9"/><path id="_103" data-name="103" class="cls-54" d="M7.49,9A.56.56,0,0,1,8,8.41.59.59,0,0,1,8,9.58.56.56,0,0,1,7.49,9Z"/><path id="_102" data-name="102" class="cls-12" d="M7.65,9A.37.37,0,1,1,8,9.42.4.4,0,0,1,7.65,9"/><path id="_101" data-name="101" class="cls-54" d="M7.65,9A.37.37,0,1,1,8,9.42.4.4,0,0,1,7.65,9Z"/><path id="_100" data-name="100" class="cls-5" d="M7.84,8.7a.14.14,0,0,0,0,.09.21.21,0,0,0,0,.08.05.05,0,0,0-.05,0,0,0,0,0,0,0,0v0l0,0s0,0,0,0a0,0,0,0,1,0,0h0V9h0l0,.05,0,0,0,0,0,0,0,0,0-.05h0V9h0a0,0,0,0,1,0,0l0,0v0a0,0,0,0,0,0,0,0,0,0,0,0,0,0s0,0,0,0a.21.21,0,0,0,0-.08.14.14,0,0,0,0-.09"/><path id="_99" data-name="99" class="cls-55" d="M7.84,8.7a.14.14,0,0,0,0,.09.21.21,0,0,0,0,.08.05.05,0,0,0-.05,0,0,0,0,0,0,0,0v0l0,0s0,0,0,0a0,0,0,0,1,0,0h0V9h0l0,.05,0,0,0,0,0,0,0,0,0-.05h0V9h0a0,0,0,0,1,0,0l0,0v0a0,0,0,0,0,0,0,0,0,0,0,0,0,0s0,0,0,0a.21.21,0,0,0,0-.08.14.14,0,0,0,0-.09Z"/><path id="_98" data-name="98" class="cls-5" d="M7.77,9h.14V9H7.77Z"/><path id="_97" data-name="97" class="cls-56" d="M7.77,9h.14V9H7.77Z"/><path id="_96" data-name="96" class="cls-5" d="M8.18,8.7a.14.14,0,0,0,0,.09.21.21,0,0,0,0,.08.05.05,0,0,0-.05,0,0,0,0,0,0,0,0v0l0,0s0,0,0,0a0,0,0,0,1,0,0h0V9h0l0,.05,0,0,0,0,0,0,0,0,0-.05h0V9h0a0,0,0,0,1,0,0l0,0v0a0,0,0,0,0,0,0,0,0,0,0,0-.05,0s0,0,0,0a.21.21,0,0,0,0-.08.14.14,0,0,0-.05-.09"/><path id="_95" data-name="95" class="cls-55" d="M8.18,8.7a.14.14,0,0,0,0,.09.21.21,0,0,0,0,.08.05.05,0,0,0-.05,0,0,0,0,0,0,0,0v0l0,0s0,0,0,0a0,0,0,0,1,0,0h0V9h0l0,.05,0,0,0,0,0,0,0,0,0-.05h0V9h0a0,0,0,0,1,0,0l0,0v0a0,0,0,0,0,0,0,0,0,0,0,0-.05,0s0,0,0,0a.21.21,0,0,0,0-.08.14.14,0,0,0-.05-.09Z"/><path id="_94" data-name="94" class="cls-5" d="M8.11,9h.14V9H8.11Z"/><path id="_93" data-name="93" class="cls-56" d="M8.11,9h.14V9H8.11Z"/><path id="_92" data-name="92" class="cls-5" d="M8,9a.19.19,0,0,0,0,.09.21.21,0,0,0,0,.08.05.05,0,0,0,0,0,0,0,0,0,0-.05,0v0l0,0s0,0,0,0,0,0,0,0h0v0H8l0,.05H8l0,0,0,0h0l0-.05h0v0H8a0,0,0,0,1,0,0l0,0V9.18a0,0,0,0,0-.05,0s0,0,0,0a.21.21,0,0,0,0-.08S8,9,8,9"/><path id="_91" data-name="91" class="cls-55" d="M8,9a.19.19,0,0,0,0,.09.21.21,0,0,0,0,.08.05.05,0,0,0,0,0,0,0,0,0,0-.05,0v0l0,0s0,0,0,0,0,0,0,0h0v0H8l0,.05H8l0,0,0,0h0l0-.05h0v0H8a0,0,0,0,1,0,0l0,0V9.18a0,0,0,0,0-.05,0s0,0,0,0a.21.21,0,0,0,0-.08S8,9,8,9Z"/><path id="_90" data-name="90" class="cls-5" d="M7.94,9.29h.14v0H7.94Z"/><path id="_89" data-name="89" class="cls-56" d="M7.94,9.29h.14v0H7.94Z"/><path id="_88" data-name="88" class="cls-5" d="M9.05,7.45H9a0,0,0,0,1,0,0h0s0,0,0,0h0v0a.1.1,0,0,1,0,0l.1,0,.07.08,0,0h0v0h0v0h0s0,0,0,0h0"/><path id="_87" data-name="87" class="cls-6" d="M9.05,7.45H9a0,0,0,0,1,0,0h0s0,0,0,0h0v0a.1.1,0,0,1,0,0l.1,0,.07.08,0,0h0v0h0v0h0s0,0,0,0h0Z"/><path id="_86" data-name="86" d="M9,7.47H9"/><path id="_85" data-name="85" class="cls-17" d="M9,7.47H9Z"/><path id="_84" data-name="84" d="M9,7.49H9"/><path id="_83" data-name="83" class="cls-17" d="M9,7.49H9"/><path id="_82" data-name="82" d="M9,7.46H9"/><path id="_81" data-name="81" class="cls-17" d="M9,7.46H9"/><path id="_80" data-name="80" d="M8.92,7.43h0"/><path id="_79" data-name="79" class="cls-17" d="M8.92,7.43h0Z"/><path id="_78" data-name="78" d="M9,7.52H9"/><path id="_77" data-name="77" class="cls-17" d="M9,7.52H9Z"/><path id="_76" data-name="76" d="M9.06,7.54h0"/><path id="_75" data-name="75" class="cls-17" d="M9.06,7.54h0"/><path id="_74" data-name="74" d="M9.09,7.56h0"/><path id="_73" data-name="73" class="cls-17" d="M9.09,7.56Z"/><path id="_72" data-name="72" class="cls-5" d="M9,7.37H9v0H9v0"/><path id="_71" data-name="71" class="cls-6" d="M9,7.37H9v0H9v0"/><path id="_70" data-name="70" class="cls-5" d="M9,7.39H9l0,0H9"/><path id="_69" data-name="69" class="cls-6" d="M9,7.39H9l0,0H9"/><path id="_68" data-name="68" class="cls-5" d="M9,7.42H9l0,0H9v0"/><path id="_67" data-name="67" class="cls-6" d="M9,7.42H9l0,0H9v0"/><path id="_66" data-name="66" class="cls-5" d="M9,7.4s0,0,0,0H9s0,0,0,0"/><path id="_65" data-name="65" class="cls-6" d="M9,7.4s0,0,0,0H9S9,7.4,9,7.4Z"/><path id="_64" data-name="64" class="cls-5" d="M8.91,7.37a0,0,0,0,1,0,0v0h0s0,0,0,0h0"/><path id="_63" data-name="63" class="cls-6" d="M8.91,7.37a0,0,0,0,1,0,0v0h0s0,0,0,0Z"/><path id="_62" data-name="62" class="cls-5" d="M8.94,7.38h0l0,0h0v0"/><path id="_61" data-name="61" class="cls-6" d="M8.94,7.38h0l0,0h0v0"/><path id="_60" data-name="60" class="cls-5" d="M8.9,7.37h0"/><path id="_59" data-name="59" class="cls-6" d="M8.9,7.37h0Z"/><path id="_58" data-name="58" class="cls-5" d="M9.08,7.42h0v0h0l0,0h0"/><path id="_57" data-name="57" class="cls-6" d="M9.08,7.42h0v0h0l0,0h0"/><path id="_56" data-name="56" class="cls-5" d="M9,7.42v0h0l0,0H9"/><path id="_55" data-name="55" class="cls-6" d="M9,7.42v0h0l0,0H9"/><path id="_54" data-name="54" class="cls-5" d="M9.08,7.47h0v0h0v0"/><path id="_53" data-name="53" class="cls-6" d="M9.08,7.47h0v0h0v0"/><path id="_52" data-name="52" class="cls-5" d="M9,7.44H9"/><path id="_51" data-name="51" class="cls-6" d="M9,7.44H9Z"/><path id="_50" data-name="50" class="cls-5" d="M9.14,7.48h0v0h0"/><path id="_49" data-name="49" class="cls-6" d="M9.14,7.48h0v0h0"/><path id="_48" data-name="48" class="cls-5" d="M9.14,7.53h0v0h0v0"/><path id="_47" data-name="47" class="cls-6" d="M9.14,7.53h0v0h0v0"/><path id="_46" data-name="46" class="cls-5" d="M9.09,7.48h0v0h0"/><path id="_45" data-name="45" class="cls-6" d="M9.09,7.48h0v0h0"/><path id="_44" data-name="44" class="cls-5" d="M9.12,7.51h0"/><path id="_43" data-name="43" class="cls-6" d="M9.12,7.51h0Z"/><path id="_42" data-name="42" class="cls-5" d="M9.16,7.57h0s0,0,0,0,0,0,0,0h0"/><path id="_41" data-name="41" class="cls-6" d="M9.16,7.57h0s0,0,0,0,0,0,0,0Z"/><path id="_40" data-name="40" class="cls-5" d="M9.14,7.54h0l0,0h0v0h0"/><path id="_39" data-name="39" class="cls-6" d="M9.14,7.54h0l0,0h0v0h0"/><path id="_38" data-name="38" class="cls-5" d="M9.16,7.57a0,0,0,0,0,0,0h0a0,0,0,0,0,0,0h0"/><path id="_37" data-name="37" class="cls-6" d="M9.16,7.57a0,0,0,0,0,0,0h0a0,0,0,0,0,0,0Z"/><path id="_36" data-name="36" class="cls-7" d="M10.44,6.84v0h-.08v0h0v0h0v0h0v0h0v0h0"/><path id="_35" data-name="35" class="cls-57" d="M5.61,7.24v0"/><path id="_34" data-name="34" class="cls-58" d="M5.6,7.24v0"/><path id="_33" data-name="33" class="cls-59" d="M5.59,7.24v0"/><path id="_32" data-name="32" class="cls-59" d="M5.58,7.24v0"/><path id="_31" data-name="31" class="cls-17" d="M5.57,7.24v0"/><path id="_31-2" data-name="31" class="cls-60" d="M5.56,7.23v0m0,0v0"/><path id="_30" data-name="30" class="cls-61" d="M5.54,7.23v0m0,0v0"/><path id="_29" data-name="29" class="cls-62" d="M5.52,7.23v0m0,0v0m0,0v0"/><path id="_28" data-name="28" class="cls-20" d="M5.51,7.23v0"/><path id="_27" data-name="27" class="cls-63" d="M5.5,7.23v0"/><path id="_26" data-name="26" class="cls-64" d="M5.5,7.23v0"/><path id="_25" data-name="25" class="cls-65" d="M5.48,7.23v0m0,0v0"/><path id="_24" data-name="24" class="cls-65" d="M5.47,7.22h0"/><path id="_23" data-name="23" class="cls-66" d="M5.46,7.22h0"/><path id="_22" data-name="22" class="cls-21" d="M5.46,7.22h0"/><path id="_21" data-name="21" class="cls-67" d="M5.45,7.22h0"/><path id="_20" data-name="20" class="cls-22" d="M5.44,7.22h0"/><path id="_19" data-name="19" class="cls-68" d="M5.66,7.23v0m0,0v0m0,0v0"/><path id="_18" data-name="18" class="cls-57" d="M10.39,7.24v0"/><path id="_17" data-name="17" class="cls-58" d="M10.38,7.24v0"/><path id="_16" data-name="16" class="cls-59" d="M10.37,7.24v0"/><path id="_15" data-name="15" class="cls-59" d="M10.36,7.24v0"/><path id="_14" data-name="14" class="cls-17" d="M10.35,7.24v0"/><path id="_13" data-name="13" class="cls-60" d="M10.33,7.24v0m0,0v0"/><path id="_12" data-name="12" class="cls-61" d="M10.32,7.23v0m0,0v0"/><path id="_11" data-name="11" class="cls-62" d="M10.3,7.23v0m0,0v0m0,0v0"/><path id="_10" data-name="10" class="cls-20" d="M10.29,7.23v0"/><path id="_9" data-name="9" class="cls-63" d="M10.28,7.23v0"/><path id="_8" data-name="8" class="cls-64" d="M10.27,7.23v0"/><path id="_7" data-name="7" class="cls-65" d="M10.26,7.23v0m0,0v0"/><path id="_6" data-name="6" class="cls-65" d="M10.25,7.23v0"/><path id="_5" data-name="5" class="cls-66" d="M10.24,7.22h0"/><path id="_4" data-name="4" class="cls-21" d="M10.24,7.22h0"/><path id="_3" data-name="3" class="cls-67" d="M10.23,7.22h0"/><path id="_2" data-name="2" class="cls-22" d="M10.22,7.22h0"/><path id="_1" data-name="1" class="cls-68" d="M10.44,7.24v0m0,0v0m0,0v0"/></svg>