<svg xmlns="http://www.w3.org/2000/svg" viewBox="0 0 512 512">
  <path d="M0 0h512v512H0z"/>
  <path fill="#d80027" d="M0 0h512v256H0z"/>
  <g fill="#ffda44">
    <path d="M232.6 221l14.5 10.6-5.5 17L256 238l14.5 10.5-5.6-17 14.5-10.6h-17.9l-5.5-17-5.5 17z"/>
    <path d="M298.7 182.1a84.8 84.8 0 00-42.7-11.4V193a63.1 63.1 0 11-52.6 97.8L184.8 303a85.4 85.4 0 10113.9-121z"/>
    <path d="M206.8 241.2a22.3 22.3 0 008.8 30.2l72.3 39.5c-4.9 9-2.3 20 6.7 24.8l19.6 10.7c9 5 20.2 1.6 25.1-7.4l10.7-19.5-143.2-78.3z"/>
  </g>
</svg>
