<svg xmlns="http://www.w3.org/2000/svg" viewBox="0 0 300 300">
  <defs>
    <style>
      .cls-1{fill:#00247d}.cls-2{fill:#cf142b}.cls-3{fill:#fff}
    </style>
  </defs>
    <path class="cls-1" d="M0 0h300v300H0z"/>
    <path class="cls-1" d="M49.5 94.5l84 55.5-79.8-52.8z"/>
    <path class="cls-1" d="M195.9 162.8l-7.6-7-7.5 7 .7-10.3-10.2-1.5 8.5-5.8-5-8.9 9.8 3 3.9-9.6 3.8 9.6 9.9-3-5 9 8.4 5.7-10.1 1.5zm55.5 83l.7 10.3-7.6-7-7.5 6.9.7-10.3-10.2-1.5 8.5-5.8-5-9 9.9 3 3.8-9.5 3.8 9.6 10-3-5.1 9 8.5 5.7zm27.6-92l-7.4 5.3 2.8 8.7-7.4-5.4-7.4 5.3 2.9-8.6-7.5-5.4h9.3l2.8-8.6 3 8.6zm-12.8-90.5l-5 9 8.4 5.7-10.3 1.6.7 10.4-7.6-7-7.5 7 .7-10.3-10.2-1.5 8.6-5.8-5-9 9.8 3 3.9-9.5 3.8 9.6z"/>
    <path class="cls-2" d="M49.5 94.5l4.2 2.8 79.8 52.7h5.4v-6.2L64 94.5z"/>
    <path class="cls-3" d="M138.9 94.5v-7.8H37V150h7.7v-47.7l72.2 47.7h16.6l-84-55.5H64l74.9 49.3v-8.2l-62.4-41z"/>
    <path class="cls-3" d="M71.8 239.4l-19.3-13.2L64 206l-22.3 6.9L33 191l-8.4 21.7-12.6-3.9c1.7 24 15.2 41.7 38 52.8L48.8 243z"/>
    <path class="cls-3" d="M196.8 145l5.3-8.9-10 3-3.8-9.6-3.7 9.6-9.9-3 5.1 9-8.4 5.9 10.2 1.5-.8 10.3 7.5-7 7.6 7-.7-10.3 10.2-1.5z"/>
    <path class="cls-3" d="M258.2 229.4l-9.8 3-3.8-9.6-3.8 9.6-9.8-3 5.1 9-8.5 5.8 10.2 1.5-.7 10.3 7.5-7 7.6 7-.8-10.3 10.3-1.5-8.5-5.9z"/>
    <path class="cls-3" d="M281 107.4l5 9-8.4 5.7 10.1 1.5-.6 10.3 7.5-7 4 3.7c1.8-8.9-.4-17.5-5.6-25.8l-2.2 5.7z"/>
    <path class="cls-3" d="M248.8 66.3l-10-3 5.3 9-8.5 5.9 10.1 1.5-.6 10.3 7.5-7 7.6 7-.9-10.3 10.4-1.5-8.6-6 5.1-8.9-9.9 3-3.7-9.4z"/>
    <path class="cls-3" d="M264.1 153.7H255l7.4 5.4-2.7 8.8 7.3-5.4 7.4 5.4-2.9-8.8 7.5-5.4h-9.2l-2.8-8.6z"/>
    <path class="cls-2" d="M37 63.3V0H13.6v150H37V86.7h101.7V63.3H37z"/>
    <path class="cls-2" d="M128.8 0l-84 55.6h14.5l79.4-52.4V0h-10z"/>
    <path class="cls-3" d="M76.5 55.6l62.2-41.2V3.2L59.3 55.6H44.8l84-55.6h-12L44.5 47.7V0H37v63.3h101.9v-7.7H76.5z"/>
    <path class="cls-3" d="M5.9 0h7.7v150H5.9z"/>
</svg>
