<svg xmlns="http://www.w3.org/2000/svg" viewBox="0 0 512 512">
  <path fill="#d80027" d="M0 0h512v512H0z"/>
  <path fill="#338af3" d="M0 0h512v170.7H0z"/>
  <path fill="#6da544" d="M0 341.3h512V512H0z"/>
  <g fill="#f0f0f0">
    <path d="M261.3 325.3a69.3 69.3 0 1133-130.3 85.3 85.3 0 100 122 69 69 0 01-33 8.3z"/>
    <path d="M314.7 208l9.2 25.8 24.7-11.7-11.8 24.7 25.9 9.2-25.9 9.2 11.8 24.7-24.8-11.7-9.1 25.8-9.2-25.8-24.8 11.7 11.8-24.7-25.8-9.2 25.8-9.2-11.8-24.7 24.8 11.7z"/>
  </g>
</svg>
