<svg xmlns="http://www.w3.org/2000/svg" viewBox="0 0 512 512">
  <path d="M22 0H0v14l4 13h28L10 44l8 26L0 57v455h450l-21-16h27l9-26 8 26h28l-22 16h33v-22L22 0zm-1 117l8-26L7 74h27l9-26 8 26h28L57 91l8 26-22-16-22 16zm46 47l9-27-22-16h27l9-26 8 26h28l-22 16 8 27-22-17-23 17zm47 47l9-27-22-16h27l9-26 8 26h28l-23 16 9 26-22-16-23 17zm47 46l9-26-23-16h28l9-26 8 26h28l-23 16 9 26-22-16-23 16zm47 47l9-26-23-16h28l8-26 9 26h27l-22 16 9 26-23-16-22 16zm47 47l9-26-23-16h28l8-26 9 26h27l-22 16 9 26-23-16-22 16zm47 47l8-26-22-16h28l8-27 9 27h27l-22 16 8 26-22-16-22 16zm47 47l8-26-22-16h28l8-27 9 27h27l-22 16 8 26-22-16-22 16zm91 47l-22-16-22 16 8-26-22-17h27l9-26 8 26h28l-22 17 8 26z" fill="#0052b4"/>
  <path fill="#ffda44" d="M512 0H22l490 490z"/>
  <g fill="#f0f0f0">
    <path d="M10 44l22-17H4L0 14v43l18 13z"/>
    <path d="M57 91l22-17H51l-8-26-9 26H7l22 17-8 26 22-16 22 16z"/>
    <path d="M104 137l22-16H98l-8-26-9 26H54l22 16-9 27 23-17 22 17z"/>
    <path d="M150 184l23-16h-28l-8-26-9 26h-27l22 16-9 27 23-17 22 16z"/>
    <path d="M197 231l23-16h-28l-8-26-9 26h-28l23 16-9 26 23-16 22 16z"/>
    <path d="M244 278l22-16h-27l-9-26-8 26h-28l23 16-9 26 22-16 23 16z"/>
    <path d="M291 325l22-16h-27l-9-26-8 26h-28l23 16-9 26 22-16 23 16z"/>
    <path d="M338 372l22-16h-27l-9-27-8 27h-28l22 16-8 26 22-16 22 16z"/>
    <path d="M385 419l22-16h-27l-9-27-8 27h-28l22 16-8 26 22-16 22 16z"/>
    <path d="M426 449l-8-26-9 26h-27l22 17-8 26 22-16 22 16-8-26 22-17z"/>
    <path d="M473 496l-8-26-9 26h-27l21 16h29l22-16z"/>
  </g>
</svg>
