<svg xmlns="http://www.w3.org/2000/svg" viewBox="0 0 512 512">
  <path fill="#d80027" d="M0 0h512v512H0z"/>
  <g fill="#6da544">
    <path d="M215.9 256L0 472V40z"/>
    <path d="M512 40.1V472L296.1 256z"/>
  </g>
  <path fill="#0052b4" d="M512 40.1l-215.9 216L512 471.8V512h-40.1L256 296.1 40.1 512H0v-40.1L215.9 256 0 40.1V0h40.1L256 215.9 471.9 0H512z"/>
  <g fill="#f0f0f0">
    <path d="M512 40.1l-215.9 216L512 471.8V512h-40.1L256 296.1 40.1 512H0v-40.1L215.9 256 0 40.1V0h40.1L256 215.9 471.9 0H512z"/>
    <circle cx="256" cy="256" r="74.2"/>
  </g>
  <g fill="#d80027">
    <path d="M256 204l6.4 11.2h12.9l-6.4 11.1 6.4 11.1h-12.9l-6.4 11.2-6.4-11.2h-12.9l6.5-11-6.5-11.2h12.9z"/>
    <path d="M223.3 256l6.5 11.1h12.8l-6.4 11.2 6.4 11h-12.8l-6.5 11.2-6.4-11.1h-12.8l6.4-11.1L204 267h12.8z"/>
    <path d="M288.7 256l6.4 11.1h12.8l-6.4 11.2 6.4 11h-12.8l-6.4 11.2-6.5-11.1h-12.8l6.4-11.1-6.4-11.2h12.8z"/>
  </g>
</svg>
