<svg xmlns="http://www.w3.org/2000/svg" viewBox="0 0 512 512">
  <path fill="#ffda44" d="M0 0h512v512H0z"/>
  <path d="M0 170.6l512 310.8v-70L273.2 269.8 0 100.6z"/>
  <path fill="#f0f0f0" d="M512 411.4v-70L0 30.6v70"/>
  <g fill="#d80027">
    <path d="M304.2 237.5a48.2 48.2 0 11-90.6-23 59.4 59.4 0 1084.9 0 48 48 0 015.7 23z"/>
    <path d="M244.9 181.8h22.3v111.3h-22.3z"/>
    <path d="M293.1 204h-74.2c0 5.2 4.5 9.3 9.6 9.3h-.3c0 5.2 4.1 9.3 9.3 9.3 0 5.1 4.1 9.3 9.2 9.3h18.6c5.1 0 9.2-4.2 9.2-9.3 5.2 0 9.3-4.1 9.3-9.3h-.3c5.1 0 9.6-4.1 9.6-9.2z"/>
    <path d="M204.1 300.5H308v22.3H204.1z"/>
    <path d="M278.3 307.9h44.5v22.3h-44.5z"/>
    <path d="M189.2 307.9h44.5v22.3h-44.5z"/>
  </g>
</svg>
