<svg id="flags" xmlns="http://www.w3.org/2000/svg" xmlns:xlink="http://www.w3.org/1999/xlink" viewBox="0 0 300 300"><defs><style>.cls-1{fill:none;}.cls-2{fill:#009b3a;}.cls-3{fill:#fedf00;}.cls-4{fill:#002776;}.cls-5{clip-path:url(#clip-path);}.cls-6{fill:#fff;}</style><clipPath id="clip-path"><circle id="SVGID" class="cls-1" cx="150" cy="150" r="75"/></clipPath></defs><g id="brazil"><rect id="_48" data-name="48" class="cls-2" width="300" height="300"/><polygon class="cls-3" points="0 132.21 0 167.79 150 263.57 300 167.79 300 132.21 150 36.43 0 132.21"/><circle id="_46" data-name="46" class="cls-4" cx="150" cy="150" r="75"/><g id="_45" data-name="45"><g class="cls-5"><path class="cls-6" d="M81.41,119.68a74.86,74.86,0,0,0-4,11.47,172.52,172.52,0,0,1,29.75-2.58A170.79,170.79,0,0,1,221.6,172.39a74.39,74.39,0,0,0,2.65-11.88,181.39,181.39,0,0,0-117.11-42.65A183.35,183.35,0,0,0,81.41,119.68Z"/></g></g><path id="_44" data-name="44" class="cls-2" d="M110,126.78l6.42.22,0-1.32-5.2-.18.06-1.84,4.08.14,0-1.22-4.08-.14.05-1.43,4.9.17,0-1.33-6.12-.21Z"/><path id="_43" data-name="43" class="cls-2" d="M119,127.16l1.22.11.42-4.88,1,5,1.12.09,1.85-4.75-.43,4.88,1.22.11.62-7.12-1.77-.16-1.85,4.76-1-5-1.78-.15Z"/><path id="_42" data-name="42" class="cls-2" d="M133.84,128.83l5.28.91.2-1.21-4.07-.7.28-1.6,3.32.57.2-1.21-3.31-.57.19-1.11,3.94.68.21-1.21-5.15-.88Z"/><rect id="_41" data-name="41" class="cls-2" x="178.63" y="137.74" width="1.02" height="2.7" transform="translate(-19.83 247.93) rotate(-66.51)"/><rect id="_40" data-name="40" class="cls-2" x="177.62" y="140.08" width="3.57" height="1.02" transform="translate(-21.06 249.06) rotate(-66.5)"/><path id="_39" data-name="39" class="cls-2" d="M200.06,151.16c-.38.6,0,1.27.87,1.82s1.44.53,1.69.14c.78-1.23-3.73-3-2.34-5.15,1.2-1.84,3.25-.41,4,.08s2,1.77,1.05,3.24l-1.31-.83c.41-.65,0-1.27-.73-1.71s-1.21-.62-1.61,0c-.67,1,3.76,2.88,2.4,5-1,1.57-2.74.88-3.9.14-1-.63-2.47-2.11-1.5-3.62Z"/><path id="_38" data-name="38" class="cls-2" d="M189.64,147.66l5.6,3.16.65-1.15-4.53-2.56.9-1.6,3.56,2,.6-1.07-3.55-2,.7-1.24,4.26,2.41.66-1.15-5.33-3Z"/><path id="_37" data-name="37" class="cls-2" d="M207.72,156.22c-.41.58-.06,1.28.77,1.87s1.42.6,1.69.23c.84-1.19-3.57-3.21-2.07-5.27,1.29-1.77,3.27-.24,4,.3s1.92,1.87.88,3.29l-1.27-.91c.44-.62,0-1.26-.64-1.74s-1.17-.68-1.6-.08c-.72,1,3.6,3.08,2.13,5.13-1.08,1.52-2.78.74-3.9-.06-1-.68-2.36-2.24-1.31-3.69Z"/><path id="_36" data-name="36" class="cls-2" d="M88.79,124.14A3.23,3.23,0,1,0,86,128.08,3.4,3.4,0,0,0,88.79,124.14Zm-3.19-1.78c2.43,0,2.43,4.35,0,4.35S83.17,122.36,85.6,122.36Z"/><path id="_35" data-name="35" class="cls-2" d="M220.4,163.3a3.23,3.23,0,1,0-4.5,1.69A3.42,3.42,0,0,0,220.4,163.3ZM218.77,160c2,1.37-.45,5-2.46,3.59S216.77,158.66,218.77,160Z"/><path id="_34" data-name="34" class="cls-2" d="M106.73,121a3.16,3.16,0,0,0-2.38-1.33l-3.57.06.13,7.14s2.83,0,3.58-.07a3.31,3.31,0,0,0,2.22-1.27,3.45,3.45,0,0,0,.56-2.21A3.69,3.69,0,0,0,106.73,121Zm-2.92,4.51h-1.6l-.08-4.49,2.1,0a1.9,1.9,0,0,1,1.73,1.32,8.76,8.76,0,0,1,.1,1.29,2.06,2.06,0,0,1-.67,1.39A2.34,2.34,0,0,1,103.81,125.51Z"/><path id="_33" data-name="33" class="cls-2" d="M97,124.09a3.1,3.1,0,0,0,.94-1.53A2.23,2.23,0,0,0,95.83,120c-.73,0-4.37.28-4.37.28l.39,7.13,1.33-.09L93,124.69l2.3-.16.55,0a6.25,6.25,0,0,1,.78,1.89,6,6,0,0,1,0,.78H98a5.57,5.57,0,0,0-.33-2A4.17,4.17,0,0,0,97,124.09Zm-.8-1.11a2.34,2.34,0,0,1-1.06.24l-2.21.15s-.09-1.25-.13-1.83c.34,0,2.09-.15,2.12-.15.36,0,.76,0,.76,0a1,1,0,0,1,.57.27.72.72,0,0,1,.29.61A1,1,0,0,1,96.17,123Z"/><path id="_32" data-name="32" class="cls-2" d="M172.41,135a3.23,3.23,0,1,0-3.67,3.1A3.4,3.4,0,0,0,172.41,135Zm-2.62-2.54c2.34.63,1.23,4.83-1.12,4.21S167.44,131.79,169.79,132.41Z"/><path id="_31" data-name="31" class="cls-2" d="M162.15,132.18a3.12,3.12,0,0,0,1.39-1.14,2.24,2.24,0,0,0-1.13-3.08c-.71-.21-4.23-1.16-4.23-1.16l-2,6.87,1.28.34.69-2.56,2.23.6.53.14a6.23,6.23,0,0,1,.12,2,5.89,5.89,0,0,1-.22.75l1.22.42a5.41,5.41,0,0,0,.35-2A4.14,4.14,0,0,0,162.15,132.18Zm-.4-1.31a2.3,2.3,0,0,1-1.08-.12l-2.13-.58s.32-1.21.48-1.77c.31.11,2,.54,2,.55.34.11.73.2.73.2a1.06,1.06,0,0,1,.46.44.73.73,0,0,1,.07.67A1,1,0,0,1,161.75,130.87Z"/><path id="_30" data-name="30" class="cls-2" d="M188.09,142.69a3.13,3.13,0,0,0,1.49-1,2.24,2.24,0,0,0-.87-3.16c-.69-.27-4.12-1.52-4.12-1.52l-2.53,6.68,1.25.45.9-2.49,2.17.78.52.19a6.14,6.14,0,0,1-.05,2,6.65,6.65,0,0,1-.28.73l1.17.52a5.33,5.33,0,0,0,.52-2A3.81,3.81,0,0,0,188.09,142.69Zm-.28-1.34a2.34,2.34,0,0,1-1.07-.2l-2.07-.77.62-1.72c.31.13,2,.71,2,.72.33.14.71.27.71.27a1,1,0,0,1,.42.47.74.74,0,0,1,0,.68A1,1,0,0,1,187.81,141.35Z"/><path id="_29" data-name="29" class="cls-2" d="M153.36,129.8a3.12,3.12,0,0,0,1.36-1.18,2.24,2.24,0,0,0-1.2-3.05c-.71-.2-4.26-1.06-4.26-1.06l-1.79,6.91,1.29.32.63-2.58,2.24.55.54.13m.77-1.34a2.4,2.4,0,0,1-1.09-.1l-2.15-.53.44-1.78c.32.1,2,.5,2.07.5.34.1.73.19.73.19a1.05,1.05,0,0,1,.47.42.8.8,0,0,1,.09.68A1.05,1.05,0,0,1,152.94,128.5Z"/><path id="_28" data-name="28" class="cls-2" d="M179.93,138.82a5.44,5.44,0,0,0-.57-.19c-.56,1.05-1.79,1.8-2.89,1-2-1.37.45-5,2.45-3.59a1.62,1.62,0,0,1,.74,1.28c.3.13.63.19.93.33l.39.18a3.22,3.22,0,0,0-1.64-3.16,3.59,3.59,0,1,0,1.21,4.65,2,2,0,0,0,.1-.21Z"/><polygon id="_27" data-name="27" class="cls-6" points="176.08 125.76 174.49 126.91 175.1 128.78 173.51 127.63 171.92 128.78 172.53 126.91 170.94 125.76 172.9 125.76 173.51 123.89 174.12 125.76 176.08 125.76"/><polygon id="_26" data-name="26" class="cls-6" points="85.72 135.54 87.61 136.91 86.89 139.13 88.78 137.76 90.67 139.13 89.94 136.91 91.83 135.54 89.5 135.54 88.78 133.32 88.05 135.54 85.72 135.54"/><polygon id="_25" data-name="25" class="cls-6" points="168.42 145.56 169.73 146.51 169.23 148.05 170.54 147.1 171.84 148.05 171.34 146.51 172.65 145.56 171.04 145.56 170.54 144.02 170.04 145.56 168.42 145.56"/><polygon id="_24" data-name="24" class="cls-6" points="101.41 163.16 102.21 163.72 101.9 164.67 102.69 164.09 103.49 164.67 103.19 163.74 103.98 163.16 103 163.16 102.69 162.22 102.39 163.16 101.41 163.16"/><polyline id="_23" data-name="23" class="cls-6" points="95.4 164.85 94.69 167.07 92.35 167.07 94.24 168.44 93.52 170.66 95.41 169.29 97.3 170.66 96.58 168.44 98.47 167.07 96.13 167.07 95.41 164.85"/><polygon id="_22" data-name="22" class="cls-6" points="83.68 173.97 85.25 175.11 84.65 176.96 86.22 175.82 87.8 176.96 87.2 175.11 88.77 173.97 86.83 173.97 86.22 172.12 85.62 173.97 83.68 173.97"/><polygon id="_21" data-name="21" class="cls-6" points="118.98 152.18 120.52 153.31 119.93 155.12 121.47 154 123.02 155.12 122.43 153.31 123.97 152.18 122.06 152.18 121.47 150.37 120.89 152.18 118.98 152.18"/><polygon id="_20" data-name="20" class="cls-6" points="108.89 174.58 110.31 175.62 109.77 177.29 111.19 176.26 112.62 177.29 112.07 175.62 113.5 174.58 111.74 174.58 111.19 172.91 110.65 174.58 108.89 174.58"/><polygon id="_19" data-name="19" class="cls-6" points="106.78 182.43 108.08 183.38 107.58 184.92 108.89 183.97 110.2 184.92 109.7 183.38 111.01 182.43 109.39 182.43 108.89 180.89 108.4 182.43 106.78 182.43"/><polygon id="_18" data-name="18" class="cls-6" points="116.91 188.4 118.8 189.78 118.07 192 119.96 190.63 121.85 192 121.13 189.78 123.02 188.4 120.68 188.4 119.96 186.18 119.24 188.4 116.91 188.4"/><polygon id="_17" data-name="17" class="cls-6" points="147.43 161.48 149.02 162.63 148.41 164.5 150 163.35 151.59 164.5 150.98 162.63 152.57 161.48 150.6 161.48 150 159.62 149.39 161.48 147.43 161.48"/><polygon id="_16" data-name="16" class="cls-6" points="140.3 168.24 141.61 169.19 141.11 170.72 142.42 169.77 143.73 170.72 143.23 169.19 144.53 168.24 142.92 168.24 142.42 166.7 141.92 168.24 140.3 168.24"/><polygon id="_15" data-name="15" class="cls-6" points="144.89 173.41 145.68 173.99 145.38 174.92 146.17 174.34 146.97 174.92 146.66 173.99 147.46 173.41 146.48 173.41 146.17 172.47 145.87 173.41 144.89 173.41"/><polygon id="_14" data-name="14" class="cls-6" points="156.1 168.04 157.69 169.19 157.08 171.05 158.67 169.9 160.26 171.05 159.65 169.19 161.24 168.04 159.28 168.04 158.67 166.17 158.07 168.04 156.1 168.04"/><polygon id="_13" data-name="13" class="cls-6" points="146.94 183.02 148.83 184.39 148.11 186.61 150 185.24 151.89 186.61 151.17 184.39 153.06 183.02 150.72 183.02 150 180.79 149.29 183.02 146.94 183.02"/><polygon id="_12" data-name="12" class="cls-6" points="148.97 208.35 149.58 208.79 149.35 209.5 149.95 209.06 150.56 209.5 150.33 208.79 150.93 208.35 150.18 208.35 149.95 207.64 149.72 208.35 148.97 208.35"/><polygon id="_11" data-name="11" class="cls-6" points="164.4 191.41 165.7 192.36 165.21 193.9 166.51 192.95 167.82 193.9 167.32 192.36 168.63 191.41 167.01 191.41 166.51 189.88 166.02 191.41 164.4 191.41"/><polygon id="_10" data-name="10" class="cls-6" points="169.85 199.64 171.44 200.8 170.83 202.66 172.42 201.51 174 202.66 173.4 200.8 174.99 199.64 173.02 199.64 172.42 197.78 171.81 199.64 169.85 199.64"/><polygon id="_9" data-name="9" class="cls-6" points="179.72 194.06 181.03 193.12 179.41 193.12 178.91 191.58 178.42 193.12 176.79 193.12 178.1 194.07 177.6 195.6 178.91 194.65 180.22 195.6 179.72 194.06"/><polygon id="_8" data-name="8" class="cls-6" points="185.13 190.63 186.44 191.58 185.94 193.11 187.25 192.16 188.56 193.11 188.06 191.58 189.37 190.63 187.75 190.63 187.25 189.09 186.75 190.63 185.13 190.63"/><polygon id="_7" data-name="7" class="cls-6" points="184.87 197.72 186.46 198.87 185.85 200.74 187.44 199.58 189.03 200.74 188.42 198.87 190.01 197.72 188.05 197.72 187.44 195.85 186.84 197.72 184.87 197.72"/><polygon id="_6" data-name="6" class="cls-6" points="185.5 205.55 186.81 206.5 186.31 208.04 187.62 207.09 188.93 208.04 188.43 206.5 189.74 205.55 188.11 205.55 187.62 204.01 187.13 205.55 185.5 205.55"/><polygon id="_5" data-name="5" class="cls-6" points="192.97 191.97 194.28 192.92 193.78 194.46 195.09 193.5 196.39 194.46 195.89 192.92 197.2 191.97 195.59 191.97 195.09 190.43 194.59 191.97 192.97 191.97"/><polyline id="_4" data-name="4" class="cls-6" points="198.52 188.08 200.11 189.24 199.5 191.1 201.09 189.95 202.68 191.1 202.07 189.24 203.66 188.08 201.69 188.08 201.09 186.22 200.49 188.08 198.57 188.07"/><polygon id="_3" data-name="3" class="cls-6" points="203.03 182.23 204.62 183.38 204.01 185.25 205.6 184.1 207.18 185.25 206.58 183.38 208.16 182.23 206.2 182.23 205.59 180.37 204.99 182.23 203.03 182.23"/><polygon id="_2" data-name="2" class="cls-6" points="199.48 175.28 201.37 176.65 200.65 178.87 202.54 177.5 204.43 178.87 203.71 176.65 205.59 175.28 203.26 175.28 202.54 173.06 201.82 175.28 199.48 175.28"/><polygon id="_1" data-name="1" class="cls-6" points="210.93 176.41 212.23 177.36 211.73 178.9 213.04 177.95 214.35 178.9 213.85 177.36 215.16 176.41 213.54 176.41 213.04 174.87 212.55 176.41 210.93 176.41"/><rect id="SVGID-2" data-name="SVGID" class="cls-1" width="300" height="300"/></g></svg>