<svg xmlns="http://www.w3.org/2000/svg" viewBox="0 0 512 512">
  <path fill="#ff9811" d="M0 0h512v512H0z"/>
  <path fill="#ffda44" d="M512 0H0v512"/>
  <path d="M352.5 181.8v-29.7h-56.8l-4.4 4.4c-15.5 15.4-12.9 33.5-11 46.6 1.8 12.2 2 17-2.5 21.5-4.6 4.5-9.2 4.3-21.5 2.5-13.1-1.9-31.2-4.5-46.6 11-15.5 15.4-12.9 33.5-11 46.6 1.8 12.3 2 17-2.5 21.5-4.6 4.5-9.3 4.3-21.5 2.6-4.7-.7-9.7-1.4-15-1.5l-.2 29.7c3.2 0 7 .6 11 1.1 4.7.7 10 1.5 15.6 1.5 5.9 0 12-.9 18-3.5V360h44.6v-22.3h-22.3v-14.8h14.8v-22.3h-11.8c.5-7.2-.4-14-1.3-20-1.8-12.2-2-16.9 2.6-21.4 4.5-4.6 9.2-4.4 21.4-2.6a60.5 60.5 0 0033.7-2v23.8h44.5V256H308v-14.8H323v-22.3H311c.6-7.2-.4-14.1-1.3-20-1.2-8.5-1.7-13.4-.3-17.1h43.1z" fill="#f0f0f0"/>
</svg>
