<svg xmlns="http://www.w3.org/2000/svg" viewBox="0 0 512 512">
  <path fill="#a2001d" d="M0 0h512v512H0z"/>
  <path fill="#6da544" d="M150 345h362v167H150z"/>
  <g fill="#f0f0f0">
    <path d="M19 462l28-50 28 50 28-50 28 50-28 50h47V0h-47l28 50-28 50-28-50-28 50-28-50L47 0H0v512h47l-28-50zm84-87l-28-51-28 51-28-51 28-49 28 49 28-49 28 49-28 51zM47 137l28 50 28-50 28 50-28 50-28-50-28 50-28-50 28-50z"/>
    <path d="M75 462l-28 50h56z"/>
    <path d="M75 50l28-50H47z"/>
  </g>
  <g fill="#a2001d">
    <path d="M131 187l-28-50-28 50 28 50z"/>
    <path d="M47 237l28-50-28-50-28 50z"/>
    <path d="M103 275l-28 49 28 51 28-51z"/>
    <path d="M19 324l28 51 28-51-28-49z"/>
    <path d="M131 462l-28-50-28 50 28 50z"/>
    <path d="M75 462l-28-50-28 50 28 50z"/>
    <path d="M75 50l28 50 28-50-28-50z"/>
    <path d="M19 50l28 50 28-50L47 0z"/>
  </g>
</svg>
