<svg xmlns="http://www.w3.org/2000/svg" viewBox="0 0 300 300">
    <path fill="red" d="M0 0h50v300H0z"/>
    <path fill="red" d="M250 0h50v300h-50z"/>
    <path fill="#fff" d="M50 0h200v300H50z"/>
    <path fill="red" d="M150 69l-14 25c-1 3-4 3-7 1l-10-5 8 39c1 7-4 7-6 4l-17-19-3 10a3 3 0 01-4 2l-22-5 6 21c1 5 2 7-1 8l-8 4 37 30a5 5 0 012 5l-3 11 37-5 3 3-1 39h6l-1-39 3-3 37 5-3-11a5 5 0 012-5l37-30-8-4c-3-1-2-3-1-8l6-21-22 5a3 3 0 01-4-2l-3-10-17 19c-2 3-7 3-6-4l8-39-10 5c-3 2-6 2-7-1"/>
</svg>
