<?xml version="1.0" encoding="utf-8"?>
<!-- Generator: Adobe Illustrator 24.3.0, SVG Export Plug-In . SVG Version: 6.00 Build 0)  -->
<svg version="1.1" id="Layer_1" xmlns="http://www.w3.org/2000/svg" xmlns:xlink="http://www.w3.org/1999/xlink" x="0px" y="0px"
	 viewBox="0 0 512 512" style="enable-background:new 0 0 512 512;" xml:space="preserve">
<style type="text/css">
	.st0{fill:#F0F0F0;}
	.st1{fill:#D80027;}
</style>
<path class="st0" d="M170.7,0v512h170.7V0H170.7z M304.7,303.5h-39v29.2h-19.5v-29.2h-39l9.7-19.5l-39-19.5l19.5-9.7v-19.5l39,19.5
	l-19.5-39h19.5l19.5-29.2l19.5,29.2H295l-19.5,39l39-19.5v19.5l19.5,9.7l-39,19.5L304.7,303.5z"/>
<rect x="0" y="512" class="st1" width="170.7" height="0"/>
<rect x="341.3" y="512" class="st1" width="170.7" height="0"/>
<rect class="st1" width="170.7" height="512"/>
<rect x="341.3" class="st1" width="170.7" height="512"/>
<polygon class="st1" points="295,284.1 333.9,264.6 314.4,254.8 314.4,235.4 275.5,254.8 295,215.9 275.5,215.9 256,186.7 
	236.5,215.9 217,215.9 236.5,254.8 197.6,235.4 197.6,254.8 178.1,264.6 217,284.1 207.3,303.5 246.3,303.5 246.3,332.8 
	265.7,332.8 265.7,303.5 304.7,303.5 "/>
</svg>
