<svg id="flags" xmlns="http://www.w3.org/2000/svg" viewBox="0 0 300 300"><defs><style>.cls-1{fill:red;}.cls-2{fill:#fff;}</style></defs><g id="canada"><rect id="_3" data-name="3" class="cls-1" width="50" height="300"/><rect id="_3-2" data-name="3" class="cls-1" x="250" width="50" height="300"/><rect id="_2" data-name="2" class="cls-2" x="50" width="200" height="300"/><path id="_1" data-name="1" class="cls-1" d="M150,68.75,136.35,94.2c-1.55,2.77-4.32,2.51-7.1,1l-9.87-5.11,7.36,39.09c1.55,7.14-3.42,7.14-5.87,4.05l-17.24-19.3-2.8,9.8A3.34,3.34,0,0,1,97,126l-21.8-4.58,5.72,20.82c1.23,4.63,2.18,6.55-1.23,7.77l-7.78,3.65,37.53,30.48a4.92,4.92,0,0,1,1.71,5.11L107.83,200c12.92-1.49,24.5-3.73,37.42-5.11,1.14-.13,3.06,1.76,3.05,3.08l-1.71,39.49h6.28l-1-39.4c0-1.33,1.72-3.3,2.87-3.17,12.92,1.38,24.5,3.62,37.42,5.11l-3.28-10.78a4.92,4.92,0,0,1,1.71-5.11l37.52-30.48L220.35,150c-3.42-1.22-2.46-3.14-1.23-7.77l5.72-20.82L203,126a3.34,3.34,0,0,1-3.87-2.32l-2.8-9.8-17.24,19.3c-2.45,3.09-7.42,3.09-5.87-4.05l7.36-39.09-9.88,5.11c-2.77,1.55-5.54,1.81-7.09-1"/></g></svg>