<svg xmlns="http://www.w3.org/2000/svg" viewBox="0 0 512 512"><path d="M0,0V512H512V0ZM252.42,144.54l19.18,13.94,19.19-13.94-7.33,22.55L302.64,181H278.93l-7.33,22.56L264.27,181H240.56l19.18-13.94Zm-84.8,143.18-51.16,37.17L136,264.74,84.84,227.57h63.24l19.54-60.14,19.54,60.14H250.4l-51.16,37.17,19.54,60.15Zm123.17,79.74L271.6,353.52l-19.18,13.94,7.32-22.55L240.56,331h23.71l7.33-22.55L278.93,331h23.71l-19.18,13.94Zm26.33-68.88-7.33,22.55-7.32-22.55H278.75l19.19-13.94-7.33-22.56L309.8,276,329,262.08l-7.33,22.56,19.19,13.94Zm4.53-71.21L329,249.92,309.8,236l-19.19,13.94,7.33-22.56-19.19-13.93h23.72l7.33-22.56,7.32,22.56h23.72Z" fill="#d80027"/><polygon points="167.62 167.43 187.16 227.57 250.4 227.57 199.24 264.74 218.78 324.89 167.62 287.72 116.46 324.89 136 264.74 84.84 227.57 148.08 227.57 167.62 167.43" fill="#ffda44"/><polygon points="290.79 367.46 271.6 353.52 252.42 367.46 259.74 344.91 240.56 330.97 264.27 330.97 271.6 308.42 278.93 330.97 302.64 330.97 283.46 344.91 290.79 367.46" fill="#ffda44"/><polygon points="340.84 298.58 317.12 298.58 309.79 321.13 302.47 298.58 278.75 298.58 297.94 284.64 290.61 262.08 309.8 276.02 328.98 262.08 321.65 284.64 340.84 298.58" fill="#ffda44"/><polygon points="340.84 213.43 321.65 227.37 328.98 249.92 309.8 235.98 290.61 249.92 297.94 227.36 278.75 213.43 302.47 213.43 309.8 190.87 317.12 213.43 340.84 213.43" fill="#ffda44"/><polygon points="290.79 144.54 283.46 167.09 302.64 181.03 278.93 181.03 271.6 203.59 264.27 181.03 240.56 181.03 259.75 167.09 252.42 144.53 271.6 158.48 290.79 144.54" fill="#ffda44"/></svg>