<svg xmlns="http://www.w3.org/2000/svg" viewBox="0 0 300 300">
    <path fill="#de2910" d="M0 0h300v300H0z"/>
    <g fill="#ffde00">
        <path d="M91.3 80.3l26.5-19.2H85.1L75 30 64.9 61H32.2l26.4 19.3-10 31.1L75 92.2l26.5 19.2-10.2-31z"/>
        <path d="M154.3 33.8l10.6-2.5-10-4.3 1-10.8-7.2 8.2-10-4.3 5.6 9.4-7.2 8.2 10.7-2.4 5.6 9.3 1-10.8z"/>
        <path d="M182.5 65.1l10.8 2-7.6-8 5-9.5-9.7 4.8-7.6-7.9 1.5 10.8-9.8 4.8L176 64l1.5 10.8 5.1-9.7z"/>
        <path d="M185.5 106.6l8.6-6.7-10.9.3-3.7-10.2-3 10.5-11 .4 9.1 6-3 10.5 8.6-6.7 9 6.1-3.7-10.2z"/>
        <path d="M154.5 138.6l10.5-2.9-10.2-3.8.5-11-6.8 8.6-10.2-3.9 6 9.1-6.8 8.5 10.5-2.8 6 9 .5-10.8z"/>
    </g>
</svg>
