<svg id="flags" xmlns="http://www.w3.org/2000/svg" viewBox="0 0 300 300"><defs><style>.cls-1{fill:#de2910;}.cls-2{fill:#ffde00;}</style></defs><g id="china"><rect id="_6" data-name="6" class="cls-1" width="300" height="300"/><polygon class="cls-2" points="91.35 80.31 117.8 61.09 85.1 61.09 75 30 64.9 61.09 32.2 61.09 58.65 80.31 48.55 111.41 75 92.19 101.45 111.41 91.35 80.31"/><polygon class="cls-2" points="154.32 33.76 164.94 31.32 154.91 27.05 155.87 16.2 148.71 24.42 138.69 20.15 144.29 29.5 137.14 37.72 147.76 35.27 153.37 44.62 154.32 33.76"/><polygon class="cls-2" points="182.52 65.14 193.26 67.01 185.67 59.19 190.77 49.56 180.98 54.35 173.39 46.53 174.94 57.32 165.15 62.12 175.89 63.99 177.43 74.78 182.52 65.14"/><polygon class="cls-2" points="185.51 106.57 194.09 99.86 183.2 100.25 179.46 90.01 176.47 100.49 165.58 100.88 174.62 106.97 171.62 117.44 180.21 110.73 189.25 116.81 185.51 106.57"/><polygon class="cls-2" points="154.47 138.58 164.98 135.7 154.79 131.85 155.29 120.97 148.48 129.47 138.29 125.63 144.28 134.73 137.47 143.24 147.98 140.36 153.97 149.47 154.47 138.58"/></g></svg>