<svg xmlns="http://www.w3.org/2000/svg" viewBox="0 0 512 512">
  <path fill="#0052b4" d="M0 0h512v512H0z"/>
  <path fill="#d80027" d="M0 322.8h512v22.3H0z"/>
  <g fill="#f0f0f0">
    <path d="M0 300.5h512v22.3H0z"/>
    <path d="M0 345h512v22.3H0z"/>
  </g>
  <g fill="#ffda44">
    <path d="M180.4 261.3l3 9.2h9.7l-7.9 5.7 3 9.3-7.8-5.7-7.9 5.7 3-9.3-7.8-5.7h9.7z"/>
    <path d="M180.4 382.3l3 9.3h9.7l-7.9 5.7 3 9.2-7.8-5.7-7.9 5.7 3-9.2-7.8-5.7h9.7z"/>
    <path d="M124 341.4l3 9.2h9.8l-7.9 5.8 3 9.2-7.9-5.7-7.8 5.7 3-9.2-7.9-5.8h9.7z"/>
    <path d="M145.6 273.4l3 9.2h9.7l-7.9 5.7 3 9.3-7.8-5.7-8 5.7 3-9.3-7.8-5.7h9.8z"/>
    <path d="M111.3 311.5h9.7l3-9.3 3 9.3h9.8l-8 5.7 3.1 9.2-7.9-5.7-7.8 5.7 3-9.2z"/>
    <path d="M137.7 392.7l3-9.3-7.9-5.7h9.8l3-9.2 3 9.2h9.7l-7.9 5.7 3 9.3-7.8-5.7z"/>
    <path d="M236.7 341.4l-3 9.2H224l7.9 5.8-3 9.2 7.8-5.7 7.9 5.7-3-9.2 7.8-5.8h-9.7z"/>
    <path d="M215.2 273.4l-3 9.2h-9.7l7.8 5.7-3 9.3 7.9-5.7 7.9 5.7-3-9.3 7.8-5.7h-9.7z"/>
    <path d="M249.4 311.5h-9.7l-3-9.3-3 9.3H224l7.9 5.7-3 9.2 7.8-5.7 7.9 5.7-3-9.2z"/>
    <path d="M223 392.7l-3-9.3 8-5.7h-9.8l-3-9.2-3 9.2h-9.7l7.8 5.7-3 9.3 7.9-5.7z"/>
  </g>
</svg>
