<svg xmlns="http://www.w3.org/2000/svg" viewBox="0 0 512 512">
  <path fill="#ffda44" d="M0 0h512v256H0z"/>
  <path fill="#0052b4" d="M0 256h512v128H0z"/>
  <path fill="#d80027" d="M0 384h512v128H0z"/>
  <circle cx="256" cy="256" r="89" fill="#ffda44"/>
  <path d="M256 312c-31 0-56-25-56-56v-33a56 56 0 01112 0v33c0 31-25 56-56 56z" fill="#338af3"/>
  <path d="M345 122h-67a22 22 0 00-44 0h-67c0 13 11 23 23 23h-1c0 12 10 22 22 22 0 12 10 22 23 22h44c13 0 23-10 23-22 12 0 22-10 22-22h-1c12 0 23-10 23-23z"/>
</svg>
