<?xml version="1.0" encoding="utf-8"?>
<!-- Generator: Adobe Illustrator 24.3.0, SVG Export Plug-In . SVG Version: 6.00 Build 0)  -->
<svg version="1.1" id="Layer_1" xmlns="http://www.w3.org/2000/svg" xmlns:xlink="http://www.w3.org/1999/xlink" x="0px" y="0px"
	 viewBox="0 0 512 512" style="enable-background:new 0 0 512 512;" xml:space="preserve">
<style type="text/css">
	.st0{fill:#0052B4;}
	.st1{fill:#FFDA44;}
</style>
<path class="st0" d="M0,0v512h512V0H0z M320.9,143.2l18.3,18.3l23-11.7l-11.7,23l18.3,18.3l-25.5-4l-11.7,23l-4-25.5l-25.5-4
	l23-11.7L320.9,143.2z M105.7,256l24.6-8v-25.9l15.2,20.9l24.6-8L154.9,256l15.2,20.9l-24.6-8l-15.2,20.9V264L105.7,256z
	 M191.1,368.8l-18.3-18.3l-23,11.7l11.7-23l-18.3-18.3l25.5,4l11.7-23l4,25.5l25.5,4l-23,11.7L191.1,368.8z M184.5,184.5l-4,25.5
	l-11.8-23l-25.5,4l18.3-18.3l-11.7-23l23,11.7l18.3-18.3l-4,25.5l23,11.7L184.5,184.5z M264,381.7l-8,24.6l-8-24.6h-25.9l20.9-15.2
	l-8-24.6l20.9,15.2l20.9-15.2l-8,24.6l20.9,15.2H264z M268.9,145.5l8,24.6L256,154.9l-20.9,15.2l8-24.6l-20.9-15.2H248l8-24.6
	l8,24.6h25.9L268.9,145.5z M362.3,362.3l-23-11.7l-18.3,18.3l4-25.5l-23-11.7l25.5-4l4-25.5l11.7,23l25.5-4l-18.3,18.3L362.3,362.3z
	 M381.7,264v25.9l-15.2-20.9l-24.6,8l15.2-20.9l-15.2-20.9l24.6,8l15.2-20.9V248l24.6,8L381.7,264z"/>
<g>
	<polygon class="st1" points="256,105.7 264,130.3 289.9,130.3 268.9,145.5 276.9,170.1 256,154.9 235.1,170.1 243.1,145.5 
		222.1,130.3 248,130.3 	"/>
	<polygon class="st1" points="149.7,149.8 172.8,161.5 191.1,143.2 187,168.7 210.1,180.5 184.5,184.5 180.5,210.1 168.7,187 
		143.2,191.1 161.5,172.8 	"/>
	<polygon class="st1" points="105.7,256 130.3,248 130.3,222.1 145.5,243.1 170.1,235.1 154.9,256 170.1,276.9 145.5,268.9 
		130.3,289.9 130.3,264 	"/>
	<polygon class="st1" points="149.7,362.3 161.5,339.2 143.2,320.9 168.7,325 180.5,301.9 184.5,327.5 210.1,331.5 187,343.3 
		191.1,368.8 172.8,350.5 	"/>
	<polygon class="st1" points="256,406.3 248,381.7 222.1,381.7 243.1,366.5 235.1,341.9 256,357.1 276.9,341.9 268.9,366.5 
		289.9,381.7 264,381.7 	"/>
	<polygon class="st1" points="362.2,362.3 339.2,350.5 320.9,368.8 325,343.3 301.9,331.5 327.5,327.5 331.5,301.9 343.3,325 
		368.8,320.9 350.5,339.2 	"/>
	<polygon class="st1" points="406.3,256 381.7,264 381.7,289.9 366.5,268.9 341.9,276.9 357.1,256 341.9,235.1 366.5,243.1 
		381.7,222.1 381.7,248 	"/>
	<polygon class="st1" points="362.2,149.8 350.5,172.8 368.8,191.1 343.3,187 331.5,210.1 327.5,184.5 301.9,180.5 325,168.7 
		320.9,143.2 339.2,161.5 	"/>
</g>
</svg>
