<svg xmlns="http://www.w3.org/2000/svg" viewBox="0 0 300 300">
  <path d="M300 0H0v300h300z" fill="#039"/>
  <g fill="#ffd300" stroke="#ffd300" stroke-width=".2px">
    <path d="M67.4 85l-1-3.1-1 3.1L62 95.8H47l2.7 2 9.3 6.6-3.6 10.8-1 3 2.7-1.8 9.2-6.7 9.3 6.7 2.7 1.9-1-3.1-3.6-10.8 9.2-6.7 2.7-2H71z"/>
    <path d="M102.7 49.4l-1-3.1-1 3-3.5 10.9H82.4l2.7 2 9.3 6.6-3.6 10.7-1 3.2 2.7-2 9.2-6.6 9.3 6.6 2.7 2-1-3.2-3.6-10.7 9.3-6.7 2.7-2h-14.8z"/>
    <path d="M153 36l-1-3.1-1 3.1-3.5 10.8h-14.8l2.7 2 9.2 6.6-3.5 10.7-1 3.1 2.7-1.9 9.2-6.7 9.3 6.7 2.6 2-1-3.2-3.5-10.8 9.2-6.6 2.7-2h-14.8z"/>
    <path d="M202.7 49.5l-1-3.1-1 3-3.5 10.8h-14.8l2.7 2 9.2 6.6-3.5 10.8-1 3.1 2.7-1.9 9.2-6.7 9.3 6.7 2.7 2-1-3.2-3.6-10.8 9.3-6.6 2.6-2h-14.7z"/>
    <path d="M239.3 85.8l-1-3.1-1 3-3.5 10.8H219l2.7 2 9.2 6.6-3.5 10.8-1 3.1 2.7-2 9.2-6.6 9.3 6.7 2.7 2-1-3.2-3.6-10.8 9.3-6.6 2.7-2h-14.8z"/>
    <path d="M252.9 135.6l-1-3.1-1 3-3.5 10.9h-14.8l2.7 1.9 9.2 6.7-3.5 10.7-1 3.2 2.7-2 9.2-6.6 9.3 6.6 2.6 2-1-3.2-3.6-10.7 9.3-6.7 2.7-1.9h-14.8z"/>
    <path d="M239.3 185.6l-1-3.1-1 3.1-3.5 10.8H219l2.7 2 9.2 6.6-3.5 10.8-1 3 2.6-1.8 9.3-6.7 9.2 6.7 2.7 2-1-3.2-3.6-10.8 9.3-6.7 2.7-1.9h-14.8z"/>
    <path d="M202.7 221.7l-1-3.1-1 3-3.5 10.8h-14.8l2.7 2 9.2 6.6-3.5 10.8-1 3 2.6-1.8 9.3-6.7 9.3 6.7 2.6 1.9-1-3.1L209 241l9.2-6.7 2.7-1.9h-14.7z"/>
    <path d="M153.1 234.8l-1-3-1 3-3.5 10.8h-14.8l2.7 2 9.2 6.6-3.5 10.8-1 3.1 2.7-1.9 9.2-6.7 9.3 6.7 2.7 2-1.1-3.2-3.5-10.8 9.2-6.6 2.7-2h-14.7z"/>
    <path d="M102.9 221.4l-1-3.1-1 3.1-3.6 10.8H82.5l2.7 2 9.3 6.6-3.5 10.8-1 3 2.7-1.8 9.2-6.7 9.3 6.7 2.6 1.9-1-3.1-3.5-10.8 9.3-6.7 2.7-2h-15z"/>
    <path d="M67 185.4l-1-3.1-1 3-3.5 10.8H46.7l2.7 2 9.2 6.6-3.5 10.8-1 3.1 2.6-1.9L66 210l9.3 6.7 2.6 1.9-1-3.1-3.5-10.8 9.2-6.7 2.7-1.9H70.5z"/>
    <path d="M53.3 134.7l-1-3.1-1 3-3.6 11h-15l2.8 2 9.3 6.6-3.6 11-1 3 2.7-1.9 9.3-6.7 9.4 6.7 2.7 2-1-3.2-3.6-10.9 9.3-6.7 2.7-2H56.8z"/>
  </g>
</svg>
