<svg id="flags" xmlns="http://www.w3.org/2000/svg" viewBox="0 0 300 300"><defs><style>.cls-1{fill:#039;}.cls-2{fill:#ffd300;stroke:#ffd300;stroke-width:0.2px;}</style></defs><g id="europe"><path class="cls-1" d="M300,0H0V300H300Z"/><path class="cls-2" d="M67.43,85l-1-3.11-1,3.11L61.86,95.79H47.11l2.7,1.94,9.24,6.65-3.53,10.77-1,3.13,2.67-1.92,9.25-6.67,9.26,6.67,2.67,1.92-1-3.13-3.53-10.77L83,97.73l2.7-1.94H71Z"/><path class="cls-2" d="M102.73,49.39l-1-3.1-1,3.1L97.17,60.16H82.42l2.69,2,9.24,6.65L90.82,79.53l-1,3.12,2.67-1.92,9.24-6.65L111,80.73l2.67,1.92-1-3.12-3.53-10.77,9.24-6.65,2.69-2H106.26Z"/><path class="cls-2" d="M153,36l-1-3.11L151,36l-3.53,10.77H132.69l2.69,1.94,9.24,6.66L141.1,66.1l-1,3.12,2.67-1.92L152,60.64l9.26,6.66,2.67,1.92-1-3.13-3.53-10.76,9.25-6.66,2.69-1.94H156.55Z"/><path class="cls-2" d="M202.73,49.46l-1-3.11-1,3.11-3.53,10.77H182.4l2.7,1.94,9.24,6.66L190.81,79.6l-1,3.12,2.67-1.92,9.26-6.67L211,80.8l2.67,1.92-1-3.12-3.52-10.77,9.24-6.66L221,60.23H206.26Z"/><path class="cls-2" d="M239.35,85.75l-1-3.1-1,3.1-3.53,10.78H219l2.7,1.94,9.24,6.66-3.53,10.76-1,3.13,2.67-1.93,9.26-6.66,9.25,6.66,2.67,1.93-1-3.13-3.52-10.76,9.24-6.66,2.69-1.94H242.88Z"/><path class="cls-2" d="M252.9,135.59l-1-3.1-1,3.1-3.53,10.77H232.58l2.7,1.94,9.24,6.66L241,165.73l-1,3.13,2.67-1.93,9.25-6.66,9.25,6.66,2.67,1.93-1-3.13L259.25,155l9.24-6.66,2.69-1.94H256.43Z"/><path class="cls-2" d="M239.3,185.61l-1-3.11-1,3.11-3.54,10.77H219l2.69,1.94L230.9,205l-3.52,10.76-1,3.13L229,217l9.26-6.66,9.25,6.66,2.67,1.92-1-3.13L245.64,205l9.24-6.66,2.7-1.94H242.83Z"/><path class="cls-2" d="M202.69,221.66l-1-3.11-1,3.11-3.53,10.77H182.37l2.69,1.94L194.3,241l-3.52,10.77-1,3.12,2.67-1.92,9.25-6.66,9.25,6.66,2.67,1.92-1-3.12L209,241l9.24-6.66,2.69-1.94H206.22Z"/><path class="cls-2" d="M153.13,234.85l-1-3.1-1,3.1-3.53,10.78H132.82l2.69,1.94,9.24,6.66L141.22,265l-1,3.13,2.67-1.93,9.25-6.66,9.25,6.66,2.68,1.93L163,265l-3.54-10.76,9.25-6.66,2.7-1.94H156.66Z"/><path class="cls-2" d="M102.86,221.4l-1-3.11-1,3.11-3.53,10.78H82.54l2.69,1.94,9.24,6.65L91,251.55l-1,3.12,2.67-1.92,9.25-6.67,9.25,6.67,2.67,1.92-1-3.12-3.52-10.78,9.24-6.65,2.69-1.94H106.39Z"/><path class="cls-2" d="M67,185.36l-1-3.1-1,3.1-3.53,10.78H46.66l2.7,1.94,9.24,6.66L55.07,215.5l-1,3.13,2.67-1.93L66,210l9.25,6.66,2.67,1.93-1-3.13-3.53-10.76,9.24-6.66,2.69-1.94H70.51Z"/><path class="cls-2" d="M53.25,134.67l-1-3.1-1,3.1-3.57,10.9H32.77l2.69,1.94,9.34,6.73-3.57,10.87-1,3.13,2.67-1.92,9.35-6.74,9.35,6.74,2.67,1.92-1-3.13-3.56-10.87L69,147.51l2.7-1.94H56.82Z"/></g></svg>