<svg xmlns="http://www.w3.org/2000/svg" viewBox="0 0 512 512">
  <path fill="#2e52b2" d="M0 0h512v512H0z"/>
  <path d="M320 197v73c0 49 64 64 64 64s64-15 64-64v-73l-64-19-64 19z" fill="#f3f3f3"/>
  <path d="M448 201v-27H320v27h55v55h-55v18h55v61l9 3 9-3v-61h55v-18h-55v-55h55z" fill="#d80027"/>
  <path fill="#f0f0f0" d="M256 0v49l-40 40h40v78h-53l53 52v37h-24l-65-65v65H89v-78l-78 78H0v-49l40-40H0V89h53L0 37V0h24l65 65V0h78v78l78-78z"/>
  <path fill="#d80027" d="M0 152h104v104h48V152h104v-48H152V0h-48v104H0z"/>
  <path fill="#0052b4" d="M167 167l89 89v-25l-64-64z"/>
  <path fill="#f0f0f0" d="M167 167l89 89v-25l-64-64z"/>
  <g fill="#d80027">
    <path d="M167 167l89 89v-25l-64-64z"/>
    <path d="M64 167L0 231v25l89-89z"/>
  </g>
  <path fill="#0052b4" d="M89 89L0 0v25l64 64z"/>
  <path fill="#f0f0f0" d="M89 89L0 0v25l64 64z"/>
  <g fill="#d80027">
    <path d="M89 89L0 0v25l64 64z"/>
    <path d="M192 89l64-64V0l-89 89z"/>
  </g>
</svg>
