<svg xmlns="http://www.w3.org/2000/svg" viewBox="0 0 512 512">
  <path fill="#0052b4" d="M0 0h512v512H0z"/>
  <path fill="#ffda44" d="M414 293v8h-60v-8h-22v30h15v7h74v-7h15v-30z"/>
  <path d="M332 182v81c0 40 52 52 52 52s52-12 52-52v-81H332z" fill="#338af3"/>
  <g fill="#f3f3f3">
    <path d="M384 243c-13 0-13 12-26 12s-13-12-26-12v20c13 0 13 12 26 12s13-12 26-12 13 12 26 12 13-12 26-12v-20c-13 0-13 12-26 12s-13-12-26-12z"/>
    <path d="M384 201c-13 0-13 12-26 12s-13-12-26-12v21c13 0 13 12 26 12s13-12 26-12 13 12 26 12 13-12 26-12v-21c-13 0-13 12-26 12s-13-12-26-12z"/>
  </g>
  <path fill="#f0f0f0" d="M256 0v49l-40 40h40v78h-53l53 52v37h-24l-65-65v65H89v-78l-78 78H0v-49l40-40H0V89h53L0 37V0h24l65 65V0h78v78l78-78z"/>
  <path fill="#d80027" d="M0 152h104v104h48V152h104v-48H152V0h-48v104H0z"/>
  <path fill="#0052b4" d="M167 167l89 89v-25l-64-64z"/>
  <path fill="#f0f0f0" d="M167 167l89 89v-25l-64-64z"/>
  <g fill="#d80027">
    <path d="M167 167l89 89v-25l-64-64z"/>
    <path d="M64 167L0 231v25l89-89z"/>
  </g>
  <path fill="#0052b4" d="M89 89L0 0v25l64 64z"/>
  <path fill="#f0f0f0" d="M89 89L0 0v25l64 64z"/>
  <g fill="#d80027">
    <path d="M89 89L0 0v25l64 64z"/>
    <path d="M192 89l64-64V0l-89 89z"/>
  </g>
</svg>
