<?xml version="1.0" encoding="utf-8"?>
<!-- Generator: Adobe Illustrator 24.3.0, SVG Export Plug-In . SVG Version: 6.00 Build 0)  -->
<svg version="1.1" id="Layer_1" xmlns="http://www.w3.org/2000/svg" xmlns:xlink="http://www.w3.org/1999/xlink" x="0px" y="0px"
	 viewBox="0 0 512 512" style="enable-background:new 0 0 512 512;" xml:space="preserve">
<style type="text/css">
	.st0{fill:#F0F0F0;}
	.st1{fill:#D80027;}
	.st2{fill:#0052B4;}
</style>
<polygon class="st0" points="178.1,0 208,0 208,208 0,208 0,178.1 105.1,178.1 0,73 0,50.4 127.7,178.1 178.1,178.1 0,0 47.4,0 
	178.1,130.7 "/>
<polygon class="st0" points="208,304 208,512 178.1,512 178.1,356.6 22.7,512 0,512 178.1,333.9 127.7,333.9 0,461.6 0,414.2 
	80.3,333.9 0,333.9 0,304 "/>
<polygon class="st0" points="384.3,178.1 512,50.4 512,97.8 431.7,178.1 512,178.1 512,208 304,208 304,0 333.9,0 333.9,155.4 
	489.3,0 512,0 333.9,178.1 "/>
<polygon class="st0" points="512,333.9 406.9,333.9 512,439 512,461.6 384.3,333.9 333.9,333.9 512,512 464.6,512 333.9,381.3 
	333.9,512 304,512 304,304 512,304 "/>
<polygon class="st1" points="0,304 208,304 208,512 304,512 304,304 512,304 512,208 304,208 304,0 208,0 208,208 0,208 "/>
<g>
	<polygon class="st2" points="406.9,333.9 512,439 512,333.9 	"/>
	<polygon class="st2" points="333.9,333.9 512,512 512,461.6 384.3,333.9 	"/>
	<polygon class="st2" points="464.6,512 333.9,381.3 333.9,512 	"/>
</g>
<polygon class="st0" points="333.9,333.9 512,512 512,461.6 384.3,333.9 "/>
<polygon class="st1" points="333.9,333.9 512,512 512,461.6 384.3,333.9 "/>
<g>
	<polygon class="st2" points="80.3,333.9 0,414.2 0,333.9 	"/>
	<polygon class="st2" points="178.1,356.6 178.1,512 22.7,512 	"/>
</g>
<polygon class="st1" points="127.7,333.9 0,461.6 0,512 0,512 178.1,333.9 "/>
<g>
	<polygon class="st2" points="105.1,178.1 0,73 0,178.1 	"/>
	<polygon class="st2" points="178.1,178.1 0,0 0,50.4 127.7,178.1 	"/>
	<polygon class="st2" points="47.4,0 178.1,130.7 178.1,0 	"/>
</g>
<polygon class="st0" points="178.1,178.1 0,0 0,50.4 127.7,178.1 "/>
<polygon class="st1" points="178.1,178.1 0,0 0,50.4 127.7,178.1 "/>
<g>
	<polygon class="st2" points="431.7,178.1 512,97.8 512,178.1 	"/>
	<polygon class="st2" points="333.9,155.4 333.9,0 489.3,0 	"/>
</g>
<polygon class="st1" points="384.3,178.1 512,50.4 512,0 512,0 333.9,178.1 "/>
</svg>
