<svg xmlns="http://www.w3.org/2000/svg" viewBox="0 0 300 300">
  <defs>
    <style>
      .cls-3{fill:#cf142b}.cls-4{fill:#00247d}
    </style>
  </defs>
  <path fill="#fff" d="M0 0h300v300H0z"/>
  <path class="cls-3" d="M0 242l83-42H50L0 225v17z"/>
  <path class="cls-3" d="M0 75v17l17 8h33L0 75z"/>
  <path class="cls-4" d="M0 253v47h100v-97L0 253z"/>
  <path class="cls-4" d="M0 0v47l100 50V0H0z"/>
  <path class="cls-3" d="M300 120H180V0h-60v120H0v60h120v120h60V180h120v-60z"/>
  <path class="cls-3" d="M300 208l-17-8h-33l50 25v-17z"/>
  <path class="cls-3" d="M300 58l-83 42h33l50-25V58z"/>
  <path class="cls-4" d="M300 253l-100-50v97h100v-47z"/>
  <path class="cls-4" d="M300 0H200v97l100-50V0z"/>
</svg>
