<svg xmlns="http://www.w3.org/2000/svg" viewBox="0 0 512 512">
  <path fill="#f0f0f0" d="M0 0h512v512H0z"/>
  <g fill="#d80027">
    <path d="M0 341.3h512V512H0z"/>
    <path d="M332.8 219.6V194h8.5v-17h-17v8.5h-17.1V177h-17v17h8.5v25.6h-17.1V160h8.5v-17h-17v8.5h-8.6v-8.6h-17v8.6h-8.6v-8.6h-17V160h8.5v59.7h-17V194h8.5v-17h-17.1v8.5h-17V177h-17.1v17h8.5v25.6h-17V288h187.7v-68.3z"/>
  </g>
  <path d="M256 279.4a25.6 25.6 0 00-8.5 49.7v35.6h-25.6v34.1h42.6v-69.7a25.6 25.6 0 00-8.5-49.7zm0 34.1a8.5 8.5 0 110-17 8.5 8.5 0 010 17z" fill="#ffda44"/>
</svg>
