<svg id="flags" xmlns="http://www.w3.org/2000/svg" viewBox="0 0 300 300"><defs><style>.cls-1{fill:#da251d;}.cls-2{fill:#fff;}</style></defs><g id="Hongkong"><g id="vietnam"><rect id="_2" data-name="2" class="cls-1" width="300" height="300"/></g><path class="cls-2" d="M165.17,86.66c-4.84-7.53-4.63-15.55,1.44-21a1.76,1.76,0,0,0-1.26-3.08c-45,1.77-64.8,62.32-19.64,85.43a31.47,31.47,0,0,1-10.42-16.45A36,36,0,0,1,139.48,103l1.11.7a34.62,34.62,0,0,0-4.05,27.51,30.22,30.22,0,0,0,11,16.54c-8.61-9.42-5.12-24.65,8.22-30.66C164.57,113.08,171.68,96.78,165.17,86.66Zm-16.92,13.93h0a1.76,1.76,0,0,0-1.7.8h0a1.77,1.77,0,0,1-3.22-.61h0A1.76,1.76,0,0,0,142,99.42h0a1.77,1.77,0,0,1-.42-3.25h0a1.77,1.77,0,0,0,.9-1.65h0a1.76,1.76,0,0,1,3-1.4,1.77,1.77,0,0,0,1.85.34h0a1.77,1.77,0,0,1,2.25,2.38h0a1.77,1.77,0,0,0,.24,1.86h0A1.76,1.76,0,0,1,148.25,100.59Z"/><path class="cls-2" d="M237.94,137.57c-15.59-42.24-79.3-42.37-87.33,7.72a31.5,31.5,0,0,1,12.43-15,35.91,35.91,0,0,1,28.46-4.84l-.32,1.26a34.63,34.63,0,0,0-27.42,4.66A30.18,30.18,0,0,0,151.43,147c6.3-11.1,21.86-12.49,31.7-1.66,6.48,7.15,24.18,8.88,31.8-.44,5.66-6.93,13.36-9.21,20.46-5.14A1.77,1.77,0,0,0,237.94,137.57Zm-36.56-4.71h0a1.78,1.78,0,0,0-1.7.8h0a1.76,1.76,0,0,1-3.22-.6v0a1.79,1.79,0,0,0-1.29-1.36h0a1.76,1.76,0,0,1-.41-3.25h0a1.77,1.77,0,0,0,.9-1.65h0a1.76,1.76,0,0,1,3-1.4h0a1.77,1.77,0,0,0,1.85.34h0a1.77,1.77,0,0,1,2.25,2.38,1.77,1.77,0,0,0,.24,1.87h0A1.76,1.76,0,0,1,201.38,132.86Z"/><path class="cls-2" d="M154.67,149.13a31.43,31.43,0,0,1,18.1,7.18,36,36,0,0,1,13.39,25.57l-1.3.09A34.63,34.63,0,0,0,172,157.33a30.23,30.23,0,0,0-18.63-6.91C165.84,153,172,167.35,164.7,180.06c-4.79,8.37-1,25.74,10.26,30.1,8.33,3.25,12.88,9.86,11.2,17.88a1.76,1.76,0,0,0,2.83,1.75C224.35,201.92,204.79,141.28,154.67,149.13Zm32.43,44.23a1.78,1.78,0,0,0-1.7.8h0a1.76,1.76,0,0,1-3.22-.6h0a1.79,1.79,0,0,0-1.29-1.37h0a1.77,1.77,0,0,1-.42-3.25h0a1.77,1.77,0,0,0,.9-1.65h0a1.77,1.77,0,0,1,3-1.41h0a1.77,1.77,0,0,0,1.85.34h0a1.77,1.77,0,0,1,2.25,2.38h0a1.77,1.77,0,0,0,.24,1.86h0A1.77,1.77,0,0,1,187.1,193.36Z"/><path class="cls-2" d="M152.27,154.17A31.52,31.52,0,0,1,151,173.61a36,36,0,0,1-20.18,20.64l-.48-1.22a34.62,34.62,0,0,0,19.44-19.88,30.21,30.21,0,0,0,.82-19.85c1.43,12.69-10.35,23-24.67,20-9.45-2-24.78,7-25.47,19.06-.51,8.93-5.39,15.3-13.53,16.18a1.76,1.76,0,0,0-.8,3.23C123.6,236.75,175.22,199.42,152.27,154.17Zm-27.12,44.31h0a1.76,1.76,0,0,0-1.69.81h0a1.77,1.77,0,0,1-3.22-.61,1.76,1.76,0,0,0-1.29-1.36h0a1.76,1.76,0,0,1-.42-3.24h0a1.76,1.76,0,0,0,.9-1.64v0a1.76,1.76,0,0,1,3-1.4h0a1.79,1.79,0,0,0,1.85.35h0a1.76,1.76,0,0,1,2.25,2.38h0a1.75,1.75,0,0,0,.24,1.86h0A1.76,1.76,0,0,1,125.15,198.48Z"/><path class="cls-2" d="M127.87,158.28A35.94,35.94,0,0,1,102,145.46l1-.83A34.64,34.64,0,0,0,127.93,157a30.15,30.15,0,0,0,19.13-5.35c-11.63,5.28-25-2.75-26.62-17.29-1-9.6-14.35-21.4-26-18.33-8.65,2.27-16.21-.41-19.57-7.88a1.76,1.76,0,0,0-3.32.25c-12.22,43.33,39.24,80.89,75.18,45.08A31.51,31.51,0,0,1,127.87,158.28Zm-26.74-17.13a1.78,1.78,0,0,0-1.7.8h0a1.77,1.77,0,0,1-3.22-.61h0A1.76,1.76,0,0,0,94.92,140h0a1.77,1.77,0,0,1-.42-3.25h0a1.77,1.77,0,0,0,.9-1.65h0a1.77,1.77,0,0,1,3-1.4h0a1.79,1.79,0,0,0,1.85.34h0a1.77,1.77,0,0,1,2.25,2.38h0a1.77,1.77,0,0,0,.24,1.86h0a1.77,1.77,0,0,1-1.57,2.88Z"/></g></svg>