<svg xmlns="http://www.w3.org/2000/svg" viewBox="0 0 300 300">
    <path fill="#da251d" d="M0 0h300v300H0z"/>
    <g fill="#fff">
        <path d="M165.2 86.7c-4.9-7.6-4.7-15.6 1.4-21a1.8 1.8 0 00-1.3-3.1c-45 1.7-64.8 62.3-19.6 85.4a31.5 31.5 0 01-10.4-16.4 36 36 0 014.2-28.6l1 .7a34.6 34.6 0 00-4 27.5 30.2 30.2 0 0011 16.6c-8.6-9.5-5-24.7 8.3-30.7 8.8-4 15.9-20.3 9.4-30.4zm-17 13.9a1.8 1.8 0 00-1.6.8 1.8 1.8 0 01-3.3-.6 1.8 1.8 0 00-1.3-1.4 1.8 1.8 0 01-.4-3.2 1.8 1.8 0 00.9-1.7 1.8 1.8 0 013-1.4 1.8 1.8 0 001.8.4 1.8 1.8 0 012.3 2.3 1.8 1.8 0 00.2 1.9 1.8 1.8 0 01-1.6 2.9z"/>
        <path d="M238 137.6c-15.7-42.3-79.4-42.4-87.4 7.7a31.5 31.5 0 0112.4-15 36 36 0 0128.5-4.9l-.3 1.3a34.6 34.6 0 00-27.4 4.7 30.2 30.2 0 00-12.4 15.6c6.3-11.1 21.9-12.5 31.7-1.7 6.5 7.2 24.2 9 31.8-.4 5.7-7 13.4-9.2 20.5-5.1a1.8 1.8 0 002.5-2.2zm-36.6-4.7a1.8 1.8 0 00-1.7.8 1.8 1.8 0 01-3.2-.6 1.8 1.8 0 00-1.3-1.4 1.8 1.8 0 01-.4-3.3 1.8 1.8 0 00.9-1.6 1.8 1.8 0 013-1.4 1.8 1.8 0 001.8.3 1.8 1.8 0 012.3 2.4 1.8 1.8 0 00.2 1.9 1.8 1.8 0 01-1.6 2.9z"/>
        <path d="M154.7 149.1a31.4 31.4 0 0118 7.2 36 36 0 0113.5 25.6h-1.3a34.6 34.6 0 00-12.9-24.6 30.2 30.2 0 00-18.6-6.9c12.4 2.6 18.6 17 11.3 29.7-4.8 8.3-1 25.7 10.3 30 8.3 3.3 12.8 10 11.2 18a1.8 1.8 0 002.8 1.7c35.3-27.9 15.8-88.5-34.3-80.7zm32.4 44.3a1.8 1.8 0 00-1.7.8 1.8 1.8 0 01-3.2-.6 1.8 1.8 0 00-1.3-1.4 1.8 1.8 0 01-.4-3.3 1.8 1.8 0 00.9-1.6 1.8 1.8 0 013-1.4 1.8 1.8 0 001.8.3 1.8 1.8 0 012.3 2.4 1.8 1.8 0 00.2 1.9 1.8 1.8 0 01-1.6 2.9z"/>
        <path d="M152.3 154.2a31.5 31.5 0 01-1.3 19.4 36 36 0 01-20.2 20.7l-.5-1.3a34.6 34.6 0 0019.5-19.8 30.2 30.2 0 00.8-19.9c1.4 12.7-10.3 23-24.7 20-9.4-2-24.8 7-25.4 19-.6 9-5.4 15.4-13.6 16.2a1.8 1.8 0 00-.8 3.3c37.5 25 89.1-12.4 66.2-57.6zM125 198.5a1.8 1.8 0 00-1.6.8 1.8 1.8 0 01-3.3-.6 1.8 1.8 0 00-1.2-1.4 1.8 1.8 0 01-.5-3.2 1.8 1.8 0 001-1.7 1.8 1.8 0 013-1.4 1.8 1.8 0 001.8.4 1.8 1.8 0 012.2 2.4 1.8 1.8 0 00.3 1.8 1.8 1.8 0 01-1.6 2.9z"/>
        <path d="M127.9 158.3a36 36 0 01-25.9-12.8l1-.9a34.6 34.6 0 0025 12.4 30.1 30.1 0 0019-5.3c-11.6 5.2-25-2.8-26.6-17.3-1-9.6-14.3-21.4-26-18.4-8.6 2.3-16.2-.4-19.5-7.8a1.8 1.8 0 00-3.4.2c-12.2 43.3 39.3 80.9 75.2 45a31.5 31.5 0 01-18.8 4.9zM101 141a1.8 1.8 0 00-1.7.9 1.8 1.8 0 01-3.2-.7A1.8 1.8 0 0095 140a1.8 1.8 0 01-.4-3.3 1.8 1.8 0 00.9-1.6 1.8 1.8 0 013-1.4 1.8 1.8 0 001.9.3 1.8 1.8 0 012.2 2.4 1.8 1.8 0 00.2 1.9 1.8 1.8 0 01-1.5 2.9z"/>
    </g>
</svg>
