<?xml version="1.0" encoding="utf-8"?>
<!-- Generator: Adobe Illustrator 24.3.0, SVG Export Plug-In . SVG Version: 6.00 Build 0)  -->
<svg version="1.1" id="Layer_1" xmlns="http://www.w3.org/2000/svg" xmlns:xlink="http://www.w3.org/1999/xlink" x="0px" y="0px"
	 viewBox="0 0 512 512" style="enable-background:new 0 0 512 512;" xml:space="preserve">
<style type="text/css">
	.st0{fill:#D80027;}
	.st1{fill:#F0F0F0;}
</style>
<path class="st0" d="M0,0v512h512V0H0z M139.7,187.2c37.2,22.8,44,13.8,63,25.5c21.3,13.1,13.7,21.5,32.3,32.9
	c-16.1,26.3-50.6,34.6-76.9,18.4C131.9,248,123.6,213.5,139.7,187.2z M230.9,350.7c-23.5,20-58.8,17.2-78.8-6.2
	c33.2-28.3,26.8-37.5,43.8-52.1c19-16.2,24.7-6.4,41.3-20.5C257.2,295.4,254.4,330.6,230.9,350.7z M218.1,168.2
	c7.2-30,37.4-48.5,67.4-41.3c-10.2,42.4,0.4,46.1-4.8,67.8c-5.8,24.3-16.2,19.7-21.3,40.9C229.3,228.4,210.8,198.2,218.1,168.2z
	 M305.4,381.3c-16.7-40.3-27.4-37-36-57.7c-9.6-23.1,1.6-25.5-6.8-45.6c28.5-11.8,61.2,1.8,73,30.3
	C347.5,336.8,334,369.5,305.4,381.3z M321.9,263.3c-24.9,2-23.7-9.3-45.5-7.6c-2.4-30.8,20.6-57.7,51.4-60.1
	c30.8-2.4,57.7,20.6,60.1,51.4C344.4,250.3,344.2,261.5,321.9,263.3z"/>
<path class="st1" d="M280.7,194.7c-5.8,24.3-16.2,19.7-21.3,40.9c-30-7.2-48.5-37.4-41.3-67.4c7.2-30,37.4-48.5,67.4-41.3
	C275.3,169.3,285.9,173,280.7,194.7L280.7,194.7z M280.7,194.7"/>
<path class="st1" d="M202.8,212.7c21.3,13.1,13.7,21.5,32.3,32.9c-16.1,26.3-50.6,34.6-76.9,18.4c-26.3-16.1-34.6-50.6-18.4-76.9
	C176.9,210,183.7,201.1,202.8,212.7L202.8,212.7z M202.8,212.7"/>
<path class="st1" d="M195.8,292.4c19-16.2,24.7-6.4,41.3-20.5c20,23.5,17.3,58.8-6.2,78.8c-23.5,20-58.8,17.2-78.8-6.2
	C185.2,316.2,178.8,306.9,195.8,292.4L195.8,292.4z M195.8,292.4"/>
<path class="st1" d="M269.5,323.6c-9.6-23.1,1.6-25.5-6.8-45.6c28.5-11.8,61.2,1.8,73,30.3c11.8,28.5-1.8,61.2-30.3,73
	C288.8,341,278,344.3,269.5,323.6L269.5,323.6z M269.5,323.6"/>
<path class="st1" d="M321.9,263.3c-24.9,2-23.7-9.4-45.5-7.7c-2.4-30.8,20.6-57.7,51.4-60.1c30.8-2.4,57.7,20.6,60.1,51.4
	C344.4,250.3,344.2,261.5,321.9,263.3L321.9,263.3z M321.9,263.3"/>
</svg>
