<svg xmlns="http://www.w3.org/2000/svg" viewBox="0 0 512 512">
  <path fill="#f0f0f0" d="M0 0h512v512H0z"/>
  <g fill="#338af3">
    <path d="M0 0h512v170.7H0z"/>
    <path d="M0 341.3h512V512H0z"/>
    <path d="M182.2 183.8l7.5 23.3h24.5l-19.8 14.3 7.5 23.3-19.7-14.4-19.8 14.4 7.5-23.3-19.7-14.3h24.4z"/>
    <path d="M182.2 267.3l7.5 23.3h24.5l-19.8 14.3 7.5 23.3-19.7-14.4-19.8 14.4 7.5-23.3-19.7-14.3h24.4z"/>
    <path d="M329.8 183.8l7.6 23.3h24.4l-19.7 14.3 7.5 23.3-19.8-14.4-19.7 14.4 7.5-23.3-19.8-14.3h24.5z"/>
    <path d="M329.8 267.3l7.6 23.3h24.4l-19.7 14.3 7.5 23.3-19.8-14.4-19.7 14.4 7.5-23.3-19.8-14.3h24.5z"/>
    <path d="M256 225.6l7.6 23.2H288l-19.8 14.4 7.6 23.2-19.8-14.3-19.8 14.3 7.6-23.2-19.8-14.4h24.4z"/>
  </g>
</svg>
