<svg xmlns="http://www.w3.org/2000/svg" viewBox="0 0 512 512">
  <path fill="#f0f0f0" d="M0 0h512v512H0z"/>
  <path fill="#d80027" d="M0 0h512v170.7H0z"/>
  <path fill="#0052b4" d="M0 341.3h512V512H0z"/>
  <g fill="#338af3">
    <path d="M317.4 188.6h-41l7-51.3 27.2-20.4 27.3 20.4v41z"/>
    <path d="M194.6 188.6h41l-7-51.3-27.2-20.4-27.3 20.4v41z"/>
  </g>
  <path fill="#0052b4" d="M283.3 188.6h-54.6v-51.3L256 117l27.3 20.4z"/>
  <path d="M174 178.3V291c0 26.9 13 50.7 33 65.7l14.4-3.6 18 18.2a82 82 0 0033 0l20.7-17.2 11.9 2.5c20-15 33-38.7 33-65.5V178.3H174z" fill="#f0f0f0"/>
  <g fill="#d80027">
    <path d="M174.1 178.3h32.8v32.8h-32.8z"/>
    <path d="M239.6 178.3h32.8v32.8h-32.8z"/>
    <path d="M305.2 178.3H338v32.8h-32.8z"/>
    <path d="M206.8 211.1h32.8v32.8h-32.8z"/>
    <path d="M272.4 211.1h32.8v32.8h-32.8z"/>
    <path d="M174.1 243.8h32.8v32.8h-32.8z"/>
    <path d="M206.8 276.6h32.8v32.8h-32.8z"/>
    <path d="M239.6 243.8h32.8v32.8h-32.8z"/>
    <path d="M305.2 243.8H338v32.8h-32.8z"/>
    <path d="M272.4 276.6h32.8v32.8h-32.8z"/>
    <path d="M239.6 309.4h32.8v32.8h-32.8z"/>
    <path d="M206.8 309.4h-30.6a81.7 81.7 0 0016 32.7h14.6v-32.7z"/>
    <path d="M305.2 342.1h14.7a81.7 81.7 0 0015.9-32.7h-30.6V342z"/>
    <path d="M206.8 342.1v14.3a81.6 81.6 0 0032.8 14.8v-29h-32.8z"/>
    <path d="M272.4 342.1v29.1a81.6 81.6 0 0032.8-14.8v-14.3h-32.8z"/>
  </g>
</svg>
