<?xml version="1.0" encoding="utf-8"?>
<!-- Generator: Adobe Illustrator 24.3.0, SVG Export Plug-In . SVG Version: 6.00 Build 0)  -->
<svg version="1.1" id="Layer_1" xmlns="http://www.w3.org/2000/svg" xmlns:xlink="http://www.w3.org/1999/xlink" x="0px" y="0px"
	 viewBox="0 0 512 512" style="enable-background:new 0 0 512 512;" xml:space="preserve">
<style type="text/css">
	.st0{fill:#F0F0F0;}
	.st1{fill:#0052B4;}
</style>
<rect x="0" y="0" class="st0" width="512" height="32"/>
<polygon class="st0" points="211.7,290.1 197,290.1 204.3,277.4 "/>
<polygon class="st0" points="204.3,234.6 197,221.9 211.7,221.9 "/>
<polygon class="st0" points="248.7,311.4 263.3,311.4 256,324.1 "/>
<polygon class="st0" points="263.3,200.6 248.7,200.6 256,187.9 "/>
<polygon class="st0" points="236.3,290.1 216.7,256 236.3,221.9 275.7,221.9 295.3,256 275.7,290.1 "/>
<polygon class="st0" points="315,290.1 300.3,290.1 307.7,277.4 "/>
<polygon class="st0" points="307.7,234.6 300.3,221.9 315,221.9 "/>
<path class="st0" d="M0,512h512v-32H0V512z M0,96v320h512V96H0z M352,311.4h-64l-32,55.4l-32-55.4h-64l32-55.4l-32-55.4h64l32-55.4
	l32,55.4h64L320,256L352,311.4z"/>
<path class="st1" d="M352,200.6h-64l-32-55.4l-32,55.4h-64l32,55.4l-32,55.4h64l32,55.4l32-55.4h64L320,256L352,200.6z M295.3,256
	l-19.7,34h-39.3l-19.7-34l19.7-34h39.3L295.3,256z M256,187.9l7.3,12.7h-14.6L256,187.9z M197,222h14.6l-7.3,12.7L197,222z M197,290
	l7.3-12.7l7.3,12.7H197z M256,324.1l-7.3-12.7h14.6L256,324.1z M315,290h-14.6l7.3-12.7L315,290z M300.3,222H315l-7.3,12.7
	L300.3,222z M300.3,222"/>
<rect x="0" y="32" class="st1" width="512" height="64"/>
<rect x="0" y="416" class="st1" width="512" height="64"/>
</svg>
