<svg id="flags" xmlns="http://www.w3.org/2000/svg" viewBox="0 0 300 300"><defs><style>.cls-1{fill:#fff;}.cls-2{fill:#f93;}.cls-3{fill:#128807;}.cls-4{fill:#008;}</style></defs><g id="india"><rect id="_52" data-name="52" class="cls-1" width="300" height="300"/><rect id="_53" data-name="53" class="cls-2" width="300" height="100"/><rect id="_51" data-name="51" class="cls-3" y="200" width="300" height="100"/><path class="cls-4" d="M150,110a40,40,0,1,0,40,40A40,40,0,0,0,150,110Zm33,44.34a1.74,1.74,0,0,0,1.45,1.95,34.78,34.78,0,0,1-1.45,5.48,1.74,1.74,0,0,0-1.34,3.22c-.41.86-.85,1.69-1.32,2.51L162.72,156l-6.49-2.78a7.6,7.6,0,0,0,.43-1l6.55,2.62,20.6,4.28-20-6.6-7-1a6.75,6.75,0,0,0,.14-1.1l7,.84,21-1.2-21-1.2-7,.84a6.75,6.75,0,0,0-.14-1.1l7-1,20-6.6-20.6,4.28-6.55,2.62a7.6,7.6,0,0,0-.43-1l6.49-2.78,17.59-11.54c.47.82.91,1.65,1.32,2.51a1.74,1.74,0,0,0,1.34,3.22,34.78,34.78,0,0,1,1.45,5.48,1.75,1.75,0,0,0,.46,3.46c.07.93.12,1.88.12,2.83s-.05,1.9-.12,2.83A1.75,1.75,0,0,0,183,154.34Zm-10.31,22.32a1.75,1.75,0,0,0-2.77,2.13c-.77.54-1.57,1-2.39,1.52L158,161.52l-4.24-5.65a5.89,5.89,0,0,0,.88-.68l4.37,5.56,15.7,14C174.08,175.42,173.38,176.05,172.66,176.66Zm-2.42-53a1.75,1.75,0,0,0,2.42-.28c.72.61,1.42,1.24,2.09,1.91l-15.7,14-4.37,5.56a5.89,5.89,0,0,0-.88-.68l4.24-5.65,9.46-18.79c.82.48,1.62,1,2.39,1.52A1.75,1.75,0,0,0,170.24,123.62Zm6.42,3.72a1.75,1.75,0,0,0,2.13,2.77c.54.77,1,1.57,1.52,2.39L161.52,142l-5.65,4.24a5.89,5.89,0,0,0-.68-.88l5.56-4.37,14-15.7C175.42,125.92,176.05,126.62,176.66,127.34Zm-23.83-12.22a1.75,1.75,0,0,0,3.46.46,34.78,34.78,0,0,1,5.48,1.45,1.74,1.74,0,0,0,3.22,1.34c.86.41,1.69.85,2.51,1.32L156,137.28l-2.78,6.49a7.6,7.6,0,0,0-1-.43l2.62-6.55,4.28-20.6-6.6,20-1,7a6.75,6.75,0,0,0-1.1-.14l.84-7L150,115l-1.2,21,.84,7a6.75,6.75,0,0,0-1.1.14l-1-7-6.6-20,4.28,20.6,2.62,6.55a7.6,7.6,0,0,0-1,.43L144,137.28,132.5,119.69c.82-.47,1.65-.91,2.51-1.32a1.74,1.74,0,0,0,3.22-1.34,34.78,34.78,0,0,1,5.48-1.45,1.75,1.75,0,0,0,3.46-.46c.93-.07,1.88-.12,2.83-.12S151.9,115.05,152.83,115.12Zm-23.07,61.26a1.75,1.75,0,0,0-2.42.28c-.72-.61-1.42-1.24-2.09-1.91l15.7-14,4.37-5.56a5.89,5.89,0,0,0,.88.68L142,161.52l-9.46,18.79c-.82-.48-1.62-1-2.39-1.52A1.75,1.75,0,0,0,129.76,176.38Zm-6.14-6.14a1.75,1.75,0,0,0-2.41-.35c-.54-.77-1-1.57-1.52-2.39L138.48,158l5.65-4.24a5.89,5.89,0,0,0,.68.88l-5.56,4.37-14,15.7c-.67-.67-1.3-1.37-1.91-2.09A1.75,1.75,0,0,0,123.62,170.24Zm-4.34-7.52a1.74,1.74,0,0,0-2.25-.95,34.78,34.78,0,0,1-1.45-5.48,1.75,1.75,0,0,0-.46-3.46c-.07-.93-.12-1.88-.12-2.83s0-1.9.12-2.83a1.75,1.75,0,0,0,.46-3.46,34.78,34.78,0,0,1,1.45-5.48,1.74,1.74,0,0,0,1.34-3.22c.41-.86.85-1.69,1.32-2.51L137.28,144l6.49,2.78a7.6,7.6,0,0,0-.43,1l-6.55-2.62-20.6-4.28,20,6.6,7,1a6.75,6.75,0,0,0-.14,1.1l-7-.84L115,150l21,1.2,7-.84a6.75,6.75,0,0,0,.14,1.1l-7,1-20,6.6,20.6-4.28,6.55-2.62a7.6,7.6,0,0,0,.43,1L137.28,156,119.69,167.5c-.47-.82-.91-1.65-1.32-2.51A1.74,1.74,0,0,0,119.28,162.72Zm1.93-32.61a1.75,1.75,0,0,0,2.13-2.77c.61-.72,1.24-1.42,1.91-2.09l14,15.7,5.56,4.37a5.89,5.89,0,0,0-.68.88L138.48,142l-18.79-9.46C120.17,131.68,120.67,130.88,121.21,130.11Zm6.13-6.77a1.75,1.75,0,0,0,2.77-2.13c.77-.54,1.57-1,2.39-1.52L142,138.48l4.24,5.65a5.89,5.89,0,0,0-.88.68L141,139.25l-15.7-14C125.92,124.58,126.62,124,127.34,123.34Zm19.83,61.54a1.75,1.75,0,0,0-3.46-.46,34.78,34.78,0,0,1-5.48-1.45,1.74,1.74,0,0,0-3.22-1.34c-.86-.41-1.69-.85-2.51-1.32L144,162.72l2.78-6.49a7.6,7.6,0,0,0,1,.43l-2.62,6.55-4.28,20.6,6.6-20,1-7a6.75,6.75,0,0,0,1.1.14l-.84,7,1.2,21,1.2-21-.84-7a6.75,6.75,0,0,0,1.1-.14l1,7,6.6,20-4.28-20.6-2.62-6.55a7.6,7.6,0,0,0,1-.43l2.78,6.49,11.54,17.59c-.82.47-1.65.91-2.51,1.32a1.74,1.74,0,0,0-3.22,1.34,34.78,34.78,0,0,1-5.48,1.45,1.75,1.75,0,0,0-3.46.46c-.93.07-1.88.12-2.83.12S148.1,185,147.17,184.88Zm27.58-10.13-14-15.7-5.56-4.37a5.89,5.89,0,0,0,.68-.88l5.65,4.24,18.79,9.46c-.48.82-1,1.62-1.52,2.39a1.75,1.75,0,0,0-2.13,2.77C176.05,173.38,175.42,174.08,174.75,174.75Z"/></g></svg>