<?xml version="1.0" encoding="utf-8"?>
<!-- Generator: Adobe Illustrator 24.3.0, SVG Export Plug-In . SVG Version: 6.00 Build 0)  -->
<svg version="1.1" id="Layer_1" xmlns="http://www.w3.org/2000/svg" xmlns:xlink="http://www.w3.org/1999/xlink" x="0px" y="0px"
	 viewBox="0 0 512 512" style="enable-background:new 0 0 512 512;" xml:space="preserve">
<style type="text/css">
	.st0{fill:#F0F0F0;}
	.st1{fill:#FF9811;}
	.st2{fill:#6DA544;}
	.st3{fill:#0052B4;}
</style>
<path class="st0" d="M231.3,256l-11.9,16.2c-2.2-5-3.4-10.4-3.4-16.2s1.2-11.3,3.4-16.2L231.3,256z"/>
<path class="st0" d="M243.7,277.4l8.1,18.4c-11.5-1.2-21.6-7.3-28.1-16.2L243.7,277.4z"/>
<path class="st0" d="M251.8,216.2l-8.1,18.4l-20-2.2C230.2,223.5,240.2,217.4,251.8,216.2z"/>
<path class="st0" d="M268.3,277.4l20,2.2c-6.5,8.9-16.6,15-28.1,16.2L268.3,277.4z"/>
<path class="st0" d="M268.3,234.6l-8.1-18.4c11.5,1.2,21.6,7.3,28.1,16.2L268.3,234.6z"/>
<path class="st0" d="M292.6,239.8c2.2,5,3.4,10.4,3.4,16.2s-1.2,11.3-3.4,16.2L280.7,256L292.6,239.8z"/>
<path class="st0" d="M0,170.7v170.7h512V170.7H0z M256,320c-35.3,0-64-28.7-64-64s28.7-64,64-64s64,28.7,64,64S291.3,320,256,320z"
	/>
<path class="st1" d="M0,0h512v170.7H0V0z"/>
<path class="st2" d="M0,341.3h512V512H0V341.3z"/>
<path class="st3" d="M256,192c-35.4,0-64,28.7-64,64s28.6,64,64,64c35.3,0,64-28.7,64-64S291.3,192,256,192z M216,256
	c0-5.8,1.2-11.3,3.4-16.2l11.9,16.2l-11.9,16.2C217.2,267.3,216,261.8,216,256z M223.7,279.5l20-2.2l8.1,18.4
	C240.2,294.6,230.2,288.5,223.7,279.5z M243.7,234.6l-20-2.2c6.5-8.9,16.6-15,28.1-16.2L243.7,234.6z M296,256
	c0,5.8-1.2,11.3-3.4,16.2L280.7,256l11.9-16.2C294.8,244.7,296,250.2,296,256z M288.3,232.5l-20,2.2l-8.1-18.4
	C271.8,217.4,281.8,223.5,288.3,232.5z M260.2,295.8l8.1-18.4l20,2.2C281.8,288.5,271.8,294.6,260.2,295.8z"/>
</svg>
