<svg xmlns="http://www.w3.org/2000/svg" viewBox="0 0 300 300">
  <path fill="#fff" d="M0 0h300v300H0z"/>
  <path fill="#f93" d="M0 0h300v100H0z"/>
  <path fill="#128807" d="M0 200h300v100H0z"/>
  <path d="M150 110a40 40 0 1040 40 40 40 0 00-40-40zm33 44.3a1.7 1.7 0 001.4 2 34.8 34.8 0 01-1.4 5.5 1.7 1.7 0 00-1.3 3.2l-1.4 2.5-17.6-11.5-6.5-2.8a7.6 7.6 0 00.5-1l6.5 2.6 20.6 4.3-20-6.6-7-1a6.8 6.8 0 00.1-1l7 .8 21-1.2-21-1.2-7 .8a6.8 6.8 0 000-1.1l7-1 20-6.6-20.7 4.3-6.5 2.6a7.6 7.6 0 00-.5-1l6.5-2.8 17.6-11.5c.5.8 1 1.6 1.3 2.5a1.7 1.7 0 001.4 3.2 34.8 34.8 0 011.4 5.5 1.8 1.8 0 00.5 3.5 37.8 37.8 0 010 5.6 1.8 1.8 0 00-1.9 1.4zm-10.3 22.4a1.8 1.8 0 00-2.8 2l-2.4 1.6-9.5-18.8-4.2-5.6a5.9 5.9 0 00.8-.7l4.4 5.6 15.7 14-2 1.9zm-2.4-53a1.8 1.8 0 002.4-.3l2 1.9-15.6 14-4.4 5.5a5.9 5.9 0 00-.9-.6l4.3-5.7 9.4-18.8 2.4 1.5a1.8 1.8 0 00.3 2.4zm6.4 3.7a1.8 1.8 0 002.1 2.7l1.5 2.4-18.8 9.5-5.6 4.2a5.9 5.9 0 00-.7-.8l5.6-4.4 14-15.7 1.9 2zm-23.8-12.2a1.8 1.8 0 003.4.4 34.8 34.8 0 015.5 1.5 1.7 1.7 0 003.2 1.3l2.5 1.3-11.5 17.6-2.8 6.5a7.6 7.6 0 00-1-.5l2.6-6.5 4.3-20.6-6.6 20-1 7a6.8 6.8 0 00-1-.1l.8-7L150 115l-1.2 21 .8 7a6.8 6.8 0 00-1 .1l-1-7-6.7-20 4.3 20.6 2.6 6.6a7.6 7.6 0 00-1 .4l-2.8-6.4-11.5-17.6c.8-.5 1.6-1 2.5-1.3a1.7 1.7 0 003.2-1.4 34.8 34.8 0 015.5-1.4 1.8 1.8 0 003.5-.5 37.8 37.8 0 015.6 0zm-23.1 61.2a1.8 1.8 0 00-2.4.3l-2.1-2 15.7-14 4.4-5.5a5.9 5.9 0 00.8.7l-4.2 5.6-9.5 18.8-2.4-1.5a1.8 1.8 0 00-.3-2.4zm-6.1-6.1a1.8 1.8 0 00-2.5-.4l-1.5-2.4 18.8-9.5 5.6-4.2a5.9 5.9 0 00.7.8l-5.6 4.4-14 15.7-1.9-2a1.8 1.8 0 00.3-2.5zm-4.4-7.5a1.7 1.7 0 00-2.2-1 34.8 34.8 0 01-1.5-5.5 1.8 1.8 0 00-.4-3.4l-.2-2.9c0-.9 0-1.9.2-2.8a1.8 1.8 0 00.4-3.5 34.8 34.8 0 011.5-5.4 1.7 1.7 0 001.3-3.3l1.3-2.5 17.6 11.5 6.5 2.8a7.6 7.6 0 00-.5 1l-6.5-2.6-20.6-4.3 20 6.6 7 1a6.8 6.8 0 00-.1 1l-7-.8L115 150l21 1.2 7-.8a6.8 6.8 0 00.1 1l-7 1-20 6.7 20.6-4.3 6.6-2.6a7.6 7.6 0 00.4 1l-6.4 2.8-17.6 11.5c-.5-.8-1-1.6-1.3-2.5a1.7 1.7 0 00.9-2.3zm2-32.7a1.8 1.8 0 002-2.7l2-2.1 14 15.7 5.5 4.4a5.9 5.9 0 00-.6.8l-5.7-4.2-18.8-9.5 1.5-2.4zm6-6.7a1.8 1.8 0 002.8-2.2l2.4-1.5 9.5 18.8 4.2 5.6a5.9 5.9 0 00-.8.7l-4.4-5.6-15.7-14 2-1.9zm19.9 61.5a1.8 1.8 0 00-3.5-.4 34.8 34.8 0 01-5.4-1.5 1.7 1.7 0 00-3.3-1.3l-2.5-1.4 11.5-17.6 2.8-6.5a7.6 7.6 0 001 .5l-2.6 6.5-4.3 20.6 6.6-20 1-7a6.8 6.8 0 001 .1l-.8 7 1.2 21 1.2-21-.8-7a6.8 6.8 0 001.1 0l1 7 6.6 20-4.3-20.7-2.6-6.5a7.6 7.6 0 001-.5l2.8 6.5 11.5 17.6c-.8.5-1.6 1-2.5 1.3a1.7 1.7 0 00-3.2 1.4 34.8 34.8 0 01-5.5 1.4 1.8 1.8 0 00-3.5.5l-2.8.1-2.7-.1zm27.6-10.1l-14-15.7-5.6-4.4a5.9 5.9 0 00.7-.9l5.7 4.3 18.7 9.4c-.4.9-1 1.7-1.5 2.4a1.8 1.8 0 00-2.1 2.8l-2 2z" fill="#008"/>
</svg>
