<svg xmlns="http://www.w3.org/2000/svg" viewBox="0 0 512 512">
  <path fill="#f0f0f0" d="M0 0h512v512H0z"/>
  <path fill="#f0f0f0" d="M0 0h512v512H0z"/>
  <path fill="#d80027" d="M301.3 256L512 45.3V0h-45.3L256 210.7 45.3 0H0v45.3L210.7 256 0 466.7V512h45.3L256 301.3 466.7 512H512v-45.3z"/>
  <path fill="#ffda44" d="M211.5 91.8L256 103l44.5-11.2V54l-17.8 8.9L256 36.2l-26.7 26.7-17.8-9z"/>
  <path d="M211.5 91.8v27.9c0 34 44.5 44.5 44.5 44.5s44.5-10.5 44.5-44.5V91.8h-89z" fill="#d80027"/>
</svg>
