<svg xmlns="http://www.w3.org/2000/svg" viewBox="0 0 512 512">
  <path fill="#f0f0f0" d="M0 0h512v512H0z"/>
  <path d="M0 0h512v136H0z"/>
  <path fill="#496e2d" d="M0 376h512v136H0z"/>
  <path fill="#a2001d" d="M0 170h512v172H0z"/>
  <g fill="#f0f0f0">
    <path d="M357 82l-38-18-63 142-63-142-38 18 78 174-78 174 38 18 63-142 63 142 38-18-78-174z"/>
    <path d="M282 98c-15-16-26-25-26-25s-11 9-26 25v316c15 16 26 25 26 25s11-9 26-25V98z"/>
  </g>
  <g fill="#a2001d">
    <path d="M186 159v194c15 28 34 51 49 66V93c-15 15-34 38-49 66z"/>
    <path d="M326 159c-15-28-34-51-49-66v326c15-15 34-38 49-66V159z"/>
  </g>
  <path d="M326 159v194c16-28 29-61 29-97s-13-69-29-97z"/>
  <path d="M186 159v194c-16-28-29-61-29-97s13-69 29-97z"/>
</svg>
