<svg xmlns="http://www.w3.org/2000/svg" viewBox="0 0 512 512">
  <path fill="#d80027" d="M0 0h512v512H0z"/>
  <path fill="#ffda44" d="M373 256l-48 22 26 47-52-10-7 52-36-38-36 38-7-52-52 10 26-47-48-22 48-22-26-47 52 10 7-52 36 38 36-38 7 52 52-10-26 47z"/>
  <circle cx="256" cy="256" r="72.8" fill="#d80027"/>
  <g fill="#ffda44">
    <path d="M220 256h-6c0 10 4 20 10 27 3-9 8-17 14-24l-18-3z"/>
    <path d="M242 295a42 42 0 0028 0c-2-9-7-18-14-24-7 6-12 15-14 24z"/>
    <path d="M292 235a42 42 0 00-72 0c13 0 25 4 36 10 11-6 23-10 36-10z"/>
    <path d="M274 259c6 7 11 15 14 24 6-7 10-17 10-27a52 52 0 00-24 3z"/>
  </g>
</svg>
