<svg xmlns="http://www.w3.org/2000/svg" viewBox="0 0 512 512">
  <path fill="#0052b4" d="M0 0h512v512H0z"/>
  <path fill="#ffda44" d="M0 0h512v128H0z"/>
  <path fill="#f0f0f0" d="M0 128h512v128H0z"/>
  <path fill="#d80027" d="M0 256h512v128H0z"/>
  <path fill="#6da544" d="M256 256L0 512V0z"/>
  <g fill="#f0f0f0">
    <path d="M65.2 256a64 64 0 0150.3-62.5A64.2 64.2 0 0037.8 256a64 64 0 0077.7 62.5A64 64 0 0165.2 256z"/>
    <path d="M114.8 201.1l3.4 10.5h11l-9 6.5 3.5 10.5-9-6.5-8.8 6.5 3.4-10.5-9-6.5h11z"/>
    <path d="M114.8 228.6l3.4 10.4h11l-9 6.5 3.5 10.5-9-6.5-8.8 6.5 3.4-10.5-9-6.5h11z"/>
    <path d="M114.8 256l3.4 10.5h11l-9 6.5 3.5 10.4-9-6.4-8.8 6.4 3.4-10.4-9-6.5h11z"/>
    <path d="M114.8 283.4l3.4 10.5h11l-9 6.5 3.5 10.5-9-6.5-8.8 6.5 3.4-10.5-9-6.5h11z"/>
  </g>
</svg>
