<svg xmlns="http://www.w3.org/2000/svg" viewBox="0 0 300 300">
  <path fill="#fff" d="M0 0h300v300H0z"/>
  <path d="M56.4 117.7L84 76l7 4.6-27.8 41.6z"/>
  <path d="M46 110.7l27.7-41.6 6.9 4.6-27.8 41.6z"/>
  <path d="M66.8 124.6L94.5 83l6.9 4.6-27.7 41.6z"/>
  <path d="M234.3 203.7l12.7-19 7 4.6-12.8 19z"/>
  <path d="M224 196.8l12.6-19 7 4.6-12.8 19z"/>
  <path d="M208.9 219.3l12.7-19 6.9 4.6-12.7 19z"/>
  <path d="M219.4 226.3l12.7-19 6.9 4.5-12.7 19z"/>
  <path d="M198.5 212.4l12.7-19 7 4.5-12.8 19.1z"/>
  <path d="M213.6 189.9l12.7-19 6.9 4.6-12.7 19z"/>
  <circle cx="150" cy="150" r="50" transform="rotate(-4.9 150 150)" fill="#c60c30"/>
  <path d="M108.4 122.3A25 25 0 00150 150a25 25 0 0141.6 27.7 50 50 0 11-83.2-55.4" fill="#003478"/>
  <path d="M71.5 205l6.9-4.7 12.7 19-7 4.7z"/>
  <path d="M79.5 194.5l1.5 2.3L94.5 217l7-4.6-27.8-41.6-6.9 4.6 12.7 19z"/>
  <path d="M68 207.2l-2.4-3.5-12.7-19-7 4.6 27.8 41.6 7-4.6-12.8-19.1z"/>
  <path d="M56.3 182.4l7-4.6 12.6 19-6.9 4.6z"/>
  <path d="M209 80.7l6.9-4.6 27.7 41.6-7 4.6z"/>
  <path d="M234.3 96.3l7-4.7 12.6 19.1-6.9 4.6z"/>
  <path d="M219.3 73.7l7-4.6 12.7 19-7 4.7z"/>
  <path d="M213.5 110.1l7-4.6 12.7 19-7 4.7z"/>
  <path d="M198.6 87.6l6.9-4.6 12.7 19-7 4.7z"/>
  <path fill="none" d="M0 0h300v300H0z"/>
</svg>
