<?xml version="1.0" encoding="utf-8"?>
<!-- Generator: Adobe Illustrator 24.3.0, SVG Export Plug-In . SVG Version: 6.00 Build 0)  -->
<svg version="1.1" id="Layer_1" xmlns="http://www.w3.org/2000/svg" xmlns:xlink="http://www.w3.org/1999/xlink" x="0px" y="0px"
	 viewBox="0 0 512 512" style="enable-background:new 0 0 512 512;" xml:space="preserve">
<style type="text/css">
	.st0{fill:#F0F0F0;}
	.st1{fill:#D80027;}
	.st2{fill:#0052B4;}
</style>
<path class="st0" d="M0,0v512h512V0H0z M381.2,64l25,25l-16.7,16.7l-25-25L381.2,64z M356.2,89l66.8,66.8l-16.7,16.7l-66.8-66.8
	L356.2,89z M381.2,314.5l16.7,16.7l-25,25l-16.7-16.7L381.2,314.5z M356.2,172.5l16.7-16.7l25,25l-16.7,16.7L356.2,172.5z
	 M406.3,339.5l16.7,16.7l-25,25l-16.7-16.7L406.3,339.5z M331.1,114.1l25,25l-16.7,16.7l-25-25L331.1,114.1z M197.6,130.8
	l-66.8,66.8l-16.7-16.7l66.8-66.8L197.6,130.8z M172.5,105.7l-66.8,66.8L89,155.8l66.8-66.8L172.5,105.7z M130.8,364.5l-16.7,16.7
	l-25-25l16.7-16.7L130.8,364.5z M130.8,64l16.7,16.7l-66.8,66.8L64,130.8L130.8,64z M130.8,448L64,381.2l16.7-16.7l66.8,66.8
	L130.8,448z M155.8,423l-25-25l16.7-16.7l25,25L155.8,423z M180.9,397.9l-66.8-66.8l16.7-16.7l66.8,66.8L180.9,397.9z M161.6,256
	c0-52.2,42.3-94.5,94.4-94.5c52.2,0,94.4,42.3,94.4,94.5c0,52.2-42.3,94.4-94.4,94.4C203.8,350.4,161.6,308.2,161.6,256z
	 M314.4,381.2l25-25l16.7,16.7l-25.1,25L314.4,381.2z M339.5,406.3l25-25l16.7,16.7l-25,25L339.5,406.3z M381.2,448l-16.7-16.7
	l25-25l16.7,16.7L381.2,448z M423,406.3l-16.7-16.7l25-25l16.7,16.7L423,406.3z M431.3,147.5l-25-25l16.7-16.7l25,25L431.3,147.5z"
	/>
<path class="st1" d="M350.4,256H161.6c0-52.2,42.3-94.5,94.4-94.5C308.2,161.6,350.4,203.8,350.4,256z"/>
<rect x="359.3" y="323.5" transform="matrix(0.7071 -0.7071 0.7071 0.7071 -126.6685 364.826)" width="35.4" height="23.6"/>
<rect x="317.6" y="365.2" transform="matrix(0.7071 -0.7071 0.7071 0.7071 -168.4044 347.5357)" width="35.4" height="23.6"/>
<rect x="409.4" y="373.6" transform="matrix(0.7071 -0.7071 0.7071 0.7071 -147.3992 414.9062)" width="35.4" height="23.6"/>
<rect x="367.7" y="415.3" transform="matrix(0.7071 -0.7071 0.7071 0.7071 -189.151 397.623)" width="35.4" height="23.6"/>
<rect x="384.4" y="348.5" transform="matrix(0.7071 -0.7071 0.7071 0.7071 -137.0332 389.8659)" width="35.4" height="23.6"/>
<rect x="342.6" y="390.3" transform="matrix(0.7071 -0.7071 0.7071 0.7071 -178.7778 372.5797)" width="35.4" height="23.6"/>
<rect x="369.4" y="83.6" transform="matrix(0.7071 -0.7071 0.7071 0.7071 19.1848 307.8635)" width="23.6" height="94.4"/>
<rect x="323.5" y="117.2" transform="matrix(0.7071 -0.7071 0.7071 0.7071 2.7921 276.6299)" width="23.6" height="35.4"/>
<rect x="365.2" y="159" transform="matrix(0.7071 -0.7071 0.7071 0.7071 -14.502 318.362)" width="23.6" height="35.4"/>
<rect x="373.6" y="67.2" transform="matrix(0.7071 -0.7071 0.7071 0.7071 52.865 297.3645)" width="23.6" height="35.4"/>
<rect x="415.3" y="108.9" transform="matrix(0.7071 -0.7071 0.7071 0.7071 35.5849 339.1082)" width="23.6" height="35.4"/>
<rect x="93.9" y="359" transform="matrix(0.7071 -0.7071 0.7071 0.7071 -256.3044 193.7585)" width="23.6" height="94.4"/>
<rect x="139.8" y="384.4" transform="matrix(0.7071 -0.7071 0.7071 0.7071 -239.9027 224.993)" width="23.6" height="35.4"/>
<rect x="98.1" y="342.6" transform="matrix(0.7071 -0.7071 0.7071 0.7071 -222.6135 183.2601)" width="23.6" height="35.4"/>
<rect x="144" y="309" transform="matrix(0.7071 -0.7071 0.7071 0.7071 -206.2191 214.5083)" width="23.6" height="94.4"/>
<rect x="58.5" y="93.9" transform="matrix(0.7071 -0.7071 0.7071 0.7071 -43.798 105.7353)" width="94.4" height="23.6"/>
<rect x="83.6" y="119" transform="matrix(0.7071 -0.7071 0.7071 0.7071 -54.1746 130.7771)" width="94.4" height="23.6"/>
<rect x="108.6" y="144" transform="matrix(0.7071 -0.7071 0.7071 0.7071 -64.5481 155.8207)" width="94.4" height="23.6"/>
<path class="st2" d="M350.4,256c0,52.2-42.3,94.4-94.4,94.4s-94.4-42.3-94.4-94.4"/>
</svg>
