<svg id="flags" xmlns="http://www.w3.org/2000/svg" viewBox="0 0 300 300"><defs><style>.cls-1{fill:#fff;}.cls-2{fill:#c60c30;}.cls-3{fill:#003478;}.cls-4{fill:none;}</style></defs><g id="south-korea"><rect id="_19" data-name="19" class="cls-1" width="300" height="300"/><rect x="48.73" y="94.99" width="50" height="8.33" transform="translate(-49.67 105.5) rotate(-56.31)"/><rect x="38.33" y="88.05" width="50" height="8.33" transform="translate(-48.53 93.76) rotate(-56.31)"/><rect x="59.13" y="101.92" width="50" height="8.33" transform="translate(-50.81 117.24) rotate(-56.31)"/><rect x="232.72" y="192.35" width="22.92" height="8.33" transform="translate(-54.77 290.68) rotate(-56.31)"/><rect x="222.32" y="185.41" width="22.92" height="8.33" transform="translate(-53.64 278.94) rotate(-56.31)"/><rect x="207.3" y="207.95" width="22.92" height="8.33" transform="translate(-79.08 276.47) rotate(-56.31)"/><rect x="217.7" y="214.88" width="22.92" height="8.33" transform="translate(-80.21 288.22) rotate(-56.31)"/><rect x="196.9" y="201.01" width="22.92" height="8.33" transform="translate(-77.94 264.73) rotate(-56.31)"/><rect x="211.92" y="178.48" width="22.92" height="8.33" transform="translate(-52.5 267.2) rotate(-56.31)"/><circle id="_11" data-name="11" class="cls-2" cx="150" cy="150" r="50" transform="translate(-12.19 13.27) rotate(-4.87)"/><path id="_10" data-name="10" class="cls-3" d="M108.4,122.26A25,25,0,0,0,150,150a25,25,0,0,1,41.6,27.74,50,50,0,1,1-83.2-55.48"/><rect x="77.07" y="200.66" width="8.33" height="22.92" transform="translate(-104.02 80.69) rotate(-33.69)"/><polygon points="79.51 194.49 79.51 194.49 81.01 196.75 94.53 217.03 101.46 212.4 73.73 170.8 66.8 175.42 79.51 194.49"/><polygon points="67.95 207.2 67.95 207.2 65.64 203.74 65.64 203.74 52.93 184.67 45.99 189.29 73.73 230.89 80.66 226.27 67.95 207.2"/><rect x="62.05" y="178.12" width="8.33" height="22.92" transform="translate(-94.04 68.57) rotate(-33.69)"/><rect x="222.1" y="74.15" width="8.33" height="50" transform="translate(-17 142.17) rotate(-33.69)"/><rect x="240.02" y="92.03" width="8.33" height="22.92" transform="translate(-16.39 152.83) rotate(-33.69)"/><rect x="224.99" y="69.49" width="8.33" height="22.92" transform="translate(-6.42 140.71) rotate(-33.69)"/><rect x="219.22" y="105.9" width="8.33" height="22.92" transform="translate(-27.58 143.62) rotate(-33.69)"/><rect x="204.19" y="83.36" width="8.33" height="22.92" transform="translate(-17.6 131.5) rotate(-33.69)"/><rect id="SVGID" class="cls-4" width="300" height="300"/></g></svg>