<svg xmlns="http://www.w3.org/2000/svg" viewBox="0 0 512 512">
  <path fill="#2e52b2" d="M0 0h512v512H0z"/>
  <circle cx="384" cy="181.8" r="29.7" fill="#6da544"/>
  <path fill="#d80027" d="M332.1 174.4H436v44.5H332.1z"/>
  <path d="M436 256z" fill="#496e2d"/>
  <path d="M332 285.7v29.7h15.7a51.7 51.7 0 0072.6 0H436v-29.7H332.1z" fill="#ffda44"/>
  <path d="M332 211.5V256c0 39.8 52 52 52 52s52-12.2 52-52v-44.5H332z" fill="#338af3"/>
  <g fill="#f3f3f3">
    <path d="M384 235.3c-13 0-13 11.8-26 11.8s-13-11.8-26-11.8V256c13 0 13 12 26 12s13-12 26-12 13 12 26 12 13-12 26-12v-20.7c-13 0-13 11.8-26 11.8s-13-11.8-26-11.8z"/>
    <path d="M384 193.7c-13 0-13 11.8-26 11.8s-13-11.8-26-11.8v20.7c13 0 13 12 26 12s13-12 26-12 13 12 26 12 13-12 26-12v-20.7c-13 0-13 11.8-26 11.8s-13-11.8-26-11.8z"/>
  </g>
  <path fill="#f0f0f0" d="M256 0v48.9L215.9 89H256v78h-52.5l52.5 52.5V256h-23.7L167 190.7V256H89v-77.7L11.3 256H0v-48.9L40.1 167H0V89h52.5L0 36.5V0h23.7L89 65.3V0h78v77.7L244.7 0z"/>
  <path fill="#d80027" d="M0 152h104v104h48V152h104v-48H152V0h-48v104H0z"/>
  <path fill="#0052b4" d="M167 167l89 89v-25.2L192.1 167z"/>
  <path fill="#f0f0f0" d="M167 167l89 89v-25.2L192.1 167z"/>
  <g fill="#d80027">
    <path d="M167 167l89 89v-25.2L192.1 167z"/>
    <path d="M63.9 167L0 230.8V256l89-89z"/>
  </g>
  <path fill="#0052b4" d="M89 89L0 0v25.2L63.9 89z"/>
  <path fill="#f0f0f0" d="M89 89L0 0v25.2L63.9 89z"/>
  <g fill="#d80027">
    <path d="M89 89L0 0v25.2L63.9 89z"/>
    <path d="M192.1 89L256 25.2V0l-89 89z"/>
  </g>
</svg>
