<svg xmlns="http://www.w3.org/2000/svg" viewBox="0 0 512 512">
  <path fill="#338af3" d="M0 0h512v512H0z"/>
  <path d="M360.7 266.7H151.3a27 27 0 0027 26.1h-.8a26.2 26.2 0 0026.1 26.2 26.2 26.2 0 0026.2 26.2h52.4a26.2 26.2 0 0026.2-26.2 26.2 26.2 0 0026.1-26.2h-.8a27 27 0 0027-26.1z" fill="#ffda44"/>
  <path d="M328.5 232.4a72.5 72.5 0 01-145 0" fill="#338af3"/>
  <path fill="#ffda44" d="M327.9 225.6l-29.4 12 15.6 24.4-31.8-5.2-4 27.7L256 264l-22.2 20.4-4-27.7-32 5.2 15.7-24.5-29.4-11.9 29.4-11.9-15.6-24.4 31.8 5.2 4-27.7 22.3 20.4 22.2-20.4 4 27.7 32-5.2-15.7 24.4z"/>
</svg>
