<svg xmlns="http://www.w3.org/2000/svg" viewBox="0 0 512 512">
  <path d="M0 0v512h512V0H0zm489.7 478.6h-267V33.4h267v445.2z" fill="#ffda44"/>
  <path fill="#a2001d" d="M222.6 33.4h267.1v445.2H222.6z"/>
  <path fill="#d80027" d="M22.3 107.6h200.3v296.8H22.3z"/>
  <path fill="#ffda44" d="M200.3 85.3h22.3v341.3h-22.3z"/>
  <path fill="#6da544" d="M22.3 33.4h89v445.2h-89z"/>
  <path fill="#ff9811" d="M111.3 33.4h89v445.2h-89z"/>
  <g fill="#ffda44">
    <path d="M358.7 250.4V206c0-7.4-11.2-14.8-11.2-14.8s-11 7.4-11 14.8h-44.6v44.5h22.3v22.3c0 4.9 1 9.5 2.7 13.8l-10.2 8.5h-29.6V157.7c-12.3 0-22.3 10-22.3 22.2v96.5c0 6.6 2.9 12.5 7.4 16.6v35.4h14.9v-18.6h66.7v29.7H329v14.8h29.7v-29.7l13.6-14.8h44.3v29.7h-14.9v14.8h29.7v-29.7l13.6-14.8 12.6-40.3-11-19h-39c-14.2-.2-40.7 0-49 0z"/>
    <path d="M370.6 211.8v25.3H442v13.3h4.4v-17.8H375v-16.3h76v-4.5z"/>
    <path d="M222.6 33.4h22.3v22.3h-22.3z"/>
    <path d="M467.5 33.4h22.3v22.3h-22.3z"/>
    <path d="M222.6 456.3h22.3v22.3h-22.3z"/>
    <path d="M467.5 456.3h22.3v22.3h-22.3z"/>
  </g>
</svg>
