<svg xmlns="http://www.w3.org/2000/svg" viewBox="0 0 512 512">
  <path fill="#ffda44" d="M0 0h512v512H0z"/>
  <path fill="#0052b4" d="M0 0h171v512H0z"/>
  <path fill="#d80027" d="M341 0h171v512H341z"/>
  <path d="M323 215h-46a21 21 0 00-42 0h-46c0 11 10 21 21 21 0 11 9 20 20 20 0 10 8 19 17 20l-16 37a67 67 0 0050 0l-16-37c9-1 17-10 17-20 11 0 20-9 20-20 11 0 21-10 21-21z" fill="#ff9811"/>
  <path fill="#0052b4" d="M256 243l-27 13v25l27 17 27-17v-25z"/>
  <path fill="#d80027" d="M229 231h54v25h-54z"/>
</svg>
