<svg xmlns="http://www.w3.org/2000/svg" viewBox="0 0 512 512">
  <path fill="#496e2d" d="M0 0h512v512H0z"/>
  <path d="M294.3 248.2A45 45 0 00279 251a46.8 46.8 0 004.3-19.2c0-27.4-27.3-47.9-27.3-47.9s-27.3 20.5-27.3 47.9c0 6.9 1.7 13.3 4.3 19.1a45 45 0 00-15.3-2.7c-27.3 0-47.8 27.3-47.8 27.3s20.5 27.3 47.8 27.3c16 0 29.7-9.4 38.3-17.1 8.6 7.7 22.2 17.1 38.3 17.1 27.3 0 47.8-27.3 47.8-27.3s-20.5-27.3-47.8-27.3z" fill="#f0f0f0"/>
  <g fill="#ffda44">
    <path d="M256 123.4l5.6 17.4H280l-14.8 10.7 5.7 17.4L256 158 241.2 169l5.7-17.4-14.8-10.7h18.3z"/>
    <path d="M186.5 153.8l10.9 9.8 12.6-7.3-6 13.3 11 9.8-14.6-1.5-6 13.3-3-14.3-14.5-1.5 12.7-7.3z"/>
    <path d="M135.6 204.6l14.3 3 7.4-12.6 1.5 14.6 14.3 3-13.4 6 1.6 14.5-9.8-10.9-13.4 6 7.3-12.7z"/>
    <path d="M325.5 153.8l-10.9 9.8-12.6-7.3 6 13.3-11 9.8 14.6-1.5 6 13.3 3-14.3 14.5-1.5-12.7-7.3z"/>
    <path d="M376.4 204.6l-14.3 3-7.4-12.6-1.5 14.6-14.3 3 13.4 6-1.6 14.5 9.8-10.9 13.4 6-7.3-12.7z"/>
  </g>
  <g fill="#f0f0f0">
    <path d="M256 379.4c21.7 0 41.7-7.3 57.8-19.5H198.2c16 12.2 36 19.5 57.8 19.5z"/>
    <path d="M168.3 322c3 7 6.9 13.4 11.4 19.4h152.6c4.5-6 8.4-12.5 11.4-19.4H168.3z"/>
  </g>
</svg>
