<svg xmlns="http://www.w3.org/2000/svg" viewBox="0 0 512 512"><path d="M170.66,0V512H341.34V0ZM303.47,240H304v16a48,48,0,0,1-96,0V240h.53c-8.83,0-16.53-7.16-16.53-16h48a16,16,0,0,1,32,0h48C320,232.84,312.3,240,303.47,240Z" fill="#f0f0f0"/><rect width="170.66" height="512" fill="#6da544"/><rect x="341.34" width="170.66" height="512" fill="#d80027"/><path d="M304,240v16a48,48,0,0,1-96,0V240a16,16,0,0,0,16,16,16,16,0,0,0,16,16h32a16,16,0,0,0,16-16A16,16,0,0,0,304,240Z" fill="#6da544"/><path d="M320,224H272a16,16,0,0,0-32,0H192c0,8.84,7.7,16,16.53,16H208a16,16,0,0,0,16,16,16,16,0,0,0,16,16h32a16,16,0,0,0,16-16,16,16,0,0,0,16-16h-.53C312.3,240,320,232.84,320,224Z" fill="#ff9811"/></svg>