<svg xmlns="http://www.w3.org/2000/svg" viewBox="0 0 512 512">
  <path fill="#f0f0f0" d="M0 0h512v512H0z"/>
  <g fill="#d80027">
    <path d="M0 64h512v64H0z"/>
    <path d="M0 192h512v64H0z"/>
    <path d="M0 320h512v64H0z"/>
    <path d="M0 448h512v64H0z"/>
  </g>
  <path fill="#0052b4" d="M0 0h256v256H0z"/>
  <g fill="#ffda44">
    <path d="M143 176.9a48.9 48.9 0 1123.2-92 60.2 60.2 0 100 86c-6.9 3.9-14.8 6-23.2 6z"/>
    <path d="M156.7 93.6l8.7 18.2 19.6-4.6-8.8 18.1 15.8 12.5-19.6 4.5v20l-15.7-12.5-15.7 12.6.1-20.1-19.6-4.5 15.7-12.5-8.7-18 19.6 4.5z"/>
  </g>
</svg>
