<svg xmlns="http://www.w3.org/2000/svg" viewBox="0 0 512 512">
  <path fill="#f0f0f0" d="M0 0h512v512H0z"/>
  <path fill="#ffda44" d="M0 356.2h512V512H0z"/>
  <path fill="#496e2d" d="M0 0h512v156.8H0z"/>
  <path d="M0 188.3h512v134.5H0z"/>
  <path fill="#a2001d" d="M256 256L0 512V0z"/>
  <path fill="#ffda44" d="M83.5 187.2l17 52.6h55.3l-44.7 32.4 17 52.6-44.6-32.5-44.7 32.5 17-52.6-44.7-32.4h55.3z"/>
  <path fill="#f0f0f0" d="M33.5 256h100v45.9h-100z"/>
  <path d="M152.4 203.4l-16.2-16.2-52.7 52.7-52.7-52.7-16.2 16.2 52.7 52.7-52.7 52.7 16.2 16 52.7-52.6 52.7 52.6 16.2-16-52.8-52.7z"/>
</svg>
