<svg xmlns="http://www.w3.org/2000/svg" viewBox="0 0 512 512">
  <path fill="#f0f0f0" d="M0 0h512v512H0z"/>
  <g fill="#338af3">
    <path d="M0 0h512v170.7H0z"/>
    <path d="M0 341.3h512V512H0z"/>
  </g>
  <path d="M256 192a64 64 0 100 128 64 64 0 000-128zm0 100.6a36.6 36.6 0 110-73.2 36.6 36.6 0 010 73.2z" fill="#ffda44"/>
  <path fill="#0052b4" d="M287.7 265.1L256 256l-31.7 9.1-10.5 18.3h84.4z"/>
  <path fill="#338af3" d="M256 210.3l-21.1 36.6L256 256l21.1-9.1z"/>
  <path fill="#6da544" d="M224.3 265.1h63.4L277 247H235z"/>
</svg>
