<?xml version="1.0" encoding="utf-8"?>
<!-- Generator: Adobe Illustrator 24.3.0, SVG Export Plug-In . SVG Version: 6.00 Build 0)  -->
<svg version="1.1" id="Layer_1" xmlns="http://www.w3.org/2000/svg" xmlns:xlink="http://www.w3.org/1999/xlink" x="0px" y="0px"
	 viewBox="0 0 512 512" style="enable-background:new 0 0 512 512;" xml:space="preserve">
<style type="text/css">
	.st0{fill:#D80027;}
	.st1{fill:#F0F0F0;}
	.st2{fill:#0052B4;}
</style>
<rect class="st0" width="100" height="196"/>
<rect y="316" class="st0" width="100" height="196"/>
<rect x="220" class="st0" width="292" height="196"/>
<rect x="220" y="316" class="st0" width="292" height="196"/>
<polygon class="st1" points="100,0 128,0 128,224 0,224 0,196 100,196 "/>
<polygon class="st1" points="0,288 128,288 128,512 100,512 100,316 0,316 "/>
<polygon class="st1" points="512,196 512,224 192,224 192,0 220,0 220,196 "/>
<polygon class="st1" points="192,288 512,288 512,316 220,316 220,512 192,512 "/>
<path class="st2" d="M512,224H192V0h-64v224H0v64h128v224h64V288h320V224z"/>
</svg>
