<svg xmlns="http://www.w3.org/2000/svg" viewBox="0 0 512 512">
  <path fill="#f0f0f0" d="M0 0h512v512H0z"/>
  <path fill="#0052b4" d="M0 512V0l280.4 262.1H87.6L271.2 512z"/>
  <path fill="#d80027" d="M244.8 246.8L10.2 27.6v469.1h234.6L61.2 246.8z"/>
  <g fill="#f0f0f0">
    <path d="M106.8 367.3l-18.2-8.6 9.7-17.6-19.7 3.8-2.5-20-13.8 14.7L48.5 325 46 345 26.3 341l9.7 17.6-18.2 8.6 18.2 8.6-9.7 17.6 19.7-3.8 2.5 20L62.3 395l13.8 14.7 2.5-20 19.7 3.8-9.7-17.6z"/>
    <path d="M99.4 162.3l-15.2-7 8.1-14.8-16.5 3.2-2-16.7-11.5 12.3L50.8 127l-2 16.7-16.5-3.2 8 14.7-15.1 7.1 37.1 7.5z"/>
    <path d="M106.8 162.3a44.5 44.5 0 01-89 0"/>
  </g>
</svg>
