<svg xmlns="http://www.w3.org/2000/svg" viewBox="0 0 300 300">
  <defs>
    <style>
      .cls-2{fill:#fff}.cls-3{fill:#cc142b}
    </style>
  </defs>
    <path fill="#00247d" d="M0 0h300v300H0z"/>
    <path class="cls-2" d="M300 72.3V70h-7.2l-3.2-9.8-3.2 9.8h-10.3l8.4 6-3.2 9.8 8.3-6 8.3 6-3.1-9.8 5.2-3.8z"/>
    <path class="cls-2" d="M234.9 35l9.3 6.9-3.5 11L250 46l9.4 6.8-3.6-11L265 35h-11.5L250 24l-3.6 11H235z"/>
    <path class="cls-2" d="M188.7 81.6l9.3 6.8-3.6 11 9.4-6.8 9.3 6.8-3.5-11 9.3-6.8h-11.5l-3.6-11-3.6 11h-11.5z"/>
    <path class="cls-2" d="M233.2 154.5l10.4 7.6-4 12.2 10.4-7.6 10.4 7.6-4-12.2 10.4-7.6H254l-4-12.2-4 12.2h-12.8z"/>
    <path class="cls-3" d="M281.3 71.7l5.1 3.8-2 6 5.2-3.7 5.2 3.7-2-6 5.1-3.8h-6.3l-2-6-2 6h-6.3z"/>
    <path class="cls-3" d="M240 36.8l6.2 4.4-2.4 7.3L250 44l6.2 4.5-2.4-7.3 6.2-4.5h-7.6l-2.4-7.2-2.4 7.3H240z"/>
    <path class="cls-3" d="M193.8 83.3l6.2 4.4-2.4 7.3 6.2-4.5L210 95l-2.4-7.3 6.2-4.5H206l-2.3-7.2-2.4 7.3h-7.6z"/>
    <path class="cls-3" d="M238.3 156.2l7.2 5.3-2.7 8.4 7.2-5.2 7.2 5.2-2.7-8.5 7.2-5.2h-9l-2.7-8.5-2.8 8.5h-8.9z"/>
    <path class="cls-2" d="M150 0h-22.4l-61 30.5V0H33.4v30.5L0 13.8v72.4l33.3-16.7V100h33.4V69.5l61 30.5H150V88.8l-44.3-22.1H150V33.3h-44.3L150 11.2V0z"/>
    <path class="cls-3" d="M60 100H40V60H0V40h40V0h20v40h90v20H60v40z"/>
    <path class="cls-3" d="M150 92.7l-52-26H83.3L150 100v-7.3z"/>
    <path class="cls-3" d="M135.5 0L69 33.3h14.5L150 0h-14.5z"/>
    <path class="cls-3" d="M0 25v7.3l2.1 1h14.6L0 25z"/>
    <path class="cls-3" d="M0 82.2l31.1-15.5H16.6L0 75v7.2z"/>
</svg>
