<?xml version="1.0" encoding="utf-8"?>
<!-- Generator: Adobe Illustrator 24.3.0, SVG Export Plug-In . SVG Version: 6.00 Build 0)  -->
<svg version="1.1" id="Layer_1" xmlns="http://www.w3.org/2000/svg" xmlns:xlink="http://www.w3.org/1999/xlink" x="0px" y="0px"
	 viewBox="0 0 512 512" style="enable-background:new 0 0 512 512;" xml:space="preserve">
<style type="text/css">
	.st0{fill:#0052B4;}
	.st1{fill:#D80027;}
	.st2{fill:#F0F0F0;}
</style>
<path class="st0" d="M256,0v48.9L215.9,89H256V167h-52.5l52.5,52.5V256h-23.7L167,190.7V256H89v-77.7L11.3,256H0v256h512V0H256z
	 M383,164.6l6.4-19.6l6.3,19.6h20.6l-16.6,12.1l6.3,19.5l-16.6-12.1l-16.6,12.1l6.3-19.5l-16.6-12.1H383z M332.8,262.9l-20,14.5
	l7.6-23.5l-20-14.5h24.7l7.6-23.5l7.6,23.5h24.7l-20,14.5l7.6,23.5L332.8,262.9z M407.1,390.7l-20-14.5l-20,14.5l7.6-23.5
	l-19.9-14.5h24.7l7.6-23.5l7.6,23.5h24.7l-20,14.5L407.1,390.7z M459.3,257.6L446,248l-13.3,9.7l5.1-15.6l-13.3-9.7h16.5l5.1-15.7
	l5.1,15.7h16.5l-13.3,9.7L459.3,257.6z M0,167v40.1L40.1,167H0z M167,0v77.7L244.7,0H167z M0,36.5V89h52.5L0,36.5z M23.7,0L89,65.3
	V0H23.7z"/>
<g>
	<polygon class="st1" points="446,216.7 451,232.3 467.5,232.3 454.2,242 459.3,257.6 446,248 432.6,257.6 437.7,242 424.4,232.3 
		440.9,232.3 	"/>
	<polygon class="st1" points="387.2,329.3 394.8,352.8 419.5,352.8 399.5,367.3 407.1,390.7 387.2,376.2 367.2,390.7 374.8,367.3 
		354.9,352.8 379.5,352.8 	"/>
	<polygon class="st1" points="389.4,145 395.7,164.6 416.3,164.6 399.7,176.7 406,196.2 389.4,184.1 372.8,196.2 379.1,176.7 
		362.5,164.6 383,164.6 	"/>
	<polygon class="st1" points="332.8,216 340.4,239.5 365.1,239.5 345.1,254 352.8,277.4 332.8,262.9 312.9,277.4 320.5,254 
		300.5,239.5 325.2,239.5 	"/>
</g>
<polygon class="st2" points="104,0 104,104 0,104 0,89 52.5,89 0,36.5 0,25.2 63.9,89 89,89 0,0 23.7,0 89,65.3 89,0 "/>
<polygon class="st2" points="104,152 104,256 89,256 89,178.3 11.3,256 0,256 89,167 63.9,167 0,230.8 0,207.1 40.1,167 0,167 
	0,152 "/>
<polygon class="st2" points="192.1,89 256,25.2 256,48.9 215.9,89 256,89 256,104 152,104 152,0 167,0 167,77.7 244.7,0 256,0 
	167,89 "/>
<polygon class="st2" points="256,167 203.5,167 256,219.5 256,230.8 192.1,167 167,167 256,256 232.3,256 167,190.7 167,256 
	152,256 152,152 256,152 "/>
<polygon class="st0" points="167,167 256,256 256,230.8 192.1,167 "/>
<polygon class="st2" points="167,167 256,256 256,230.8 192.1,167 "/>
<polygon class="st0" points="89,89 0,0 0,25.2 63.9,89 "/>
<polygon class="st2" points="89,89 0,0 0,25.2 63.9,89 "/>
<polygon class="st1" points="0,152 104,152 104,256 152,256 152,152 256,152 256,104 152,104 152,0 104,0 104,104 0,104 "/>
<g>
	<polygon class="st1" points="167,167 256,256 256,230.8 192.1,167 	"/>
	<polygon class="st1" points="63.9,167 0,230.8 0,256 0,256 89,167 	"/>
</g>
<g>
	<polygon class="st1" points="89,89 0,0 0,25.2 63.9,89 	"/>
	<polygon class="st1" points="192.1,89 256,25.2 256,0 256,0 167,89 	"/>
</g>
</svg>
