<svg id="flags" xmlns="http://www.w3.org/2000/svg" viewBox="0 0 300 300"><defs><style>.cls-1{fill:#00247d;}.cls-2{fill:#fff;}.cls-3{fill:#cc142b;}</style></defs><g id="new-zealand"><rect id="_15" data-name="15" class="cls-1" width="300" height="300"/><polygon class="cls-2" points="300 72.29 300 70.06 292.79 70.06 289.61 60.27 286.43 70.06 276.14 70.06 284.47 76.1 281.29 85.89 289.61 79.84 297.93 85.89 294.75 76.1 300 72.29"/><polygon id="_6" data-name="6" class="cls-2" points="234.87 35.08 244.22 41.88 240.65 52.87 250 46.08 259.35 52.87 255.78 41.88 265.13 35.08 253.57 35.08 250 24.09 246.43 35.08 234.87 35.08"/><polygon id="_4" data-name="4" class="cls-2" points="188.65 81.58 198.01 88.37 194.43 99.37 203.79 92.57 213.14 99.37 209.57 88.37 218.92 81.58 207.36 81.58 203.79 70.58 200.22 81.58 188.65 81.58"/><polygon id="_2" data-name="2" class="cls-2" points="233.2 154.54 243.58 162.09 239.62 174.29 250 166.75 260.38 174.29 256.42 162.09 266.8 154.54 253.97 154.54 250 142.34 246.03 154.54 233.2 154.54"/><polygon id="_7" data-name="7" class="cls-3" points="281.28 71.73 286.43 75.47 284.46 81.52 289.61 77.78 294.76 81.52 292.79 75.47 297.94 71.73 291.58 71.73 289.61 65.67 287.64 71.73 281.28 71.73"/><polygon id="_5" data-name="5" class="cls-3" points="240 36.75 246.18 41.24 243.82 48.51 250 44.02 256.18 48.51 253.82 41.24 260 36.75 252.36 36.75 250 29.48 247.64 36.75 240 36.75"/><polygon id="_3" data-name="3" class="cls-3" points="193.79 83.25 199.97 87.74 197.61 95 203.79 90.51 209.97 95 207.61 87.74 213.79 83.25 206.15 83.25 203.79 75.98 201.43 83.25 193.79 83.25"/><polygon id="_1" data-name="1" class="cls-3" points="238.33 156.21 245.54 161.45 242.79 169.92 250 164.69 257.21 169.92 254.46 161.45 261.67 156.21 252.75 156.21 250 147.73 247.25 156.21 238.33 156.21"/><polygon class="cls-2" points="150 0 127.64 0 66.67 30.49 66.67 0 33.33 0 33.33 30.49 0 13.82 0 33.33 0 36.18 0 63.82 0 66.67 0 86.18 33.33 69.51 33.33 100 66.67 100 66.67 69.51 127.64 100 150 100 150 88.82 105.69 66.67 150 66.67 150 33.33 105.69 33.33 150 11.18 150 0"/><polygon class="cls-3" points="60 100 40 100 40 60 0 60 0 40 40 40 40 0 60 0 60 40 150 40 150 60 60 60 60 100"/><polygon class="cls-3" points="150 92.71 97.92 66.67 83.39 66.67 150 99.97 150 92.71"/><polygon class="cls-3" points="135.54 0 68.88 33.33 83.41 33.33 150 0.04 150 0 135.54 0"/><polygon class="cls-3" points="0 25 0 32.27 2.13 33.33 16.67 33.33 0 25"/><polygon class="cls-3" points="0 82.22 31.11 66.67 16.57 66.67 0 74.95 0 82.22"/></g></svg>