<svg xmlns="http://www.w3.org/2000/svg" viewBox="0 0 512 512">
  <path d="M0 0h512v512H0z"/>
  <path fill="#a2001d" d="M0 0h512v512"/>
  <g fill="#f0f0f0">
    <path d="M192.6 350.8l3.6 11h11.6l-9.4 6.9 3.6 11-9.4-6.8-9.3 6.8 3.5-11-9.4-6.8h11.7z"/>
    <path d="M163 244.9l6 18.4h19.3l-15.6 11.3 6 18.4-15.7-11.3-15.6 11.3 6-18.4-15.7-11.3H157z"/>
    <path d="M163 379.7l6 18.4h19.3l-15.6 11.4 6 18.4-15.7-11.4-15.6 11.4 6-18.4-15.7-11.4H157z"/>
    <path d="M219.6 293l6 18.4h19.3l-15.7 11.4 6 18.4-15.6-11.4-15.7 11.4 6-18.4-15.7-11.4h19.4z"/>
    <path d="M106.5 293l6 18.4h19.3L116 322.8l6 18.4-15.6-11.4-15.7 11.4 6-18.4L81 311.4h19.4z"/>
  </g>
  <path d="M376.5 204.2a44.2 44.2 0 00-28.2-13l32-24.7a59.2 59.2 0 00-46.4-17.3c-2-7.1-5.8-13.8-11.4-19.5L309.9 155a18.5 18.5 0 00-29.4-4.2 18.6 18.6 0 004.2 29.4l-25.2 12.6a44.3 44.3 0 0019.6 11.4 59.2 59.2 0 0017.2 46.3l27.8-35.8a11 11 0 0115.7 0 11 11 0 010 15.8l10.5 10.5a25.8 25.8 0 002.4-34 29.7 29.7 0 0113.3 49.6l10.5 10.6a44.2 44.2 0 000-63z" fill="#ffda44"/>
</svg>
