<svg xmlns="http://www.w3.org/2000/svg" viewBox="0 0 512 512">
  <path fill="#d80027" d="M0 0h512v512H0z"/>
  <path fill="#0052b4" d="M0 0h512v256H0z"/>
  <path fill="#f0f0f0" d="M0 512l256-256L0 0z"/>
  <g fill="#ffda44">
    <path d="M170 256l-32-15 17-31-35 7-4-35-24 26-24-26-5 35-34-7 17 31-32 15 32 15-17 31 34-7 5 35 24-26 24 26 4-35 35 7-17-31z"/>
    <path d="M22 51l9 13 15-5-10 12 10 13-15-5-10 13 1-16-15-5 15-5z"/>
    <path d="M22 420l9 13 15-5-10 13 10 13-15-5-10 12 1-15-15-5 15-5z"/>
    <path d="M210 236l-9 12-15-4 10 12-9 13 14-5 10 12v-15l14-5-14-5z"/>
  </g>
</svg>
