<?xml version="1.0" encoding="utf-8"?>
<!-- Generator: Adobe Illustrator 24.3.0, SVG Export Plug-In . SVG Version: 6.00 Build 0)  -->
<svg version="1.1" id="Layer_1" xmlns="http://www.w3.org/2000/svg" xmlns:xlink="http://www.w3.org/1999/xlink" x="0px" y="0px"
	 viewBox="0 0 512 512" style="enable-background:new 0 0 512 512;" xml:space="preserve">
<style type="text/css">
	.st0{fill:#F0F0F0;}
	.st1{fill:#D80027;}
	.st2{fill:#0052B4;}
	.st3{fill:#FFDA44;}
</style>
<path class="st0" d="M0,512l256-256L0,0V512z"/>
<polygon class="st1" points="512,256 512,512 0,512 256,256 "/>
<polygon class="st2" points="512,0 512,256 256,256 0,0 "/>
<path class="st3" d="M170,256l-32-15l17-31l-35,7l-4-35l-24,26l-24-26l-5,35l-34-7l17,31l-32,15l32,15l-17,31l34-7l5,35l24-26l24,26
	l4-35l35,7l-17-31L170,256z"/>
<path class="st3" d="M22,51l9,13l15-5L36,71l10,13l-15-5L21,92l1-16L7,71l15-5V51z"/>
<path class="st3" d="M22,420l9,13l15-5l-10,13l10,13l-15-5l-10,12l1-15l-15-5l15-5V420z"/>
<path class="st3" d="M210,236l-9,12l-15-4l10,12l-9,13l14-5l10,12v-15l14-5l-14-5L210,236z"/>
</svg>
