<?xml version="1.0" encoding="utf-8"?>
<!-- Generator: Adobe Illustrator 24.3.0, SVG Export Plug-In . SVG Version: 6.00 Build 0)  -->
<svg version="1.1" id="Layer_1" xmlns="http://www.w3.org/2000/svg" xmlns:xlink="http://www.w3.org/1999/xlink" x="0px" y="0px"
	 viewBox="0 0 512 512" style="enable-background:new 0 0 512 512;" xml:space="preserve">
<style type="text/css">
	.st0{fill:#F0F0F0;}
	.st1{fill:#496E2D;}
</style>
<path class="st0" d="M0,0v512h512V0H0z M360,326.4c-38.9,28.1-93.1,19.3-121.2-19.5c-28.1-38.9-19.3-93.1,19.5-121.2
	c19.2-13.8,42-18.7,63.7-15.5c-11.3,1.5-22.3,5.7-32.2,12.8c-31.6,22.8-38.7,66.9-15.9,98.5c22.8,31.6,66.9,38.7,98.5,15.9
	c9.8-7.1,17.3-16.3,22.2-26.5C391,292.3,379.1,312.5,360,326.4z M392,214.3l-12.7,22.8l-3.1-26l-25.7-5.1l23.7-11l-3.1-26l17.8,19.2
	l23.7-11l-12.7,22.8l17.8,19.2L392,214.3z"/>
<path class="st1" d="M128,0v512h384V0H128z M360,326.4c-38.9,28.1-93.1,19.3-121.2-19.5c-28.1-38.9-19.3-93.1,19.5-121.2
	c19.2-13.8,42-18.7,63.7-15.5c-11.3,1.5-22.3,5.7-32.2,12.8c-31.6,22.8-38.7,66.9-15.9,98.5c22.8,31.6,66.9,38.7,98.5,15.9
	c9.8-7.1,17.3-16.3,22.2-26.5C391,292.3,379.1,312.5,360,326.4z M392,214.3l-12.7,22.8l-3.1-26l-25.7-5.1l23.7-11l-3.1-26l17.8,19.2
	l23.7-11l-12.7,22.8l17.8,19.2L392,214.3z"/>
<g>
	<path class="st0" d="M372.5,297.3c-31.6,22.8-75.7,15.7-98.5-15.9c-22.8-31.6-15.7-75.7,15.9-98.5c9.8-7.1,20.9-11.3,32.2-12.8
		c-21.7-3.2-44.5,1.6-63.7,15.5c-38.9,28.1-47.6,82.4-19.5,121.2c28.1,38.9,82.4,47.6,121.2,19.5c19.1-13.8,31-34,34.7-55.6
		C389.8,281,382.3,290.2,372.5,297.3z"/>
	<polygon class="st0" points="371.1,169.2 388.9,188.4 412.6,177.4 399.9,200.2 417.7,219.4 392,214.3 379.3,237.2 376.2,211.2 
		350.5,206.1 374.2,195.2 	"/>
</g>
</svg>
