<svg xmlns="http://www.w3.org/2000/svg" viewBox="0 0 512 512">
  <path fill="#0052b4" d="M0 0h512v512H0z"/>
  <path fill="#d80027" d="M0 0h512v170.7H0z"/>
  <path fill="#f0f0f0" d="M0 341.3h512V512H0z"/>
  <path d="M101.8 155.8v122.4c0 69.6 91 91 91 91s90.9-21.4 90.9-91V155.8h-182z" fill="#d80027"/>
  <g fill="#ffda44">
    <path d="M139.4 177.2h106.7v-42.7l-21.4 10.7-32-32-32 32-21.3-10.7z"/>
    <path d="M262.3 295.3L193 225.9l-69.3 69.4 22.6 22.6 46.7-46.7 46.7 46.7z"/>
  </g>
  <path d="M262.3 230.5H230a21.3 21.3 0 10-37.3-20.7 21.3 21.3 0 10-37.2 20.7h-31.8a22 22 0 0022 21.3h-.7c0 11.8 9.6 21.4 21.3 21.4 0 10.4 7.5 19 17.4 21L167 332a69.1 69.1 0 0052.2 0l-16.8-38a21.3 21.3 0 0017.4-21c11.8 0 21.3-9.5 21.3-21.3h-.7a22 22 0 0022-21.3z" fill="#f0f0f0"/>
</svg>
