<svg xmlns="http://www.w3.org/2000/svg" viewBox="0 0 512 512">
  <path fill="#6da544" d="M0 0h512v512H0z"/>
  <g fill="#f0f0f0">
    <path d="M159.4 299.5c0 16 13 29 29 29h87a24.2 24.2 0 0024 24.1h29a24.2 24.2 0 0024.2-24.1v-29H159.4z"/>
    <path d="M355 159.4V227c0 10.7-8.6 19.3-19.3 19.3v29A48.4 48.4 0 00384 227v-67.6h-29z"/>
    <path d="M147.3 227c0 10.7-8.6 19.3-19.3 19.3v29a48.4 48.4 0 0048.3-48.3v-67.6h-29V227z"/>
    <path d="M311.6 159.4h29V227h-29z"/>
    <path d="M268 198a4.8 4.8 0 01-9.6 0v-38.6h-29V198a4.8 4.8 0 01-9.6 0v-38.6h-29V198a33.8 33.8 0 0053.1 27.8 33.6 33.6 0 0023.6 5.8c-2 8.4-9.7 14.7-18.7 14.7v29A48.4 48.4 0 00297 227v-67.6h-29V198z"/>
    <path d="M190.8 246.3h43.5v29h-43.5z"/>
  </g>
</svg>
