<svg xmlns="http://www.w3.org/2000/svg" viewBox="0 0 512 512">
  <path fill="#496e2d" d="M0 0h512v512H0z"/>
  <path fill="#0052b4" d="M0 512V0h512"/>
  <path fill="#ffda44" d="M0 466.7V512h45.3L512 45.3V0h-45.3z"/>
  <g fill="#f0f0f0">
    <path d="M64.5 35.2l7.7 23.6h24.9L77 73.4l7.6 23.7-20-14.6L44.3 97l7.7-23.7L32 58.8h24.9z"/>
    <path d="M191.5 35.2l7.6 23.6H224l-20.1 14.6 7.7 23.7-20.1-14.6L171.4 97l7.6-23.7-20-14.6h24.8z"/>
    <path d="M64.5 159l7.7 23.6h24.9L77 197.2l7.6 23.6-20-14.6-20.2 14.6 7.7-23.6L32 182.6h24.9z"/>
    <path d="M191.5 159l7.6 23.6H224l-20.1 14.6 7.7 23.6-20.1-14.6-20.1 14.6 7.6-23.6-20-14.6h24.8z"/>
    <path d="M128 97l7.7 23.7h24.8l-20 14.6 7.6 23.6-20.1-14.6-20.1 14.6 7.7-23.6-20.1-14.6h24.8z"/>
  </g>
</svg>
