<svg xmlns="http://www.w3.org/2000/svg" viewBox="0 0 512 512">
  <path fill="#f0f0f0" d="M0 0h512v512H0z"/>
  <path fill="#d80027" d="M0 0h512v256H0z"/>
  <g fill="#f0f0f0">
    <path d="M69.6 128a74.7 74.7 0 0158.6-73 74.7 74.7 0 100 145.9A74.7 74.7 0 0169.6 128z"/>
    <path d="M165.6 58.7l5.3 16.3H188l-13.9 10 5.3 16.3-13.8-10-13.9 10L157 85l-13.9-10h17.2z"/>
    <path d="M124 90.7l5.3 16.3h17.1l-13.8 10 5.3 16.3-13.9-10-13.9 10 5.3-16.3-13.8-10h17.1z"/>
    <path d="M207.1 90.7l5.3 16.3h17.2l-13.9 10 5.3 16.3-13.9-10-13.8 10 5.3-16.3-13.9-10h17.1z"/>
    <path d="M191.1 138.7l5.3 16.3h17.2l-13.9 10 5.3 16.3-13.9-10-13.8 10 5.3-16.3-13.9-10h17.1z"/>
    <path d="M140 138.7l5.3 16.3h17.1l-13.8 10 5.3 16.3-13.9-10-13.9 10 5.3-16.3-13.8-10h17.1z"/>
  </g>
</svg>
