<?xml version="1.0" encoding="utf-8"?>
<!-- Generator: Adobe Illustrator 24.3.0, SVG Export Plug-In . SVG Version: 6.00 Build 0)  -->
<svg version="1.1" id="Layer_1" xmlns="http://www.w3.org/2000/svg" xmlns:xlink="http://www.w3.org/1999/xlink" x="0px" y="0px"
	 viewBox="0 0 512 512" style="enable-background:new 0 0 512 512;" xml:space="preserve">
<style type="text/css">
	.st0{fill:#D80027;}
	.st1{fill:#F0F0F0;}
</style>
<path class="st0" d="M0,0v256h512V0H0z M101.6,107h17.1l5.3-16.3l5.3,16.3h17.1l-13.8,10l5.3,16.3l-13.9-10l-13.9,10l5.3-16.3
	L101.6,107z M153.9,181.3l-13.9-10l-13.9,10l5.3-16.3l-13.8-10h17.1l5.3-16.3l5.3,16.3h17.1l-13.8,10L153.9,181.3z M151.7,101.3
	L157,85l-13.9-10h17.2l5.3-16.3l5.3,16.3H188l-13.9,10l5.3,16.3l-13.8-10L151.7,101.3z M205,181.3l-13.9-10l-13.8,10l5.3-16.3
	l-13.9-10h17.1l5.3-16.3l5.3,16.3h17.2l-13.9,10L205,181.3z M221,133.3l-13.9-10l-13.8,10l5.3-16.3l-13.9-10h17.1l5.3-16.3l5.3,16.3
	h17.2l-13.9,10L221,133.3z"/>
<path class="st1" d="M165.6,58.7l5.3,16.3H188l-13.9,10l5.3,16.3l-13.8-10l-13.9,10L157,85l-13.9-10h17.2L165.6,58.7z"/>
<path class="st1" d="M124,90.7l5.3,16.3h17.1l-13.8,10l5.3,16.3l-13.9-10l-13.9,10l5.3-16.3l-13.8-10h17.1L124,90.7z"/>
<path class="st1" d="M207.1,90.7l5.3,16.3h17.2l-13.9,10l5.3,16.3l-13.9-10l-13.8,10l5.3-16.3l-13.9-10h17.1L207.1,90.7z"/>
<path class="st1" d="M191.1,138.7l5.3,16.3h17.2l-13.9,10l5.3,16.3l-13.9-10l-13.8,10l5.3-16.3l-13.9-10h17.1L191.1,138.7z"/>
<path class="st1" d="M140,138.7l5.3,16.3h17.1l-13.8,10l5.3,16.3l-13.9-10l-13.9,10l5.3-16.3l-13.8-10h17.1L140,138.7z"/>
<rect y="256" class="st1" width="512" height="256"/>
</svg>
