<svg xmlns="http://www.w3.org/2000/svg" viewBox="0 0 512 512">
  <path fill="#f0f0f0" d="M0 0h512v512H0z"/>
  <path fill="#0052b4" d="M0 167h512v178.1H0z"/>
  <path fill="#d80027" d="M0 345h512v167H0z"/>
  <path d="M83.6 141.3v146.9c0 83.5 109.1 109.1 109.1 109.1S302 371.7 302 288.2V141.3H83.6z" fill="#f0f0f0"/>
  <path d="M109.2 141.3v146.9c0 9.8 2.2 19 6.5 27.7h154c4.4-8.7 6.6-18 6.6-27.7V141.3H109.2z" fill="#d80027"/>
  <path fill="#f0f0f0" d="M244 243.7h-38.5v-25.6h25.6v-25.6h-25.6V167H180v25.6h-25.6v25.6H180v25.6h-38.4v25.6H180V295h25.6v-25.6H244z"/>
  <path d="M150.6 351.7a183.9 183.9 0 0042.1 19c8.7-2.7 25.7-8.7 42.2-19a92 92 0 0034.9-35.8 44.6 44.6 0 00-36-7 44.8 44.8 0 00-82 0 44.9 44.9 0 00-36.1 7 92 92 0 0035 35.8z" fill="#0052b4"/>
</svg>
