<svg xmlns="http://www.w3.org/2000/svg" viewBox="0 0 512 512">
  <path fill="#f0f0f0" d="M0 0h512v512H0z"/>
  <path fill="#d80027" d="M0 0h512v171H0z"/>
  <path fill="#6da544" d="M0 341h512v171H0z"/>
  <g fill="#ffda44">
    <path d="M213 321h86v-36l-17 8-26-25-26 25-17-8z"/>
    <path d="M164 278l4 12h13l-10 8 4 12-11-7-10 7 4-12-11-8h13z"/>
    <path d="M177 235l4 13h13l-11 7 4 13-10-8-11 8 4-13-10-7h13z"/>
    <path d="M212 203l4 13h13l-11 7 4 12-10-7-10 7 4-12-11-7h13z"/>
    <path d="M348 278l-4 12h-13l10 8-4 12 11-7 10 7-4-12 11-8h-13z"/>
    <path d="M335 235l-4 13h-13l11 7-4 13 10-8 11 8-4-13 10-7h-13z"/>
    <path d="M300 203l-4 13h-13l11 7-4 12 10-7 10 7-4-12 11-7h-13z"/>
    <path d="M256 187l4 13h13l-11 7 4 12-10-7-10 7 4-12-11-7h13z"/>
  </g>
</svg>
