<svg xmlns="http://www.w3.org/2000/svg" viewBox="0 0 512 512">
  <path fill="#496e2d" d="M0 0h512v512H0z"/>
  <g fill="#f0f0f0">
    <path d="M407.8 147.5a78 78 0 00-32-92.3 78 78 0 11-51.4 143.3 78 78 0 0083.4-51z"/>
    <path d="M338 45.6l-11 14.1-16.8-6 10 14.8-10.9 14.1 17.2-5 10 14.8.6-17.9 17.1-5-16.8-6z"/>
    <path d="M367.5 91.7l-11 14.1-16.8-6 10.1 14.7-11 14.2 17.2-5 10 14.8.6-18 17.2-5-16.8-6z"/>
    <path d="M285.9 62.4l-11 14.1-16.8-6 10 14.8-10.9 14 17.2-5 10 14.9.6-18 17.1-5-16.8-6z"/>
    <path d="M284.7 115.2l-11 14.1-16.8-6 10 14.7-10.9 14.2 17.2-5 10 14.7.6-17.8 17.1-5-16.8-6z"/>
    <path d="M334.9 133.2l-11 14.1-16.8-6 10 14.8-10.9 14 17.2-5 10 14.9.6-18 17.2-5-16.9-6z"/>
  </g>
  <path fill="#d80027" d="M41.7 0h133.6v512H41.7z"/>
  <path fill="#f0f0f0" d="M92.7 134.8L70.3 118V94.6l22.4-16.7h31.6l22.4 16.7V118l-22.4 16.7z"/>
  <g fill="#ff9811">
    <path d="M108.5 78H92.7L70.3 94.5V106h38.2z"/>
    <path d="M108.5 134.8h15.8l22.4-16.7v-12h-38.2z"/>
  </g>
  <path fill="#f0f0f0" d="M92.7 434l-22.4-16.6V394l22.4-16.7h31.6l22.4 16.7v23.5l-22.4 16.7z"/>
  <g fill="#ff9811">
    <path d="M108.5 377.2H92.7L70.3 394v11.5h38.2z"/>
    <path d="M108.5 434h15.8l22.4-16.6v-12h-38.2z"/>
  </g>
  <g fill="#496e2d">
    <path d="M92.7 284.4l-22.4-16.6v-23.6l22.4-16.6h31.6l22.4 16.6v23.6l-22.4 16.6z"/>
    <path d="M147.5 321h-9.8v-9.7h-17l-12.2-12-12 12H79.2v9.8h-9.7v19.5h9.7v9.7h17.1l12.1 12.1 12.1-12h17.1v-9.8h9.8z"/>
    <path d="M147.5 171.4h-9.8v-9.7h-17l-12.2-12.1-12 12H79.2v9.8h-9.7V191h9.7v9.8h17.1l12.1 12 12.1-12h17.1v-9.8h9.8z"/>
  </g>
  <g fill="#d80027">
    <path d="M97.4 244.9h22.3v22.3H97.4z"/>
    <circle cx="108.5" cy="181.2" r="11.1"/>
    <circle cx="108.5" cy="330.8" r="11.1"/>
  </g>
</svg>
