<?xml version="1.0" encoding="utf-8"?>
<!-- Generator: Adobe Illustrator 24.3.0, SVG Export Plug-In . SVG Version: 6.00 Build 0)  -->
<svg version="1.1" id="Layer_1" xmlns="http://www.w3.org/2000/svg" xmlns:xlink="http://www.w3.org/1999/xlink" x="0px" y="0px"
	 viewBox="0 0 512 512" style="enable-background:new 0 0 512 512;" xml:space="preserve">
<style type="text/css">
	.st0{fill:#D80027;}
	.st1{fill:#F0F0F0;}
</style>
<path class="st0" d="M0,0v512h512V0H0z M160.7,355.5c-53.2,0-96.8-41.8-99.4-94.5c-0.1-1.7-0.1-3.4-0.1-5.1c0-1.7,0-3.4,0.1-5
	c0.1-1.6,0.2-3.2,0.3-4.7c4.6-47,42-84.5,89.2-89.2c1.6-0.2,3.1-0.3,4.7-0.3c1.7-0.1,3.3-0.1,5-0.1c1.7,0,3.4,0,5,0.1
	c25.1,1.2,47.8,11.7,64.6,28.3c-0.1,0-0.2-0.1-0.2-0.1c-8.4-4.5-17.6-7.6-27.5-8.9c-0.5-0.1-1-0.1-1.5-0.2c-1.8-0.2-3.6-0.4-5.4-0.4
	c-1.3-0.1-2.6-0.1-3.9-0.1c-1.4,0-2.7,0-4.1,0.1C145,177.5,111,212.8,111,256s34,78.5,76.6,80.7c1.3,0.1,2.7,0.1,4.1,0.1
	c1.8,0,3.5-0.1,5.3-0.2c1.3-0.1,2.5-0.2,3.8-0.3c1.3-0.1,2.6-0.3,3.9-0.5c8.8-1.4,17.2-4.3,24.8-8.3c0.2-0.1,0.4-0.2,0.7-0.4
	C212.2,344.6,187.7,355.5,160.7,355.5z M317.2,288.3l-38-12.4l-23.5,32.3v-39.9L217.8,256l-0.1,0l38-12.3v-39.9l0.1,0.1l23.4,32.2
	l38-12.3L293.7,256L317.2,288.3z"/>
<g>
	<polygon class="st1" points="255.7,268.3 217.7,256 217.8,256 	"/>
	<polygon class="st1" points="279.2,236 255.8,203.8 255.8,203.7 	"/>
	<polygon class="st1" points="317.2,288.3 279.2,276 255.7,308.3 255.7,308.2 279.2,275.9 	"/>
	<path class="st1" d="M155.6,156.6c-50.9,2.6-91.7,43.4-94.2,94.2C63.8,200,104.7,159.2,155.6,156.6z"/>
	<path class="st1" d="M197,336.6c1.3-0.1,2.5-0.2,3.8-0.3C199.5,336.5,198.2,336.6,197,336.6z"/>
	<path class="st1" d="M200.8,336.3c10.6-1.2,20.5-4.4,29.3-9.4c-0.2,0.2-0.4,0.4-0.6,0.6C220.8,332.1,211,335.2,200.8,336.3z"/>
	<path class="st1" d="M230.1,184.9c-10.3-5.6-22.1-9-34.5-9.6c12.4,0.6,24.1,3.9,34.4,9.5C230,184.8,230.1,184.9,230.1,184.9z"/>
</g>
<g>
	<polygon class="st1" points="255.8,203.7 279.2,236 317.2,223.7 293.7,256 317.2,288.3 279.2,276 255.7,308.3 255.7,268.3 
		217.7,256 255.7,243.7 	"/>
	<path class="st1" d="M191.7,336.8c-44.6,0-80.8-36.2-80.8-80.8s36.2-80.8,80.8-80.8c13.9,0,27,3.5,38.4,9.7
		c-17.9-17.5-42.5-28.4-69.5-28.4c-54.9,0-99.4,44.5-99.4,99.4s44.5,99.4,99.4,99.4c27.1,0,51.6-10.8,69.5-28.4
		C218.8,333.3,205.7,336.8,191.7,336.8z"/>
</g>
</svg>
