<?xml version="1.0" encoding="utf-8"?>
<!-- Generator: Adobe Illustrator 24.3.0, SVG Export Plug-In . SVG Version: 6.00 Build 0)  -->
<svg version="1.1" id="Layer_1" xmlns="http://www.w3.org/2000/svg" xmlns:xlink="http://www.w3.org/1999/xlink" x="0px" y="0px"
	 viewBox="0 0 512 512" style="enable-background:new 0 0 512 512;" xml:space="preserve">
<style type="text/css">
	.st0{fill:#F0F0F0;}
	.st1{fill:#D80027;}
	.st2{fill:#0052B4;}
</style>
<path class="st0" d="M76,128c0,5.6,0.9,11,2.5,16l-34-16l34-16C76.9,117,76,122.4,76,128z"/>
<path class="st0" d="M97.4,86c-8.7,6.4-15.4,15.4-18.8,25.9L60.5,78.9L97.4,86z"/>
<path class="st0" d="M97.4,170l-36.9,7.1l18.1-32.9C82,154.6,88.7,163.7,97.4,170z"/>
<path class="st0" d="M127.9,180l-25.7,27.4l-4.7-37.3C106.1,176.3,116.6,180,127.9,180z"/>
<path class="st0" d="M127.9,76c-11.3,0-21.8,3.7-30.4,9.9l4.7-37.3L127.9,76z"/>
<path class="st0" d="M158.5,85.9c-8.5-6.2-19-9.9-30.4-9.9l25.7-27.4L158.5,85.9z"/>
<path class="st0" d="M158.5,170.1l-4.7,37.3L128.1,180C139.4,180,149.9,176.3,158.5,170.1z"/>
<path class="st0" d="M195.5,177.1l-36.9-7.1c8.7-6.4,15.4-15.4,18.8-25.9L195.5,177.1z"/>
<path class="st0" d="M195.5,78.9l-18.1,32.9c-3.4-10.5-10.1-19.5-18.8-25.9L195.5,78.9z"/>
<path class="st0" d="M177.5,144c1.6-5,2.5-10.4,2.5-16c0-5.6-0.9-11-2.5-16l34,16L177.5,144z"/>
<polygon class="st1" points="512,0 512,512 0,512 0,256 256,256 256,0 "/>
<path class="st2" d="M78.5,144c0,0.1,0,0.1,0.1,0.2l0.1-0.1L78.5,144z M78.6,111.8c0,0.1,0,0.1-0.1,0.2l0.1,0L78.6,111.8z M97.4,86
	l0.1,0l0-0.1C97.5,85.9,97.4,85.9,97.4,86z M97.5,170l-0.1,0c0,0,0.1,0.1,0.1,0.1L97.5,170z M128,179.9L128,179.9L128,179.9
	L128,179.9z M127.9,76L127.9,76h0.2H127.9z M158.5,170l0,0.1c0,0,0.1-0.1,0.1-0.1L158.5,170z M158.5,85.9l0,0.1l0.1,0
	C158.6,85.9,158.5,85.9,158.5,85.9z M177.4,144l0.1,0.1c0-0.1,0-0.1,0-0.2L177.4,144z M177.4,111.8l-0.1,0.1l0.1,0
	C177.5,111.9,177.5,111.9,177.4,111.8z"/>
<path class="st0" d="M128,155.7c-15.3,0-27.7-12.4-27.7-27.7s12.4-27.7,27.7-27.7c15.3,0,27.7,12.4,27.7,27.7S143.3,155.7,128,155.7
	z"/>
<path class="st2" d="M0,0v256h256V0H0z M195.5,78.9l-18.1,32.9c-3.4-10.5-10.1-19.5-18.8-25.9L195.5,78.9z M153.8,48.6l4.7,37.3
	c-8.5-6.2-19-9.9-30.4-9.9L153.8,48.6z M97.4,86c-8.7,6.4-15.4,15.4-18.8,25.9L60.5,78.9L97.4,86z M78.5,112c-1.6,5-2.5,10.4-2.5,16
	s0.9,11,2.5,16l-34-16L78.5,112z M60.5,177.1l18.1-32.9c3.4,10.5,10.1,19.5,18.8,25.9L60.5,177.1z M102.2,48.6L127.9,76
	c-11.3,0-21.8,3.7-30.4,9.9L102.2,48.6z M102.2,207.4l-4.7-37.3c8.5,6.2,19,9.8,30.4,9.9L102.2,207.4z M100.3,128
	c0-15.3,12.4-27.7,27.7-27.7c15.3,0,27.7,12.4,27.7,27.7c0,15.3-12.4,27.7-27.7,27.7C112.7,155.7,100.3,143.3,100.3,128z
	 M153.8,207.4L128.1,180c11.4,0,21.9-3.7,30.4-9.9L153.8,207.4z M158.6,170c8.7-6.4,15.4-15.4,18.8-25.9l18.1,32.9L158.6,170z
	 M177.5,144c1.6-5,2.5-10.4,2.5-16c0-5.6-0.9-11-2.5-16l34,16L177.5,144z"/>
</svg>
