<svg xmlns="http://www.w3.org/2000/svg" viewBox="0 0 300 300">
    <path fill="#ec1e24" d="M0 0h300v300H0z"/>
    <path fill="#2b2f83" d="M0 0h225v150H0z"/>
    <g fill="#fff">
        <path d="M112.5 103a28 28 0 10-28-28 28 28 0 0028 28z"/>
        <path d="M119 43.4L112.4 19l-6.6 24.6a32.1 32.1 0 0113.2 0z"/>
        <path d="M102.4 44.4l-18-18L91 51a32 32 0 0111.4-6.6z"/>
        <path d="M88.4 53.5L64 46.9l18 18a32 32 0 016.5-11.4z"/>
        <path d="M80.9 68.4L56.3 75 81 81.6a32 32 0 01-.1-13.2z"/>
        <path d="M81.8 85l-18 18 24.6-6.5A32.2 32.2 0 0181.8 85z"/>
        <path d="M91 99l-6.6 24.6 18-18A32 32 0 0191 99z"/>
        <path d="M105.9 106.6l6.6 24.5 6.6-24.6a32 32 0 01-13.2 0z"/>
        <path d="M122.5 105.6l18 18L134 99a32 32 0 01-11.4 6.6z"/>
        <path d="M136.5 96.5l24.6 6.5-18-18a31.9 31.9 0 01-6.6 11.5z"/>
        <path d="M144 81.6l24.6-6.6-24.6-6.6a32 32 0 010 13.2z"/>
        <path d="M143.1 64.9l18-18-24.6 6.6a32 32 0 016.6 11.4z"/>
        <path d="M134 51l6.6-24.6-18 18a31.9 31.9 0 0111.4 6.5z"/>
    </g>
</svg>
