<svg id="flags" xmlns="http://www.w3.org/2000/svg" viewBox="0 0 300 300"><defs><style>.cls-1{fill:#ec1e24;}.cls-2{fill:#2b2f83;}.cls-3{fill:#fff;}</style></defs><g id="taiwan"><rect id="_15" data-name="15" class="cls-1" width="300" height="300"/><rect id="_14" data-name="14" class="cls-2" width="225" height="150"/><path id="_13" data-name="13" class="cls-3" d="M112.46,103a28,28,0,1,0-28-28A28,28,0,0,0,112.46,103Z"/><path id="_12" data-name="12" class="cls-3" d="M119,43.41l-6.58-24.55-6.59,24.61A32.12,32.12,0,0,1,119,43.41Z"/><path id="_11" data-name="11" class="cls-3" d="M102.37,44.35l-18-18L91,51A32,32,0,0,1,102.37,44.35Z"/><path id="_10" data-name="10" class="cls-3" d="M88.41,53.5,63.86,46.92l18,18A32.06,32.06,0,0,1,88.41,53.5Z"/><path id="_9" data-name="9" class="cls-3" d="M80.89,68.41,56.34,75,81,81.58A31.94,31.94,0,0,1,80.89,68.41Z"/><path id="_8" data-name="8" class="cls-3" d="M81.83,85.08l-18,18,24.61-6.59A32.16,32.16,0,0,1,81.83,85.08Z"/><path id="_7" data-name="7" class="cls-3" d="M91,99,84.4,123.59l18-18A32.06,32.06,0,0,1,91,99Z"/><path id="_6" data-name="6" class="cls-3" d="M105.89,106.56l6.57,24.55,6.6-24.61A31.94,31.94,0,0,1,105.89,106.56Z"/><path id="_5" data-name="5" class="cls-3" d="M122.55,105.62l18,18L133.93,99A32,32,0,0,1,122.55,105.62Z"/><path id="_4" data-name="4" class="cls-3" d="M136.52,96.47l24.55,6.58-18-18A31.88,31.88,0,0,1,136.52,96.47Z"/><path id="_3" data-name="3" class="cls-3" d="M144,81.57,168.59,75,144,68.39A32,32,0,0,1,144,81.57Z"/><path id="_2" data-name="2" class="cls-3" d="M143.1,64.9l18-18-24.61,6.6A32,32,0,0,1,143.1,64.9Z"/><path id="_1" data-name="1" class="cls-3" d="M134,50.93l6.58-24.55-18,18A31.88,31.88,0,0,1,134,50.93Z"/></g></svg>