<svg xmlns="http://www.w3.org/2000/svg" viewBox="0 0 512 512">
  <path d="M0 0h512v512H0z"/>
  <path fill="#ffda44" d="M0 85.3h512v85.3H0z"/>
  <path fill="#d80027" d="M0 170.7h512V256H0z"/>
  <path fill="#ffda44" d="M0 341.3h512v85.3H0z"/>
  <path fill="#d80027" d="M0 426.7h512V512H0z"/>
  <path d="M341.3 256a85.3 85.3 0 11-170.6 0 85.3 85.3 0 01170.6 0z" fill="#f0f0f0"/>
  <path d="M287.3 260.4L256 246.8l7.7-26a16.5 16.5 0 00-4.4-15.5l7.8-7.9a27.7 27.7 0 00-39.3 0l7.9 7.9a16.6 16.6 0 00-4.2 16.6l-11.8 11.9h21.5s-9 13.3-13.8 24.3c-4.8 11 .1 24.4 11.3 29.3l6.5 3 10.8 10v11.2l-11.1 11.1H267v-22.2l10.2-10.2h21l.3-.6c5-11.2-.1-24.4-11.3-29.3z"/>
</svg>
