<svg xmlns="http://www.w3.org/2000/svg" viewBox="0 0 300 300">
    <path fill="#fff" d="M300 0H0v300h300z"/>
    <g fill="#b22234">
        <path d="M300 0H0v23h300z"/>
        <path d="M300 46.1H0v23.1h300z"/>
        <path d="M300 92.3H0v23h300z"/>
        <path d="M300 138.5H0v23h300z"/>
        <path d="M300 184.6H0v23.1h300z"/>
        <path d="M300 230.8H0v23h300z"/>
        <path d="M300 277H0v23h300z"/>
    </g>
    <path d="M163.7 0H0v161.5h163.7z" fill="#3c3b6e"/>
    <g fill="#fff">
        <path d="M22 13.1l5.4 4-2 6.3 5.4-3.9 5.4 4-2-6.4 5.4-4h-6.7l-2-6.4-2.2 6.4z"/>
        <path d="M59.8 13.1l5.5 4-2.1 6.3 5.4-3.9 5.4 4-2-6.4 5.4-4h-6.7l-2-6.4-2.1 6.4z"/>
        <path d="M97.6 13.1l5.5 4-2.1 6.3 5.4-3.9 5.5 4-2.1-6.4 5.4-4h-6.7l-2-6.4-2.1 6.4z"/>
        <path d="M135.4 13.1l5.4 4-2 6.3 5.4-3.9 5.4 4-2-6.4 5.4-4h-6.7l-2-6.4-2.2 6.4z"/>
        <path d="M3.1 29.3l5.5 4-2.1 6.4 5.4-4 5.4 4-2-6.4 5.4-4H14L12 23l-2.2 6.4z"/>
        <path d="M41 29.3l5.4 4-2.1 6.4 5.4-4 5.4 4-2-6.4 5.4-4h-6.7l-2-6.4-2.2 6.4z"/>
        <path d="M78.7 29.3l5.4 4-2 6.4 5.4-4 5.4 4-2-6.4 5.4-4h-6.7l-2-6.4-2.2 6.4z"/>
        <path d="M116.5 29.3l5.5 4-2 6.4 5.4-4 5.4 4-2-6.4 5.4-4h-6.8l-2-6.4-2.1 6.4z"/>
        <path d="M22 45.5l5.4 4-2 6.4 5.4-4 5.4 4-2-6.4 5.4-4h-6.7l-2-6.4-2.2 6.4z"/>
        <path d="M59.8 45.5l5.5 4-2.1 6.4 5.4-4 5.4 4-2-6.4 5.4-4h-6.7l-2-6.4-2.1 6.4z"/>
        <path d="M97.6 45.5l5.5 4L101 56l5.4-4 5.5 4-2.1-6.4 5.4-4h-6.7l-2-6.4-2.1 6.4z"/>
        <path d="M135.4 45.5l5.4 4-2 6.4 5.4-4 5.4 4-2-6.4 5.4-4h-6.7l-2-6.4-2.2 6.4z"/>
        <path d="M3.6 61.8l5.4 4L7 72l5.4-4 5.5 4-2.1-6.4 5.4-4h-6.7l-2.1-6.3-2 6.4z"/>
        <path d="M41.4 61.8l5.4 4-2 6.3 5.4-4 5.4 4-2-6.4 5.4-4h-6.8l-2-6.3-2.1 6.4z"/>
        <path d="M79.2 61.8l5.4 4-2 6.3 5.4-4 5.4 4-2-6.4 5.4-4H90L88 55.5l-2 6.4z"/>
        <path d="M117 61.8l5.4 4-2 6.3 5.4-4 5.4 4-2-6.4 5.4-4h-6.7l-2.1-6.3-2 6.4z"/>
        <path d="M22.6 77.8l5.4 4-2 6.4 5.4-4 5.5 4-2.1-6.4 5.4-4h-6.7l-2.1-6.4-2 6.4z"/>
        <path d="M60.4 77.8l5.4 4-2 6.4 5.4-4 5.4 4-2-6.4 5.4-4h-6.7l-2.1-6.3-2 6.3z"/>
        <path d="M98.2 77.8l5.4 4-2 6.4 5.4-4 5.4 4-2-6.4 5.4-4H109l-2.1-6.3-2 6.3z"/>
        <path d="M136 77.8l5.4 4-2 6.4 5.4-4 5.4 4-2-6.4 5.4-4h-6.7l-2.1-6.3-2 6.3z"/>
        <path d="M23 109.7l5.4 4-2 6.4 5.4-4 5.4 4-2-6.4 5.4-4h-6.8l-2-6.4-2.1 6.4z"/>
        <path d="M60.8 109.7l5.4 4-2 6.4 5.4-4 5.4 4-2.1-6.4 5.4-4h-6.7l-2-6.4-2.1 6.4z"/>
        <path d="M98.5 109.7l5.5 4-2 6.4 5.3-4 5.5 4-2.1-6.4 5.4-4h-6.7l-2-6.4-2.1 6.4z"/>
        <path d="M136.4 109.7l5.4 4-2 6.4 5.4-4 5.4 4-2.1-6.4 5.4-4h-6.7l-2-6.4-2.1 6.4z"/>
        <path d="M22.5 142l5.4 4-2 6.4 5.4-4 5.4 4-2-6.4 5.4-4h-6.7l-2.1-6.4-2 6.4z"/>
        <path d="M60.3 142l5.4 4-2 6.4 5.4-4 5.4 4-2-6.4 5.4-4h-6.7l-2.1-6.4L67 142z"/>
        <path d="M98 142l5.5 4-2 6.4 5.4-4 5.4 4-2-6.4 5.4-4H109l-2-6.4-2.2 6.4z"/>
        <path d="M135.9 142l5.4 4-2 6.4 5.4-4 5.4 4-2.1-6.5 5.4-4h-6.7l-2-6.3-2 6.4z"/>
        <path d="M3.7 93.6l5.4 4-2 6.4 5.4-4 5.4 4-2-6.4 5.4-4h-6.7l-2.1-6.3-2 6.4z"/>
        <path d="M41.5 93.6l5.4 4-2 6.4 5.4-4 5.4 4-2-6.4 5.4-4h-6.7l-2.1-6.4-2 6.4z"/>
        <path d="M79.3 93.6l5.4 4-2 6.4 5.4-4 5.4 4-2-6.4 5.4-4h-6.7L88 87.4 86 93.6z"/>
        <path d="M117.1 93.6l5.4 4-2 6.4 5.4-4 5.4 4-2-6.4 5.4-4H128l-2-6.3-2.1 6.4z"/>
        <path d="M3.6 125.8l5.4 4-2 6.4 5.4-4 5.5 4-2.1-6.4 5.4-4h-6.7l-2.1-6.4-2 6.4z"/>
        <path d="M41.4 125.8l5.4 4-2 6.4 5.4-4 5.4 4-2-6.4 5.4-4h-6.8l-2-6.4-2.1 6.4z"/>
        <path d="M79.2 125.8l5.4 4-2 6.4 5.4-4 5.4 4-2-6.4 5.4-4H90l-2.1-6.4-2 6.4z"/>
        <path d="M117 125.8l5.4 4-2 6.4 5.4-4 5.4 4-2-6.4 5.4-4h-6.7l-2.1-6.4-2 6.4z"/>
    </g>
</svg>
