<?xml version="1.0" encoding="utf-8"?>
<!-- Generator: Adobe Illustrator 24.3.0, SVG Export Plug-In . SVG Version: 6.00 Build 0)  -->
<svg version="1.1" id="Layer_1" xmlns="http://www.w3.org/2000/svg" xmlns:xlink="http://www.w3.org/1999/xlink" x="0px" y="0px"
	 viewBox="0 0 512 512" style="enable-background:new 0 0 512 512;" xml:space="preserve">
<style type="text/css">
	.st0{fill:#F0F0F0;}
	.st1{fill:#D80027;}
	.st2{fill:#2E52B2;}
</style>
<g>
	<polygon class="st0" points="512,0 512,512 0,512 0,275.7 256,275.7 256,0 	"/>
	<g>
		<rect x="256" y="64" class="st1" width="256" height="64"/>
		<rect x="256" y="192" class="st1" width="256" height="64"/>
		<rect y="320" class="st1" width="512" height="64"/>
		<rect y="448" class="st1" width="512" height="64"/>
	</g>
	<path class="st2" d="M0,0v275.7h256V0H0z M66.2,222.5l-14.6-10.6L37,222.5l5.6-17.2L28,194.7h18.1l5.6-17.2l5.6,17.2h18.1
		l-14.6,10.6L66.2,222.5z M60.6,143.2l5.6,17.2l-14.6-10.6L37,160.4l5.6-17.2L28,132.6h18.1l5.6-17.2l5.6,17.2h18.1L60.6,143.2z
		 M60.6,81l5.6,17.2L51.5,87.6L36.9,98.3L42.5,81L27.8,70.4h18.1l5.6-17.2l5.6,17.2h18.1L60.6,81z M142.6,222.5L128,211.9
		l-14.6,10.6l5.6-17.2l-14.6-10.6h18.1l5.6-17.2l5.6,17.2h18.1L137,205.3L142.6,222.5z M137,143.2l5.6,17.2L128,149.7l-14.6,10.6
		l5.6-17.2l-14.6-10.6h18.1l5.6-17.2l5.6,17.2h18.1L137,143.2z M137,81l5.6,17.2L128,87.6l-14.6,10.6L119,81l-14.6-10.6h18.1
		l5.6-17.2l5.6,17.2h18.1L137,81z M219.1,222.5l-14.6-10.6l-14.6,10.6l5.6-17.2l-14.6-10.6H199l5.6-17.2l5.6,17.2h18.1l-14.6,10.6
		L219.1,222.5z M213.5,143.2l5.6,17.2l-14.6-10.6l-14.6,10.6l5.6-17.2l-14.6-10.6H199l5.6-17.2l5.6,17.2h18.1L213.5,143.2z
		 M213.5,81l5.6,17.2l-14.6-10.6l-14.6,10.6l5.6-17.2l-14.6-10.6H199l5.6-17.2l5.6,17.2h18.1L213.5,81z"/>
	<g>
		<polygon class="st0" points="51.5,115.3 45.9,132.5 27.8,132.5 42.5,143.2 36.9,160.4 51.5,149.7 66.2,160.4 60.6,143.2 
			75.2,132.5 57.1,132.5 		"/>
		<polygon class="st0" points="57.1,194.6 51.5,177.4 45.9,194.6 27.8,194.6 42.5,205.3 36.9,222.5 51.5,211.9 66.2,222.5 
			60.6,205.3 75.2,194.6 		"/>
		<polygon class="st0" points="51.5,53.2 45.9,70.4 27.8,70.4 42.5,81 36.9,98.3 51.5,87.6 66.2,98.3 60.6,81 75.2,70.4 57.1,70.4 
					"/>
		<polygon class="st0" points="128,115.3 122.4,132.5 104.3,132.5 119,143.2 113.4,160.4 128,149.7 142.6,160.4 137,143.2 
			151.7,132.5 133.6,132.5 		"/>
		<polygon class="st0" points="133.6,194.6 128,177.4 122.4,194.6 104.3,194.6 119,205.3 113.4,222.5 128,211.9 142.6,222.5 
			137,205.3 151.7,194.6 		"/>
		<polygon class="st0" points="210.1,194.6 204.5,177.4 198.9,194.6 180.8,194.6 195.4,205.3 189.8,222.5 204.5,211.9 219.1,222.5 
			213.5,205.3 228.2,194.6 		"/>
		<polygon class="st0" points="204.5,115.3 198.9,132.5 180.8,132.5 195.4,143.2 189.8,160.4 204.5,149.7 219.1,160.4 213.5,143.2 
			228.2,132.5 210.1,132.5 		"/>
		<polygon class="st0" points="128,53.2 122.4,70.4 104.3,70.4 119,81 113.4,98.3 128,87.6 142.6,98.3 137,81 151.7,70.4 
			133.6,70.4 		"/>
		<polygon class="st0" points="204.5,53.2 198.9,70.4 180.8,70.4 195.4,81 189.8,98.3 204.5,87.6 219.1,98.3 213.5,81 228.2,70.4 
			210.1,70.4 		"/>
	</g>
</g>
</svg>
