<svg id="flags" xmlns="http://www.w3.org/2000/svg" viewBox="0 0 300 300"><defs><style>.cls-1{fill:#fff;}.cls-2{fill:#b22234;}.cls-3{fill:#3c3b6e;}</style></defs><g id="usa"><path class="cls-1" d="M300,0H0V300H300Z"/><path class="cls-2" d="M300,0H0V23.08H300Z"/><path class="cls-2" d="M300,46.15H0V69.23H300Z"/><path class="cls-2" d="M300,92.31H0v23.08H300Z"/><path class="cls-2" d="M300,138.46H0v23.08H300Z"/><path class="cls-2" d="M300,184.62H0V207.7H300Z"/><path class="cls-2" d="M300,230.77H0v23.08H300Z"/><path class="cls-2" d="M300,276.92H0V300H300Z"/><path class="cls-3" d="M163.71,0H0V161.54H163.71Z"/><path class="cls-1" d="M22,13.11l5.43,3.95-2.07,6.38,5.43-3.94,5.43,3.94-2.07-6.38,5.43-3.95H32.88L30.81,6.73l-2.07,6.38Z"/><path class="cls-1" d="M59.83,13.11l5.43,3.95-2.07,6.38,5.43-3.94,5.43,3.94L72,17.06l5.43-3.95H70.69L68.62,6.73l-2.07,6.38Z"/><path class="cls-1" d="M97.62,13.11l5.43,3.95L101,23.44l5.43-3.94,5.43,3.94-2.07-6.38,5.43-3.95h-6.72l-2.07-6.38-2.07,6.38Z"/><path class="cls-1" d="M135.42,13.11l5.43,3.95-2.07,6.38,5.43-3.94,5.43,3.94-2.07-6.38L153,13.11h-6.72l-2.07-6.38-2.07,6.38Z"/><path class="cls-1" d="M3.13,29.31l5.43,3.95L6.49,39.65l5.43-3.95,5.43,3.95-2.07-6.39,5.43-3.95H14l-2.07-6.38L9.85,29.31Z"/><path class="cls-1" d="M40.92,29.31l5.43,3.95-2.07,6.39,5.43-3.95,5.43,3.95-2.07-6.39,5.43-3.95H51.78l-2.07-6.38-2.07,6.38Z"/><path class="cls-1" d="M78.72,29.31l5.43,3.95-2.07,6.39,5.43-3.95,5.43,3.95-2.07-6.39,5.43-3.95H89.58l-2.07-6.38-2.07,6.38Z"/><path class="cls-1" d="M116.53,29.31,122,33.26l-2.07,6.39,5.43-3.95,5.43,3.95-2.07-6.39,5.43-3.95h-6.72l-2.07-6.38-2.08,6.38Z"/><path class="cls-1" d="M22,45.51l5.43,4-2.07,6.39,5.43-4,5.43,4-2.07-6.39,5.43-4H32.88l-2.07-6.38-2.07,6.38Z"/><path class="cls-1" d="M59.83,45.51l5.43,4-2.07,6.39,5.43-4,5.43,4L72,49.46l5.43-4H70.69l-2.07-6.38-2.07,6.38Z"/><path class="cls-1" d="M97.62,45.51l5.43,4L101,55.85l5.43-4,5.43,4-2.07-6.39,5.43-4h-6.72l-2.07-6.38-2.07,6.38Z"/><path class="cls-1" d="M135.42,45.51l5.43,4-2.07,6.39,5.43-4,5.43,4-2.07-6.39,5.43-4h-6.72l-2.07-6.38-2.07,6.38Z"/><path class="cls-1" d="M3.6,61.77,9,65.71,7,72.1l5.44-3.95,5.43,3.95-2.08-6.39,5.43-3.94H14.46l-2.07-6.39-2.08,6.39Z"/><path class="cls-1" d="M41.39,61.77l5.43,3.94L44.75,72.1l5.43-3.95,5.43,3.95-2.08-6.39L59,61.77H52.25l-2.07-6.39L48.1,61.77Z"/><path class="cls-1" d="M79.2,61.77l5.43,3.94L82.55,72.1,88,68.15l5.43,3.95-2.08-6.39,5.43-3.94H90.06L88,55.38l-2.08,6.39Z"/><path class="cls-1" d="M117,61.77l5.43,3.94-2.08,6.39,5.44-3.95,5.43,3.95-2.08-6.39,5.43-3.94h-6.71l-2.07-6.39-2.08,6.39Z"/><path class="cls-1" d="M22.6,77.83l5.43,4L26,88.16l5.43-3.94,5.43,3.94-2.07-6.38,5.43-4H33.46l-2.08-6.38-2.07,6.38Z"/><path class="cls-1" d="M60.4,77.83l5.43,4-2.08,6.38,5.43-3.94,5.43,3.94-2.07-6.38,5.43-4H71.26l-2.08-6.38-2.07,6.38Z"/><path class="cls-1" d="M98.21,77.83l5.43,4-2.08,6.38L107,84.22l5.43,3.94-2.07-6.38,5.43-4h-6.71L107,71.45l-2.07,6.38Z"/><path class="cls-1" d="M136,77.83l5.43,4-2.08,6.38,5.43-3.94,5.43,3.94-2.07-6.38,5.43-4h-6.71l-2.08-6.38-2.07,6.38Z"/><path class="cls-1" d="M23,109.72l5.43,4-2.07,6.38,5.43-4,5.43,4-2.08-6.38,5.44-4H33.82l-2.07-6.39-2.08,6.39Z"/><path class="cls-1" d="M60.76,109.72l5.43,4-2.07,6.38,5.43-4,5.43,4-2.08-6.38,5.44-4H71.62l-2.07-6.39-2.08,6.39Z"/><path class="cls-1" d="M98.55,109.72l5.43,4-2.07,6.38,5.43-4,5.43,4-2.08-6.38,5.44-4h-6.72l-2.07-6.39-2.08,6.39Z"/><path class="cls-1" d="M136.36,109.72l5.43,4-2.07,6.38,5.43-4,5.43,4-2.08-6.38,5.44-4h-6.72l-2.07-6.39-2.08,6.39Z"/><path class="cls-1" d="M22.5,142l5.43,4-2.08,6.38,5.44-3.94,5.43,3.94-2.08-6.38,5.43-4H33.36l-2.07-6.38L29.21,142Z"/><path class="cls-1" d="M60.3,142l5.43,4-2.08,6.38,5.44-3.94,5.43,3.94-2.08-6.38,5.43-4H71.16l-2.07-6.38L67,142Z"/><path class="cls-1" d="M98.09,142l5.43,4-2.08,6.38,5.44-3.94,5.43,3.94-2.08-6.38,5.43-4H109l-2.07-6.38L104.8,142Z"/><path class="cls-1" d="M135.9,142l5.43,4-2.08,6.38,5.44-3.94,5.43,3.94L148,145.93l5.43-4h-6.71l-2.07-6.38L142.61,142Z"/><path class="cls-1" d="M3.7,93.62l5.43,3.94L7.06,104l5.43-4,5.43,4-2.07-6.39,5.43-3.94H14.56l-2.07-6.39-2.08,6.39Z"/><path class="cls-1" d="M41.51,93.62l5.43,3.94L44.87,104l5.43-4,5.43,4-2.07-6.39,5.43-3.94H52.37L50.3,87.23l-2.08,6.39Z"/><path class="cls-1" d="M79.3,93.62l5.43,3.94L82.66,104l5.43-4,5.43,4-2.08-6.39,5.44-3.94H90.16l-2.07-6.39L86,93.62Z"/><path class="cls-1" d="M117.1,93.62l5.43,3.94L120.46,104l5.43-4,5.43,4-2.08-6.39,5.44-3.94H128l-2.07-6.39-2.08,6.39Z"/><path class="cls-1" d="M3.6,125.83,9,129.77,7,136.16l5.43-3.95,5.43,3.95-2.08-6.39,5.43-3.94H14.46l-2.07-6.39-2.08,6.39Z"/><path class="cls-1" d="M41.39,125.83l5.43,3.94-2.07,6.39,5.43-3.95,5.43,3.95-2.08-6.39L59,125.83H52.25l-2.07-6.39-2.08,6.39Z"/><path class="cls-1" d="M79.2,125.83l5.43,3.94-2.07,6.39L88,132.21l5.43,3.95-2.08-6.39,5.43-3.94H90.06L88,119.44l-2.08,6.39Z"/><path class="cls-1" d="M117,125.83l5.43,3.94-2.08,6.39,5.44-3.95,5.43,3.95-2.08-6.39,5.43-3.94h-6.71l-2.07-6.39-2.08,6.39Z"/></g></svg>