<svg xmlns="http://www.w3.org/2000/svg" viewBox="0 0 512 512">
  <path fill="#d80027" d="M0 0h512v512H0z"/>
  <path fill="#338af3" d="M0 0h512v181.8H0z"/>
  <path fill="#6da544" d="M0 330.2h512V512H0z"/>
  <g fill="#f0f0f0">
    <path d="M173.4 115.3a41 41 0 0132.2-40 41.1 41.1 0 00-49.8 40 41 41 0 0049.8 40 41 41 0 01-32.2-40z"/>
    <path d="M229.8 134l2.8 8.5h9l-7.3 5.3 2.8 8.5-7.3-5.3-7.3 5.3 2.8-8.5-7.2-5.3h9z"/>
    <path d="M258.5 134l2.7 8.5h9l-7.2 5.3 2.7 8.5-7.2-5.3-7.3 5.3 2.8-8.5-7.3-5.3h9z"/>
    <path d="M287.1 134l2.8 8.5h9l-7.3 5.3 2.8 8.5-7.3-5.3-7.2 5.3 2.7-8.5-7.2-5.3h9z"/>
    <path d="M315.8 134l2.7 8.5h9l-7.2 5.3 2.7 8.5-7.2-5.3-7.3 5.3 2.8-8.5-7.3-5.3h9z"/>
    <path d="M344.4 134l2.8 8.5h9l-7.3 5.3 2.8 8.5-7.3-5.3-7.2 5.3 2.7-8.5-7.2-5.3h9z"/>
    <path d="M258.5 104.1l2.7 8.6h9L263 118l2.7 8.5-7.2-5.3-7.3 5.3 2.8-8.5-7.3-5.3h9z"/>
    <path d="M287.1 104.1l2.8 8.6h9l-7.3 5.3 2.8 8.5-7.3-5.3-7.2 5.3 2.7-8.5-7.2-5.3h9z"/>
    <path d="M315.8 104.1l2.7 8.6h9l-7.2 5.3 2.7 8.5-7.2-5.3-7.3 5.3 2.8-8.5-7.3-5.3h9z"/>
    <path d="M344.4 104.1l2.8 8.6h9l-7.3 5.3 2.8 8.5-7.3-5.3-7.2 5.3 2.7-8.5-7.2-5.3h9z"/>
    <path d="M287.1 74.3L290 83h9l-7.3 5.3 2.8 8.5-7.3-5.3-7.2 5.3 2.7-8.5-7.2-5.3h9z"/>
    <path d="M315.8 74.3l2.7 8.6h9l-7.2 5.3 2.7 8.5-7.2-5.3-7.3 5.3 2.8-8.5-7.3-5.3h9z"/>
    <path d="M344.4 74.3l2.8 8.6h9l-7.3 5.3 2.8 8.5-7.3-5.3-7.2 5.3 2.7-8.5-7.2-5.3h9z"/>
    <path d="M0 200.3h512v111.3H0z"/>
  </g>
</svg>
