<?xml version="1.0" encoding="utf-8"?>
<!-- Generator: Adobe Illustrator 24.3.0, SVG Export Plug-In . SVG Version: 6.00 Build 0)  -->
<svg version="1.1" id="Layer_1" xmlns="http://www.w3.org/2000/svg" xmlns:xlink="http://www.w3.org/1999/xlink" x="0px" y="0px"
	 viewBox="0 0 512 512" style="enable-background:new 0 0 512 512;" xml:space="preserve">
<style type="text/css">
	.st0{fill:#D80027;}
	.st1{fill:#0052B4;}
	.st2{fill:#FFDA44;}
	.st3{fill:#F0F0F0;}
</style>
<rect y="367.3" class="st0" width="512" height="144.7"/>
<path class="st1" d="M0,144.7v222.6h512V144.7H0z M120.6,325.4l-12-9.4l-12.7,8.6l5.2-14.4L89,300.8l15.3,0.5l5.3-14.4l4.2,14.7
	l15.3,0.6l-12.7,8.5L120.6,325.4z M142.2,266l-1,15.3l-8.2-13l-14.8,3.7l9.8-11.7l-8.1-13l14.2,5.8l9.8-11.7l-1,15.2l14.1,5.7
	L142.2,266z M181.7,232.9l-6.2,14l-3.2-15l-15.2-1.6l13.2-7.7l-3.1-14.9l11.3,10.2l13.3-7.6l-6.2,14l11.3,10.2L181.7,232.9z
	 M243.9,221.9l-13.7-6.7l-10.6,11l2.1-15.1l-13.7-6.7l15-2.7l2.1-15.1l7.2,13.5l15-2.7l-10.5,11L243.9,221.9z M292.4,226.2l-10.6-11
	l-13.7,6.7l7.1-13.5l-10.6-11l15,2.7l7.3-13.5l2,15.1l15.1,2.7l-13.7,6.7L292.4,226.2z M336.5,246.9l-6.2-14l-15.2,1.6l11.3-10.3
	l-6.2-14l13.3,7.7l11.3-10.2l-3.1,15l13.2,7.6l-15.2,1.6L336.5,246.9z M370.9,281.3l-1-15.3l-15-3.7l14.3-5.7l-1.1-15.2l9.8,11.7
	l14.2-5.8l-8.1,13l9.8,11.7l-14.8-3.7L370.9,281.3z M416.1,324.6l-12.6-8.6l-12,9.4l4.1-14.7l-12.7-8.5l15.3-0.6l4.2-14.7l5.3,14.4
	l15.3-0.5l-12,9.4L416.1,324.6z"/>
<path class="st2" d="M0,0h512v144.7H0V0z"/>
<path class="st3" d="M423,300.8l-12,9.4l5.1,14.4l-12.6-8.6l-12,9.4l4.1-14.7l-12.7-8.5l15.3-0.6l4.2-14.7l5.3,14.4L423,300.8z"/>
<path class="st3" d="M392.1,247.3l-8.1,13l9.8,11.7l-14.8-3.7l-8.1,13l-1-15.3l-15-3.7l14.3-5.7l-1.1-15.2l9.8,11.7L392.1,247.3z"/>
<path class="st3" d="M344.8,207.7l-3.1,15l13.2,7.6l-15.2,1.6l-3.2,15l-6.2-14l-15.2,1.6l11.3-10.3l-6.2-14l13.3,7.7L344.8,207.7z"
	/>
<path class="st3" d="M286.9,186.6l2,15.1l15.1,2.7l-13.7,6.7l2.1,15.1l-10.6-11l-13.7,6.7l7.1-13.5l-10.6-11l15,2.7L286.9,186.6z"/>
<path class="st3" d="M225.1,186.6l7.2,13.5l15-2.7l-10.5,11l7.1,13.5l-13.7-6.7l-10.6,11l2.1-15.1l-13.7-6.7l15-2.7L225.1,186.6z"/>
<path class="st3" d="M167.2,207.7l11.3,10.2l13.3-7.6l-6.2,14l11.3,10.2l-15.2-1.6l-6.2,14l-3.2-15l-15.2-1.6l13.2-7.7L167.2,207.7z
	"/>
<path class="st3" d="M119.9,247.3l14.2,5.8l9.8-11.7l-1,15.2l14.1,5.7l-14.8,3.7l-1,15.3l-8.2-13l-14.8,3.7l9.8-11.7L119.9,247.3z"
	/>
<path class="st3" d="M89,300.8l15.3,0.5l5.3-14.4l4.2,14.7l15.3,0.6l-12.7,8.5l4.2,14.7l-12-9.4l-12.7,8.6l5.2-14.4L89,300.8z"/>
</svg>
