<svg xmlns="http://www.w3.org/2000/svg" viewBox="0 0 512 512">
  <path fill="#d80027" d="M0 0h512v512H0z"/>
  <path fill="#0052b4" d="M0 144.7h512v222.6H0z"/>
  <g fill="#f0f0f0">
    <path d="M423 300.8l-12 9.4 5.1 14.4-12.6-8.6-12 9.4 4.1-14.7-12.7-8.5 15.3-.6 4.2-14.7 5.3 14.4z"/>
    <path d="M392.1 247.3l-8.1 13 9.8 11.7-14.8-3.7-8.1 13-1-15.3-15-3.7 14.3-5.7-1.1-15.2 9.8 11.7z"/>
    <path d="M344.8 207.7l-3.1 15 13.2 7.6-15.2 1.6-3.2 15-6.2-14-15.2 1.6 11.3-10.3-6.2-14 13.3 7.7z"/>
    <path d="M286.9 186.6l2 15.1 15.1 2.7-13.7 6.7 2.1 15.1-10.6-11-13.7 6.7 7.1-13.5-10.6-11 15 2.7z"/>
    <path d="M225.1 186.6l7.2 13.5 15-2.7-10.5 11 7.1 13.5-13.7-6.7-10.6 11 2.1-15.1-13.7-6.7 15-2.7z"/>
    <path d="M167.2 207.7l11.3 10.2 13.3-7.6-6.2 14 11.3 10.2-15.2-1.6-6.2 14-3.2-15-15.2-1.6 13.2-7.7z"/>
    <path d="M119.9 247.3l14.2 5.8 9.8-11.7-1 15.2 14.1 5.7-14.8 3.7-1 15.3-8.2-13-14.8 3.7 9.8-11.7z"/>
    <path d="M89 300.8l15.3.5 5.3-14.4 4.2 14.7 15.3.6-12.7 8.5 4.2 14.7-12-9.4-12.7 8.6 5.2-14.4z"/>
  </g>
  <path fill="#ffda44" d="M0 0h512v144.7H0z"/>
</svg>
