<svg xmlns="http://www.w3.org/2000/svg" viewBox="0 0 512 512">
  <path d="M0 0h512v512H0z"/>
  <path fill="#6da544" d="M512 256v256H0l215-256z"/>
  <path fill="#d80027" d="M512 0v256H215L0 0z"/>
  <path d="M221 231L27 0H9l208 248h295v-17z"/>
  <path d="M9 512h18l194-231h291v-17H217z"/>
  <path d="M0 11v21l188 224L0 480v21l206-245z"/>
  <g fill="#ffda44">
    <path d="M9 0H0v11l206 245L0 501v11h9l208-248h295v-16H217z"/>
    <path d="M56 320v-25c25 0 45-21 45-46 0-17-14-32-32-32-12 0-22 10-22 22 0 8 6 14 14 14 5 0 8-3 8-8h25c0 18-15 33-33 33-21 0-39-17-39-39 0-26 21-47 47-47 32 0 57 26 57 57 0 39-31 71-70 71z"/>
  </g>
</svg>
