<svg xmlns="http://www.w3.org/2000/svg" viewBox="0 0 512 512">
  <path fill="#d80027" d="M0 0h512v512H0z"/>
  <path fill="#0052b4" d="M0 0h256v256H0z"/>
  <g fill="#f0f0f0">
    <path d="M188 145.8l4.4 13.6h14.3l-11.6 8.4 4.4 13.6L188 173l-11.6 8.4 4.4-13.6-11.6-8.4h14.4z"/>
    <path d="M116.1 39l7.4 22.6h23.8l-19.3 14 7.4 22.7-19.3-14-19.3 14 7.4-22.7-19.3-14h23.9z"/>
    <path d="M187.4 62.7l7.3 22.7h23.9l-19.3 14 7.3 22.7-19.2-14-19.3 14 7.3-22.7-19.2-14H180z"/>
    <path d="M131 157.7l7.4 22.7h23.9l-19.3 14 7.3 22.6-19.2-14-19.3 14 7.3-22.6-19.3-14h23.9z"/>
    <path d="M68.6 98.3L76 121h23.8l-19.2 14 7.3 22.7-19.3-14-19.2 14 7.3-22.7-19.3-14h23.9z"/>
  </g>
</svg>
