<svg xmlns="http://www.w3.org/2000/svg" viewBox="0 0 512 512">
  <path d="M0 0h512v512H0z"/>
  <g fill="#ffda44">
    <path d="M0 73.3h512v73.3H0z"/>
    <path d="M0 366.5h512v73.3H0z"/>
  </g>
  <path fill="#6da544" d="M0 0h512v73.3H0z"/>
  <g fill="#d80027">
    <path d="M0 146.6h512v73.3H0z"/>
    <path d="M0 293.2h512v73.3H0z"/>
  </g>
  <path fill="#6da544" d="M0 439.8h512V512H0z"/>
  <path fill="#f0f0f0" d="M277 256L106.3 512H0V0h106.3z"/>
  <path d="M256 256L85.3 512h21L277 256 106.3 0h-21z"/>
  <path fill="#d80027" d="M102.5 171.3l21 64.7h68l-55 40 21 64.7-55-40-55 40 21-64.7-55-40h68z"/>
  <path d="M160.3 261.3l-54.8-19.4s-4-38-4.3-39.3a21.2 21.2 0 10-41.2 9.6l-15.3 15.5H72c0 28.3-21.2 28.3-21.2 56.5l11.7 28.3h70.6l11.8-28.3c1.1-2.7 1.9-5.5 2.2-8.3 10.1-4 13.2-14.6 13.2-14.6z" fill="#ffda44"/>
</svg>
