<svg xmlns="http://www.w3.org/2000/svg" width="28" height="28" fill="none"><defs/><path fill="#00247D" d="M28 0H0v28h28V0z"/><path fill="#00247D" d="M4.62 8.82L12.46 14 5.01 9.08l-.4-.26zM18.28 15.2l-.7-.66-.7.65.06-.96-.95-.14.8-.54-.48-.83.92.28.36-.9.36.9.92-.28-.47.83.8.54-.96.14.04.96zm5.18 7.74l.07.96-.7-.65-.71.64.06-.96-.94-.14.8-.54-.48-.83.92.28.36-.9.36.9.92-.28-.47.83.8.54-.99.15zm2.58-8.59l-.7.5.28.8-.7-.5-.7.5.28-.8-.7-.5h.86l.27-.81.27.8.84.01zm-1.2-8.44l-.47.83.8.54-.96.15.06.97-.7-.65-.71.65.06-.96-.95-.14.8-.54-.47-.84.92.28.36-.9.36.9.9-.29z"/><path fill="#CF142B" d="M4.62 8.82l.4.26L12.45 14h.5v-.58l-6.99-4.6H4.62z"/><path fill="#fff" d="M12.96 8.82V8.1h-9.5V14h.71V9.55L10.91 14h1.55L4.62 8.82h1.35l6.99 4.6v-.77L7.14 8.82h5.82zM6.7 22.35l-1.8-1.23 1.09-1.9-2.1.64-.8-2.03-.78 2.03-1.18-.36c.16 2.24 1.42 3.89 3.54 4.92l-.12-1.74 2.15-.33zM18.37 13.54l.49-.83-.92.28-.36-.9-.35.9-.92-.28.47.83-.78.55.95.14-.08.97.7-.66.71.66-.06-.97.95-.14-.8-.55zM24.1 21.41l-.92.28-.35-.9-.36.9-.9-.28.47.83-.8.55.95.15-.06.96.7-.66.7.66-.07-.96.96-.15-.8-.55.48-.83zM26.23 10.03l.47.83-.8.54.95.14-.06.96.7-.65.38.34a3.23 3.23 0 00-.53-2.4l-.2.52-.91-.28zM23.22 6.2l-.92-.29.48.84-.8.55.96.14-.07.96.7-.65.71.65-.08-.96.97-.14-.8-.55.48-.84-.93.28-.34-.88-.36.88zM24.65 14.35h-.85l.7.5-.26.82.68-.5.7.5-.28-.82.7-.5h-.86l-.26-.81-.27.8z"/><path fill="#CF142B" d="M3.45 5.91V0H1.27v14h2.18V8.09h9.5V5.91h-9.5z"/><path fill="#CF142B" d="M12.02 0L4.18 5.2h1.36l7.4-4.9V0h-.92z"/><path fill="#fff" d="M7.14 5.2l5.8-3.85V.29l-7.4 4.9H4.18L12.02 0h-1.13L4.17 4.45V0h-.72v5.91h9.51v-.72H7.14zM1.27 0H.55v14h.72V0z"/></svg>