<svg xmlns="http://www.w3.org/2000/svg" width="28" height="28" fill="none"><defs/><g clip-path="url(#clip0)"><path fill="#009B3A" d="M28 0H0v28h28V0z"/><path fill="#FEDF00" d="M-2.6 14L14 24.6 30.6 14 14 3.4-2.6 14z"/><path fill="#002776" d="M14 21a7 7 0 100-14 7 7 0 000 14z"/><path fill="#fff" d="M7.6 11.17c-.15.35-.28.7-.37 1.07a16.1 16.1 0 0113.45 3.85c.12-.36.2-.73.25-1.1A16.93 16.93 0 007.6 11.16z"/><path fill="#009B3A" d="M10.27 11.83l.6.02v-.12l-.49-.02v-.17l.39.01v-.1l-.38-.02v-.14l.46.02v-.12l-.57-.02-.01.66zM11.1 11.87h.12l.04-.45.1.47h.1l.17-.44-.04.46.11.01.06-.66-.16-.02-.18.45-.09-.47-.17-.02-.05.67zM12.5 12.02l.48.09L13 12l-.38-.07.03-.15.3.05.03-.1-.31-.06.02-.1.36.06.02-.11-.48-.09-.1.6zM16.62 12.89l-.04.08.24.1.03-.08-.23-.1z"/><path fill="#009B3A" d="M16.77 12.95l-.14.3.1.04.12-.3-.08-.04zM18.67 14.1c-.03.06 0 .13.08.18.08.05.14.05.16.01.07-.11-.35-.28-.22-.48.11-.17.3-.04.38 0 .07.05.18.17.1.31l-.13-.08c.04-.06 0-.12-.07-.16-.06-.04-.1-.05-.15 0-.06.1.35.27.23.47-.1.15-.26.08-.37.01-.09-.06-.23-.2-.14-.33l.13.08zM17.7 13.78l.52.3.06-.11-.42-.24.08-.15.34.19.05-.1-.33-.19.07-.11.4.22.06-.1-.5-.29-.33.58zM19.39 14.58c-.04.05 0 .12.07.18.08.05.13.05.16.02.08-.11-.34-.3-.2-.5.12-.16.3-.02.38.03.06.05.18.18.08.31l-.12-.09c.04-.05 0-.11-.06-.16-.06-.04-.1-.06-.15 0-.07.09.34.28.2.47-.1.15-.26.07-.36 0-.1-.07-.22-.21-.13-.35l.13.1zM8.29 11.59a.3.3 0 10-.26.36.32.32 0 00.26-.36zm-.3-.17c.23 0 .23.4 0 .4s-.23-.4 0-.4zM20.57 15.24a.3.3 0 10-.42.16.32.32 0 00.42-.16zm-.15-.3c.19.12-.04.46-.23.33s.04-.46.23-.34zM9.96 11.3a.3.3 0 00-.22-.13H9.4v.67h.34a.3.3 0 00.21-.12.32.32 0 00.05-.21.34.34 0 00-.05-.22zm-.27.41h-.15v-.41h.19a.18.18 0 01.16.12v.12a.2.2 0 01-.05.13.22.22 0 01-.15.04zM9.05 11.58a.29.29 0 00.1-.14.2.2 0 00-.2-.24l-.41.03.03.66h.13l-.02-.25.21-.02h.06l.07.18v.07h.13l-.03-.18a.4.4 0 00-.07-.1zm-.07-.1a.22.22 0 01-.1.02l-.2.01-.02-.17.2-.01h.07a.1.1 0 01.05.02.07.07 0 01.03.06.1.1 0 01-.03.07zM16.1 12.6a.3.3 0 10-.35.29.32.32 0 00.34-.29zm-.25-.24c.21.06.11.45-.1.4-.23-.06-.12-.46.1-.4zM15.13 12.34a.3.3 0 00.13-.11.2.2 0 00-.1-.29l-.4-.1-.18.64.12.03.06-.24.2.05.06.02c.01.06.02.12 0 .18l-.01.07.11.04a.5.5 0 00.03-.18c0-.04 0-.08-.02-.11zm-.03-.13H15l-.2-.06.04-.17.19.06.07.01a.1.1 0 01.04.05.07.07 0 010 .06.1.1 0 01-.04.05zM17.55 13.32a.3.3 0 00.14-.1.2.2 0 00-.08-.29l-.38-.14-.24.62.12.04.08-.23.2.07.05.02v.19l-.03.07.11.04a.5.5 0 00.05-.18c0-.04 0-.08-.02-.11zm-.02-.13c-.04 0-.07 0-.1-.02l-.2-.07.06-.16.19.07.07.02a.1.1 0 01.04.05.07.07 0 010 .06.1.1 0 01-.06.05zM14.31 12.11a.3.3 0 00.13-.1.2.2 0 00-.11-.29l-.4-.1-.17.65.12.03.06-.25.21.06h.16zm-.04-.12h-.1l-.2-.06.04-.16a3.64 3.64 0 00.26.06.1.1 0 01.05.04.07.07 0 010 .07.1.1 0 01-.05.05z"/><path fill="#009B3A" d="M16.8 12.96a.5.5 0 00-.06-.02c-.05.1-.17.17-.27.1-.19-.14.04-.47.23-.34a.15.15 0 01.07.12l.09.03.03.01a.3.3 0 00-.15-.3.34.34 0 10.12.42l-.07-.02z"/><path fill="#fff" d="M16.43 11.74l-.14.1.05.18-.15-.1-.14.1.05-.18-.14-.1h.18l.05-.18.06.18h.18zM8 12.65l.18.13-.07.2.18-.12.17.13-.07-.21.18-.13h-.22l-.06-.2-.07.2H8zM15.72 13.59l.12.08-.04.15.12-.1.12.1-.05-.15.12-.08h-.15l-.04-.15-.05.15h-.15zM9.46 15.23l.08.05-.03.09.07-.05.08.05-.03-.09.07-.05h-.09l-.03-.09-.02.09h-.1zM8.9 15.39l-.06.2h-.22l.18.13-.07.2.17-.12.18.13-.07-.2.18-.14h-.22l-.07-.2M7.81 16.24l.15.1-.06.18.15-.11.15.1-.06-.17.15-.1H8.1l-.05-.18-.06.18h-.18zM11.1 14.2l.15.1-.06.18.15-.1.14.1-.05-.17.14-.1h-.18l-.05-.18-.06.17h-.18zM10.16 16.3l.14.1-.05.15.13-.1.13.1-.05-.16.13-.1h-.16l-.05-.15-.05.15h-.17zM9.97 17.03l.12.09-.05.14.12-.09.13.09-.05-.14.12-.1h-.15l-.05-.14-.04.15h-.15zM10.91 17.58l.18.13-.07.21.18-.13.17.13-.06-.2.17-.14h-.22l-.06-.2-.07.2h-.22zM13.76 15.07l.15.1-.06.18.15-.1.15.1-.06-.17.15-.1h-.18L14 14.9l-.06.17h-.18zM13.1 15.7l.12.1-.05.13.12-.08.12.08-.04-.14.12-.09h-.15l-.05-.14-.04.14h-.16zM13.52 16.18l.08.06-.03.09.07-.06.08.06-.03-.1.07-.05h-.09l-.03-.08-.03.08h-.09zM14.57 15.68l.15.11-.06.17.15-.1.15.1-.06-.17.15-.1h-.18l-.06-.18-.06.17h-.18zM13.71 17.08l.18.13-.07.2.18-.12.18.13-.07-.21.18-.13h-.22l-.07-.2-.07.2h-.22zM13.9 19.45l.06.04-.02.06.06-.04.05.04-.02-.06.06-.04h-.07l-.02-.07-.03.07h-.07zM15.34 17.86l.13.1-.05.14.12-.1.12.1-.04-.15.12-.09h-.15l-.05-.14-.04.14h-.16zM15.85 18.63l.15.11-.06.17.15-.1.15.1-.06-.17.15-.1h-.18l-.06-.18-.05.17h-.19zM16.77 18.11l.13-.09h-.16l-.04-.14-.05.14h-.15l.12.1-.04.14.12-.1.12.1-.05-.15zM17.28 17.8l.12.08-.05.14.13-.09.12.1-.05-.15.12-.09h-.15l-.04-.14-.05.14h-.15zM17.25 18.45l.15.11-.05.18.14-.11.15.1-.05-.17.14-.1h-.18l-.06-.18-.05.17h-.19zM17.31 19.18l.12.1-.04.14.12-.1.12.1-.04-.15.12-.09h-.15l-.05-.14-.05.14h-.15zM18.01 17.92l.12.09-.04.14.12-.09.12.09-.05-.14.13-.1h-.15l-.05-.14-.05.15h-.15zM18.53 17.55l.15.11-.06.18.15-.11.15.1-.06-.17.15-.1h-.19l-.05-.18-.06.17h-.18M18.95 17l.15.12-.06.17.15-.1.15.1-.06-.17.15-.11h-.18l-.06-.18-.06.18h-.18zM18.62 16.36l.17.13-.06.2.17-.12.18.12-.07-.2.18-.13h-.22l-.07-.2-.06.2h-.22zM19.69 16.46l.12.1-.05.14.12-.1.13.1-.05-.15.12-.09h-.15l-.05-.14-.04.14h-.15z"/></g><defs><clipPath id="clip0"><path fill="#fff" d="M0 14a14 14 0 1128 0 14 14 0 01-28 0z"/></clipPath></defs></svg>