<svg xmlns="http://www.w3.org/2000/svg" width="28" height="28" fill="none"><defs/><g clip-path="url(#clip0)"><path fill="red" d="M28 0H0v28h28V0z"/><path fill="#fff" d="M23.33 0H4.67v28h18.66V0z"/><path fill="red" d="M14 6.42l-1.27 2.37c-.15.26-.4.24-.67.1l-.92-.48.69 3.65c.14.66-.32.66-.55.37l-1.6-1.8-.27.92a.31.31 0 01-.36.21l-2.03-.43.53 1.95c.12.43.2.6-.11.72l-.73.34 3.5 2.85a.46.46 0 01.16.47l-.3 1c1.2-.13 2.28-.34 3.49-.47.1-.01.28.16.28.29l-.16 3.68h.59l-.1-3.67c0-.13.17-.31.27-.3 1.2.13 2.29.34 3.5.48l-.31-1.01a.46.46 0 01.16-.48l3.5-2.84-.72-.34c-.32-.11-.23-.3-.12-.73l.54-1.94-2.04.43a.31.31 0 01-.36-.22l-.27-.91-1.6 1.8c-.23.29-.7.29-.55-.38l.68-3.65-.92.48c-.26.15-.51.17-.66-.1"/></g><defs><clipPath id="clip0"><path fill="#fff" d="M0 14a14 14 0 1128 0 14 14 0 01-28 0z"/></clipPath></defs></svg>