<svg xmlns="http://www.w3.org/2000/svg" width="28" height="28" fill="none"><defs/><path fill="#039" d="M28 0H0v28h28V0z"/><path fill="#FFD300" stroke="#FFD300" stroke-width=".02" d="M6.3 7.93l-.1-.29-.1.3-.33 1H4.4l.25.18.86.62-.33 1-.1.3.26-.18.86-.62.86.62.25.18-.09-.3-.33-1 .86-.62.25-.18H6.63l-.34-1zM9.59 4.61l-.1-.29-.09.29-.33 1H7.69l.25.2.87.61-.33 1-.1.3.25-.19.86-.62.87.62.25.18-.1-.29-.32-1 .86-.62.25-.19H9.92l-.33-1zM14.28 3.36l-.1-.29-.09.29-.33 1h-1.38l.26.19.86.62-.33 1-.1.3.26-.19.86-.62.86.62.25.18-.1-.3-.32-1 .86-.62.25-.18h-1.38l-.33-1zM18.92 4.62l-.1-.3-.08.3-.33 1h-1.39l.26.18.86.62-.33 1-.1.3.26-.18.86-.62.86.62.25.18-.09-.3-.33-1 .86-.62.25-.18h-1.38l-.33-1zM22.34 8l-.1-.29-.09.3-.33 1h-1.38l.25.18.86.62-.32 1-.1.3.25-.18.87-.62.86.62.25.18-.1-.3-.32-1 .86-.62.25-.18h-1.38l-.33-1zM23.6 12.66l-.09-.3-.1.3-.32 1H21.7l.25.18.86.62-.33 1-.09.3.25-.18.86-.62.87.62.24.18-.09-.3-.33-1 .86-.61.25-.19h-1.38l-.33-1zM22.34 17.32l-.1-.29-.1.3-.32 1h-1.38l.25.18.86.62-.33 1-.1.3.25-.18.87-.62.86.62.25.18-.1-.29-.32-1 .86-.63.25-.18h-1.38l-.32-1zM18.92 20.69l-.1-.3-.09.3-.33 1h-1.38l.25.18.87.62-.33 1-.1.3.25-.18.87-.62.86.62.25.18-.1-.3-.33-1 .86-.62.25-.18h-1.37l-.33-1zM14.3 21.92l-.1-.29-.1.29-.32 1H12.4l.25.19.86.62-.33 1-.1.3.26-.18.86-.63.86.63.25.18-.1-.3-.33-1 .87-.62.25-.18h-1.38l-.33-1.01zM9.6 20.66l-.1-.29-.09.3-.33 1H7.7l.26.18.86.62-.33 1-.09.3.25-.18.86-.62.87.62.25.18-.1-.3-.33-1 .87-.62.25-.18H9.93l-.33-1zM6.25 17.3l-.09-.29-.1.29-.32 1H4.35l.26.19.86.62-.33 1-.1.3.26-.18.86-.63.86.62.25.18-.1-.29-.32-1 .86-.63.25-.18H6.58l-.33-1zM4.97 12.57l-.1-.29-.09.29-.33 1.02h-1.4l.26.18.87.63-.33 1.01-.1.3.25-.19.88-.63.87.63.25.18-.1-.29-.33-1.01.87-.63.25-.18H5.3l-.33-1.02z"/></svg>