<svg xmlns="http://www.w3.org/2000/svg" width="28" height="28" fill="none"><defs/><g clip-path="url(#clip0)"><path fill="#fff" d="M28 0H0v28h28V0z"/><path fill="#CF142B" d="M0 22.55l7.77-3.89H4.63L0 20.98v1.57zM0 7.01v1.56l1.54.77h3.11L0 7z"/><path fill="#00247D" d="M0 23.6V28h9.32v-9.07L0 23.6zM0 0v4.4l9.32 4.66V0H0z"/><path fill="#CF142B" d="M28 11.2H16.78V0h-5.6v11.2H0v5.59h11.19v11.2h5.6V16.8H28v-5.6z"/><path fill="#CF142B" d="M28 19.45l-1.58-.79H23.3L28 21.01v-1.56zM28 5.44l-7.76 3.9h3.1L28 7V5.44z"/><path fill="#00247D" d="M28 23.61l-9.35-4.68V28H28V23.6zM28 0h-9.35v9.06L28 4.4V0z"/></g><defs><clipPath id="clip0"><path fill="#fff" d="M0 14a14 14 0 1128 0 14 14 0 01-28 0z"/></clipPath></defs></svg>