<svg xmlns="http://www.w3.org/2000/svg" width="28" height="28" fill="none"><defs/><path fill="#DE2910" d="M28 0H0v28h28V0z"/><path fill="#FFDE00" d="M8.53 7.5l2.46-1.8H7.94L7 2.8l-.94 2.9H3l2.47 1.8-.94 2.9L7 8.6l2.47 1.8-.94-2.9zM14.4 3.15l1-.23-.94-.4.09-1-.67.76-.94-.4.53.87-.67.77 1-.23.51.87.1-1zM17.04 6.08l1 .17-.71-.73.48-.9-.92.45-.7-.73.14 1.01-.92.45 1 .17.15 1 .48-.89zM17.31 9.95l.8-.63-1.01.04-.35-.96-.28.98-1.02.04.85.56-.28.98.8-.63.84.57-.35-.95zM14.42 12.93l.98-.26-.95-.36.04-1.02-.63.8-.95-.36.56.84-.64.8.98-.27.56.85.05-1.02z"/></svg>