<svg xmlns="http://www.w3.org/2000/svg" height="300" width="300" xml:space="preserve" viewBox="0 0 300 300" y="0" x="0" id="flags" version="1.1">
  <g transform="translate(-4500)">
    <path fill="#da251d" d="M4500 0h300v300h-300z"/>
  </g>
  <g transform="translate(-4500)" fill="#fff">
    <path d="M4665.2 86.7c-4.9-7.6-4.7-15.6 1.4-21 1.2-1.2.4-3.2-1.3-3.2-45 1.8-64.8 62.4-19.6 85.5a31.5 31.5 0 01-10.4-16.5 36 36 0 014.2-28.5l1 .7a34.6 34.6 0 00-4 27.5c2 7 6 12.9 11 16.5-8.6-9.4-5-24.6 8.3-30.6 8.8-4 15.9-20.3 9.4-30.4zm-17 13.9c-.6 0-1.3.2-1.7.8-.8 1.3-2.9 1-3.2-.6-.1-.7-.6-1.2-1.3-1.4a1.8 1.8 0 01-.4-3.2c.6-.4 1-1 1-1.7a1.8 1.8 0 012.9-1.4c.5.5 1.2.6 1.8.4 1.5-.6 3 .9 2.3 2.3-.3.7-.2 1.4.2 2 1 1.1 0 3-1.6 2.8z"/>
    <path d="M4738 137.6c-15.7-42.3-79.4-42.4-87.4 7.7 2.2-5.8 6.5-11.1 12.4-15a36 36 0 0128.5-4.8l-.3 1.2a34.6 34.6 0 00-27.4 4.7c-6 4-10.5 9.6-12.4 15.6 6.3-11.1 21.9-12.5 31.7-1.7 6.5 7.2 24.2 8.9 31.8-.4 5.7-7 13.4-9.2 20.5-5.2 1.4.9 3.1-.6 2.5-2.1zm-36.6-4.7c-.7-.1-1.4.2-1.7.8-.9 1.3-3 1-3.3-.6 0-.7-.6-1.2-1.2-1.4a1.8 1.8 0 01-.5-3.3c.6-.3 1-1 1-1.6a1.8 1.8 0 012.9-1.4c.5.5 1.2.6 1.8.3 1.5-.5 3 1 2.3 2.4-.3.6-.2 1.4.2 1.9 1 1.2 0 3-1.5 2.9z"/>
    <path d="M4654.7 149.1c6.1.3 12.5 2.8 18 7.2a36 36 0 0113.5 25.6h-1.3a34.6 34.6 0 00-13-24.6c-5.6-4.5-12.3-7-18.6-6.9 12.5 2.6 18.7 17 11.4 29.7-4.8 8.3-1 25.7 10.3 30 8.3 3.3 12.8 10 11.2 18a1.8 1.8 0 002.8 1.7c35.4-27.9 15.8-88.5-34.3-80.7zm32.4 44.3c-.7-.1-1.3.2-1.7.8-.8 1.3-3 1-3.2-.6-.1-.7-.6-1.2-1.3-1.4a1.8 1.8 0 01-.4-3.3c.6-.3 1-1 .9-1.6a1.8 1.8 0 013-1.4c.4.4 1.1.6 1.8.3 1.5-.5 3 1 2.2 2.4-.2.6-.1 1.4.3 1.9 1 1.2 0 3-1.6 2.9z"/>
    <path d="M4652.3 154.2c1.6 6 1.2 12.8-1.3 19.4a36 36 0 01-20.1 20.6l-.5-1.2c9-3.5 16-10.8 19.4-19.9 2.6-6.7 2.8-13.9.8-19.8 1.5 12.7-10.3 23-24.6 20-9.5-2-24.8 7-25.5 19-.5 9-5.4 15.3-13.6 16.2a1.8 1.8 0 00-.7 3.2c37.4 25 89-12.3 66-57.5zm-27.1 44.3c-.7-.1-1.4.2-1.8.8-.8 1.3-2.9 1-3.2-.6-.1-.7-.6-1.2-1.3-1.4a1.8 1.8 0 01-.4-3.3c.6-.3 1-1 1-1.6a1.8 1.8 0 012.9-1.4c.5.5 1.2.6 1.8.3 1.5-.5 3 1 2.3 2.4-.3.6-.2 1.4.2 1.9 1 1.2 0 3-1.5 2.9z"/>
    <path d="M4627.9 158.3a36 36 0 01-25.9-12.8l1-.9a34.6 34.6 0 0025 12.4c7.1.3 14-1.7 19-5.4-11.6 5.3-25-2.7-26.6-17.3-1-9.6-14.3-21.4-26-18.3-8.6 2.3-16.2-.4-19.5-7.9a1.8 1.8 0 00-3.3.3c-12.3 43.3 39.2 80.9 75.1 45a31.6 31.6 0 01-18.8 4.9zM4601 141c-.6 0-1.3.3-1.7.9-.8 1.3-2.9 1-3.2-.6-.1-.7-.6-1.2-1.3-1.4a1.8 1.8 0 01-.4-3.3c.6-.3 1-1 .9-1.6a1.8 1.8 0 013-1.4c.5.5 1.2.6 1.8.3 1.5-.5 3 1 2.3 2.4-.3.6-.2 1.4.2 1.9 1 1.2 0 3-1.6 2.8z"/>
  </g>
</svg>
