<svg xmlns="http://www.w3.org/2000/svg" width="28" height="28" fill="none"><defs/><g clip-path="url(#clip0)"><path fill="#fff" d="M28 0H0v28h28V0z"/><path fill="#F93" d="M28 0H0v9.33h28V0z"/><path fill="#128807" d="M28 18.67H0V28h28v-9.33z"/><path fill="#008" d="M14 10.27a3.73 3.73 0 100 7.46 3.73 3.73 0 000-7.46zm3.08 4.14a.16.16 0 00.14.18c-.04.17-.08.34-.14.5a.16.16 0 00-.13.3c-.03.09-.07.17-.12.24l-1.64-1.07-.6-.26a.7.7 0 00.03-.1l.61.25 1.93.4-1.87-.61-.65-.1v-.1l.66.08 1.96-.11-1.96-.12-.65.08-.01-.1.65-.1 1.87-.61-1.93.4-.6.24a.7.7 0 00-.05-.09l.6-.26 1.65-1.08.12.24a.16.16 0 00-.1.15.16.16 0 00.1.15.16.16 0 00.13 0c.06.17.1.34.13.51a.16.16 0 00-.07.29c.03.02.07.04.12.03a3.55 3.55 0 010 .53.16.16 0 00-.18.14zm-.96 2.08a.16.16 0 00-.26.2l-.22.14-.9-1.75-.39-.53a.56.56 0 00.08-.07l.41.52 1.47 1.31-.2.18zm-.23-4.95a.16.16 0 00.23-.02l.2.17L14.84 13l-.41.52a.55.55 0 00-.08-.06l.4-.53.88-1.76.22.15a.16.16 0 00.03.22zm.6.35a.16.16 0 00.2.26l.14.22-1.75.88-.53.4a.54.54 0 00-.07-.08l.52-.41 1.31-1.47.18.2zm-2.22-1.14a.16.16 0 00.32.04c.17.03.34.08.51.14a.16.16 0 10.3.12l.24.12-1.08 1.64-.26.6a.7.7 0 00-.1-.03l.25-.61.4-1.93-.61 1.87-.1.65a.63.63 0 00-.1 0l.08-.66-.12-1.97-.11 1.96.08.66-.1.01-.1-.65-.62-1.87.4 1.92.25.61a.72.72 0 00-.1.04l-.26-.6-1.07-1.64.23-.12a.16.16 0 00.3-.13c.17-.06.34-.1.51-.13a.16.16 0 00.33-.05 3.55 3.55 0 01.52 0zm-2.16 5.72a.16.16 0 00-.22.02 3.19 3.19 0 01-.2-.18l1.47-1.3.4-.52.09.06-.4.53-.88 1.75-.22-.14a.16.16 0 00-.04-.23zm-.57-.58a.16.16 0 00-.22-.03l-.15-.22 1.75-.9.53-.39.07.08-.52.41-1.31 1.47a3.22 3.22 0 01-.18-.2.16.16 0 00.03-.22zm-.4-.7a.16.16 0 00-.21-.09c-.06-.16-.1-.34-.14-.5a.16.16 0 00-.04-.33l-.01-.27v-.26a.16.16 0 00.05-.32c.03-.18.08-.35.14-.51a.16.16 0 10.12-.3l.12-.24 1.64 1.07.6.26a.72.72 0 00-.03.1l-.61-.25-1.93-.4 1.87.61.65.1v.1l-.66-.08-1.97.12 1.96.11.66-.08.01.1-.65.1-1.87.62 1.92-.4.61-.25a.7.7 0 00.04.1l-.6.26-1.64 1.07a3.5 3.5 0 01-.12-.23.16.16 0 00.08-.21zm.18-3.04a.16.16 0 00.2-.26l.17-.2 1.3 1.47.53.4a.54.54 0 00-.07.09l-.53-.4-1.75-.88.14-.23zm.57-.63a.16.16 0 00.26-.2l.22-.15.88 1.75.4.53a.55.55 0 00-.08.07l-.41-.52-1.47-1.31.2-.18zm1.85 5.74a.16.16 0 00-.32-.04 3.25 3.25 0 01-.52-.14.16.16 0 00-.2-.21.16.16 0 00-.1.09 3.52 3.52 0 01-.23-.13l1.07-1.64.26-.6a.7.7 0 00.1.03l-.25.61-.4 1.93.61-1.87.1-.65h.1l-.08.66.11 1.96.12-1.96-.08-.65.1-.01.1.65.61 1.87-.4-1.93-.24-.6a.7.7 0 00.09-.05l.26.6 1.08 1.65-.24.12a.16.16 0 10-.3.13c-.17.06-.34.1-.51.13a.16.16 0 00-.32.05h-.52zm2.57-.95l-1.3-1.46-.52-.4a.55.55 0 00.06-.1l.53.4 1.75.89-.14.22a.16.16 0 00-.2.26l-.18.19z"/></g><defs><clipPath id="clip0"><path fill="#fff" d="M0 14a14 14 0 1128 0 14 14 0 01-28 0z"/></clipPath></defs></svg>