<svg xmlns="http://www.w3.org/2000/svg" width="28" height="28" fill="none"><defs/><path fill="#fff" d="M28 0H0v28h28V0z"/><path fill="#000" d="M7.85 7.1l-2.59 3.88.65.43L8.5 7.53l-.65-.43zM6.88 6.45L4.3 10.33l.65.43 2.59-3.88-.65-.43zM8.82 7.74l-2.59 3.89.65.43 2.59-3.88-.65-.44zM23.06 17.24l-1.19 1.78.65.43 1.19-1.78-.65-.43zM22.09 16.59l-1.19 1.78.65.43 1.19-1.78-.65-.43zM20.69 18.7l-1.19 1.77.65.43 1.18-1.78-.64-.43zM21.66 19.34l-1.19 1.78.65.43 1.19-1.78-.65-.43zM19.72 18.04l-1.19 1.78.65.44 1.18-1.78-.64-.44zM21.12 15.94l-1.19 1.78.65.43 1.19-1.78-.65-.43z"/><path fill="#C60C30" d="M14.35 18.79a4.68 4.68 0 10-.74-9.34 4.68 4.68 0 00.74 9.34z"/><path fill="#003478" d="M10.12 11.41A2.33 2.33 0 0014 14a2.33 2.33 0 113.88 2.59 4.67 4.67 0 11-7.76-5.18z"/><path fill="#000" d="M7.31 18.7l-.64.42 1.18 1.78.65-.43L7.3 18.7zM7.42 18.15l.14.21 1.26 1.9.65-.44-2.59-3.88-.64.43 1.18 1.78zM6.34 19.34l-.21-.32-1.19-1.78-.65.43 2.6 3.88.64-.43-1.19-1.78zM5.91 16.59l-.65.43 1.19 1.78.65-.43-1.19-1.78zM20.15 7.1l-.65.43 2.59 3.88.65-.43-2.6-3.88zM22.52 8.55l-.65.43 1.2 1.78.64-.43-1.19-1.78zM21.12 6.45l-.65.43 1.19 1.78.64-.43-1.18-1.78zM20.58 9.85l-.65.43 1.19 1.78.65-.43-1.2-1.78zM19.18 7.74l-.65.44 1.19 1.78.64-.44-1.18-1.78z"/></svg>