<svg width="28" height="28" viewBox="0 0 28 28" fill="none" xmlns="http://www.w3.org/2000/svg">
  <g clip-path="url(#clip0)">
    <path d="M28 0H0v28h28V0z" fill="#00247D"/>
    <mask id="a" maskUnits="userSpaceOnUse" x="0" y="0" width="14" height="10">
      <path fill="#C4C4C4" d="M0 0h14v9.3H0z"/>
    </mask>
    <g mask="url(#a)">
      <path d="M-4.67 0L14 9.33-4.67 0zm0 9.33L14 0-4.67 9.33z" fill="#000"/>
      <path d="M-4.67 9.33L14 0M-4.67 0L14 9.33-4.67 0z" stroke="#fff" stroke-width="1.87"/>
      <path d="M-4.67 0L14 9.33-4.67 0zm0 9.33L14 0-4.67 9.33z" fill="#000"/>
      <path d="M-4.67 9.33L14 0M-4.67 0L14 9.33-4.67 0z" stroke="#CC142B" stroke-width="1.24"/>
      <path d="M4.67 0v9.33V0zm-9.34 4.67H14-4.67z" fill="#000"/>
      <path d="M-4.67 4.67H14M4.67 0v9.33V0z" stroke="#fff" stroke-width="3.11"/>
      <path d="M4.67 0v9.33V0zm-9.34 4.67H14-4.67z" fill="#000"/>
      <path d="M-4.67 4.67H14M4.67 0v9.33V0z" stroke="#CC142B" stroke-width="1.87"/>
    </g>
    <path d="M25.77 6.54l.78.56-.3.92.78-.57.78.57-.3-.92.78-.56h-.96l-.3-.91-.3.9h-.96z" fill="#fff"/>
    <path d="M26.25 6.7l.48.34-.18.57.48-.35.48.35-.18-.57.48-.35h-.6l-.18-.56-.18.56h-.6z" fill="#CC142B"/>
    <path d="M21.92 3.27l.87.64-.33 1.02.87-.63.88.63-.34-1.02.88-.64h-1.08l-.34-1.02L23 3.27h-1.08z" fill="#fff"/>
    <path d="M22.4 3.43l.58.42-.22.68.57-.42.58.42-.22-.68.58-.42h-.72l-.22-.68-.22.68h-.71z" fill="#CC142B"/>
    <path d="M17.6 7.61l.88.64-.33 1.02.87-.63.87.63-.33-1.02.87-.64h-1.08l-.33-1.02-.33 1.02H17.6z" fill="#fff"/>
    <path d="M18.09 7.77l.57.42-.22.68.58-.42.58.42-.22-.68.57-.42h-.7l-.23-.68-.22.68h-.71z" fill="#CC142B"/>
    <path d="M21.76 14.42l.97.7-.37 1.15.97-.7.97.7-.37-1.14.97-.7h-1.2l-.37-1.14-.37 1.13h-1.2z" fill="#fff"/>
    <path d="M22.24 14.58l.68.49-.26.79.67-.49.68.49-.26-.8.67-.48h-.83l-.26-.8-.25.8h-.84z" fill="#CC142B"/>
  </g>
  <defs>
    <clipPath id="clip0">
      <path d="M0 14a14 14 0 1128 0 14 14 0 01-28 0z" fill="#fff"/>
    </clipPath>
  </defs>
</svg>
