<svg xmlns="http://www.w3.org/2000/svg" width="28" height="28" fill="none">
  <path fill="#EC1E24" d="M28 0H0v28h28V0z"/>
  <path fill="#2B2F83" d="M21 0H0v14h21V0z"/>
  <path fill="#fff" d="M10.5 9.61a2.61 2.61 0 100-5.22 2.61 2.61 0 000 5.22zm.6-5.56l-.6-2.29-.62 2.3a3 3 0 011.23 0zm-1.55.09L7.87 2.46l.62 2.3c.31-.28.67-.49 1.06-.62zm-1.3.85l-2.29-.61 1.68 1.68a3 3 0 01.61-1.07zm-.7 1.4L5.25 7l2.3.61c-.08-.4-.08-.82 0-1.23zm.09 1.55L5.96 9.62l2.3-.61a3 3 0 01-.62-1.07zm.85 1.3l-.61 2.3 1.68-1.68a3 3 0 01-1.07-.62zm1.4.7l.6 2.3.62-2.3c-.4.09-.82.09-1.23 0zm1.55-.08l1.68 1.68-.62-2.3c-.3.28-.67.49-1.06.62zm1.3-.86l2.3.62-1.69-1.68c-.12.4-.33.75-.6 1.06zm.7-1.39l2.3-.61-2.3-.62c.08.4.08.83 0 1.23zm-.08-1.55l1.68-1.68-2.3.61c.28.31.49.67.62 1.07zm-.85-1.3l.61-2.3-1.68 1.68c.4.13.76.34 1.07.61z"/>
</svg>
