<svg xmlns="http://www.w3.org/2000/svg" width="28" height="28" fill="none"><defs/><g clip-path="url(#clip0)"><path fill="#fff" d="M28 0H0v28h28V0z"/><path fill="#B22234" d="M28 0H0v2.15h28V0zM28 4.3H0v2.16h28V4.31zM28 8.62H0v2.15h28V8.62zM28 12.92H0v2.16h28v-2.16zM28 17.23H0v2.16h28v-2.16zM28 21.54H0v2.15h28v-2.15zM28 25.85H0V28h28v-2.15z"/><path fill="#3C3B6E" d="M15.28 0H0v15.08h15.28V0z"/><path fill="#fff" d="M2.05 1.22l.51.37-.2.6.51-.37.51.37-.2-.6.51-.37h-.62l-.2-.6-.19.6h-.63zM5.58 1.22l.51.37-.2.6.51-.37.51.37-.19-.6.5-.37H6.6l-.2-.6-.19.6h-.63zM9.11 1.22l.5.37-.18.6.5-.37.51.37-.2-.6.51-.37h-.62l-.2-.6-.19.6h-.63zM12.64 1.22l.5.37-.19.6.51-.37.5.37-.19-.6.51-.37h-.63l-.19-.6-.2.6h-.62zM.3 2.74l.5.36-.2.6.51-.37.51.37-.2-.6.51-.36h-.62l-.2-.6-.19.6H.29zM3.82 2.74l.5.36-.19.6.51-.37.5.37-.19-.6.51-.36h-.63l-.19-.6-.2.6h-.62zM7.35 2.74l.5.36-.19.6.5-.37.51.37-.19-.6.5-.36h-.62l-.2-.6-.19.6h-.62zM10.88 2.74l.5.36-.19.6.51-.37.5.37-.19-.6.51-.36h-.63l-.19-.6-.2.6h-.62zM2.05 4.25l.51.37-.2.6.51-.38.51.38-.2-.6.51-.37h-.62l-.2-.6-.19.6h-.63zM5.58 4.25l.51.37-.2.6.51-.38.51.38-.19-.6.5-.38H6.6l-.2-.6-.19.6h-.63zM9.11 4.25l.5.37-.18.6.5-.38.51.37-.2-.6.51-.37h-.62l-.2-.6-.19.6h-.63zM12.64 4.25l.5.37-.19.6.51-.38.5.38-.19-.6.51-.37h-.63l-.19-.6-.2.6h-.62zM.34 5.77l.5.36-.19.6.51-.37.5.37-.19-.6.51-.36h-.63l-.2-.6-.19.6H.34zM3.86 5.77l.51.36-.2.6.51-.37.51.37-.2-.6.52-.36h-.63l-.2-.6-.19.6h-.63zM7.4 5.77l.5.36-.2.6.51-.37.51.37-.2-.6.51-.36h-.62l-.2-.6-.2.6H7.4zM10.92 5.77l.5.36-.19.6.51-.37.5.37-.19-.6.51-.36h-.63l-.19-.6-.2.6h-.62zM2.1 7.26l.52.38-.2.59.51-.37.51.37-.2-.6.51-.37h-.63l-.2-.6-.18.6H2.1zM5.64 7.26l.5.38-.19.6.5-.37.51.36-.19-.6.5-.37h-.62l-.2-.6-.19.6h-.62zM9.17 7.26l.5.38-.2.6.52-.38.5.37-.19-.6.5-.37h-.62l-.2-.6-.19.6h-.62zM12.7 7.26l.5.38-.2.6.51-.37.51.36-.2-.6.51-.37h-.62l-.2-.6-.19.6h-.63zM2.15 10.24l.5.37-.19.6.5-.37.51.37-.19-.6.5-.37h-.62l-.2-.6-.2.6h-.61zM5.67 10.24l.5.37-.19.6.51-.37.5.37-.19-.6.51-.37h-.63l-.19-.6-.2.6h-.62zM9.2 10.24l.5.37-.19.6.5-.37.52.37-.2-.6.5-.37h-.62l-.2-.6-.19.6H9.2zM12.73 10.24l.5.37-.19.6.5-.37.51.37-.19-.6.5-.37h-.62l-.2-.6-.19.6h-.62zM2.1 13.25l.5.38-.19.6.51-.38.5.37-.19-.6.51-.37h-.63l-.19-.6-.2.6H2.1zM5.63 13.25l.5.38-.19.6.5-.38.52.37-.2-.6.5-.37h-.62l-.2-.6-.19.6h-.62zM9.15 13.25l.51.38-.2.6.51-.38.51.37-.2-.6.51-.37h-.62l-.2-.6-.19.6h-.63zM12.68 13.25l.51.38-.2.6.51-.38.51.37-.2-.6.51-.37h-.63l-.19-.6-.19.6h-.63zM.35 8.74l.5.37-.2.6.52-.38.5.38-.19-.6.5-.37h-.62l-.2-.6-.19.6H.35zM3.87 8.74l.51.37-.2.6.51-.38.51.38-.2-.6.51-.37H4.9l-.2-.6-.19.6h-.63zM7.4 8.74l.5.37-.19.6.51-.38.5.38-.19-.6.51-.37h-.63l-.19-.6-.2.6H7.4zM10.93 8.74l.5.37-.19.6.5-.38.52.38-.2-.6.5-.37h-.61l-.2-.6-.2.6h-.62zM.34 11.74l.5.37-.19.6.51-.37.5.37-.19-.6.51-.37h-.63l-.2-.6-.19.6H.34zM3.86 11.74l.51.37-.2.6.51-.37.51.37-.2-.6.52-.37h-.63l-.2-.6-.19.6h-.63zM7.4 11.74l.5.37-.2.6.51-.37.51.37-.2-.6.51-.37h-.62l-.2-.6-.2.6H7.4zM10.92 11.74l.5.37-.19.6.51-.37.5.37-.19-.6.51-.37h-.63l-.19-.6-.2.6h-.62z"/></g><defs><clipPath id="clip0"><path fill="#fff" d="M0 14a14 14 0 1128 0 14 14 0 01-28 0z"/></clipPath></defs></svg>