<svg xmlns="http://www.w3.org/2000/svg" width="150" height="150" fill="none">
  <g clip-path="url(#a)">
    <path fill="#F33F68" d="M75 141c36.451 0 66-29.549 66-66 0-36.45-29.549-66-66-66C38.55 9 9 38.55 9 75c0 36.451 29.55 66 66 66Z" opacity=".4"/>
    <path fill="url(#b)" d="M75 141c36.451 0 66-29.549 66-66 0-36.45-29.549-66-66-66C38.55 9 9 38.55 9 75c0 36.451 29.55 66 66 66Z" opacity=".4"/>
    <g filter="url(#c)" style="mix-blend-mode:overlay">
      <path fill="url(#d)" d="M75 150c41.421 0 75-33.579 75-75 0-41.422-33.579-75-75-75C33.578 0 0 33.578 0 75c0 41.421 33.578 75 75 75Z"/>
    </g>
    <path stroke="#F33F68" stroke-linecap="round" stroke-linejoin="round" stroke-width="3" d="M75 148c40.317 0 73-32.683 73-73S115.317 2 75 2 2 34.683 2 75s32.683 73 73 73Z"/>
    <path fill="url(#e)" fill-rule="evenodd" d="m80.973 43.859 5.462 2.844c.21.114.453.163.699.149l8.022-.54c2.516-.157 4.317.533 5.64 2.094 1.324 1.562 2.187 4.174 2.187 7.98 0 2.251.197 3.697.897 4.958.544.975 1.266 1.713 2.238 2.705.29.297.603.616.94.971 1.912 2.004 2.392 2.647 2.672 6.635l1.062 15.369.051.694c.143 1.92.252 3.378.032 4.654-.248 1.417-.844 2.721-2.488 4.522l-7.747 8.475c-2 2.188-5.004 1.683-7.51 1.261-.25-.042-.495-.083-.734-.121l-14.87-2.338c-1.644-.261-2.706-.896-3.399-1.714-.699-.812-1.088-1.867-1.083-3.11.024-3.274 1.145-3.221 3.245-3.121.388.018.811.038 1.266.039 2.596.007 5.131-.388 6.886-1.84.293-.24.536-.453.743-.633 1.141-.996 1.188-1.037 2.587.279 1.69 1.59 4.137 2.194 6.653 2.194 2.515 0 4.879-.694 6.652-2.194 1.776-1.502 2.866-3.828 2.866-6.665l-.769-19.143c.111-1.846-1.978-1.846-1.87 0v19.143c0 2.205-.745 3.657-1.938 4.665-1.187 1.01-2.914 1.564-4.941 1.564-2.028 0-3.755-.556-4.947-1.564-1.187-1.008-1.879-2.46-1.927-4.665l-.58-24.57c-.057-2.135-2.063-1.37-2.063 0v24.57c0 1.871-.666 3.957-1.96 4.863-1.254.886-3.179 1.365-5.392 1.365-2.215 0-4.125-.493-5.387-1.365-1.267-.873-1.946-2.026-1.973-3.9l-.41-24.653c-.034-2.143-2.221-1.377-2.221 0v24.652c0 1.875-.712 3.028-1.974 3.9-1.259.873-3.178 1.367-5.391 1.367-2.207 0-4.124-.494-5.386-1.366-1.268-.873-1.967-2.026-1.967-3.9V67.846c.023-1.766-2.185-1.766-2.17 0L50.21 86.47c0 2.238-3.378 2.899-5.673 2.899-1.535 0-2.816-.694-3.837-2.092-1.015-1.4-1.7-3.52-1.7-6.133V64.697c0-2.638.378-4.67 1.131-5.993.748-1.322 1.782-2.074 3.735-2.379l6.811-1.05a1.33 1.33 0 0 0 .835-.485l4.982-6.26c.899-1.133 3.104-1.856 4.893-1.615l6.721.886c.308.04.625-.027.884-.191l6.023-3.825c1.925-1.229 4.165-.868 5.958.074Z" opacity=".85"/>
    <path fill="url(#f)" fill-rule="evenodd" d="m80.973 43.859 5.462 2.844c.21.114.453.163.699.149l8.022-.54c2.516-.157 4.317.533 5.64 2.094 1.324 1.562 2.187 4.174 2.187 7.98 0 2.251.197 3.697.897 4.958.544.975 1.266 1.713 2.238 2.705.29.297.603.616.94.971 1.912 2.004 2.392 2.647 2.672 6.635l1.062 15.369.051.694c.143 1.92.252 3.378.032 4.654-.248 1.417-.844 2.721-2.488 4.522l-7.747 8.475c-2 2.188-5.004 1.683-7.51 1.261-.25-.042-.495-.083-.734-.121l-14.87-2.338c-1.644-.261-2.706-.896-3.399-1.714-.699-.812-1.088-1.867-1.083-3.11.024-3.274 1.145-3.221 3.245-3.121.388.018.811.038 1.266.039 2.596.007 5.131-.388 6.886-1.84.293-.24.536-.453.743-.633 1.141-.996 1.188-1.037 2.587.279 1.69 1.59 4.137 2.194 6.653 2.194 2.515 0 4.879-.694 6.652-2.194 1.776-1.502 2.866-3.828 2.866-6.665l-.769-19.143c.111-1.846-1.978-1.846-1.87 0v19.143c0 2.205-.745 3.657-1.938 4.665-1.187 1.01-2.914 1.564-4.941 1.564-2.028 0-3.755-.556-4.947-1.564-1.187-1.008-1.879-2.46-1.927-4.665l-.58-24.57c-.057-2.135-2.063-1.37-2.063 0v24.57c0 1.871-.666 3.957-1.96 4.863-1.254.886-3.179 1.365-5.392 1.365-2.215 0-4.125-.493-5.387-1.365-1.267-.873-1.946-2.026-1.973-3.9l-.41-24.653c-.034-2.143-2.221-1.377-2.221 0v24.652c0 1.875-.712 3.028-1.974 3.9-1.259.873-3.178 1.367-5.391 1.367-2.207 0-4.124-.494-5.386-1.366-1.268-.873-1.967-2.026-1.967-3.9V67.846c.023-1.766-2.185-1.766-2.17 0L50.21 86.47c0 2.238-3.378 2.899-5.673 2.899-1.535 0-2.816-.694-3.837-2.092-1.015-1.4-1.7-3.52-1.7-6.133V64.697c0-2.638.378-4.67 1.131-5.993.748-1.322 1.782-2.074 3.735-2.379l6.811-1.05a1.33 1.33 0 0 0 .835-.485l4.982-6.26c.899-1.133 3.104-1.856 4.893-1.615l6.721.886c.308.04.625-.027.884-.191l6.023-3.825c1.925-1.229 4.165-.868 5.958.074Zm-4.881 1.612c1.092-.698 2.512-.597 3.951.159l5.458 2.841a3.306 3.306 0 0 0 1.75.378l.009-.001 8.02-.54.005-.001c2.02-.124 3.153.411 3.986 1.393.899 1.061 1.712 3.133 1.712 6.686 0 2.322.189 4.201 1.148 5.928l.002.003c.687 1.234 1.658 2.221 2.669 3.25.267.272.537.547.805.83l.004.004c.98 1.027 1.327 1.45 1.56 1.987.246.57.425 1.425.564 3.404v.003l1.062 15.367v.006l.046.626c.149 2.024.237 3.218.061 4.237-.168.962-.547 1.93-1.994 3.514l-7.747 8.475c-.61.668-1.408.95-2.533.978-.983.024-1.978-.142-3.093-.328-.269-.045-.546-.092-.83-.136l-14.868-2.339c-1.25-.198-1.862-.648-2.196-1.043-.36-.417-.602-.995-.599-1.793.005-.592.05-.952.095-1.16l2.413.066c2.697.007 5.841-.379 8.161-2.296.233-.192.436-.365.609-.516l.079.075c2.21 2.077 5.246 2.737 8.023 2.737 2.864 0 5.725-.79 7.944-2.667 2.269-1.92 3.574-4.826 3.574-8.192v-.04l-.767-19.098c.027-.795-.168-1.605-.681-2.267a2.85 2.85 0 0 0-2.255-1.122 2.85 2.85 0 0 0-2.255 1.12c-.523.675-.716 1.503-.681 2.314v19.093c0 1.68-.532 2.549-1.229 3.137l-.005.005c-.734.624-1.957 1.087-3.645 1.087-1.685 0-2.912-.463-3.654-1.09-.665-.566-1.182-1.43-1.22-3.183l-.581-24.573v-.006c-.022-.807-.233-1.717-.893-2.415-.72-.76-1.69-.97-2.528-.812-1.479.278-2.641 1.657-2.641 3.28v24.57c0 .715-.13 1.463-.366 2.086-.244.646-.536.995-.741 1.138l-.008.006c-.79.559-2.252.999-4.237.999-1.97 0-3.434-.447-4.25-1.011l-.002-.002c-.424-.293-.664-.57-.815-.857-.154-.294-.283-.727-.293-1.426l-.411-24.654c-.013-.846-.244-1.784-.952-2.486-.746-.74-1.713-.913-2.513-.774-1.42.247-2.755 1.542-2.755 3.291v24.652c0 .678-.127 1.1-.28 1.388-.153.288-.4.57-.833.869-.811.562-2.283 1.01-4.252 1.01-1.962 0-3.433-.447-4.249-1.011l-.003-.002c-.43-.297-.674-.576-.824-.86-.151-.287-.277-.71-.277-1.394v-20.51c.008-.864-.262-1.71-.861-2.36a3.017 3.017 0 0 0-4.44-.004c-.594.641-.868 1.475-.87 2.33l-.465 18.622v.027a.34.34 0 0 1-.024.028c-.08.086-.282.24-.684.397-.814.32-1.958.472-2.965.472-.813 0-1.525-.318-2.22-1.269-.716-.99-1.317-2.672-1.317-4.956V64.697c0-2.52.373-4.132.87-5.003l.003-.006c.252-.446.495-.702.771-.883.29-.191.744-.38 1.529-.504h.002l6.802-1.049a3.33 3.33 0 0 0 2.097-1.212l4.985-6.264.003-.003c.12-.151.495-.444 1.17-.666.645-.213 1.337-.284 1.888-.21l6.727.887.008.001a3.346 3.346 0 0 0 2.205-.484l6.027-3.827.005-.003Z" style="mix-blend-mode:color-dodge"/>
    <path fill="url(#g)" d="M76.092 45.47c1.092-.698 2.512-.597 3.951.159l5.458 2.841a3.306 3.306 0 0 0 1.75.378h.009l8.02-.542h.005c2.02-.124 3.153.412 3.986 1.393.899 1.062 1.712 3.133 1.712 6.687 0 2.321.189 4.2 1.148 5.927l.002.003c.687 1.234 1.658 2.221 2.669 3.25.267.272.537.547.805.83l.004.004c.98 1.027 1.327 1.45 1.56 1.987.246.57.425 1.425.564 3.405v.002l1.062 15.367v.006l.046.626c.149 2.024.237 3.218.061 4.237-.168.962-.547 1.93-1.994 3.514l-7.747 8.475c-.61.668-1.408.95-2.533.978-.983.024-1.978-.142-3.093-.328-.269-.045-.546-.092-.83-.136l-14.868-2.338c-1.25-.199-1.862-.649-2.196-1.044-.36-.417-.602-.995-.599-1.793.005-.592.05-.952.095-1.16l2.413.066c2.697.007 5.841-.379 8.161-2.296.233-.192.436-.365.609-.516l.079.075c2.21 2.077 5.246 2.737 8.023 2.737 2.864 0 5.725-.79 7.944-2.667 2.269-1.92 3.574-4.826 3.574-8.192v-.04l-.767-19.098c.027-.795-.168-1.604-.681-2.267a2.85 2.85 0 0 0-2.255-1.122 2.85 2.85 0 0 0-2.255 1.12c-.523.676-.716 1.503-.681 2.314v19.093c0 1.68-.532 2.549-1.229 3.138l-.005.004c-.734.624-1.957 1.087-3.645 1.087-1.685 0-2.912-.463-3.654-1.09-.665-.566-1.182-1.43-1.22-3.183l-.581-24.573v-.006c-.022-.807-.233-1.717-.893-2.415-.72-.76-1.69-.97-2.528-.812-1.479.278-2.641 1.657-2.641 3.28v24.57c0 .715-.13 1.463-.366 2.086-.244.646-.536.995-.741 1.138l-.008.006c-.79.559-2.252.999-4.237.999-1.97 0-3.434-.447-4.25-1.011l-.002-.002c-.424-.292-.664-.57-.815-.857-.154-.294-.283-.727-.293-1.426l-.411-24.653v-.002c-.013-.844-.244-1.783-.952-2.485-.746-.74-1.713-.913-2.513-.773-1.42.246-2.755 1.54-2.755 3.29v24.653c0 .678-.127 1.099-.28 1.387-.153.288-.4.57-.833.869-.811.562-2.283 1.01-4.252 1.01-1.962 0-3.433-.447-4.249-1.011l-.003-.002c-.43-.297-.674-.576-.824-.86-.151-.287-.277-.71-.277-1.393V67.857c.008-.864-.262-1.71-.861-2.36a3.017 3.017 0 0 0-4.44-.004c-.594.642-.868 1.475-.87 2.33l-.465 18.622v.027a.34.34 0 0 1-.024.029c-.08.085-.282.238-.684.397-.814.32-1.958.471-2.965.471-.813 0-1.525-.318-2.22-1.269-.716-.99-1.317-2.672-1.317-4.956V64.696c0-2.52.373-4.132.87-5.003l.003-.006c.252-.446.495-.702.771-.883.29-.19.744-.38 1.529-.504h.002l6.802-1.049a3.329 3.329 0 0 0 2.097-1.212l4.985-6.264.003-.003c.12-.151.495-.444 1.17-.666.645-.213 1.337-.284 1.888-.21l6.727.887.008.001a3.346 3.346 0 0 0 2.205-.484l6.027-3.827.005-.003Z" style="mix-blend-mode:color-dodge"/>
  </g>
  <defs>
    <radialGradient id="b" cx="0" cy="0" r="1" gradientTransform="rotate(54.53 -6.092 34.45) scale(127.957 115.425)" gradientUnits="userSpaceOnUse">
      <stop stop-color="#fff"/>
      <stop offset="1" stop-color="#fff" stop-opacity=".62"/>
    </radialGradient>
    <radialGradient id="d" cx="0" cy="0" r="1" gradientTransform="matrix(0 75 -75 0 75 75)" gradientUnits="userSpaceOnUse">
      <stop stop-color="#1F2348"/>
      <stop offset="1" stop-color="#1F2348" stop-opacity="0"/>
    </radialGradient>
    <radialGradient id="e" cx="0" cy="0" r="1" gradientTransform="matrix(40.5 46.78367 -44.18926 38.25405 48 52.42)" gradientUnits="userSpaceOnUse">
      <stop stop-color="#fff"/>
      <stop offset="1" stop-color="#fff" stop-opacity=".62"/>
    </radialGradient>
    <linearGradient id="f" x1="47.634" x2="92.353" y1="104.051" y2="54.594" gradientUnits="userSpaceOnUse">
      <stop stop-color="#EBF8FC"/>
      <stop offset=".295" stop-color="#7FB8EF"/>
      <stop offset=".576" stop-color="#5142F1"/>
      <stop offset="1" stop-color="#1D1D29"/>
    </linearGradient>
    <linearGradient id="g" x1="109.001" x2="51.824" y1="104.838" y2="53.18" gradientUnits="userSpaceOnUse">
      <stop stop-color="#79AEE7"/>
      <stop offset=".332" stop-color="#4960A7"/>
      <stop offset="1" stop-color="#1B2030" stop-opacity=".25"/>
    </linearGradient>
    <clipPath id="a">
      <path fill="#fff" d="M0 0h150v150H0z"/>
    </clipPath>
    <filter id="c" width="250.56" height="250.56" x="-50.28" y="-50.28" color-interpolation-filters="sRGB" filterUnits="userSpaceOnUse">
      <feFlood flood-opacity="0" result="BackgroundImageFix"/>
      <feBlend in="SourceGraphic" in2="BackgroundImageFix" result="shape"/>
      <feGaussianBlur result="effect1_foregroundBlur_375_2956" stdDeviation="25.14"/>
    </filter>
  </defs>
</svg>
