<svg xmlns="http://www.w3.org/2000/svg" viewBox="0 0 27 27" fill="none"><path d="M13.89 26.665c7.18 0 13-5.82 13-13s-5.82-13-13-13-13 5.82-13 13 5.82 13 13 13Z" fill="url(#a)"/><path d="M14.505 7.498c.233-.15.537-.128.845.034l1.167.608c.12.063.25.088.374.08h.002l1.715-.115h.001c.433-.027.675.088.853.297.192.227.366.67.366 1.43 0 .497.04.899.245 1.268.148.265.355.476.572.696l.172.177v.001c.21.22.285.31.334.425.053.122.091.305.12.728l.228 3.287v.001l.01.134c.032.433.05.688.013.906-.036.206-.117.413-.426.752l-1.657 1.812c-.13.143-.301.204-.542.21-.21.005-.423-.03-.661-.07l-.178-.03-3.18-.5c-.267-.042-.398-.139-.47-.223a.563.563 0 0 1-.127-.383c0-.127.01-.204.02-.248l.516.014c.577.001 1.25-.081 1.745-.492.05-.04.093-.078.13-.11l.017.016c.473.445 1.122.586 1.716.586.613 0 1.225-.17 1.7-.57.484-.411.763-1.033.763-1.753v-.008l-.164-4.085a.742.742 0 0 0-.145-.484.61.61 0 0 0-.482-.24.61.61 0 0 0-.483.24.745.745 0 0 0-.145.494v4.083c0 .36-.114.545-.263.671l-.001.001c-.157.134-.419.233-.78.233-.36 0-.623-.1-.781-.233-.142-.121-.253-.306-.261-.681l-.124-5.255V11.2a.766.766 0 0 0-.191-.516.588.588 0 0 0-.541-.174.714.714 0 0 0-.565.702v5.254c0 .153-.028.313-.078.446a.523.523 0 0 1-.159.244l-.001.001c-.17.12-.482.214-.906.214-.421 0-.735-.096-.91-.217a.512.512 0 0 1-.174-.183.664.664 0 0 1-.063-.305l-.087-5.273a.75.75 0 0 0-.204-.532.608.608 0 0 0-.538-.165.721.721 0 0 0-.589.704v5.272a.617.617 0 0 1-.06.297.533.533 0 0 1-.178.186c-.173.12-.488.216-.91.216-.419 0-.733-.096-.908-.217a.52.52 0 0 1-.177-.184.623.623 0 0 1-.059-.298v-4.386a.725.725 0 0 0-.184-.505.645.645 0 0 0-.95 0 .725.725 0 0 0-.185.498l-.1 3.982v.005a.414.414 0 0 1-.151.09 1.84 1.84 0 0 1-.635.103c-.173 0-.326-.068-.474-.272-.153-.211-.282-.571-.282-1.06V11.61c0-.54.08-.884.186-1.07v-.001a.511.511 0 0 1 .166-.19.816.816 0 0 1 .327-.107l1.455-.224a.712.712 0 0 0 .448-.26l1.066-1.34a.567.567 0 0 1 .251-.142.946.946 0 0 1 .404-.045l1.438.19h.002c.16.02.329-.014.472-.104l1.289-.818v-.001Z" fill="#fff" style="mix-blend-mode:color-dodge"/><defs><radialGradient id="a" cx="0" cy="0" r="1" gradientUnits="userSpaceOnUse" gradientTransform="matrix(-26 0 0 -26 26.89 26.665)"><stop stop-color="#41A38E"/><stop offset="1" stop-color="#21BCA5"/></radialGradient></defs></svg>