<svg id="Layer_1" data-name="Layer 1" xmlns="http://www.w3.org/2000/svg" viewBox="0 0 48 48"><defs><style>.cls-1{fill:#4755ac;}</style></defs><title>Artboard 1 copy 18</title><path class="cls-1" d="M24.73,31.81h0v-.38C24.72,31.58,24.72,31.71,24.73,31.81Z"/><path class="cls-1" d="M27.93,23.77h.3a1.88,1.88,0,0,0,1.87-1.88V20.12a1.87,1.87,0,0,0-1.87-1.87H26.4V15.39H24.69v2.86H22.48V15.39H20.77v2.86h-2.6a.41.41,0,0,0-.42.41v3.23c0,.07,0,.13,0,.2h0v7.2a.44.44,0,0,0,.44.44h2.58v2.61h1.71V29.73h2.21v2.61H26.4V29.73h1.53a2.32,2.32,0,0,0,2.32-2.31V26.08A2.31,2.31,0,0,0,27.93,23.77Zm-7.68-3.65h6.62a.91.91,0,0,1,.91.91V22a.91.91,0,0,1-.91.91H20.25Zm7.63,6.64a1,1,0,0,1-1,1h-6.6a0,0,0,0,1,0,0v-3s0,0,0,0h6.6a1,1,0,0,1,1,1Z"/><path class="cls-1" d="M24,0V1.71A22.29,22.29,0,1,1,1.71,24H0A24,24,0,1,0,24,0Z"/><path class="cls-1" d="M40.9,24a16.9,16.9,0,1,1-17-16.9V5.32A18.68,18.68,0,1,0,42.68,24Z"/><path class="cls-1" d="M24,10a14,14,0,0,0-9.9,4.1l1.22,1.22A12.28,12.28,0,0,1,32.68,32.68L33.9,33.9A14,14,0,0,0,24,10Z"/><line class="cls-1" x1="33.9" y1="33.9" x2="32.68" y2="32.68"/><line class="cls-1" x1="15.32" y1="15.32" x2="14.1" y2="14.1"/></svg>