<svg xmlns="http://www.w3.org/2000/svg" viewBox="0 0 50.3 48">
  <defs>
    <linearGradient id="a" x1="13.1" y1="47.5" x2="13.1" y2="6.5" gradientUnits="userSpaceOnUse">
      <stop offset="0" stop-color="#36a0fc"/>
      <stop offset="1" stop-color="#94d9fe"/>
    </linearGradient>
    <linearGradient id="b" x1="-1419" y1="598.8" x2="-1419" y2="597.1" gradientTransform="matrix(24.85 0 0 -24.85 35294.8 14886.8)" gradientUnits="userSpaceOnUse">
      <stop offset="0" stop-color="#5dc6ff"/>
      <stop offset="1" stop-color="#0288fd"/>
    </linearGradient>
  </defs>
  <path d="M25.1 24.3a244 244 0 01-2.2 5c-2.9 6-4.8 11.2-7.6 18.7H1a195.6 195.6 0 018.3-23.2c2.4-4.9 4.8-10 8.6-14a13.7 13.7 0 017-3.8l.2 17.3z" fill="url(#a)"/>
  <path d="M49.3.1a8.8 8.8 0 00-5 .8 29.2 29.2 0 00-11 9.9 110.9 110.9 0 00-8.1 13.4l-2.3 5C20 35.4 18.1 40.5 15.3 48h34V.1z" fill="url(#b)"/>
</svg>
