<svg xmlns="http://www.w3.org/2000/svg" viewBox="0 0 1280 722"><circle cx="370.288" cy="361" r="360.592" fill="#ea5146"/><circle cx="909.712" cy="361" r="360.592" fill="#4e56a2"/><path d="M400.637 344.891c-17.033 17.035-17.033 44.751 0 61.783 8.251 8.25 19.223 12.795 30.892 12.795s22.639-4.545 30.891-12.795a.496.496 0 01.7 0l18.59 18.59a.497.497 0 010 .704c-13.402 13.405-31.225 20.787-50.181 20.787-18.956 0-36.78-7.382-50.182-20.787-27.673-27.672-27.673-72.695 0-100.367 13.403-13.405 31.226-20.787 50.182-20.787 18.956 0 36.779 7.382 50.182 20.787a.496.496 0 010 .7l-18.591 18.592a.493.493 0 01-.7 0c-8.252-8.25-19.222-12.795-30.891-12.795-11.67 0-22.641 4.542-30.892 12.793zm-254.355 17.592h28.975c3.608 0 6.88-1.47 9.822-4.41 3.741-3.742 5.613-8.452 5.613-14.132 0-5.614-1.872-10.29-5.613-14.034-2.942-2.939-6.214-4.409-9.822-4.409H127.54v122.28h-27.196V305.684a4.341 4.341 0 014.341-4.341h70.573c11.49 0 21.18 2.773 29.067 8.318 7.015 5.08 11.793 11.727 14.332 19.946 2.405 7.953 2.271 15.87-.4 23.755-2.742 8.153-7.753 14.668-15.035 19.544 8.953 3.944 15.435 10.158 19.445 18.642 3.808 7.953 4.743 16.273 2.805 24.959-1.939 8.954-6.514 16.236-13.731 21.85-8.018 6.28-18.14 9.42-30.369 9.42h-51.326l12.228-24.155h39.098c3.608 0 6.88-1.469 9.822-4.41 3.741-3.742 5.613-8.452 5.613-14.132 0-5.612-1.872-10.29-5.613-14.032-2.942-2.94-6.214-4.41-9.822-4.41h-47.117l12.028-24.155zm415.831.026c6.921 0 11.702 2.297 14.338 6.887 2.631 4.593 3.798 11.027 3.499 19.304h-40.866c-6.926 0-11.706-2.293-14.337-6.887-2.636-4.59-3.803-11.024-3.5-19.304h40.866zm-212.457-57.988v27.755h-45.24s6.362 4.3 6.362 7.576v107.624h-27.532v-115.2h-43.934v-22.772s0-4.983 4.93-4.983h105.414zM857.2 349.217c4.466-5.033 9.534-9.108 15.206-12.229 5.67-3.119 12.334-4.679 19.99-4.679 5.955 0 11.395 1.242 16.322 3.722 4.927 2.482 9.18 6.08 12.76 10.793 3.579 4.715 6.344 10.526 8.294 17.438 1.95 6.912 2.924 14.834 2.924 23.765 0 8.153-1.1 15.703-3.296 22.649-2.199 6.948-5.335 12.973-9.411 18.076-4.077 5.104-9.003 9.092-14.78 11.962-5.778 2.871-12.247 4.307-19.405 4.307-6.097 0-11.308-.94-15.63-2.817a38.164 38.164 0 01-11.591-7.816v44.66h-26.264V334.329h16.056c3.403 0 5.636 1.596 6.7 4.786l2.125 10.102zm1.383 65.925c2.977 3.616 6.22 6.167 9.73 7.656 3.508 1.488 7.318 2.232 11.43 2.232 3.97 0 7.55-.744 10.74-2.232 3.19-1.489 5.9-3.757 8.134-6.805 2.232-3.048 3.95-6.893 5.157-11.538 1.205-4.64 1.808-10.118 1.808-16.428 0-6.38-.516-11.784-1.542-16.215-1.029-4.43-2.499-8.029-4.413-10.793-1.914-2.765-4.236-4.785-6.964-6.061-2.73-1.276-5.832-1.913-9.304-1.913-5.46 0-10.102 1.152-13.93 3.456s-7.443 5.547-10.846 9.728v48.913zm-56.989-117.249v145.834h-26.25V319.143c0-6.666 2.36-11.908 7.083-15.729 4.72-3.82 11.11-5.658 19.167-5.521zm364.7 45c8.596 7.774 12.898 19.501 12.898 35.185v64.592h-24.352v-13.413c-3.166 4.817-7.671 8.496-13.517 11.04-5.848 2.544-12.898 3.817-21.152 3.817s-15.477-1.412-21.668-4.23c-6.191-2.818-10.973-6.739-14.342-11.763-3.373-5.02-5.057-10.695-5.057-17.025 0-9.906 3.68-17.85 11.04-23.834 7.36-5.986 18.952-8.978 34.774-8.978h28.478v-1.651c0-7.703-2.305-13.62-6.913-17.747-4.611-4.127-11.453-6.19-20.533-6.19-6.191 0-12.279.963-18.264 2.888-5.984 1.93-11.04 4.611-15.167 8.049l-10.112-18.78c5.778-4.401 12.723-7.77 20.843-10.112 8.115-2.337 16.715-3.507 25.794-3.507 16.233 0 28.65 3.888 37.25 11.66zm-23.525 78.006c5.02-2.957 8.564-7.188 10.627-12.692v-12.795h-26.62c-14.86 0-22.288 4.886-22.288 14.652 0 4.68 1.856 8.394 5.571 11.144 3.715 2.754 8.874 4.128 15.478 4.128 6.465 0 12.207-1.477 17.232-4.437zM669.95 302.257s1.505-4.873 4.897-4.873h21.612c3.458 0 4.976 4.873 4.976 4.873l48.352 140.96h-29.313s-7.117-20.308-7.717-22.532c-.947-3.512 3.311-7.98 3.311-7.98l-56.358 9.659-6.096 20.852h-29.596l45.932-140.96zm28.298 85.576c3.147-1.091 1.468-6.552 1.468-6.552l-13.451-43.029-17.131 54.545c.003 0 27.53-4.414 29.114-4.964zm351.279-30.589c-1.596-5.067-3.934-9.427-7.018-13.079-3.084-3.65-6.93-6.486-11.537-8.506-4.609-2.02-9.888-3.03-15.844-3.03-6.876 0-12.866 1.24-17.97 3.722-4.56 2.217-8.76 5.061-12.64 8.465v-46.908c-7.544.042-13.587 1.861-18.09 5.506-4.724 3.821-7.085 9.063-7.085 15.729v124.584h25.175v-80.5c3.133-2.919 6.418-5.308 9.876-7.099 3.969-2.056 8.222-3.083 12.76-3.083 6.236 0 10.881 1.825 13.93 5.476 3.046 3.651 4.572 8.808 4.572 15.47v69.435h26.263v-69.435c0-6.095-.797-11.678-2.392-16.747z" fill="#fff"/></svg>