<svg id="Layer_1" data-name="Layer 1" xmlns="http://www.w3.org/2000/svg" viewBox="0 0 73.99 48"><defs><style>.cls-1{fill:#4e53a7;}.cls-2{fill:#fd3f3a;}</style></defs><title>Artboard 1 copy 19</title><path class="cls-1" d="M49.45,22.42a1.16,1.16,0,0,0-.92.49v3.38a1,1,0,0,0,1.08,1.08c1,0,1.09-.91,1.09-2.39C50.7,23.24,50.15,22.4,49.45,22.42Zm0,0a1.16,1.16,0,0,0-.92.49v3.38a1,1,0,0,0,1.08,1.08c1,0,1.09-.91,1.09-2.39C50.7,23.24,50.15,22.4,49.45,22.42ZM37,21.06h-.21l-.88,3.27h2Zm12.46,1.36a1.16,1.16,0,0,0-.92.49v3.38a1,1,0,0,0,1.08,1.08c1,0,1.09-.91,1.09-2.39C50.7,23.24,50.15,22.4,49.45,22.42Zm13.64,2.49c-.47.27-.64.5-.64.94,0,.87.39,1.09.87,1.09a.83.83,0,0,0,.66-.22V24.63A2.83,2.83,0,0,0,63.09,24.91Zm0,0c-.47.27-.64.5-.64.94,0,.87.39,1.09.87,1.09a.83.83,0,0,0,.66-.22V24.63A2.83,2.83,0,0,0,63.09,24.91ZM49.45,22.42a1.16,1.16,0,0,0-.92.49v3.38a1,1,0,0,0,1.08,1.08c1,0,1.09-.91,1.09-2.39C50.7,23.24,50.15,22.4,49.45,22.42ZM37,21.06h-.21l-.88,3.27h2ZM53.2,3h-.66A21,21,0,0,0,32,24a.45.45,0,0,0,0,.11h.42V25.2H32a20.84,20.84,0,0,0,5,12.4l.09.1a20.9,20.9,0,0,0,14.33,7.23l.49,0L53,45c.49,0,1,0,1.46-.05l.25,0A21,21,0,0,0,74,24.22V24A21,21,0,0,0,53.2,3ZM36.12,27.37V28h-3v-.66c.87,0,.91-.12,1.3-1.3l2.41-7.4h1.14l2.33,7.4c.31.78.51,1.12.93,1.24a1.91,1.91,0,0,0,.37.06V28H38.08v-.66c.65,0,.65-.21.44-.87L38.08,25H35.69l-.44,1.52C35,27.16,35,27.37,36.12,27.37ZM45.7,28H42.22v-.66h.21c.44,0,.66-.21.66-.87V20c0-.87,0-1.08-.87-1.08v-.44l2.61-.31V26.5c0,.87,0,.87.87,1.09Zm3.7,0h-.87v1.52c0,.87,0,1.09,1.08,1.09v.43h-3.7v-.43c.66,0,.88-.22.88-1.09V23.46c0-.87-.22-1.09-.88-1.09v-.44l2.62-.65v1.09s.35-.24.6-.38a2.3,2.3,0,0,1,1-.32c1.53-.12,2.34,1,2.34,3.23C52.44,26.94,51.7,28,49.4,28Zm10.66,0H56.8v-.44c.65-.22.65-.22.65-1.09V23.89c0-1.09-.24-1.52-.87-1.52a1,1,0,0,0-.87.5V26.5c0,.87,0,.87.65,1.09V28H53.1v-.44c.65-.22.87-.22.87-1.09V19.76c0-.87-.22-.87-.87-.87v-.44l2.61-.31v4.12a2.54,2.54,0,0,1,1.74-.76c1.09,0,1.74.65,1.74,2.17V26.5c0,.87.22.87.87,1.09Zm6.31,0H64v-.66a1.85,1.85,0,0,1-3.27-1.09,1.62,1.62,0,0,1,1-1.42A13.57,13.57,0,0,1,64,24.13v-.67c0-.87-.37-1.31-.87-1.31a.7.7,0,0,0-.6.22c-.18.18-.27.43-.27,1.09h-.87V22.37a3.35,3.35,0,0,1,2.17-.87c.89,0,1.12,0,1.53.43s.43.87.43,1.74v2.4c0,.65.11.95.35,1.11a.87.87,0,0,0,.52.13Zm-3.92-2.18c0,.87.39,1.09.87,1.09a.83.83,0,0,0,.66-.22V24.63a2.83,2.83,0,0,0-.89.28C62.62,25.18,62.45,25.41,62.45,25.85Zm-13-3.43a1.16,1.16,0,0,0-.92.49v3.38a1,1,0,0,0,1.08,1.08c1,0,1.09-.91,1.09-2.39C50.7,23.24,50.15,22.4,49.45,22.42ZM37,21.06h-.21l-.88,3.27h2Zm12.46,1.36a1.16,1.16,0,0,0-.92.49v3.38a1,1,0,0,0,1.08,1.08c1,0,1.09-.91,1.09-2.39C50.7,23.24,50.15,22.4,49.45,22.42Zm13.64,2.49c-.47.27-.64.5-.64.94,0,.87.39,1.09.87,1.09a.83.83,0,0,0,.66-.22V24.63A2.83,2.83,0,0,0,63.09,24.91Zm0,0c-.47.27-.64.5-.64.94,0,.87.39,1.09.87,1.09a.83.83,0,0,0,.66-.22V24.63A2.83,2.83,0,0,0,63.09,24.91ZM49.45,22.42a1.16,1.16,0,0,0-.92.49v3.38a1,1,0,0,0,1.08,1.08c1,0,1.09-.91,1.09-2.39C50.7,23.24,50.15,22.4,49.45,22.42Zm0,0a1.16,1.16,0,0,0-.92.49v3.38a1,1,0,0,0,1.08,1.08c1,0,1.09-.91,1.09-2.39C50.7,23.24,50.15,22.4,49.45,22.42Zm0,0a1.16,1.16,0,0,0-.92.49v3.38a1,1,0,0,0,1.08,1.08c1,0,1.09-.91,1.09-2.39C50.7,23.24,50.15,22.4,49.45,22.42Z"/><polygon class="cls-2" points="37.86 24.33 35.91 24.33 36.77 21.06 36.99 21.06 37.86 24.33"/><path class="cls-2" d="M42,22.64c0,.3,0,.61,0,.91C42,23.25,42,22.94,42,22.64ZM37.26,10.73a21.12,21.12,0,0,1,4.57,10.66A20.82,20.82,0,0,0,37.26,10.73ZM34.5,7.93A20.79,20.79,0,0,0,25,3.39,21.12,21.12,0,0,1,34.5,7.93ZM7.61,23.24H7.4v4.15l.87,0a1.77,1.77,0,0,0,1.52-2C9.79,23.89,9.14,23.24,7.61,23.24Zm.44-3.92H7.4V22.8h.21c1.31,0,2-.43,2-1.74A1.55,1.55,0,0,0,8.05,19.32Zm-8,4.9A21,21,0,0,0,21,45,21.11,21.11,0,0,1,0,24.22ZM0,24A21.11,21.11,0,0,1,21,3,21,21,0,0,0,0,24Z"/><path class="cls-2" d="M37,37.6A20.92,20.92,0,0,1,21.54,45,21.06,21.06,0,0,0,37,37.82l.1-.12a20.93,20.93,0,0,0,3.63-6.48A20.88,20.88,0,0,1,37,37.6Z"/><path class="cls-2" d="M42,23.55c0-.3,0-.61,0-.91s-.07-.84-.12-1.25a21.12,21.12,0,0,0-4.57-10.66c-.08-.11-.18-.22-.27-.33v0l-.4-.45-.31-.34-.33-.33c-.1-.11-.2-.21-.31-.31l-.3-.29L35,8.39l-.53-.45a0,0,0,0,0,0,0A21.12,21.12,0,0,0,25,3.39l-.75-.13-.43-.06h0l-.43,0-.4,0c-.24,0-.48-.05-.73-.06l-.57,0H21A21.11,21.11,0,0,0,0,24v.22A21.11,21.11,0,0,0,21,45h.54A21,21,0,0,0,40.72,31.22L40.8,31a21.11,21.11,0,0,0,.93-3.64A21.35,21.35,0,0,0,42,24.05C42,23.88,42,23.71,42,23.55ZM10.66,27.37A5.39,5.39,0,0,1,7.83,28H4.35v-.66c1.09,0,1.31-.21,1.31-1.3V20.63c0-1.31-.22-1.31-1.09-1.53v-.43h3.7a3.7,3.7,0,0,1,2.36.56,1.82,1.82,0,0,1,.68,1.61,2,2,0,0,1-2,2.14,4,4,0,0,1,1.87.7A1.85,1.85,0,0,1,12,25.2,2.56,2.56,0,0,1,10.66,27.37ZM20,21.06h-.44s-.25-.88-.35-1.18c-.21-.61-.5-.56-1.39-.56h-.65v6.75c0,1.09,0,1.3,1.31,1.3V28H14.14v-.66c1.09,0,1.31-.21,1.31-1.3V19.32H14.8c-.87,0-1.09,0-1.31.44l-.44,1.3h-.43V18.67h6.09l1.34,0Zm8.27,0h-.44a2.17,2.17,0,0,0-2.5-1.72c-1.52,0-2.72,1.72-2.72,3.9,0,2.61,1.09,4.35,2.83,4.35.87,0,1.74-.65,2.39-2h.44v2.18a14.51,14.51,0,0,1-3.05.43,4.5,4.5,0,0,1-4.57-4.78,4.65,4.65,0,0,1,5-4.79,8.72,8.72,0,0,1,2.61.22Zm.87,4.14V24.11h3.26V25.2ZM41.56,28H38.08v-.66c.65,0,.65-.21.44-.87L38.08,25H35.69l-.44,1.52c-.22.66-.22.87.87.87V28h-3v-.66c.87,0,.91-.12,1.3-1.3l2.41-7.4h1.14l2.33,7.4c.31.78.51,1.12.93,1.24a1.91,1.91,0,0,0,.37.06Z"/></svg>