<svg width="40" height="33" viewBox="0 0 40 33" fill="none" xmlns="http://www.w3.org/2000/svg">
<path d="M28.3888 19.3267L20.6365 29.2496L19.7703 22.3227L14.6598 21.7702L28.3888 19.3267Z" fill="#03578C"/>
<path d="M20.5282 17.3718L14.6598 21.7703L15.8724 10.2749L20.5282 17.3718Z" fill="#03578C"/>
<path d="M20.3983 17.3506L15.8724 10.2749L20.1601 11.2523L20.3983 17.3506Z" fill="#0099F7"/>
<path d="M34.9935 21.239H34.9718L33.7808 29.2709H20.6365V29.2496L28.3888 19.3267L34.9935 21.239Z" fill="#28ADFF"/>
<path d="M14.6598 21.7702L20.4416 17.4356L20.3983 17.3506L28.3888 19.3267L14.6598 21.7702Z" fill="#0099F7"/>
<path d="M23.6681 15.1195L20.5282 17.3718L20.3982 17.3506L20.16 11.2523L28.2805 13.1434L28.3022 13.1222L28.9951 15.6082L23.6681 15.1195Z" fill="#0474BA"/>
<path d="M39.606 20.7928L34.9935 21.239L28.3889 19.3267L28.7787 19.1992L23.6898 15.1195L34.6254 19.1142L36.7692 19.9216L37.2456 19.4329L36.5094 16.1182L33.9974 16.0757L29.8397 15.6932L33.023 14.4183L36.7692 15.757L37.0507 9.67993L37.3106 9.76493L39.606 20.7928Z" fill="#0474BA"/>
<path d="M37.2456 19.4329L36.7692 19.9216L34.6254 19.1142L33.9974 16.0757L36.5094 16.1182L37.2456 19.4329Z" fill="#03578C"/>
<path d="M28.5621 2.54051L26.0718 3.15672L23.1484 4.47411L23.1917 2.753L27.8908 0.0119629L28.5621 2.54051Z" fill="#49484D"/>
<path d="M29.8181 7.27891L23.0835 7.23641L23.1485 4.47413L26.0718 3.15673L28.5621 2.54053L29.8181 7.27891Z" fill="#FFB536"/>
<path d="M15.8725 10.3386L6.47436 29.4196H6.45271L0.605957 30.9283L15.8725 10.3386Z" fill="#FFC767"/>
<path d="M15.9158 10.2749L14.6598 21.7703L8.9863 30.9283L6.47437 29.4197L15.8725 10.3386L15.9158 10.2749Z" fill="#FFB536"/>
<path d="M18.1895 22.1527L15.0063 30.1209L8.98633 30.9283L14.6598 21.7703L18.1895 22.1527Z" fill="#FFC767"/>
<path d="M20.6366 29.2709L19.9869 32.0119L15.0497 30.1208H15.0063L18.1896 22.1527L19.7704 22.3227L20.6366 29.2709Z" fill="#FFB536"/>
<path d="M28.2806 13.1435L15.9158 10.275L23.0835 7.23645H23.1917L27.3061 11.9961L28.2806 13.1435Z" fill="#FFB536"/>
<path d="M36.8342 9.61622H36.8125L28.2806 13.1434L27.3062 11.996L31.1823 7.68262L36.8342 9.61622Z" fill="#FFC767"/>
<path d="M31.1823 7.68267L27.3062 11.9961L23.0835 7.23645L29.8181 7.27895L31.1607 7.68267H31.1823Z" fill="#03578C"/>
<path d="M36.8124 9.61621L35.5781 12.1873L33.0445 14.4183H33.0229L29.8397 15.6932L28.9951 15.6082L28.2805 13.1434L36.7908 9.63746L36.8124 9.61621Z" fill="#0099F7"/>
<path d="M28.7786 19.1992L28.3888 19.3267L20.5499 17.3931L20.5282 17.3718L23.6898 15.1195L28.7786 19.1992Z" fill="#03578C"/>
<path d="M34.6255 19.1142L23.6899 15.1195H23.6682L28.9953 15.6082L29.8398 15.6932L33.9975 16.0757L34.6255 19.1142Z" fill="#0099F7"/>
<path d="M37.0507 9.67996L36.7692 15.757L33.0229 14.4183H33.0446L35.5782 12.1873L36.8125 9.61621H36.8342L37.0507 9.67996Z" fill="#03578C"/>
</svg>
