<svg id="Layer_1" data-name="Layer 1" xmlns="http://www.w3.org/2000/svg" viewBox="0 0 52.26 48"><defs><style>.cls-1{fill:#10d078;fill-rule:evenodd;}</style></defs><title>Artboard 1 copy 20</title><path id="Fill-24" class="cls-1" d="M24.69,40.49a15.3,15.3,0,0,1-1.24,1,19.71,19.71,0,0,1-2.72,1.71,22.29,22.29,0,0,1-2.93,1.26,23.08,23.08,0,0,1-3.06.84c-.52.12-1,.19-1.57.29l-.78.1-.4,0-.39,0-.8.08L10,46c-.53,0-1.07,0-1.6,0a42.92,42.92,0,0,1-4.67-.21L4.27,45a21.2,21.2,0,0,0,1.34-2.42,32.71,32.71,0,0,0,1.82-5.1,48,48,0,0,1,1.64-5,47,47,0,0,1,2.17-4.81,22.34,22.34,0,0,0-1.6,2.13c-.5.74-1,1.51-1.39,2.29A34.78,34.78,0,0,0,6,37a42.85,42.85,0,0,1-2,4.74A24,24,0,0,1,1.11,46L0,47.32l1.79.26a38.53,38.53,0,0,0,6.71.4c.57,0,1.13,0,1.69-.1L11,47.8l.84-.11c.56-.07,1.12-.19,1.67-.29s1.11-.24,1.65-.41,1.08-.33,1.62-.51,1.06-.41,1.57-.65a19.51,19.51,0,0,0,3-1.66A16.22,16.22,0,0,0,23.86,42a11.24,11.24,0,0,0,1.95-2.71,9.82,9.82,0,0,1-1.12,1.2M37.06,10.67a3.31,3.31,0,0,1,4.68,0,3.31,3.31,0,1,1-4.68,0m2.34,7.69a5.28,5.28,0,0,0,3.77-1.57A5.34,5.34,0,1,0,34.07,13a5.34,5.34,0,0,0,5.33,5.35M41,26c-7.63,6.73-10.81,7.37-14,5.9l3.45-4.37a5.54,5.54,0,0,0,1.07-2.19l1.39-5.82-5.81,1.4A5.56,5.56,0,0,0,24.91,22l-4.36,3.45c-1.47-3.16-.83-6.35,5.88-14,6.34-7.22,19.76-8.88,23.73-9.22C49.82,6.21,48.17,19.66,41,26ZM35.88,36.43a1.25,1.25,0,0,1-.52.8c-.81.55-2,1.32-3.14,2a1.6,1.6,0,0,1,.05-.21c.54-2.1.53-3.72,0-4.83A18,18,0,0,0,37,31.72C36.61,33.35,36.11,35.29,35.88,36.43ZM23.81,32.66a2.24,2.24,0,0,1-1.89.86H20.16l6-7.25-7.23,6V30.53a2.27,2.27,0,0,1,.86-1.9l6.37-5.05a3.54,3.54,0,0,1,1.39-.68l2.6-.62-.62,2.6a3.54,3.54,0,0,1-.69,1.4ZM13.46,20.16l-.2.05c.66-1.1,1.43-2.34,2-3.14a1.27,1.27,0,0,1,.79-.53c1.14-.23,3.08-.72,4.7-1.15a17.8,17.8,0,0,0-2.45,4.78C17.18,19.63,15.56,19.63,13.46,20.16ZM51.21.12c-.74,0-18.27.84-26.3,10-.82.93-1.55,1.81-2.22,2.65-1.16.32-5.25,1.43-7.06,1.79a3.29,3.29,0,0,0-2.06,1.37c-1.23,1.79-3.37,5.48-3.47,5.63L8.55,24.23,11.38,23c1.86-.8,5-1.64,6.09-.95a.89.89,0,0,1,.4.82h0a8.74,8.74,0,0,0,1,3.88l-.38.3a4.3,4.3,0,0,0-1.62,3.57v5h4.93a4.3,4.3,0,0,0,3.56-1.63l.31-.39a8.55,8.55,0,0,0,3.87,1h0a.91.91,0,0,1,.82.4c.68,1.12-.15,4.24-1,6.1L28.2,43.94l2.68-1.57c.16-.09,3.83-2.24,5.62-3.47a3.29,3.29,0,0,0,1.37-2.07c.36-1.81,1.47-5.9,1.79-7.07.83-.67,1.71-1.41,2.64-2.23,9.13-8,9.93-25.61,10-26.35l.05-1.1Z"/></svg>