<svg xmlns="http://www.w3.org/2000/svg" viewBox="0 0 312.3 312.7" height="312.7" width="312.3">
  <g fill-rule="evenodd">
    <path d="M269 48.5c19.2 20.7 32.7 45 39.2 72.6A156.4 156.4 0 01161 312.5l-.7-2.2a155 155 0 00-102-94c-15.9-5-32.3-6.5-48.8-6.4A156 156 0 01216.9 12.5l1.9.9-1.6 1c-13.5 9.6-24 21.8-32.8 35.7-9.5 15-17.8 30.7-25.4 46.7-3-1.5-6.2-1.5-9.3-.8-12.7 3-23.6 9-31.4 20a209.8 209.8 0 00-20.5 35.3c-1.4 3.7-.6 6 2.6 6.6 5.4 1 10.6 1 14.7-3.7 5.4-6.2 10-12.8 14.4-19.7 1.8-3 4.2-4.5 7.5-4.8l9.4-1.3-.8 3.4c-2.5-.5-5-.8-6.7 1.8-1.8 2.7-3.6 5.4-5.2 8.2-1.6 2.8-1 4.8 1.5 6.8 1.3 1 3.1 1.3 3.6 3.1-10.6 17-18.9 35.1-24.8 54.2-2 6.5-3.8 13.2-3.5 20.1.2 7.2 4 9.7 10.8 7a40 40 0 009.5-5.5 214.7 214.7 0 0047-51l1.4.7c3.8 2.1 5.8 1.7 8.2-1.9 1.3-1.8 2.3-3.7 3.6-5.4 2.3-3 2.5-5.8 0-8.8l2.8-2 3 11c.6 2 .3 3.9-1 5.8-4.3 6.6-8.2 13.5-12 20.4-2.9 5.2-2.2 10 .3 14.8 2.5 4.7 5.2 5.2 8.8 1.4 9-9.4 16-20.2 22.8-31.2 5.9-9.5 8-19.8 7.4-30.8-.4-5.7-.8-11.5-5.7-15.7l2-2.6c11.3-13 22-26.6 31.4-41a122 122 0 0017.6-40c.2-.8-.4-2.2.6-2.7" fill="#28363c"/>
    <path d="M198.3 62.7a24.3 24.3 0 1048.8.1 24.5 24.5 0 00-24.2-24.3 24.3 24.3 0 00-24.6 24.2zm-52.7 69l.8-3.3A481 481 0 01159 96.8c7.6-16 15.9-31.7 25.4-46.7 8.8-13.9 19.3-26.1 32.8-35.6 4.5-3.3 7-4.6 11.6-6.7a55.4 55.4 0 0024 21.7 39 39 0 0018 5c-.6 5.2-.7 9.1-2.4 16.6a122 122 0 01-17.6 40c-9.5 14.5-20 28-31.4 41.1l-2 2.6c-7.7 8.2-15.3 16.6-23.6 24.3l-2.8 2c-4-1.6-7-4.6-10.8-6.5l-3.7-2.3c1.3-4.3 4-7.8 5.8-11.9 2.2-5 4.7-10 5.2-15.6 0-1.4.4-3-1-3.9-1.5-1-3-.1-4.2.7-3.9 2.3-7 5.4-10 8.7L162 142.7l-4.5-2.8-11.8-8.1" fill="#e5e5e4"/>
    <path d="M54.4 224.1c-6.3 0-10.8 2.2-12.1 6.2-1.5 4.7.9 10 6 13.6 3.5 2.3 7.3 3.3 11.4 3 4.4 0 7.7-1.7 9.7-5.7 1.9-3.9.3-7.3-2-10.2a17.5 17.5 0 00-13-6.9zM87.6 262c-5.3 0-10.3 3-11.5 6.9-1.3 4.3 1 9.1 5.7 12.4a20 20 0 0013.6 2.8c3.8-1 7.5-2.6 8.4-6.8 1-4 0-7.9-3.3-10.6-3.7-3.1-8-4.7-12.9-4.7zm5.3-8.5c4 2.5 8.5 1.6 10-1.8 2-4.6-1.6-11.3-6.6-12.5-2.1-1.9-4.4-1.7-6.7-.6a5.4 5.4 0 00-3.1 5.6c.5 4 2.3 7.5 6.4 9.3zM9.5 210c16.5-.1 33 1.4 48.8 6.4a155 155 0 01102 94l.7 2.2c-7.7.6-15.3-.2-23-1A156.3 156.3 0 019.5 209.9" fill="#e6e6e5"/>
    <path d="M270.7 34.5a39 39 0 01-18-5c-10-4.9-18-12-23.9-21.7A63 63 0 01255.4 0c5-.3 8.8 1.7 10.9 6.8 3.6 9 4.6 18.2 4.4 27.7" fill="#ce4646"/>
    <path d="M159 96.8a481 481 0 00-12.6 31.6l-9.4 1.3a9.5 9.5 0 00-7.5 4.8c-4.3 6.9-9 13.5-14.4 19.7-4 4.6-9.3 4.7-14.7 3.7-3.2-.5-4-3-2.6-6.6 2.5-6.6 6-12.7 9.6-18.8 3.4-5.7 7-11.2 11-16.6A51.2 51.2 0 01149.6 96c3.1-.7 6.3-.7 9.3.8M193.8 159c8.3-7.6 16-16 23.6-24.2 4.9 4.2 5.3 10 5.7 15.7.6 11-1.5 21.3-7.4 30.8-6.8 11-13.8 21.8-22.8 31.2-3.6 3.8-6.3 3.3-8.8-1.4-2.5-4.9-3.2-9.6-.3-14.8 3.8-7 7.7-13.8 12-20.4a6.6 6.6 0 001-5.9l-3-11" fill="#cc4544"/>
    <path d="M177.8 176.6a214.7 214.7 0 01-47 50.9 40 40 0 01-9.5 5.5c-6.8 2.7-10.6.2-10.8-7-.3-7 1.4-13.6 3.5-20 5.9-19.2 14.2-37.3 24.8-54.3 2 0 3.3 1.2 4.5 2.6-5.7 7.7-9.8 16.2-13.2 25.1-2.6 6.5-4.6 13-4.6 20 0 9.2 6 12.8 14.1 8.8a36 36 0 004.6-2.5 107.4 107.4 0 0029.5-31.9c1.6.6 3 1.5 4 2.8" fill="#fbd44c"/>
    <path d="M143.3 154.3c-1.2-1.4-2.5-2.6-4.5-2.6-.5-1.8-2.3-2.2-3.6-3.1-2.5-2-3.1-4-1.5-6.8s3.4-5.5 5.2-8.2c1.7-2.6 4.2-2.3 6.7-1.8l11.8 8.1c-.1.7-.1 1.6-.5 2.1-3.5 4.5-6.1 9.6-9.3 14.4-1.5-.5-2.5-2-4.3-2.1M177.8 176.6a9.3 9.3 0 00-4.1-2.8l-4-3.1c4-5.1 7.4-10.5 10.5-16.1 3.8 1.9 6.9 4.9 10.8 6.5 2.5 3 2.3 5.8 0 8.8-1.3 1.7-2.3 3.6-3.6 5.4-2.4 3.6-4.4 4-8.2 1.9-.4-.3-1-.4-1.4-.6" fill="#cc4544"/>
    <path d="M222.9 48.2A14.5 14.5 0 00208 62.7c0 8.2 6.4 14.7 14.5 14.8 8 0 14.5-6.4 14.7-14.4.2-8-6.4-14.8-14.4-14.9zm-24.6 14.5c0-13.5 11-24.3 24.6-24.2 13.3 0 24.2 11 24.2 24.3a24.3 24.3 0 11-48.8-.2" fill="#28353e"/>
    <path d="M162 142.7l10.3-12.4c3-3.3 6.1-6.4 10-8.7 1.2-.8 2.7-1.7 4.2-.7 1.4 1 1 2.5 1 3.9-.5 5.6-3 10.5-5.2 15.6-1.7 4-4.5 7.6-5.8 11.9-3.7 4.4-6.2 9.5-9.5 14.2-.4.6-.3 1.4-.5 2.2-1.5 0-2.2 1.2-3 2.2-4 5.7-8.7 10.7-13.7 15.5a17.5 17.5 0 01-5.3 3.7c-2.8 1.1-4 .3-4-2.8-.2-3.7 1.2-7.1 2.5-10.6 2.3-6.1 5.8-11.7 8.5-17.7l10.4-16.3" fill="#cd4645"/>
    <path d="M162 142.7L151.4 159c-1.3-1-2.6-1.8-3.9-2.6 3.2-4.8 5.8-9.9 9.3-14.4.4-.5.4-1.4.5-2l4.5 2.7M166.5 168.7c.2-.8.1-1.6.5-2.2 3.3-4.7 5.8-9.8 9.5-14.2l3.7 2.3c-3.1 5.6-6.6 11-10.5 16-1-.5-2.3-1-3.2-2" fill="#c04140"/>
    <path d="M54.4 224.1c5.3.4 9.8 2.7 13 6.9 2.3 3 3.9 6.3 2 10.2-2 4-5.3 5.8-9.7 5.7-1.9-.8-3.9-1.4-5.5-2.5-6.4-4.5-8.9-9.2-6.8-14.5 1.3-3.4 4.4-4.2 7-5.8M87.6 262c4.9-.1 9.2 1.5 12.9 4.6 3.2 2.7 4.2 6.6 3.3 10.6-1 4.2-4.6 5.7-8.4 6.8-4.7-1.3-9.2-2.8-12.3-6.9-2.3-2.8-3.1-5.7-2-9.2 1.1-3.4 4.2-4.2 6.5-6M96.3 239c5 1.3 8.6 8 6.6 12.6-1.5 3.4-6 4.3-10 1.8.7-1.4-1-1.6-1.4-2.4-1.5-2.6-2.6-5.3-1.4-8.2 1.1-2.6 3.2-4 6.2-3.7" fill="#cacac6"/>
    <path d="M54.4 224.1c-2.6 1.6-5.7 2.4-7 5.8-2.1 5.3.4 10 6.8 14.5 1.6 1.1 3.6 1.7 5.5 2.5-4.1.3-8-.7-11.4-3-5.1-3.5-7.5-8.9-6-13.6 1.3-4 5.8-6.3 12.1-6.2M87.6 262c-2.3 1.7-5.4 2.5-6.4 5.9-1.2 3.5-.4 6.4 1.9 9.2 3.1 4.1 7.6 5.6 12.3 6.9a20 20 0 01-13.6-2.8c-4.7-3.3-7-8.1-5.7-12.4 1.2-3.9 6.2-6.9 11.5-6.9M96.3 239c-3-.1-5 1.2-6.2 3.8-1.2 3-.1 5.6 1.4 8.2.4.8 2 1 1.4 2.4-4.1-1.8-6-5.2-6.4-9.3-.3-2.4.9-4.5 3.1-5.6 2.3-1.1 4.6-1.3 6.7.6" fill="#b2b1b1"/>
    <path d="M166.5 168.7c.9 1 2.1 1.4 3.2 2l4 3.1c-8 12.4-17.2 23.6-29.5 32a36 36 0 01-4.6 2.4c-8.2 4-14 .4-14-8.7-.1-7 2-13.6 4.5-20.1 3.4-8.9 7.5-17.4 13.2-25.1 1.8 0 2.8 1.6 4.3 2l3.9 2.7c-2.7 6-6.2 11.6-8.5 17.7-1.3 3.5-2.7 6.9-2.6 10.6.1 3.1 1.3 4 4.1 2.8 2-.9 3.8-2.2 5.3-3.7 5-4.8 9.8-9.8 13.7-15.5.8-1 1.5-2.2 3-2.2" fill="#eda940"/>
    <path d="M222.9 48.2c8 .1 14.6 7 14.4 15-.2 8-6.8 14.3-14.7 14.3-8.1 0-14.6-6.6-14.5-14.8 0-8.1 6.6-14.6 14.8-14.5" fill="#c5e3f1"/>
    <path d="M60.2 63.6c4.5-.7 7.1-3 7.9-7.7 1 4.3 3.1 7 7.8 7.6-4.4.9-7 3.3-7.7 7.8-1-4.5-3.3-7.1-8-7.7M108.8 81c4.4-.7 7-3 7.8-7.7 1 4.2 3.2 7 7.8 7.6-4.4.9-7 3.2-7.6 7.8-1-4.5-3.4-7.1-8-7.7M28.8 134.7c4.5-.8 7-3 7.9-7.7.9 4.2 3.1 7 7.8 7.6-4.5.9-7 3.2-7.7 7.7-1-4.4-3.4-7-8-7.6M63 178.7c4.4-.7 7-3 7.8-7.7.9 4.3 3.1 7 7.8 7.6-4.5.9-7 3.3-7.7 7.8-1-4.5-3.4-7.1-8-7.7M192 258.4c4.4-.7 7-3 7.8-7.7 1 4.3 3.2 7 7.9 7.6-4.5.9-7 3.3-7.7 7.8-1-4.5-3.4-7.1-8-7.7M275.5 202.7c4.4-.8 7-3 7.8-7.7 1 4.2 3.2 7 7.8 7.6-4.4.8-7 3.2-7.6 7.7-1-4.5-3.4-7-8-7.6M270.7 118.6c4.5-.7 7.1-3 7.9-7.7 1 4.2 3.1 7 7.8 7.6-4.5.9-7 3.2-7.7 7.8-1-4.5-3.4-7.1-8-7.7M150 29.7c4.5-.7 7.1-3 7.9-7.6 1 4.2 3.1 7 7.8 7.6-4.4.8-7 3.2-7.7 7.7-1-4.5-3.3-7-8-7.7" fill="#eac647"/>
  </g>
</svg>
