<svg id="Layer_1" data-name="Layer 1" xmlns="http://www.w3.org/2000/svg" viewBox="0 0 33.26 48"><defs><style>.cls-1{fill:#606060;fill-rule:evenodd;}</style></defs><title>Artboard 1 copy 24</title><path class="cls-1" d="M9.12,43.9,9.05,44a5.13,5.13,0,0,1-.84.52h0a5.59,5.59,0,0,1-2,.57h0a4.52,4.52,0,0,1-.53.06H5.57a5.73,5.73,0,0,1,.12-11.46H5.8a5.69,5.69,0,0,1,5.52,5.5c0,.12,0,.23,0,.35a6.74,6.74,0,0,1-.13,1.1c0,.15-.09.29-.14.43s-.11.4-.18.58-.19.37-.3.56-.12.24-.19.35-.31.41-.47.61l-.15.17a5.42,5.42,0,0,1-.67.6Z"/><path class="cls-1" d="M19.86,8a4.94,4.94,0,0,1-.08-1,6.64,6.64,0,0,1,.12-1L20,5.73a5.47,5.47,0,0,1,.26-.81c0-.11.1-.21.15-.32a5.7,5.7,0,0,1,.3-.54l.27-.4.22-.26a5.32,5.32,0,0,1,.76-.74L22,2.57a5.69,5.69,0,0,1,3.41-1.18h.11a5.73,5.73,0,0,1-.11,11.45h-.12a5.66,5.66,0,0,1-5.27-4.05A6,6,0,0,1,19.86,8Z"/><path class="cls-1" d="M19.34,19.46c9,2.58,14.07,6,13.91,13.87v.13a12.78,12.78,0,0,1-7.82,12.09h0c-3.62,2-12.34,2.3-16.88,2.28a9,9,0,0,0,6-8.28c0-.18,0-.36,0-.54A26.72,26.72,0,0,0,20,38h0c2.13-.59,3.38-1.91,3.41-3.77V34.1c.05-2.52-1.46-3.84-8.9-5.94C5.59,25.65-.17,23,0,14v-.13A12.73,12.73,0,0,1,7.25,2.38h0C10.55.35,16.39.11,19.87.16a9.07,9.07,0,0,0-3.29,6.77,9.79,9.79,0,0,0,.18,2A16.88,16.88,0,0,0,12.18,10,3.59,3.59,0,0,0,9.8,13.19v.12c-.06,3,1.84,4,9.53,6.15Z"/></svg>