<svg id="Layer_1" data-name="Layer 1" xmlns="http://www.w3.org/2000/svg" viewBox="0 0 51.24 48"><defs><style>.cls-1{fill:#57bae5;}.cls-2{fill:#005472;}.cls-3{fill:#34afe4;}.cls-4{fill:#0076a7;}.cls-5{fill:#009de2;}.cls-6{fill:#7acdf2;}.cls-7{fill:#00abe7;}.cls-8{fill:#008dbe;}.cls-9{fill:#00698d;}.cls-10{fill:#09a1cb;}.cls-11{fill:#8bdaff;}</style></defs><title>Artboard 1 copy 22</title><polygon class="cls-1" points="18.51 10.02 16.1 19.44 -0.03 21.59 18.51 10.02"/><polygon class="cls-2" points="26.9 30.9 21.68 28.69 22.88 48 26.9 30.9"/><polygon class="cls-3" points="16.1 19.44 11.85 28.35 -0.03 21.59 16.1 19.44"/><polygon class="cls-4" points="21.68 28.69 11.85 28.35 22.88 48 21.68 28.69"/><polygon class="cls-5" points="16.1 19.44 21.68 28.69 11.85 28.35 16.1 19.44"/><polygon class="cls-6" points="18.51 10.02 31.75 11.8 16.1 19.44 18.51 10.02"/><polygon class="cls-6" points="46.54 5.74 38.11 15.76 38.71 6.49 46.54 5.74"/><polygon class="cls-6" points="46.54 5.74 51.21 0 50.18 6.19 46.54 5.74"/><polygon class="cls-7" points="42.16 10.95 50.18 6.19 46.54 5.74 42.16 10.95"/><polygon class="cls-4" points="26.9 30.9 27.3 19.41 21.68 28.69 26.9 30.9"/><polygon class="cls-8" points="27.3 19.41 21.68 28.69 16.1 19.44 27.3 19.41"/><polygon class="cls-1" points="31.89 11.73 27.3 19.41 16.1 19.44 31.89 11.73"/><polyline class="cls-9" points="27.3 19.41 26.9 30.9 37.17 41.66 27.3 19.41"/><polygon class="cls-10" points="42.54 35.65 37.12 21.86 37.17 41.66 42.54 35.65"/><polygon class="cls-10" points="38.11 15.76 37.12 21.86 27.3 19.41 38.11 15.76"/><polygon class="cls-11" points="43.09 24.05 37.12 21.86 38.11 15.76 43.09 24.05"/><polygon class="cls-6" points="45.23 35.26 38.72 24.59 42.43 24.59 45.23 35.26"/><polygon class="cls-1" points="33.11 9.47 38.11 15.76 38.71 6.49 33.11 9.47"/><polygon class="cls-8" points="37.12 21.86 27.3 19.41 37.17 41.66 37.12 21.86"/><polygon class="cls-4" points="42.54 35.65 44.71 36.88 37.2 41.66 42.54 35.65"/><polygon class="cls-1" points="45.23 35.14 37.12 21.86 42.54 35.65 45.23 35.14"/><polygon class="cls-6" points="33.11 9.47 27.3 19.41 38.11 15.76 33.11 9.47"/></svg>