<svg xmlns="http://www.w3.org/2000/svg" xml:space="preserve" style="enable-background:new 0 0 2500 2500" viewBox="0 0 2500 2500"><path d="M0 0h2500v2500H0z" style="fill:none"/><path d="m2460 1567-541-938a302 302 0 0 0-522 8l-567 975a268 268 0 0 0 237 404h1137c214 0 374-231 256-449z" style="fill:#3156aa"/><path d="m1680 1639-33-58-100-170-457-795a300 300 0 0 0-518 32L40 1569a298 298 0 0 0 259 447h1901c-293 2-387-150-520-377z" style="fill:#1972e2"/><linearGradient id="a" x1="703.6" x2="1935.6" y1="1211.7" y2="727.2" gradientTransform="matrix(1 0 0 -1 0 2498)" gradientUnits="userSpaceOnUse"><stop offset="0" style="stop-color:#264ca2;stop-opacity:0"/><stop offset="1" style="stop-color:#234588"/></linearGradient><path d="m1680 1639-33-58-100-170-295-520-424 724a268 268 0 0 0 237 403h1135c-295-2-387-152-520-379z" style="fill:url(#a)"/></svg>