<svg width="348" height="105" fill="none" xmlns="http://www.w3.org/2000/svg">
  <path d="M114.68 81.2h7.24V54l11.16 27.2h5.85l11.1-27.2v27.2h7.24V40.16h-8.88l-12.38 30.3-12.4-30.3h-8.93v41.02zM177.1 81.66c8.93 0 15.36-6.45 15.36-15.24s-6.43-15.23-15.37-15.23c-9 0-15.42 6.44-15.42 15.23 0 8.8 6.43 15.24 15.42 15.24zm0-6.21c-4.91 0-8.19-3.7-8.19-9.03 0-5.33 3.28-9.02 8.18-9.02 4.85 0 8.13 3.69 8.13 9.02 0 5.34-3.28 9.03-8.13 9.03zM209.99 81.66c8.94 0 15.36-6.45 15.36-15.24S218.93 51.2 210 51.2c-9 0-15.43 6.44-15.43 15.23 0 8.8 6.43 15.24 15.43 15.24zm0-6.21c-4.91 0-8.18-3.7-8.18-9.03 0-5.33 3.27-9.02 8.18-9.02 4.85 0 8.12 3.69 8.12 9.02 0 5.34-3.27 9.03-8.12 9.03zM229.03 81.2h7.2V65.07c0-4.34 2.8-7.5 6.83-7.5 3.68 0 6.13 2.8 6.13 6.85V81.2h7.19V62.91c0-6.92-4.32-11.72-10.99-11.72-4.2 0-7.53 1.81-9.17 5.04v-4.57h-7.19v29.53zM262.35 81.2h7.77V65.6h8.64c8.53 0 13.62-5.27 13.62-12.71 0-7.45-5.09-12.72-13.62-12.72h-16.41v41.02zm7.77-22.1V46.67h8.3c4.55 0 6.42 2.93 6.42 6.22 0 3.28-1.87 6.2-6.43 6.2h-8.3zM306.17 51.19c-7.65 0-12.62 4.57-12.97 10.43h6.43c.12-2.64 2.4-5.04 6.2-5.04 3.79 0 6.01 2.05 6.01 4.92 0 1.17-.7 2-2.16 2h-5.44c-6.6 0-11.04 3.57-11.04 9.31 0 5.1 3.98 8.85 9.82 8.85 4.2 0 7.6-1.93 8.82-4.86v4.4h7.07v-19c0-6.68-5.26-11.01-12.74-11.01zm-1.46 25.14c-2.69 0-4.56-1.53-4.56-3.81 0-2.58 2.05-4.28 5.09-4.28h6.6v.47c0 4.45-2.63 7.62-7.13 7.62zM348 51.66h-7.36l-6.78 20.27-6.84-20.27h-7.3l10.75 29.53-4.15 11.96h6.84l4.56-13.36L348 51.66zM85.2 62.27A42.67 42.67 0 0142.6 105 42.67 42.67 0 010 62.27a42.67 42.67 0 0142.6-42.74 42.67 42.67 0 0142.6 42.74zM110.77 15.26c0 8.43-6.82 15.26-15.22 15.26S80.33 23.7 80.33 15.26 87.15 0 95.55 0s15.22 6.83 15.22 15.26z" fill="#111"/>
</svg>
