<svg width="176" height="32" viewBox="0 0 176 32" fill="none" xmlns="http://www.w3.org/2000/svg">
  <path d="m163.29 26.22-6.57-15.08h4.4l4.48 10.81 5.19-10.81h4.32L164.9 31.9h-4.4l2.8-5.69Zm-16-3.12a4.48 4.48 0 0 0 2.79-1.97 4.56 4.56 0 0 0 .66-2.4 4.73 4.73 0 0 0-.66-2.43 4.24 4.24 0 0 0-2.78-1.95 5.47 5.47 0 0 0-3.57.4 4.32 4.32 0 0 0-1.67 1.55 4.37 4.37 0 0 0-.64 2.42 4.86 4.86 0 0 0 .64 2.41c.2.33.44.63.73.89a4.88 4.88 0 0 0 2.04 1.08 5.35 5.35 0 0 0 2.47 0Zm-4.42 3.37a7.36 7.36 0 0 1-5.52-5.54 9.29 9.29 0 0 1 0-4.44 7.4 7.4 0 0 1 5.52-5.53 8.78 8.78 0 0 1 5.45.37 6.14 6.14 0 0 1 1.57 1c.2.2.4.4.57.63v-1.82h4.18V26.3h-4.18v-1.82a5.53 5.53 0 0 1-2.13 1.63c-.48.21-.99.37-1.5.46a9.18 9.18 0 0 1-3.97-.1Zm-15.18-11.49c.6.01 1.2-.06 1.78-.2.45-.12.88-.33 1.24-.62.33-.28.58-.63.73-1.03.16-.45.24-.93.23-1.41 0-.48-.07-.96-.23-1.4-.15-.4-.4-.75-.73-1.02a3.3 3.3 0 0 0-1.24-.61 6.78 6.78 0 0 0-1.78-.2h-4.1v6.49h4.1ZM119.27 4.9h8.83c1.4 0 2.6.17 3.61.51 1.02.34 1.86.81 2.52 1.42.66.6 1.17 1.34 1.48 2.17.33.87.5 1.8.49 2.73 0 .94-.16 1.86-.49 2.73a5.73 5.73 0 0 1-1.48 2.16c-.66.6-1.5 1.08-2.52 1.42-1.02.34-2.22.5-3.6.5h-4.52v7.77h-4.33V4.9Zm-18.57 6.24h4.14v1.82c.26-.36.56-.67.9-.94a5.7 5.7 0 0 1 2.64-1.17 8.9 8.9 0 0 1 1.68-.15c.88-.01 1.75.13 2.58.44.73.27 1.4.7 1.95 1.26.55.57.97 1.27 1.22 2.03.3.87.43 1.78.42 2.7v9.18h-4.15v-8.1c.01-.59-.07-1.18-.25-1.75-.14-.46-.38-.9-.7-1.26-.31-.34-.7-.6-1.13-.77-.49-.17-1-.26-1.53-.25-.52 0-1.04.08-1.53.25-.44.16-.83.43-1.14.77-.32.37-.56.8-.7 1.26a5.62 5.62 0 0 0-.25 1.75v8.1h-4.15V11.14ZM90.48 23.05c.4-.1.78-.23 1.15-.42a4.35 4.35 0 0 0 2.08-2.67 5.33 5.33 0 0 0 0-2.53 4.11 4.11 0 0 0-2.08-2.68 4.6 4.6 0 0 0-1.15-.43 5.74 5.74 0 0 0-3.75.43c-.34.19-.65.42-.93.69-.28.26-.51.57-.7.9a4.97 4.97 0 0 0-.43 3.62 3.98 3.98 0 0 0 2.06 2.67 5.08 5.08 0 0 0 2.44.58c.44 0 .88-.05 1.31-.16Zm-3.76 3.42a9.83 9.83 0 0 1-2.16-.78 7.97 7.97 0 0 1-3.12-2.83 7.65 7.65 0 0 1-.86-1.95 8.41 8.41 0 0 1 0-4.44 7.53 7.53 0 0 1 3.98-4.77c.69-.35 1.41-.6 2.16-.78 1.62-.37 3.3-.37 4.92 0 .75.17 1.47.43 2.15.78a8.3 8.3 0 0 1 3.14 2.83c.38.6.67 1.26.86 1.94a8.4 8.4 0 0 1 0 4.44 7.5 7.5 0 0 1-4 4.78c-.68.34-1.4.6-2.14.78-1.62.37-3.3.37-4.93 0Zm-16.2-3.42c.4-.1.79-.23 1.15-.42a4.35 4.35 0 0 0 2.08-2.67 5.33 5.33 0 0 0 0-2.53 4.11 4.11 0 0 0-2.08-2.68 4.6 4.6 0 0 0-1.14-.43 5.74 5.74 0 0 0-3.76.43c-.34.19-.65.42-.93.69-.27.26-.5.57-.7.9a5 5 0 0 0-.43 3.62c.1.38.25.75.44 1.1a3.99 3.99 0 0 0 1.62 1.57 5.08 5.08 0 0 0 2.44.58c.44 0 .89-.05 1.32-.16Zm-3.75 3.42a9.83 9.83 0 0 1-2.17-.78 7.97 7.97 0 0 1-3.12-2.83 7.64 7.64 0 0 1-.85-1.95 8.4 8.4 0 0 1 0-4.44 7.53 7.53 0 0 1 3.97-4.77c.7-.35 1.42-.6 2.17-.78 1.61-.37 3.3-.37 4.92 0 .74.17 1.46.43 2.14.78a8.3 8.3 0 0 1 3.15 2.83c.38.6.67 1.26.86 1.94.4 1.46.4 2.99 0 4.44a7.5 7.5 0 0 1-4 4.78c-.69.34-1.4.6-2.15.78-1.62.37-3.3.37-4.92 0ZM34 4.9h4.37l7.47 11.42 7.5-11.42h4.37v21.4h-4.33V11.64l-6.2 9.46h-2.65l-6.2-9.46v14.68H34V4.9ZM24.04 8.74a4.37 4.37 0 1 0 0-8.74 4.37 4.37 0 0 0 0 8.74ZM10.64 28.4a10.65 10.65 0 1 1 0-21.3 10.65 10.65 0 0 1 0 21.3Z" fill="currentColor"/>
</svg>
