<svg width="93" height="28" viewBox="0 0 93 28" fill="none" xmlns="http://www.w3.org/2000/svg">
  <path d="M30.58 21.65h1.93V14.4l2.98 7.25h1.56L40 14.4v7.25h1.93V10.71h-2.37l-3.3 8.08-3.3-8.08h-2.39v10.94ZM47.23 21.78c2.38 0 4.1-1.72 4.1-4.07a3.95 3.95 0 0 0-4.1-4.06 3.95 3.95 0 0 0-4.12 4.06 3.95 3.95 0 0 0 4.12 4.07Zm0-1.66c-1.31 0-2.18-.98-2.18-2.4 0-1.43.87-2.41 2.18-2.41 1.29 0 2.16.98 2.16 2.4 0 1.43-.87 2.41-2.16 2.41ZM56 21.78c2.38 0 4.1-1.72 4.1-4.07a3.95 3.95 0 0 0-4.1-4.06 3.95 3.95 0 0 0-4.12 4.06A3.95 3.95 0 0 0 56 21.78Zm0-1.66c-1.31 0-2.18-.98-2.18-2.4 0-1.43.87-2.41 2.18-2.41 1.29 0 2.16.98 2.16 2.4 0 1.43-.87 2.41-2.16 2.41ZM61.08 21.65h1.91v-4.3c0-1.15.75-2 1.83-2 .98 0 1.63.75 1.63 1.83v4.47h1.92v-4.87c0-1.85-1.15-3.13-2.93-3.13-1.12 0-2 .49-2.45 1.34v-1.21h-1.91v7.87ZM69.96 21.65h2.07V17.5h2.3c2.28 0 3.64-1.41 3.64-3.4 0-1.98-1.36-3.39-3.63-3.39h-4.38v10.94Zm2.07-5.89v-3.31h2.21c1.22 0 1.72.78 1.72 1.65 0 .88-.5 1.66-1.72 1.66h-2.2ZM81.65 13.65c-2.04 0-3.37 1.22-3.46 2.78h1.71c.03-.7.64-1.34 1.66-1.34 1 0 1.6.55 1.6 1.31 0 .31-.19.53-.58.53h-1.45c-1.76 0-2.94.96-2.94 2.49 0 1.36 1.06 2.36 2.62 2.36 1.12 0 2.02-.52 2.35-1.3v1.17h1.89V16.6c0-1.78-1.4-2.94-3.4-2.94Zm-.4 6.7c-.7 0-1.2-.4-1.2-1.01 0-.69.54-1.14 1.35-1.14h1.76v.12c0 1.2-.7 2.04-1.9 2.04ZM92.8 13.78h-1.96l-1.81 5.4-1.82-5.4h-1.95l2.87 7.87-1.11 3.19h1.82l1.22-3.56 2.74-7.5ZM22.72 16.6c0 6.3-5.08 11.4-11.36 11.4C5.1 28 0 22.9 0 16.6 0 10.31 5.09 5.2 11.36 5.2c6.28 0 11.36 5.11 11.36 11.4ZM29.54 4.07a4.06 4.06 0 1 1-8.13.01 4.06 4.06 0 0 1 8.13-.01Z" fill="#fff"/>
</svg>
