<svg viewBox="0 0 2221 561" fill="none" xmlns="http://www.w3.org/2000/svg">
    <path d="m1980.8 402.2-75.6-173.7h50.6l51.7 124.6 59.7-124.6h49.8l-117.7 239.3h-50.7l32.2-65.6Zm-184.1-36a51.6 51.6 0 0 0 32-22.6 52 52 0 0 0 7.6-27.7 54.4 54.4 0 0 0-7.6-28 48 48 0 0 0-32-22.4 63 63 0 0 0-41.1 4.6 49.5 49.5 0 0 0-24.7 30.6 56.7 56.7 0 0 0 5.4 43c2.3 3.7 5.2 7.2 8.5 10.2a56.1 56.1 0 0 0 23.5 12.4 61.7 61.7 0 0 0 28.4 0Zm-51 39c-7.8-2-15.3-5-22.3-9a84.8 84.8 0 0 1-32.4-32.4c-4-7-7-14.6-9-22.4a107.1 107.1 0 0 1 0-51.2c2-7.8 5-15.3 9-22.3a85.3 85.3 0 0 1 54.6-41.3 101 101 0 0 1 39.3-2.3 84.4 84.4 0 0 1 33.4 11.6 52.2 52.2 0 0 1 14.8 13.6v-21h48.1v174.7h-48.1v-21a63.1 63.1 0 0 1-24.5 18.9 79.7 79.7 0 0 1-17.4 5.3 105.9 105.9 0 0 1-45.6-1.2Zm-174.8-132.4a78 78 0 0 0 20.5-2.4c5.2-1.3 10-3.7 14.2-7 3.8-3.2 6.7-7.3 8.4-12a45.7 45.7 0 0 0 2.7-16.2c.1-5.5-.8-11-2.7-16.2a27.8 27.8 0 0 0-8.4-11.6 38 38 0 0 0-14.2-7 78.1 78.1 0 0 0-20.5-2.4h-47.3v74.8h47.3Zm-97-116h101.7c16 0 29.9 1.9 41.6 5.8 11.7 4 21.4 9.3 29 16.3a65 65 0 0 1 17 25 87 87 0 0 1 5.6 31.5 85.5 85.5 0 0 1-5.6 31.4 66 66 0 0 1-17 24.8 79.1 79.1 0 0 1-29 16.4c-11.8 4-25.6 5.9-41.6 5.9h-52v89.3h-49.8V156.7Zm-214 71.7h47.9v21c2.9-4 6.4-7.7 10.4-10.8a65.7 65.7 0 0 1 30.2-13.5c6.4-1.2 12.9-1.7 19.4-1.7a83.1 83.1 0 0 1 29.7 5c8.4 3.1 16.1 8 22.4 14.5a62.5 62.5 0 0 1 14.1 23.4c3.4 10 5 20.6 4.9 31.2v105.6H1391V310c.1-6.8-.8-13.6-2.9-20.1a40 40 0 0 0-8-14.6c-3.7-4-8.1-7-13-8.8-5.7-2-11.7-3-17.7-3s-12 1-17.7 3c-5 1.8-9.5 4.8-13 8.8a40 40 0 0 0-8.2 14.6c-2 6.5-3 13.3-2.8 20.1v93.2H1260V228.5Zm-117.5 137.3c4.5-1.1 9-2.8 13.1-4.9a50 50 0 0 0 24-30.8 61.2 61.2 0 0 0 0-29 47.4 47.4 0 0 0-24-31 53 53 0 0 0-13.1-4.9 66.1 66.1 0 0 0-43.3 5 50.2 50.2 0 0 0-18.7 18.3 57.4 57.4 0 0 0-5 41.6A46 46 0 0 0 1099 361a58.4 58.4 0 0 0 28 6.6 63 63 0 0 0 15.3-1.7ZM1099 405c-8.6-2-17-5-24.9-9a85.6 85.6 0 0 1-45.8-55 96.7 96.7 0 0 1 0-51.1 86.5 86.5 0 0 1 45.8-55c8-4 16.3-7 25-9 18.6-4.2 38-4.2 56.6 0 8.6 2 16.9 5 24.7 9a95.5 95.5 0 0 1 36.3 32.6 85 85 0 0 1 9.8 22.4 96.7 96.7 0 0 1 0 51.1 86.4 86.4 0 0 1-46 55c-7.9 4-16.2 7-24.7 9a128 128 0 0 1-56.8 0Zm-186.5-39.3c4.6-1.1 9-2.8 13.2-4.9a50.2 50.2 0 0 0 24-30.8 61.4 61.4 0 0 0 0-29 47.3 47.3 0 0 0-24-31 53 53 0 0 0-13.2-4.9 66.2 66.2 0 0 0-43.2 5c-4 2.1-7.6 4.8-10.8 7.9-3.1 3-5.8 6.5-8 10.4a57.4 57.4 0 0 0-5 41.6 45.8 45.8 0 0 0 23.7 30.8 58.4 58.4 0 0 0 28.2 6.6c5 0 10.2-.5 15.1-1.7ZM869.2 405c-8.6-2-17-5-25-9a85.8 85.8 0 0 1-45.8-55 96.8 96.8 0 0 1 .1-51.1 86.7 86.7 0 0 1 45.8-55c8-4 16.3-7 24.9-9 18.6-4.2 38-4.2 56.7 0 8.5 2 16.8 5 24.7 9a95.5 95.5 0 0 1 36.2 32.6 85 85 0 0 1 10 22.4 96.9 96.9 0 0 1 0 51.1 86.4 86.4 0 0 1-46.2 55c-7.8 4-16.1 7-24.7 9a128 128 0 0 1-56.7 0ZM492 156.7h50.3l86 131.5 86.4-131.5H765v246.5h-49.8v-169l-71.5 109h-30.5l-71.4-109v169H492V156.7Z" fill="#1F2348"/>
    <path d="M377.1 200.9a50.3 50.3 0 1 0 0-100.6 50.3 50.3 0 0 0 0 100.6ZM223 427.4a122.6 122.6 0 1 1 0-245.2 122.6 122.6 0 0 1 0 245.2Z" fill="#7715F5"/>
</svg>
