<svg width="600" height="218" fill="none" xmlns="http://www.w3.org/2000/svg">
  <path d="m0 119.72 12.05-20.54c6.72 6.01 21.18 12.12 31.83 12.12 8.63 0 12.14-2.4 12.14-6.31 0-11.22-52.7.4-52.7-36.27 0-15.92 13.85-29.75 38.85-29.75 15.36 0 28.11 4.91 37.85 12.02L68.98 71.43c-5.43-5.21-15.77-9.92-26.61-9.92-6.73 0-11.24 2.6-11.24 6.21 0 9.92 52.5-.4 52.5 36.67 0 17.23-15.16 29.55-41.06 29.55-16.37-.2-33.03-5.6-42.57-14.22z" fill="#fff"/>
  <path d="M86.04 16.43A16.4 16.4 0 0 1 102.51 0c9.14 0 16.67 7.31 16.67 16.43 0 9.12-7.53 16.63-16.67 16.63-9.14.1-16.47-7.41-16.47-16.63z" fill="#D026AF"/>
  <path d="M117.07 41.17H88.15v90.37h28.92V41.17zm124.8 90.37v-55c0-6.91-3.42-12.12-12.05-12.12-7.83 0-13.46 5-16.27 8.81v58.4h-28.91v-55.1c0-6.9-3.21-12.11-11.85-12.11-7.83 0-13.35 5-16.26 8.81v58.4H127.6V41.29h28.92v7.9l-3.02 6.72a81.06 81.06 0 0 1 3.02-3.6c3.91-5.21 15.56-13.33 29.82-13.33 13.15 0 21.88 5.41 25.7 16.13 5.22-7.81 17.07-16.13 31.32-16.13 16.67 0 27.21 8.62 27.21 27.15v65.52h-28.71v-.1zm68.37-10.72c-.7-.9-1.2-2-1.7-3.1l1.7 10.01V166h-28.92V41.17h28.92V51.7c7.13-8.61 16.47-12.72 26.8-12.72 22.7 0 39.77 16.83 39.77 47.29 0 30.65-17.07 47.48-39.76 47.48-10.14 0-19.28-3.9-26.8-12.92zm37.15-34.56c0-13.43-8.63-21.84-19.88-21.84-6.22 0-13.65 3.4-17.27 8.21v27.45c3.51 4.7 11.04 8.22 17.27 8.22 11.24 0 19.88-8.42 19.88-22.04zm34.14 45.28V6.7h28.91v124.73h-28.91v.1zm33.73-45.28c0-26.15 19.68-47.29 48-47.29 26.8 0 46.28 19.64 46.28 50.3v6.5h-62.25l-2.41-3.2c-.1 1-.1 2 .2 3.2 2.1 8.02 9.54 14.83 22.7 14.83 6.32 0 16.86-2.8 22.08-7.71l12.55 18.93c-9.04 8.02-24 12.02-37.85 12.02-28.01-.1-49.3-18.23-49.3-47.58zm48-24.15c-12.56 0-17.48 7.52-18.58 14.03h37.35c-.8-6.31-5.52-14.03-18.78-14.03z" fill="#fff"/>
  <path d="m568.37 131.54-17.27-27.35-17.77 27.35h-31.52l30.92-46.39-29.01-43.98h31.62l15.56 24.55 1.1 1.7v-3.5l14.27-22.74h31.72l-28.91 43.97L600 131.54h-31.63zm-82.42 56.26c0-3.58-1.9-4.88-4.8-4.88-2.8 0-4.6 1.5-5.7 2.9v18.92h-9.39v-29.4h9.4v2.6l-1.2 2.2c1.8-2.1 6.4-5.49 11.3-5.49 6.69 0 9.79 3.89 9.79 9.27v20.82h-9.4V187.8zm32.09 12.66c-1.8 2.1-6.2 5.08-11.1 5.08-6.7 0-9.7-3.78-9.7-9.17v-20.92h9.4v17.04c0 3.48 1.8 4.78 4.9 4.78 2.7 0 4.5-1.5 5.6-2.89v-18.93h9.4v29.4h-9.4v-2.3l.9-2.1zm54.87-25.8c8.7 0 15.1 6.37 15.1 16.33v2h-20.3l-.8-1.1c0 .4.1.9.2 1.3.7 2.59 3.2 4.98 7.5 4.98 2.6 0 5.6-1 7.2-2.5l4 5.88c-2.9 2.6-7.8 3.9-12.3 3.9-9.1 0-16.1-5.89-16.1-15.45-.09-8.47 6.3-15.35 15.5-15.35zm-6 12.35h12.1c-.2-2.1-1.8-5.08-6.1-5.08-4.1 0-5.6 2.89-6 5.08zm23-11.56h9.39v29.4h-9.4v-29.4zm-40.19 0-6.3 17.44.2 2.69-7.2-20.13h-7.99v4.68l9.7 24.61h10l11.59-29.3h-10z" fill="#fff"/>
  <path d="M589.2 166.38a5.37 5.37 0 0 1 5.4-5.38 5.37 5.37 0 0 1 5.4 5.38 5.37 5.37 0 0 1-5.4 5.38c-3-.1-5.4-2.39-5.4-5.38z" fill="#D026AF"/>
  <path d="M382 205.04V164.3h6.4v15.34c2.4-3.18 5.8-4.78 9.5-4.78 7.69 0 13.19 5.98 13.19 15.45 0 9.76-5.6 15.54-13.2 15.54-3.8 0-7.2-1.8-9.5-4.78v3.98H382zm14.1-4.98c5.1 0 8.29-4.08 8.29-9.86 0-5.68-3.3-9.77-8.3-9.77-3.1 0-6.2 1.8-7.7 3.99v11.75a9.74 9.74 0 0 0 7.7 3.89zm21.58 10.76c.7.3 1.7.5 2.5.5 2.1 0 3.4-.6 4.3-2.59l1.5-3.39-12.2-29.9h6.9l8.6 22.13 8.7-22.12h6.9l-14.3 34.87c-2 4.99-5.5 6.58-10.1 6.68-.9 0-2.8-.2-3.6-.4l.8-5.78z" fill="#fff"/>
</svg>
