<svg xmlns="http://www.w3.org/2000/svg" width="420" height="205" fill="none"><g clip-path="url(#a)"><path fill="#F8F8F8" d="M-85-56h590.5L497 205.25c-232.632-40.767-353.346-41.233-582 0V-56Z"/><mask id="c" width="591" height="262" x="-85" y="-56" maskUnits="userSpaceOnUse" style="mask-type:alpha"><path fill="url(#b)" d="M-85-56h590.5L497 205.25c-232.632-40.767-353.346-41.233-582 0V-56Z"/></mask><g mask="url(#c)"><g stroke="#005CAE" stroke-linecap="round" stroke-miterlimit="10" opacity=".1"><path d="M-184.814 75.93-68.006-91.25a387.094 387.094 0 0 1 178.22-139.527l190.414-73.323"/><path d="M-176.516 86.532-59.707-80.65a387.105 387.105 0 0 1 178.219-139.527l190.415-73.322"/><path d="M-168.217 97.132-51.407-70.05A387.095 387.095 0 0 1 126.81-209.577l190.415-73.322"/><path d="m-159.918 107.732 116.81-167.183A387.097 387.097 0 0 1 135.11-198.977L325.525-272.3"/><path d="M-152.08 117.743-35.271-49.439a387.098 387.098 0 0 1 178.219-139.527L333.353-262.3"/><path d="M-143.781 128.343-26.972-38.839a387.094 387.094 0 0 1 178.219-139.527L341.653-251.7"/><path d="M-135.482 138.945-18.673-28.238a387.104 387.104 0 0 1 178.219-139.527l190.406-73.334"/><path d="M-127.183 149.546-10.374-17.636a387.095 387.095 0 0 1 178.219-139.527l190.405-73.334"/><path d="M-111.046 170.157 5.763 2.975a387.103 387.103 0 0 1 178.219-139.527l190.405-73.334"/><path d="M-94.448 191.359 22.361 24.176A387.1 387.1 0 0 1 200.58-115.35l190.406-73.334"/><path d="M-78.311 211.97 38.498 44.788A387.098 387.098 0 0 1 216.716-94.74l190.405-73.334"/><path d="M-61.713 233.169 55.096 65.987A387.098 387.098 0 0 1 233.315-73.54l190.415-73.322"/><path d="M-45.115 254.372 71.694 87.19A387.095 387.095 0 0 1 249.913-52.337l190.415-73.322"/><path d="M-28.517 275.573 88.292 108.391A387.1 387.1 0 0 1 266.51-31.136l190.415-73.322"/><path d="m-12.38 296.185 116.809-167.182A387.093 387.093 0 0 1 282.648-10.524l190.414-73.323"/><path d="m4.218 317.384 116.809-167.182A387.094 387.094 0 0 1 299.246 10.675l190.415-73.323"/><path d="m20.355 337.997 116.809-167.182A387.098 387.098 0 0 1 315.383 31.288l190.415-73.322"/><path d="m36.953 359.198 116.809-167.182A387.099 387.099 0 0 1 331.981 52.489l190.415-73.322"/><path d="M53.09 379.81 169.9 212.628A387.093 387.093 0 0 1 348.118 73.101L538.533-.222"/><path d="m69.688 401.011 116.809-167.182A387.093 387.093 0 0 1 364.716 94.302l190.415-73.323"/><path d="m84.314 420.906 116.809-167.183a387.104 387.104 0 0 1 178.219-139.527l190.415-73.322"/><path d="m100.912 442.107 116.809-167.183A387.095 387.095 0 0 1 395.94 135.398l190.415-73.323"/><path d="m117.049 462.718 116.809-167.182a387.096 387.096 0 0 1 178.219-139.527l190.415-73.322"/><path d="m133.647 483.919 116.809-167.182A387.09 387.09 0 0 1 428.675 177.21l190.415-73.322"/><path d="m141.485 493.931 116.809-167.182a387.09 387.09 0 0 1 178.219-139.527l190.415-73.323"/><path d="M149.784 504.532 266.593 337.35a387.104 387.104 0 0 1 178.219-139.527l190.415-73.322"/><path d="M158.083 515.132 274.892 347.95a387.09 387.09 0 0 1 178.219-139.527l190.415-73.322"/><path d="m166.382 525.734 116.809-167.183A387.104 387.104 0 0 1 461.41 219.024l190.415-73.322"/></g><circle cx="210" cy="75" r="268" fill="url(#d)" opacity=".72" style="mix-blend-mode:color-burn"/></g></g><defs><radialGradient id="b" cx="0" cy="0" r="1" gradientTransform="matrix(-418.5 0 0 -945.93 419 191.5)" gradientUnits="userSpaceOnUse"><stop stop-color="#F8F8F8" stop-opacity=".15"/><stop offset="1" stop-color="#F8F8F8" stop-opacity=".6"/></radialGradient><radialGradient id="d" cx="0" cy="0" r="1" gradientTransform="matrix(0 268 -268 0 210 75)" gradientUnits="userSpaceOnUse"><stop stop-color="#1F2348" stop-opacity="0"/><stop offset="1" stop-color="#1F2348"/></radialGradient><clipPath id="a"><path fill="#fff" d="M0 0h420v205H0z"/></clipPath></defs></svg>
