<svg xmlns="http://www.w3.org/2000/svg" width="123" height="92" fill="none"><g clip-path="url(#a)"><path fill="#000" d="M5.848 55.856a9.64 9.64 0 0 1-2.087-.225 6.247 6.247 0 0 1-1.865-.72 4.046 4.046 0 0 1-1.36-1.314C.194 53.054.014 52.408 0 51.68v-.127h4.418l.008.116c.024.353.186.657.488.933.223.201.594.3 1.086.3.345 0 .66-.068.965-.208.271-.13.403-.309.403-.552 0-.29-.12-.49-.378-.616-.279-.143-.927-.302-1.933-.477-1.675-.28-2.907-.716-3.65-1.296-.756-.592-1.144-1.41-1.144-2.438 0-.715.175-1.334.522-1.834.34-.49.792-.888 1.339-1.168a6.55 6.55 0 0 1 1.78-.597 11.071 11.071 0 0 1 3.9-.012 6.266 6.266 0 0 1 1.782.59 3.52 3.52 0 0 1 1.351 1.165c.34.5.534 1.114.563 1.83l.011.13H7.284l-.006-.12c-.016-.313-.162-.563-.453-.764a1.372 1.372 0 0 0-.908-.311c-.36 0-.663.06-.898.175-.21.102-.309.292-.309.585 0 .111.037.196.107.262.086.08.2.154.334.221.203.082.708.2 1.494.346 1.031.177 1.817.355 2.339.536.853.27 1.547.664 2.05 1.18.515.524.78 1.247.78 2.148 0 .772-.175 1.45-.517 2.006a3.639 3.639 0 0 1-1.374 1.304 6.534 6.534 0 0 1-1.893.667 11.59 11.59 0 0 1-2.182.202M17.49 42.838h-4.62V39.51h4.62v3.328Zm0 12.731h-4.62V43.824h4.62v11.745ZM31.385 55.567h-4.619V49.42c0-.744-.092-1.298-.268-1.647-.157-.327-.509-.487-1.048-.487-.195 0-.383.031-.574.094a1.477 1.477 0 0 0-.52.308c-.166.138-.291.349-.388.621-.097.281-.149.64-.149 1.066v6.193h-4.62V43.822h4.467v1.28c.846-1.037 2.072-1.567 3.665-1.567 1.127 0 2.097.353 2.873 1.036.783.697 1.181 1.7 1.181 2.988v8.008ZM41.202 50.782c-.057.34-.161.655-.307.932-.15.285-.368.517-.644.693-.276.172-.616.259-1.002.259-.385 0-.726-.087-1.003-.26a1.826 1.826 0 0 1-.644-.705 3.512 3.512 0 0 1-.308-.931 6.452 6.452 0 0 1 0-2.16c.062-.347.168-.66.308-.933.152-.284.371-.517.645-.69.275-.176.612-.262 1.002-.262.391 0 .726.086 1.002.262.278.173.494.41.647.702.142.285.247.599.304.93.061.328.096.691.096 1.088 0 .378-.035.739-.096 1.075m4.17-3.257a6.763 6.763 0 0 0-.921-2.01 4.753 4.753 0 0 0-1.569-1.443c-.632-.357-1.351-.537-2.151-.537-.524 0-.98.05-1.354.139a3.435 3.435 0 0 0-.955.365 3.522 3.522 0 0 0-.616.471c-.11.114-.232.25-.358.403v-1.092h-4.472v15.466H37.6v-4.803c.326.393.733.712 1.208.949.569.28 1.193.422 1.857.422.932 0 1.737-.182 2.39-.535a4.256 4.256 0 0 0 1.572-1.438c.383-.595.66-1.25.813-1.957.157-.702.235-1.435.235-2.174 0-.747-.103-1.494-.302-2.226ZM54.905 48.526h-4.448l.026-.15c.217-1.345 1.015-2.03 2.372-2.03.59 0 1.088.2 1.471.592.386.394.579.885.579 1.464v.124Zm4.203 2.153c0-2.31-.546-4.093-1.625-5.31-1.083-1.215-2.768-1.834-5.025-1.834-.896 0-1.733.16-2.501.477a5.727 5.727 0 0 0-1.974 1.334 6.009 6.009 0 0 0-1.272 1.988 6.71 6.71 0 0 0-.436 2.394c0 .959.164 1.829.488 2.587.32.758.788 1.41 1.38 1.94a6.061 6.061 0 0 0 2.1 1.193 8.04 8.04 0 0 0 2.596.407c1.382 0 2.63-.314 3.717-.934 1.09-.624 1.863-1.559 2.298-2.78l.06-.168h-4.33l-.035.058c-.155.246-.385.429-.696.557-.327.136-.67.206-1.04.206-.625 0-1.129-.194-1.486-.572-.336-.358-.538-.83-.61-1.417h8.391v-.126ZM81.901 56.565H80.69a.454.454 0 0 1-.443-.463v-8.999c0-2.865-.53-4.637-3.16-4.637-2.272 0-4.093 2.161-4.647 4.195-.185.631-.274 1.32-.274 2.169v7.272a.452.452 0 0 1-.442.463h-1.21a.453.453 0 0 1-.447-.463v-8.999c0-2.937-.507-4.637-3.076-4.637-2.379 0-4.223 2.245-4.818 4.462-.145.524-.215 1.145-.215 1.902v7.272a.455.455 0 0 1-.445.463h-1.213a.454.454 0 0 1-.445-.463v-14.9c0-.254.2-.462.445-.462h1.213c.244 0 .445.208.445.463v1.95c1.238-1.646 3.26-2.77 5.033-2.77 2.569 0 4.133 1.057 4.761 3.237.965-1.546 2.875-3.237 5.335-3.237 4.72 0 5.264 3.578 5.264 6.273v9.446a.456.456 0 0 1-.448.463M91.736 55.031c-3.362 0-6-2.842-6-6.467 0-3.53 2.638-6.29 6-6.29 3.36 0 6 2.76 6 6.29 0 3.625-2.632 6.467-6 6.467Zm0-14.648c-4.437 0-7.916 3.591-7.916 8.18 0 4.688 3.48 8.36 7.916 8.36s7.914-3.672 7.914-8.36c0-4.589-3.474-8.18-7.915-8.18ZM92.343 39.01h-1.267a.446.446 0 0 1-.392-.235.481.481 0 0 1 .006-.462l1.936-3.31a.443.443 0 0 1 .377-.222h1.619c.166 0 .32.096.4.25a.473.473 0 0 1-.04.48l-2.278 3.306a.44.44 0 0 1-.36.193ZM106.594 56.566h-1.156a.444.444 0 0 1-.414-.29l-5.681-14.903a.475.475 0 0 1 .045-.433c.08-.124.22-.2.369-.2h1.298c.184 0 .347.116.415.295l4.438 11.682c.037.098.073.199.106.3.034-.099.071-.196.102-.292l4.445-11.69a.44.44 0 0 1 .414-.295h1.269c.147 0 .285.076.372.2a.493.493 0 0 1 .044.43l-5.657 14.905a.442.442 0 0 1-.41.29M115.182 37.877h-1.438a.454.454 0 0 1-.447-.46v-2.178c0-.252.2-.458.447-.458h1.438c.248 0 .449.206.449.458v2.178c0 .254-.201.46-.449.46ZM115.07 56.568h-1.208a.458.458 0 0 1-.454-.464v-14.9a.46.46 0 0 1 .454-.462h1.208c.243 0 .446.208.446.463v14.899a.456.456 0 0 1-.446.464ZM121.379 56.684c-.765 0-3.269-.257-3.269-3.59V35.238c0-.252.199-.458.445-.458h1.212c.243 0 .444.206.444.458v17.47c0 1.862.883 1.862 1.259 1.862.189 0 .365-.025.365-.025a.44.44 0 0 1 .361.109.48.48 0 0 1 .152.349v1.16a.458.458 0 0 1-.347.452c-.08.015-.345.067-.622.067"/><path fill="#005CAE" d="M24.299 40.06c3.39-6.855 7.162-13.673 10.62-19.211a306.549 306.549 0 0 1 5.105-7.886 255.79 255.79 0 0 1 2.995-4.375c-3.782 4.416-13.544 16.236-22.307 30.302v1.127h3.107c.157 0 .315.013.48.042"/><path fill="#000" d="M90.98 60.177a190.912 190.912 0 0 1-3.867 9.05 282.058 282.058 0 0 1-3.886 8.115 251.376 251.376 0 0 1-2.245 4.41c2.381-3.654 7.519-11.821 12.738-21.91-.863.222-1.763.338-2.668.338l-.071-.003Z"/><path fill="#005CAE" d="m91.05 59.93-.232-.002-.028.074a198.419 198.419 0 0 1-3.897 9.118 281.886 281.886 0 0 1-3.882 8.111c-2.005 4.028-3.403 6.577-3.407 6.605l.197.128c.071-.099 7.111-10.395 14.26-24.259l.136-.254-.271.078c-.93.267-1.896.401-2.876.401ZM106.135 2.762l-.058-.052a7.42 7.42 0 0 0-.425-.33c-1.341-.97-3.04-1.501-5.062-1.586-.19-.007-.381-.013-.577-.013-1.626 0-3.47.275-5.509.816-1.432.38-2.96.89-4.58 1.533l-.213.085C82.737 6 65.231 14.22 40.481 39.982l.026.002c-.313.323-.627.646-.942.974.14-.014.28-.023.415-.027.488-.413 1.01-.852 1.57-1.322 2.24-1.876 4.519-3.726 6.786-5.49l.27-.212c.789-.621 1.605-1.262 2.44-1.922 3.646-2.886 7.568-5.987 11.633-8.753 3.234-2.2 6.559-4.19 9.909-5.69 4.973-2.223 7.727-3.199 9.36-3.654a13.326 13.326 0 0 1 2.047-.425l.237-.034c.073-.011.14-.023.205-.038.034-.008.068-.013.102-.02a12.308 12.308 0 0 1 2.389-.26l.12-.003c1.884 0 3.698.445 5.342 1.249 3.19 1.56 5.736 4.474 6.9 8.105.155.483.288.978.392 1.485.185.92.295 1.801.337 2.78.029.655.027 1.353-.005 2.138-.16 2.982-.652 6.031-1.493 9.32a3.03 3.03 0 0 1 .412-.038l.074-.002h1.287a3.298 3.298 0 0 1 2.631 1.324c2.677-7.072 4.547-13.638 5.562-19.518 1.465-8.463.67-14.247-2.352-17.188ZM76.236 59.643c-2.05 1.287-2.565 1.56-4.61 2.77-.823.488-1.671.995-2.538 1.513-7.383 4.401-16.563 9.885-25.228 12.539C34.6 79.3 32.302 79.39 31.2 79.44a5.803 5.803 0 0 0-.446.026c-.44.043-.89.065-1.328.065-6.972 0-12.742-5.357-13.425-12.463-.156-1.596-.091-3.056.216-5.026.122-.716.275-1.444.442-2.174v-.202H9.45l-.025.202c-1.548 3.567-2.822 7.004-3.788 10.23-2.563 8.557-2.398 14.65.485 18.105l-.005.006.209.223.006-.003c1.879 1.849 4.7 2.788 8.404 2.788 2.571 0 5.617-.455 9.045-1.35 20.498-5.353 42.911-21.16 54.638-30.224h-2.182Z"/></g><defs><clipPath id="a"><path fill="#fff" d="M0 .781h122.353v90.435H0z"/></clipPath></defs></svg>
