<svg width="1250" height="1250" viewBox="0 0 1250 1250" fill="none" xmlns="http://www.w3.org/2000/svg">
<rect width="1250" height="1250" fill="#FDE937"/>
<path d="M1224.37 641.135L1146.84 541.011C1144.82 538.324 1140.78 536.308 1137.41 536.308H780.109V760H1141.45C1144.82 760 1147.52 758.656 1149.54 755.968L1225.04 659.278C1228.41 653.902 1228.42 646.511 1224.37 641.135ZM949.32 720.427H827.974V574.61H946.623V611.568H876.512V628.368H938.533V663.982H876.512V682.797H949.32V720.427ZM1066.62 720.427L1041.68 681.453L1016.73 720.427H960.78L1013.36 647.183L962.128 575.282H1017.41L1042.35 612.24L1066.62 575.282H1119.88L1069.32 645.839L1123.25 721.099H1066.62V720.427Z" fill="black"/>
<path fill-rule="evenodd" clip-rule="evenodd" d="M827.779 720.424H949.125V682.794H876.318V663.978H938.339V628.364H876.318V611.565H946.429V574.606H827.779V720.424ZM1041.48 681.45L1066.43 720.424V721.096H1123.05L1069.12 645.835L1119.68 575.278H1066.43L1042.16 612.237L1017.21 575.278H961.934L1013.17 647.179L960.586 720.424H1016.54L1041.48 681.45Z" fill="white"/>
<path opacity="0.95" fill-rule="evenodd" clip-rule="evenodd" d="M54.9997 674.261C56.0155 681.59 58.0109 687.068 60.9858 690.696C66.428 697.299 75.7519 700.6 88.9578 700.6C96.867 700.6 103.289 699.729 108.223 697.988C117.583 694.651 122.264 688.447 122.264 679.376C122.264 674.079 119.942 669.98 115.298 667.077C110.654 664.247 103.362 661.744 93.4206 659.567L76.4413 655.758C59.752 651.985 48.215 647.885 41.8297 643.458C31.0179 636.057 25.612 624.484 25.612 608.738C25.612 594.371 30.8364 582.435 41.2853 572.929C51.7342 563.424 67.0805 558.671 87.3253 558.671C104.232 558.671 118.654 563.151 130.588 572.113C142.524 581.074 148.784 594.081 149.366 611.133H117.148C116.567 601.482 112.359 594.625 104.522 590.561C99.298 587.877 92.804 586.534 85.0398 586.534C76.4049 586.534 69.5116 588.276 64.3599 591.759C59.2077 595.242 56.6322 600.103 56.6322 606.343C56.6322 612.076 59.1719 616.357 64.2507 619.187C67.5162 621.074 74.4818 623.286 85.1485 625.826L112.795 632.466C124.91 635.368 134.055 639.25 140.221 644.112C149.803 651.658 154.591 662.578 154.591 676.873C154.591 691.53 148.987 703.702 137.772 713.389C126.563 723.076 110.726 727.92 90.2643 727.92C69.3665 727.92 52.9315 723.149 40.9588 713.607C28.9861 704.065 23 690.95 23 674.261H54.9997ZM164.714 628.329V606.235H181.257V573.147H211.951V606.235H231.214V628.329H211.951V691.022C211.951 695.884 212.565 698.913 213.797 700.11C215.034 701.308 218.804 701.907 225.12 701.907C226.061 701.907 227.06 701.889 228.11 701.852C229.165 701.816 230.2 701.761 231.214 701.689V724.872L216.521 725.416C201.865 725.924 191.852 723.385 186.482 717.797C182.998 714.242 181.257 708.764 181.257 701.362V628.329H164.714ZM297.932 627.568C290.752 627.568 285.179 629.817 281.228 634.316C277.271 638.815 274.786 644.91 273.772 652.601H321.988C321.478 644.402 318.993 638.18 314.532 633.935C310.072 629.69 304.535 627.568 297.932 627.568ZM297.932 601.99C307.8 601.99 316.69 603.84 324.598 607.541C332.51 611.241 339.04 617.082 344.193 625.064C348.835 632.103 351.845 640.266 353.223 649.554C354.024 654.996 354.351 662.832 354.206 673.063H273.008C273.445 684.963 277.183 693.308 284.222 698.097C288.501 701.072 293.653 702.56 299.674 702.56C306.063 702.56 311.247 700.745 315.239 697.117C317.418 695.158 319.341 692.437 321.01 688.955H352.682C351.882 695.993 348.216 703.14 341.687 710.396C331.528 721.933 317.309 727.702 299.024 727.702C283.931 727.702 270.617 722.84 259.075 713.117C247.538 703.394 241.773 687.576 241.773 665.662C241.773 645.127 246.977 629.382 257.39 618.425C267.804 607.468 281.316 601.99 297.932 601.99ZM440.514 666.098C438.559 667.331 436.578 668.329 434.587 669.091C432.591 669.852 429.851 670.56 426.367 671.213L419.401 672.519C412.871 673.68 408.192 675.095 405.358 676.764C400.57 679.594 398.179 683.984 398.179 689.934C398.179 695.231 399.645 699.058 402.587 701.416C405.525 703.775 409.096 704.954 413.308 704.954C419.983 704.954 426.133 702.995 431.754 699.076C437.379 695.158 440.301 688.011 440.514 677.635V666.098ZM421.688 651.622C427.418 650.896 431.52 649.989 433.984 648.901C438.413 647.014 440.623 644.075 440.623 640.084C440.623 635.223 438.939 631.867 435.564 630.016C432.19 628.166 427.236 627.241 420.706 627.241C413.38 627.241 408.192 629.055 405.145 632.683C402.967 635.368 401.516 638.996 400.788 643.567H370.858C371.513 633.191 374.414 624.665 379.566 617.99C387.765 607.541 401.839 602.316 421.798 602.316C434.785 602.316 446.321 604.892 456.407 610.044C466.493 615.196 471.536 624.919 471.536 639.214V693.635C471.536 697.408 471.609 701.979 471.754 707.348C471.973 711.412 472.586 714.17 473.605 715.621C474.619 717.072 476.142 718.269 478.175 719.213V723.783H444.434C443.493 721.389 442.838 719.14 442.474 717.035C442.115 714.931 441.824 712.537 441.606 709.852C437.322 714.496 432.388 718.45 426.804 721.716C420.129 725.562 412.58 727.484 404.163 727.484C393.427 727.484 384.552 724.419 377.549 718.287C370.551 712.156 367.047 703.466 367.047 692.219C367.047 677.635 372.672 667.077 383.918 660.547C390.089 656.991 399.156 654.452 411.129 652.928L421.688 651.622ZM530.747 723.783H499.725V563.351H530.747V723.783ZM548.814 628.329V606.235H565.357V573.147H596.051V606.235H615.314V628.329H596.051V691.022C596.051 695.884 596.67 698.913 597.902 700.11C599.135 701.308 602.909 701.907 609.22 701.907C610.167 701.907 611.16 701.889 612.215 701.852C613.265 701.816 614.3 701.761 615.314 701.689V724.872L600.621 725.416C585.965 725.924 575.952 723.385 570.582 717.797C567.098 714.242 565.357 708.764 565.357 701.362V628.329H548.814ZM700.65 602.099C707.975 602.099 714.635 603.369 720.619 605.908C726.608 608.448 731.521 612.33 735.368 617.554C738.633 621.98 740.63 626.534 741.352 631.214C742.08 635.894 742.444 643.531 742.444 654.125V723.783H710.772V651.622C710.772 645.236 709.68 640.085 707.507 636.166C704.674 630.652 699.303 627.894 691.395 627.894C683.197 627.894 676.974 630.634 672.731 636.112C668.484 641.59 666.362 649.409 666.362 659.567V723.783H635.449V563.895H666.362V620.602C670.859 613.708 676.069 608.901 681.98 606.18C687.897 603.459 694.12 602.099 700.65 602.099Z" fill="black"/>
</svg>
