<svg viewBox="0 0 40 40" xmlns="http://www.w3.org/2000/svg"><g fill="#25b7eb" fill-rule="evenodd"><path d="M29.6 4.1a6.3 6.3 0 00-6.3 6.3c0 .5.4.9 1 .9.4 0 .8-.4.8-1 0-2.4 2-4.4 4.5-4.4.5 0 1-.4 1-.9s-.5-.9-1-.9z"/><path d="M39.1 10.3a9.5 9.5 0 00-16.3-6.5L1.3 17.3c-.4.2-.5.8-.3 1.2.2.3.5.4.8.4h.5L20.6 7.2a9.5 9.5 0 001.8 9.3L8 30.9c-.4.3-.4.9 0 1.2l.6.3c.3 0 .5-.1.7-.3L23.7 18a9.6 9.6 0 009.4 1.3L21.6 37.7A1 1 0 0022 39l.5.1c.3 0 .6-.2.8-.4L37 16.3a9.5 9.5 0 002.1-6zm-14 6.2l4.2-4c.3-.4.3-1 0-1.3a.9.9 0 00-1.3 0l-4.3 4.1a7.5 7.5 0 01-1.8-5 7.7 7.7 0 0115.5 0c0 4.3-3.6 7.7-7.8 7.7-1.7 0-3.3-.6-4.5-1.5z"/></g></svg>