<svg viewBox="0 0 508 181" fill="none" xmlns="http://www.w3.org/2000/svg">
    <g clip-path="url(#clip0_6755_5955)">
        <line opacity="0.1" x1="-586" y1="134.5" x2="522" y2="134.5" stroke="#1F2348" />
        <line opacity="0.1" x1="-586" y1="114.501" x2="522" y2="114.501" stroke="#1F2348" />
        <line opacity="0.1" x1="-586" y1="94.5" x2="522" y2="94.5" stroke="#1F2348" />
        <line opacity="0.1" x1="-586" y1="74.5" x2="522" y2="74.5" stroke="#1F2348" />
        <line opacity="0.1" x1="-586" y1="54.501" x2="522" y2="54.501" stroke="#1F2348" />
        <line x1="-586" y1="33.75" x2="522" y2="33.75" stroke="#E9E9ED" stroke-width="1.5" />
        <mask id="mask0_6755_5955" style="mask-type:alpha" maskUnits="userSpaceOnUse" x="-19" y="28" width="549"
            height="125">
            <path d="M529.865 89.243L529.864 28.7986L-18.0938 144L-2 152.875L529.865 89.243Z" fill="#1F2348" />
        </mask>
        <g mask="url(#mask0_6755_5955)">
            <g opacity="0.3">
                <line x1="87.5" y1="-279.831" x2="87.5" y2="156.037" stroke="#13B59D" />
                <line x1="95.5" y1="-279.831" x2="95.5" y2="156.037" stroke="#13B59D" />
                <line x1="103.5" y1="-279.831" x2="103.5" y2="156.037" stroke="#13B59D" />
                <line x1="111.5" y1="-279.831" x2="111.5" y2="156.037" stroke="#13B59D" />
                <line x1="119.5" y1="-279.831" x2="119.5" y2="156.037" stroke="#13B59D" />
                <line x1="15.5" y1="-279.831" x2="15.5" y2="156.037" stroke="#13B59D" />
                <line x1="23.5" y1="-279.831" x2="23.5" y2="156.037" stroke="#13B59D" />
                <line x1="31.5" y1="-279.831" x2="31.5" y2="156.037" stroke="#13B59D" />
                <line x1="39.5" y1="-279.831" x2="39.5" y2="156.037" stroke="#13B59D" />
                <line x1="47.5" y1="-279.831" x2="47.5" y2="156.037" stroke="#13B59D" />
                <line x1="55.5" y1="-279.831" x2="55.5" y2="156.037" stroke="#13B59D" />
                <line x1="63.5" y1="-279.831" x2="63.5" y2="156.037" stroke="#13B59D" />
                <line x1="71.5" y1="-279.831" x2="71.5" y2="156.037" stroke="#13B59D" />
                <line x1="7.5" y1="-279.831" x2="7.50003" y2="156.037" stroke="#13B59D" />
                <line x1="127.5" y1="-279.831" x2="127.5" y2="156.037" stroke="#13B59D" />
                <line x1="135.5" y1="-279.831" x2="135.5" y2="156.037" stroke="#13B59D" />
                <line x1="143.5" y1="-279.831" x2="143.5" y2="156.037" stroke="#13B59D" />
                <line x1="151.5" y1="-183.684" x2="151.5" y2="252.184" stroke="#13B59D" />
                <line x1="447.5" y1="-250.186" x2="447.5" y2="185.682" stroke="#13B59D" />
                <line x1="455.5" y1="-192.497" x2="455.5" y2="243.371" stroke="#13B59D" />
                <line x1="463.5" y1="-250.186" x2="463.5" y2="185.682" stroke="#13B59D" />
                <line x1="471.5" y1="-250.186" x2="471.5" y2="185.682" stroke="#13B59D" />
                <line x1="479.5" y1="-250.186" x2="479.5" y2="185.682" stroke="#13B59D" />
                <line x1="487.5" y1="-250.186" x2="487.5" y2="185.682" stroke="#13B59D" />
                <line x1="495.5" y1="-250.186" x2="495.5" y2="185.682" stroke="#13B59D" />
                <line x1="503.5" y1="-250.186" x2="503.5" y2="185.682" stroke="#13B59D" />
                <line x1="423.5" y1="-250.186" x2="423.5" y2="185.682" stroke="#13B59D" />
                <line x1="439.5" y1="-250.186" x2="439.5" y2="185.682" stroke="#13B59D" />
                <line x1="375.5" y1="-279.831" x2="375.5" y2="156.037" stroke="#13B59D" />
                <line x1="383.5" y1="-279.831" x2="383.5" y2="156.037" stroke="#13B59D" />
                <line x1="391.5" y1="-279.831" x2="391.5" y2="156.037" stroke="#13B59D" />
                <line x1="399.5" y1="-279.831" x2="399.5" y2="156.037" stroke="#13B59D" />
                <line x1="407.5" y1="-279.831" x2="407.5" y2="156.037" stroke="#13B59D" />
                <line x1="415.5" y1="-279.831" x2="415.5" y2="156.037" stroke="#13B59D" />
                <line x1="311.5" y1="-279.831" x2="311.5" y2="156.037" stroke="#13B59D" />
                <line x1="303.5" y1="-210.124" x2="303.5" y2="225.744" stroke="#13B59D" />
                <line x1="319.5" y1="-279.831" x2="319.5" y2="156.037" stroke="#13B59D" />
                <line x1="327.5" y1="-279.831" x2="327.5" y2="156.037" stroke="#13B59D" />
                <line x1="335.5" y1="-279.831" x2="335.5" y2="156.037" stroke="#13B59D" />
                <line x1="343.5" y1="-279.831" x2="343.5" y2="156.037" stroke="#13B59D" />
                <line x1="351.5" y1="-279.831" x2="351.5" y2="156.037" stroke="#13B59D" />
                <line x1="359.5" y1="-279.831" x2="359.5" y2="156.037" stroke="#13B59D" />
                <line x1="367.5" y1="-279.831" x2="367.5" y2="156.037" stroke="#13B59D" />
                <line x1="231.5" y1="-279.831" x2="231.5" y2="156.037" stroke="#13B59D" />
                <line x1="239.5" y1="-279.831" x2="239.5" y2="156.037" stroke="#13B59D" />
                <line x1="247.5" y1="-279.831" x2="247.5" y2="156.037" stroke="#13B59D" />
                <line x1="263.5" y1="-279.831" x2="263.5" y2="156.037" stroke="#13B59D" />
                <line x1="271.5" y1="-279.831" x2="271.5" y2="156.037" stroke="#13B59D" />
                <line x1="279.5" y1="-279.831" x2="279.5" y2="156.037" stroke="#13B59D" />
                <line x1="287.5" y1="-279.831" x2="287.5" y2="156.037" stroke="#13B59D" />
                <line x1="295.5" y1="-279.831" x2="295.5" y2="156.037" stroke="#13B59D" />
                <line x1="175.5" y1="-279.831" x2="175.5" y2="156.037" stroke="#13B59D" />
                <line x1="183.5" y1="-279.831" x2="183.5" y2="156.037" stroke="#13B59D" />
                <line x1="191.5" y1="-279.831" x2="191.5" y2="156.037" stroke="#13B59D" />
                <line x1="199.5" y1="-279.831" x2="199.5" y2="156.037" stroke="#13B59D" />
                <line x1="207.5" y1="-279.831" x2="207.5" y2="156.037" stroke="#13B59D" />
                <line x1="215.5" y1="-279.831" x2="215.5" y2="156.037" stroke="#13B59D" />
                <line x1="223.5" y1="-279.831" x2="223.5" y2="156.037" stroke="#13B59D" />
                <line x1="159.5" y1="-279.831" x2="159.5" y2="156.037" stroke="#13B59D" />
                <line x1="167.5" y1="-279.831" x2="167.5" y2="156.037" stroke="#13B59D" />
            </g>
        </g>
        <mask id="mask1_6755_5955" style="mask-type:alpha" maskUnits="userSpaceOnUse" x="9" y="93" width="521"
            height="63">
            <path d="M529.864 155.243L515.155 93.7499L9.75026 154.375L529.864 155.243Z" fill="#1F2348" />
        </mask>
        <g mask="url(#mask1_6755_5955)">
            <g opacity="0.12">
                <line x1="87.5" y1="-279.831" x2="87.5" y2="156.037" stroke="#1F2348" />
                <line x1="95.5" y1="-279.831" x2="95.5" y2="156.037" stroke="#1F2348" />
                <line x1="103.5" y1="-279.831" x2="103.5" y2="156.037" stroke="#1F2348" />
                <line x1="111.5" y1="-279.831" x2="111.5" y2="156.037" stroke="#1F2348" />
                <line x1="119.5" y1="-279.831" x2="119.5" y2="156.037" stroke="#1F2348" />
                <line x1="15.5" y1="-279.831" x2="15.5" y2="156.037" stroke="#1F2348" />
                <line x1="23.5" y1="-279.831" x2="23.5" y2="156.037" stroke="#1F2348" />
                <line x1="31.5" y1="-279.831" x2="31.5" y2="156.037" stroke="#1F2348" />
                <line x1="39.5" y1="-279.831" x2="39.5" y2="156.037" stroke="#1F2348" />
                <line x1="47.5" y1="-279.831" x2="47.5" y2="156.037" stroke="#1F2348" />
                <line x1="55.5" y1="-279.831" x2="55.5" y2="156.037" stroke="#1F2348" />
                <line x1="63.5" y1="-279.831" x2="63.5" y2="156.037" stroke="#1F2348" />
                <line x1="71.5" y1="-279.831" x2="71.5" y2="156.037" stroke="#1F2348" />
                <line x1="127.5" y1="-279.831" x2="127.5" y2="156.037" stroke="#1F2348" />
                <line x1="135.5" y1="-279.831" x2="135.5" y2="156.037" stroke="#1F2348" />
                <line x1="143.5" y1="-279.831" x2="143.5" y2="156.037" stroke="#1F2348" />
                <line x1="151.5" y1="-183.684" x2="151.5" y2="252.184" stroke="#1F2348" />
                <line x1="447.5" y1="-250.186" x2="447.5" y2="185.682" stroke="#1F2348" />
                <line x1="455.5" y1="-192.497" x2="455.5" y2="243.371" stroke="#1F2348" />
                <line x1="463.5" y1="-250.186" x2="463.5" y2="185.682" stroke="#1F2348" />
                <line x1="471.5" y1="-250.186" x2="471.5" y2="185.682" stroke="#1F2348" />
                <line x1="479.5" y1="-250.186" x2="479.5" y2="185.682" stroke="#1F2348" />
                <line x1="487.5" y1="-250.186" x2="487.5" y2="185.682" stroke="#1F2348" />
                <line x1="495.5" y1="-250.186" x2="495.5" y2="185.682" stroke="#1F2348" />
                <line x1="503.5" y1="-250.186" x2="503.5" y2="185.682" stroke="#1F2348" />
                <line x1="423.5" y1="-250.186" x2="423.5" y2="185.682" stroke="#1F2348" />
                <line x1="439.5" y1="-250.186" x2="439.5" y2="185.682" stroke="#1F2348" />
                <line x1="375.5" y1="-279.831" x2="375.5" y2="156.037" stroke="#1F2348" />
                <line x1="383.5" y1="-279.831" x2="383.5" y2="156.037" stroke="#1F2348" />
                <line x1="391.5" y1="-279.831" x2="391.5" y2="156.037" stroke="#1F2348" />
                <line x1="399.5" y1="-279.831" x2="399.5" y2="156.037" stroke="#1F2348" />
                <line x1="407.5" y1="-279.831" x2="407.5" y2="156.037" stroke="#1F2348" />
                <line x1="415.5" y1="-279.831" x2="415.5" y2="156.037" stroke="#1F2348" />
                <line x1="311.5" y1="-279.831" x2="311.5" y2="156.037" stroke="#1F2348" />
                <line x1="303.5" y1="-210.124" x2="303.5" y2="225.744" stroke="#1F2348" />
                <line x1="319.5" y1="-279.831" x2="319.5" y2="156.037" stroke="#1F2348" />
                <line x1="327.5" y1="-279.831" x2="327.5" y2="156.037" stroke="#1F2348" />
                <line x1="335.5" y1="-279.831" x2="335.5" y2="156.037" stroke="#1F2348" />
                <line x1="343.5" y1="-279.831" x2="343.5" y2="156.037" stroke="#1F2348" />
                <line x1="351.5" y1="-279.831" x2="351.5" y2="156.037" stroke="#1F2348" />
                <line x1="359.5" y1="-279.831" x2="359.5" y2="156.037" stroke="#1F2348" />
                <line x1="367.5" y1="-279.831" x2="367.5" y2="156.037" stroke="#1F2348" />
                <line x1="231.5" y1="-279.831" x2="231.5" y2="156.037" stroke="#1F2348" />
                <line x1="239.5" y1="-279.831" x2="239.5" y2="156.037" stroke="#1F2348" />
                <line x1="247.5" y1="-279.831" x2="247.5" y2="156.037" stroke="#1F2348" />
                <line x1="263.5" y1="-279.831" x2="263.5" y2="156.037" stroke="#1F2348" />
                <line x1="271.5" y1="-279.831" x2="271.5" y2="156.037" stroke="#1F2348" />
                <line x1="279.5" y1="-279.831" x2="279.5" y2="156.037" stroke="#1F2348" />
                <line x1="287.5" y1="-279.831" x2="287.5" y2="156.037" stroke="#1F2348" />
                <line x1="295.5" y1="-279.831" x2="295.5" y2="156.037" stroke="#1F2348" />
                <line x1="175.5" y1="-279.831" x2="175.5" y2="156.037" stroke="#1F2348" />
                <line x1="183.5" y1="-279.831" x2="183.5" y2="156.037" stroke="#1F2348" />
                <line x1="191.5" y1="-279.831" x2="191.5" y2="156.037" stroke="#1F2348" />
                <line x1="199.5" y1="-279.831" x2="199.5" y2="156.037" stroke="#1F2348" />
                <line x1="207.5" y1="-279.831" x2="207.5" y2="156.037" stroke="#1F2348" />
                <line x1="215.5" y1="-279.831" x2="215.5" y2="156.037" stroke="#1F2348" />
                <line x1="223.5" y1="-279.831" x2="223.5" y2="156.037" stroke="#1F2348" />
                <line x1="159.5" y1="-279.831" x2="159.5" y2="156.037" stroke="#1F2348" />
                <line x1="167.5" y1="-279.831" x2="167.5" y2="156.037" stroke="#1F2348" />
            </g>
        </g>
        <line x1="-636" y1="154.25" x2="522" y2="154.25" stroke="white" stroke-width="1.5" />
        <line x1="-636" y1="154.25" x2="522" y2="154.25" stroke="#E9E9ED" stroke-width="1.5" />
        <g clip-path="url(#clip1_6755_5955)">
            <path d="M-0.140625 153.188L515 91" stroke="white" stroke-width="1.5" />
            <path d="M-0.140625 153.188L515 91" stroke="#13B59D" stroke-opacity="0.5" stroke-width="1.5" />
            <path d="M-0.134719 140.807L514.501 32.5005" stroke="white" stroke-width="1.5" />
            <path d="M-0.134719 140.807L514.501 32.5005" stroke="#13B59D" stroke-opacity="0.5" stroke-width="1.5" />
        </g>
        <line x1="79.25" y1="158.25" x2="79.25" y2="33.75" stroke="white" stroke-width="1.5" stroke-linecap="round" />
        <line x1="79.25" y1="158.25" x2="79.25" y2="33.75" stroke="#1F2348" stroke-opacity="0.2" stroke-width="1.5"
            stroke-linecap="round" />
        <line x1="255.25" y1="83.25" x2="255.25" y2="33.75" stroke="white" stroke-width="1.5" stroke-linecap="round" />
        <line x1="255.25" y1="83.25" x2="255.25" y2="33.75" stroke="#1F2348" stroke-opacity="0.2" stroke-width="1.5"
            stroke-linecap="round" />
        <line x1="432.25" y1="46.25" x2="432.25" y2="33.75" stroke="white" stroke-width="1.5" stroke-linecap="round" />
        <line x1="432.25" y1="46.25" x2="432.25" y2="33.75" stroke="#1F2348" stroke-opacity="0.2" stroke-width="1.5"
            stroke-linecap="round" />
        <line x1="255.25" y1="158.25" x2="255.25" y2="126.75" stroke="white" stroke-width="1.5"
            stroke-linecap="round" />
        <line x1="255.25" y1="158.25" x2="255.25" y2="126.75" stroke="#1F2348" stroke-opacity="0.2" stroke-width="1.5"
            stroke-linecap="round" />
        <line x1="432.25" y1="158.25" x2="432.25" y2="104.75" stroke="white" stroke-width="1.5"
            stroke-linecap="round" />
        <line x1="432.25" y1="158.25" x2="432.25" y2="104.75" stroke="#1F2348" stroke-opacity="0.2" stroke-width="1.5"
            stroke-linecap="round" />
        <line x1="255.25" y1="122.25" x2="255.25" y2="87.75" stroke="#89DACE" stroke-width="1.5"
            stroke-linecap="round" />
        <line x1="432.25" y1="101.25" x2="432.25" y2="49.75" stroke="#89DACE" stroke-width="1.5"
            stroke-linecap="round" />
    </g>
    <defs>
        <clipPath id="clip0_6755_5955">
            <rect width="508" height="181" fill="white" />
        </clipPath>
        <clipPath id="clip1_6755_5955">
            <rect width="517" height="155.438" fill="white" transform="matrix(-1 0 0 1 517 -0.203125)" />
        </clipPath>
    </defs>
</svg>
