<svg xmlns="http://www.w3.org/2000/svg" fill="none" viewBox="0 0 420 564"><g clip-path="url(#a)"><g filter="url(#b)"><rect width="420" height="564" fill="#fff" rx="10"/></g><path fill="#fff" d="M-53-18h638v656H-53z"/><path fill="url(#c)" d="M0 0h638v656H0z" transform="translate(-53 -18)"/><path fill="url(#d)" d="m-329.272 415.326 180.033 321.982c12.963 23.034 36.727 37.151 62.412 37.151H273.24c25.685 0 49.449-14.117 62.291-37.151l180.034-321.982c12.842-23.034 12.842-51.27 0-74.304L335.531 19.041c-12.842-23.034-36.606-37.152-62.291-37.152H-86.827c-25.685 0-49.449 14.118-62.292 37.152l-180.033 321.981c-12.963 23.034-12.963 51.27-.12 74.304Z"/><path fill="url(#e)" d="m-995.832 529.811 255.578 453.844c18.402 32.465 52.138 52.365 88.6 52.365h511.156c36.462 0 70.198-19.9 88.43-52.365l255.577-453.844c18.231-32.467 18.231-72.266 0-104.733L-52.068-28.766c-18.232-32.467-51.968-52.367-88.43-52.367h-511.156c-36.462 0-70.199 19.9-88.43 52.367l-255.577 453.844c-18.399 32.467-18.399 72.266-.171 104.733Z"/></g><defs><linearGradient id="c" x1="406.577" x2="-283.496" y1="778.377" y2="438.373" gradientUnits="userSpaceOnUse"><stop stop-color="#DADADA"/><stop offset="1" stop-color="#fff" stop-opacity="0"/></linearGradient><linearGradient id="d" x1="-52.346" x2="669.379" y1="-6.075" y2="11.685" gradientUnits="userSpaceOnUse"><stop offset=".365" stop-color="#F7F7F7"/><stop offset="1" stop-color="#fff" stop-opacity="0"/></linearGradient><linearGradient id="e" x1="-44.63" x2="225.887" y1="-167.851" y2="462.698" gradientUnits="userSpaceOnUse"><stop stop-color="#fff"/><stop offset="1" stop-color="#EFEFEF"/></linearGradient><clipPath id="a"><rect width="420" height="564" fill="#fff" rx="8"/></clipPath><filter id="b" width="496" height="640" x="-38" y="-20" color-interpolation-filters="sRGB" filterUnits="userSpaceOnUse"><feFlood flood-opacity="0" result="BackgroundImageFix"/><feColorMatrix in="SourceAlpha" result="hardAlpha" values="0 0 0 0 0 0 0 0 0 0 0 0 0 0 0 0 0 0 127 0"/><feOffset dy="2"/><feGaussianBlur stdDeviation="1.25"/><feColorMatrix values="0 0 0 0 0.122709 0 0 0 0 0.138823 0 0 0 0 0.283843 0 0 0 0.02 0"/><feBlend in2="BackgroundImageFix" result="effect1_dropShadow_1_15"/><feColorMatrix in="SourceAlpha" result="hardAlpha" values="0 0 0 0 0 0 0 0 0 0 0 0 0 0 0 0 0 0 127 0"/><feOffset dy="7"/><feGaussianBlur stdDeviation="4.25"/><feColorMatrix values="0 0 0 0 0.122709 0 0 0 0 0.138823 0 0 0 0 0.283843 0 0 0 0.04 0"/><feBlend in2="effect1_dropShadow_1_15" result="effect2_dropShadow_1_15"/><feColorMatrix in="SourceAlpha" result="hardAlpha" values="0 0 0 0 0 0 0 0 0 0 0 0 0 0 0 0 0 0 127 0"/><feOffset dy="18"/><feGaussianBlur stdDeviation="19"/><feColorMatrix values="0 0 0 0 0.122709 0 0 0 0 0.138823 0 0 0 0 0.283843 0 0 0 0.07 0"/><feBlend in2="effect2_dropShadow_1_15" result="effect3_dropShadow_1_15"/><feBlend in="SourceGraphic" in2="effect3_dropShadow_1_15" result="shape"/></filter></defs></svg>