<svg fill="none" xmlns="http://www.w3.org/2000/svg" viewBox="0 0 41 40"><path fill-rule="evenodd" clip-rule="evenodd" d="M20.166 0c-11.045 0-20 8.954-20 20s8.955 20 20 20c11.046 0 20-8.954 20-20s-8.954-20-20-20Zm.57 9.83-8.159 11.097a.595.595 0 0 0 .48.948h5.562v8.493c0 .575.735.816 1.075.353l8.16-11.097a.595.595 0 0 0-.48-.948H21.81v-8.493c0-.575-.734-.816-1.075-.353Z" fill="url(#a)"/><defs><radialGradient id="a" cx="0" cy="0" r="1" gradientUnits="userSpaceOnUse" gradientTransform="matrix(22.49999 29.23973 -26.97479 20.75711 5.166 5.887)"><stop stop-color="#FFC31F"/><stop offset="1" stop-color="#FFC31F" stop-opacity=".62"/></radialGradient></defs></svg>