<svg fill="none" xmlns="http://www.w3.org/2000/svg" viewBox="0 0 40 40"><rect width="40" height="40" rx="20" fill="url(#a)"/><path d="M17.918 8.283v0a6 6 0 0 1 8.053 2.672v0" stroke="#fff" stroke-width="2" stroke-linecap="round" stroke-linejoin="round"/><path d="M23.068 13.436c-1.128-1.51-1.658-3.44 1.307-4.544 1.496-2.9 3.442-1.679 4.687-.01 1.157 1.552 1.464 5.369.449 7.648a.417.417 0 0 1-.279.232.41.41 0 0 1-.352-.078c-2.008-1.623-4.488-1.474-5.812-3.248ZM30.88 23.552v0a6 6 0 0 1-6 6v0" stroke="#fff" stroke-width="2" stroke-linecap="round" stroke-linejoin="round"/><path d="M23.965 25.843c1.855-.33 3.818.062 3.475 3.206 1.92 2.638-.043 3.83-2.093 4.194-1.906.339-5.455-1.098-7.037-3.028a.418.418 0 0 1-.082-.353.41.41 0 0 1 .227-.28c2.352-1.067 3.33-3.35 5.51-3.739ZM11.924 27.24v0a6 6 0 0 1-2.196-8.197v0" stroke="#fff" stroke-width="2" stroke-linecap="round" stroke-linejoin="round"/><path d="M13.397 20.104c-.641 1.773-1.962 3.277-4.514 1.407-3.244.345-3.295-1.952-2.585-3.91.66-1.82 3.679-4.175 6.141-4.58a.417.417 0 0 1 .347.106.409.409 0 0 1 .129.337c-.252 2.57 1.236 4.56.482 6.64Z" stroke="#fff" stroke-width="2" stroke-linecap="round" stroke-linejoin="round"/><defs><radialGradient id="a" cx="0" cy="0" r="1" gradientUnits="userSpaceOnUse" gradientTransform="matrix(-40 0 0 -40 40 40)"><stop stop-color="#265DD7"/><stop offset="1" stop-color="#0582CA"/></radialGradient></defs></svg>