<svg fill="none" xmlns="http://www.w3.org/2000/svg" viewBox="0 0 40 40"><path d="M0 20C0 8.954 8.954 0 20 0s20 8.954 20 20-8.954 20-20 20S0 31.046 0 20Z" fill="url(#a)"/><path stroke="#fff" stroke-width="2" stroke-linecap="round" stroke-linejoin="round" d="M19.238 20.994v8.5M26.984 18.619c0 5.25-2.75 8-8 8 0-7.438 2.313-8 8-8Z"/><path d="M22.444 10c2.36 4.69 1.2 8.64-3.49 11-2.453-6.828-.948-8.577 3.49-11Z" stroke="#fff" stroke-width="2" stroke-linecap="round" stroke-linejoin="round"/><path d="M11.5 16.52c.334 5.677 2.247 8.382 7.488 8.073-.335-5.678-.937-8.46-7.488-8.074Z" stroke="#fff" stroke-width="2" stroke-linecap="round" stroke-linejoin="round"/><defs><radialGradient id="a" cx="0" cy="0" r="1" gradientUnits="userSpaceOnUse" gradientTransform="matrix(22.49999 29.23973 -26.97479 20.75711 5 5.887)"><stop stop-color="#24CCA2"/><stop offset="1" stop-color="#24CCA2" stop-opacity=".62"/></radialGradient></defs></svg>