<svg width="127" height="267" viewBox="0 0 127 267" fill="none" xmlns="http://www.w3.org/2000/svg"><path d="M94.8 175.1l-20-33.8a8 8 0 0 0-6.9-3.9H28.1a8 8 0 0 0-7 4L1.4 175a7.7 7.7 0 0 0 0 7.8l19.9 33.8a8 8 0 0 0 6.9 4h39.8a8 8 0 0 0 7-4L94.6 183a7.6 7.6 0 0 0 0-7.8z" fill="url(#paint0_radial)"/><mask id="a" mask-type="alpha" maskUnits="userSpaceOnUse" x="0" y="137" width="96" height="84"><path d="M94.8 175.1l-20-33.8a8 8 0 0 0-6.9-3.9H28.1a8 8 0 0 0-7 4L1.4 175a7.7 7.7 0 0 0 0 7.8l19.9 33.8a8 8 0 0 0 6.9 4h39.8a8 8 0 0 0 7-4L94.6 183a7.6 7.6 0 0 0 0-7.8z" fill="url(#paint1_radial)"/></mask><g mask="url(#a)" fill-rule="evenodd" clip-rule="evenodd"><path d="M48.3 155.8c13 0 23.5 10.3 23.5 23A23.3 23.3 0 0 1 48.3 202c-13 0-23.6-10.4-23.6-23.1a23.3 23.3 0 0 1 23.6-23.1z" fill="#E9B213"/><path opacity=".2" d="M71.3 178.9a23 23 0 0 1-23.2 22.8c-6.1 0-12-2.4-16.3-6.6 6.1 1.4 21.2 1.8 29.4-8.2 6-7.2 4.8-19.2 2.4-25 5 4.3 7.8 10.5 7.7 17z" fill="#010101"/><path d="M50.5 157.7c-.5.4-.8 1-1 1.5-.7 1.2.5 4 4 4.6 3.6.6 6.5 1.2 7.1-1.7.6-2.9-7.9-4.8-10.1-4.4z" fill="#0582CA"/><path d="M49.9 158.5l11.3-14.9-2.1 17.2c-.8 3.6-11.4 3.6-9.2-2.3z" fill="#fff"/><path d="M49.9 158.5c4.8 3.6 7.8-2.7 9-11.7l2.3-3.2-2.1 17.2c-.8 3.6-11.4 3.6-9.2-2.3z" fill="#0582CA"/><path d="M56.5 149.8s1.2 2.4 3.8 1l.2-1.3s-2 1.2-3.3-.6l-.7.9zM54 153s2 4.5 5.8 1.6l.1-1.2c-1.9 1-3.7.8-5.3-1.3l-.6 1zm5.3 5.7s-5.8 4-8.2-2l.8-1s2.7 4.7 7.5 1.8l-.1 1.2z" fill="#0582CA"/><path d="M16.7 173.7l1.4 13.8-1.4 1.2v1.9s0 1 1.4 1.3c1.5.3 4.2 1.2 8.4.8 2.2-.1 4.4-.7 6.4-1.6.6-.3 1-.8 1-1.5l-.4-2-1.5-1.2-1.4-13.3" fill="#fff"/><path d="M18.1 173.8l1.5 13.7-2.2 1.7s0 .8 3 1.2c3.9 1.2 10.3 0 12.2-1.1 1.5-.6.3-1.2.3-1.2l-1.4-1.7-1.5-13.2-11.9.6z" fill="#E9B213"/><path d="M23.6 172c3.9-.3 7 .2 7 1 .1.8-3 1.6-6.8 1.8-3.9.2-7-.2-7.1-1 0-.8 3-1.7 6.9-1.9z" fill="#fff"/><path d="M33.5 188.8c0 1-3.5 2.5-8 2.8-4.4.2-8-1-8.1-1.9 0-.9 3.5-2 8-2.2 4.4-.2 8 .3 8 1.3z" fill="#E9B213"/><path d="M28.5 185.8a1 1 0 0 1-1.2-.8l-.6-7.5c0-.5.4-1 1-1 .5 0 1 .3 1 .9l.6 7.5c0 .5-.3.9-.8.9zm-3.5.6a1 1 0 0 1-1.1-.8l-.7-7.5c0-.6.4-1 1-1 .5 0 1 .3 1 .8l.7 7.6c0 .5-.4.9-1 .9zm-3.5 0a1 1 0 0 1-1.1-.8l-.7-7.5c0-.6.5-1 1-1 .6 0 1 .3 1.2.8l.5 7.6c0 .5-.4.9-.9.9z" fill="#FFD22D"/><path d="M18.6 174.8s-4.8 1.2-4-2.6c0 0-3-3.2.7-3.2 0 0 .7-2.5 3.5 0 0 0 3-4.4 5.8.7 0 0 2.2-2.6 3.6 1.3 0 0 4.5 1.3 1.2 2.9a19.2 19.2 0 0 1-10.8.9z" fill="#fff"/><path d="M19.3 174.5s-4 1-3.4-2c0 0-2.4-2.5.6-2.5 0 0 .6-2 3 0 0 0 2.5-3.5 5 .5 0 0 1.8-2 3 1 0 0 3.8 1.2 1 2.3a18.1 18.1 0 0 1-9.2.7z" fill="#FFEFAE"/><path d="M23.4 172.2s1.5-.4 1-1.7c0 .1 1.3 1.1-1 1.7zm-6.1-.8a2 2 0 0 0 2.2-.2s-.4 1.5-2.2.2zm2.1-.6a2.4 2.4 0 0 0 2.8 1.5s-2 1.4-2.8-1.5zm6-1s1-.2 1 1.6c0 1.7-1.8 2.2-1.8 2.2s.5-.5 1.1 0c.7.6-.8 1-.8 1s3.7-.1 5-1.4c1.4-1.3-2-1.8-2-1.8s0-1.8-2.5-1.5z" fill="#03A9F4"/><path d="M60.6 179.2s0-6.4 3.3-6.4c3.2 0 3.2 6.1 3.2 6.1s-2.7-6.1-6.5.3zm-14.1.2s0-6.9 3.5-6.9c3.6 0 3.6 6.7 3.6 6.7s-3-6.7-7.1.2z" fill="#010101"/><path d="M45.3 182h22.6s-.7 13.3-11.5 13.3c-3 .2-5.7-1-7.6-3.3-3.4-4-3.5-10-3.5-10z" fill="#603813"/><path d="M64.8 190.9a9.8 9.8 0 0 1-8.4 4.2c-3 .1-5.7-1-7.6-3.3-3.4-4 18.8-4.8 16-1z" fill="#F15A24"/><path d="M45.3 181.8h22.6c0 1.4-.3 2.8-.8 4.2 0 0-13.3 2.4-21.1-.2-.4-1.3-.6-2.7-.7-4z" fill="#fff"/><path d="M27.6 211.8h44.2s3.5 0 4.1-1.3c.6-1.2.6 2-4 2.6-4.8.7-39.6 0-44.3 0-4.7 0-5.3-1.3 0-1.3z" fill="#444"/><path d="M21.2 212.6h44.1s3.6 0 4.2-1.3c.5-1.3.5 1.9-4.2 2.6-4.7.7-39.4 0-44.1 0h-1.3l-1-1.2 2.3-.1z" fill="#919191"/><path d="M48.2 200.7L41.9 211s-.6 1.5 5.8 1.5H61s3.2-3 1.3-4.5c-1.9-1.5-7-2-7-2l5-8s-4.4 3-12.1 2.8z" fill="#1F2348"/><path d="M38.6 199.2L31.8 211s-.6 1.5 5.7 1.5H51s3.2-3 1.3-4.5c-1.9-1.5-7-2-7-2l4.5-5c-.1 0-4.6.5-11.1-1.7z" fill="#464D8A"/><path d="M54 203l4.9 1.1.2.4v.3l-.4.2-4.8-1.1c-.2 0-.2-.2-.2-.4v-.3l.4-.2zm1-1.8l4.7 1.1c.2 0 .3.2.3.4v.3l-.4.2-4.8-1.1c-.2 0-.3-.2-.3-.4l.1-.2c0-.2.2-.3.4-.3zm-11 2.4l4.8 1.1c.2 0 .3.2.3.3v.3c-.1.2-.3.3-.4.3l-4.8-1.1c-.2 0-.2-.2-.2-.4v-.3l.4-.2zm1-1.8l4.7 1.1c.2 0 .3.2.3.4l-.1.2c0 .2-.2.3-.4.3l-4.7-1.1c-.2 0-.3-.2-.3-.4v-.3l.4-.2z" fill="#03A9F4"/></g><path opacity=".1" d="M173.7 220.9L153.8 187a8 8 0 0 0-6.9-4h-39.8a8 8 0 0 0-7 4l-19.8 33.8a7.7 7.7 0 0 0 0 7.8l19.9 33.8a8 8 0 0 0 6.9 3.9h39.8a8 8 0 0 0 7-4l19.8-33.7a7.6 7.6 0 0 0 0-7.8z" fill="url(#paint2_radial)"/><path d="M94.8 83.6L74.8 50a8 8 0 0 0-6.9-4H28.1a8 8 0 0 0-7 4L1.4 83.6a7.7 7.7 0 0 0 0 7.8l19.9 33.8a8 8 0 0 0 6.9 4h39.8a8 8 0 0 0 7-4l19.8-33.8a7.6 7.6 0 0 0 0-7.8z" fill="url(#paint3_radial)"/><mask id="b" mask-type="alpha" maskUnits="userSpaceOnUse" x="0" y="45" width="96" height="85"><path d="M94.8 83.6L74.8 50a8 8 0 0 0-6.9-4H28.1a8 8 0 0 0-7 4L1.4 83.6a7.7 7.7 0 0 0 0 7.8l19.9 33.8a8 8 0 0 0 6.9 4h39.8a8 8 0 0 0 7-4l19.8-33.8a7.6 7.6 0 0 0 0-7.8z" fill="#E9B213"/></mask><g mask="url(#b)" clip-rule="evenodd"><path fill-rule="evenodd" d="M50.2 64.3c13 0 23.6 10.3 23.6 23a23.3 23.3 0 0 1-23.6 23.2c-13 0-23.5-10.4-23.5-23.1a23.3 23.3 0 0 1 23.5-23.1z" fill="#FB8C00"/><path opacity=".2" fill-rule="evenodd" d="M73.3 87.4a23 23 0 0 1-23.2 22.8c-6.1 0-12-2.4-16.3-6.6 6 1.4 21.2 1.8 29.3-8.2 6.1-7.2 5-19.2 2.5-25 5 4.3 7.7 10.5 7.7 17z" fill="#010101"/><path fill-rule="evenodd" d="M52.5 66.2c-.5.5-.9 1-1.1 1.5-.6 1.2.6 4 4.1 4.7 3.6.5 6.5 1.1 7-1.8.7-2.9-7.8-4.7-10-4.4z" fill="#1F2348"/><path fill-rule="evenodd" d="M51.9 67l11.3-14.9s-2 15.5-2.1 17.3c-.9 3.5-11.5 3.5-9.2-2.4z" fill="#fff"/><path fill-rule="evenodd" d="M51.9 67c4.8 3.6 7.7-2.7 8.9-11.7l2.4-3.2s-2 15.5-2.1 17.3c-.9 3.5-11.5 3.5-9.2-2.4z" fill="#1F2348"/><path fill-rule="evenodd" d="M58.5 58.3s1.2 2.4 3.8 1l.1-1.3s-2 1.2-3.3-.6l-.6.9zM56 61.5s2.1 4.5 5.8 1.6L62 62c-2 .9-3.7.7-5.3-1.4l-.7 1zm5.3 5.7s-5.8 4-8.1-2l.7-1s2.8 4.7 7.6 1.8l-.2 1.2z" fill="#1F2348"/><path fill-rule="evenodd" d="M17.6 80.4s-2.8.2-3.8.7c-.3.2-.3.7 0 1a14 14 0 0 1 4.8 6.3c2 4.9 2 9.6 8.1 11.8 6.1 2.1 8.7 0 8.7 0s4.2-5.3-.5-10.4c0 0-1-.9-2.7-.3-2.2.7-4.5 1-7-3.3-2.4-4.4-3.6-6.3-7.6-5.8zM80 77.6c-1.3-1.2-9.2-.3-9.2-.3l.5 1 1.4 2.9c1.5-.6 3-1.1 4.6-1.4 0 0 1.1 11 0 12.2-1.3 1.2-5 1.9-5 1.9l-.4 1-.6 1.5s10 .8 10-6.1c.4-9.4.4-11.3-1.3-12.7z" fill="#FB8C00"/><path fill-rule="evenodd" d="M14.8 82.7c2.7 2.4 3.4 4.6 3.8 5.7 2 4.9 2 9.6 8.1 11.8 6.1 2.1 8.7 0 8.7 0s3.2-3.5 1-8.1c0 0 2.3 6.3-4.6 6.3-3.2 0-6.2-.5-8.6-3.5-3.1-3.9-4.6-10.9-8.4-12.2z" fill="#1F2348"/><path fill-rule="evenodd" d="M17.6 80.4c2-.1 3.8.2 3.8.8 0 .5-1.6 1-3.7 1.2-2 .1-3.8-.2-3.8-.8 0-.5 1.6-1 3.7-1.2z" fill="#fff"/><path fill-rule="evenodd" d="M17.8 80.9c1.5-.1 2.8 0 2.8.3s-1.2.6-2.8.7c-1.6 0-2.8 0-2.9-.3 0-.3 1.3-.6 2.9-.7z" fill="#1F2348"/><path fill-rule="evenodd" d="M20.6 81.2c.3.5-2.8.7-2.8.7.2-.6.2-1 0-1 0 0 2.5-.2 2.8.3z" fill="#010101"/><path fill-rule="evenodd" d="M77.4 79.8s1.1 11 0 12.2c-1.3 1.2-5 1.9-5 1.9l-.4 1s5.2-.7 6.5-2.4c1.2-1.6.6-10.3.6-10.3s.1-3-1.7-2.4z" fill="#1F2348"/><path fill-rule="evenodd" d="M71 77.3s8.5-1 9.4.5c-1.3-.4-3.6-.2-5.2 0l-3.8.5-.5-1zM29.8 90.3c3.1.6 5.4 0 6.2 1l-1-1.5c-.2 0-1.2-.9-2.8-.3-6.4 2.3-6.8-5.5-10.4-8.2 3.6 4.1 3.4 8.1 8 9z" fill="#fff"/><path fill-rule="evenodd" d="M64.8 99.6a8.8 8.8 0 0 1-6.6 2.9H58c-2.5 0-4.9-1-6.5-3-1.8-1.8-3-4.9-3-6.3 0-1.2 2.1.4 7.3.8h2.5c4.6 0 7.5-1.4 8-1.7.6-.3 1.5-.4 1.5 1 0 1.2-1.3 4.4-3 6.3z" fill="#1F2348"/><path fill-rule="evenodd" d="M51.6 80c2-.1 3.8 2 4 4.8 0 2.7-1.4 5-3.5 5.1-2 .1-3.7-2-3.9-4.7-.1-2.8 1.4-5 3.4-5.2z" fill="#fff"/><path fill-rule="evenodd" d="M52 82.7c1.1 0 2.1 1.1 2.1 2.5 0 1.5-1 2.6-2.2 2.6-1.2 0-2.2-1.1-2.2-2.6 0-1.4 1-2.5 2.2-2.5z" fill="#1F2348"/><path fill-rule="evenodd" d="M50.5 82.7c.7 0 1.2.5 1.2 1.2 0 .6-.5 1.1-1.2 1.1-.6 0-1.2-.5-1.2-1.1 0-.7.6-1.2 1.2-1.2z" fill="#fff"/><path fill-rule="evenodd" d="M48.9 80c2-2.3 4-2.3 6 0 0 0-2.7-5.5-6 0z" fill="#1F2348"/><path fill-rule="evenodd" d="M65.1 80c2 0 3.8 2 4 4.8.1 2.8-1.4 5-3.4 5.2-2 0-3.8-2-4-4.8 0-2.7 1.4-5 3.4-5.1z" fill="#fff"/><path fill-rule="evenodd" d="M65.5 82.7c1.2 0 2.2 1.1 2.2 2.5 0 1.5-1 2.6-2.2 2.6-1.2 0-2.2-1.1-2.2-2.6 0-1.4 1-2.5 2.2-2.5z" fill="#1F2348"/><path fill-rule="evenodd" d="M64 82.7c.7 0 1.2.5 1.2 1.2 0 .6-.5 1.1-1.1 1.1-.7 0-1.2-.5-1.2-1.1 0-.7.5-1.2 1.2-1.2z" fill="#fff"/><path fill-rule="evenodd" d="M62.4 80c2-2.3 4.1-2.3 6.1 0 0 0-2.8-5.5-6 0z" fill="#1F2348"/><path fill-rule="evenodd" d="M43.3 79.9h-1v2.3h1c.6.2 1 .7 1 1.3v3.3s0 4.7 7 4.6c0 0-5 0-5.8-4.8v-3.1c0-.5-.4-1-.8-1l-1.1-.3-.3-2.3z" fill="#DD6901"/><path d="M43.3 79.9v2.3l1.2.1c.5.2.8.6.8 1v3.2s.6 5.2 6.4 4.9c5.8-.3 6-5.7 6-5.7s0-3.8 1.3-3.8 1.4 3.8 1.4 3.8.2 5.7 6 5.7c5.9 0 6-5 6-5v-3.3c0-.4.4-.7.9-.7h1V80H61.6c-.4.1-.8.3-1.1.7L59 81.8l-1.3-1.2a2 2 0 0 0-1.6-.6L43.3 80z" stroke="#1F2348"/><path fill-rule="evenodd" d="M56.2 97l-.1-2.6c1.9.3 3.9.2 5.8-.2l.2 2.4c0 .3-.2.4-.4.5l-2.4.2-.2-2-.2 2h-2.3c-.3 0-.4-.2-.4-.4z" fill="#fff"/><path fill-rule="evenodd" d="M50.2 112.1c10.4 0 18.9 2.3 18.9 5 0 2.8-8.5 5-18.9 5-10.4 0-18.8-2.2-18.8-5 0-2.7 8.4-5 18.8-5z" fill="#1F2348"/></g><path d="M173.7 38L153.8 4A8 8 0 0 0 147 .2h-39.8a8 8 0 0 0-7 4L80.4 37.8a7.7 7.7 0 0 0 0 7.8l19.9 33.8a8 8 0 0 0 6.9 3.9h39.8a8 8 0 0 0 7-4l19.8-33.7a7.6 7.6 0 0 0 0-7.8z" fill="url(#paint4_radial)"/><mask id="c" mask-type="alpha" maskUnits="userSpaceOnUse" x="79" y="0" width="96" height="84"><path d="M173.7 38L153.8 4A8 8 0 0 0 147 .2h-39.8a8 8 0 0 0-7 4L80.4 37.8a7.7 7.7 0 0 0 0 7.8l19.9 33.8a8 8 0 0 0 6.9 3.9h39.8a8 8 0 0 0 7-4l19.8-33.7a7.6 7.6 0 0 0 0-7.8z" fill="url(#paint5_radial)"/></mask><g mask="url(#c)"><path fill-rule="evenodd" clip-rule="evenodd" d="M127.6 18.2c13 0 23.5 10.4 23.5 23.1a23.3 23.3 0 0 1-23.5 23.2c-13 0-23.6-10.4-23.6-23.2a23.3 23.3 0 0 1 23.6-23z" fill="#21BCA5"/><path opacity=".2" fill-rule="evenodd" clip-rule="evenodd" d="M150.7 41.3a23 23 0 0 1-23.3 22.8c-6 0-12-2.3-16.3-6.5 6.1 1.3 21.2 1.7 29.4-8.3 6-7.2 4.9-19.2 2.4-25 5 4.4 7.8 10.6 7.8 17z" fill="#010101"/><path fill-rule="evenodd" clip-rule="evenodd" d="M127.9 20s-2.1-10.4-4.3-13.2c-.1 0-1-.2-2.4.4l-.1.1s1.5 1.5 5.3 12.6c0 0 1.5.8 1.5 0z" fill="#E9B213"/><path fill-rule="evenodd" clip-rule="evenodd" d="M122.4 6.7c.7 0 1.3 0 1.3.3 0 .2-.6.4-1.3.5-.7 0-1.3 0-1.3-.3 0-.2.6-.4 1.3-.5z" fill="#F4B145"/><path fill-rule="evenodd" clip-rule="evenodd" d="M126 19s.3 0 .6-.8a2 2 0 0 0-1.4-2.6c-1.2-.3-1.7-1.4-2.5-2.4s-3.8-2.7-8.8-2.6c-5 .1-6-1.7-6.4-2-.4-.4-.5 3.4 1.7 6.2 2.3 2.9 5.5 4.8 9.2 3 3.7-1.9 5.5-.1 5.5-.1s1.3 1.3 2 1.3z" fill="#D94432"/><path fill-rule="evenodd" clip-rule="evenodd" d="M126 19s.3 0 .6-.8a2 2 0 0 0-1.4-2.6c-1.2-.3-1.7-1.4-2.5-2.4s-3.8-2.8-8.8-2.6c-5.8.2-6.6-2.7-6.5-2 1.7 6.7 13.5 2.5 18.5 10.4z" fill="#010101"/><path fill-rule="evenodd" clip-rule="evenodd" d="M105.7 34.8a5 5 0 0 1 .7 4.5l-.3 1.1h2.6c1.7.6 1.8 4.7.3 6l-1.8 1.2c-.5.7-3 3-5 3.7l-1.9.8c-3.5 1.4-10.2 3.4-11.3-3.8l.2-3.8c0-1.9-1-3.3.4-7 1.4-3.6 5.2-4.1 8-3.4 0 0 .5.3 1.5-1 .9-1.2 4.8-1.9 6.6 1.7z" fill="#D8D8D8"/><path fill-rule="evenodd" clip-rule="evenodd" d="M109 46.5s-4.8 4.1-6.6 4.8c-1.6.6-9.6 4.7-12.4-.3-.4-.8-.7-1.7-.9-2.7.5 1.3 3.4 2.5 6.2 2.5 4 .2 6.6-2.5 9-2 1.5-1 3.1-1.7 4.8-2.3z" fill="#010101"/><path d="M100.8 36.8a.3.3 0 0 0 .5-.2l-.5.2zm-6-22.1a.3.3 0 0 0-.5.1l.5-.1zm12 18a.2.2 0 1 0 .4-.1l-.5.1zM99.4 6.6a.2.2 0 1 0-.5.1l.5-.1zm4.9 29.6a.2.2 0 1 0 .4-.1l-.4.1zm-7-25.6a.3.3 0 0 0-.4.2l.5-.2zm11.4 4.4a.3.3 0 0 0-.2-.5l.2.5zm-19 10a.3.3 0 0 0 .2.4l-.3-.5zm17.9-14a.3.3 0 0 0-.3-.5l.3.4zm-16.2 8.2a.2.2 0 1 0 .3.4l-.3-.4zm18 9V28h-.3l.2.4zm-13.3 7.1a.3.3 0 1 0 .3.5l-.3-.5zM104.7 8c.1 0 .2-.2.1-.3 0-.1-.2-.2-.3 0l.2.3zM95 12.8a.3.3 0 0 0 .3.4l-.3-.4zm6.3 23.8l-6.5-22-.5.2 6.5 22 .5-.2zm5.9-4l-7.7-26-.5.1 7.7 26 .5-.1zm-2.4 3.5l-7.3-25.5-.5.2 7.4 25.4.4-.1zm3.8-21.6L89.7 25l.3.5L108.8 15l-.2-.5zm-1.2-4l-15.9 8.7.3.4 15.9-8.7-.3-.4zm1.8 17.3l-13 7.5.3.5 13-7.5-.3-.5zm-4.7-20.2L95 12.8l.3.4 9.4-5.2-.2-.4z" fill="#000"/><path d="M109.3 28.6l-7-23.7" stroke="#000" stroke-width=".5"/><path d="M111.8 22.5v-.3c0-.2-.1-.2-.3-.1l.3.4zm-19.1 10a.2.2 0 1 0 .2.4l-.2-.4zM110 19a.2.2 0 1 0-.2-.4l.2.4zM91 29a.3.3 0 0 0 .2.4l-.3-.4zm5.7 5.5a.3.3 0 1 0 .5-.2l-.5.2zm-4.2-16.3a.3.3 0 0 0-.5.1l.5-.1zm19 3.9L92.7 32.5l.2.4 18.9-10.4-.3-.4zm-1.7-3.5L90.9 29l.3.4L110 19l-.2-.4zM97.2 34.3l-4.7-16.1-.5.1 4.7 16.2.5-.2z" fill="#000"/><path fill-rule="evenodd" clip-rule="evenodd" d="M102.2 55l.3 4s.4 1.2-.6 1.5c-1 .2 3.6.2 3-1.5 0-.7-.5-1.2-1.2-1.2l-.2-2.8h-1.3z" fill="#F06292"/><path fill-rule="evenodd" clip-rule="evenodd" d="M100.7 34.7c-5.2.4-10-5-11.1-12C93.4 15.8 98 8.3 99 6.3c5.3.2 9.8 6 10.4 13.3.8 7.8-3.3 14.5-8.8 15zm0 8.7L97.9 37s1.8 2.3 5.3 0l-2.3 6.4zm10.7-27.8c-1-5.3-5.7-10.3-10.6-11.2-1-.2-8.6 14.4-13.1 21.6.8 2.5 2.3 4.8 5.4 8.7 5.3 8 6.5 8.7 7 16.2l.7 7s-.6 0-.6 1c0 1.2 1.2 1.8 2.3 1.8 1.2 0 2.4-.6 2.4-1.7 0-.7-.5-1.2-1.2-1.2l-.6-7s-.3-11.6 4.7-17.8c5-6.2 4.7-11 3.6-17.4z" fill="#D94432"/><path fill-rule="evenodd" clip-rule="evenodd" d="M100.5 4.6c1.8.1 3.4 1.4 4.7 2.7 3.5 3.4 4.7 5.7 5.3 12 .6 6.4-2 12-4.4 14.2-2.4 2.4-8.3 3.5-8.3 3.5.9.5 2 .7 3 .6l2.4-.8 1.7 1.4c1-2 2-4 3.4-5.8 1.9-2.3 4-6 3.8-11.2-.2-5.2-1.7-14.3-11.3-16.8l-.3.2z" fill="#010101"/><path fill-rule="evenodd" clip-rule="evenodd" d="M101.1 51.8c-3.3 1.4-10.8 4.2-12-3.5l.2-3.9c.2-1.9-.8-3.3.5-7 1.4-3.6 1.4-3.6 8-3.4 6 .2 3.1 9.4 4.3 15.7 0 .6-.5 1.9-1 2.1z" fill="#fff"/><path fill-rule="evenodd" clip-rule="evenodd" d="M102.4 51.3c1.8-.4-12 6-13.3-3l.2-3.8c0-2-1-3.3.4-7 1.4-3.6 5.2-4.2 8-3.4-8.7.5-4.9 18.4 4.7 17.2z" fill="#D94432"/><path d="M125.3 45.6s1.6 7.7 10.8 7.3c9.4-.5 9.7-7.9 9.7-7.9" stroke="#1F2348" stroke-width="2" stroke-linecap="round" stroke-linejoin="round"/><path d="M125 34.5c2 0 4.2 1.2 5 3.6-1.8-1.2-2.4-1.6-5.2-.3" stroke="#1F2348" stroke-width="2.5" stroke-linecap="round" stroke-linejoin="round"/><path fill-rule="evenodd" clip-rule="evenodd" d="M116.4 61.4c3.9 4 9.8 7.6 15.6 9.3-4.1 1.4-4.7 3.7-5.6 7 0 0 9-1.9 10-4.4 0 0 3.5 4 10.6 3.3-1.3-3.3-5.3-7-10.6-7.8-1.6 0-2.5-3.9 1.8-7.2-13 5-21.8-.2-21.8-.2z" fill="#21BCA5"/><path fill-rule="evenodd" clip-rule="evenodd" d="M132 70.7c-3.8 1.2-4.8 3.8-5.6 7 0 0 9-1.9 10-4.4 0 0 3.5 4 10.6 3.3-1.3-3.3-5.3-7-10.6-7.8 0 .3-.4.6-.3 1.3-1-.2-2.6 0-4 .6z" fill="#D94432"/></g><defs><radialGradient id="paint0_radial" cx="0" cy="0" r="1" gradientUnits="userSpaceOnUse" gradientTransform="matrix(-95.6281 0 0 -83.1662 95.8 220.6)"><stop stop-color="#41A38E"/><stop offset="1" stop-color="#21BCA5"/></radialGradient><radialGradient id="paint1_radial" cx="0" cy="0" r="1" gradientUnits="userSpaceOnUse" gradientTransform="matrix(-95.6281 0 0 -83.1662 95.8 220.6)"><stop stop-color="#41A38E"/><stop offset="1" stop-color="#21BCA5"/></radialGradient><radialGradient id="paint2_radial" cx="0" cy="0" r="1" gradientUnits="userSpaceOnUse" gradientTransform="matrix(-95.6281 0 0 -83.1662 174.8 266.4)"><stop stop-color="#260133"/><stop offset="1" stop-color="#1F2348"/></radialGradient><radialGradient id="paint3_radial" cx="0" cy="0" r="1" gradientUnits="userSpaceOnUse" gradientTransform="matrix(-95.6281 0 0 -83.1662 95.8 129.1)"><stop stop-color="#CC3047"/><stop offset="1" stop-color="#D94432"/></radialGradient><radialGradient id="paint4_radial" cx="0" cy="0" r="1" gradientUnits="userSpaceOnUse" gradientTransform="matrix(-95.6281 0 0 -83.1662 174.8 83.4)"><stop stop-color="#FD6216"/><stop offset="1" stop-color="#FC8701"/></radialGradient><radialGradient id="paint5_radial" cx="0" cy="0" r="1" gradientUnits="userSpaceOnUse" gradientTransform="matrix(-95.6281 0 0 -83.1662 174.8 83.4)"><stop stop-color="#265DD7"/><stop offset="1" stop-color="#0582CA"/></radialGradient></defs></svg>
