<svg width="110" height="250" viewBox="0 0 110 250" fill="none" xmlns="http://www.w3.org/2000/svg">
<g clip-path="url(#clip0)">
<path d="M73.4314 187.49C65.5886 218.948 33.7276 238.085 2.26474 230.243C-29.1816 222.401 -48.3261 190.543 -40.4796 159.091C-32.6405 127.633 -0.781345 108.491 30.6705 116.332C62.1296 124.174 81.2723 156.036 73.4295 187.49H73.4314Z" fill="#F7931A"/>
<path d="M44.5899 163.868C45.8116 156.099 39.5937 151.923 31.0917 149.137L33.8496 138.614L27.1159 137.017L24.4308 147.263C22.6373 146.844 20.8395 146.442 19.0377 146.056L21.7419 135.742L15.0101 134.146L12.2522 144.665C10.7869 144.348 9.34846 144.034 7.95223 143.704L7.9599 143.671L-1.32657 141.465L-3.11788 148.307C-3.11788 148.307 1.87824 149.396 1.77276 149.464C4.50001 150.111 4.99291 151.828 4.91044 153.189L1.76892 165.178C1.95687 165.223 2.20045 165.291 2.46896 165.391L1.75741 165.223L-2.64608 182.018C-2.9798 182.806 -3.82559 183.988 -5.7339 183.539C-5.66486 183.632 -10.6265 182.377 -10.6265 182.377L-13.9694 189.711L-5.20648 191.791C-3.57626 192.178 -1.97865 192.585 -0.405976 192.968L-3.19269 203.612L3.53339 205.208L6.29133 194.676C8.12868 195.152 9.91232 195.588 11.6576 196.002L8.90734 206.484L15.6392 208.08L18.4278 197.456C29.9103 199.523 38.5446 198.689 42.1791 188.812C45.1077 180.857 42.0333 176.269 35.9919 173.275C40.3916 172.308 43.7057 169.555 44.5899 163.868ZM29.2026 184.389C27.1216 192.344 13.0423 188.046 8.47773 186.965L12.1754 172.864C16.74 173.95 31.3775 176.095 29.2026 184.389ZM31.2854 163.755C29.3867 170.989 17.6683 167.312 13.867 166.411L17.2195 153.622C21.0208 154.523 33.2627 156.205 31.2854 163.753V163.755Z" fill="white"/>
<path d="M73.3884 74.3184L46.8158 28.1013C44.9203 24.795 41.395 22.7686 37.604 22.7686H-15.5411C-19.3321 22.7686 -22.8397 24.8128 -24.7352 28.1013L-51.3254 74.3184C-53.2209 77.6247 -53.2209 81.6776 -51.3254 84.9839L-24.7529 131.201C-22.8574 134.507 -19.3321 136.534 -15.5411 136.534H37.604C41.395 136.534 44.9026 134.489 46.7981 131.201L73.3707 84.9839C75.2839 81.6953 75.2839 77.6247 73.3884 74.3184Z" fill="url(#paint0_radial)"/>
<path fill-rule="evenodd" clip-rule="evenodd" d="M13.9112 47.916C31.2344 47.916 45.2765 62.2609 45.2765 79.9558C45.2765 97.6506 31.2344 111.996 13.9112 111.996C-3.41117 111.996 -17.4541 97.6506 -17.4541 79.9558C-17.4541 62.2609 -3.41117 47.916 13.9112 47.916Z" fill="#D94432"/>
<path opacity="0.3" fill-rule="evenodd" clip-rule="evenodd" d="M44.6482 79.9557C44.6473 97.4111 30.7934 111.562 13.7046 111.56C5.58795 111.56 -2.20371 108.302 -7.9906 102.487C0.133008 104.354 20.2382 104.891 31.0749 91.0494C39.222 81.061 37.591 64.4324 34.3369 56.3984C40.9079 62.3881 44.6604 70.9596 44.6482 79.9557Z" fill="#010101"/>
<path fill-rule="evenodd" clip-rule="evenodd" d="M-8.99275 41.9081C-8.99275 41.9081 -7.11084 46.714 -4.75844 45.7528C-2.40605 44.7917 32.9583 44.3912 32.9583 44.3912L36.0948 40.6265C36.0948 40.6265 42.1326 36.5414 39.3098 43.2698C39.3098 43.2698 38.4472 44.7116 37.6631 46.1533C37.1926 46.9543 36.8005 47.9155 36.5662 48.8767C36.4869 49.9981 37.8983 46.6339 37.8983 46.6339L40.878 51.52C40.878 51.52 42.8384 55.2046 39.4675 54.8842C36.0948 54.5638 33.9777 52.0807 32.9583 50.7991L-4.75844 52.1608C-4.75844 52.1608 -9.8553 58.7289 -12.1293 58.4886C-14.4033 58.2484 -14.168 56.0056 -12.6782 51.4399C-12.6782 51.4399 -11.3451 49.1971 -11.2667 48.0757C-11.1883 46.9543 -12.5213 50.3185 -12.5213 50.3185C-12.5213 50.3185 -15.109 44.231 -15.3442 43.1096C-15.8931 40.1459 -12.7566 35.8205 -8.99275 41.9081Z" fill="white"/>
<path fill-rule="evenodd" clip-rule="evenodd" d="M-10.8723 48.3978C-10.8723 48.3978 -8.36303 47.8371 -9.53923 48.8784C-10.7154 49.9197 -12.911 53.0435 -6.63794 50.8008C-0.364886 48.558 30.3731 48.6381 30.3731 48.6381L32.5678 50.4804L-4.67761 52.0824C-4.67761 52.0824 -9.22558 57.6893 -11.4996 57.5291C-13.7735 57.3689 -12.0485 51.9222 -12.0485 51.9222L-10.8723 48.3978ZM38.2888 39.5062C38.2888 39.5062 40.0923 40.3873 37.5831 43.6713C35.0738 46.9554 32.643 47.9166 37.0342 50.64C41.4253 53.3634 40.4051 50.9604 40.4051 50.9604L37.8958 46.7151C37.8958 46.635 42.7583 38.6251 38.2888 39.5062Z" fill="#21BCA5"/>
<path opacity="0.7" fill-rule="evenodd" clip-rule="evenodd" d="M11.5552 76.7516C11.5552 76.7516 11.5552 67.1396 16.26 67.1396C20.9648 67.1396 20.9648 76.4231 20.9648 76.4231C20.9648 76.4231 17.0441 67.1396 11.5552 76.7516Z" fill="black"/>
<path opacity="0.7" fill-rule="evenodd" clip-rule="evenodd" d="M30.3784 76.35C30.3784 76.35 30.3784 67.5391 34.6911 67.5391C39.0038 67.5391 39.0038 76.0456 39.0038 76.0456C39.0038 76.0456 35.4125 67.5391 30.3784 76.35Z" fill="black"/>
<path opacity="0.7" fill-rule="evenodd" clip-rule="evenodd" d="M25.9319 92.0415C25.5285 92.0415 25.1373 92.0246 24.7548 91.9925C24.0648 91.9454 23.7511 96.2867 22.7553 96.5351C21.7603 96.7834 21.4074 91.4247 20.7636 91.2245C18.9061 90.6478 15.6824 89.8147 14.2875 88.8936C11.151 86.819 10.8217 84.2959 10.8217 83.2866C10.8217 81.3803 16.6704 87.628 25.7202 87.628H26.0809C32.2668 87.628 36.1021 85.6015 36.7834 85.225C37.4656 84.8486 38.6575 84.7044 38.6575 86.5057C38.6575 87.3797 37.2068 88.7245 34.9808 89.8779C34.4084 90.1743 34.3055 96.6312 33.1137 96.3259C31.9227 96.0224 31.758 91.2076 31.0357 91.4087C29.3707 91.8546 27.6535 92.0673 25.9319 92.0415Z" fill="black"/>
<path fill-rule="evenodd" clip-rule="evenodd" d="M20.123 86.7949L22.1383 95.9103C22.1383 95.9103 22.499 97.4491 23.2988 95.9103C24.0977 94.3732 25.2591 87.5799 25.2591 87.5799C23.521 87.5372 21.7959 87.2737 20.123 86.7949Z" fill="white"/>
<path fill-rule="evenodd" clip-rule="evenodd" d="M22.5342 89.1742C22.5342 89.1742 23.4673 88.7657 22.5342 95.9106C22.5342 95.9106 22.5342 96.7757 23.3183 95.9106C23.9456 94.3736 25.2629 87.5803 25.2629 87.5803C24.1129 87.5945 22.9663 87.4735 21.8441 87.2207L22.5342 89.1742Z" fill="#21BCA5"/>
<path fill-rule="evenodd" clip-rule="evenodd" d="M30.2479 87.2685L32.4505 95.4467C32.4505 95.4467 33.408 97.321 33.8471 95.4467C34.2862 93.5723 35.235 85.9229 35.235 85.9229C35.235 85.9229 34.0501 86.5797 30.2479 87.2685Z" fill="white"/>
<path fill-rule="evenodd" clip-rule="evenodd" d="M32.2963 88.6057C32.2963 88.6057 33.1354 88.0299 33.4725 95.2299C33.4995 95.3599 33.5614 95.48 33.6529 95.5744C33.7783 95.6865 34.9781 86.2588 34.9781 86.2588C33.7679 86.7723 32.5325 87.2218 31.277 87.6045L32.2963 88.6057Z" fill="#21BCA5"/>
<path fill-rule="evenodd" clip-rule="evenodd" d="M13.1202 111.354L12.8066 120.325C12.8066 120.325 13.6691 122.408 5.20051 122.408H-12.5993C-12.5993 122.408 -16.8336 118.242 -14.3244 116.159C-11.8152 114.078 -4.99321 113.437 -4.99321 113.437L-7.03195 108.149L13.1202 111.354Z" fill="#1F2348"/>
<path fill-rule="evenodd" clip-rule="evenodd" d="M4.8899 121.607C6.5784 121.607 7.94801 123.006 7.94801 124.731C7.94801 126.456 6.5784 127.855 4.8899 127.855C3.2014 127.855 1.83179 126.456 1.83179 124.731C1.83179 123.006 3.2014 121.607 4.8899 121.607Z" fill="#1F2348"/>
<path fill-rule="evenodd" clip-rule="evenodd" d="M6.21949 121.447C7.90886 121.447 9.2776 122.845 9.2776 124.571C9.2776 126.296 7.90886 127.695 6.21949 127.695C4.53099 127.695 3.16138 126.296 3.16138 124.571C3.16138 122.845 4.53099 121.447 6.21949 121.447Z" fill="white"/>
<path fill-rule="evenodd" clip-rule="evenodd" d="M6.22497 122.808C7.17813 122.808 7.95006 123.597 7.95006 124.57C7.95006 125.543 7.17813 126.332 6.22497 126.332C5.27268 126.332 4.49988 125.543 4.49988 124.57C4.49988 123.597 5.27268 122.808 6.22497 122.808Z" fill="#21BCA5"/>
<path fill-rule="evenodd" clip-rule="evenodd" d="M15.1639 111.354L13.9093 120.324C13.9093 120.324 13.1251 122.408 21.5938 122.408H39.3936C39.3936 122.408 43.6279 118.242 41.1187 116.159C38.6094 114.078 29.4351 113.437 29.4351 113.437L29.9056 108.951L15.1639 111.354Z" fill="#1F2348"/>
<path fill-rule="evenodd" clip-rule="evenodd" d="M25.5914 109.832L32.1006 110.233C32.3349 110.233 32.4918 110.475 32.4918 110.634V111.036C32.4918 111.276 32.2565 111.437 32.1006 111.437L25.5914 111.036C25.3562 111.036 25.1993 110.795 25.1993 110.634V110.233C25.1993 109.993 25.4346 109.752 25.5914 109.832Z" fill="#21BCA5"/>
<path fill-rule="evenodd" clip-rule="evenodd" d="M24.8045 111.673L31.3129 112.074C31.5472 112.074 31.7049 112.314 31.7049 112.475V112.877C31.7049 113.116 31.4688 113.277 31.3129 113.277L24.8045 112.877C24.5684 112.877 24.4125 112.635 24.4125 112.475V112.074C24.4125 111.833 24.5684 111.673 24.8045 111.673Z" fill="#21BCA5"/>
<path fill-rule="evenodd" clip-rule="evenodd" d="M21.9108 121.607C23.5993 121.607 24.9689 123.006 24.9689 124.731C24.9689 126.456 23.5993 127.855 21.9108 127.855C20.2223 127.855 18.8518 126.456 18.8518 124.731C18.8518 123.006 20.2223 121.607 21.9108 121.607Z" fill="#1F2348"/>
<path fill-rule="evenodd" clip-rule="evenodd" d="M20.5695 121.447C22.258 121.447 23.6276 122.845 23.6276 124.571C23.6276 126.296 22.258 127.695 20.5695 127.695C18.881 127.695 17.5114 126.296 17.5114 124.571C17.5114 122.845 18.881 121.447 20.5695 121.447Z" fill="white"/>
<path fill-rule="evenodd" clip-rule="evenodd" d="M20.5798 122.808C21.533 122.808 22.3049 123.597 22.3049 124.57C22.3049 125.543 21.533 126.332 20.5798 126.332C19.6267 126.332 18.8547 125.543 18.8547 124.57C18.8547 123.597 19.6267 122.808 20.5798 122.808Z" fill="#21BCA5"/>
<path fill-rule="evenodd" clip-rule="evenodd" d="M34.4518 121.607C36.1403 121.607 37.5108 123.006 37.5108 124.731C37.5108 126.456 36.1403 127.855 34.4518 127.855C32.7633 127.855 31.3937 126.456 31.3937 124.731C31.3937 123.006 32.7633 121.607 34.4518 121.607Z" fill="#1F2348"/>
<path fill-rule="evenodd" clip-rule="evenodd" d="M33.1171 121.447C34.8056 121.447 36.1752 122.845 36.1752 124.571C36.1752 126.296 34.8056 127.695 33.1171 127.695C31.4286 127.695 30.0581 126.296 30.0581 124.571C30.0581 122.845 31.4286 121.447 33.1171 121.447Z" fill="white"/>
<path fill-rule="evenodd" clip-rule="evenodd" d="M33.1188 122.808C34.0711 122.808 34.843 123.597 34.843 124.57C34.843 125.543 34.0711 126.332 33.1188 126.332C32.1656 126.332 31.3937 125.543 31.3937 124.57C31.3937 123.597 32.1656 122.808 33.1188 122.808Z" fill="#21BCA5"/>
</g>
<defs>
<radialGradient id="paint0_radial" cx="0" cy="0" r="1" gradientUnits="userSpaceOnUse" gradientTransform="translate(74.8078 136.534) rotate(-180) scale(127.555 113.765)">
<stop stop-color="#265DD7"/>
<stop offset="1" stop-color="#0582CA"/>
</radialGradient>
<clipPath id="clip0">
<rect width="110" height="250" fill="white"/>
</clipPath>
</defs>
</svg>
