<svg width="143" height="401" viewBox="0 0 143 401" fill="none" xmlns="http://www.w3.org/2000/svg"><mask id="a" mask-type="alpha" maskUnits="userSpaceOnUse" x="0" y="0" width="143" height="401"><path d="M0 8a8 8 0 0 1 8-8h135v393a8 8 0 0 1-8 8H0V8z" fill="#C4C4C4"/></mask><g mask="url(#a)"><path opacity=".06" fill="url(#paint0_linear)" d="M-60 0h278v401H-60z"/><mask id="b" mask-type="alpha" maskUnits="userSpaceOnUse" x="0" y="-8" width="291" height="326"><path fill="url(#paint1_linear)" d="M0-7.34h290.28V317.1H0z"/></mask><g mask="url(#b)"><rect x="32" y="24" width="340" height="320" rx="8" fill="#fff" filter="url(#filter0_d)"/><rect opacity=".06" x="40" y="32" width="324" height="80" rx="4" fill="#1F2348"/><path opacity=".5" d="M128.63 87.81V89h-6.54v-1.08l3.43-3.76c.44-.49.76-.93.95-1.32.2-.4.31-.8.31-1.19 0-.5-.14-.89-.43-1.15-.3-.27-.71-.4-1.26-.4-.93 0-1.85.36-2.77 1.09l-.52-1.07a5.26 5.26 0 0 1 3.33-1.2c.95 0 1.7.24 2.25.71.56.48.84 1.12.84 1.94 0 .57-.12 1.13-.37 1.65a7.56 7.56 0 0 1-1.26 1.72l-2.66 2.87h4.7zm8.7 1.3a3.03 3.03 0 0 1-2.65-1.3c-.6-.87-.9-2.13-.9-3.8 0-1.66.3-2.92.9-3.79.6-.87 1.49-1.3 2.65-1.3 1.15 0 2.04.43 2.64 1.3.61.86.91 2.12.91 3.78 0 1.67-.3 2.94-.9 3.81-.61.87-1.5 1.3-2.65 1.3zm0-1.16c.72 0 1.24-.32 1.58-.95.34-.65.52-1.64.52-3 0-1.35-.17-2.34-.5-2.97a1.69 1.69 0 0 0-1.6-.93 1.7 1.7 0 0 0-1.6.95c-.33.62-.5 1.6-.5 2.95 0 1.36.17 2.35.5 3 .35.63.88.95 1.6.95zm9.86-4.07c.58.16 1.02.45 1.33.86.3.41.46.93.46 1.56 0 .87-.3 1.55-.92 2.06-.6.5-1.43.74-2.48.74-.66 0-1.3-.1-1.9-.31a4.2 4.2 0 0 1-1.5-.9l.52-1.06c.9.73 1.84 1.1 2.84 1.1 1.36 0 2.04-.58 2.04-1.73 0-.56-.17-.98-.53-1.25-.35-.28-.89-.42-1.6-.42h-1.23v-1.17h1c.69 0 1.22-.15 1.58-.44.36-.29.54-.7.54-1.26 0-.5-.15-.89-.46-1.16-.3-.27-.72-.4-1.27-.4-.93 0-1.86.36-2.77 1.09l-.52-1.07c.4-.37.89-.66 1.48-.88.61-.21 1.23-.32 1.88-.32.93 0 1.67.23 2.22.7.56.46.84 1.08.84 1.86 0 .57-.13 1.07-.4 1.49-.27.42-.65.72-1.15.9zm3.55-4.85h6.75v1.08l-4.6 8.89h-1.56l4.6-8.78h-5.19v-1.19zm15.5 10.08a3.03 3.03 0 0 1-2.64-1.3c-.61-.87-.91-2.13-.91-3.8 0-1.66.3-2.92.9-3.79.61-.87 1.5-1.3 2.65-1.3 1.16 0 2.04.43 2.65 1.3.6.86.9 2.12.9 3.78 0 1.67-.3 2.94-.9 3.81-.6.87-1.49 1.3-2.65 1.3zm0-1.16c.72 0 1.25-.32 1.58-.95.35-.65.52-1.64.52-3 0-1.35-.16-2.34-.5-2.97a1.69 1.69 0 0 0-1.6-.93 1.7 1.7 0 0 0-1.6.95c-.33.62-.5 1.6-.5 2.95 0 1.36.17 2.35.5 3 .35.63.88.95 1.6.95zm11.83-.14V89h-6.54v-1.08l3.43-3.76c.44-.49.76-.93.95-1.32.2-.4.31-.8.31-1.19 0-.5-.15-.89-.43-1.15-.3-.27-.71-.4-1.26-.4-.93 0-1.85.36-2.78 1.09l-.51-1.07a5.26 5.26 0 0 1 3.33-1.2c.95 0 1.7.24 2.25.71.56.48.84 1.12.84 1.94 0 .57-.12 1.13-.38 1.65a7.56 7.56 0 0 1-1.26 1.72l-2.66 2.87h4.7zm6.1 0h2.18V89h-5.82v-1.19h2.18v-7.06l-2.03 1.26v-1.33l2.65-1.65h.84v8.78zm3.9-.49h1.68V89h-1.68v-1.68zm6.72 1.8a3.03 3.03 0 0 1-2.65-1.31c-.6-.87-.9-2.13-.9-3.8 0-1.66.3-2.92.9-3.79.61-.87 1.5-1.3 2.65-1.3 1.16 0 2.04.43 2.65 1.3.6.86.9 2.12.9 3.78 0 1.67-.3 2.94-.9 3.81-.61.87-1.5 1.3-2.65 1.3zm0-1.17c.72 0 1.25-.32 1.58-.95.35-.65.52-1.64.52-3 0-1.35-.17-2.34-.5-2.97a1.69 1.69 0 0 0-1.6-.93 1.7 1.7 0 0 0-1.6.95c-.33.62-.5 1.6-.5 2.95 0 1.36.17 2.35.5 3 .35.63.88.95 1.6.95zm8.4 1.16a3.03 3.03 0 0 1-2.65-1.3c-.6-.87-.91-2.13-.91-3.8 0-1.66.3-2.92.9-3.79.62-.87 1.5-1.3 2.65-1.3 1.16 0 2.04.43 2.65 1.3.6.86.91 2.12.91 3.78 0 1.67-.3 2.94-.91 3.81-.6.87-1.49 1.3-2.65 1.3zm0-1.16c.71 0 1.24-.32 1.58-.95a6.6 6.6 0 0 0 .51-3c0-1.35-.16-2.34-.5-2.97a1.69 1.69 0 0 0-1.6-.93 1.7 1.7 0 0 0-1.6.95c-.33.62-.5 1.6-.5 2.95 0 1.36.17 2.35.5 3 .35.63.89.95 1.6.95zm15.9-8.92h1.36V89h-1.1l-5.72-7.53V89h-1.36v-9.97h1.1l5.72 7.55v-7.55zm3.68 9.97v-9.97h1.44V89h-1.44zm12.15-9.97h1.16V89h-1.3v-6.85L231.82 89h-.99l-3-6.8.02 6.8h-1.3v-9.97h1.16l3.63 8.23 3.58-8.23z" fill="#1F2348"/><path d="M131.93 69h-2.44l-1.64-4.27c-.15-.4-.37-.67-.67-.82-.3-.16-.69-.24-1.17-.24h-2.32V69h-2.3V56.18h5.49c1.45 0 2.55.32 3.3.96.76.63 1.14 1.55 1.14 2.73a3.5 3.5 0 0 1-.68 2.18c-.45.59-1.08 1.01-1.91 1.26.76.16 1.3.69 1.64 1.59l1.56 4.1zm-5.38-7.13c.88 0 1.53-.16 1.95-.48.42-.33.63-.82.63-1.48 0-.65-.21-1.13-.63-1.44-.41-.32-1.06-.49-1.95-.49h-2.9v3.9h2.9zm15.27 2.7h-6.26c.04.97.28 1.7.72 2.16.44.46 1.1.69 1.96.69 1 0 1.92-.33 2.77-.98l.65 1.55c-.44.35-.97.63-1.6.85-.63.2-1.27.3-1.91.3a4.78 4.78 0 0 1-3.51-1.26c-.85-.84-1.28-1.99-1.28-3.45 0-.93.18-1.75.56-2.47.37-.72.9-1.28 1.56-1.67.68-.41 1.44-.61 2.29-.61 1.25 0 2.23.4 2.95 1.22.73.8 1.1 1.91 1.1 3.33v.34zm-4-3.27c-.6 0-1.09.18-1.47.54-.38.34-.61.85-.72 1.53h4.23a2.49 2.49 0 0 0-.63-1.55c-.34-.35-.8-.52-1.4-.52zm14.6-5.55V69h-2.22v-1.46c-.27.5-.67.9-1.18 1.19-.52.28-1.1.41-1.77.41a3.76 3.76 0 0 1-3.53-2.26 5.93 5.93 0 0 1-.5-2.5c0-.94.17-1.76.5-2.47a3.8 3.8 0 0 1 3.53-2.23c.65 0 1.23.13 1.73.41.52.26.91.64 1.19 1.13v-5.47h2.25zm-4.57 11.63c.74 0 1.32-.26 1.72-.77a3.4 3.4 0 0 0 .63-2.2c0-.95-.2-1.68-.6-2.2-.42-.51-1-.77-1.74-.77-.75 0-1.34.26-1.76.77-.4.5-.61 1.23-.61 2.16 0 .95.2 1.69.61 2.22.42.53 1 .79 1.75.79zM169.76 69l-1.28-3h-6.26l-1.3 3h-2.34l5.8-12.82h1.89L172.08 69h-2.32zM163 64.2h4.72l-2.36-5.5-2.36 5.5zm14.44 4.94c-.95 0-1.77-.19-2.47-.57a3.93 3.93 0 0 1-1.6-1.62 5.27 5.27 0 0 1-.56-2.49c0-.94.2-1.78.58-2.5a4.2 4.2 0 0 1 1.66-1.67c.72-.41 1.54-.61 2.48-.61.65 0 1.27.1 1.87.3.61.2 1.1.49 1.46.85l-.63 1.58a4.2 4.2 0 0 0-2.5-.95c-.82 0-1.45.26-1.91.77-.46.5-.68 1.24-.68 2.2 0 .96.22 1.69.66 2.2.46.5 1.1.75 1.93.75.42 0 .84-.08 1.28-.25.43-.17.84-.41 1.22-.72l.63 1.58a4 4 0 0 1-1.5.85c-.6.2-1.25.3-1.92.3zm9.05 0c-.94 0-1.77-.19-2.46-.57a3.93 3.93 0 0 1-1.6-1.62 5.27 5.27 0 0 1-.56-2.49c0-.94.19-1.78.57-2.5a4.2 4.2 0 0 1 1.66-1.67c.72-.41 1.55-.61 2.48-.61.65 0 1.28.1 1.88.3.6.2 1.1.49 1.45.85l-.63 1.58a4.2 4.2 0 0 0-2.5-.95c-.81 0-1.45.26-1.9.77-.46.5-.7 1.24-.7 2.2 0 .96.23 1.69.68 2.2.45.5 1.1.75 1.92.75.42 0 .85-.08 1.28-.25.43-.17.84-.41 1.22-.72l.63 1.58a4 4 0 0 1-1.5.85c-.6.2-1.25.3-1.92.3zm9.06 0c-.93 0-1.75-.19-2.45-.57a4.02 4.02 0 0 1-1.62-1.64 5.42 5.42 0 0 1-.56-2.52c0-.96.19-1.8.56-2.5a4 4 0 0 1 1.62-1.66c.7-.38 1.52-.57 2.44-.57.92 0 1.72.19 2.42.57.7.39 1.23.94 1.6 1.66.38.7.57 1.54.57 2.5s-.19 1.8-.57 2.52a3.9 3.9 0 0 1-1.6 1.64c-.7.38-1.5.57-2.41.57zm-.02-1.76c.76 0 1.35-.25 1.74-.74.41-.5.62-1.25.62-2.23 0-.97-.2-1.71-.62-2.21-.4-.52-.98-.78-1.72-.78a2.1 2.1 0 0 0-1.75.78c-.4.5-.61 1.24-.61 2.21 0 .98.2 1.73.6 2.23.4.5.98.74 1.74.74zm14.83-7.47V69h-2.2v-1.4c-.29.5-.67.88-1.15 1.15-.48.26-1.03.4-1.66.4-2.22 0-3.33-1.25-3.33-3.75v-5.49h2.23v5.5c0 .67.14 1.15.4 1.47.28.3.7.46 1.26.46.66 0 1.19-.21 1.58-.64.4-.44.6-1.01.6-1.73V59.9h2.27zm7.64-.23c2.17 0 3.26 1.24 3.26 3.74V69H219v-5.47c0-.72-.14-1.24-.42-1.57-.27-.33-.7-.5-1.27-.5-.69 0-1.24.22-1.66.66-.42.44-.63 1.01-.63 1.73V69h-2.23v-6.52c0-.96-.05-1.81-.15-2.57h2.11l.16 1.5a3.3 3.3 0 0 1 1.26-1.28c.54-.3 1.15-.45 1.82-.45zm8.5 1.92v4.07c0 1.07.5 1.6 1.5 1.6.28 0 .58-.05.9-.14v1.78c-.4.14-.88.22-1.44.22-1.03 0-1.82-.3-2.38-.87-.55-.57-.82-1.4-.82-2.48V61.6h-1.75v-1.69h1.75V57.7l2.25-.76v2.97h2.4v1.7h-2.4z" fill="#1F2348"/><path d="M75.9 80.8l-4.2-7.1c-.3-.51-.85-.83-1.44-.83h-8.39c-.6 0-1.15.32-1.45.83l-4.2 7.1c-.3.51-.3 1.14 0 1.65l4.2 7.1c.3.51.85.83 1.45.83h8.39c.6 0 1.15-.32 1.45-.83l4.19-7.1c.3-.51.3-1.14 0-1.65z" fill="url(#paint2_radial)"/><mask id="c" mask-type="alpha" maskUnits="userSpaceOnUse" x="56" y="72" width="21" height="19"><path d="M75.9 80.8l-4.2-7.1c-.3-.51-.85-.83-1.44-.83h-8.39c-.6 0-1.15.32-1.45.83l-4.2 7.1c-.3.51-.3 1.14 0 1.65l4.2 7.1c.3.51.85.83 1.45.83h8.39c.6 0 1.15-.32 1.45-.83l4.19-7.1c.3-.51.3-1.14 0-1.65z" fill="url(#paint3_radial)"/></mask><g mask="url(#c)" fill-rule="evenodd" clip-rule="evenodd"><path d="M66.12 76.73a4.91 4.91 0 0 1 4.95 4.86 4.91 4.91 0 0 1-4.95 4.86 4.91 4.91 0 0 1-4.96-4.86 4.91 4.91 0 0 1 4.96-4.86z" fill="#E9B213"/><path opacity=".2" d="M70.98 81.6c0 2.64-2.2 4.79-4.9 4.79-1.28 0-2.51-.5-3.43-1.38 1.29.28 4.47.37 6.18-1.73 1.29-1.52 1.03-4.04.52-5.26a4.74 4.74 0 0 1 1.63 3.57z" fill="#010101"/><path d="M66.59 77.14a1 1 0 0 0-.23.32c-.12.24.13.85.87.97s1.36.24 1.49-.36c.12-.61-1.66-1.01-2.13-.93z" fill="#0582CA"/><path d="M66.46 77.3l2.38-3.13-.45 3.63c-.17.75-2.4.75-1.93-.5z" fill="#fff"/><path d="M66.46 77.3c1.02.77 1.64-.57 1.88-2.46l.5-.67-.45 3.63c-.17.75-2.4.75-1.93-.5z" fill="#0582CA"/><path d="M67.85 75.47s.25.51.8.22l.04-.27s-.42.24-.7-.14l-.14.2zm-.51.68s.44.94 1.22.33l.03-.24c-.4.2-.77.16-1.1-.28l-.15.19zm1.11 1.2s-1.22.84-1.71-.4l.16-.22s.58.97 1.58.36l-.03.25z" fill="#0582CA"/><path d="M59.47 80.5l.3 2.91-.3.25v.4s0 .2.3.28c.3.06.88.24 1.76.17a4.1 4.1 0 0 0 1.36-.35.36.36 0 0 0 .22-.3l-.1-.45-.3-.24-.3-2.8" fill="#fff"/><path d="M59.78 80.52l.31 2.88-.46.37s0 .16.6.24c.84.27 2.2-.01 2.6-.23.3-.11.06-.24.06-.24l-.3-.37-.32-2.77-2.49.12z" fill="#E9B213"/><path d="M60.93 80.13c.81-.04 1.48.06 1.49.22 0 .17-.64.34-1.46.39-.81.04-1.48-.06-1.49-.22 0-.17.64-.34 1.46-.39z" fill="#fff"/><path d="M63 83.68c.02.2-.73.54-1.66.59-.93.04-1.7-.2-1.72-.4-.01-.19.73-.4 1.67-.46.94-.04 1.69.07 1.71.27z" fill="#E9B213"/><path d="M61.95 83.05a.22.22 0 0 1-.24-.17l-.13-1.58c0-.11.08-.2.2-.2a.2.2 0 0 1 .22.17l.13 1.59c.02.1-.07.19-.18.19zm-.73.12a.22.22 0 0 1-.24-.17l-.13-1.58c0-.1.08-.2.2-.2.1 0 .2.07.23.18l.12 1.58c.02.1-.07.2-.18.2zm-.73 0a.22.22 0 0 1-.24-.17l-.14-1.58c0-.1.1-.2.22-.2.1 0 .2.07.23.18l.12 1.58c0 .1-.08.2-.2.2z" fill="#FFD22D"/><path d="M59.88 80.73s-1 .27-.86-.54c0 0-.6-.67.15-.67 0 0 .15-.53.76 0 0 0 .6-.93 1.21.14 0 0 .46-.54.76.27 0 0 .94.29.25.62-.7.32-2.02.31-2.27.18z" fill="#fff"/><path d="M60.03 80.67s-.86.22-.72-.42c0 0-.51-.52.12-.52 0 0 .13-.42.65 0 0 0 .5-.74 1.03.11 0 0 .38-.43.64.2 0 0 .8.25.21.5-.58.24-1.73.24-1.93.13z" fill="#FFEFAE"/><path d="M60.9 80.2s.3-.1.2-.36c0 .01.28.23-.2.35zm-1.3-.18c.14.09.33.06.46-.05 0 0-.07.32-.47.05zm.45-.13c.09.23.34.36.58.31 0 0-.43.3-.58-.31zm1.25-.2s.23-.04.23.32-.39.47-.39.47.1-.1.24.02c.13.12-.19.2-.19.2s.8-.03 1.08-.3c.29-.27-.45-.39-.45-.39s0-.38-.52-.32z" fill="#03A9F4"/><path d="M68.72 81.65s0-1.34.68-1.34.68 1.3.68 1.3-.57-1.3-1.36.04zm-2.98.06s0-1.46.75-1.46c.74 0 .74 1.41.74 1.41s-.62-1.4-1.49.05z" fill="#010101"/><path d="M65.5 82.25h4.74s-.13 2.8-2.4 2.8c-.62.03-1.2-.23-1.6-.7-.72-.83-.74-2.1-.74-2.1z" fill="#603813"/><path d="M69.6 84.12c-.4.57-1.06.91-1.76.89-.62.02-1.2-.23-1.6-.7-.72-.83 3.95-1.02 3.36-.19z" fill="#F15A24"/><path d="M65.5 82.2h4.74c0 .3-.06.6-.16.89 0 0-2.79.5-4.45-.04a3.93 3.93 0 0 1-.13-.85z" fill="#fff"/><path d="M61.78 88.52h9.3s.74 0 .86-.27c.13-.26.13.4-.87.55-.99.15-8.3 0-9.3 0-.99 0-1.11-.28 0-.28z" fill="#444"/><path d="M60.41 88.68h9.3s.75 0 .87-.27.12.4-.87.55c-1 .14-8.3 0-9.3 0l-.27-.01-.19-.25.46-.02z" fill="#919191"/><path d="M66.1 86.19l-1.31 2.14s-.14.31 1.2.31h2.82s.66-.63.27-.95c-.4-.31-1.48-.4-1.48-.4l1.07-1.69s-.94.64-2.57.59z" fill="#1F2348"/><path d="M64.08 85.87l-1.44 2.46s-.12.31 1.22.31h2.81s.67-.63.28-.95c-.4-.31-1.48-.4-1.48-.4l.94-1.05c-.01 0-.95.1-2.33-.37z" fill="#464D8A"/><path d="M67.34 86.67l1 .23c.04.02.06.04.06.08l-.02.06c0 .03-.03.05-.07.05l-1-.23c-.04-.02-.05-.04-.05-.08v-.06c0-.03.05-.05.08-.05zm.19-.37l1 .23c.04 0 .05.03.05.07l-.01.06c-.01.04-.04.05-.07.05l-1-.23c-.05-.01-.06-.04-.06-.07l.01-.07c.02-.03.04-.04.08-.04zm-2.3.5l1.01.23c.04 0 .05.03.05.07l-.01.06c-.02.04-.04.05-.08.05l-1-.23c-.04-.02-.05-.04-.05-.08l.01-.06c0-.03.04-.05.08-.05zm.2-.38l1 .23c.03.01.04.04.04.07v.06c-.02.04-.04.05-.08.05l-1-.23c-.04-.01-.06-.04-.06-.07l.02-.06c0-.04.05-.05.07-.05z" fill="#03A9F4"/></g><path opacity=".1" d="M92.53 90.43l-4.2-7.11c-.3-.5-.85-.82-1.45-.82H78.5c-.6 0-1.16.31-1.46.82l-4.2 7.11c-.29.5-.29 1.13 0 1.64l4.2 7.11c.3.5.86.82 1.46.82h8.38c.6 0 1.15-.31 1.45-.82l4.2-7.11c.3-.5.3-1.13 0-1.64z" fill="url(#paint4_radial)"/><path opacity=".1" d="M109.15 80.8l-4.2-7.1c-.3-.51-.85-.83-1.45-.83h-8.38c-.6 0-1.15.32-1.45.83l-4.2 7.1c-.3.51-.3 1.14 0 1.65l4.2 7.1c.3.51.85.83 1.45.83h8.38c.6 0 1.16-.32 1.46-.83l4.19-7.1c.3-.51.3-1.14 0-1.65z" fill="url(#paint5_radial)"/><path d="M75.9 61.55l-4.2-7.1c-.3-.51-.85-.83-1.44-.83h-8.39c-.6 0-1.15.32-1.45.83l-4.2 7.1c-.3.51-.3 1.14 0 1.65l4.2 7.1c.3.51.85.83 1.45.83h8.39c.6 0 1.15-.32 1.45-.83l4.19-7.1c.3-.51.3-1.14 0-1.65z" fill="url(#paint6_radial)"/><mask id="d" mask-type="alpha" maskUnits="userSpaceOnUse" x="56" y="53" width="21" height="19"><path d="M75.9 61.55l-4.2-7.1c-.3-.51-.85-.83-1.44-.83h-8.39c-.6 0-1.15.32-1.45.83l-4.2 7.1c-.3.51-.3 1.14 0 1.65l4.2 7.1c.3.51.85.83 1.45.83h8.39c.6 0 1.15-.32 1.45-.83l4.19-7.1c.3-.51.3-1.14 0-1.65z" fill="#E9B213"/></mask><g mask="url(#d)" clip-rule="evenodd"><path fill-rule="evenodd" d="M66.53 57.48a4.91 4.91 0 0 1 4.96 4.86 4.91 4.91 0 0 1-4.96 4.86 4.91 4.91 0 0 1-4.96-4.86 4.91 4.91 0 0 1 4.96-4.86z" fill="#FB8C00"/><path opacity=".2" fill-rule="evenodd" d="M71.4 62.34c0 2.65-2.2 4.8-4.9 4.8-1.28 0-2.52-.5-3.43-1.38 1.28.28 4.46.37 6.18-1.73 1.28-1.52 1.03-4.04.51-5.26a4.74 4.74 0 0 1 1.63 3.57z" fill="#010101"/><path fill-rule="evenodd" d="M67 57.89a1 1 0 0 0-.22.32c-.13.24.12.85.87.97.74.12 1.36.24 1.48-.36.13-.61-1.66-1.01-2.13-.93z" fill="#1F2348"/><path fill-rule="evenodd" d="M66.88 58.06l2.38-3.14-.45 3.63c-.17.75-2.4.75-1.94-.5z" fill="#fff"/><path fill-rule="evenodd" d="M66.88 58.06c1.01.76 1.63-.58 1.87-2.47l.5-.67-.44 3.63c-.17.75-2.4.75-1.94-.5z" fill="#1F2348"/><path fill-rule="evenodd" d="M68.27 56.22s.24.51.8.22l.03-.27s-.42.24-.7-.14l-.13.2zm-.52.68s.44.94 1.22.33L69 57c-.4.2-.77.16-1.1-.28l-.15.19zm1.12 1.2s-1.22.84-1.72-.41l.16-.21s.58.97 1.59.36l-.03.25z" fill="#1F2348"/><path fill-rule="evenodd" d="M59.66 60.87s-.57.03-.8.15c-.06.03-.05.14.02.19.46.34.8.8 1 1.34.4 1.03.41 2.03 1.7 2.48 1.29.45 1.83 0 1.83 0s.89-1.1-.1-2.18c0 0-.2-.19-.58-.07-.45.14-.93.23-1.45-.69-.51-.92-.77-1.33-1.62-1.22zm13.16-.6c-.28-.23-1.93-.05-1.93-.05l.1.22.3.6c.3-.13.63-.23.96-.3 0 .02.23 2.33-.02 2.57-.25.25-1.04.4-1.04.4l-.07.21-.13.32s2.11.17 2.11-1.3c.08-1.97.07-2.37-.28-2.67z" fill="#FB8C00"/><path fill-rule="evenodd" d="M59.07 61.37c.57.5.73.96.81 1.18.4 1.03.41 2.03 1.7 2.48 1.29.45 1.83 0 1.83 0s.66-.73.22-1.7c0 0 .48 1.34-.98 1.32-.68 0-1.3-.1-1.8-.72-.66-.82-.97-2.3-1.78-2.56z" fill="#1F2348"/><path fill-rule="evenodd" d="M59.66 60.87c.44-.03.8.04.81.16.01.12-.34.23-.78.26s-.8-.05-.81-.16c-.01-.12.34-.23.78-.26z" fill="#fff"/><path fill-rule="evenodd" d="M59.7 60.97c.33-.02.6.01.6.07 0 .06-.26.12-.59.14-.33.02-.6 0-.6-.07 0-.05.26-.12.59-.14z" fill="#1F2348"/><path fill-rule="evenodd" d="M60.3 61.04c.07.1-.59.14-.59.14.05-.13.04-.2-.01-.2 0 0 .54-.04.6.06z" fill="#010101"/><path fill-rule="evenodd" d="M72.25 60.74s.23 2.33-.02 2.57c-.25.25-1.04.4-1.04.4l-.07.21s1.1-.15 1.35-.5c.26-.35.13-2.17.13-2.17s.04-.64-.35-.5z" fill="#1F2348"/><path fill-rule="evenodd" d="M70.89 60.22s1.8-.22 2 .1a3.14 3.14 0 0 0-1.1 0l-.8.12-.1-.22zM62.24 62.95c.65.13 1.12.01 1.3.21-.06-.1-.1-.17-.23-.3a.58.58 0 0 0-.58-.08c-1.34.5-1.43-1.16-2.18-1.72.76.87.72 1.7 1.69 1.9z" fill="#fff"/><path fill-rule="evenodd" d="M69.6 64.9c-.36.4-.86.61-1.38.61h-.05c-.54 0-1.03-.21-1.38-.6-.37-.4-.6-1.05-.6-1.34 0-.26.43.07 1.52.16h.52c.98 0 1.59-.3 1.7-.36.1-.06.3-.08.3.2s-.27.93-.64 1.34z" fill="#1F2348"/><path fill-rule="evenodd" d="M66.82 60.79c.42-.03.8.42.82 1 .04.58-.28 1.06-.7 1.08-.43.03-.8-.42-.83-1-.03-.57.28-1.06.7-1.08z" fill="#fff"/><path fill-rule="evenodd" d="M66.89 61.36c.25 0 .46.24.46.53 0 .3-.2.54-.46.54-.25 0-.46-.24-.46-.54 0-.3.2-.53.46-.53z" fill="#1F2348"/><path fill-rule="evenodd" d="M66.6 61.36c.13 0 .24.1.24.24 0 .13-.11.24-.25.24a.25.25 0 0 1-.25-.24c0-.13.11-.24.25-.24z" fill="#fff"/><path fill-rule="evenodd" d="M66.24 60.8c.44-.5.87-.49 1.3 0 0 0-.6-1.17-1.3 0z" fill="#1F2348"/><path fill-rule="evenodd" d="M69.67 60.8c.42-.02.8.42.83 1 .03.58-.29 1.06-.71 1.09-.43.02-.8-.43-.83-1-.03-.58.29-1.07.71-1.1z" fill="#fff"/><path fill-rule="evenodd" d="M69.74 61.36c.25 0 .46.24.46.53 0 .3-.2.54-.46.54-.25 0-.46-.24-.46-.54 0-.3.2-.53.46-.53z" fill="#1F2348"/><path fill-rule="evenodd" d="M69.44 61.36c.14 0 .25.1.25.24 0 .13-.11.24-.25.24a.25.25 0 0 1-.24-.24c0-.13.1-.24.24-.24z" fill="#fff"/><path fill-rule="evenodd" d="M69.1 60.8c.43-.5.86-.49 1.28 0 0 0-.59-1.17-1.28 0z" fill="#1F2348"/><path fill-rule="evenodd" d="M65.08 60.76h-.22v.49h.22c.12.03.22.14.22.26v.7s-.03 1 1.47.97c0 0-1.07.02-1.24-1v-.67c0-.1-.08-.18-.17-.21l-.23-.05-.05-.49z" fill="#DD6901"/><path d="M65.08 60.76v.49l.25.02c.1.04.16.12.17.22v.66s.11 1.1 1.34 1.03c1.23-.06 1.26-1.2 1.26-1.2s0-.8.28-.8c.27 0 .28.8.28.8s.05 1.2 1.28 1.2 1.28-1.03 1.28-1.03v-.7c0-.1.07-.17.16-.17h.23v-.48l-2.7-.02a.52.52 0 0 0-.25.15l-.26.24-.27-.25a.43.43 0 0 0-.34-.12l-2.71-.04z" stroke="#1F2348"/><path fill-rule="evenodd" d="M67.78 64.35l-.02-.53c.4.05.83.04 1.24-.04l.02.5c.01.07-.02.1-.09.12l-.5.02-.04-.41-.04.4-.48.02c-.06-.01-.09-.03-.09-.08z" fill="#fff"/><path fill-rule="evenodd" d="M66.53 67.54c2.2 0 3.97.48 3.97 1.06 0 .59-1.78 1.06-3.97 1.06-2.2 0-3.97-.47-3.97-1.06 0-.58 1.78-1.06 3.97-1.06z" fill="#1F2348"/></g><path d="M92.53 51.93l-4.2-7.11c-.3-.5-.85-.82-1.45-.82H78.5c-.6 0-1.16.31-1.46.82l-4.2 7.11c-.29.5-.29 1.13 0 1.64l4.2 7.11c.3.5.86.82 1.46.82h8.38c.6 0 1.15-.31 1.45-.82l4.2-7.11c.3-.5.3-1.13 0-1.64z" fill="url(#paint7_radial)"/><mask id="e" mask-type="alpha" maskUnits="userSpaceOnUse" x="72" y="44" width="21" height="18"><path d="M92.53 51.93l-4.2-7.11c-.3-.5-.85-.82-1.45-.82H78.5c-.6 0-1.16.31-1.46.82l-4.2 7.11c-.29.5-.29 1.13 0 1.64l4.2 7.11c.3.5.86.82 1.46.82h8.38c.6 0 1.15-.31 1.45-.82l4.2-7.11c.3-.5.3-1.13 0-1.64z" fill="url(#paint8_radial)"/></mask><g mask="url(#e)"><path fill-rule="evenodd" clip-rule="evenodd" d="M82.8 47.79a4.91 4.91 0 0 1 4.97 4.86 4.91 4.91 0 0 1-4.96 4.87 4.91 4.91 0 0 1-4.96-4.87 4.91 4.91 0 0 1 4.96-4.86z" fill="#21BCA5"/><path opacity=".2" fill-rule="evenodd" clip-rule="evenodd" d="M87.67 52.65c0 2.65-2.2 4.8-4.9 4.8-1.28 0-2.5-.5-3.42-1.38 1.28.29 4.46.37 6.17-1.73 1.3-1.52 1.03-4.04.52-5.26a4.74 4.74 0 0 1 1.63 3.57z" fill="#010101"/><path fill-rule="evenodd" clip-rule="evenodd" d="M82.87 48.14s-.43-2.16-.9-2.75c-.02-.02-.2-.06-.5.08l-.03.02s.33.32 1.12 2.65c0 0 .3.16.3 0z" fill="#E9B213"/><path fill-rule="evenodd" clip-rule="evenodd" d="M81.71 45.37c.15-.01.28 0 .28.05 0 .04-.12.09-.27.1-.15.02-.27 0-.27-.05 0-.04.11-.08.26-.1z" fill="#F4B145"/><path fill-rule="evenodd" clip-rule="evenodd" d="M82.46 47.95s.09-.01.15-.17a.43.43 0 0 0-.3-.54c-.25-.06-.36-.29-.53-.5-.18-.23-.8-.58-1.85-.56-1.05.03-1.26-.36-1.35-.43-.09-.08-.1.73.37 1.32.47.6 1.15 1.01 1.94.62.78-.39 1.14-.02 1.14-.02s.27.29.43.28z" fill="#D94432"/><path fill-rule="evenodd" clip-rule="evenodd" d="M82.46 47.95s.09-.01.15-.17a.43.43 0 0 0-.3-.54c-.25-.06-.36-.29-.53-.5-.18-.23-.8-.6-1.85-.56-1.22.05-1.39-.57-1.37-.4.37 1.4 2.85.5 3.9 2.17z" fill="#010101"/><path fill-rule="evenodd" clip-rule="evenodd" d="M78.2 51.28c.2.28.24.62.14.94l-.05.24.54.01c.37.11.4.97.07 1.24-.13.07-.26.17-.37.27a3.1 3.1 0 0 1-1.04.76l-.41.17c-.74.3-2.16.72-2.4-.79l.04-.8c.03-.4-.18-.7.1-1.46.29-.76 1.1-.88 1.69-.73 0 0 .1.06.3-.2.2-.27 1.03-.4 1.39.35z" fill="#D8D8D8"/><path fill-rule="evenodd" clip-rule="evenodd" d="M78.91 53.73s-1.03.88-1.4 1.03c-.34.12-2.02.98-2.61-.06a3.08 3.08 0 0 1-.19-.58c.11.27.7.51 1.32.53.81.03 1.38-.53 1.9-.44.3-.2.64-.35.98-.48z" fill="#010101"/><path d="M76.99 51.75a.25.25 0 1 0 .48-.14l-.48.14zM76.1 47a.25.25 0 1 0-.47.14l.47-.14zm2.13 3.9a.25.25 0 0 0 .48-.13l-.48.14zm-1.13-5.6a.25.25 0 1 0-.48.14l.48-.14zm.63 6.34a.25.25 0 0 0 .48-.14l-.48.14zm-1.07-5.5a.25.25 0 0 0-.48.15l.48-.14zm2.3 1.15a.25.25 0 1 0-.24-.44l.24.44zm-4.2 1.75a.25.25 0 0 0 .23.44l-.24-.44zm3.95-2.6a.25.25 0 1 0-.24-.44l.24.44zm-3.58 1.38a.25.25 0 1 0 .23.44l-.23-.44zm3.96 2.26a.25.25 0 1 0-.25-.43l.25.43zm-2.98 1.15a.25.25 0 1 0 .25.43l-.25-.43zm1.98-5.4a.25.25 0 0 0-.24-.44l.24.44zm-2.22.66a.25.25 0 0 0 .24.43l-.24-.43zm1.6 5.13l-1.37-4.62-.47.14 1.36 4.62.48-.14zm1.24-.85l-1.61-5.47-.48.14 1.6 5.47.49-.14zm-.5.73l-1.55-5.35-.48.14 1.55 5.35.48-.14zm.51-4.65l-3.97 2.19.24.44 3.97-2.2-.24-.43zm-.25-.85l-3.34 1.82.23.44 3.35-1.82-.24-.44zm.37 3.65l-2.73 1.58.25.43 2.73-1.58-.25-.43zm-.99-4.26l-1.98 1.1.24.43 1.98-1.09-.24-.44z" fill="#000"/><path d="M78.96 49.98l-1.48-4.99" stroke="#000" stroke-width=".5"/><path d="M79.58 48.86a.25.25 0 0 0-.24-.44l.24.44zm-4.2 1.75a.25.25 0 1 0 .23.44l-.24-.44zm3.83-2.48a.25.25 0 1 0-.24-.44l.24.44zM75 49.88a.25.25 0 0 0 .24.44l-.24-.44zm1.12 1.38a.25.25 0 0 0 .48-.14l-.48.14zm-.51-3.54a.25.25 0 1 0-.48.14l.48-.14zm3.73.7l-3.97 2.19.24.44 3.97-2.2-.24-.43zm-.37-.73L75 49.88l.24.44 3.97-2.19-.24-.44zm-2.37 3.43l-1-3.4-.47.14 1 3.4.47-.14z" fill="#000"/><path fill-rule="evenodd" clip-rule="evenodd" d="M77.48 55.51l.06.85s.09.27-.14.32c-.22.05.76.05.63-.32a.25.25 0 0 0-.24-.24l-.05-.59-.26-.02z" fill="#F06292"/><path fill-rule="evenodd" clip-rule="evenodd" d="M77.15 51.25c-1.1.09-2.12-1.03-2.34-2.54.8-1.4 1.8-2.99 2-3.41 1.11.03 2.07 1.25 2.2 2.8.15 1.65-.7 3.06-1.86 3.15zm.02 1.83l-.62-1.34s.37.49 1.11 0l-.5 1.34zm2.23-5.84c-.21-1.12-1.2-2.16-2.22-2.36-.2-.03-1.81 3.03-2.77 4.55.17.52.5 1 1.14 1.82 1.12 1.7 1.37 1.83 1.5 3.4l.12 1.47s-.13 0-.13.24.25.37.5.37.5-.13.5-.37a.25.25 0 0 0-.25-.24l-.13-1.46s-.07-2.46 1-3.77c1.05-1.29.99-2.31.74-3.65z" fill="#D94432"/><path fill-rule="evenodd" clip-rule="evenodd" d="M77.11 44.92c.39.03.71.3.99.56.74.73.99 1.22 1.11 2.55a3.92 3.92 0 0 1-.93 2.98c-.5.49-1.73.73-1.73.73.18.11.4.15.62.12.17-.03.34-.1.5-.17l.36.3c.2-.43.44-.84.72-1.22.4-.49.83-1.27.8-2.36-.04-1.1-.37-3-2.38-3.53l-.06.04z" fill="#010101"/><path fill-rule="evenodd" clip-rule="evenodd" d="M77.24 54.85c-.7.3-2.28.88-2.53-.74l.05-.81c.03-.4-.19-.7.1-1.46.29-.77.3-.78 1.69-.73 1.27.04.65 1.98.89 3.3 0 .13-.09.4-.2.44z" fill="#fff"/><path fill-rule="evenodd" clip-rule="evenodd" d="M77.5 54.74c.4-.08-2.5 1.26-2.79-.63l.04-.8c.02-.4-.19-.7.1-1.46.28-.77 1.09-.89 1.68-.73-1.83.11-1.04 3.88.97 3.62z" fill="#D94432"/><path fill-rule="evenodd" clip-rule="evenodd" d="M86.38 51.1c.25 0 .46.24.46.53 0 .29-.2.52-.46.52-.25 0-.45-.23-.45-.52 0-.29.2-.52.45-.52z" fill="#1F2348"/><path d="M82.32 53.54s.35 1.63 2.29 1.54c1.98-.1 2.04-1.65 2.04-1.65" stroke="#1F2348" stroke-width="2" stroke-linecap="round" stroke-linejoin="round"/><path d="M82.26 51.21c.45.01.9.26 1.08.76-.4-.26-.52-.34-1.1-.07" stroke="#1F2348" stroke-width="2.5" stroke-linecap="round" stroke-linejoin="round"/><path fill-rule="evenodd" clip-rule="evenodd" d="M80.45 56.87c.82.84 2.06 1.6 3.3 1.95-.87.3-1 .79-1.2 1.5 0 0 1.92-.4 2.12-.94 0 0 .74.82 2.23.7a2.87 2.87 0 0 0-2.23-1.64c-.34 0-.52-.83.37-1.53-2.73 1.06-4.59-.04-4.59-.04z" fill="#21BCA5"/><path fill-rule="evenodd" clip-rule="evenodd" d="M83.75 58.82c-.82.26-1.03.8-1.19 1.5 0 0 1.9-.4 2.1-.94 0 0 .75.82 2.24.7a2.87 2.87 0 0 0-2.23-1.64c-.01.05-.08.11-.07.27-.2-.04-.54.01-.85.11z" fill="#D94432"/><path fill-rule="evenodd" clip-rule="evenodd" d="M84.17 58.55s1.74.58 2.73 1.53a2.87 2.87 0 0 0-2.23-1.64c-.34 0-.52-.83.37-1.53-.35.13-.7.24-1.06.31-.3.98.2 1.33.2 1.33z" fill="#010101"/></g><path opacity=".1" d="M109.15 61.55l-4.2-7.1c-.3-.51-.85-.83-1.45-.83h-8.38c-.6 0-1.15.32-1.45.83l-4.2 7.1c-.3.51-.3 1.14 0 1.65l4.2 7.1c.3.51.85.83 1.45.83h8.38c.6 0 1.16-.32 1.46-.83l4.19-7.1c.3-.51.3-1.14 0-1.65z" fill="url(#paint9_radial)"/><rect x="40" y="112" width="324" height="80" rx="4" fill="#fff"/><g opacity=".7"><path d="M129.27 142.38c.74.21 1.31.59 1.71 1.13.4.54.61 1.2.61 2 0 1.09-.39 1.95-1.17 2.57-.77.61-1.84.92-3.22.92h-5.81v-12.82h5.63c1.32 0 2.36.3 3.11.9.76.6 1.14 1.4 1.14 2.45a2.96 2.96 0 0 1-2 2.85zm-5.62-.8h3c1.6 0 2.4-.6 2.4-1.8 0-.6-.2-1.05-.59-1.35-.4-.3-1-.45-1.82-.45h-2.99v3.6zm3.3 5.62c.84 0 1.45-.15 1.83-.45.4-.3.6-.77.6-1.42 0-.66-.2-1.15-.6-1.46-.38-.31-1-.47-1.83-.47h-3.3v3.8h3.3zm14.98-7.29V149h-2.2v-1.4c-.28.5-.67.88-1.15 1.15-.48.26-1.03.4-1.65.4-2.22 0-3.33-1.25-3.33-3.75v-5.49h2.23v5.5c0 .67.13 1.15.4 1.47.27.3.7.46 1.26.46.66 0 1.18-.21 1.58-.64.4-.44.6-1.01.6-1.73v-5.06h2.26zm5.77 9.23a6.16 6.16 0 0 1-3.92-1.15l.63-1.58a5.45 5.45 0 0 0 3.33 1.08c.54 0 .95-.1 1.24-.27.3-.18.45-.43.45-.76 0-.27-.1-.49-.3-.65-.2-.16-.56-.3-1.05-.43l-1.51-.34c-1.66-.36-2.48-1.2-2.48-2.54 0-.55.15-1.04.46-1.46.32-.43.75-.76 1.32-1a5.78 5.78 0 0 1 5.42.8l-.67 1.52c-.91-.67-1.85-1.01-2.8-1.01-.52 0-.93.1-1.21.29a.9.9 0 0 0-.44.79c0 .26.09.47.26.63.18.16.48.29.9.4l1.54.34c.9.2 1.56.52 1.97.95.42.42.63.97.63 1.66 0 .84-.34 1.5-1.01 2-.67.49-1.6.73-2.76.73zm5.7-.14v-9.09h2.22V149h-2.23zm-.15-13.21h2.5V138h-2.5v-2.21zm10.04 3.89c2.17 0 3.25 1.24 3.25 3.74V149h-2.25v-5.47c0-.72-.13-1.24-.4-1.57-.28-.33-.71-.5-1.29-.5-.68 0-1.23.22-1.65.66-.42.44-.63 1.01-.63 1.73V149h-2.23v-6.52c0-.96-.05-1.81-.15-2.57h2.1l.17 1.5a3.3 3.3 0 0 1 1.26-1.28c.54-.3 1.15-.45 1.82-.45zm13.6 4.9h-6.27c.05.96.3 1.68.72 2.15.45.46 1.1.69 1.97.69 1 0 1.91-.33 2.77-.98l.64 1.55c-.43.35-.96.63-1.6.85-.62.2-1.26.3-1.9.3a4.78 4.78 0 0 1-3.51-1.26c-.86-.84-1.28-1.99-1.28-3.45 0-.93.18-1.75.56-2.47.37-.72.89-1.28 1.56-1.67.67-.41 1.44-.61 2.29-.61 1.25 0 2.23.4 2.95 1.22.73.8 1.1 1.91 1.1 3.33v.34zm-4-3.28c-.6 0-1.1.18-1.47.54-.38.34-.62.85-.72 1.53h4.23a2.49 2.49 0 0 0-.64-1.55c-.33-.35-.8-.52-1.4-.52zm9.23 7.84a6.16 6.16 0 0 1-3.92-1.15l.63-1.58a5.45 5.45 0 0 0 3.33 1.08c.54 0 .95-.1 1.24-.27.3-.18.45-.43.45-.76 0-.27-.1-.49-.3-.65-.21-.16-.56-.3-1.05-.43l-1.51-.34c-1.66-.36-2.49-1.2-2.49-2.54 0-.55.16-1.04.47-1.46.31-.43.75-.76 1.32-1a5.78 5.78 0 0 1 5.42.8l-.67 1.52c-.91-.67-1.85-1.01-2.81-1.01-.52 0-.92.1-1.2.29a.9.9 0 0 0-.44.79c0 .26.09.47.25.63.18.16.48.29.9.4l1.55.34c.9.2 1.56.52 1.96.95.42.42.63.97.63 1.66 0 .84-.33 1.5-1 2-.68.49-1.6.73-2.76.73zm9.02 0a6.16 6.16 0 0 1-3.92-1.15l.63-1.58a5.45 5.45 0 0 0 3.33 1.08c.54 0 .95-.1 1.24-.27.3-.18.45-.43.45-.76 0-.27-.1-.49-.3-.65-.21-.16-.56-.3-1.05-.43l-1.51-.34c-1.66-.36-2.49-1.2-2.49-2.54 0-.55.16-1.04.47-1.46.31-.43.75-.76 1.31-1a5.78 5.78 0 0 1 5.42.8l-.66 1.52c-.92-.67-1.85-1.01-2.81-1.01-.52 0-.92.1-1.2.29a.9.9 0 0 0-.44.79c0 .26.08.47.25.63.18.16.48.29.9.4l1.55.34c.9.2 1.55.52 1.96.95.42.42.63.97.63 1.66 0 .84-.33 1.5-1 2-.68.49-1.6.73-2.76.73zm26.92-12.96h2.23L215.75 149h-1.89l-3.22-9.22-3.26 9.22h-1.89l-4.52-12.82h2.36l3.2 9.56 3.34-9.56h1.65l3.26 9.63 3.28-9.63zm11.5 3.73V149h-2.2v-1.46c-.28.5-.68.9-1.2 1.19-.51.28-1.1.41-1.76.41-.79 0-1.5-.19-2.1-.57a3.8 3.8 0 0 1-1.43-1.64 5.7 5.7 0 0 1-.5-2.47c0-.93.17-1.76.5-2.48a4 4 0 0 1 1.44-1.7c.62-.4 1.31-.6 2.1-.6.65 0 1.24.14 1.76.43.51.27.9.66 1.18 1.17v-1.37h2.22zm-4.55 7.47c.75 0 1.32-.26 1.73-.77.41-.52.61-1.25.61-2.18 0-.96-.2-1.7-.6-2.22a2.1 2.1 0 0 0-1.75-.77c-.75 0-1.33.27-1.75.81-.4.53-.61 1.27-.61 2.21s.2 1.66.61 2.16c.42.5 1 .76 1.76.76zm7 1.62v-13.25h2.24V149h-2.23zm4.7 0v-13.25h2.23V149h-2.23zm12.65-4.43h-6.26c.05.97.29 1.7.72 2.16.44.46 1.1.69 1.96.69 1 0 1.92-.33 2.77-.98l.65 1.55c-.43.35-.97.63-1.6.85-.63.2-1.26.3-1.91.3a4.78 4.78 0 0 1-3.51-1.26c-.85-.84-1.28-1.99-1.28-3.45 0-.93.19-1.75.56-2.47a4.32 4.32 0 0 1 3.85-2.29c1.25 0 2.23.41 2.95 1.23.74.8 1.1 1.91 1.1 3.33v.34zm-4-3.27c-.6 0-1.09.18-1.47.54-.37.34-.61.85-.72 1.53h4.23a2.49 2.49 0 0 0-.63-1.55c-.34-.35-.8-.52-1.4-.52zm8.65.3v4.07c0 1.07.5 1.6 1.49 1.6.28 0 .58-.05.9-.14v1.78c-.4.14-.88.22-1.44.22-1.03 0-1.82-.3-2.38-.87-.55-.57-.82-1.4-.82-2.48v-4.18H250v-1.69h1.75v-2.21l2.25-.76v2.97h2.4v1.7h-2.4z" fill="#1F2348"/><path opacity=".5" d="M128.63 167.81V169h-6.54v-1.08l3.43-3.76c.44-.49.76-.93.95-1.32.2-.4.31-.8.31-1.19 0-.5-.14-.89-.43-1.15-.3-.27-.71-.4-1.26-.4-.93 0-1.85.36-2.77 1.09l-.52-1.07a5.26 5.26 0 0 1 3.33-1.2c.95 0 1.7.24 2.25.71.56.48.84 1.12.84 1.94 0 .58-.12 1.13-.37 1.65a7.58 7.58 0 0 1-1.26 1.72l-2.66 2.87h4.7zm8.7 1.3a3.03 3.03 0 0 1-2.65-1.3c-.6-.87-.9-2.13-.9-3.8 0-1.66.3-2.92.9-3.79.6-.87 1.49-1.3 2.65-1.3 1.15 0 2.04.43 2.64 1.3.61.86.91 2.12.91 3.78 0 1.67-.3 2.94-.9 3.81-.61.87-1.5 1.3-2.65 1.3zm0-1.16c.72 0 1.24-.32 1.58-.95.34-.65.52-1.65.52-3s-.17-2.34-.5-2.97a1.69 1.69 0 0 0-1.6-.93 1.7 1.7 0 0 0-1.6.95c-.33.62-.5 1.6-.5 2.95s.17 2.35.5 3c.35.63.88.95 1.6.95zm9.86-4.07c.58.16 1.02.45 1.33.86.3.41.46.93.46 1.56 0 .87-.3 1.55-.92 2.06-.6.5-1.43.74-2.48.74-.66 0-1.3-.1-1.9-.31a4.2 4.2 0 0 1-1.5-.9l.52-1.06c.9.73 1.84 1.1 2.84 1.1 1.36 0 2.04-.58 2.04-1.73 0-.56-.17-.97-.53-1.25-.35-.28-.89-.42-1.6-.42h-1.23v-1.17h1c.69 0 1.22-.15 1.58-.44.36-.28.54-.7.54-1.26 0-.5-.15-.89-.46-1.16-.3-.27-.72-.4-1.27-.4-.93 0-1.86.36-2.77 1.09l-.52-1.07c.4-.37.89-.66 1.48-.88.61-.21 1.23-.32 1.88-.32.93 0 1.67.23 2.22.7.56.46.84 1.08.84 1.86 0 .57-.13 1.07-.4 1.49-.27.42-.65.72-1.15.9zm3.55-4.85h6.75v1.08l-4.6 8.89h-1.56l4.6-8.78h-5.19v-1.19zm15.5 10.08a3.03 3.03 0 0 1-2.64-1.3c-.61-.87-.91-2.13-.91-3.8 0-1.66.3-2.92.9-3.79.61-.87 1.5-1.3 2.65-1.3 1.16 0 2.04.43 2.65 1.3.6.86.9 2.12.9 3.78 0 1.67-.3 2.94-.9 3.81-.6.87-1.49 1.3-2.65 1.3zm0-1.16c.72 0 1.25-.32 1.58-.95.35-.65.52-1.65.52-3s-.16-2.34-.5-2.97a1.69 1.69 0 0 0-1.6-.93 1.7 1.7 0 0 0-1.6.95c-.33.62-.5 1.6-.5 2.95s.17 2.35.5 3c.35.63.88.95 1.6.95zm11.83-.14V169h-6.54v-1.08l3.43-3.76c.44-.49.76-.93.95-1.32.2-.4.31-.8.31-1.19 0-.5-.15-.89-.43-1.15-.3-.27-.71-.4-1.26-.4-.93 0-1.85.36-2.78 1.09l-.51-1.07a5.26 5.26 0 0 1 3.33-1.2c.95 0 1.7.24 2.25.71.56.48.84 1.12.84 1.94 0 .58-.12 1.13-.38 1.65a7.58 7.58 0 0 1-1.26 1.72l-2.66 2.87h4.7zm6.1 0h2.18V169h-5.82v-1.19h2.18v-7.06l-2.03 1.26v-1.33l2.65-1.65h.84v8.78zm3.9-.49h1.68V169h-1.68v-1.68zm6.72 1.8a3.03 3.03 0 0 1-2.65-1.31c-.6-.87-.9-2.13-.9-3.8 0-1.66.3-2.92.9-3.79.61-.87 1.5-1.3 2.65-1.3 1.16 0 2.04.43 2.65 1.3.6.86.9 2.12.9 3.78 0 1.67-.3 2.94-.9 3.81-.61.87-1.5 1.3-2.65 1.3zm0-1.17c.72 0 1.25-.32 1.58-.95.35-.65.52-1.65.52-3s-.17-2.34-.5-2.97a1.69 1.69 0 0 0-1.6-.93 1.7 1.7 0 0 0-1.6.95c-.33.62-.5 1.6-.5 2.95s.17 2.35.5 3c.35.63.88.95 1.6.95zm8.4 1.16a3.03 3.03 0 0 1-2.65-1.3c-.6-.87-.91-2.13-.91-3.8 0-1.66.3-2.92.9-3.79.62-.87 1.5-1.3 2.65-1.3 1.16 0 2.04.43 2.65 1.3.6.86.91 2.12.91 3.78 0 1.67-.3 2.94-.91 3.81-.6.87-1.49 1.3-2.65 1.3zm0-1.16c.71 0 1.24-.32 1.58-.95a6.6 6.6 0 0 0 .51-3c0-1.35-.16-2.34-.5-2.97a1.69 1.69 0 0 0-1.6-.93 1.7 1.7 0 0 0-1.6.95c-.33.62-.5 1.6-.5 2.95s.17 2.35.5 3c.35.63.89.95 1.6.95zm15.9-8.92h1.36V169h-1.1l-5.72-7.53V169h-1.36v-9.97h1.1l5.72 7.55v-7.55zm3.68 9.97v-9.97h1.44V169h-1.44zm12.15-9.97h1.16V169h-1.3v-6.85l-2.96 6.85h-.99l-3-6.8.02 6.8h-1.3v-9.97h1.16l3.63 8.23 3.58-8.23z" fill="#1F2348"/><path d="M75.9 160.8l-4.2-7.1c-.3-.51-.85-.82-1.44-.82h-8.39c-.6 0-1.15.3-1.45.81l-4.2 7.12c-.3.5-.3 1.13 0 1.63l4.2 7.12c.3.5.85.81 1.45.81h8.39c.6 0 1.15-.3 1.45-.81l4.19-7.12c.3-.5.3-1.13 0-1.63z" fill="url(#paint10_radial)"/><mask id="f" mask-type="alpha" maskUnits="userSpaceOnUse" x="56" y="152" width="21" height="19"><path d="M75.9 160.8l-4.2-7.1c-.3-.51-.85-.82-1.44-.82h-8.39c-.6 0-1.15.3-1.45.81l-4.2 7.12c-.3.5-.3 1.13 0 1.63l4.2 7.12c.3.5.85.81 1.45.81h8.39c.6 0 1.15-.3 1.45-.81l4.19-7.12c.3-.5.3-1.13 0-1.63z" fill="#E9B213"/></mask><g mask="url(#f)" clip-rule="evenodd"><path fill-rule="evenodd" d="M66.53 156.73a4.91 4.91 0 0 1 4.96 4.86 4.91 4.91 0 0 1-4.96 4.86 4.91 4.91 0 0 1-4.96-4.86 4.91 4.91 0 0 1 4.96-4.86z" fill="#FB8C00"/><path opacity=".2" fill-rule="evenodd" d="M71.4 161.6c0 2.64-2.2 4.79-4.9 4.79-1.28 0-2.52-.5-3.43-1.38 1.28.28 4.46.37 6.18-1.73 1.28-1.52 1.03-4.04.51-5.26a4.74 4.74 0 0 1 1.63 3.57z" fill="#010101"/><path fill-rule="evenodd" d="M67 157.14c-.1.09-.17.2-.22.32-.13.24.12.85.87.97.74.12 1.36.24 1.48-.37.13-.6-1.66-1-2.13-.92z" fill="#1F2348"/><path fill-rule="evenodd" d="M66.88 157.3l2.38-3.13-.45 3.63c-.17.75-2.4.75-1.94-.5z" fill="#fff"/><path fill-rule="evenodd" d="M66.88 157.3c1.01.76 1.63-.57 1.87-2.46l.5-.66-.44 3.62c-.17.75-2.4.75-1.94-.5z" fill="#1F2348"/><path fill-rule="evenodd" d="M68.27 155.47s.24.51.8.22l.03-.27s-.42.24-.7-.14l-.13.2zm-.52.68s.44.94 1.22.34l.03-.25c-.4.2-.77.16-1.1-.28l-.15.19zm1.12 1.2s-1.22.84-1.72-.4l.16-.22s.58.97 1.59.36l-.03.25z" fill="#1F2348"/><path fill-rule="evenodd" d="M59.66 160.12s-.57.03-.8.15c-.06.03-.05.14.02.19.46.34.8.8 1 1.34.4 1.03.41 2.03 1.7 2.48 1.29.45 1.83 0 1.83 0s.89-1.1-.1-2.18c0 0-.2-.19-.58-.07-.45.14-.93.23-1.45-.69-.51-.92-.77-1.33-1.62-1.22zm13.16-.6c-.28-.23-1.93-.05-1.93-.05l.1.22.3.6c.3-.13.63-.23.96-.3 0 .02.23 2.33-.02 2.57-.25.25-1.04.4-1.04.4l-.07.21-.13.32s2.11.17 2.11-1.3c.08-1.97.07-2.37-.28-2.67z" fill="#FB8C00"/><path fill-rule="evenodd" d="M59.07 160.62c.57.5.73.96.81 1.18.4 1.03.41 2.03 1.7 2.48 1.29.45 1.83 0 1.83 0s.66-.73.22-1.7c0 0 .48 1.34-.98 1.32-.68 0-1.3-.1-1.8-.72-.66-.82-.97-2.3-1.78-2.56z" fill="#1F2348"/><path fill-rule="evenodd" d="M59.66 160.12c.44-.03.8.04.81.16.01.12-.34.23-.78.26s-.8-.05-.81-.16c-.01-.12.34-.23.78-.26z" fill="#fff"/><path fill-rule="evenodd" d="M59.7 160.22c.33-.02.6.01.6.07 0 .06-.26.12-.59.14-.33.02-.6 0-.6-.07 0-.06.26-.12.59-.14z" fill="#1F2348"/><path fill-rule="evenodd" d="M60.3 160.3c.07.1-.59.13-.59.13.05-.13.04-.2-.01-.2 0 0 .54-.04.6.06z" fill="#010101"/><path fill-rule="evenodd" d="M72.25 160s.23 2.32-.02 2.56c-.25.25-1.04.4-1.04.4l-.07.21s1.1-.15 1.35-.5c.26-.35.13-2.17.13-2.17s.04-.64-.35-.5z" fill="#1F2348"/><path fill-rule="evenodd" d="M70.89 159.47s1.8-.22 2 .1a3.15 3.15 0 0 0-1.1 0l-.8.12-.1-.22zM62.24 162.2c.65.13 1.12.01 1.3.21-.06-.1-.1-.17-.23-.3a.58.58 0 0 0-.58-.08c-1.34.5-1.43-1.16-2.18-1.72.76.87.72 1.7 1.69 1.9z" fill="#fff"/><path fill-rule="evenodd" d="M69.6 164.16c-.36.38-.86.6-1.38.6h-.05c-.54 0-1.03-.22-1.38-.6-.37-.4-.6-1.05-.6-1.34 0-.26.43.07 1.52.16h.52c.98 0 1.59-.3 1.7-.36.1-.06.3-.08.3.2s-.27.94-.64 1.34z" fill="#1F2348"/><path fill-rule="evenodd" d="M66.82 160.04c.42-.03.8.42.82 1 .04.58-.28 1.06-.7 1.09-.43.02-.8-.43-.83-1-.03-.59.28-1.07.7-1.1z" fill="#fff"/><path fill-rule="evenodd" d="M66.89 160.6c.25 0 .46.25.46.54 0 .3-.2.54-.46.54-.25 0-.46-.24-.46-.54 0-.3.2-.53.46-.53z" fill="#1F2348"/><path fill-rule="evenodd" d="M66.6 160.6c.13 0 .24.12.24.25s-.11.24-.25.24a.25.25 0 0 1-.25-.24c0-.13.11-.24.25-.24z" fill="#fff"/><path fill-rule="evenodd" d="M66.24 160.05c.44-.5.87-.49 1.3 0 0 0-.6-1.17-1.3 0z" fill="#1F2348"/><path fill-rule="evenodd" d="M69.67 160.05c.42-.02.8.42.83 1 .03.58-.29 1.06-.71 1.09-.43.02-.8-.43-.83-1-.03-.58.29-1.07.71-1.1z" fill="#fff"/><path fill-rule="evenodd" d="M69.74 160.6c.25 0 .46.25.46.54 0 .3-.2.54-.46.54-.25 0-.46-.24-.46-.54 0-.3.2-.53.46-.53z" fill="#1F2348"/><path fill-rule="evenodd" d="M69.44 160.6c.14 0 .25.12.25.25s-.11.24-.25.24a.25.25 0 0 1-.24-.24c0-.13.1-.24.24-.24z" fill="#fff"/><path fill-rule="evenodd" d="M69.1 160.05c.43-.5.86-.49 1.28 0 0 0-.59-1.17-1.28 0z" fill="#1F2348"/><path fill-rule="evenodd" d="M65.08 160.01h-.22v.49h.22c.12.03.22.14.22.26v.7s-.03 1 1.47.97c0 0-1.07.02-1.24-1v-.67c0-.1-.08-.18-.17-.22l-.23-.04-.05-.49z" fill="#DD6901"/><path d="M65.08 160.01v.49l.25.02c.1.04.16.12.17.22v.66s.11 1.1 1.34 1.03c1.23-.06 1.26-1.2 1.26-1.2s0-.8.28-.8c.27 0 .28.8.28.8s.05 1.2 1.28 1.2 1.28-1.03 1.28-1.03v-.7c0-.1.07-.17.16-.17h.23v-.48l-2.7-.02a.51.51 0 0 0-.25.15l-.26.24-.27-.25a.42.42 0 0 0-.34-.12l-2.71-.04z" stroke="#1F2348"/><path fill-rule="evenodd" d="M67.78 163.6l-.02-.53c.4.05.83.04 1.24-.04l.02.5c.01.07-.02.1-.09.12l-.5.02-.04-.41-.04.4-.48.02c-.06-.01-.09-.03-.09-.08z" fill="#fff"/><path fill-rule="evenodd" d="M66.53 166.8c2.2 0 3.97.47 3.97 1.05 0 .59-1.78 1.06-3.97 1.06-2.2 0-3.97-.47-3.97-1.06 0-.58 1.78-1.06 3.97-1.06z" fill="#1F2348"/></g><path opacity=".1" d="M92.53 170.43l-4.2-7.11c-.3-.5-.85-.82-1.45-.82H78.5c-.6 0-1.16.31-1.46.82l-4.2 7.11c-.29.5-.29 1.13 0 1.64l4.2 7.11c.3.5.86.82 1.46.82h8.38c.6 0 1.15-.31 1.45-.82l4.2-7.11c.3-.5.3-1.13 0-1.64z" fill="url(#paint11_radial)"/><path opacity=".1" d="M109.15 160.8l-4.2-7.1c-.3-.51-.85-.82-1.45-.82h-8.38c-.6 0-1.15.3-1.45.81l-4.2 7.12c-.3.5-.3 1.13 0 1.63l4.2 7.12c.3.5.85.81 1.45.81h8.38c.6 0 1.16-.3 1.46-.81l4.19-7.12c.3-.5.3-1.13 0-1.63z" fill="url(#paint12_radial)"/><path d="M75.9 141.56l-4.2-7.12c-.3-.5-.85-.81-1.44-.81h-8.39c-.6 0-1.15.3-1.45.81l-4.2 7.12c-.3.5-.3 1.13 0 1.63l4.2 7.12c.3.5.85.81 1.45.81h8.39c.6 0 1.15-.3 1.45-.81l4.19-7.12c.3-.5.3-1.13 0-1.63z" fill="url(#paint13_radial)"/><path fill-rule="evenodd" clip-rule="evenodd" d="M66.52 137.5a4.94 4.94 0 1 1 .02 9.87 4.94 4.94 0 0 1-.02-9.88z" fill="#D94432"/><path opacity=".3" fill-rule="evenodd" clip-rule="evenodd" d="M71.37 142.42a4.87 4.87 0 0 1-8.3 3.47c1.27.29 4.45.37 6.16-1.76 1.28-1.54 1.02-4.1.51-5.33a4.84 4.84 0 0 1 1.63 3.62z" fill="#010101"/><path fill-rule="evenodd" clip-rule="evenodd" d="M62.9 136.57s.3.74.67.6c.37-.16 5.95-.22 5.95-.22l.5-.58s.95-.63.5.4l-.26.45c-.07.13-.13.27-.17.42-.01.17.21-.34.21-.34l.47.75s.31.56-.22.51c-.53-.04-.87-.43-1.03-.62l-5.95.2s-.8 1.02-1.16.98c-.36-.04-.32-.38-.09-1.09 0 0 .21-.34.22-.51.02-.18-.2.34-.2.34s-.4-.93-.44-1.1c-.09-.46.41-1.13 1-.2z" fill="#fff"/><path fill-rule="evenodd" clip-rule="evenodd" d="M62.6 137.57s.4-.09.22.07c-.19.16-.53.64.45.3 1-.35 5.84-.34 5.84-.34l.35.29-5.88.24s-.71.87-1.07.84c-.36-.02-.09-.86-.09-.86l.19-.54zm7.76-1.37s.29.14-.1.64c-.4.5-.79.65-.1 1.07.7.42.54.05.54.05l-.4-.65c0-.01.77-1.25.06-1.11z" fill="#21BCA5"/><path fill-rule="evenodd" clip-rule="evenodd" d="M60.89 146.97l-.2-1.6.25-.04.18 1.6s-.05.25-.23.04z" fill="#303030"/><path fill-rule="evenodd" clip-rule="evenodd" d="M62.4 141.4c.2.28.26.63.16.95l-.05.25h.53c.37.12.4 1 .07 1.26-.13.08-.26.18-.37.27a3.1 3.1 0 0 1-1.04.78l-.4.17c-.75.3-2.16.73-2.4-.8l.05-.81c.02-.4-.19-.7.1-1.48.28-.78 1.08-.9 1.68-.74 0 0 .1.06.3-.2.2-.28 1.02-.42 1.38.35z" fill="#D8D8D8"/><path fill-rule="evenodd" clip-rule="evenodd" d="M61.46 145.02c-.7.3-2.28.89-2.53-.75l.05-.83c.03-.4-.18-.7.1-1.47.29-.78.3-.8 1.68-.74 1.28.03.66 2 .9 3.34 0 .13-.1.4-.2.45z" fill="#fff"/><path fill-rule="evenodd" clip-rule="evenodd" d="M61.72 144.91c.4-.09-2.5 1.27-2.79-.64l.04-.81c.03-.41-.18-.7.1-1.48s1.09-.9 1.68-.74c-1.83.11-1.04 3.93.97 3.67z" fill="#21BCA5"/><path fill-rule="evenodd" clip-rule="evenodd" d="M63.13 143.89s-1.03.89-1.41 1.03c-.34.13-2 1-2.6-.06a3.16 3.16 0 0 1-.19-.58c.11.27.7.52 1.31.53.82.04 1.4-.53 1.9-.44.3-.2.64-.36.99-.48zM60.71 139.31l1.06.04-.66.8.27 1-.97-.39-.86.6.05-1.05-.82-.64 1.02-.27.36-.99.55.9z" fill="#21BCA5"/><path fill-rule="evenodd" clip-rule="evenodd" d="M60.37 139.26l.16.25c.02.03.08.05.11.05l.29.02c.07 0 .12.07.12.14 0 .04-.01.06-.03.1l-.18.22c-.04.04-.04.08-.04.13l.07.29c.02.07-.01.14-.08.16h-.1l-.26-.1a.11.11 0 0 0-.13 0l-.25.17c-.05.04-.14.02-.2-.04l-.01-.09.01-.28a.16.16 0 0 0-.05-.13l-.23-.18c-.06-.03-.07-.12-.04-.2.02-.01.06-.03.07-.05l.29-.07c.04-.02.07-.03.09-.09l.1-.27c.02-.07.11-.1.19-.09.05 0 .09.02.1.06z" fill="#fff"/><path opacity=".7" fill-rule="evenodd" clip-rule="evenodd" d="M66.15 141.93s0-1.48.74-1.48.74 1.43.74 1.43-.62-1.43-1.48.05zM69.12 141.87s0-1.36.68-1.36.68 1.31.68 1.31-.57-1.3-1.36.05zM68.41 144.28h-.18c-.11-.01-.16.65-.32.7-.15.03-.21-.8-.31-.82-.3-.1-.8-.22-1.02-.36-.5-.32-.55-.71-.55-.87 0-.29.92.67 2.35.67h.06c.97 0 1.58-.31 1.69-.37.1-.06.3-.08.3.2 0 .13-.24.34-.59.52-.09.04-.1 1.04-.3.99-.18-.05-.2-.79-.32-.76-.26.07-.53.1-.8.1z" fill="#000"/><path fill-rule="evenodd" clip-rule="evenodd" d="M67.5 143.47l.31 1.4s.06.24.19 0c.12-.23.3-1.28.3-1.28-.27 0-.54-.04-.8-.12z" fill="#fff"/><path fill-rule="evenodd" clip-rule="evenodd" d="M67.88 143.84s.14-.06 0 1.04c0 0 0 .13.12 0 .1-.24.3-1.28.3-1.28-.17 0-.35-.02-.53-.06l.1.3z" fill="#21BCA5"/><path fill-rule="evenodd" clip-rule="evenodd" d="M69.1 143.55l.34 1.25s.15.3.22 0c.07-.28.22-1.46.22-1.46s-.19.1-.79.2z" fill="#fff"/><path fill-rule="evenodd" clip-rule="evenodd" d="M69.42 143.75s.13-.09.18 1.02c0 .02.02.04.03.05.02.02.21-1.43.21-1.43-.19.08-.39.15-.58.2l.16.16z" fill="#21BCA5"/><path fill-rule="evenodd" clip-rule="evenodd" d="M66.4 147.25l-.06 1.38s.14.32-1.2.32h-2.8s-.67-.64-.28-.96c.4-.32 1.48-.42 1.48-.42l-.33-.81 3.18.5z" fill="#1F2348"/><path fill-rule="evenodd" clip-rule="evenodd" d="M64.02 147.15l-1.03-.1c-.04 0-.06-.05-.05-.08l.01-.06c0-.04.04-.06.08-.05l1.03.1c.03 0 .06.04.04.08v.06c-.02.03-.04.05-.08.05zM64.12 147.46l-1.03-.1c-.04 0-.06-.05-.05-.08l.01-.06c0-.04.04-.07.08-.06l1.02.12c.04 0 .07.03.05.07v.06c-.02.04-.06.06-.08.05z" fill="#21BCA5"/><path fill-rule="evenodd" clip-rule="evenodd" d="M65.1 148.83a.48.48 0 1 1-.49.48c0-.27.22-.48.48-.48z" fill="#1F2348"/><path fill-rule="evenodd" clip-rule="evenodd" d="M65.3 148.8a.48.48 0 1 1 0 .97.48.48 0 0 1 0-.97z" fill="#fff"/><path fill-rule="evenodd" clip-rule="evenodd" d="M65.3 149.01a.27.27 0 1 1 0 .55.27.27 0 0 1 0-.54z" fill="#21BCA5"/><path fill-rule="evenodd" clip-rule="evenodd" d="M63.12 148.83a.48.48 0 1 1-.49.48c0-.27.22-.48.49-.48z" fill="#1F2348"/><path fill-rule="evenodd" clip-rule="evenodd" d="M63.33 148.8a.48.48 0 1 1 0 .97.48.48 0 0 1 0-.97z" fill="#fff"/><path fill-rule="evenodd" clip-rule="evenodd" d="M63.32 149.01a.27.27 0 1 1 0 .55.27.27 0 0 1 0-.54z" fill="#21BCA5"/><path fill-rule="evenodd" clip-rule="evenodd" d="M66.71 147.25l-.2 1.38s-.12.32 1.22.32h2.8s.68-.64.28-.96c-.4-.32-1.84-.42-1.84-.42l.07-.69-2.33.37z" fill="#1F2348"/><path fill-rule="evenodd" clip-rule="evenodd" d="M68.36 147.02l1.03.06c.03 0 .06.04.06.06v.06c0 .04-.04.06-.06.06l-1.03-.06c-.04 0-.06-.03-.06-.06v-.06c0-.04.03-.08.06-.06zM68.24 147.3l1.02.06c.04 0 .06.04.06.06v.07c0 .03-.03.06-.06.06l-1.02-.06c-.04 0-.07-.04-.07-.07v-.06c0-.03.03-.06.07-.06z" fill="#21BCA5"/><path fill-rule="evenodd" clip-rule="evenodd" d="M67.78 148.83a.48.48 0 1 1-.48.48c0-.27.21-.48.48-.48z" fill="#1F2348"/><path fill-rule="evenodd" clip-rule="evenodd" d="M67.57 148.8a.48.48 0 1 1 0 .97.48.48 0 0 1 0-.97z" fill="#fff"/><path fill-rule="evenodd" clip-rule="evenodd" d="M67.57 149.01a.27.27 0 1 1 0 .55.27.27 0 0 1 0-.54z" fill="#21BCA5"/><path fill-rule="evenodd" clip-rule="evenodd" d="M69.76 148.83a.48.48 0 1 1 0 .96.48.48 0 0 1 0-.96z" fill="#1F2348"/><path fill-rule="evenodd" clip-rule="evenodd" d="M69.55 148.8a.48.48 0 1 1 0 .97.48.48 0 0 1 0-.97z" fill="#fff"/><path fill-rule="evenodd" clip-rule="evenodd" d="M69.55 149.01a.27.27 0 1 1 0 .55.27.27 0 0 1 0-.54z" fill="#21BCA5"/><path d="M92.53 131.93l-4.2-7.11c-.3-.5-.85-.82-1.45-.82H78.5c-.6 0-1.16.31-1.46.82l-4.2 7.11c-.29.5-.29 1.13 0 1.64l4.2 7.11c.3.5.86.82 1.46.82h8.38c.6 0 1.15-.31 1.45-.82l4.2-7.11c.3-.5.3-1.13 0-1.64z" fill="url(#paint14_radial)"/><mask id="g" mask-type="alpha" maskUnits="userSpaceOnUse" x="72" y="124" width="21" height="18"><path d="M92.53 131.93l-4.2-7.11c-.3-.5-.85-.82-1.45-.82H78.5c-.6 0-1.16.31-1.46.82l-4.2 7.11c-.29.5-.29 1.13 0 1.64l4.2 7.11c.3.5.86.82 1.46.82h8.38c.6 0 1.15-.31 1.45-.82l4.2-7.11c.3-.5.3-1.13 0-1.64z" fill="url(#paint15_radial)"/></mask><g mask="url(#g)" fill-rule="evenodd" clip-rule="evenodd"><path d="M82.74 127.85a4.91 4.91 0 0 1 4.96 4.87 4.91 4.91 0 0 1-4.96 4.86 4.91 4.91 0 0 1-4.96-4.86 4.91 4.91 0 0 1 4.96-4.87z" fill="#E9B213"/><path opacity=".2" d="M87.6 132.72c0 2.65-2.19 4.8-4.9 4.8-1.27 0-2.5-.5-3.42-1.38 1.28.28 4.46.36 6.17-1.74 1.3-1.52 1.04-4.04.52-5.26a4.74 4.74 0 0 1 1.63 3.58z" fill="#010101"/><path d="M83.21 128.26a1 1 0 0 0-.22.32c-.13.24.12.85.87.97.74.13 1.36.25 1.48-.36.13-.6-1.66-1-2.13-.93z" fill="#0582CA"/><path d="M83.08 128.43l2.39-3.13-.45 3.62c-.17.76-2.4.76-1.94-.49z" fill="#fff"/><path d="M83.08 128.43c1.02.76 1.64-.58 1.88-2.47l.5-.66-.44 3.62c-.17.76-2.4.76-1.94-.49z" fill="#0582CA"/><path d="M84.48 126.6s.24.5.8.21l.03-.27s-.42.24-.7-.13l-.13.19zm-.52.68s.44.94 1.22.33l.03-.24c-.4.2-.77.15-1.1-.28l-.15.19zm1.12 1.19s-1.22.84-1.72-.4l.16-.22s.58.97 1.59.37l-.03.25z" fill="#0582CA"/><path d="M76.1 131.62l.3 2.92-.3.24v.4s0 .21.3.28c.3.06.87.25 1.75.17a4.1 4.1 0 0 0 1.37-.35.36.36 0 0 0 .22-.3l-.11-.44-.3-.24-.3-2.8" fill="#fff"/><path d="M76.4 131.65l.31 2.88-.45.36s0 .16.6.25c.83.26 2.2-.02 2.6-.24.3-.1.06-.24.06-.24l-.31-.36-.31-2.78-2.5.13z" fill="#E9B213"/><path d="M77.55 131.26c.82-.05 1.48.05 1.5.22 0 .17-.65.34-1.46.38-.82.05-1.48-.05-1.5-.22 0-.16.65-.34 1.46-.38z" fill="#fff"/><path d="M79.63 134.8c.01.21-.73.54-1.66.6-.93.04-1.71-.2-1.73-.4 0-.2.73-.41 1.68-.46.94-.05 1.68.06 1.7.27z" fill="#E9B213"/><path d="M78.57 134.18a.22.22 0 0 1-.23-.18l-.14-1.58c0-.1.09-.19.2-.19a.2.2 0 0 1 .22.17l.14 1.58c.01.11-.07.2-.19.2zm-.73.12a.22.22 0 0 1-.23-.17l-.14-1.58c0-.11.09-.2.2-.2.11-.01.2.06.23.17l.13 1.58c.01.11-.08.2-.19.2zm-.73 0a.22.22 0 0 1-.23-.17l-.14-1.58c0-.11.1-.2.21-.2.11-.01.21.06.24.17l.12 1.58c0 .11-.09.2-.2.2z" fill="#FFD22D"/><path d="M76.5 131.85s-1 .27-.85-.53c0 0-.61-.67.15-.67 0 0 .15-.54.75 0 0 0 .61-.94 1.22.13 0 0 .46-.53.75.27 0 0 .95.3.25.62-.7.33-2.02.32-2.27.18z" fill="#fff"/><path d="M76.65 131.8s-.85.21-.72-.42c0 0-.5-.52.13-.52 0 0 .12-.43.64 0 0 0 .51-.75 1.03.1 0 0 .39-.42.65.21 0 0 .79.25.2.49-.58.24-1.73.24-1.93.13z" fill="#FFEFAE"/><path d="M77.52 131.32s.3-.1.21-.35c-.01 0 .27.23-.21.35zm-1.3-.17c.15.08.33.06.47-.05 0 0-.07.31-.47.05zm.46-.14c.08.24.33.37.58.32 0 0-.43.3-.58-.32zm1.25-.2s.22-.04.22.32c0 .37-.38.48-.38.48s.1-.11.23.01c.14.12-.18.2-.18.2s.8-.03 1.08-.3c.28-.26-.45-.39-.45-.39s0-.37-.52-.31z" fill="#03A9F4"/><path d="M85.34 132.78s0-1.34.69-1.34c.68 0 .68 1.29.68 1.29s-.57-1.29-1.37.05zm-2.97.06s0-1.46.74-1.46c.75 0 .75 1.4.75 1.4s-.62-1.4-1.5.06z" fill="#010101"/><path d="M82.12 133.37h4.75s-.14 2.81-2.4 2.81c-.63.03-1.2-.23-1.6-.7-.73-.83-.75-2.1-.75-2.1z" fill="#603813"/><path d="M86.22 135.25c-.4.57-1.05.9-1.76.88-.62.03-1.2-.23-1.6-.7-.72-.83 3.96-1.01 3.36-.19z" fill="#F15A24"/><path d="M82.12 133.32h4.75c-.01.3-.06.61-.16.9 0 0-2.8.5-4.45-.04a3.93 3.93 0 0 1-.14-.86z" fill="#fff"/><path d="M78.4 139.65h9.3s.74 0 .87-.27c.12-.27.12.4-.87.55-1 .14-8.3 0-9.3 0s-1.12-.28 0-.28z" fill="#444"/><path d="M77.04 139.8h9.3s.74 0 .86-.26c.13-.27.13.4-.86.54-1 .15-8.31 0-9.3 0h-.27l-.2-.25c0-.01.28-.03.47-.03z" fill="#919191"/><path d="M82.73 137.31l-1.32 2.14s-.13.32 1.2.32h2.82s.67-.64.27-.95c-.4-.32-1.47-.41-1.47-.41l1.06-1.68s-.94.63-2.56.58z" fill="#1F2348"/><path d="M80.7 137l-1.43 2.45s-.13.32 1.21.32h2.82s.67-.64.27-.95c-.4-.32-1.47-.41-1.47-.41l.94-1.05c-.01 0-.96.1-2.33-.36z" fill="#464D8A"/><path d="M83.97 137.8l1 .23c.04.01.05.03.05.07l-.01.06c-.01.04-.04.05-.08.05l-1-.23c-.04-.01-.05-.04-.05-.07l.01-.06c0-.04.04-.05.08-.05zm.18-.38l1 .23c.05.01.06.04.06.07l-.01.07c-.02.03-.04.05-.08.05l-1-.24c-.04 0-.05-.03-.05-.07l.01-.06c.01-.04.04-.05.07-.05zm-2.29.5l1 .23c.04.01.05.04.05.07v.06c-.02.04-.05.05-.08.05l-1-.23c-.04-.01-.06-.03-.06-.07l.02-.06c0-.04.03-.05.07-.05zm.19-.38l1 .23c.04.02.05.04.05.08l-.01.06c-.01.03-.04.05-.08.05l-1-.24c-.04 0-.05-.03-.05-.07l.01-.06c.01-.03.05-.05.08-.05z" fill="#03A9F4"/></g><path opacity=".1" d="M109.15 141.56l-4.2-7.12c-.3-.5-.85-.81-1.45-.81h-8.38c-.6 0-1.15.3-1.45.81l-4.2 7.12c-.3.5-.3 1.13 0 1.63l4.2 7.12c.3.5.85.81 1.45.81h8.38c.6 0 1.16-.3 1.46-.81l4.19-7.12c.3-.5.3-1.13 0-1.63z" fill="url(#paint16_radial)"/></g><g opacity=".7"><rect x="40" y="192" width="324" height="80" rx="4" fill="#fff"/><path d="M127.2 229.16a6.58 6.58 0 0 1-3.31-.8 5.44 5.44 0 0 1-2.16-2.3c-.5-.99-.76-2.15-.76-3.49 0-1.32.25-2.47.76-3.45a5.3 5.3 0 0 1 2.16-2.29 6.58 6.58 0 0 1 3.31-.8c.86 0 1.67.13 2.43.4.77.27 1.4.64 1.9 1.12l-.75 1.7a5.88 5.88 0 0 0-1.73-1.01 5.04 5.04 0 0 0-1.81-.33c-1.24 0-2.2.4-2.88 1.2-.68.81-1.01 1.96-1.01 3.46 0 1.52.33 2.68 1 3.5.68.8 1.64 1.2 2.89 1.2a5.3 5.3 0 0 0 3.54-1.33l.76 1.7c-.5.47-1.14.85-1.91 1.13-.76.26-1.57.4-2.43.4zm11.55-9.48c2.17 0 3.26 1.24 3.26 3.74V229h-2.25v-5.47c0-.72-.14-1.24-.42-1.57-.27-.33-.7-.5-1.28-.5-.68 0-1.23.22-1.65.66-.42.44-.63 1.01-.63 1.73V229h-2.23v-13.25h2.23v5.47c.31-.49.72-.87 1.24-1.13a3.6 3.6 0 0 1 1.73-.41zm5.64 9.32v-9.09h2.23V229h-2.23zm-.14-13.21h2.5V218h-2.5v-2.21zm4.84 13.21v-13.25h2.23V229h-2.23zm13.38-13.25V229h-2.21v-1.46c-.28.5-.67.9-1.19 1.19-.51.28-1.1.41-1.76.41a3.76 3.76 0 0 1-3.53-2.26 5.93 5.93 0 0 1-.5-2.5c0-.94.16-1.76.5-2.47a3.8 3.8 0 0 1 3.53-2.23c.65 0 1.22.13 1.72.41.52.26.92.64 1.2 1.13v-5.47h2.24zm-4.57 11.63c.75 0 1.32-.26 1.73-.77a3.4 3.4 0 0 0 .63-2.2c0-.95-.2-1.68-.61-2.2-.41-.51-.99-.77-1.73-.77-.76 0-1.34.26-1.76.77-.41.5-.62 1.23-.62 2.16 0 .95.2 1.69.62 2.22.41.53 1 .79 1.74.79zm11.92-7.69c.35 0 .65.05.9.15l-.02 2.05a3.13 3.13 0 0 0-1.19-.23c-.76 0-1.35.22-1.76.66-.4.45-.6 1.03-.6 1.77V229h-2.23v-6.52c0-.96-.04-1.81-.14-2.57h2.1l.19 1.6a2.7 2.7 0 0 1 1.08-1.35c.49-.31 1.04-.47 1.67-.47zm9.93 4.88h-6.26c.05.97.29 1.7.72 2.16.44.46 1.1.69 1.96.69 1 0 1.92-.33 2.77-.98l.65 1.55c-.43.35-.97.63-1.6.85-.63.2-1.26.3-1.91.3a4.78 4.78 0 0 1-3.51-1.26c-.85-.84-1.28-1.99-1.28-3.45 0-.93.19-1.75.56-2.47a4.32 4.32 0 0 1 3.85-2.29c1.25 0 2.23.41 2.95 1.23.74.8 1.1 1.91 1.1 3.33v.34zm-4-3.27c-.6 0-1.09.18-1.47.54-.37.34-.61.85-.72 1.53h4.23a2.49 2.49 0 0 0-.63-1.55c-.34-.35-.8-.52-1.4-.52zm11.11-1.62c2.17 0 3.26 1.24 3.26 3.74V229h-2.25v-5.47c0-.72-.14-1.24-.42-1.57-.27-.33-.7-.5-1.27-.5-.69 0-1.24.22-1.66.66-.42.44-.63 1.01-.63 1.73V229h-2.23v-6.52c0-.96-.05-1.81-.15-2.57h2.11l.16 1.5a3.3 3.3 0 0 1 1.26-1.28c.54-.3 1.15-.45 1.82-.45zm7.63-3.5v1.66c0 .64-.1 1.21-.32 1.73-.22.5-.59 1.01-1.1 1.53l-.92-.72c.54-.58.86-1.14.97-1.68h-1.15v-2.52h2.52zm5.07 12.96a6.16 6.16 0 0 1-3.92-1.15l.63-1.58a5.45 5.45 0 0 0 3.33 1.08c.54 0 .95-.1 1.24-.27.3-.18.45-.43.45-.76 0-.27-.1-.49-.3-.65-.21-.16-.56-.3-1.05-.43l-1.51-.34c-1.66-.36-2.49-1.2-2.49-2.54 0-.55.16-1.04.47-1.46.31-.43.75-.76 1.31-1a5.78 5.78 0 0 1 5.42.8l-.66 1.52c-.92-.67-1.85-1.01-2.81-1.01-.52 0-.92.1-1.2.29a.9.9 0 0 0-.44.79c0 .26.08.47.25.63.18.16.48.29.9.4l1.55.34c.9.2 1.55.52 1.96.95.42.42.63.97.63 1.66 0 .84-.33 1.5-1 2-.68.49-1.6.73-2.76.73zm10.79-.14v-12.82h8.37v1.86h-6.07v3.5h5.7v1.88h-5.7V229h-2.3zm18.24-9.09V229h-2.2v-1.4c-.28.5-.67.88-1.15 1.15-.48.26-1.03.4-1.65.4-2.22 0-3.33-1.25-3.33-3.75v-5.49h2.23v5.5c0 .67.13 1.15.4 1.47.27.3.7.46 1.26.46.66 0 1.18-.21 1.58-.64.4-.44.6-1.01.6-1.73v-5.06h2.26zm7.65-.23c2.17 0 3.25 1.24 3.25 3.74V229h-2.25v-5.47c0-.72-.13-1.24-.4-1.57-.28-.33-.71-.5-1.29-.5-.68 0-1.23.22-1.65.66-.42.44-.63 1.01-.63 1.73V229h-2.24v-6.52c0-.96-.04-1.81-.14-2.57h2.1l.17 1.5a3.3 3.3 0 0 1 1.26-1.28c.54-.3 1.15-.45 1.82-.45zm14.33-3.93V229h-2.21v-1.46c-.28.5-.67.9-1.19 1.19-.51.28-1.1.41-1.76.41a3.76 3.76 0 0 1-3.53-2.26 5.93 5.93 0 0 1-.5-2.5c0-.94.16-1.76.5-2.47a3.8 3.8 0 0 1 3.53-2.23c.65 0 1.22.13 1.73.41.51.26.9.64 1.18 1.13v-5.47h2.25zM246 227.38c.75 0 1.32-.26 1.73-.77a3.4 3.4 0 0 0 .63-2.2c0-.95-.2-1.68-.61-2.2-.41-.51-.99-.77-1.73-.77-.76 0-1.34.26-1.76.77-.41.5-.62 1.23-.62 2.16 0 .95.2 1.69.62 2.22.42.53 1 .79 1.74.79zm10.36 1.76a6.16 6.16 0 0 1-3.93-1.15l.63-1.58a5.45 5.45 0 0 0 3.33 1.08c.54 0 .96-.1 1.24-.27.3-.18.45-.43.45-.76 0-.27-.1-.49-.3-.65-.2-.16-.55-.3-1.05-.43l-1.5-.34c-1.66-.36-2.5-1.2-2.5-2.54 0-.55.16-1.04.48-1.46.3-.43.75-.76 1.3-1a5.78 5.78 0 0 1 5.42.8l-.66 1.52c-.91-.67-1.85-1.01-2.8-1.01-.52 0-.93.1-1.21.29a.9.9 0 0 0-.44.79c0 .26.09.47.26.63.18.16.48.29.9.4l1.54.34c.9.2 1.56.52 1.97.95.42.42.63.97.63 1.66 0 .84-.34 1.5-1.01 2-.67.49-1.6.73-2.75.73z" fill="#1F2348"/><path fill-rule="evenodd" clip-rule="evenodd" d="M137.41 249.33l-6.23-11.9a1.33 1.33 0 0 0-2.36 0l-6.23 11.9a1.33 1.33 0 0 0 1.18 1.95h12.46a1.34 1.34 0 0 0 1.18-1.95zm-8.08-7.72a.67.67 0 1 1 1.34 0v4a.67.67 0 1 1-1.34 0v-4zm.68 7.68h.02a.99.99 0 0 0 .97-1.02 1.02 1.02 0 0 0-1.02-.98h-.01a.98.98 0 0 0-.97 1.02c.02.54.47.98 1.01.98z" fill="#FC8702"/><path opacity=".1" d="M75.9 240.8l-4.2-7.1c-.3-.51-.85-.82-1.44-.82h-8.39c-.6 0-1.15.3-1.45.81l-4.2 7.12c-.3.5-.3 1.13 0 1.63l4.2 7.12c.3.5.85.81 1.45.81h8.39c.6 0 1.15-.3 1.45-.81l4.19-7.12c.3-.5.3-1.13 0-1.63z" fill="#1F2348"/><path opacity=".1" d="M92.53 250.43l-4.2-7.11c-.3-.5-.85-.82-1.45-.82H78.5c-.6 0-1.16.31-1.46.82l-4.2 7.11c-.29.5-.29 1.13 0 1.64l4.2 7.11c.3.5.86.82 1.46.82h8.38c.6 0 1.15-.31 1.45-.82l4.2-7.11c.3-.5.3-1.13 0-1.64z" fill="url(#paint17_radial)"/><path opacity=".1" d="M109.15 240.8l-4.2-7.1c-.3-.51-.85-.82-1.45-.82h-8.38c-.6 0-1.15.3-1.45.81l-4.2 7.12c-.3.5-.3 1.13 0 1.63l4.2 7.12c.3.5.85.81 1.45.81h8.38c.6 0 1.16-.3 1.46-.81l4.19-7.12c.3-.5.3-1.13 0-1.63z" fill="url(#paint18_radial)"/><path d="M75.9 221.56l-4.2-7.12c-.3-.5-.85-.81-1.44-.81h-8.39c-.6 0-1.15.3-1.45.81l-4.2 7.12c-.3.5-.3 1.13 0 1.63l4.2 7.12c.3.5.85.81 1.45.81h8.39c.6 0 1.15-.3 1.45-.81l4.19-7.12c.3-.5.3-1.13 0-1.63z" fill="url(#paint19_radial)"/><mask id="h" mask-type="alpha" maskUnits="userSpaceOnUse" x="56" y="213" width="21" height="19"><path d="M75.9 221.56l-4.2-7.12c-.3-.5-.85-.81-1.44-.81h-8.39c-.6 0-1.15.3-1.45.81l-4.2 7.12c-.3.5-.3 1.13 0 1.63l4.2 7.12c.3.5.85.81 1.45.81h8.39c.6 0 1.15-.3 1.45-.81l4.19-7.12c.3-.5.3-1.13 0-1.63z" fill="url(#paint20_radial)"/></mask><g mask="url(#h)"><path fill-rule="evenodd" clip-rule="evenodd" d="M66.18 217.41a4.91 4.91 0 0 1 4.96 4.87 4.91 4.91 0 0 1-4.96 4.86 4.91 4.91 0 0 1-4.96-4.86 4.91 4.91 0 0 1 4.96-4.87z" fill="#21BCA5"/><path opacity=".2" fill-rule="evenodd" clip-rule="evenodd" d="M71.04 222.28c0 2.65-2.19 4.8-4.89 4.8-1.28 0-2.51-.5-3.43-1.38 1.29.28 4.46.36 6.18-1.74 1.29-1.52 1.03-4.04.51-5.26a4.74 4.74 0 0 1 1.63 3.58z" fill="#010101"/><path fill-rule="evenodd" clip-rule="evenodd" d="M66.24 217.77s-.43-2.17-.89-2.75c-.02-.03-.2-.06-.5.07l-.03.03s.32.31 1.11 2.65c0 0 .31.16.31 0z" fill="#E9B213"/><path fill-rule="evenodd" clip-rule="evenodd" d="M65.09 215c.15-.02.27 0 .27.04 0 .05-.11.1-.26.1-.15.02-.28 0-.28-.04s.12-.09.27-.1z" fill="#F4B145"/><path fill-rule="evenodd" clip-rule="evenodd" d="M65.83 217.57s.1 0 .15-.17a.43.43 0 0 0-.3-.53c-.24-.06-.35-.3-.53-.51-.17-.22-.8-.57-1.84-.55-1.06.02-1.27-.37-1.36-.44-.08-.07-.1.73.38 1.33.47.6 1.15 1 1.93.62.78-.4 1.14-.03 1.14-.03s.27.3.43.28z" fill="#D94432"/><path fill-rule="evenodd" clip-rule="evenodd" d="M65.83 217.57s.1 0 .15-.17a.43.43 0 0 0-.3-.53c-.24-.06-.35-.3-.53-.51-.17-.22-.8-.59-1.84-.55-1.22.04-1.39-.57-1.38-.41.37 1.4 2.85.5 3.9 2.17z" fill="#010101"/><path fill-rule="evenodd" clip-rule="evenodd" d="M61.57 220.9c.2.28.25.62.15.94l-.05.24.53.01c.37.12.4.98.08 1.25-.14.07-.26.17-.38.26a3.1 3.1 0 0 1-1.04.77l-.4.17c-.75.3-2.16.72-2.4-.8l.04-.8c.02-.4-.19-.69.1-1.45.28-.77 1.09-.89 1.68-.73 0 0 .1.06.3-.2.2-.28 1.03-.41 1.39.34z" fill="#D8D8D8"/><path fill-rule="evenodd" clip-rule="evenodd" d="M62.29 223.36s-1.03.88-1.41 1.02c-.34.12-2.01.99-2.6-.06a3.08 3.08 0 0 1-.2-.57c.12.27.71.5 1.32.52.82.04 1.39-.52 1.9-.44.3-.2.64-.35.99-.47z" fill="#010101"/><path d="M60.36 221.38a.25.25 0 0 0 .48-.15l-.48.15zm-.88-4.77a.25.25 0 0 0-.48.15l.48-.15zm2.12 3.91a.25.25 0 1 0 .48-.14l-.48.14zm-1.13-5.6a.25.25 0 0 0-.48.13l.48-.14zm.64 6.33a.25.25 0 0 0 .48-.14l-.48.14zm-1.07-5.49a.25.25 0 0 0-.48.14l.48-.14zm2.3 1.14a.25.25 0 0 0-.25-.43l.25.43zm-4.21 1.75a.25.25 0 0 0 .24.44l-.24-.44zm3.96-2.6a.25.25 0 1 0-.24-.44l.24.44zm-3.59 1.39a.25.25 0 1 0 .24.44l-.24-.44zm3.96 2.26a.25.25 0 1 0-.25-.44l.25.44zm-2.97 1.15a.25.25 0 0 0 .25.43l-.25-.44zm1.98-5.4a.25.25 0 0 0-.24-.44l.24.44zm-2.23.65a.25.25 0 0 0 .24.44l-.24-.44zm1.6 5.13l-1.36-4.62-.48.15 1.36 4.62.48-.15zm1.24-.85l-1.6-5.47-.49.14 1.61 5.47.48-.14zm-.5.73l-1.54-5.35-.48.14 1.55 5.35.48-.14zm.51-4.64l-3.96 2.18.24.44 3.97-2.19-.25-.43zm-.24-.86l-3.35 1.83.24.44 3.35-1.83-.24-.44zm.36 3.65l-2.72 1.59.25.43 2.72-1.58-.25-.44zm-.98-4.25l-1.99 1.1.24.43 1.99-1.1-.24-.43z" fill="#000"/><path d="M62.34 219.6l-1.49-4.98" stroke="#000" stroke-width=".5"/><path d="M62.96 218.48a.25.25 0 1 0-.24-.44l.24.44zm-4.21 1.76a.25.25 0 0 0 .24.43l-.24-.43zm3.83-2.49a.25.25 0 0 0-.24-.43l.24.44zm-4.2 1.75a.25.25 0 0 0 .24.44l-.24-.44zm1.12 1.39c.03.13.17.2.3.17.14-.04.21-.18.18-.31l-.48.14zm-.52-3.55a.25.25 0 0 0-.48.14l.48-.14zm3.73.7l-3.96 2.2.24.43 3.97-2.19-.25-.43zm-.37-.72l-3.96 2.19.24.43 3.96-2.19-.24-.43zm-2.36 3.43l-1-3.4-.48.13 1 3.4.48-.13z" fill="#000"/><path fill-rule="evenodd" clip-rule="evenodd" d="M60.85 225.13l.06.86s.1.26-.13.31c-.23.05.75.05.63-.31a.25.25 0 0 0-.25-.25l-.05-.58-.26-.03z" fill="#F06292"/><path fill-rule="evenodd" clip-rule="evenodd" d="M60.53 220.88c-1.1.09-2.12-1.03-2.34-2.54.8-1.41 1.8-3 2-3.42 1.1.04 2.06 1.26 2.2 2.81.15 1.64-.7 3.05-1.86 3.15zm.01 1.82l-.62-1.33s.37.48 1.12 0l-.5 1.33zm2.23-5.83c-.2-1.12-1.2-2.17-2.22-2.36-.2-.04-1.8 3.03-2.76 4.55.16.52.5 1 1.14 1.82 1.12 1.7 1.36 1.82 1.49 3.4l.12 1.46s-.12 0-.12.25c0 .24.25.36.5.36.24 0 .49-.12.49-.36a.25.25 0 0 0-.25-.25l-.12-1.46s-.08-2.45.99-3.77c1.05-1.28 1-2.3.74-3.64z" fill="#D94432"/><path fill-rule="evenodd" clip-rule="evenodd" d="M60.49 214.55c.38.02.7.3.98.55.74.73 1 1.22 1.12 2.56a3.92 3.92 0 0 1-.93 2.98c-.5.48-1.74.73-1.74.73.19.1.41.14.62.12.17-.04.35-.1.5-.17l.37.29c.2-.43.43-.84.72-1.22.4-.48.83-1.27.8-2.35-.04-1.1-.37-3-2.39-3.53l-.05.04z" fill="#010101"/><path fill-rule="evenodd" clip-rule="evenodd" d="M60.62 224.48c-.7.29-2.29.87-2.53-.74l.05-.82c.02-.4-.19-.7.1-1.46.28-.76.3-.78 1.68-.73 1.28.04.66 1.99.9 3.3 0 .13-.1.4-.2.45z" fill="#fff"/><path fill-rule="evenodd" clip-rule="evenodd" d="M60.88 224.37c.4-.09-2.5 1.25-2.8-.63l.04-.8c.03-.4-.18-.7.1-1.47.29-.76 1.1-.88 1.69-.72-1.84.1-1.04 3.87.97 3.62z" fill="#D94432"/><path fill-rule="evenodd" clip-rule="evenodd" d="M69.76 220.73c.25 0 .45.24.45.53 0 .28-.2.52-.45.52s-.46-.24-.46-.52c0-.3.2-.53.46-.53z" fill="#1F2348"/><path d="M65.7 223.16s.35 1.63 2.28 1.55c1.98-.1 2.05-1.65 2.05-1.65" stroke="#1F2348" stroke-width="2" stroke-linecap="round" stroke-linejoin="round"/><path d="M65.63 220.84c.45 0 .9.26 1.08.75-.4-.25-.52-.34-1.1-.06" stroke="#1F2348" stroke-width="2.5" stroke-linecap="round" stroke-linejoin="round"/><path fill-rule="evenodd" clip-rule="evenodd" d="M63.83 226.5c.81.84 2.06 1.6 3.29 1.94-.87.3-.99.8-1.19 1.5 0 0 1.91-.4 2.11-.94 0 0 .75.83 2.23.7a2.87 2.87 0 0 0-2.23-1.63c-.33 0-.52-.83.37-1.54-2.72 1.06-4.58-.03-4.58-.03z" fill="#21BCA5"/><path fill-rule="evenodd" clip-rule="evenodd" d="M67.12 228.44c-.81.26-1.02.81-1.19 1.5 0 0 1.91-.4 2.11-.94 0 0 .75.83 2.23.7a2.88 2.88 0 0 0-2.23-1.63c0 .05-.08.1-.07.27-.2-.04-.53 0-.85.1z" fill="#D94432"/><path fill-rule="evenodd" clip-rule="evenodd" d="M67.55 228.17s1.73.59 2.72 1.54a2.87 2.87 0 0 0-2.23-1.65c-.33 0-.52-.82.37-1.53-.34.14-.7.25-1.05.32-.31.97.19 1.32.19 1.32z" fill="#010101"/></g><path d="M92.53 211.93l-4.2-7.11c-.3-.5-.85-.82-1.45-.82H78.5c-.6 0-1.16.31-1.46.82l-4.2 7.11c-.29.5-.29 1.13 0 1.64l4.2 7.11c.3.5.86.82 1.46.82h8.38c.6 0 1.15-.31 1.45-.82l4.2-7.11c.3-.5.3-1.13 0-1.64z" fill="url(#paint21_radial)"/><path fill-rule="evenodd" clip-rule="evenodd" d="M83.14 207.87a4.94 4.94 0 1 1 .02 9.88 4.94 4.94 0 0 1-.02-9.88z" fill="#D94432"/><path opacity=".3" fill-rule="evenodd" clip-rule="evenodd" d="M88 212.8a4.87 4.87 0 0 1-8.31 3.46c1.28.29 4.45.37 6.16-1.76 1.29-1.53 1.03-4.1.51-5.33A4.84 4.84 0 0 1 88 212.8z" fill="#010101"/><path fill-rule="evenodd" clip-rule="evenodd" d="M79.53 206.94s.3.74.67.6c.37-.15 5.95-.21 5.95-.21l.5-.58s.94-.63.5.4c0 0-.14.22-.26.45-.07.12-.14.27-.17.42-.02.17.2-.35.2-.35l.48.75s.3.57-.23.52c-.53-.05-.86-.43-1.02-.63l-5.95.21s-.8 1.01-1.17.97c-.36-.03-.32-.38-.08-1.08 0 0 .2-.34.22-.52.01-.17-.2.35-.2.35s-.4-.94-.44-1.11c-.09-.46.4-1.12 1-.19z" fill="#fff"/><path fill-rule="evenodd" clip-rule="evenodd" d="M79.23 207.94s.4-.08.21.08c-.18.16-.53.64.46.3.99-.35 5.84-.34 5.84-.34l.35.28-5.88.25s-.72.86-1.08.84c-.36-.03-.08-.87-.08-.87l.18-.54zm7.76-1.37s.28.14-.11.65c-.4.5-.78.65-.09 1.07.7.42.53.05.53.05l-.4-.66s.77-1.24.07-1.1z" fill="#21BCA5"/><path fill-rule="evenodd" clip-rule="evenodd" d="M77.51 217.34l-.2-1.59.25-.04.19 1.6s-.05.24-.24.03z" fill="#303030"/><path fill-rule="evenodd" clip-rule="evenodd" d="M79.03 211.77c.2.29.25.63.15.95l-.05.25.54.01c.37.11.4.99.07 1.26-.14.07-.26.17-.37.27a3.1 3.1 0 0 1-1.04.78c-.08.02-.22.1-.4.17-.75.3-2.16.72-2.4-.8l.04-.82c.03-.4-.19-.7.1-1.47.28-.78 1.09-.9 1.68-.74 0 0 .1.06.3-.21.2-.27 1.03-.41 1.38.35z" fill="#D8D8D8"/><path fill-rule="evenodd" clip-rule="evenodd" d="M78.08 215.4c-.7.3-2.28.88-2.52-.75l.05-.83c.02-.4-.19-.7.1-1.48.28-.78.3-.79 1.68-.74 1.27.04.65 2.01.89 3.34 0 .14-.09.4-.2.46z" fill="#fff"/><path fill-rule="evenodd" clip-rule="evenodd" d="M78.34 215.29c.4-.1-2.5 1.27-2.78-.64l.04-.82c.02-.4-.19-.7.1-1.48.28-.77 1.08-.9 1.68-.74-1.83.11-1.04 3.93.96 3.68z" fill="#21BCA5"/><path fill-rule="evenodd" clip-rule="evenodd" d="M79.75 214.26s-1.02.89-1.4 1.04c-.34.12-2.01 1-2.6-.06a3.16 3.16 0 0 1-.2-.58c.12.27.71.52 1.32.53.82.03 1.39-.53 1.9-.45.3-.2.64-.35.98-.48zM77.34 209.69l1.05.03-.66.8.27 1.01-.97-.4-.85.6.05-1.04-.82-.65 1.02-.26.35-1 .56.9z" fill="#21BCA5"/><path fill-rule="evenodd" clip-rule="evenodd" d="M77 209.63l.16.25c.02.04.07.06.1.06l.3.01c.06 0 .12.08.12.15 0 .03-.02.05-.04.09l-.18.23c-.03.04-.03.07-.03.13l.07.28c.02.07-.02.15-.09.16h-.09l-.27-.1a.11.11 0 0 0-.12.01l-.25.16c-.06.04-.15.02-.2-.03-.02-.02-.02-.05-.02-.09l.02-.29a.16.16 0 0 0-.05-.12l-.24-.18c-.05-.04-.07-.13-.03-.2l.07-.05.29-.07c.03-.02.07-.04.08-.1l.11-.26c.02-.07.1-.11.18-.1.05 0 .1.03.1.06z" fill="#fff"/><path opacity=".7" fill-rule="evenodd" clip-rule="evenodd" d="M82.77 212.3s0-1.48.74-1.48c.75 0 .75 1.43.75 1.43s-.62-1.43-1.49.05zM85.74 212.24s0-1.35.68-1.35.68 1.3.68 1.3-.57-1.3-1.36.05zM85.04 214.66l-.19-.01c-.1 0-.15.66-.31.7-.16.03-.21-.79-.32-.82-.29-.09-.8-.22-1.02-.36-.5-.32-.54-.7-.54-.86 0-.3.92.67 2.35.67h.05c.98 0 1.58-.31 1.7-.37.1-.06.29-.08.29.2 0 .13-.23.34-.58.51-.1.05-.11 1.04-.3 1-.19-.05-.21-.8-.33-.76a3 3 0 0 1-.8.1z" fill="#000"/><path fill-rule="evenodd" clip-rule="evenodd" d="M84.12 213.85l.32 1.4s.06.24.18 0c.13-.24.31-1.28.31-1.28-.27 0-.54-.05-.8-.12z" fill="#fff"/><path fill-rule="evenodd" clip-rule="evenodd" d="M84.5 214.22s.15-.07 0 1.03c0 0 0 .13.13 0 .1-.24.3-1.28.3-1.28-.18 0-.36-.02-.54-.06l.11.3z" fill="#21BCA5"/><path fill-rule="evenodd" clip-rule="evenodd" d="M85.72 213.92l.35 1.26s.15.29.22 0 .22-1.47.22-1.47-.19.1-.79.21z" fill="#fff"/><path fill-rule="evenodd" clip-rule="evenodd" d="M86.04 214.13s.13-.1.19 1.02c0 .02.01.03.03.05.02.02.2-1.43.2-1.43l-.58.2.16.16z" fill="#21BCA5"/><path fill-rule="evenodd" clip-rule="evenodd" d="M83.02 217.63l-.05 1.38s.13.32-1.2.32h-2.81s-.67-.64-.27-.96c.4-.32 1.47-.42 1.47-.42l-.32-.82 3.18.5z" fill="#1F2348"/><path fill-rule="evenodd" clip-rule="evenodd" d="M80.64 217.53l-1.02-.11c-.04 0-.07-.04-.05-.08v-.06c0-.03.05-.06.08-.05l1.03.11c.04 0 .06.04.05.08l-.01.06a.08.08 0 0 1-.08.05zM80.74 217.84l-1.02-.11c-.04 0-.07-.04-.05-.08v-.06c0-.04.05-.06.08-.05l1.03.11c.04 0 .06.04.05.08l-.01.06c-.02.03-.05.06-.08.05z" fill="#21BCA5"/><path fill-rule="evenodd" clip-rule="evenodd" d="M81.72 219.2a.48.48 0 1 1-.48.48c0-.26.21-.48.48-.48z" fill="#1F2348"/><path fill-rule="evenodd" clip-rule="evenodd" d="M81.93 219.18a.48.48 0 1 1 0 .96.48.48 0 0 1 0-.96z" fill="#fff"/><path fill-rule="evenodd" clip-rule="evenodd" d="M81.93 219.39a.27.27 0 1 1 0 .54.27.27 0 0 1 0-.54z" fill="#21BCA5"/><path fill-rule="evenodd" clip-rule="evenodd" d="M79.74 219.2a.48.48 0 1 1-.48.48c0-.26.21-.48.48-.48z" fill="#1F2348"/><path fill-rule="evenodd" clip-rule="evenodd" d="M79.95 219.18a.48.48 0 1 1 0 .96.48.48 0 0 1 0-.96z" fill="#fff"/><path fill-rule="evenodd" clip-rule="evenodd" d="M79.95 219.39a.27.27 0 1 1 0 .54.27.27 0 0 1 0-.54z" fill="#21BCA5"/><path fill-rule="evenodd" clip-rule="evenodd" d="M83.34 217.63l-.2 1.38s-.12.32 1.21.32h2.81s.67-.64.27-.96c-.4-.32-1.84-.42-1.84-.42l.08-.7-2.33.38z" fill="#1F2348"/><path fill-rule="evenodd" clip-rule="evenodd" d="M84.98 217.4l1.03.05c.04 0 .06.04.06.07v.06c0 .03-.03.06-.06.06l-1.03-.06c-.03 0-.06-.04-.06-.06v-.07c0-.03.04-.07.06-.06zM84.86 217.68l1.03.06c.03 0 .06.03.06.06v.06c0 .04-.04.06-.06.06l-1.03-.06c-.04 0-.06-.04-.06-.06v-.06c0-.04.02-.06.06-.06z" fill="#21BCA5"/><path fill-rule="evenodd" clip-rule="evenodd" d="M84.4 219.2a.48.48 0 1 1-.48.48c0-.26.22-.48.48-.48z" fill="#1F2348"/><path fill-rule="evenodd" clip-rule="evenodd" d="M84.2 219.18a.48.48 0 1 1 0 .96.48.48 0 0 1 0-.96z" fill="#fff"/><path fill-rule="evenodd" clip-rule="evenodd" d="M84.2 219.39a.27.27 0 1 1 0 .54.27.27 0 0 1 0-.54z" fill="#21BCA5"/><path fill-rule="evenodd" clip-rule="evenodd" d="M86.38 219.2a.48.48 0 1 1 0 .97.48.48 0 0 1 0-.97z" fill="#1F2348"/><path fill-rule="evenodd" clip-rule="evenodd" d="M86.17 219.18a.48.48 0 1 1 0 .96.48.48 0 0 1 0-.96z" fill="#fff"/><path fill-rule="evenodd" clip-rule="evenodd" d="M86.17 219.39a.27.27 0 1 1 0 .54.27.27 0 0 1 0-.54z" fill="#21BCA5"/><path opacity=".1" d="M109.15 221.56l-4.2-7.12c-.3-.5-.85-.81-1.45-.81h-8.38c-.6 0-1.15.3-1.45.81l-4.2 7.12c-.3.5-.3 1.13 0 1.63l4.2 7.12c.3.5.85.81 1.45.81h8.38c.6 0 1.16-.3 1.46-.81l4.19-7.12c.3-.5.3-1.13 0-1.63z" fill="url(#paint22_radial)"/></g><path fill="#fff" d="M42 282h140.5v52H42z"/><path opacity=".7" d="M98.12 314.16c-.99 0-1.91-.13-2.77-.4a6.36 6.36 0 0 1-2.18-1.13l.79-1.69c.62.47 1.27.82 1.94 1.04.69.22 1.43.33 2.24.33.88 0 1.57-.16 2.05-.47.49-.31.74-.75.74-1.31 0-.48-.23-.85-.69-1.1a8.03 8.03 0 0 0-2.21-.74 9.23 9.23 0 0 1-3.51-1.35 2.83 2.83 0 0 1-1.1-2.41c0-.76.2-1.43.61-2.02a4.1 4.1 0 0 1 1.73-1.38c.76-.34 1.63-.5 2.61-.5.9 0 1.75.13 2.56.4s1.48.64 2 1.12l-.78 1.7a5.9 5.9 0 0 0-3.78-1.37c-.83 0-1.48.17-1.96.52-.48.33-.72.8-.72 1.38 0 .5.2.9.63 1.16.43.26 1.16.5 2.2.73 1.06.26 1.93.53 2.6.83.68.29 1.2.67 1.55 1.14.36.45.54 1.03.54 1.72 0 .77-.2 1.44-.61 2.02-.4.56-1 1-1.76 1.31a7.2 7.2 0 0 1-2.72.47zm15.24-4.59h-6.27c.05.97.3 1.7.72 2.16.45.46 1.1.69 1.97.69 1 0 1.92-.33 2.77-.98l.65 1.55c-.44.35-.97.63-1.6.85-.63.2-1.27.3-1.91.3a4.78 4.78 0 0 1-3.51-1.26c-.86-.84-1.28-1.99-1.28-3.45 0-.93.18-1.75.56-2.47.37-.72.89-1.28 1.56-1.67.67-.41 1.44-.61 2.29-.61 1.25 0 2.23.4 2.95 1.22.73.8 1.1 1.91 1.1 3.33v.34zm-4-3.27c-.6 0-1.09.18-1.47.54-.38.34-.62.85-.72 1.53h4.23a2.49 2.49 0 0 0-.63-1.55c-.34-.35-.8-.52-1.4-.52zm8.84.3v4.07c0 1.07.5 1.6 1.5 1.6.27 0 .57-.05.9-.14v1.78c-.4.14-.88.22-1.44.22-1.03 0-1.83-.3-2.38-.87-.55-.57-.83-1.4-.83-2.48v-4.18h-1.74v-1.69h1.74v-2.21l2.25-.76v2.97h2.41v1.7h-2.4zm6.9 0v4.07c0 1.07.5 1.6 1.5 1.6.27 0 .57-.05.9-.14v1.78c-.4.14-.88.22-1.45.22-1.03 0-1.82-.3-2.37-.87-.55-.57-.83-1.4-.83-2.48v-4.18h-1.75v-1.69h1.75v-2.21l2.25-.76v2.97h2.41v1.7h-2.41zm4.16 7.4v-9.09h2.23V314h-2.23zm-.15-13.21h2.5V303h-2.5v-2.21zm10.24 3.89c2.18 0 3.26 1.24 3.26 3.74V314h-2.25v-5.47c0-.72-.14-1.24-.41-1.57-.28-.33-.7-.5-1.28-.5-.68 0-1.24.22-1.66.66-.42.44-.63 1.01-.63 1.73V314h-2.23v-6.52c0-.96-.05-1.81-.14-2.57h2.1l.17 1.5a3.3 3.3 0 0 1 1.26-1.28c.54-.3 1.14-.45 1.81-.45zm14.63.23v8.8c0 1.42-.39 2.5-1.17 3.22-.78.74-1.93 1.1-3.44 1.1-1.4 0-2.64-.3-3.7-.88l.36-1.71c1.1.58 2.2.86 3.29.86 1.62 0 2.43-.8 2.43-2.4v-1.8c-.28.48-.68.89-1.2 1.2a4.07 4.07 0 0 1-3.9-.1 3.97 3.97 0 0 1-1.45-1.61 5.4 5.4 0 0 1-.5-2.38c0-.89.16-1.67.5-2.36a3.82 3.82 0 0 1 3.56-2.17c.67 0 1.27.14 1.78.43.53.27.93.66 1.2 1.17v-1.37h2.24zm-4.63 7.07c.75 0 1.33-.24 1.75-.73.43-.5.65-1.17.65-2.04 0-.86-.21-1.54-.63-2.03-.42-.5-1-.74-1.77-.74-.74 0-1.33.25-1.76.74-.42.49-.63 1.17-.63 2.03 0 .87.21 1.54.63 2.04.43.49 1.02.73 1.76.73zm10.6 2.16a6.16 6.16 0 0 1-3.93-1.15l.63-1.58a5.45 5.45 0 0 0 3.33 1.08c.54 0 .95-.1 1.24-.27.3-.18.45-.43.45-.76 0-.27-.1-.49-.3-.65-.21-.16-.56-.3-1.05-.43l-1.51-.34c-1.66-.36-2.49-1.2-2.49-2.54 0-.55.16-1.04.47-1.46.31-.43.75-.76 1.32-1a5.78 5.78 0 0 1 5.42.8l-.67 1.52c-.91-.67-1.85-1.01-2.81-1.01-.52 0-.92.1-1.2.29a.9.9 0 0 0-.44.79c0 .26.09.47.25.63.18.16.48.29.9.4l1.55.34c.9.2 1.56.52 1.96.95.42.42.63.97.63 1.66 0 .84-.33 1.5-1 2-.68.49-1.6.73-2.76.73z" fill="#1F2348"/><path opacity=".4" fill-rule="evenodd" clip-rule="evenodd" d="M77.15 305.31l1.27.45a2.38 2.38 0 0 1 0 4.48l-1.27.45a1.37 1.37 0 0 0-.78 1.88l.58 1.22a2.38 2.38 0 0 1-3.16 3.16l-1.22-.57a1.37 1.37 0 0 0-1.88.78l-.45 1.26a2.38 2.38 0 0 1-4.48 0l-.45-1.26a1.37 1.37 0 0 0-1.88-.78l-1.22.57a2.37 2.37 0 0 1-3.16-3.16l.57-1.22a1.37 1.37 0 0 0-.78-1.88l-1.26-.45a2.38 2.38 0 0 1 0-4.48l1.26-.45a1.37 1.37 0 0 0 .78-1.88l-.57-1.22a2.38 2.38 0 0 1 3.16-3.16l1.22.58a1.37 1.37 0 0 0 1.88-.78l.45-1.27a2.38 2.38 0 0 1 4.48 0l.45 1.27a1.38 1.38 0 0 0 1.88.78l1.22-.58a2.37 2.37 0 0 1 3.16 3.16l-.58 1.22a1.37 1.37 0 0 0 .78 1.88zm-13.6 4.53a4.93 4.93 0 0 0 6.29 2.6 4.81 4.81 0 0 0 2.6-6.28 4.87 4.87 0 0 0-6.28-2.6 4.81 4.81 0 0 0-2.6 6.28z" fill="#1F2348"/></g></g><defs><filter id="filter0_d" x="12" y="6" width="380" height="360" filterUnits="userSpaceOnUse" color-interpolation-filters="sRGB"><feFlood flood-opacity="0" result="BackgroundImageFix"/><feColorMatrix in="SourceAlpha" type="matrix" values="0 0 0 0 0 0 0 0 0 0 0 0 0 0 0 0 0 0 127 0"/><feOffset dy="2"/><feGaussianBlur stdDeviation="10"/><feColorMatrix type="matrix" values="0 0 0 0 0 0 0 0 0 0 0 0 0 0 0 0 0 0 0.111158 0"/><feBlend mode="normal" in2="BackgroundImageFix" result="effect1_dropShadow"/><feBlend mode="normal" in="SourceGraphic" in2="effect1_dropShadow" result="shape"/></filter><linearGradient id="paint0_linear" x1="79" y1="0" x2="79" y2="309" gradientUnits="userSpaceOnUse"><stop stop-color="#1F2348"/><stop offset="1" stop-color="#1F2348" stop-opacity="0"/></linearGradient><linearGradient id="paint1_linear" x1="145.14" y1="-7.34" x2="145.14" y2="293.98" gradientUnits="userSpaceOnUse"><stop stop-color="#C4C4C4"/><stop offset=".5" stop-color="#C4C4C4"/><stop offset="1" stop-color="#C4C4C4" stop-opacity="0"/></linearGradient><radialGradient id="paint2_radial" cx="0" cy="0" r="1" gradientUnits="userSpaceOnUse" gradientTransform="matrix(-20.125 0 0 -17.5 76.13 90.38)"><stop stop-color="#41A38E"/><stop offset="1" stop-color="#21BCA5"/></radialGradient><radialGradient id="paint3_radial" cx="0" cy="0" r="1" gradientUnits="userSpaceOnUse" gradientTransform="matrix(-20.125 0 0 -17.5 76.13 90.38)"><stop stop-color="#41A38E"/><stop offset="1" stop-color="#21BCA5"/></radialGradient><radialGradient id="paint4_radial" cx="0" cy="0" r="1" gradientUnits="userSpaceOnUse" gradientTransform="matrix(-20.125 0 0 -17.5 92.75 100)"><stop stop-color="#260133"/><stop offset="1" stop-color="#1F2348"/></radialGradient><radialGradient id="paint5_radial" cx="0" cy="0" r="1" gradientUnits="userSpaceOnUse" gradientTransform="matrix(-20.125 0 0 -17.5 109.38 90.38)"><stop stop-color="#260133"/><stop offset="1" stop-color="#1F2348"/></radialGradient><radialGradient id="paint6_radial" cx="0" cy="0" r="1" gradientUnits="userSpaceOnUse" gradientTransform="matrix(-20.125 0 0 -17.5 76.13 71.13)"><stop stop-color="#CC3047"/><stop offset="1" stop-color="#D94432"/></radialGradient><radialGradient id="paint7_radial" cx="0" cy="0" r="1" gradientUnits="userSpaceOnUse" gradientTransform="matrix(-20.125 0 0 -17.5 92.75 61.5)"><stop stop-color="#FD6216"/><stop offset="1" stop-color="#FC8701"/></radialGradient><radialGradient id="paint8_radial" cx="0" cy="0" r="1" gradientUnits="userSpaceOnUse" gradientTransform="matrix(-20.125 0 0 -17.5 92.75 61.5)"><stop stop-color="#265DD7"/><stop offset="1" stop-color="#0582CA"/></radialGradient><radialGradient id="paint9_radial" cx="0" cy="0" r="1" gradientUnits="userSpaceOnUse" gradientTransform="matrix(-20.125 0 0 -17.5 109.38 71.13)"><stop stop-color="#260133"/><stop offset="1" stop-color="#1F2348"/></radialGradient><radialGradient id="paint10_radial" cx="0" cy="0" r="1" gradientUnits="userSpaceOnUse" gradientTransform="matrix(-20.125 0 0 -17.5 76.13 170.38)"><stop stop-color="#CC3047"/><stop offset="1" stop-color="#D94432"/></radialGradient><radialGradient id="paint11_radial" cx="0" cy="0" r="1" gradientUnits="userSpaceOnUse" gradientTransform="matrix(-20.125 0 0 -17.5 92.75 180)"><stop stop-color="#260133"/><stop offset="1" stop-color="#1F2348"/></radialGradient><radialGradient id="paint12_radial" cx="0" cy="0" r="1" gradientUnits="userSpaceOnUse" gradientTransform="matrix(-20.125 0 0 -17.5 109.38 170.38)"><stop stop-color="#260133"/><stop offset="1" stop-color="#1F2348"/></radialGradient><radialGradient id="paint13_radial" cx="0" cy="0" r="1" gradientUnits="userSpaceOnUse" gradientTransform="matrix(-20.125 0 0 -17.5 76.13 151.13)"><stop stop-color="#265DD7"/><stop offset="1" stop-color="#0582CA"/></radialGradient><radialGradient id="paint14_radial" cx="0" cy="0" r="1" gradientUnits="userSpaceOnUse" gradientTransform="matrix(-20.125 0 0 -17.5 92.75 141.5)"><stop stop-color="#41A38E"/><stop offset="1" stop-color="#21BCA5"/></radialGradient><radialGradient id="paint15_radial" cx="0" cy="0" r="1" gradientUnits="userSpaceOnUse" gradientTransform="matrix(-20.125 0 0 -17.5 92.75 141.5)"><stop stop-color="#41A38E"/><stop offset="1" stop-color="#21BCA5"/></radialGradient><radialGradient id="paint16_radial" cx="0" cy="0" r="1" gradientUnits="userSpaceOnUse" gradientTransform="matrix(-20.125 0 0 -17.5 109.38 151.13)"><stop stop-color="#260133"/><stop offset="1" stop-color="#1F2348"/></radialGradient><radialGradient id="paint17_radial" cx="0" cy="0" r="1" gradientUnits="userSpaceOnUse" gradientTransform="matrix(-20.125 0 0 -17.5 92.75 260)"><stop stop-color="#260133"/><stop offset="1" stop-color="#1F2348"/></radialGradient><radialGradient id="paint18_radial" cx="0" cy="0" r="1" gradientUnits="userSpaceOnUse" gradientTransform="matrix(-20.125 0 0 -17.5 109.38 250.38)"><stop stop-color="#260133"/><stop offset="1" stop-color="#1F2348"/></radialGradient><radialGradient id="paint19_radial" cx="0" cy="0" r="1" gradientUnits="userSpaceOnUse" gradientTransform="matrix(-20.125 0 0 -17.5 76.13 231.13)"><stop stop-color="#FD6216"/><stop offset="1" stop-color="#FC8701"/></radialGradient><radialGradient id="paint20_radial" cx="0" cy="0" r="1" gradientUnits="userSpaceOnUse" gradientTransform="matrix(-20.125 0 0 -17.5 76.13 231.13)"><stop stop-color="#265DD7"/><stop offset="1" stop-color="#0582CA"/></radialGradient><radialGradient id="paint21_radial" cx="0" cy="0" r="1" gradientUnits="userSpaceOnUse" gradientTransform="matrix(-20.125 0 0 -17.5 92.75 221.5)"><stop stop-color="#265DD7"/><stop offset="1" stop-color="#0582CA"/></radialGradient><radialGradient id="paint22_radial" cx="0" cy="0" r="1" gradientUnits="userSpaceOnUse" gradientTransform="matrix(-20.125 0 0 -17.5 109.38 231.13)"><stop stop-color="#260133"/><stop offset="1" stop-color="#1F2348"/></radialGradient></defs></svg>
