<svg xmlns="http://www.w3.org/2000/svg" xmlns:xlink="http://www.w3.org/1999/xlink" viewBox="0 0 240 140"><defs><mask id="a" x="-8" y="-6.67" width="252" height="129.41" maskUnits="userSpaceOnUse"><path d="M244,85.13V4.63L-8,72.13l3.86,43.24Z" fill="#1f2348"/></mask><radialGradient id="b" cx="-6285.07" cy="1619.17" r="1" gradientTransform="matrix(-36.5, 0, 0, 19, -229230.09, -30726.2)" gradientUnits="userSpaceOnUse"><stop offset="0" stop-color="#41a38e"/><stop offset="1" stop-color="#21bca5"/></radialGradient><radialGradient id="c" cx="-6285.07" cy="1619.17" r="1" gradientTransform="matrix(-36.5, 0, 0, 19, -229230.09, -30659.85)" xlink:href="#b"/></defs><g opacity="0.2"><g opacity="0.5"><line x1="0.5" y1="100.63" x2="239.5" y2="100.63" fill="none" stroke="#fff" stroke-linecap="round"/><line x1="0.5" y1="80.63" x2="239.5" y2="80.63" fill="none" stroke="#fff" stroke-linecap="round"/><line x1="0.5" y1="60.63" x2="239.5" y2="60.63" fill="none" stroke="#fff" stroke-linecap="round"/><line x1="0.5" y1="40.63" x2="239.5" y2="40.63" fill="none" stroke="#fff" stroke-linecap="round"/><line x1="0.5" y1="20.63" x2="239.5" y2="20.63" fill="none" stroke="#fff" stroke-linecap="round"/></g><line x1="0.75" y1="120.38" x2="239.25" y2="120.38" fill="none" stroke="#fff" stroke-linecap="round" stroke-width="1.5"/><line x1="0.75" y1="120" x2="239.25" y2="120" fill="none" stroke="#fff" stroke-linecap="round" stroke-width="1.5"/><line x1="76.75" y1="124.75" x2="76.75" y2="111.25" fill="none" stroke="#fff" stroke-linecap="round" stroke-width="1.5"/><line x1="76.75" y1="44.55" x2="76.75" y2="1.05" fill="none" stroke="#fff" stroke-linecap="round" stroke-width="1.5"/></g><g mask="url(#a)"><line x1="84.5" y1="46.23" x2="84.5" y2="105.28" fill="none" stroke="#21bca5" opacity="0.3" style="isolation:isolate"/><line x1="92.5" y1="44.55" x2="92.5" y2="104.28" fill="none" stroke="#21bca5" opacity="0.3" style="isolation:isolate"/><line x1="100.5" y1="42.31" x2="100.5" y2="103.68" fill="none" stroke="#21bca5" opacity="0.3" style="isolation:isolate"/><line x1="68.5" y1="50.69" x2="68.5" y2="106.84" fill="none" stroke="#21bca5" opacity="0.3" style="isolation:isolate"/><line x1="108.5" y1="40.63" x2="108.5" y2="101.68" fill="none" stroke="#21bca5" opacity="0.3" style="isolation:isolate"/><line x1="4.5" y1="68.41" x2="4.5" y2="115" fill="none" stroke="#21bca5" opacity="0.3" style="isolation:isolate"/><line x1="12.5" y1="66.64" x2="12.5" y2="113.53" fill="none" stroke="#21bca5" opacity="0.3" style="isolation:isolate"/><line x1="20.5" y1="64.34" x2="20.5" y2="112.54" fill="none" stroke="#21bca5" opacity="0.3" style="isolation:isolate"/><line x1="28.5" y1="62.2" x2="28.5" y2="111.4" fill="none" stroke="#21bca5" opacity="0.3" style="isolation:isolate"/><line x1="36.5" y1="59.25" x2="36.5" y2="110.57" fill="none" stroke="#21bca5" opacity="0.3" style="isolation:isolate"/><line x1="44.5" y1="57.93" x2="44.5" y2="109.41" fill="none" stroke="#21bca5" opacity="0.3" style="isolation:isolate"/><line x1="52.5" y1="55.27" x2="52.5" y2="108.59" fill="none" stroke="#21bca5" opacity="0.3" style="isolation:isolate"/><line x1="60.5" y1="53.85" x2="60.5" y2="107.35" fill="none" stroke="#21bca5" opacity="0.3" style="isolation:isolate"/><line x1="116.5" y1="38.7" x2="116.5" y2="100.63" fill="none" stroke="#21bca5" opacity="0.3" style="isolation:isolate"/><line x1="124.5" y1="36.56" x2="124.5" y2="100.25" fill="none" stroke="#21bca5" opacity="0.3" style="isolation:isolate"/><line x1="132.5" y1="34.75" x2="132.5" y2="99.13" fill="none" stroke="#21bca5" opacity="0.3" style="isolation:isolate"/><line x1="140.5" y1="32.64" x2="140.5" y2="98" fill="none" stroke="#21bca5" opacity="0.3" style="isolation:isolate"/><line x1="220.5" y1="10.53" x2="220.5" y2="122.74" fill="none" stroke="#21bca5" opacity="0.3" style="isolation:isolate"/><line x1="228.5" y1="8.78" x2="228.5" y2="86.86" fill="none" stroke="#21bca5" opacity="0.3" style="isolation:isolate"/><line x1="236.5" y1="6.65" x2="236.5" y2="85.81" fill="none" stroke="#21bca5" opacity="0.3" style="isolation:isolate"/><line x1="164.5" y1="24.1" x2="164.5" y2="94.4" fill="none" stroke="#21bca5" opacity="0.3" style="isolation:isolate"/><line x1="172.5" y1="22.8" x2="172.5" y2="94.22" fill="none" stroke="#21bca5" opacity="0.3" style="isolation:isolate"/><line x1="180.5" y1="21.6" x2="180.5" y2="92.79" fill="none" stroke="#21bca5" opacity="0.3" style="isolation:isolate"/><line x1="188.5" y1="18.92" x2="188.5" y2="91.62" fill="none" stroke="#21bca5" opacity="0.3" style="isolation:isolate"/><line x1="196.5" y1="17.24" x2="196.5" y2="90.46" fill="none" stroke="#21bca5" opacity="0.3" style="isolation:isolate"/><line x1="204.5" y1="14.72" x2="204.5" y2="90.36" fill="none" stroke="#21bca5" opacity="0.3" style="isolation:isolate"/><line x1="212.5" y1="12.69" x2="212.5" y2="88.7" fill="none" stroke="#21bca5" opacity="0.3" style="isolation:isolate"/><line x1="148.5" y1="29.3" x2="148.5" y2="97.92" fill="none" stroke="#21bca5" opacity="0.3" style="isolation:isolate"/><line x1="76.75" y1="47.82" x2="76.75" y2="106.84" fill="none" stroke="#21bca5" stroke-width="1.5" opacity="0.7" style="isolation:isolate"/><line x1="157" y1="-5.17" x2="157" y2="121.24" fill="none" stroke="#21bca5" stroke-linecap="round" stroke-width="3" stroke-dasharray="0.1 6"/></g><path d="M.75,115l238.5-29.5" fill="none" stroke="#21bca5" stroke-linecap="round" stroke-width="1.5"/><path d="M.75,69.5,239.25,5.9" fill="none" stroke="#21bca5" stroke-linecap="round" stroke-width="1.5"/><rect x="138.75" y="18.92" width="36.5" height="19" rx="2" fill="url(#b)"/><path d="M145.09,32.67V31.53L148,28.4a5.18,5.18,0,0,0,.74-1,2,2,0,0,0,.24-.92,1.1,1.1,0,0,0-.34-.89,1.39,1.39,0,0,0-1-.3,3.08,3.08,0,0,0-1.16.23,4.24,4.24,0,0,0-1.15.66L144.82,25a3.51,3.51,0,0,1,1.31-.72,4.9,4.9,0,0,1,1.61-.27,3.65,3.65,0,0,1,1.46.28,2,2,0,0,1,1,.8,2.24,2.24,0,0,1,.33,1.24,3,3,0,0,1-.31,1.39,6.19,6.19,0,0,1-1.05,1.44l-2.61,2.76-.18-.51h4.48v1.24Zm10.74.1a2.69,2.69,0,0,1-2.32-1.12,5.46,5.46,0,0,1-.8-3.25,5.54,5.54,0,0,1,.79-3.25,3,3,0,0,1,4.22-.42,4.16,4.16,0,0,1,.42.42,5.44,5.44,0,0,1,.81,3.24,5.52,5.52,0,0,1-.81,3.26A2.67,2.67,0,0,1,155.83,32.77Zm0-1.2a1.27,1.27,0,0,0,1.21-.76,5.72,5.72,0,0,0,.38-2.42A5.59,5.59,0,0,0,157,26a1.36,1.36,0,0,0-1.83-.6h0a1.34,1.34,0,0,0-.6.6,5.54,5.54,0,0,0-.38,2.38,5.72,5.72,0,0,0,.38,2.42A1.27,1.27,0,0,0,155.83,31.57Zm6.67-2.27a1.75,1.75,0,0,1-1.46-.65,3,3,0,0,1-.54-2,3,3,0,0,1,.54-2,2,2,0,0,1,2.83-.1h0l.1.1a3,3,0,0,1,.54,2,3,3,0,0,1-.54,2A1.77,1.77,0,0,1,162.5,29.3Zm0-1a.56.56,0,0,0,.55-.38,3.35,3.35,0,0,0,.18-1.26,3,3,0,0,0-.19-1.25.58.58,0,0,0-.74-.35.6.6,0,0,0-.35.35,3.14,3.14,0,0,0-.18,1.25A3.24,3.24,0,0,0,162,28a.59.59,0,0,0,.5.33Zm-.2,4.34,4.95-8.54h1.44l-4.94,8.54Zm6.19,0A1.77,1.77,0,0,1,167,32a3,3,0,0,1-.54-2,3,3,0,0,1,.54-2,2,2,0,0,1,2.83-.09h0L170,28a3,3,0,0,1,.54,2,3,3,0,0,1-.54,2,1.76,1.76,0,0,1-1.46.73Zm0-1a.56.56,0,0,0,.55-.38,3.35,3.35,0,0,0,.18-1.26,3,3,0,0,0-.19-1.25.58.58,0,0,0-.74-.35.6.6,0,0,0-.35.35,3.14,3.14,0,0,0-.18,1.25,3.35,3.35,0,0,0,.18,1.26.58.58,0,0,0,.55.49Z" fill="#fff"/><rect x="138.75" y="85.28" width="36.5" height="19" rx="2" fill="url(#c)"/><path d="M147.83,99.12a4.76,4.76,0,0,1-1.67-.28A2.64,2.64,0,0,1,145,98a2.15,2.15,0,0,1-.39-1.28,1.93,1.93,0,0,1,.59-1.47,2.65,2.65,0,0,1,1.6-.7v.18a2.68,2.68,0,0,1-1.43-.72,1.86,1.86,0,0,1-.53-1.34,2,2,0,0,1,.38-1.22,2.54,2.54,0,0,1,1.07-.79,3.91,3.91,0,0,1,1.55-.28,3.86,3.86,0,0,1,1.54.28,2.46,2.46,0,0,1,1.07.79,2,2,0,0,1,.39,1.22A1.83,1.83,0,0,1,150.3,94a2.54,2.54,0,0,1-1.41.71v-.18a2.68,2.68,0,0,1,1.6.72,1.93,1.93,0,0,1,.58,1.45,2,2,0,0,1-.41,1.28,2.41,2.41,0,0,1-1.11.83A4.8,4.8,0,0,1,147.83,99.12Zm0-1.2a2.11,2.11,0,0,0,1.27-.33,1.21,1.21,0,0,0,.24-1.69,1.36,1.36,0,0,0-.24-.24,2.57,2.57,0,0,0-1.25-.46,2.87,2.87,0,0,0-1.26.46,1.22,1.22,0,0,0-.22,1.71,1.15,1.15,0,0,0,.22.22A2.16,2.16,0,0,0,147.83,97.92Zm0-3.7a2.27,2.27,0,0,0,1.09-.44,1.15,1.15,0,0,0,.44-.94,1.07,1.07,0,0,0-.42-.92,2,2,0,0,0-2.22,0,1.06,1.06,0,0,0-.41.92,1.18,1.18,0,0,0,.43.94A2.27,2.27,0,0,0,147.83,94.22Zm8,4.91A2.68,2.68,0,0,1,153.51,98a5.46,5.46,0,0,1-.8-3.25,5.54,5.54,0,0,1,.79-3.25,3,3,0,0,1,4.22-.42,4.16,4.16,0,0,1,.42.42,6.93,6.93,0,0,1,0,6.5A2.64,2.64,0,0,1,155.83,99.13Zm0-1.2a1.27,1.27,0,0,0,1.21-.76,5.72,5.72,0,0,0,.38-2.42,5.59,5.59,0,0,0-.38-2.39,1.36,1.36,0,0,0-1.83-.6,1.34,1.34,0,0,0-.6.6,5.54,5.54,0,0,0-.38,2.38,5.72,5.72,0,0,0,.38,2.42A1.28,1.28,0,0,0,155.83,97.93Zm6.67-2.27A1.81,1.81,0,0,1,161,95a4,4,0,0,1,0-4,2,2,0,0,1,2.83-.1h0a.47.47,0,0,1,.1.1,4,4,0,0,1,0,4A1.8,1.8,0,0,1,162.5,95.66Zm0-1a.58.58,0,0,0,.55-.39,3,3,0,0,0,.18-1.26A2.93,2.93,0,0,0,163,91.8a.58.58,0,0,0-.74-.35.6.6,0,0,0-.35.35,3.28,3.28,0,0,0-.18,1.24A3.07,3.07,0,0,0,162,94.3a.57.57,0,0,0,.5.39ZM162.3,99l4.95-8.54h1.44L163.75,99Zm6.19,0a1.82,1.82,0,0,1-1.46-.65,3.88,3.88,0,0,1,0-3.95,2,2,0,0,1,2.83-.09h0l.09.09a3.88,3.88,0,0,1,0,3.95,1.76,1.76,0,0,1-1.46.73Zm0-1a.58.58,0,0,0,.55-.39,3,3,0,0,0,.18-1.26,2.91,2.91,0,0,0-.19-1.24.58.58,0,0,0-.74-.35.6.6,0,0,0-.35.35,3.28,3.28,0,0,0-.18,1.24,3,3,0,0,0,.18,1.26.58.58,0,0,0,.55.5Z" fill="#fff"/><path d="M66.8,139.09V133l.72.15-2.3,1.39v-1.27L67.4,132h.82v7.19Zm-1.7.65v-1.15h4.84v1.15Zm7,0v-1.05l2.65-2.87a4,4,0,0,0,.68-.95,1.78,1.78,0,0,0,.22-.84,1.09,1.09,0,0,0-.3-.82,1.34,1.34,0,0,0-.89-.27,2.8,2.8,0,0,0-1.07.21,4.26,4.26,0,0,0-1.06.6l-.48-1a3.29,3.29,0,0,1,1.2-.66,4.57,4.57,0,0,1,1.47-.24,3.23,3.23,0,0,1,1.34.25,1.92,1.92,0,0,1,.88.74,2,2,0,0,1,.31,1.13,3,3,0,0,1-.28,1.28,6.06,6.06,0,0,1-1,1.31l-2.39,2.53-.16-.47h4.1v1.15Zm7.47,0V131.9h1.14l3,6.75h-.54L86,131.9h1.14v7.84H85.88v-5.8l.38.09-2.45,5.71h-.93L80.37,134l.4-.09v5.8Z" fill="#fff" opacity="0.4" style="isolation:isolate"/></svg>
