<svg width="509" height="132" viewBox="0 0 509 132" fill="none" xmlns="http://www.w3.org/2000/svg">
    <path d="M1.53125 114.875L240.406 85.375" stroke="#21BCA5" stroke-width="1.5" stroke-linecap="round"/>
    <path d="M1.71866 69.469L240.281 5.75008" stroke="#21BCA5" stroke-width="1.5" stroke-linecap="round"/>
    <rect x="139.656" y="18.7969" width="36.5" height="19" rx="2" fill="url(#paint0_radial)"/>
    <path d="M150.763 31.2869V32.5469H145.027V31.4069L147.931 28.2749C148.275 27.8989 148.527 27.5549 148.687 27.2429C148.847 26.9309 148.927 26.6229 148.927 26.3189C148.927 25.9269 148.811 25.6309 148.579 25.4309C148.355 25.2309 148.031 25.1309 147.607 25.1309C146.855 25.1309 146.083 25.4269 145.291 26.0189L144.775 24.8909C145.111 24.5869 145.543 24.3469 146.071 24.1709C146.599 23.9869 147.131 23.8949 147.667 23.8949C148.523 23.8949 149.199 24.1069 149.695 24.5309C150.199 24.9469 150.451 25.5109 150.451 26.2229C150.451 26.7109 150.343 27.1709 150.127 27.6029C149.919 28.0349 149.567 28.5189 149.071 29.0549L146.971 31.2869H150.763ZM155.782 32.6549C154.766 32.6549 153.99 32.2829 153.454 31.5389C152.926 30.7869 152.662 29.6949 152.662 28.2629C152.662 26.8549 152.926 25.7789 153.454 25.0349C153.99 24.2909 154.766 23.9189 155.782 23.9189C156.798 23.9189 157.57 24.2909 158.098 25.0349C158.634 25.7709 158.902 26.8469 158.902 28.2629C158.902 29.6869 158.634 30.7749 158.098 31.5269C157.57 32.2789 156.798 32.6549 155.782 32.6549ZM155.782 31.4429C156.334 31.4429 156.734 31.1909 156.982 30.6869C157.238 30.1749 157.366 29.3669 157.366 28.2629C157.366 27.1749 157.238 26.3829 156.982 25.8869C156.734 25.3829 156.334 25.1309 155.782 25.1309C155.23 25.1309 154.826 25.3829 154.57 25.8869C154.322 26.3829 154.198 27.1749 154.198 28.2629C154.198 29.3669 154.322 30.1749 154.57 30.6869C154.826 31.1909 155.23 31.4429 155.782 31.4429ZM162.853 29.1029C162.181 29.1029 161.653 28.8829 161.269 28.4429C160.893 27.9949 160.705 27.3429 160.705 26.4869C160.705 25.6389 160.893 24.9949 161.269 24.5549C161.653 24.1069 162.181 23.8829 162.853 23.8829C163.533 23.8829 164.065 24.1069 164.449 24.5549C164.833 24.9949 165.025 25.6389 165.025 26.4869C165.025 27.3429 164.833 27.9949 164.449 28.4429C164.065 28.8829 163.533 29.1029 162.853 29.1029ZM162.769 32.5469L167.713 24.0029H169.045L164.089 32.5469H162.769ZM162.853 28.1309C163.165 28.1309 163.393 28.0029 163.537 27.7469C163.681 27.4909 163.753 27.0709 163.753 26.4869C163.753 25.9189 163.677 25.5069 163.525 25.2509C163.381 24.9869 163.157 24.8549 162.853 24.8549C162.557 24.8549 162.337 24.9869 162.193 25.2509C162.049 25.5069 161.977 25.9189 161.977 26.4869C161.977 27.0629 162.049 27.4829 162.193 27.7469C162.337 28.0029 162.557 28.1309 162.853 28.1309ZM168.949 32.6309C168.269 32.6309 167.737 32.4109 167.353 31.9709C166.977 31.5229 166.789 30.8669 166.789 30.0029C166.789 29.1549 166.977 28.5109 167.353 28.0709C167.737 27.6309 168.269 27.4109 168.949 27.4109C169.629 27.4109 170.157 27.6309 170.533 28.0709C170.917 28.5109 171.109 29.1589 171.109 30.0149C171.109 30.8709 170.917 31.5229 170.533 31.9709C170.157 32.4109 169.629 32.6309 168.949 32.6309ZM168.949 31.6589C169.253 31.6589 169.477 31.5309 169.621 31.2749C169.765 31.0109 169.837 30.5909 169.837 30.0149C169.837 29.4469 169.761 29.0349 169.609 28.7789C169.465 28.5149 169.245 28.3829 168.949 28.3829C168.645 28.3829 168.421 28.5149 168.277 28.7789C168.133 29.0349 168.061 29.4469 168.061 30.0149C168.061 30.5909 168.133 31.0109 168.277 31.2749C168.421 31.5309 168.645 31.6589 168.949 31.6589Z" fill="white"/>
    <rect x="139.656" y="85.1538" width="36.5" height="19" rx="2" fill="url(#paint1_radial)"/>
    <path d="M149.22 94.5118C149.772 94.6478 150.204 94.8998 150.516 95.2678C150.828 95.6358 150.984 96.0798 150.984 96.5998C150.984 97.0878 150.848 97.5158 150.576 97.8838C150.312 98.2438 149.936 98.5198 149.448 98.7118C148.968 98.9038 148.412 98.9998 147.78 98.9998C147.148 98.9998 146.588 98.9038 146.1 98.7118C145.62 98.5198 145.244 98.2438 144.972 97.8838C144.708 97.5158 144.576 97.0878 144.576 96.5998C144.576 96.0798 144.732 95.6358 145.044 95.2678C145.356 94.8998 145.788 94.6478 146.34 94.5118C145.86 94.3518 145.48 94.0998 145.2 93.7558C144.928 93.4118 144.792 93.0118 144.792 92.5558C144.792 92.0918 144.92 91.6878 145.176 91.3438C145.432 90.9918 145.784 90.7238 146.232 90.5398C146.688 90.3478 147.204 90.2518 147.78 90.2518C148.356 90.2518 148.868 90.3478 149.316 90.5398C149.772 90.7238 150.128 90.9918 150.384 91.3438C150.64 91.6878 150.768 92.0918 150.768 92.5558C150.768 93.0198 150.628 93.4278 150.348 93.7798C150.076 94.1238 149.7 94.3678 149.22 94.5118ZM147.78 91.4638C147.308 91.4638 146.936 91.5718 146.664 91.7878C146.392 92.0038 146.256 92.3118 146.256 92.7118C146.256 93.0878 146.392 93.3958 146.664 93.6358C146.944 93.8678 147.316 94.0198 147.78 94.0918C148.244 94.0198 148.612 93.8678 148.884 93.6358C149.164 93.3958 149.304 93.0878 149.304 92.7118C149.304 92.3118 149.168 92.0038 148.896 91.7878C148.624 91.5718 148.252 91.4638 147.78 91.4638ZM147.78 97.7878C148.324 97.7878 148.748 97.6758 149.052 97.4518C149.364 97.2278 149.52 96.9078 149.52 96.4918C149.52 96.0998 149.36 95.7838 149.04 95.5438C148.728 95.3038 148.308 95.1478 147.78 95.0758C147.252 95.1478 146.828 95.3038 146.508 95.5438C146.196 95.7838 146.04 96.0998 146.04 96.4918C146.04 96.9078 146.192 97.2278 146.496 97.4518C146.808 97.6758 147.236 97.7878 147.78 97.7878ZM155.776 99.0118C154.76 99.0118 153.984 98.6398 153.448 97.8958C152.92 97.1438 152.656 96.0518 152.656 94.6198C152.656 93.2118 152.92 92.1358 153.448 91.3918C153.984 90.6478 154.76 90.2758 155.776 90.2758C156.792 90.2758 157.564 90.6478 158.092 91.3918C158.628 92.1278 158.896 93.2038 158.896 94.6198C158.896 96.0438 158.628 97.1318 158.092 97.8838C157.564 98.6358 156.792 99.0118 155.776 99.0118ZM155.776 97.7998C156.328 97.7998 156.728 97.5478 156.976 97.0438C157.232 96.5318 157.36 95.7238 157.36 94.6198C157.36 93.5318 157.232 92.7398 156.976 92.2438C156.728 91.7398 156.328 91.4878 155.776 91.4878C155.224 91.4878 154.82 91.7398 154.564 92.2438C154.316 92.7398 154.192 93.5318 154.192 94.6198C154.192 95.7238 154.316 96.5318 154.564 97.0438C154.82 97.5478 155.224 97.7998 155.776 97.7998ZM162.847 95.4598C162.175 95.4598 161.647 95.2398 161.263 94.7998C160.887 94.3518 160.699 93.6998 160.699 92.8438C160.699 91.9958 160.887 91.3518 161.263 90.9118C161.647 90.4638 162.175 90.2398 162.847 90.2398C163.527 90.2398 164.059 90.4638 164.443 90.9118C164.827 91.3518 165.019 91.9958 165.019 92.8438C165.019 93.6998 164.827 94.3518 164.443 94.7998C164.059 95.2398 163.527 95.4598 162.847 95.4598ZM162.763 98.9038L167.707 90.3598H169.039L164.083 98.9038H162.763ZM162.847 94.4878C163.159 94.4878 163.387 94.3598 163.531 94.1038C163.675 93.8478 163.747 93.4278 163.747 92.8438C163.747 92.2758 163.671 91.8638 163.519 91.6078C163.375 91.3438 163.151 91.2118 162.847 91.2118C162.551 91.2118 162.331 91.3438 162.187 91.6078C162.043 91.8638 161.971 92.2758 161.971 92.8438C161.971 93.4198 162.043 93.8398 162.187 94.1038C162.331 94.3598 162.551 94.4878 162.847 94.4878ZM168.943 98.9878C168.263 98.9878 167.731 98.7678 167.347 98.3278C166.971 97.8798 166.783 97.2238 166.783 96.3598C166.783 95.5118 166.971 94.8678 167.347 94.4278C167.731 93.9878 168.263 93.7678 168.943 93.7678C169.623 93.7678 170.151 93.9878 170.527 94.4278C170.911 94.8678 171.103 95.5158 171.103 96.3718C171.103 97.2278 170.911 97.8798 170.527 98.3278C170.151 98.7678 169.623 98.9878 168.943 98.9878ZM168.943 98.0158C169.247 98.0158 169.471 97.8878 169.615 97.6318C169.759 97.3678 169.831 96.9478 169.831 96.3718C169.831 95.8038 169.755 95.3918 169.603 95.1358C169.459 94.8718 169.239 94.7398 168.943 94.7398C168.639 94.7398 168.415 94.8718 168.271 95.1358C168.127 95.3918 168.055 95.8038 168.055 96.3718C168.055 96.9478 168.127 97.3678 168.271 97.6318C168.415 97.8878 168.639 98.0158 168.943 98.0158Z" fill="white"/>
    <defs>
        <radialGradient id="paint0_radial" cx="0" cy="0" r="1" gradientUnits="userSpaceOnUse" gradientTransform="translate(176.156 37.7969) rotate(-180) scale(36.5 19)">
            <stop stop-color="#41A38E"/>
            <stop offset="1" stop-color="#21BCA5"/>
        </radialGradient>
        <radialGradient id="paint1_radial" cx="0" cy="0" r="1" gradientUnits="userSpaceOnUse" gradientTransform="translate(176.156 104.154) rotate(-180) scale(36.5 19)">
            <stop stop-color="#41A38E"/>
            <stop offset="1" stop-color="#21BCA5"/>
        </radialGradient>
    </defs>
</svg>
