<svg version="1.1" id="Layer_1" xmlns="http://www.w3.org/2000/svg" xmlns:xlink="http://www.w3.org/1999/xlink" x="0" y="0" viewBox="0 0 419 82" xml:space="preserve"><style>.st2{opacity:.15;fill:none;stroke:#000;enable-background:new}</style><path fill="none" d="M0 0h419v82H0z"/><defs><path id="SVGID_1_" d="M210.28 77.61l-23.72 4.8c-13.64 2.76-26.83 7.4-39.19 13.8l-4.05 2.1c-9.52 4.92-19.54 8.82-29.89 11.61l-35.57 9.59H589.5v-168l-179.33 61.7a108.9 108.9 0 0 1-22.9 5.21 109.109 109.109 0 0 0-40 12.8l-2.16 1.19a121.616 121.616 0 0 1-41.72 13.9l-3.43.48A140.555 140.555 0 0 0 257.19 60l-10.12 5a150.19 150.19 0 0 1-36.79 12.61z"/></defs><clipPath id="SVGID_2_"><use xlink:href="#SVGID_1_" overflow="visible"/></clipPath><g clip-path="url(#SVGID_2_)"><path class="st2" d="M270.5-397.5v544M278.5-397.5v544M286.5-397.5v544M294.5-397.5v544M302.5-397.5v544M198.5-397.5v544M206.5-397.5v544M214.5-397.5v544M222.5-397.5v544M230.5-397.5v544M238.5-397.5v544M246.5-397.5v544M254.5-397.5v544M262.5-397.5v544M126.5-397.5v544M134.5-397.5v544M142.5-397.5v544M150.5-397.5v544M158.5-397.5v544M166.5-397.5v544M174.5-397.5v544M182.5-397.5v544M190.5-397.5v544M310.5-397.5v544M318.5-397.5v544M326.5-397.5v544"/><path opacity=".15" fill="none" stroke="#000" stroke-linecap="round" d="M334.5-397v543"/><path class="st2" d="M414.5-397.5v544M358.5-397.5v544M366.5-397.5v544M374.5-397.5v544M382.5-397.5v544M390.5-397.5v544M398.5-397.5v544M406.5-397.5v544M342.5-397.5v544M350.5-397.5v544"/></g><path d="M77.86 118.51l35.57-9.59c10.35-2.79 20.37-6.69 29.89-11.61l4.05-2.1c12.36-6.4 25.55-11.04 39.19-13.8l23.72-4.8A150.19 150.19 0 0 0 247.07 64l10.12-5a140.732 140.732 0 0 1 42.75-13.22l3.42-.48c14.64-2.06 28.77-6.77 41.72-13.9l2.16-1.19a109.109 109.109 0 0 1 40-12.8h0a108.9 108.9 0 0 0 22.9-5.21L589.5-49.5" opacity=".3" fill="none" stroke="#000" stroke-width="1.5"/></svg>