<svg width="52" height="52" viewBox="1 0 53 52" fill="none" xmlns="http://www.w3.org/2000/svg">
  <path d="M40 22.8c.5-3.4-2.3-5.3-6-6.5l1.2-4.7-3-.7-1.2 4.5-2.4-.5 1.2-4.6-3-.7-1.2 4.7-2-.4-4-1-.8 3s2.2.4 2.1.5c1.3.3 1.5 1 1.4 1.6L21 23.4h.3-.3l-2 7.4a1 1 0 01-1.4.7l-2.1-.5-1.5 3.2 3.9 1 2.1.5-1.2 4.7 3 .7 1.2-4.7 2.4.6-1.2 4.7 3 .7 1.2-4.7c5 .9 8.9.5 10.5-3.9 1.3-3.5 0-5.5-2.7-6.8a4.6 4.6 0 003.7-4.2zm-6.9 9c-.9 3.6-7.1 1.7-9.2 1.2l1.7-6.2c2 .5 8.5 1.4 7.5 5zm1-9c-.9 3.2-6 1.5-7.8 1.1l1.5-5.6c1.7.4 7.1 1.1 6.2 4.4z" fill="#fff"/>
</svg>
