<svg xmlns="http://www.w3.org/2000/svg" width="52" height="52" fill="none"><g fill="#fff" clip-path="url(#a)"><path d="M37.144 23.332c.349-1.408.651-2.833.198-4.26-.386-1.214-1.332-2.28-2.542-2.567-.882-.21-1.807 0-2.666.292-4.092 1.397-7.306 4.6-10.73 7.293 3.17-3.49 6.68-6.705 10.707-9.085 1.396-.825 2.869-1.554 4.446-1.888.897-.19 1.934-.212 2.612.42.505.47.693 1.2.767 1.896.432 4.03-1.395 8.078-2.917 11.683-.672 1.593-1.47 3.127-2.323 4.624-.81 1.422-1.67 2.811-2.53 4.2 1.06-2.15 2.013-4.349 2.91-6.575"/><path d="M15.698 27.765c-.511 1.355-.978 2.732-.696 4.205.24 1.253 1.056 2.428 2.223 2.863.851.317 1.793.224 2.68.04 4.226-.88 7.792-3.661 11.506-5.91-3.555 3.072-7.417 5.828-11.693 7.692-1.482.646-3.03 1.188-4.634 1.324-.913.077-1.945-.03-2.544-.742-.446-.53-.547-1.277-.54-1.977.045-4.054 2.332-7.846 4.265-11.236.854-1.498 1.826-2.922 2.848-4.303.97-1.31 1.986-2.584 3.003-3.856-1.304 2.003-2.507 4.068-3.658 6.167"/></g><defs><clipPath id="a"><path fill="#fff" d="M12 13h28v25H12z"/></clipPath></defs></svg>