<svg id="Countryflags.com" xmlns="http://www.w3.org/2000/svg" viewBox="0 0 24 16"><defs><style>.cls-1{fill:#fff;}.cls-2{fill:#cf142b;}.cls-3{fill:#00247d;}</style></defs><rect class="cls-1" width="24" height="16"/><polygon class="cls-2" points="0 14.89 8.44 10.67 8.42 10.67 6.64 10.67 0 14 0 14.89"/><polygon class="cls-2" points="0 2 0 2.9 4.88 5.34 6.66 5.34 0 2"/><polygon class="cls-3" points="0 10.67 0 12.51 3.69 10.67 0 10.67"/><polygon class="cls-3" points="0 3.49 0 5.33 3.69 5.33 0 3.49"/><polygon class="cls-3" points="0 15.48 0 16 9.33 16 9.33 10.82 0 15.48"/><polygon class="cls-3" points="0 0 0 0.52 9.33 5.18 9.33 0 0 0"/><polygon class="cls-3" points="24 15.49 14.66 10.82 14.66 16 24 16 24 15.49"/><polygon class="cls-3" points="24 0 14.66 0 14.66 5.18 24 0.51 24 0"/><polygon class="cls-2" points="24 1.11 15.56 5.33 17.34 5.33 24 2 24 1.11"/><polygon class="cls-2" points="24 13.12 19.1 10.66 17.32 10.66 24 14.01 24 13.12"/><polygon class="cls-2" points="24 6.4 13.59 6.4 13.59 0 10.39 0 10.39 6.4 0 6.4 0 9.6 10.39 9.6 10.39 16 13.59 16 13.59 9.6 24 9.6 24 6.4"/><polygon class="cls-3" points="24 10.67 20.3 10.67 24 12.52 24 10.67"/><polygon class="cls-3" points="24 3.48 20.3 5.33 24 5.33 24 3.48"/></svg>