<svg width="382" height="255" xmlns="http://www.w3.org/2000/svg"><path d="M0 255h382V0H0z" fill="#d31f2d"/><path d="M0 255h137V0H0z" fill="#2ea14f"/><path d="m165 137 24-6-4 16-20-10m-23 20v-12c16 1 30 5 37 8l-37 4m0 22v-15c14-1 27-2 35-4-8 10-21 17-35 19m-10-22-38-4c7-3 21-7 38-8v12m0 22c-14-2-27-9-35-19 8 2 21 3 35 4v15m-47-48 24 6-20 10c-2-5-4-10-4-16m4-24 26 5-30 8 4-13m3-6c4-1 19-6 40-6v12l-4 1-37-6 1-1m40-25v12c-14 0-26 2-34 4 9-9 21-15 34-16m0 49-15 7c-15-2-27-5-32-7l43-11 4 1v10m10-10 4-1 42 11c-5 2-17 5-32 7l-14-7v-10m0-20a156 156 0 0 1 40 7l-36 6-4-1V95m0-19c13 1 25 7 33 16-8-2-19-4-33-4V76m46 44-29-8 26-5c2 4 3 8 3 13m-50-51h-2c-32 0-59 26-59 58 0 33 27 59 59 59h2c32 0 59-26 59-59 0-32-27-58-59-58" fill="#f0ef20"/><path d="M110 90v53c0 14 27 21 27 21s27-7 27-21V90h-54" fill="#ec242d"/><path d="m137 152-7-3c-6-3-8-5-8-6v-40h30v40c0 1-2 3-9 6l-6 3" fill="#fff"/><g fill="#d7e722"><path d="M114 124h4l1 3h-6l1-3m-3 5h10l-1-1-1-6 1-2h-8l1 2-1 6-1 1M114 97h4l1 3h-6l1-3m-3 4h10l-1-1-1-5 1-2h-2l-2-1-2 1h-2l1 2-1 5-1 1M155 124h5l1 3h-6v-3m-2 5h9v-1l-1-6 1-2h-9l2 2-1 6-1 1M147 151l2 4-2 2-3-5 3-1m-5 0 5 8v-1l5-3h2l-2-2v-2l-2-2-1-2-1 2-5 3-1-1M130 152l-3 5-3-2 3-4 3 1m1 0-6-3v-2l-2 2-1 2-1 2-1 2h2l4 3 1 1 5-8-1 1M155 97h5l1 3h-6v-3m-2 4h9v-1l-1-5 1-2h-2l-2-1-2 1h-3l2 2-1 5-1 1M134 97h5l1 3h-6v-3m-2 4h10l-1-1-1-5 1-2h-2l-2-1-2 1h-3l2 2-1 5-1 1"/></g><g fill="#48a0de"><path d="M133 121v6c0 2 4 3 4 3s3-1 3-3v-6h-7M143 121v6c0 2 3 3 3 3s4-1 4-3v-6h-7M124 121v6c0 2 3 3 3 3s4-1 4-3v-6h-7M133 107v6c0 2 4 3 4 3s3-1 3-3v-6h-7M133 135v6c0 2 4 3 4 3s3-1 3-3v-6h-7"/></g></svg>
