<svg id="Countryflags.com" xmlns="http://www.w3.org/2000/svg" viewBox="0 0 24 16"><defs><style>.cls-1{fill:#de2910;}.cls-2{fill:#ffde00;}</style></defs><rect id="_6" data-name="6" class="cls-1" width="24" height="16"/><polygon class="cls-2" points="4.54 3.26 4 1.6 3.46 3.26 1.72 3.26 3.13 4.28 2.59 5.94 4 4.92 5.41 5.94 4.87 4.28 6.28 3.26 4.54 3.26"/><polygon class="cls-2" points="7.88 1.88 8.18 2.38 8.23 1.8 8.8 1.67 8.26 1.44 8.31 0.86 7.93 1.3 7.4 1.07 7.7 1.57 7.31 2.01 7.88 1.88"/><polygon class="cls-2" points="9.38 3.41 9.46 3.99 9.73 3.47 10.31 3.57 9.9 3.16 10.17 2.64 9.65 2.9 9.25 2.48 9.33 3.06 8.81 3.31 9.38 3.41"/><polygon class="cls-2" points="9.89 5.68 10.35 5.33 9.77 5.35 9.57 4.8 9.41 5.36 8.83 5.38 9.31 5.71 9.15 6.26 9.61 5.91 10.09 6.23 9.89 5.68"/><polygon class="cls-2" points="8.26 7.03 8.28 6.45 7.92 6.91 7.38 6.7 7.7 7.19 7.33 7.64 7.89 7.49 8.21 7.97 8.24 7.39 8.8 7.24 8.26 7.03"/></svg>