<svg width="160" viewBox="0 0 160 160" xml:space="preserve" height="160" xmlns="http://www.w3.org/2000/svg">
  <path d="M50.9 8.89c-2.4 0-4.72 0-7 .04-.5.22-1.05.37-1.58.57-2.31.85-4.43 2.05-5.87 4.09-1.25 1.76-2.3 3.67-3.37 5.51h-.05a829.43 829.43 0 0 0-2.82 4.78c-1.4 2.4-2.8 4.8-4.18 7.2l-4.11 7.17-4.19 7.2-4.1 7.17-4.19 7.2C8.21 61.96 7 64.11 5.77 66.24c-1.38 2.4-2.84 4.78-4.15 7.22-.58 1.07-.9 2.28-1.33 3.42-.05.13-.12.25-.24.4C0 79.16 0 80.99 0 82.82c.1.06.26.1.28.18a13.55 13.55 0 0 0 1.9 4.59l4.18 7.2 4.22 7.28c1.37 2.39 2.72 4.79 4.1 7.17 1.39 2.41 2.8 4.8 4.2 7.2l3.6 6.3 4.25 7.34c1.37 2.38 2.7 4.8 4.1 7.17 1.7 2.9 3.33 5.84 5.2 8.63 1.8 2.7 4.47 4.29 7.67 4.96.08.02.15.11.26.23 24.08.05 48.14.05 72.19.05.08-.1.15-.26.25-.28a13.16 13.16 0 0 0 5.53-2.73c1.75-1.38 2.82-3.24 3.9-5.1l7.03-12.1c1.8-3.13 3.56-6.26 5.36-9.38 1.9-3.3 3.85-6.6 5.76-9.9 1.38-2.39 2.72-4.79 4.1-7.17l5.96-10.3c1.5-2.6 3.05-5.2 4.47-7.87.55-1.02.81-2.2 1.2-3.31.04-.08.12-.15.24-.26.05-1.86.05-3.7.05-5.52-.1-.06-.26-.1-.28-.18a13.55 13.55 0 0 0-1.9-4.59l-4.18-7.2-4.22-7.28c-1.37-2.39-2.72-4.79-4.1-7.17-1.39-2.41-2.8-4.8-4.2-7.2l-3.6-6.3-4.25-7.34c-1.37-2.38-2.7-4.8-4.1-7.17-1.7-2.9-3.33-5.84-5.2-8.63-1.8-2.7-4.47-4.29-7.67-4.96-.08-.02-.15-.11-.26-.23-21.71-.05-43.4-.05-65.08-.05l-.22.14c.06-.04.11-.1.15-.14Zm-.43.32a126.16 126.16 0 0 0-8.52 4.55 169.77 169.77 0 0 0 4.22-2.35c1.42-.76 2.85-1.5 4.3-2.2Zm15.75 24.61h27.56V66.2h32.4v27.57h-32.4v32.42H66.23v-.82c0-10.22 0-20.44.02-30.66 0-.76-.2-.95-.95-.95-10.2.03-20.4.02-30.6.02h-.86V66.22h31.41c.98 0 .98 0 .98-.95v-30.6z" fill="#ff0d00"/>
  <path fill="#fff" d="M93.78 62.96v3.24h32.4v27.57h-32.4v32.42H66.23v-.82c0-10.22 0-20.44.02-30.66 0-.76-.2-.95-.95-.95-10.2.03-20.4.02-30.6.02h-.86V66.22h31.41c.98 0 .98 0 .98-.95V33.82h27.56v29.14z"/>
</svg>
