<svg id="d" xmlns="http://www.w3.org/2000/svg" width="160" height="160" viewBox="0 0 160 160"><defs><radialGradient id="e" cx="-252.46" cy="20" fx="-252.46" fy="20" r=".53" gradientTransform="matrix(303.3 0 0 -303.4 76681.99 6215.99)" gradientUnits="userSpaceOnUse"><stop offset="0" stop-color="#94ace0"/><stop offset="0" stop-color="#072037"/><stop offset="1" stop-color="#1b324a"/></radialGradient><radialGradient id="f" cx="-252.58" cy="20.24" fx="-252.58" fy="20.24" r=".02" gradientTransform="matrix(303.3 0 0 -303.4 76681.99 6215.99)" gradientUnits="userSpaceOnUse"><stop offset="0" stop-color="#ec991c"/><stop offset="1" stop-color="#e9b213"/></radialGradient><style>.g{fill:#fffe86}.h{fill:#1d4d6e}.i{fill:#f85401}.j{fill:#ffaf32}.k{fill:#ff5118}.l{fill:#f9fbc4}.m{fill:#3389b0}.n{fill:#f6590c}.p{fill:#fffecd}.q{fill:#fdb52e}.r{fill:#fff}.t{fill:#f4cd38}.u{fill:#eb3d00}.v{fill:#f98f33}.w{fill:#fd9d12}.x{fill:#f3ed83}.y{fill:#193c61}.z{fill:#fbb93c}.aa{fill:#0f4665}.ab{fill:#f7de4f}.ac{fill:#205d70}.ad{fill:#fded89}.ae{fill:#4395ac}.af{fill:#fdfef9}.ag{fill:#fc3500}.ah{fill:#2f8ca8}.aj{fill:#f35e0d}.ak{fill:#11314a}.am{fill:#2c7dab}.an{fill:#faeb92}.ao{fill:#e94900}.ap{fill:#2f8fc8}.aq{fill:#2f85ab}.ar{fill:#26608f}.as{fill:#0e2234}.au{fill:#072037}.av{fill:#f85111}.aw{fill:#f17114}.ax{fill:#0a3646}.ay{fill:#fa5924}.az{fill:#e3d3c0}.ba{fill:#ff4c03}.bb{fill:#185170}.bc{fill:#f1ece7}.bd{fill:#fa6713}.be{fill:#1f5979}.bf{fill:#f4ea9a}.bg{fill:#e83701}.bj{fill:#ff4e01}.bk{fill:#266e88}.bl{fill:#0e426a}</style></defs><path d="m158.02 73.35-33.25-57.66a13.33 13.33 0 0 0-11.53-6.65h-66.5a13.3 13.3 0 0 0-11.51 6.65L1.98 73.35a13.35 13.35 0 0 0 0 13.31l33.25 57.66a13.27 13.27 0 0 0 11.51 6.65h66.51a13.3 13.3 0 0 0 11.51-6.65l33.25-57.66a13.3 13.3 0 0 0 .02-13.31Z" fill="url(#e)"/><text transform="translate(40.81 84.92)" style="font-variation-settings:&quot;wght&quot;400,&quot;opsz&quot;10" font-family="SegoeUIVariable,&quot;Segoe UI Variable&quot;" font-size="18" fill="#fff"><tspan x="0" y="0">Siam </tspan><tspan x="43.51" y="0" letter-spacing="-.04em">P</tspan><tspan x="52.93" y="0">ool</tspan></text><path d="M142.51 101.28V58.23c0-7.01-3.65-13.52-9.63-17.17L90.51 15.14a20.1 20.1 0 0 0-21.01 0L27.13 41.06a20.13 20.13 0 0 0-9.63 17.17v43.99c0 7.07 3.71 13.62 9.76 17.26l42.37 25.47a20.11 20.11 0 0 0 20.74 0l41.57-24.98a21.79 21.79 0 0 0 10.57-18.68Z" fill="#00101d"/><path class="ap" d="M80.02 112.32s4.69-.05 7.84-1.06c0 0 .35.57.14 2.22 0 0-5.78-.57-8-.14 0 0-.05-1.06.03-1.03Z"/><path class="h" d="M79.99 114s9.41-1.19 11.5 3.8 4.45 6.29 7.35 6.24 3.77-1.27 3.77-1.27.11 4.66-4.69 7.16c0 0-5.1-2.74-6.81-7.59s-7.7-6.89-11.17-6.78c0 0 .01-1.59.05-1.55Z"/><path class="ba" d="M79.99 118.67a9.11 9.11 0 1 0 0 18.22 9.11 9.11 0 0 0 0-18.22Zm0 15.18a6.07 6.07 0 1 1 0-12.15 6.07 6.07 0 0 1 0 12.15Z"/><circle class="ba" cx="80" cy="127.71" r="2.49"/><path class="ak" d="M80 141.25v4.12l13.4-8.24-2.66-2.06s-4.76 4.88-10.74 6.18Z"/><path class="ba" d="M95.47 132.03s-3.13-1.97-4.98-4.37v.11c0 1.12-.18 2.19-.5 3.2.86.55 2.5 1.52 3.81 1.92 0 0 .94-.51 1.66-.87Z"/><path class="am" d="M94.97 134.92v3.62l8.32-4.92s8.89-6.15 5.35-16.49c0 0-1.23.58-1.37 3.47-.14 2.89 0 9.91-12.29 14.32Z"/><path class="af" d="M79.99 109.21a.97.97 0 0 1-.06-1.94c.09 0 8.85-.6 13.5-3.54a.97.97 0 0 1 1.04 1.64c-5.07 3.2-14.03 3.81-14.41 3.84H80Z"/><path class="bc" d="M105.07 111.84a9.46 9.46 0 0 0-.24-1.79c-.07 1.45-1.48 4.66-1.48 4.66v.04c-.91 1.91-2.39 3.42-4.64 3.17-1.23-.11-2.57-.3-2.92-1.55-.28-1.17.32-2.77.88-3.89l.07-.17-2.26-1.18-.06.09c-1.51 2.69-2.16 6.94 1.31 8.39 1.15.47 2.2.51 3.28.48a5.73 5.73 0 0 0 5.16-3.59l.05-.09c.73-1.47.89-3.05.86-4.26.02-.12.03-.24-.01-.31Z"/><path class="bk" d="M96.7 109.83s1.63 1.16 3.36.61 2.35-2.57 3.47-2.02l1.12.54s.94 4.45-.25 7.12-2.68 3.33-2.68 3.33 2.17-.04 3.76-2.68 2.96-5.68 2.13-9.62c-.83-3.94-4.84-3.22-4.84-3.22s-2.49.22-3.62 3.33a4.04 4.04 0 0 1-2.29 2.53l-.17.07Z"/><path class="ay" d="M117.45 109.25s.25 2.21-.36 3.9c0 0 3.58-1.27 4.77-3.15v-3.8s-1.74 2.68-4.41 3.04Z"/><path class="j" d="M116.91 106.76s-.22-1.45-.54-2.31c0 0 2.93-1.3 4.23-3.47l.14 2.96s-2.64 2.57-3.83 2.82Z"/><path class="i" d="M115.5 102.35s2.02-.83 2.28-1.63l-.54-7.7s-1.45 1.81-1.88 3.83c-.43 2.02.14 5.5.14 5.5Z"/><path class="ac" d="M105.7 94.47s2.6 1.77 7.41.51c0 0-.04 2.31-.72 2.89 0 0-3.76-1.84-7.01-1.99 0 0-.51-.8.33-1.41Z"/><path class="be" d="M111.63 101.59c-1.54-1.86-3.92-3.31-6.43-3.16a8.13 8.13 0 0 0-5.74 2.97c-1.38-1.7-3.78-2.31-5.88-2.08l.02.28a6.58 6.58 0 0 1 4.53 1.47c.52.44.93 1.04 1.18 1.67l.43-.39c2.5-1.66 5.41-2.57 7.99-1.04a8.74 8.74 0 0 1 3.62 4.14c1.06 2.84-.23 5.96-1.81 8.41l.19.2a9.67 9.67 0 0 0 3.73-5.6 7.83 7.83 0 0 0-1.84-6.86Z"/><path class="y" d="M133.36 100.2s.71 14.32-.38 16.11l4.12-2.55v-11.55s-1.52-2.06-3.74-2.01Z"/><path class="ba" d="M124.91 100.64v11.67s-.48 3.56-7.13 4.73c0 0 .64 6.12-.27 7.98 0 0 12.71-6.92 12.66-11.17v-16.8s3.17-1.86 7.21 1.53v-6.89a14.73 14.73 0 0 1-6.26 2.87c-3.57.73-5.41 3.93-6.21 6.08Z"/><path class="ab" d="M131.86 92.55c-3.08 1.35-6.7 2-7.24 6.86v1.22c.8-2.14 2.64-5.35 6.21-6.08a14.61 14.61 0 0 0 6.26-2.87v-5.39s-2.16 4.91-5.24 6.26Z"/><path class="ao" d="M103.37 89.49s.33-.84 1.57-.22 4.61 2.17 8.76-1.6c0 0 2.06-2.17 2.77-4.18 0 0 .73 3.99-.98 6.4 0 0-2.49 4.23-8.95 2.22 0 0-2.77-.71-3.17-2.63Z"/><path class="ba" d="M119.92 85.8v3.09s1.71-.79 1.98-1.98-.14-3.28-.14-3.28-.81 1.79-1.84 2.17Z"/><path class="ba" d="m129.22 72.07-.43-.89c.11 1.18.05 3.02-1.19 3.86-1.6 1.08-3.84 1.94-4.91 4.45v9.01s-2.16 2.05-2.77 1.97v3.51s5.23-2.52 5.82-5.1v-9.24s.67-.65 1.46-1.3c.78-.65 3.51-2.1 2.02-6.29Z"/><path class="q" d="M135.78 67.53c-1.2-2.42-7.27-5.92-7.27-5.92v4.96s3.25 1.93 3.66 5.69c.41 3.77.16 5.1.16 5.1s3.63-1.33 4.34-5.15a6.2 6.2 0 0 0-.89-4.69Z"/><path class="x" d="M80.03 98.89s.89.46 2.09-1.74 3.61-2.93 4.96-2.55c0 0-.11-2.39-2.58-3.04-2.47-.65-4.5 2.47-4.5 2.47l.03 4.85Z"/><path class="bf" d="M84.34 91.55s.6-1.33-1.95-4.07S80 84.74 80 84.74v9.3s1.79-2.9 4.34-2.49Z"/><path class="aw" d="M79.97 92.31s2.21-3.25 3.95-2.82c0 0 .63 1.22.41 2.06 0 0-2.21-.68-4.33 2.63l-.03-1.87Z"/><path class="k" d="M80.03 95.8s2.86-3.77 6.87-1.98l.19.84s-1.5-.38-3.08.6-2.02 2.25-2.02 2.25-.87 1.65-1.99 1.44l.03-3.15Z"/><path class="m" d="M84.26 84.41s1.34-.25 3.76-4.37 9.36-5.46 12.73-2.31c3.36 3.15 5.64 2.64 7.38 1.19s-.07-2.24-.07-2.24-1.84 1.41-3.54.36c-1.7-1.05-2.31-2.78-2.31-2.78s-.9-2.78-6.44-2.42-9.29 4.59-9.29 4.59-3.43 3.62-2.21 7.99Z"/><path class="ae" d="M96.62 71.65s2.89.14 4.19 1.12 1.05.76 1.05.76 5.53 3 9.33-.94c0 0 .87-1.16-.58-2.6 0 0-2.86 2.17-6.36 1.41-3.51-.76-4.41-2.68-4.41-2.68s-3.76.22-3.22 2.93Z"/><path class="n" d="M81.95 67.56h12.4l-.04 1.74s-4.63.36-7.16 2.49c0 0-4.37-4.09-5.21-4.23Z"/><path class="ax" d="M120.45 54.84s2.24 1.41 2.35 1.81.04 8.24.04 8.24 1.41-.07 1.99.94-.83-3.76.9-5.31 2.17-2.35 2.02-3.87l-4.92-3.43s-1.84 1.66-2.39 1.63Z"/><path class="am" d="M121.58 43.67v4.52l7.81 4.91 4.27-2.38-11.97-7.81-.11.76z"/><path class="y" d="M129.34 53.02v5.14l4.44 2.84V50.56l-4.44 2.46z"/><path class="u" d="m103.44 63.52 3.51 3.51 2.71-1.41h3.36l2.89 3.07s1.77-1.19 2.89-.76v-1.95l-2.68-2.71s-2.28 2.93-6.94.51c0 0-1.95-1.27-2.6-2.71 0 0-1.88 2.31-3.15 2.46Z"/><path class="ag" d="M99.7 61.21s-2.39.8-5.04-2.21c0 0-1.96 2.53-4.57 2.57S84.83 59 84.83 59s-2.02 2.57-4.83 2.36v3.43l.11.07 2.76-1.74h9.4l2.58 2.21 2.1-1.23s4.1-.29 6.06.47l-3.3-3.36Z"/><path class="av" d="M116.33 56.47s2.13.9 2.49.9c0 0 .18 2.35 0 2.93s-1.16 1.34-1.16 1.23-1.34-1.95-1.34-5.06Z"/><path class="bj" d="M81.99 47.47c.02.49.03.95-.01 1.15 0 0 12.87.47 14.93.9 0 0 .1-.61.09-1.31-3.03-.64-12.37-.74-15.01-.75ZM100.28 48.49l.04 1.58s5.17.9 5.68.51c.2-.16.06-.63-.19-1.14-1.56-.38-4.5-.81-5.52-.95Z"/><path class="p" d="M96.66 46.6s-8.21-.98-14.79-.87c0 0 .08.92.12 1.74 2.64.01 11.98.11 15.01.75a3.2 3.2 0 0 0-.34-1.62ZM104.83 47.82c-.69-.47-4.66-.9-4.66-.9.05.15.09.86.11 1.57 1.02.14 3.97.56 5.52.95-.37-.76-.97-1.61-.97-1.61Z"/><path class="an" d="M91.92 39.65s-10.81-.47-11.97-.43l.04 2.14c1.96.02 10.45.12 13.4.6.02-.35-.78-1.77-1.48-2.31ZM98.76 40.41s-3.94-.54-5.42-.61c0 0 .83 1.15 1.17 2.27a53 53 0 0 1 5.66.73 5.16 5.16 0 0 0-1.4-2.39Z"/><path class="bd" d="m80 41.36.03 1.37s11.17.11 11.82.33c0 0 1.16-1.01 1.48-1.01.04 0 .06-.03.07-.08-2.95-.48-11.44-.59-13.4-.6ZM94.5 42.07c.12.41.18.82.1 1.16 0 0 4.74.47 5.82.76 0 0-.06-.52-.26-1.19a50.53 50.53 0 0 0-5.66-.73Z"/><path class="au" d="m102.93 39.69.07.12v4.28l3.05 1.18v-3.82l-3.12-1.75Z"/><path class="y" d="m106.06 38.64-6.18-3.96c.05-.05.05 2.49.05 2.49 1.58.42 2.68 2.02 2.96 2.48l3.17 1.78v-2.79Z"/><path class="v" d="m94.37 36.58 2.28-1.52s1.46 1.25 1.63 2.22c0 0-3.42-.05-3.9-.71Z"/><path class="ba" d="M80 33.94v2.16c.49-.33 10.36.16 10.36.16.06-.45.41-1.18.75-1.79-2.46-.31-9.09-.48-11.11-.53Z"/><path class="l" d="M91.71 33.43c-1.3-.49-11.71-.54-11.71-.54v1.04c2.02.05 8.64.22 11.11.53.31-.57.61-1.03.61-1.03Z"/><path class="ah" d="M99.96 34.65v-7.71l15.24 9.74v16.14l-4.43-1.84V37.21l-6.38-3.97v3.09l1.94 1.31v1.14l-6.37-4.13z"/><path class="z" d="M80 25.15v-3.9l9.53 6.67h-5.88L80 25.15z"/><path class="am" d="M80 17.6v-2.97L95.8 24.8v5.21l-3.05-1.77v-2.02L80 17.6z"/><path class="bl" d="M92.75 28.22v3.7s2.5.87 3.05 1.47v-3.38l-3.05-1.8Z"/><path class="t" d="M85.35 54.81s.22-2.24-.72-2.24L80 52.46v3.08h1.92c.11-.21.22-.46.32-.73h3.11ZM91.64 52.96s-2.89-.43-4.59-.11c0 0 .63 1.4.47 2.83l3.76.12c.21-.33.36-.72.36-1.15v-1.7ZM96.01 53.32c-.51.11-.51 2.35-.51 2.35-.83-.33-.43-2.46-.43-2.46-.36-.18-1.91-.39-1.95-.18-.34 1.68 1.18 2.53 1.87 2.96 1.52.09 3.08.19 4.65.32.37-1.13.39-2.56.39-2.56-.9-.25-4.01-.43-4.01-.43ZM110.58 55.31c-1.63-.76-8.79-1.45-8.79-1.45a5.3 5.3 0 0 0-.24 2.62c2.89.28 5.75.64 8.35 1.12 1-.43.67-2.29.67-2.29ZM114.81 56.43c-.72-1.08-1.63-.43-2.49-.8 0 0 .3 1.24.16 2.49.91.21 1.77.44 2.57.68a2.9 2.9 0 0 0-.23-2.38Z"/><path class="bg" d="M80 55.61v1.51s.99.32 1.92-1.51H80ZM87.04 57.03h3.07s.63-.42 1.05-1.09l-3.76-.12c-.05.41-.15.83-.36 1.21ZM95.25 56.18c.4.36.11 1.41.11 1.41s1.74.29 3.18.04c.53-.09.88-.65 1.09-1.31a155.9 155.9 0 0 0-4.65-.32c.11.07.21.13.26.18ZM102.16 58.09c.69.94 2.6.04 3.54-.4.94-.43 2.86.25 4.05-.04.06-.01.11-.04.16-.06-2.6-.47-5.46-.84-8.35-1.12.1.63.31 1.21.6 1.61ZM112.47 58.13c-.09.8-.35 1.6-.99 2.1 0 0 .8.87 2.28.14a2.57 2.57 0 0 0 1.28-1.56c-.8-.25-1.66-.47-2.57-.68Z"/><path class="bb" d="M133.78 80.69c-.11.01-.21.03-.33.03-2.39.11-3.47 1.14-3.47 1.14-.07.02-.08 1.36-.07 2.89.75-.29 2.27-.97 3.87-1.88v-2.18Z"/><path class="ar" d="M137.1 80.52v-2.18s-1.2 2.06-3.33 2.34v2.12a21.1 21.1 0 0 0 3.33-2.29Z"/><path class="aa" d="M133.78 82.89v3.75c1.37-1.11 2.74-2.5 3.33-3.94v-2.1c-.97.84-2.17 1.63-3.33 2.29Z"/><path class="as" d="M129.91 84.75c.01 2.09.07 4.54.07 4.54s1.9-1.03 3.8-2.57v-3.86c-1.6.91-3.12 1.59-3.87 1.88Z"/><path class="r" d="M96.69 83.67a7.01 7.01 0 1 0 0 14.02 7.01 7.01 0 0 0 0-14.02Zm0 12.46a5.45 5.45 0 1 1 0-10.9 5.45 5.45 0 0 1 0 10.9Z"/><path class="y" d="M116.59 46.21v7.11s3.22-2.37 4.99-2.84v-7.57s-2.22 1.98-4.99 3.3Z"/><path class="r" d="M121.67 42.89c4 2.32 8.13 5.14 12.03 7.76l.12.07-.12.07c-1.45.82-2.87 1.7-4.31 2.54a193.51 193.51 0 0 1-7.78-4.81l-.11-.07c0-1.91.13-3.83.17-5.57Zm.02.04c.07 1.91.21 3.67.25 5.4l-.1-.19a195.6 195.6 0 0 1 7.65 4.79h-.2c1.44-.77 2.89-1.51 4.32-2.29-3.8-1.97-8-5.03-11.91-7.71ZM135.92 67.53c-1.73-2.64-4.71-4.19-7.37-5.76l.27-.16.14 4.96-.16-.28a8.87 8.87 0 0 1 2.31 2.13c1.97 2.52 1.81 5.95 1.6 8.99l-.34-.29c3.76-1.27 5.87-6.15 3.54-9.6Zm0 0c2.51 3.64.27 8.82-3.74 10.25.17-2.05 0-4.34-.39-6.35a8.11 8.11 0 0 0-3.46-4.69v-.17l.14-4.96v-.32c2.66 1.8 5.69 3.49 7.46 6.24ZM99.82 34.65l-.09-7.8v-.17l.14.09c5.24 3.26 10.44 6.59 15.66 9.89l.06 16.22v.37l-.34-.14-4.7-1.98-.14-.06v-.15l.06-13.71.08.14-6.36-3.99.21-.12v3.09l-.07-.11 1.93 1.33c.05.03.05.03.05.09l-.01 1.13c0 .21.03.18-.14.08l-6.33-4.2Zm0 0 6.42 4.05-.14.08v-1.13l.03.09-1.95-1.29-.06-.04v-.07l-.01-3.09V33l.21.13 6.39 3.94.08.05v.1l.06 13.71-.14-.21 4.72 1.94-.34.23.06-16.12c-4.53-2.62-10.42-6.7-15.38-9.84l.14-.08-.09 7.8ZM80.14 25.02c-.04-1.36-.12-2.76-.14-4.17 3.3 2.2 6.58 4.44 9.8 6.74l.59.43c-2.22 0-4.44-.03-6.66-.08-1.24-.96-2.41-1.97-3.59-2.92Zm0 0c1.26.9 2.53 1.75 3.74 2.64 1.45-.14 3.98-.07 5.79-.11l-.13.42a352.6 352.6 0 0 1-9.47-6.75l.22-.11-.14 3.9Z"/><path class="ba" d="M80 25.15v4.12s7.72.27 8.7.49l.99-1.84h-6.02L80 25.15Z"/><path class="r" d="M80.05 29.28c2.08 0 4.39.1 6.48.19.72.04 1.43.06 2.17.17l-.14.06 1-1.83.09.15c-2.01-.02-4.03-.03-6.04-.1 2.01-.08 4.03-.08 6.04-.1.08 0 .13.08.09.15l-.96 1.85c-.02.05-.08.07-.13.06-2.8-.35-5.79-.38-8.6-.61Z"/><path class="g" d="M80 21.12v3.9l3.72 2.82s-1.36-4.5-3.72-6.73Z"/><path class="r" d="M96.62 71.65c1.66.09 3.45.29 4.78 1.39l.54.38H101.84c-.15.05-.08.25-.08.21.01.01 0 0 0 0l.16-.23c2.88 1.44 6.86 1.47 9.07-.96.47-.76.05-1.7-.56-2.29l.32.02c-3.29 2.38-8.68 2.15-11.04-1.41l.13.08c-1.55.05-3.62.92-3.23 2.8Zm0 0c-.5-1.94 1.66-2.97 3.29-3.07 2.27 3.3 7.48 3.48 10.56 1.21l.18-.12.15.14c.77.7 1.25 1.96.6 2.92a6.96 6.96 0 0 1-2.14 1.5c-2.39 1.07-5.18.57-7.45-.58l.16-.23.03.03.01.02c0-.03.07.17-.08.22h-.1l-.03-.02c-.16-.1-.4-.3-.55-.41-1.25-1.13-2.99-1.43-4.62-1.61Z"/><path class="aq" d="M114.02 73.17c-2.84 2.81-1.71 4.65-2.51 6.52-.92 1.42-4.11 3.81-7.39 3.39-.83-.21-1.73-.57-2.72-1.12 0 0-.27-.24-.76-.57-4.33-3.26-8.31-.95-8.31-.95h.03c-2.92 1.45-4.66 4.84-4.66 4.84s-1.95 3.07-3.54 3.07c0 0-.43 1.01.36 1.74s3.04-1.99 4.01-3.83c.98-1.84 4.84-5.42 9-4.66 4.16.76 6.54 4.3 9 4.66 2.46.36 5.67-1.49 8.06-4.66 2.17-2.87 1.53-4.2 1.88-5.71.61-2.64 2.02-4.7 4.16-5.46 0 0-3.15-.69-6.62 2.75Z"/><path class="r" d="M120.53 70.91c-3.08.04-6.4 2.61-7.35 5.49-.31 1.19-.11 2.45-.67 3.74a9.33 9.33 0 0 1-8.52 3.95 11.05 11.05 0 0 1-3.04-1.31c-2.21-2.04-5.48-3.18-8.37-1.91l-.2-.93c.51 0 .65.73.21.94a8.95 8.95 0 0 0-2.54 1.98c-1.65 1.74-2.44 4.14-4.5 5.5-.42.29-1.75.95-1.9 0 0-.28.23-.51.51-.51.61-.03 1.23-.59 1.68-1.04 2.09-2.32 3.18-5.36 6.3-6.82l.17.95a.5.5 0 0 1-.23-.93 8.11 8.11 0 0 1 7.71-.17c.81.39 1.48.89 2.25 1.43l-.18-.13c.82.42 1.68.75 2.52.95l-.12-.02c2.3.21 4.95-1.14 6.33-2.97l-.09.16c.4-.99.25-2.29.63-3.43 1.37-3.77 5.6-6.64 9.62-5.88.6.17.42 1.07-.21.98Z"/><path class="r" d="M102.19 74.25c-3.9-4.21-13.48.14-16.15 4.23a9.18 9.18 0 0 0-1.78 5.93c-3.15-7.09 5.42-13.98 12.14-13.46 2.19.09 5.19.91 5.79 3.3ZM111.63 101.59c-3.34-3.58-8.62-3.7-11.8.12a.5.5 0 0 1-.69.06c-1.26-1.57-3.43-2.25-5.53-2.12l.29-.35v.28l-.32-.3c1.67.02 3.41.58 4.54 1.78a6.98 6.98 0 0 0-4.53-1.15c-.33.02-.34-.34-.35-.58a.3.3 0 0 1 .27-.34c2.26-.36 4.81.25 6.33 2.09h-.76a7.67 7.67 0 0 1 12.55.51Z"/><path class="w" d="m125.23 72.72-.26.17c-1.82 1.11-4.45 2.3-4.77 4.88v5.72s2-2.45 2.56-3.83c-.15-.51-.75-3.29 2.48-6.95Z"/><path class="ad" d="m128.82 71.15-.74-1.55s-1.3 1.96-2.99 3.11c-3.22 3.66-2.63 6.44-2.48 6.95l.07-.19v.03c1.08-2.53 3.33-3.39 4.94-4.48 1.25-.85 1.31-2.69 1.2-3.88Z"/><path class="l" d="M103.37 89.49c.48-1.12 1.82-.24 2.62-.03 1.75.54 3.61.32 5.21-.52 1.2-.64 2.22-1.4 3.08-2.41.82-.94 1.6-1.9 2.19-3.03a9.76 9.76 0 0 1-1.7 3.41c-.26.35-.52.7-.82 1.03-.33.28-.76.7-1.12.94-1.94 1.53-4.72 2.12-7.01 1.05-.76-.25-1.75-1.34-2.45-.45Z"/><path class="r" d="m129.06 72.07-.43-.88.07-.02c.12 1.33.06 2.97-1.07 3.88-1.8 1.15-4.15 2.66-4.85 4.43-.02 3.02-.09 6.08-.16 9.07-.9.72-1.67 1.74-2.84 2l.1-.09.06 3.51-.21-.13a17.43 17.43 0 0 0 4.72-3.43c.4-.39.86-1.24.92-1.54-.02-3.08-.02-6.16.03-9.24v-.1l.07-.05c2.73-2.29 5-3.33 3.61-7.41Zm.04-.01c1.46 3.98-.66 5.37-3.35 7.75l.07-.16c.04 1.54.03 3.08.04 4.62 0 1.56.02 3.12-.02 4.68-.97 2.7-3.85 4.03-6.22 5.28l.06-3.84c1.04-.1 2.14-1.46 2.78-1.88 0-3.02-.14-6.04-.14-9.05.86-2.31 3.19-3.39 5.15-4.57 1.19-.87 1.24-2.53 1.12-3.89l.5 1.06Z"/><path class="r" d="m128.96 71.15-.8-1.51h.12c-.73 1.18-1.9 2.5-2.91 3.2-1.55 1.86-2.93 4.28-2.39 6.76l-.46-.02.07-.17.48-1.21v1.32l-.46-.09c.91-2.28 3.19-3.38 5.16-4.57 1.12-.83 1.24-2.38 1.2-3.69Zm0 0c.66 4.11-1.94 4.12-4.39 6.29-.97.83-1.52 2.07-1.98 3.23v-1.19l.47.07-.34.91c-1.03-2.86.47-5.79 2.38-7.87a13.56 13.56 0 0 0 3.15-3.13l.05.11.67 1.58Z"/><path class="r" d="M125.09 72.72c-1.89 1.3-4.57 2.6-4.82 5.05l.04 5.72-.44-.16c1.18-1.37 1.86-2.56 2.54-3.61-.58-2.63.94-5.16 2.68-7.01Zm0 0c-1.52 1.9-2.91 4.5-2.25 6.97-.75 1.69-1.91 3.09-3.04 4.52l.04-6.44c.35-2.72 3.16-3.87 5.25-5.05Z"/><path class="af" d="M97.89 105.05a2.68 2.68 0 0 0-4.59-1.88l-.21.23c-.94 1.16-.87 2.82-.87 2.82-.72 2.6-1.88 4.77-1.88 4.77s3.65-.54 6.8-4.01l-.03-.02c.49-.49.79-1.16.79-1.9Z"/><path class="az" d="M91.44 109.96s3.74-1.63 5.04-4.01c0 0-.92 3.31-5.04 4.01Z"/><path class="r" d="M133.69 80.7c-.57.14-1.39.24-1.98.36-.61.04-1.57.63-1.74.87-.03.38-.02.99-.03 1.37-.05.47 0 1.03-.14 1.45-.12-.95-.18-1.92-.04-2.87 0-.05.05-.1.09-.11l-.04.02c1.14-.72 2.55-1.29 3.87-1.08Z"/><path class="r" d="M137.09 80.59a8.86 8.86 0 0 1-.04-2.3l.09.02c-.42.59-.83 1.2-1.42 1.65a3.4 3.4 0 0 1-2.04.74c1.28-.47 2.62-1.22 3.37-2.44l.07-.13c.09.8.15 1.71-.04 2.46ZM133.68 86.72c1.23-1.26 2.72-2.36 3.3-4.09-.01-.42 0-1.49.13-2.04.08.71.14 1.43.11 2.14-.34.86-.99 1.52-1.55 2.2a6.27 6.27 0 0 1-1.99 1.79Z"/><path class="r" d="M129.83 84.75c.24 1.51.01 3.03.12 4.54l-.1-.06c1.28-.82 2.54-1.68 3.82-2.52l.02.02a14.58 14.58 0 0 1-3.88 2.67c.11-1.54-.25-3.17.02-4.66Z"/><path class="ba" d="M114.7 116.56s-.72-1.45-.72-.58c0 0 .2 1.85.27 4.06-.01 2.89-.49 6.55-2.62 8.25 0 0 .62.05 1.47-.42a4.88 4.88 0 0 0 2.55-2.96c.18-.44.28-.89.33-1.35.4-2.41-.01-5.32-1.28-7Z"/><path class="ad" d="M111.63 128.26c.56-.05 1.01-.39 1.5-.57.1-.05.39-.24.52-.36a5.3 5.3 0 0 0 2.13-3.14c.36-2.57-.04-5.4-1.06-7.65 2.25 2.49 1.9 6.31.71 9.22a4.14 4.14 0 0 1-1.86 2.14c-.14.06-.22.17-.51.15l.12-.02c-.25.19-1.64.45-1.55.23Z"/><path class="az" d="M102.82 90.7c1.31 6.24-7.15 9.71-11.11 4.92a5.55 5.55 0 0 1-1.26-4.92 6.3 6.3 0 0 0 12.37 0Z"/><path class="r" d="M91.49 117.8c2.09 3.95 4.7 6.85 9.54 5.71a3.5 3.5 0 0 0 1.58-.75c-1.64 1.91-4.78 1.98-6.98.98-2.27-1.2-3.46-3.6-4.14-5.94ZM107.62 107.12a4.67 4.67 0 0 0-4.76-2.23c-1.46.17-2.7 1.26-3.7 2.34-.22-2.07 1.76-4.11 3.44-4.3 2.55-.57 5.59 1.41 5.02 4.19Z"/><path class="bf" d="M87.99 99.22c1.85 1.11 2.96.4 3.21-.59-.18-.42-.4-.76-.6-.97a2.95 2.95 0 0 0-3.58-.63 10.9 10.9 0 0 0-2.65 1.88 3.9 3.9 0 0 1 3.61.3Z"/><path class="aj" d="M91.24 98.63c-.25.99-1.36 1.7-3.21.59a3.87 3.87 0 0 0-3.61-.3c-.3.28-.58.57-.86.87-.94.99-2.01 2.02-3.55 1.77v2.59s2.52.4 3.91-1.19c1.39-1.59 3.45-3.07 4.39-2.49s-.36 1.95-1.36 2.51c0 0 1.79.72 3.58-.8 1.27-1.07 1.13-2.53.71-3.53Z"/><path class="ap" d="M79.97 112.32s-4.69-.05-7.84-1.06c0 0-.35.57-.14 2.22 0 0 5.78-.57 8-.14 0 0 .05-1.06-.03-1.03Z"/><path class="h" d="M79.99 114s-9.41-1.19-11.5 3.8-4.45 6.29-7.35 6.24c-2.9-.05-3.77-1.27-3.77-1.27s-.11 4.66 4.69 7.16c0 0 5.1-2.74 6.81-7.59s7.7-6.89 11.17-6.78c0 0-.01-1.59-.05-1.55Z"/><path class="ba" d="M70.88 127.78a9.11 9.11 0 1 0 18.22 0 9.11 9.11 0 0 0-18.22 0Zm3.04 0a6.07 6.07 0 1 1 12.15 0 6.07 6.07 0 0 1-12.15 0Z"/><circle class="ba" cx="80" cy="127.71" r="2.49"/><path class="ak" d="M80 141.25v4.12l-13.34-8.24 2.65-2.06s4.74 4.88 10.7 6.18Z"/><path class="ba" d="M64.52 132.03s3.13-1.97 4.98-4.37v.11c0 1.12.18 2.19.5 3.2-.86.55-2.5 1.52-3.81 1.92 0 0-.94-.51-1.66-.87Z"/><path class="am" d="M65.03 134.92v3.62l-8.32-4.92s-8.89-6.15-5.35-16.49c0 0 1.23.58 1.37 3.47.14 2.89 0 9.91 12.29 14.32Z"/><path class="af" d="M79.99 109.21a.97.97 0 0 0 .06-1.94c-.09 0-8.85-.6-13.5-3.54a.97.97 0 0 0-1.04 1.64c5.07 3.2 14.03 3.81 14.41 3.84h.06Z"/><path class="bc" d="M54.92 111.84c.05-1.07.24-1.79.24-1.79.07 1.45 1.48 4.66 1.48 4.66v.04c.91 1.91 2.39 3.42 4.64 3.17 1.23-.11 2.57-.3 2.92-1.55.28-1.17-.32-2.77-.88-3.89a1.22 1.22 0 0 1-.07-.17l2.26-1.18.06.09c1.51 2.69 2.16 6.94-1.31 8.39-1.15.47-2.2.51-3.28.48a5.73 5.73 0 0 1-5.16-3.59l-.05-.09a9.16 9.16 0 0 1-.86-4.26c-.02-.12-.03-.24.01-.31Z"/><path class="bk" d="M63.29 109.83s-1.63 1.16-3.36.61-2.35-2.57-3.47-2.02l-1.12.54s-.94 4.45.25 7.12 2.68 3.33 2.68 3.33-2.17-.04-3.76-2.68c-1.59-2.64-2.96-5.68-2.13-9.62.83-3.94 4.84-3.22 4.84-3.22s2.49.22 3.62 3.33a4.04 4.04 0 0 0 2.29 2.53l.17.07Z"/><path class="ay" d="M42.55 109.25s-.25 2.21.36 3.9c0 0-3.58-1.27-4.77-3.15v-3.8s1.74 2.68 4.41 3.04Z"/><path class="j" d="M43.08 106.76s.22-1.45.54-2.31c0 0-2.93-1.3-4.23-3.47l-.14 2.96s2.64 2.57 3.83 2.82Z"/><path class="i" d="M44.49 102.35s-2.02-.83-2.28-1.63l.54-7.7s1.45 1.81 1.88 3.83c.43 2.02-.14 5.5-.14 5.5Z"/><path class="ac" d="M54.29 94.47s-2.6 1.77-7.41.51c0 0 .04 2.31.72 2.89 0 0 3.76-1.84 7.01-1.99 0 0 .51-.8-.33-1.41Z"/><path class="be" d="M48.35 101.59c1.54-1.86 3.92-3.31 6.43-3.16a8.13 8.13 0 0 1 5.74 2.97c1.38-1.7 3.78-2.31 5.88-2.08l-.02.28a6.58 6.58 0 0 0-4.53 1.47 4.28 4.28 0 0 0-1.18 1.67l-.43-.39c-2.5-1.66-5.41-2.57-7.99-1.04a8.74 8.74 0 0 0-3.62 4.14c-1.06 2.84.23 5.96 1.81 8.41l-.19.2a9.67 9.67 0 0 1-3.73-5.6 7.83 7.83 0 0 1 1.84-6.86Z"/><path class="y" d="M26.64 100.2s-.71 14.32.38 16.11l-4.12-2.55v-11.55s1.52-2.06 3.74-2.01Z"/><path class="ba" d="M35.09 100.64v11.67s.48 3.56 7.13 4.73c0 0-.64 6.12.27 7.98 0 0-12.71-6.92-12.66-11.17v-16.8s-3.17-1.86-7.21 1.53v-6.89c1.16.93 3.24 2.25 6.26 2.87 3.57.73 5.41 3.93 6.21 6.08Z"/><path class="ab" d="M27.86 92.55c3.08 1.35 6.7 2 7.24 6.86v1.22c-.8-2.14-2.64-5.35-6.21-6.08a14.61 14.61 0 0 1-6.26-2.87v-5.39s2.16 4.91 5.24 6.26Z"/><path class="ao" d="M56.62 89.49s-.33-.84-1.57-.22-4.61 2.17-8.76-1.6c0 0-2.06-2.17-2.77-4.18 0 0-.73 3.99.98 6.4 0 0 2.49 4.23 8.95 2.22 0 0 2.77-.71 3.17-2.63Z"/><path class="ba" d="M40.08 85.8v3.09s-1.71-.79-1.98-1.98.14-3.28.14-3.28.81 1.79 1.84 2.17Z"/><path class="ba" d="m30.78 72.07.43-.89c-.11 1.18-.05 3.02 1.19 3.86 1.6 1.08 3.84 1.94 4.91 4.45v9.01s2.16 2.05 2.77 1.97v3.51s-5.23-2.52-5.82-5.1v-9.24s-.67-.65-1.46-1.3c-.78-.65-3.51-2.1-2.02-6.29Z"/><path class="q" d="M24.22 67.53c1.2-2.42 7.27-5.92 7.27-5.92v4.96s-3.25 1.93-3.66 5.69c-.41 3.77-.16 5.1-.16 5.1s-3.63-1.33-4.34-5.15a6.2 6.2 0 0 1 .89-4.69Z"/><path class="x" d="M79.97 98.89s-.89.46-2.09-1.74-3.61-2.93-4.96-2.55c0 0 .11-2.39 2.58-3.04s4.5 2.47 4.5 2.47l-.03 4.85Z"/><path class="bf" d="M75.66 91.55s-.6-1.33 1.95-4.07S80 84.74 80 84.74v9.3s-1.79-2.9-4.34-2.49Z"/><path class="aw" d="M80.03 92.31s-2.22-3.25-3.98-2.82c0 0-.63 1.22-.41 2.06 0 0 2.22-.68 4.36 2.63l.03-1.87Z"/><path class="k" d="M79.97 95.8s-2.9-3.77-6.96-1.98l-.19.84s1.52-.38 3.12.6 2.04 2.25 2.04 2.25.88 1.65 2.02 1.44l-.03-3.15Z"/><path class="m" d="M75.73 84.41s-1.34-.25-3.76-4.37-9.36-5.46-12.73-2.31c-3.36 3.15-5.64 2.64-7.38 1.19s.07-2.24.07-2.24 1.84 1.41 3.54.36 2.31-2.78 2.31-2.78.9-2.78 6.44-2.42c5.53.36 9.29 4.59 9.29 4.59s3.43 3.62 2.21 7.99Z"/><path class="ae" d="M63.36 71.65s-2.89.14-4.19 1.12c-1.3.98-1.05.76-1.05.76s-5.53 3-9.33-.94c0 0-.87-1.16.58-2.6 0 0 2.86 2.17 6.36 1.41 3.51-.76 4.41-2.68 4.41-2.68s3.76.22 3.22 2.93Z"/><path class="n" d="M78.04 67.56h-12.4l.04 1.74s4.63.36 7.16 2.49c0 0 4.37-4.09 5.21-4.23Z"/><path class="ax" d="M39.53 54.84s-2.24 1.41-2.35 1.81-.04 8.24-.04 8.24-1.41-.07-1.99.94.83-3.76-.9-5.31-2.17-2.35-2.02-3.87l4.92-3.43s1.84 1.66 2.39 1.63Z"/><path class="am" d="M38.42 43.67v4.52l-7.81 4.91-4.27-2.38 11.97-7.81.11.76z"/><path class="y" d="M30.66 53.02v5.14L26.22 61V50.56l4.44 2.46z"/><path class="u" d="m56.56 63.52-3.51 3.51-2.71-1.41h-3.36l-2.89 3.07s-1.77-1.19-2.89-.76v-1.95l2.68-2.71s2.28 2.93 6.94.51c0 0 1.95-1.27 2.6-2.71 0 0 1.88 2.31 3.15 2.46Z"/><path class="ag" d="M60.3 61.21s2.39.8 5.04-2.21c0 0 1.96 2.53 4.57 2.57S75.17 59 75.17 59s2.02 2.57 4.83 2.36v3.43l-.11.07-2.76-1.74h-9.4l-2.58 2.21-2.1-1.23s-4.1-.29-6.06.47l3.3-3.36Z"/><path class="av" d="M43.66 56.47s-2.13.9-2.49.9c0 0-.18 2.35 0 2.93s1.16 1.34 1.16 1.23 1.34-1.95 1.34-5.06Z"/><path class="bj" d="M77.99 47.47c-.02.49-.03.95.01 1.15 0 0-12.87.47-14.93.9 0 0-.1-.61-.09-1.31 3.03-.64 12.37-.74 15.01-.75ZM59.71 48.49l-.04 1.58s-5.17.9-5.68.51c-.2-.16-.06-.63.19-1.14 1.56-.38 4.5-.81 5.52-.95Z"/><path class="p" d="M63.33 46.6s8.21-.98 14.79-.87c0 0-.08.92-.12 1.74-2.64.01-11.98.11-15.01.75 0-.58.08-1.21.34-1.62ZM55.15 47.82c.69-.47 4.66-.9 4.66-.9-.05.15-.09.86-.11 1.57-1.02.14-3.97.56-5.52.95.37-.76.97-1.61.97-1.61Z"/><path class="an" d="M68.06 39.65s10.81-.47 11.97-.43l-.04 2.14c-1.96.02-10.45.12-13.4.6-.02-.35.78-1.77 1.48-2.31ZM61.23 40.41s3.94-.54 5.42-.61c0 0-.83 1.15-1.17 2.27a53 53 0 0 0-5.66.73c.23-.77.65-1.73 1.4-2.39Z"/><path class="bd" d="m80.07 41.36-.03 1.37s-11.22.11-11.87.33c0 0-1.16-1.01-1.49-1.01-.04 0-.06-.03-.07-.08 2.97-.48 11.49-.59 13.46-.6ZM65.51 42.07c-.12.41-.18.82-.1 1.16 0 0-4.76.47-5.85.76 0 0 .06-.52.26-1.19a51.1 51.1 0 0 1 5.68-.73Z"/><path class="au" d="m57.07 39.69-.07.12v4.28l-3.05 1.18v-3.82l3.12-1.75Z"/><path class="y" d="m53.94 38.64 6.18-3.96c-.05-.05-.05 2.49-.05 2.49-1.58.42-2.68 2.02-2.96 2.48l-3.17 1.78v-2.79Z"/><path class="v" d="m65.62 36.58-2.28-1.52s-1.46 1.25-1.63 2.22c0 0 3.42-.05 3.9-.71Z"/><path class="ba" d="M80 33.94v2.16c-.49-.33-10.36.16-10.36.16a6.37 6.37 0 0 0-.75-1.79c2.46-.31 9.09-.48 11.11-.53Z"/><path class="l" d="M68.29 33.43c1.3-.49 11.71-.54 11.71-.54v1.04c-2.02.05-8.64.22-11.11.53-.31-.57-.61-1.03-.61-1.03Z"/><path class="ah" d="M60.04 34.65v-7.71L44.8 36.68v16.14l4.43-1.84V37.21l6.38-3.97v3.09l-1.94 1.31v1.14l6.37-4.13z"/><path class="z" d="M80 25.15v-3.9l-9.49 6.67h5.86L80 25.15z"/><path class="am" d="M80 17.6v-2.97L64.2 24.8v5.21l3.05-1.77v-2.02L80 17.6z"/><path class="bl" d="M67.25 28.22v3.7s-2.5.87-3.05 1.47v-3.38l3.05-1.8Z"/><path class="t" d="M74.44 54.81s-.23-2.24.75-2.24l4.81-.11v3.08h-1.99a8.52 8.52 0 0 1-.34-.73h-3.23ZM68.36 52.96s2.89-.43 4.59-.11c0 0-.63 1.4-.47 2.83l-3.76.12a2.14 2.14 0 0 1-.36-1.15v-1.7ZM63.98 53.32c.51.11.51 2.35.51 2.35.83-.33.43-2.46.43-2.46.36-.18 1.91-.39 1.95-.18.34 1.68-1.18 2.53-1.87 2.96-1.52.09-3.08.19-4.65.32-.37-1.13-.39-2.56-.39-2.56.9-.25 4.01-.43 4.01-.43ZM49.41 55.31c1.63-.76 8.79-1.45 8.79-1.45.31.81.37 1.77.24 2.62-2.89.28-5.75.64-8.35 1.12-1-.43-.67-2.29-.67-2.29ZM45.17 56.43c.72-1.08 1.63-.43 2.49-.8 0 0-.3 1.24-.16 2.49-.91.21-1.77.44-2.57.68a2.9 2.9 0 0 1 .23-2.38Z"/><path class="bg" d="M80 55.61v1.51s-1.02.32-1.99-1.51H80ZM72.94 57.03h-3.07s-.63-.42-1.05-1.09l3.76-.12c.05.41.15.83.36 1.21ZM64.74 56.18c-.4.36-.11 1.41-.11 1.41s-1.74.29-3.18.04c-.53-.09-.88-.65-1.09-1.31 1.57-.13 3.13-.24 4.65-.32-.11.07-.21.13-.26.18ZM57.83 58.09c-.69.94-2.6.04-3.54-.4-.94-.43-2.86.25-4.05-.04-.06-.01-.11-.04-.16-.06 2.6-.47 5.46-.84 8.35-1.12-.1.63-.31 1.21-.6 1.61ZM47.51 58.13c.09.8.35 1.6.99 2.1 0 0-.8.87-2.28.14a2.57 2.57 0 0 1-1.28-1.56c.8-.25 1.66-.47 2.57-.68Z"/><path class="bb" d="M26.22 80.69c.11.01.21.03.33.03 2.39.11 3.47 1.14 3.47 1.14.07.02.08 1.36.07 2.89-.75-.29-2.27-.97-3.87-1.88v-2.18Z"/><path class="ar" d="M22.9 80.52v-2.18s1.2 2.06 3.33 2.34v2.12a21.1 21.1 0 0 1-3.33-2.29Z"/><path class="aa" d="M26.22 82.89v3.75c-1.37-1.11-2.74-2.5-3.33-3.94v-2.1c.97.84 2.17 1.63 3.33 2.29Z"/><path class="as" d="M30.09 84.75c-.01 2.09-.07 4.54-.07 4.54s-1.9-1.03-3.8-2.57v-3.86c1.6.91 3.12 1.59 3.87 1.88Z"/><path class="r" d="M56.29 90.68a7.01 7.01 0 1 0 14.02 0 7.01 7.01 0 0 0-14.02 0Zm1.56 0a5.45 5.45 0 1 1 10.9 0 5.45 5.45 0 0 1-10.9 0Z"/><path class="y" d="M43.41 46.21v7.11s-3.22-2.37-4.99-2.84v-7.57s2.22 1.98 4.99 3.3Z"/><path class="r" d="M38.31 42.93c-3.91 2.68-8.12 5.75-11.91 7.71 1.43.78 2.88 1.52 4.32 2.29h-.2c2.52-1.65 5.06-3.25 7.65-4.78l-.1.19c.04-1.74.18-3.5.25-5.4Zm.02-.04c.04 1.74.16 3.66.17 5.57l-.11.07a193.51 193.51 0 0 1-7.78 4.81c-1.44-.84-2.86-1.72-4.31-2.54l-.12-.07.12-.07c3.89-2.62 8.03-5.44 12.03-7.76ZM24.08 67.53c1.76-2.75 4.79-4.44 7.45-6.24v.32l.14 4.96v.17l-.16.11a8.02 8.02 0 0 0-3.3 4.58c-.38 2.01-.56 4.3-.39 6.35-4.01-1.42-6.26-6.61-3.74-10.25Zm0 0c-2.33 3.45-.22 8.32 3.54 9.6l-.34.29c-.21-3.03-.37-6.47 1.6-8.99a8.87 8.87 0 0 1 2.31-2.13l-.16.28.14-4.96.27.16c-2.65 1.57-5.63 3.12-7.37 5.76ZM60.18 34.65l-.09-7.8.14.08c-4.95 3.13-10.87 7.22-15.38 9.84l.06 16.06-.34-.23 4.44-1.83-.14.21.06-13.77v-.1l.08-.05 6.39-3.94.21-.13v.25l-.01 3.18c0 .07 0 .07-.06.1l-1.68 1.11.05-.09v1.23l-.15-.08 6.42-4.05Zm0 0-6.33 4.2c-.18.12-.13.12-.14-.08l-.01-1.23v-.05l.05-.03 1.65-1.14-.06.1-.01-3.18.21.12-6.36 3.99c.21-.82.07 13.81.14 13.63v.15l-.14.06-4.43 1.87-.34.14v-.37l.06-16.17c5.22-3.29 10.42-6.62 15.66-9.89l.14-.09v.17l-.09 7.8ZM79.86 25.02l-.14-3.9.22.11c-3.11 2.3-6.25 4.55-9.44 6.75l-.13-.42c1.8.04 4.32-.03 5.77.11 1.2-.89 2.47-1.74 3.73-2.65Zm0 0c-1.2.93-2.35 2.02-3.63 2.92-1.95.05-3.91.07-5.86.08-.22 0-.32-.3-.13-.42 1.57-1.13 3.16-2.23 4.75-3.33 1.58-1.11 3.19-2.19 4.8-3.27.06-.04.15-.03.19.04.04 1.34-.1 2.68-.11 3.98Z"/><path class="ba" d="M80 25.15v4.12s-7.69.27-8.67.49l-.98-1.84h6L80 25.15Z"/><path class="r" d="M79.99 29.28c-2.83.23-5.84.26-8.65.61a.16.16 0 0 1-.13-.06l-.96-1.85c-.04-.07.01-.15.09-.15 2.02.02 4.04.03 6.06.1-2.02.08-4.04.08-6.06.1l.09-.15 1 1.83-.14-.06c.74-.11 1.46-.13 2.18-.17a129 129 0 0 1 6.52-.19Z"/><path class="g" d="M80 21.12v3.9l-3.69 2.82s1.35-4.5 3.69-6.73Z"/><path class="r" d="M63.36 71.65c-1.63.17-3.37.48-4.62 1.61-.16.11-.39.31-.55.41l-.03.02c-.04 0 .03.02-.1 0-.15-.05-.08-.25-.08-.22s.03-.04.03-.04l.16.23c-2.27 1.15-5.06 1.65-7.45.58a6.96 6.96 0 0 1-2.14-1.5c-.66-.96-.17-2.22.6-2.92l.15-.14.18.12c3.07 2.27 8.29 2.09 10.56-1.21 1.62.1 3.79 1.13 3.29 3.07Zm0 0c.39-1.88-1.68-2.75-3.23-2.8l.13-.08c-1.7 2.62-5.35 3.49-8.25 2.7a9.2 9.2 0 0 1-2.79-1.29l.32-.02c-.32.32-.58.7-.7 1.1-.14.35-.01.97.12 1.16a6.42 6.42 0 0 0 4.31 1.97c1.62.09 3.3-.29 4.78-.99l.16.23c.07-.07 0-.27-.17-.21.15-.09.39-.27.54-.38 1.33-1.1 3.12-1.3 4.78-1.39Z"/><path class="aq" d="M45.97 73.17c2.84 2.81 1.71 4.65 2.51 6.52.92 1.42 4.11 3.81 7.39 3.39.83-.21 1.73-.57 2.72-1.12 0 0 .27-.24.76-.57 4.33-3.26 8.31-.95 8.31-.95h-.03c2.92 1.45 4.66 4.84 4.66 4.84s1.95 3.07 3.54 3.07c0 0 .43 1.01-.36 1.74s-3.04-1.99-4.01-3.83c-.98-1.84-4.84-5.42-9-4.66-4.16.76-6.54 4.3-9 4.66-2.46.36-5.67-1.49-8.06-4.66-2.17-2.87-1.53-4.2-1.88-5.71-.61-2.64-2.02-4.7-4.16-5.46 0 0 3.15-.69 6.62 2.75Z"/><path class="r" d="M39.25 69.93c4.01-.76 8.26 2.11 9.62 5.88.38 1.15.23 2.45.63 3.43l-.09-.16a7.66 7.66 0 0 0 2.81 2.24c.95.57 2.86.84 3.39.75.84-.2 1.69-.53 2.52-.95l-.18.13c.77-.54 1.43-1.04 2.25-1.43a8.07 8.07 0 0 1 7.69.16c.45.22.28.94-.21.94l.17-.95c2.11 1.06 3.83 3.15 4.86 5.02.79 1.08 1.75 2.58 3.12 2.84.28 0 .5.22.51.49-.12.98-1.49.3-1.9.01-2.06-1.36-2.85-3.76-4.5-5.5a9.32 9.32 0 0 0-2.54-1.98c-.46-.22-.28-.94.21-.95 0 0-.19.96-.21.93a7.27 7.27 0 0 0-6.39.49c-.68.37-1.3.92-1.87 1.36-.92.57-1.91 1.05-3.02 1.35a9.34 9.34 0 0 1-8.56-3.78c-.66-1.28-.42-2.67-.75-3.88-.95-2.88-4.26-5.45-7.35-5.49-.61.1-.84-.81-.21-.98Z"/><path class="r" d="M57.79 74.25c.6-2.39 3.6-3.22 5.79-3.3 6.72-.52 15.29 6.37 12.14 13.46a9.18 9.18 0 0 0-1.78-5.93c-2.67-4.09-12.25-8.44-16.15-4.23ZM48.35 101.59a7.66 7.66 0 0 1 12.55-.51h-.76c1.52-1.84 4.06-2.45 6.32-2.09.17.03.28.18.27.34-.02.24-.03.59-.35.58a6.88 6.88 0 0 0-4.53 1.15 6.28 6.28 0 0 1 4.54-1.78l-.32.3v-.28l.3.35c-2.05-.12-4.22.53-5.46 2.06a.5.5 0 0 1-.76 0c-3.18-3.83-8.46-3.7-11.8-.12Z"/><path class="w" d="m34.77 72.72.26.17c1.82 1.11 4.45 2.3 4.77 4.88v5.72s-2-2.45-2.56-3.83c.15-.51.75-3.29-2.48-6.95Z"/><path class="ad" d="m31.18 71.15.74-1.55s1.3 1.96 2.99 3.11c3.22 3.66 2.63 6.44 2.48 6.95l-.07-.19v.03c-1.08-2.53-3.33-3.39-4.94-4.48-1.25-.85-1.31-2.69-1.2-3.88Z"/><path class="l" d="M56.62 89.49c-.48-1.12-1.82-.24-2.62-.03a6.84 6.84 0 0 1-5.21-.52c-1.2-.64-2.22-1.4-3.08-2.41a15.7 15.7 0 0 1-2.19-3.03 9.76 9.76 0 0 0 1.7 3.41c.26.35.52.7.82 1.03.33.28.76.7 1.12.94 1.94 1.53 4.72 2.12 7.01 1.05.76-.25 1.75-1.34 2.45-.45Z"/><path class="r" d="M30.62 72.06c.04-.06.46-1.01.5-1.06-.12 1.35-.07 3.02 1.12 3.89 1.96 1.17 4.29 2.26 5.15 4.57 0 3.02-.14 6.04-.14 9.05.64.42 1.74 1.78 2.78 1.88v.09l.06 3.51v.24l-.21-.11c-2.29-1.23-5.07-2.55-6-5.18-.03-1.56-.02-3.12-.02-4.68 0-1.54 0-3.08.04-4.62l.07.16c-2.7-2.4-4.81-3.75-3.35-7.75Zm.05.01c-1.38 4.1.87 5.11 3.61 7.41.09.06.06.06.07.16.05 3.08.05 6.16.03 9.24.06.28.51 1.15.92 1.54a17.43 17.43 0 0 0 4.72 3.43l-.21.13.06-3.51.1.09c-1.16-.27-1.94-1.29-2.84-2-.07-2.99-.14-6.05-.16-9.07-.7-1.78-3.05-3.28-4.85-4.43-1.13-.92-1.19-2.55-1.07-3.88l.07.02-.43.88Z"/><path class="r" d="m31.04 71.15.67-1.58.05-.11c.9 1.19 1.93 2.3 3.15 3.12 1.91 2.08 3.4 5.01 2.38 7.87l-.34-.91.47-.07v1.19a7.88 7.88 0 0 0-1.98-3.23c-2.45-2.17-5.05-2.19-4.39-6.29Zm0 0c-.04 1.31.08 2.86 1.2 3.69 1.96 1.18 4.25 2.29 5.16 4.57l-.46.09v-1.32l.55 1.38-.46.02c.55-2.48-.84-4.9-2.39-6.76a11.96 11.96 0 0 1-2.91-3.19h.12l-.8 1.51Z"/><path class="r" d="M34.91 72.72c2.08 1.19 4.9 2.34 5.25 5.05l.04 6.44c-1.12-1.44-2.29-2.84-3.04-4.52.66-2.47-.73-5.07-2.25-6.97Zm0 0c1.74 1.84 3.27 4.38 2.68 7.01.68 1.05 1.37 2.24 2.54 3.61l-.44.16.04-5.72c-.25-2.45-2.93-3.75-4.82-5.05Z"/><path class="af" d="M62.1 105.05a2.68 2.68 0 0 1 4.59-1.88l.21.23c.94 1.16.87 2.82.87 2.82.72 2.6 1.88 4.77 1.88 4.77s-3.65-.54-6.8-4.01l.03-.02a2.68 2.68 0 0 1-.79-1.9Z"/><path class="az" d="M68.55 109.96s-3.74-1.63-5.04-4.01c0 0 .92 3.31 5.04 4.01Z"/><path class="r" d="M26.3 80.68a6.2 6.2 0 0 1 3.87 1.11l-.04-.02a.2.2 0 0 1 .09.11c.14.95.08 1.92-.04 2.87-.16-.63-.12-1.48-.15-2.17 0-.18 0-.48-.02-.67a3.6 3.6 0 0 0-1.73-.86c-.49-.13-1.58-.2-1.97-.38ZM22.89 80.59a8.81 8.81 0 0 1-.02-2.46l.07.13c.75 1.22 2.09 1.97 3.37 2.44-1.54.01-2.69-1.2-3.46-2.39l.09-.02c.07.75.12 1.6-.06 2.3Z"/><path class="r" d="M26.31 86.74a10.91 10.91 0 0 1-3.53-4.01c0-.69-.01-1.49.13-2.14.07.62.15 1.61.11 2.04.56 1.74 2.15 2.83 3.29 4.11Z"/><path class="r" d="M30.18 84.75c.2 1.55-.1 3.1 0 4.66a14.58 14.58 0 0 1-3.88-2.67l.02-.02c1.29.84 2.54 1.69 3.82 2.52l-.1.06c.14-1.5-.16-3.1.15-4.54Z"/><path class="ba" d="M45.28 116.56s.72-1.45.72-.58c0 0-.2 1.85-.27 4.06.01 2.89.49 6.55 2.62 8.25 0 0-.62.05-1.47-.42a4.88 4.88 0 0 1-2.55-2.96 4.94 4.94 0 0 1-.33-1.35c-.4-2.41.01-5.32 1.28-7Z"/><path class="ad" d="M48.36 128.31a2.74 2.74 0 0 1-1.56-.28l.12.02c-.65-.05-1-.53-1.48-.9-2.19-2.8-2.65-7.84-.18-10.61a14.27 14.27 0 0 0-1.06 7.65c.27 1.49 1.44 2.74 2.65 3.5.49.18.94.52 1.5.57.03 0 .03.04 0 .05Z"/><path class="az" d="M57.17 90.7a6.3 6.3 0 0 0 12.37 0 5.54 5.54 0 0 1-1.26 4.92c-3.96 4.79-12.42 1.31-11.11-4.92Z"/><path class="r" d="M68.5 117.8c-.88 3.59-3.76 7.21-7.84 6.51-1.2-.14-2.54-.54-3.27-1.55.46.4 1.02.62 1.58.75 4.83 1.14 7.45-1.77 9.54-5.71ZM52.37 107.12c-.57-2.79 2.47-4.76 5.02-4.19 1.68.19 3.66 2.23 3.44 4.3-1.02-1.11-2.29-2.21-3.79-2.35a4.65 4.65 0 0 0-4.67 2.24Z"/><path class="bf" d="M71.99 99.22c-1.85 1.11-2.96.4-3.21-.59.18-.42.4-.76.6-.97a2.95 2.95 0 0 1 3.58-.63 10.9 10.9 0 0 1 2.65 1.88 3.9 3.9 0 0 0-3.61.3Z"/><path class="aj" d="M68.76 98.63c.25.99 1.36 1.7 3.21.59a3.87 3.87 0 0 1 3.61-.3c.3.28.58.57.86.87.94.99 2.01 2.02 3.55 1.77v2.59s-2.52.4-3.91-1.19c-1.39-1.59-3.45-3.07-4.39-2.49s.36 1.95 1.36 2.51c0 0-1.79.72-3.58-.8-1.27-1.07-1.13-2.53-.71-3.53Z"/><path class="l" d="M82.46 127.78c-1.34-1.84-3.6-1.84-4.94 0-1.06-1.56.68-3.69 2.47-3.58 1.79-.1 3.53 2.01 2.47 3.58Z"/><path d="M70.88 127.78a9.11 9.11 0 1 0 18.22 0 9.11 9.11 0 0 0-18.22 0Zm3.04 0a6.07 6.07 0 1 1 12.15 0 6.07 6.07 0 0 1-12.15 0Z" fill="none" stroke="#f9fbc4" stroke-linecap="round" stroke-linejoin="round" stroke-width=".75"/><path d="M88.16 113.51s-1.76-.37-4.21-.46a39.84 39.84 0 0 0-8.22.01c-2.28.11-3.89.45-3.89.45-3.88 1.38-3.17 3.93-3.17 3.93 3.06-4.56 10.63-3.55 11.06-3.45H80c.02 0 .03 0 0 0 .7-.11 8.27-1.11 11.33 3.44 0 0 .71-2.55-3.17-3.93Z" fill="#fffffd"/><path d="m83.18 72.73-1.35-2.35a.55.55 0 0 0-.47-.27h-2.71c-.19 0-.37.1-.47.27l-1.35 2.35c-.1.17-.1.37 0 .54l1.35 2.35c.1.17.28.27.47.27h2.71c.19 0 .37-.1.47-.27l1.35-2.35c.1-.17.1-.37 0-.54Z" fill="url(#f)"/></svg>
