
<svg version="1.1" id="Layer_1" xmlns="http://www.w3.org/2000/svg" xmlns:xlink="http://www.w3.org/1999/xlink" x="0px" y="0px"
	 width="100%" viewBox="0 0 1080 960" enable-background="new 0 0 1080 960" xml:space="preserve">
<path fill="#FF0D00" opacity="1.000000" stroke="none" 
	d="
M1081.000000,462.000000 
	C1081.000000,474.354218 1081.000000,486.708466 1080.632812,499.297363 
	C1079.869141,500.035309 1079.307129,500.479065 1079.101685,501.050903 
	C1076.414429,508.527008 1074.660278,516.493347 1070.956055,523.418884 
	C1061.347290,541.383423 1050.937622,558.921875 1040.751709,576.575012 
	C1027.383789,599.742859 1013.882019,622.833496 1000.517639,646.003418 
	C991.229065,662.107178 982.148315,678.330933 972.843018,694.424866 
	C959.945435,716.731567 946.855652,738.927185 933.976196,761.244324 
	C921.828674,782.293030 909.921265,803.480347 897.773743,824.529114 
	C882.039307,851.793274 866.149414,878.967773 850.370667,906.206482 
	C843.061462,918.824341 835.824646,931.351135 824.008606,940.655884 
	C812.788452,949.491272 800.745422,956.197266 786.680237,959.083923 
	C786.017029,959.220032 785.555481,960.338867 785.000000,961.000000 
	C622.645752,961.000000 460.291534,961.000000 297.702637,960.632751 
	C296.965088,959.869141 296.513458,959.229858 295.952026,959.111572 
	C274.392548,954.568481 256.361176,943.867004 244.162476,925.613770 
	C231.583923,906.792114 220.582413,886.906677 209.117020,867.354126 
	C199.714203,851.319092 190.678528,835.069153 181.415161,818.951782 
	C171.908676,802.411499 162.303452,785.927979 152.778503,769.398254 
	C144.633636,755.263489 136.588242,741.071289 128.413422,726.953918 
	C119.013779,710.721375 109.463486,694.575928 100.083473,678.332092 
	C90.787415,662.233643 81.658821,646.038513 72.388817,629.924866 
	C62.956749,613.529541 53.452469,597.175659 43.960064,580.815125 
	C34.547234,564.591797 25.078539,548.400818 15.694918,532.160645 
	C10.059992,522.408325 4.689028,512.533508 2.863834,501.180573 
	C2.786513,500.699585 1.645489,500.389618 1.000001,500.000000 
	C1.000000,487.645782 1.000000,475.291534 1.367275,462.702576 
	C2.153220,461.633270 2.648231,460.827698 2.978621,459.959503 
	C5.918452,452.234253 8.022927,444.063171 11.911371,436.852753 
	C20.804993,420.361176 30.605785,404.360229 39.963863,388.117218 
	C48.264046,373.710419 56.416080,359.218231 64.720848,344.814117 
	C74.084343,328.573730 83.581779,312.410645 92.953934,296.175232 
	C102.243629,280.082733 111.411896,263.920105 120.703392,247.828659 
	C130.077469,231.594208 139.576599,215.431976 148.948883,199.196503 
	C158.238495,183.104218 167.397400,166.936462 176.688828,150.845230 
	C186.063034,134.610611 195.526398,118.427437 204.956894,102.225342 
	C211.021027,91.806847 217.096329,81.394859 223.337555,70.829849 
	C223.715134,70.450600 223.866791,70.189514 223.966888,69.932266 
	C223.970306,69.968048 223.902008,69.945679 224.274994,69.947556 
	C225.990433,69.363266 227.447998,68.953789 228.658646,68.165215 
	C265.134155,44.406193 302.517456,22.230017 341.676819,3.135319 
	C342.852173,2.562224 343.895264,1.717879 345.000000,1.000002 
	C491.354218,1.000000 637.708435,1.000000 784.297485,1.367294 
	C785.035156,2.130922 785.486938,2.770191 786.048462,2.888530 
	C807.607666,7.432083 825.639160,18.133101 837.837646,36.386581 
	C850.416016,55.208401 861.417847,75.093643 872.883301,94.646240 
	C882.286194,110.681259 891.321838,126.931198 900.585266,143.048508 
	C910.091736,159.588791 919.696899,176.072296 929.221802,192.602005 
	C937.366638,206.736725 945.412048,220.928879 953.586792,235.046219 
	C962.986450,251.278809 972.536560,267.424347 981.916565,283.668213 
	C991.212585,299.766724 1000.341370,315.961731 1009.611450,332.075378 
	C1019.043518,348.470673 1028.547607,364.824554 1038.040039,381.185059 
	C1047.452759,397.408356 1056.921631,413.599213 1066.305176,429.839355 
	C1071.940063,439.591644 1077.310913,449.466553 1079.136230,460.819427 
	C1079.213623,461.300446 1080.354492,461.610382 1081.000000,462.000000 
M634.000000,365.499969 
	C634.000000,300.080505 634.000000,234.661057 634.000000,169.318619 
	C571.665649,169.318619 509.938690,169.318619 448.000000,169.318619 
	C448.000000,171.451477 448.000000,173.267014 448.000000,175.082550 
	C448.000000,243.907028 448.000214,312.731506 447.999542,381.556000 
	C447.999481,387.997650 447.996796,387.999634 441.368774,387.999664 
	C372.377655,388.000183 303.386536,388.000000 234.395401,388.000000 
	C232.644012,388.000000 230.892624,388.000000 229.364685,388.000000 
	C229.364685,450.426727 229.364685,512.153992 229.364685,574.000000 
	C231.556519,574.000000 233.384674,574.000000 235.212830,574.000000 
	C304.037323,574.000000 372.861908,574.054260 441.686005,573.888123 
	C446.720886,573.875977 448.127197,575.157043 448.114594,580.261841 
	C447.943848,649.252563 448.000000,718.243774 448.000000,787.234924 
	C448.000000,789.021667 448.000000,790.808411 448.000000,792.765991 
	C510.164429,792.765991 571.891113,792.765991 634.056519,792.765991 
	C634.056519,719.806702 634.056519,647.079895 634.056519,573.916138 
	C707.220764,573.916138 779.947571,573.916138 852.723511,573.916138 
	C852.723511,511.750153 852.723511,450.023407 852.723511,387.858459 
	C779.721313,387.858459 706.994507,387.858459 634.000000,387.858459 
	C634.000000,380.448395 634.000000,373.474121 634.000000,365.499969 
z"/>
<path fill="#000000" opacity="0.000000" stroke="none" 
	d="
M223.166626,70.979958 
	C217.096329,81.394859 211.021027,91.806847 204.956894,102.225342 
	C195.526398,118.427437 186.063034,134.610611 176.688828,150.845230 
	C167.397400,166.936462 158.238495,183.104218 148.948883,199.196503 
	C139.576599,215.431976 130.077469,231.594208 120.703392,247.828659 
	C111.411896,263.920105 102.243629,280.082733 92.953934,296.175232 
	C83.581779,312.410645 74.084343,328.573730 64.720848,344.814117 
	C56.416080,359.218231 48.264046,373.710419 39.963863,388.117218 
	C30.605785,404.360229 20.804993,420.361176 11.911371,436.852753 
	C8.022927,444.063171 5.918452,452.234253 2.978621,459.959503 
	C2.648231,460.827698 2.153220,461.633270 1.367275,462.233948 
	C1.000000,308.422150 1.000000,154.844299 1.000000,1.000000 
	C99.354065,1.000000 197.708374,1.000000 296.843262,1.285016 
	C293.959625,2.744330 290.245270,3.783016 286.639923,5.116406 
	C271.051208,10.881665 256.781128,18.981441 247.045609,32.720238 
	C238.613251,44.620045 231.563095,57.499329 223.902008,69.945679 
	C223.902008,69.945679 223.970306,69.968048 223.722382,70.022202 
	C223.371857,70.377548 223.269241,70.678749 223.166626,70.979958 
z"/>
<path fill="#000000" opacity="0.000000" stroke="none" 
	d="
M1081.000000,461.531342 
	C1080.354492,461.610382 1079.213623,461.300446 1079.136230,460.819427 
	C1077.310913,449.466553 1071.940063,439.591644 1066.305176,429.839355 
	C1056.921631,413.599213 1047.452759,397.408356 1038.040039,381.185059 
	C1028.547607,364.824554 1019.043518,348.470673 1009.611450,332.075378 
	C1000.341370,315.961731 991.212585,299.766724 981.916565,283.668213 
	C972.536560,267.424347 962.986450,251.278809 953.586792,235.046219 
	C945.412048,220.928879 937.366638,206.736725 929.221802,192.602005 
	C919.696899,176.072296 910.091736,159.588791 900.585266,143.048508 
	C891.321838,126.931198 882.286194,110.681259 872.883301,94.646240 
	C861.417847,75.093643 850.416016,55.208401 837.837646,36.386581 
	C825.639160,18.133101 807.607666,7.432083 786.048462,2.888530 
	C785.486938,2.770191 785.035156,2.130922 784.766113,1.367294 
	C883.609619,1.000000 982.219238,1.000000 1081.000000,1.000000 
	C1081.000000,154.354187 1081.000000,307.708435 1081.000000,461.531342 
z"/>
<path fill="#000000" opacity="0.000000" stroke="none" 
	d="
M1.000001,500.468658 
	C1.645489,500.389618 2.786513,500.699585 2.863834,501.180573 
	C4.689028,512.533508 10.059992,522.408325 15.694918,532.160645 
	C25.078539,548.400818 34.547234,564.591797 43.960064,580.815125 
	C53.452469,597.175659 62.956749,613.529541 72.388817,629.924866 
	C81.658821,646.038513 90.787415,662.233643 100.083473,678.332092 
	C109.463486,694.575928 119.013779,710.721375 128.413422,726.953918 
	C136.588242,741.071289 144.633636,755.263489 152.778503,769.398254 
	C162.303452,785.927979 171.908676,802.411499 181.415161,818.951782 
	C190.678528,835.069153 199.714203,851.319092 209.117020,867.354126 
	C220.582413,886.906677 231.583923,906.792114 244.162476,925.613770 
	C256.361176,943.867004 274.392548,954.568481 295.952026,959.111572 
	C296.513458,959.229858 296.965088,959.869141 297.233948,960.632751 
	C198.390366,961.000000 99.780724,961.000000 1.000000,961.000000 
	C1.000000,807.645813 1.000000,654.291565 1.000001,500.468658 
z"/>
<path fill="#000000" opacity="0.000000" stroke="none" 
	d="
M785.468628,961.000000 
	C785.555481,960.338867 786.017029,959.220032 786.680237,959.083923 
	C800.745422,956.197266 812.788452,949.491272 824.008606,940.655884 
	C835.824646,931.351135 843.061462,918.824341 850.370667,906.206482 
	C866.149414,878.967773 882.039307,851.793274 897.773743,824.529114 
	C909.921265,803.480347 921.828674,782.293030 933.976196,761.244324 
	C946.855652,738.927185 959.945435,716.731567 972.843018,694.424866 
	C982.148315,678.330933 991.229065,662.107178 1000.517639,646.003418 
	C1013.882019,622.833496 1027.383789,599.742859 1040.751709,576.575012 
	C1050.937622,558.921875 1061.347290,541.383423 1070.956055,523.418884 
	C1074.660278,516.493347 1076.414429,508.527008 1079.101685,501.050903 
	C1079.307129,500.479065 1079.869141,500.035309 1080.632812,499.766022 
	C1081.000000,653.577820 1081.000000,807.155701 1081.000000,961.000000 
	C982.645935,961.000000 884.291626,961.000000 785.468628,961.000000 
z"/>
<path fill="#FF1C00" opacity="1.000000" stroke="none" 
	d="
M224.274994,69.947556 
	C231.563095,57.499329 238.613251,44.620045 247.045609,32.720238 
	C256.781128,18.981441 271.051208,10.881665 286.639923,5.116406 
	C290.245270,3.783016 293.959625,2.744330 297.311890,1.285016 
	C312.687561,1.000000 328.375122,1.000000 344.531342,1.000002 
	C343.895264,1.717879 342.852173,2.562224 341.676819,3.135319 
	C302.517456,22.230017 265.134155,44.406193 228.658646,68.165215 
	C227.447998,68.953789 225.990433,69.363266 224.274994,69.947556 
z"/>
<path fill="#FFFFFF" opacity="1.000000" stroke="none" 
	d="
M634.000000,365.999939 
	C634.000000,373.474121 634.000000,380.448395 634.000000,387.858459 
	C706.994507,387.858459 779.721313,387.858459 852.723511,387.858459 
	C852.723511,450.023407 852.723511,511.750153 852.723511,573.916138 
	C779.947571,573.916138 707.220764,573.916138 634.056519,573.916138 
	C634.056519,647.079895 634.056519,719.806702 634.056519,792.765991 
	C571.891113,792.765991 510.164429,792.765991 448.000000,792.765991 
	C448.000000,790.808411 448.000000,789.021667 448.000000,787.234924 
	C448.000000,718.243774 447.943848,649.252563 448.114594,580.261841 
	C448.127197,575.157043 446.720886,573.875977 441.686005,573.888123 
	C372.861908,574.054260 304.037323,574.000000 235.212830,574.000000 
	C233.384674,574.000000 231.556519,574.000000 229.364685,574.000000 
	C229.364685,512.153992 229.364685,450.426727 229.364685,388.000000 
	C230.892624,388.000000 232.644012,388.000000 234.395401,388.000000 
	C303.386536,388.000000 372.377655,388.000183 441.368774,387.999664 
	C447.996796,387.999634 447.999481,387.997650 447.999542,381.556000 
	C448.000214,312.731506 448.000000,243.907028 448.000000,175.082550 
	C448.000000,173.267014 448.000000,171.451477 448.000000,169.318619 
	C509.938690,169.318619 571.665649,169.318619 634.000000,169.318619 
	C634.000000,234.661057 634.000000,300.080505 634.000000,365.999939 
z"/>
<path fill="#FF1C00" opacity="1.000000" stroke="none" 
	d="
M223.337555,70.829849 
	C223.269241,70.678749 223.371857,70.377548 223.718979,69.986420 
	C223.866791,70.189514 223.715134,70.450600 223.337555,70.829849 
z"/>
</svg>
