<svg xmlns="http://www.w3.org/2000/svg" viewBox="0 0 56.69 56.69" xml:space="preserve">
  <linearGradient id="a" gradientUnits="userSpaceOnUse" x1="48.16" y1=".38" x2="35.52" y2="6.51">
    <stop offset="0" stop-color="#55c2b2"/>
    <stop offset="1" stop-color="#43beab"/>
  </linearGradient>
  <path d="m16.94 9.36 5.54 9.63-11.67.02s3.44-6.11 4.68-8.09l.28-.42a7.29 7.29 0 0 1 .75-.82l.42-.32z" fill="url(#a)"/>
  <linearGradient id="b" gradientUnits="userSpaceOnUse" x1="54.01" y1="12.45" x2="41.37" y2="18.58">
    <stop offset="0" stop-color="#55c2b2"/>
    <stop offset="1" stop-color="#43beab"/>
  </linearGradient>
  <path d="M10.11 21.54h14.03l7.92 13.76-22.52.04s-1.75-2.93-2.27-3.94a7.4 7.4 0 0 1-.38-.87 5.78 5.78 0 0 1 .03-3.28l.19-.48.17-.35c.67-1.24 2.83-4.88 2.83-4.88z" fill="url(#b)"/>
  <linearGradient id="c" gradientUnits="userSpaceOnUse" x1="60.68" y1="26.21" x2="48.04" y2="32.34">
    <stop offset="0" stop-color="#55c2b2"/>
    <stop offset="1" stop-color="#43beab"/>
  </linearGradient>
  <path d="M10.74 37.82h22.5L39.66 49l-.21.09-.26.09-.3.1-.32.08-.3.04-.24.03-.21.01-.21.01s-13.02.23-17.36 0a10.64 10.64 0 0 1-1.18-.17 4.5 4.5 0 0 1-1.15-.47 6.41 6.41 0 0 1-1.07-.78l-.31-.32a7.12 7.12 0 0 1-.49-.65l-.32-.56-4.99-8.68z" fill="url(#c)"/>
  <linearGradient id="d" gradientUnits="userSpaceOnUse" x1="60.98" y1="26.83" x2="48.34" y2="32.96">
    <stop offset="0" stop-color="#55c2b2"/>
    <stop offset="1" stop-color="#43beab"/>
  </linearGradient>
  <path d="m38.37 40.5 3.92 6.84.18-.18.16-.2.15-.19.1-.14.22-.37a364.97 364.97 0 0 0 8.83-15.37l.1-.27.1-.32.08-.29.06-.36.04-.32.02-.35v-.17l-.01-.24-.01-.19-.03-.25-.04-.24-.07-.31-.07-.24a3.43 3.43 0 0 0-.11-.29l-.11-.3-.12-.24c-.72-1.33-3.01-5.23-3.01-5.23L38.37 40.5z" fill="url(#d)"/>
  <linearGradient id="e" gradientUnits="userSpaceOnUse" x1="55.02" y1="14.54" x2="42.38" y2="20.67">
    <stop offset="0" stop-color="#55c2b2"/>
    <stop offset="1" stop-color="#43beab"/>
  </linearGradient>
  <path d="m29.03 24.61 7.65 13.34 10.37-19.21s-3.36-6.07-4.63-8a6.16 6.16 0 0 0-1.03-1.16l-.57-.42a6.74 6.74 0 0 0-.46-.25l-.48-.21a9.82 9.82 0 0 0-.58-.18l-.4-.07a5.52 5.52 0 0 0-.78-.08h-.34l-8.75 16.24z" fill="url(#e)"/>
  <linearGradient id="f" gradientUnits="userSpaceOnUse" x1="49.18" y1="2.5" x2="36.54" y2="8.63">
    <stop offset="0" stop-color="#55c2b2"/>
    <stop offset="1" stop-color="#43beab"/>
  </linearGradient>
  <path d="M34.99 7.9s-11.09-.17-14.78 0l-.26.02-.38.06-.28.06 8.05 14.02L34.99 7.9z" fill="url(#f)"/>
</svg>
