<svg xmlns="http://www.w3.org/2000/svg" xmlns:xlink="http://www.w3.org/1999/xlink" viewBox="0 0 42 42">
  <circle cx="21" cy="21" r="19" fill="#e9b213"/>
  <defs>
    <circle id="a" cx="21" cy="21" r="21"/>
  </defs>
  <clipPath id="b">
    <use xlink:href="#a" overflow="visible"/>
  </clipPath>
  <g clip-path="url(#b)" fill-rule="evenodd" clip-rule="evenodd" fill="#fff">
    <path d="M21.46 7.6c-.2-.33-.67-.6-1.06-.6h-6.08c-.39 0-.86.27-1.05.6l-3.03 5.19c-.2.33-.2.87 0 1.21l3.03 5.19c.2.33.67.6 1.05.6h6.08c.39 0 .86-.27 1.05-.6L24.49 14c.2-.33.2-.87 0-1.21L21.46 7.6z" fill-opacity=".9"/>
    <path d="M33.92 14.7c-.2-.33-.67-.6-1.05-.6h-6.08c-.39 0-.86.27-1.05.6l-3.03 5.19c-.2.33-.2.87 0 1.21l3.03 5.19c.2.33.67.6 1.05.6h6.08c.39 0 .86-.27 1.05-.6l3.03-5.19c.2-.33.2-.87 0-1.21l-3.03-5.19z" fill-opacity=".6"/>
    <path d="M21.56 21.8c-.2-.33-.67-.6-1.05-.6h-6.08c-.39 0-.86.27-1.05.6l-3.03 5.19c-.2.33-.2.87 0 1.21l3.03 5.19c.2.33.67.6 1.05.6h6.08c.39 0 .86-.27 1.05-.6l3.03-5.19c.2-.33.2-.87 0-1.21l-3.03-5.19z" fill-opacity=".8"/>
  </g>
</svg>
