<svg xmlns="http://www.w3.org/2000/svg" xmlns:xlink="http://www.w3.org/1999/xlink" viewBox="0 0 42 42">
  <defs>
    <circle id="a" cx="21" cy="21" r="19"/>
  </defs>
  <clipPath id="b">
    <use xlink:href="#a" overflow="visible"/>
  </clipPath>
  <g clip-path="url(#b)" fill-rule="evenodd" clip-rule="evenodd">
    <path d="M0 0v42h42V0zm15 27.8h-3.3V14.2H15zm18.2-6.5a6.9 6.9 0 01-1.6 4.9 5.5 5.5 0 01-4.3 1.8 5.6 5.6 0 01-4.3-1.8 7 7 0 01-1.7-5v-.5a6.9 6.9 0 011.7-4.9 5.6 5.6 0 014.3-1.8 5.6 5.6 0 014.3 1.8 6.9 6.9 0 011.6 5zm-6-4.7c-1.7 0-2.6 1.3-2.6 4.1v.6a6 6 0 00.7 3 2.2 2.2 0 002 1.1 2.1 2.1 0 001.9-1 5.7 5.7 0 00.7-3.1v-.6c0-2.7-.9-4.1-2.6-4.1z"/>
  </g>
</svg>
