<svg xmlns="http://www.w3.org/2000/svg" height="66" width="220" version="1.1" viewBox="0 0 220 66"><g stroke="#fff" stroke-width="1.5" stroke-linecap="round" fill="none"><g><path d="M1.28 7.75a10.24 10.24 0 0119.43 0"/><path d="M1.28 7.75h19.43"/><path d="M11 .75c2.06 0 3.8 2.93 4.42 7"/><path d="M11 .75c-2.06 0-3.8 2.93-4.42 7"/><path d="M23.29 7.75a10.24 10.24 0 0119.43 0"/><path d="M23.29 7.75h19.43"/><path d="M29.47 7.75c.5-4.07 1.88-7 3.53-7"/><path d="M33 .75c2.47 0 4.56 2.93 5.3 7"/><path d="M45.28 7.75a10.24 10.24 0 0119.43 0"/><path d="M45.28 7.75h19.43"/><path d="M55 .75c-1.23 0-2.28 2.93-2.65 7"/><path d="M55 .75c2.88 0 5.32 2.93 6.18 7"/><path d="M67.28 7.75a10.24 10.24 0 0119.43 0"/><path d="M67.29 7.75h19.42"/><path d="M77 .75c-.82 0-1.52 2.93-1.77 7"/><path d="M77 .75c3.29 0 6.08 2.93 7.07 7"/><path d="M89.28 7.75a10.24 10.24 0 0119.43 0"/><path d="M89.29 7.75h19.43"/><path d="M98.12 7.75c.12-4.07.47-7 .88-7"/><path d="M99 .75c3.7 0 6.84 2.93 7.95 7"/><path d="M111.28 7.75a10.24 10.24 0 0119.43 0"/><path d="M111.28 7.75h19.44"/><path d="M112.17 7.75a9.44 9.44 0 018.83-7"/><path d="M121 .75a9.44 9.44 0 018.83 7"/><path d="M121 7.75v-7"/><path d="M133.28 7.75a10.24 10.24 0 0119.43 0"/><path d="M133.28 7.75h19.44"/><path d="M143 .75c.41 0 .76 2.93.88 7"/><path d="M143 .75c-3.7 0-6.84 2.93-7.95 7"/><path d="M155.28 7.75a10.24 10.24 0 0119.43 0"/><path d="M155.28 7.75h19.44"/><path d="M165 .75c.82 0 1.52 2.93 1.77 7"/><path d="M165 .75c-3.29 0-6.08 2.93-7.07 7"/><path d="M177.28 7.75a10.24 10.24 0 0119.43 0"/><path d="M177.28 7.75h19.44"/><path d="M187 .75c1.23 0 2.28 2.93 2.65 7"/><path d="M180.82 7.75c.86-4.07 3.3-7 6.18-7"/><path d="M199.28 7.75a10.24 10.24 0 0119.43 0"/><path d="M199.28 7.75h19.44"/><path d="M209 .75c1.65 0 3.04 2.93 3.53 7"/><path d="M209 .75c-2.47 0-4.56 2.93-5.3 7"/></g><g transform="translate(-1.28 1)"><path d="M16.61 35.5a21.37 21.37 0 00.33-3.75 21.72 21.72 0 00-.25-3.25"/><path d="M7.86 28.5a21.72 21.72 0 00-.24 3.25 21.37 21.37 0 00.33 3.75"/><path d="M22 28.5a10.15 10.15 0 01-.19 7"/><path d="M2.56 28.5a10.15 10.15 0 00.19 7"/><path d="M30.75 28.5a27.06 27.06 0 00-.2 3.25 26.5 26.5 0 00.26 3.75"/><path d="M39.48 35.5a17.89 17.89 0 00.39-3.75 18.09 18.09 0 00-.3-3.25"/><path d="M44 28.5a10.15 10.15 0 01-.19 7"/><path d="M24.56 28.5a10.15 10.15 0 00.19 7"/><path d="M53.63 28.5c-.1 1.02-.15 2.1-.15 3.25a35.27 35.27 0 00.2 3.75"/><path d="M62.34 35.5a15.63 15.63 0 00.12-7"/><path d="M66 28.5a10.15 10.15 0 01-.19 7"/><path d="M46.56 28.5a10.15 10.15 0 00.19 7"/><path d="M76.51 28.5a53.77 53.77 0 00.03 7"/><path d="M85.21 35.5a13.63 13.63 0 00.52-3.75 13.78 13.78 0 00-.39-3.25"/><path d="M88 28.5a10.15 10.15 0 01-.19 7"/><path d="M68.56 28.5a10.15 10.15 0 00.19 7"/><path d="M99.4 28.5a107.53 107.53 0 00.01 7"/><path d="M108.08 35.5a12.26 12.26 0 00.15-7"/><path d="M110 28.5a10.15 10.15 0 01-.19 7"/><path d="M90.56 28.5a10.15 10.15 0 00.19 7"/><path d="M113.45 28.5a11.11 11.11 0 00.16 7"/><path d="M130.94 35.5a11.11 11.11 0 00.17-7"/><path d="M122.28 35.5v-7"/><path d="M132 28.5a10.15 10.15 0 01-.19 7"/><path d="M112.56 28.5a10.15 10.15 0 00.19 7"/><path d="M145.15 35.5a106.95 106.95 0 00.01-7"/><path d="M136.33 28.5a12.29 12.29 0 00.15 7"/><path d="M154 28.5a10.15 10.15 0 01-.19 7"/><path d="M134.56 28.5a10.15 10.15 0 00.19 7"/><path d="M168.01 35.5a52.93 52.93 0 00.03-7"/><path d="M159.21 28.5a13.78 13.78 0 00-.39 3.25 13.63 13.63 0 00.53 3.75"/><path d="M176 28.5a10.15 10.15 0 01-.19 7"/><path d="M156.56 28.5a10.15 10.15 0 00.19 7"/><path d="M190.88 35.5a35.26 35.26 0 00.2-3.75c0-1.14-.05-2.23-.15-3.25"/><path d="M182.1 28.5a15.67 15.67 0 00.11 7"/><path d="M198 28.5a10.15 10.15 0 01-.19 7"/><path d="M178.56 28.5a10.15 10.15 0 00.19 7"/><path d="M213.75 35.5a26.64 26.64 0 00.26-3.75 27.05 27.05 0 00-.2-3.25"/><path d="M204.98 28.5a18.09 18.09 0 00-.3 3.25 17.89 17.89 0 00.4 3.75"/><path d="M220 28.5a10.15 10.15 0 01-.19 7"/><path d="M200.56 28.5a10.15 10.15 0 00.19 7"/></g><g transform="translate(-10.29 -13.6)"><path d="M30.82 72.34a10.24 10.24 0 01-19.06 0"/><path d="M25.62 72.34c-.68 3.8-2.36 6.5-4.33 6.5"/><path d="M21.29 78.84c-1.97 0-3.65-2.7-4.34-6.5"/><path d="M30.82 72.34H11.76"/><path d="M52.82 72.34a10.24 10.24 0 01-19.06 0"/><path d="M43.29 78.84c-1.58 0-2.92-2.7-3.47-6.5"/><path d="M48.49 72.34c-.82 3.8-2.84 6.5-5.2 6.5"/><path d="M52.82 72.34H33.76"/><path d="M74.82 72.34a10.24 10.24 0 01-19.06 0"/><path d="M65.29 78.84c-1.18 0-2.2-2.7-2.6-6.5"/><path d="M71.35 72.34c-.95 3.8-3.3 6.5-6.06 6.5"/><path d="M74.82 72.34H55.76"/><path d="M96.82 72.34a10.24 10.24 0 01-19.06 0"/><path d="M87.29 78.84c-.79 0-1.46-2.7-1.74-6.5"/><path d="M94.22 72.34c-1.09 3.8-3.78 6.5-6.93 6.5"/><path d="M96.82 72.34H77.76"/><path d="M118.82 72.34a10.24 10.24 0 01-19.06 0"/><path d="M109.29 78.84c-.4 0-.73-2.7-.87-6.5"/><path d="M117.09 72.34c-1.23 3.8-4.25 6.5-7.8 6.5"/><path d="M118.82 72.34H99.76"/><path d="M140.82 72.34a10.24 10.24 0 01-19.06 0"/><path d="M131.29 78.84a9.38 9.38 0 01-8.67-6.5"/><path d="M139.95 72.34a9.38 9.38 0 01-8.66 6.5"/><path d="M131.29 78.84v-6.5"/><path d="M140.82 72.34h-19.06"/><path d="M162.82 72.34a10.24 10.24 0 01-19.06 0"/><path d="M154.15 72.34c-.13 3.8-.47 6.5-.86 6.5"/><path d="M153.29 78.84c-3.55 0-6.58-2.7-7.8-6.5"/><path d="M162.82 72.34h-19.06"/><path d="M184.82 72.34a10.24 10.24 0 01-19.06 0"/><path d="M177.02 72.34c-.27 3.8-.94 6.5-1.73 6.5"/><path d="M175.29 78.84c-3.16 0-5.85-2.7-6.93-6.5"/><path d="M184.82 72.34h-19.06"/><path d="M206.82 72.34a10.24 10.24 0 01-19.06 0"/><path d="M199.89 72.34c-.41 3.8-1.42 6.5-2.6 6.5"/><path d="M197.29 78.84c-2.76 0-5.12-2.7-6.07-6.5"/><path d="M206.82 72.34h-19.06"/><path d="M228.82 72.34a10.24 10.24 0 01-19.06 0"/><path d="M222.75 72.34c-.54 3.8-1.89 6.5-3.46 6.5"/><path d="M219.29 78.84c-2.37 0-4.38-2.7-5.2-6.5"/><path d="M228.82 72.34h-19.06"/></g></g></svg>
