<svg width="363" height="104" viewBox="0 0 363 104" fill="none" xmlns="http://www.w3.org/2000/svg">
  <path opacity=".06" d="M402.65 106.74l-14.83-25.61a8.64 8.64 0 00-7.38-4.22h-29.59c-3 0-5.83 1.62-7.37 4.22l-14.84 25.6v.09a8.56 8.56 0 00-.16 8.27c.08.08.16.16.16.24l14.84 25.61c.08.08.08.24.16.32a8.61 8.61 0 007.21 3.98h29.59a8.5 8.5 0 007.21-4.06c.09-.08.09-.16.17-.32l14.75-25.61a8.36 8.36 0 00.08-8.51c0 .08 0 0 0 0z" fill="#fff"/>
  <path opacity=".01" d="M136.45 106.82c0-.08 0-.08 0 0l-14.83-25.7a8.64 8.64 0 00-7.38-4.2H84.66c-3 0-5.84 1.61-7.38 4.2l-14.75 25.62v.08a8.56 8.56 0 00-.16 8.27c.08.08.16.16.16.24l14.83 25.61c.08.08.08.16.16.32a8.43 8.43 0 007.22 3.98h29.59a8.5 8.5 0 007.21-4.06c.08-.08.08-.16.16-.32l14.83-25.61c.09-.08.09-.16.17-.25a8.63 8.63 0 00-.25-8.18z" fill="#fff"/>
  <path opacity=".05" d="M269.55 106.74l-14.83-25.61a8.64 8.64 0 00-7.38-4.22h-29.58c-3 0-5.84 1.62-7.38 4.22l-14.83 25.6v.09a8.56 8.56 0 00-.17 8.27c.09.08.17.16.17.24l14.83 25.61c.08.08.08.16.16.32a8.43 8.43 0 007.22 3.98h29.58a8.5 8.5 0 007.22-4.06c.08-.08.08-.16.16-.32l14.75-25.61a8.35 8.35 0 00.08-8.51c0 .08 0 0 0 0z" fill="#fff"/>
  <path opacity=".04" d="M328.73 38.42l14.75 25.6c0 .09.08.09.08.17a8.61 8.61 0 007.3 4.13h29.58c3 0 5.76-1.54 7.3-4.13 0-.08.08-.08.08-.16l14.75-25.61c0-.09.08-.09.08-.17a8.5 8.5 0 00-.08-8.34L387.82 4.3a8.35 8.35 0 00-7.38-4.3h-29.58a8.45 8.45 0 00-7.38 4.3l-14.75 25.6a8.5 8.5 0 00-.09 8.35c0 .09 0 .09.09.17z" fill="#fff"/>
  <path opacity=".02" d="M262.1 68.48a8.5 8.5 0 00.07 8.35v.08l14.84 25.62a8.64 8.64 0 007.38 4.2h29.58c3 0 5.84-1.61 7.38-4.2L336.1 76.9v-.08a8.5 8.5 0 00.08-8.34c0-.09-.08-.09-.08-.17l-14.83-25.6c0-.09-.08-.09-.08-.17a8.61 8.61 0 00-7.3-4.13H284.3c-3 0-5.75 1.54-7.3 4.13 0 .08-.07.08-.07.16l-14.84 25.61v.17z" fill="#fff"/>
</svg>
