<svg width="182" height="227" viewBox="0 0 182 227" fill="none" xmlns="http://www.w3.org/2000/svg">
  <path opacity=".01" d="M148 119.9a8.43 8.43 0 00-7.2-3.98h-29.6a8.5 8.5 0 00-7.2 4.06c-.09.08-.09.16-.17.32L89 145.91c-.08.08-.08.16-.17.25a8.56 8.56 0 00.17 8.26l14.83 25.61a8.64 8.64 0 007.38 4.22h29.58c3 0 5.84-1.62 7.38-4.22l14.83-25.6v-.09a8.56 8.56 0 00.16-8.27c-.08-.08-.16-.16-.16-.24l-14.83-25.6c0-.17-.08-.25-.16-.33z" fill="#fff"/>
  <path opacity=".03" d="M14.99 119.9a8.43 8.43 0 00-7.21-3.98h-29.6a8.5 8.5 0 00-7.2 4.06c-.09.08-.09.16-.17.32l-14.75 25.61a8.4 8.4 0 000 8.43v.08l14.83 25.61a8.64 8.64 0 007.38 4.22H7.86c3 0 5.83-1.62 7.37-4.22l14.84-25.6v-.09a8.56 8.56 0 00.16-8.27c-.08-.08-.16-.16-.16-.24l-14.84-25.6c-.16-.17-.24-.25-.24-.33z" fill="#fff"/>
  <path opacity=".01" d="M96.45 107.42c0-.09 0-.09 0 0l-14.83-25.7a8.64 8.64 0 00-7.38-4.21H44.66c-3 0-5.84 1.62-7.38 4.21l-14.75 25.61v.09a8.56 8.56 0 00-.16 8.26c.08.08.16.16.16.25l14.83 25.6c.08.09.08.17.16.33a8.43 8.43 0 007.22 3.97h29.59a8.5 8.5 0 007.21-4.05c.08-.08.08-.16.16-.32l14.84-25.62c.08-.08.08-.16.16-.24a8.62 8.62 0 00-.25-8.18z" fill="#fff"/>
  <path opacity=".05" d="M229.55 107.33l-14.83-25.6a8.64 8.64 0 00-7.38-4.22h-29.58c-3 0-5.84 1.62-7.38 4.21l-14.83 25.61v.09a8.56 8.56 0 00-.17 8.26c.09.08.17.16.17.25l14.83 25.6c.08.09.08.17.16.33a8.43 8.43 0 007.22 3.97h29.58a8.5 8.5 0 007.22-4.05c.08-.08.08-.16.16-.32l14.75-25.62c.08-.08.16-.16.16-.24a8.35 8.35 0 00-.08-8.27c0 .09 0 0 0 0z" fill="#fff"/>
  <path opacity=".04" d="M96.45 184.25l-14.83-25.7a8.64 8.64 0 00-7.38-4.2H44.66c-3 0-5.84 1.61-7.38 4.2l-14.75 25.62v.08a8.5 8.5 0 00-.08 8.35c0 .08.08.08.08.16l14.83 25.6c0 .09.08.09.08.17a8.61 8.61 0 007.3 4.13h29.59c3 0 5.75-1.54 7.3-4.13 0-.08.07-.08.07-.16l14.84-25.61c0-.08.08-.08.08-.16a8.51 8.51 0 00-.17-8.35z" fill="#fff"/>
  <path opacity=".03" d="M229.55 184.17l-14.83-25.61a8.65 8.65 0 00-7.38-4.22h-29.58c-3 0-5.84 1.62-7.38 4.22l-14.83 25.6v.09a8.5 8.5 0 00-.09 8.35c0 .08.09.08.09.16l14.83 25.6c0 .09.08.09.08.17a8.61 8.61 0 007.3 4.13h29.58c3 0 5.76-1.54 7.3-4.13 0-.08.08-.08.08-.16l14.75-25.61c0-.08.08-.08.08-.16a8.46 8.46 0 000-8.43c0 .08 0 .08 0 0z" fill="#fff"/>
</svg>
