<svg width="420" height="239" fill="none" xmlns="http://www.w3.org/2000/svg"><path d="M-85.5-55.25H505L496.5 206c-232.632-40.767-353.346-41.233-582 0V-55.25z" fill="#F8F8F8"/><g opacity=".12"><circle cx="138.934" cy="51.401" r="16.561" fill="#1F2348"/><path d="M143.377 44.656l-8.974 13.29" stroke="#fff" stroke-width="3.5" stroke-linecap="round" stroke-linejoin="round"/><circle cx="132.8" cy="47.363" r="2.337" transform="rotate(-10.974 132.8 47.363)" fill="#fff" stroke="#fff" stroke-width=".5"/><circle cx="145.409" cy="55.705" r="2.337" transform="rotate(-10.974 145.409 55.705)" fill="#fff" stroke="#fff" stroke-width=".5"/></g><path opacity=".08" d="M96 80.001c11.75-4.25 12.75-6.75 20.139-13.596M322.5 114.001c-25 3.5-22.5 27.5-46 20.75s-7.821-56.697-9.893-73.326m-39.88-19.054c-10.956 8.094-12.403 27.621-14.014 46.648M189 134.751c-35.75.75-16.844-42.957-28.955-67.023" stroke="#1F2348" stroke-width="6.15" stroke-linecap="round" stroke-dasharray="10 15"/><g filter="url(#filter0_ddd)"><circle cx="40.533" cy="54.771" r="34.162" fill="#F7931A"/><path d="M34.289 42.266h9.599a5.942 5.942 0 015.942 5.942v0a5.942 5.942 0 01-5.942 5.942h-9.6V42.266zM34.289 54.152h10.056a6.4 6.4 0 016.4 6.4v0a6.4 6.4 0 01-6.4 6.399H34.289V54.152zM36.865 42.101v-4.238M36.865 71.355v-4.238M42.351 42.101v-4.238M42.351 71.355v-4.238M35.037 67.116h-4.238M35.037 42.432h-4.238" stroke="#fff" stroke-width="3.075" stroke-linecap="round" stroke-linejoin="round"/><circle cx="50.533" cy="129.763" r="34.162" fill="url(#paint0_radial)"/><path d="M70.056 128.052l-8.32-14.833c-.6-1.061-1.698-1.711-2.885-1.711h-16.64c-1.188 0-2.286.65-2.88 1.711l-8.32 14.833a3.513 3.513 0 000 3.423l8.32 14.833a3.305 3.305 0 002.88 1.712h16.64a3.305 3.305 0 002.88-1.712l8.32-14.833c.599-1.061.599-2.362.005-3.423z" stroke="#fff" stroke-width="3.075" stroke-linecap="round" stroke-linejoin="round"/><circle cx="438.5" cy="101.732" r="34.162" fill="url(#paint1_radial)"/></g><g filter="url(#filter1_ddd)"><circle cx="369.467" cy="129.761" r="34.162" fill="#0582CA"/><path d="M377.665 144.451l-1.266.533c-1.306.55-2.71.833-4.127.833h-.712c-5.873 0-10.634-4.761-10.634-10.634v-10.502c0-5.873 4.761-10.634 10.634-10.634h1.5c1.57 0 3.121.348 4.541 1.018l.918.434M356.656 126.515h17.763M356.656 133.691h15.03" stroke="#fff" stroke-width="3.075" stroke-linecap="round" stroke-linejoin="round"/><path d="M-18.957 135.017c18.867 0 34.162-15.295 34.162-34.162 0-18.867-15.295-34.162-34.162-34.162-18.867 0-34.162 15.295-34.162 34.162 0 18.867 15.295 34.162 34.162 34.162z" fill="url(#paint2_radial)"/></g><path d="M379.162 88.933c18.867 0 34.161-15.295 34.161-34.162 0-18.867-15.294-34.162-34.161-34.162S345 35.904 345 54.771c0 18.867 15.295 34.162 34.162 34.162z" fill="url(#paint3_radial)"/><path d="M390.144 68.444l-2.958.759c-.863.221-1.751.333-2.642.333h-2.331c-7.749 0-14.03-6.282-14.03-14.03v0c0-7.75 6.281-14.031 14.03-14.031h2.076c.994 0 1.984.14 2.94.414l2.593.746M368.998 71.807l14.302-38.1M374.251 73.78l14.302-38.1" stroke="#fff" stroke-width="3.075" stroke-linecap="round" stroke-linejoin="round"/><g filter="url(#filter2_f)"><path d="M325.392 91.272c-62.844-26.908-119.038-31.877-181.659-15.545" stroke="#F8F8F8" stroke-width="14"/></g><g filter="url(#filter3_ddd)" stroke-width="6.15" stroke-linecap="round" stroke-linejoin="round"><path d="M100.047 90.103c14.3-5.596 28.161-10.201 41.714-13.81 63.024-16.78 119.407-12.003 182.533 14.981" stroke="#fff"/><path d="M100.047 90.103c14.3-5.596 28.161-10.201 41.714-13.81 63.024-16.78 119.407-12.003 182.533 14.981" stroke="#1F2348" stroke-opacity=".3"/><path d="M317.468 73.639l7.921 18.075-18.071 7.923" stroke="#fff"/><path d="M317.468 73.639l7.921 18.075-18.071 7.923" stroke="#1F2348" stroke-opacity=".3"/></g><g opacity=".12" clip-path="url(#clip0)"><path d="M238.01 39.979a2.578 2.578 0 00.765 1.83l7.555 7.524a2.574 2.574 0 001.82.753l10.601.014c.677.001 1.327-.266 1.808-.742l7.66-7.544a2.597 2.597 0 00.775-1.839V29.383a2.585 2.585 0 00-.753-1.82l-7.651-7.688a2.577 2.577 0 00-1.832-.762h-10.591a2.595 2.595 0 00-1.841.762l-7.578 7.699a2.572 2.572 0 00-.748 1.813l.01 10.592zm10.334-12a1.198 1.198 0 01.93-1.396 1.202 1.202 0 011.421.893l1.221 5.674c.004.016.012.03.025.039.013.009.029.013.045.011a.066.066 0 00.042-.02.068.068 0 00.016-.044V26.12a1.202 1.202 0 012.403 0v7.034c0 .016.006.031.017.043a.064.064 0 00.086.01.063.063 0 00.025-.039l1.222-5.407a1.198 1.198 0 01.524-.757 1.205 1.205 0 011.829 1.266l-1.236 6.741a.065.065 0 00.04.073.067.067 0 00.079-.026l2.002-3.153a1.201 1.201 0 012.169.361c.078.302.035.623-.119.894l-1.716 3.222a4.33 4.33 0 00-.509 2.04c0 2.703-.756 4.926-3.603 4.927h-2.814a3.612 3.612 0 01-2.607-1.113l-4.215-5.607v-.008a1.204 1.204 0 01-.072-1.7 1.203 1.203 0 011.699-.071l2.262 1.975a.064.064 0 00.1-.02.062.062 0 00.006-.038l-1.272-8.789z" fill="#1F2348"/></g><path fill-rule="evenodd" clip-rule="evenodd" d="M192 98.938a3 3 0 00-3 2.999v21.001a3 3 0 003 3h35a3 3 0 003-3v-21a3 3 0 00-3-3h-35zm12.044 4.898a4.982 4.982 0 00-2.044-.398 4.982 4.982 0 00-3.778 1.628 5.117 5.117 0 00-1.078 1.834 5.172 5.172 0 00-.256 1.971 7.408 7.408 0 00.348 2.889c.295.898.76 1.73 1.368 2.449a2.416 2.416 0 01.025.656l-.212.08c-1.107.416-2.167.815-3.037 1.217-.962.444-2.058 1.043-2.647 1.972a1.5 1.5 0 002.534 1.607c.069-.109.394-.405 1.37-.856.762-.351 1.699-.704 2.81-1.122v-.001l.653-.246.003-.001c.773-.294 1.131-.95 1.289-1.365.169-.446.23-.918.245-1.314a5.413 5.413 0 00-.086-1.188 3.6 3.6 0 00-.155-.573 2.185 2.185 0 00-.404-.692l-.007-.008a4.326 4.326 0 01-.899-1.552 4.416 4.416 0 01-.2-1.802 1.455 1.455 0 000-.28 2.176 2.176 0 01.103-.889c.095-.285.248-.544.446-.76.198-.216.436-.385.698-.496.262-.112.543-.166.825-.158h.084c.282-.008.563.046.825.158.262.111.5.28.698.496.198.216.351.475.446.76.095.285.131.588.103.889a1.455 1.455 0 000 .28 4.416 4.416 0 01-.2 1.802 4.326 4.326 0 01-.899 1.552l-.007.008c-.223.25-.341.524-.404.692a3.6 3.6 0 00-.155.573c-.07.367-.101.782-.086 1.188.015.396.076.868.245 1.314.158.415.516 1.071 1.289 1.365l.003.001.627.237h.001l.008.003c1.12.421 2.063.776 2.828 1.129.975.451 1.3.747 1.369.856a1.5 1.5 0 002.534-1.607c-.589-.928-1.683-1.528-2.645-1.972-.874-.404-1.941-.805-3.054-1.223l-.197-.075a2.416 2.416 0 01.025-.655 7.343 7.343 0 001.368-2.449c.306-.93.424-1.913.348-2.889a5.172 5.172 0 00-.256-1.971 5.117 5.117 0 00-1.078-1.834 5.034 5.034 0 00-1.734-1.23zm10.456 4.102a1.5 1.5 0 011.5-1.5h7a1.5 1.5 0 110 3h-7a1.5 1.5 0 01-1.5-1.5zm1.5 3.5a1.5 1.5 0 100 3h7a1.5 1.5 0 000-3h-7z" fill="#1F2348" opacity=".12"/><defs><radialGradient id="paint0_radial" cx="0" cy="0" r="1" gradientUnits="userSpaceOnUse" gradientTransform="rotate(-180 42.347 81.963) scale(68.3233)"><stop stop-color="#EC991C"/><stop offset="1" stop-color="#E9B213"/></radialGradient><radialGradient id="paint1_radial" cx="0" cy="0" r="1" gradientUnits="userSpaceOnUse" gradientTransform="rotate(-180 236.331 67.947) scale(68.3233)"><stop stop-color="#41A38E"/><stop offset="1" stop-color="#21BCA5"/></radialGradient><radialGradient id="paint2_radial" cx="0" cy="0" r="1" gradientUnits="userSpaceOnUse" gradientTransform="rotate(180 7.602 67.508) scale(68.3233)"><stop stop-color="#4D4C96"/><stop offset="1" stop-color="#5F4B8B"/></radialGradient><radialGradient id="paint3_radial" cx="0" cy="0" r="1" gradientUnits="userSpaceOnUse" gradientTransform="rotate(180 206.661 44.466) scale(68.3233)"><stop stop-color="#70B069"/><stop offset="1" stop-color="#88B04B"/></radialGradient><filter id="filter0_ddd" x="-44.142" y="-5.977" width="567.318" height="244.344" filterUnits="userSpaceOnUse" color-interpolation-filters="sRGB"><feFlood flood-opacity="0" result="BackgroundImageFix"/><feColorMatrix in="SourceAlpha" values="0 0 0 0 0 0 0 0 0 0 0 0 0 0 0 0 0 0 127 0"/><feOffset dy="2.659"/><feGaussianBlur stdDeviation="1.662"/><feColorMatrix values="0 0 0 0 0.122709 0 0 0 0 0.138823 0 0 0 0 0.283843 0 0 0 0.02 0"/><feBlend in2="BackgroundImageFix" result="effect1_dropShadow"/><feColorMatrix in="SourceAlpha" values="0 0 0 0 0 0 0 0 0 0 0 0 0 0 0 0 0 0 127 0"/><feOffset dy="9.305"/><feGaussianBlur stdDeviation="5.65"/><feColorMatrix values="0 0 0 0 0.122709 0 0 0 0 0.138823 0 0 0 0 0.283843 0 0 0 0.04 0"/><feBlend in2="effect1_dropShadow" result="effect2_dropShadow"/><feColorMatrix in="SourceAlpha" values="0 0 0 0 0 0 0 0 0 0 0 0 0 0 0 0 0 0 127 0"/><feOffset dy="23.928"/><feGaussianBlur stdDeviation="25.257"/><feColorMatrix values="0 0 0 0 0.122709 0 0 0 0 0.138823 0 0 0 0 0.283843 0 0 0 0.07 0"/><feBlend in2="effect2_dropShadow" result="effect3_dropShadow"/><feBlend in="SourceGraphic" in2="effect3_dropShadow" result="shape"/></filter><filter id="filter1_ddd" x="-103.633" y="40.107" width="557.776" height="198.258" filterUnits="userSpaceOnUse" color-interpolation-filters="sRGB"><feFlood flood-opacity="0" result="BackgroundImageFix"/><feColorMatrix in="SourceAlpha" values="0 0 0 0 0 0 0 0 0 0 0 0 0 0 0 0 0 0 127 0"/><feOffset dy="2.659"/><feGaussianBlur stdDeviation="1.662"/><feColorMatrix values="0 0 0 0 0.122709 0 0 0 0 0.138823 0 0 0 0 0.283843 0 0 0 0.02 0"/><feBlend in2="BackgroundImageFix" result="effect1_dropShadow"/><feColorMatrix in="SourceAlpha" values="0 0 0 0 0 0 0 0 0 0 0 0 0 0 0 0 0 0 127 0"/><feOffset dy="9.305"/><feGaussianBlur stdDeviation="5.65"/><feColorMatrix values="0 0 0 0 0.122709 0 0 0 0 0.138823 0 0 0 0 0.283843 0 0 0 0.04 0"/><feBlend in2="effect1_dropShadow" result="effect2_dropShadow"/><feColorMatrix in="SourceAlpha" values="0 0 0 0 0 0 0 0 0 0 0 0 0 0 0 0 0 0 127 0"/><feOffset dy="23.928"/><feGaussianBlur stdDeviation="25.257"/><feColorMatrix values="0 0 0 0 0.122709 0 0 0 0 0.138823 0 0 0 0 0.283843 0 0 0 0.07 0"/><feBlend in2="effect2_dropShadow" result="effect3_dropShadow"/><feBlend in="SourceGraphic" in2="effect3_dropShadow" result="shape"/></filter><filter id="filter2_f" x="133.967" y="51.371" width="202.18" height="54.336" filterUnits="userSpaceOnUse" color-interpolation-filters="sRGB"><feFlood flood-opacity="0" result="BackgroundImageFix"/><feBlend in="SourceGraphic" in2="BackgroundImageFix" result="shape"/><feGaussianBlur stdDeviation="4" result="effect1_foregroundBlur"/></filter><filter id="filter3_ddd" x="46.457" y="36.875" width="333.5" height="141.255" filterUnits="userSpaceOnUse" color-interpolation-filters="sRGB"><feFlood flood-opacity="0" result="BackgroundImageFix"/><feColorMatrix in="SourceAlpha" values="0 0 0 0 0 0 0 0 0 0 0 0 0 0 0 0 0 0 127 0"/><feOffset dy="2.659"/><feGaussianBlur stdDeviation="1.662"/><feColorMatrix values="0 0 0 0 0.122709 0 0 0 0 0.138823 0 0 0 0 0.283843 0 0 0 0.02 0"/><feBlend in2="BackgroundImageFix" result="effect1_dropShadow"/><feColorMatrix in="SourceAlpha" values="0 0 0 0 0 0 0 0 0 0 0 0 0 0 0 0 0 0 127 0"/><feOffset dy="9.305"/><feGaussianBlur stdDeviation="5.65"/><feColorMatrix values="0 0 0 0 0.122709 0 0 0 0 0.138823 0 0 0 0 0.283843 0 0 0 0.04 0"/><feBlend in2="effect1_dropShadow" result="effect2_dropShadow"/><feColorMatrix in="SourceAlpha" values="0 0 0 0 0 0 0 0 0 0 0 0 0 0 0 0 0 0 127 0"/><feOffset dy="23.928"/><feGaussianBlur stdDeviation="25.257"/><feColorMatrix values="0 0 0 0 0.122709 0 0 0 0 0.138823 0 0 0 0 0.283843 0 0 0 0.07 0"/><feBlend in2="effect2_dropShadow" result="effect3_dropShadow"/><feBlend in="SourceGraphic" in2="effect3_dropShadow" result="shape"/></filter><clipPath id="clip0"><path fill="#fff" transform="translate(238 19.102)" d="M0 0h31v31H0z"/></clipPath></defs></svg>