<svg width="70" height="70" viewBox="0 0 70 70" fill="none" xmlns="http://www.w3.org/2000/svg">
  <g clip-path="url(#clip0)">
    <path d="M40.5 8.5h-3v-3a1.5 1.5 0 10-3 0v3h-3a1.5 1.5 0 100 3h3v3a1.5 1.5 0 103 0v-3h3a1.5 1.5 0 100-3z" fill="url(#paint0_radial)"/>
    <path d="M64 28h-1v-1a1 1 0 00-1-1 1 1 0 00-1 1v1h-1a1 1 0 00-1 1 1 1 0 001 1h1v1a1 1 0 001 1 1 1 0 001-1v-1h1a1 1 0 001-1 1 1 0 00-1-1z" fill="url(#paint1_radial)"/>
    <path d="M2.5 65H6a2.5 2.5 0 002.5-2.5v-16A2.5 2.5 0 006 44H2.5A2.5 2.5 0 000 46.5v16A2.5 2.5 0 002.5 65z" fill="url(#paint2_radial)"/>
    <path d="M30.6 52a.75.75 0 01-.57-.28A14.19 14.19 0 0019 46h-6.75a.76.76 0 00-.75.75v15.4c.01.33.22.61.53.71 13.26 4.44 18.94 6.95 23.95 6.95 6.11 0 11.22-3.74 27.87-12.27a3.06 3.06 0 00-1.89-5.73c-.83.01-1.66.14-2.46.38l-10.1 3.2a.76.76 0 00-.52.62A5.99 5.99 0 0143 61H31a1.5 1.5 0 110-3h12a3 3 0 100-6H30.6z" fill="url(#paint3_radial)"/>
    <path d="M54.69 33.33l-5.83-10.16A2.35 2.35 0 0046.83 22H35.17c-.83 0-1.6.45-2.02 1.17l-5.83 10.16a2.33 2.33 0 000 2.34l5.83 10.16A2.33 2.33 0 0035.17 47h11.67c.83 0 1.6-.45 2.02-1.17l5.83-10.16c.41-.72.41-1.62 0-2.34z" fill="url(#paint4_radial)"/>
    <path d="M69.75 8.84L65.17.92A1.83 1.83 0 0063.58 0h-9.17c-.65 0-1.26.35-1.59.91l-4.58 7.92a1.82 1.82 0 000 1.83l4.58 7.92c.33.57.93.91 1.59.91h9.17c.65 0 1.26-.35 1.59-.91l4.58-7.92a1.8 1.8 0 000-1.82z" fill="url(#paint5_radial)"/>
  </g>
  <defs>
    <radialGradient id="paint0_radial" cx="0" cy="0" r="1" gradientUnits="userSpaceOnUse" gradientTransform="matrix(-12 0 0 -12 42 16)">
      <stop stop-color="#41A38E"/>
      <stop offset="1" stop-color="#21BCA5"/>
    </radialGradient>
    <radialGradient id="paint1_radial" cx="0" cy="0" r="1" gradientUnits="userSpaceOnUse" gradientTransform="matrix(-6 0 0 -6 65 32)">
      <stop stop-color="#41A38E"/>
      <stop offset="1" stop-color="#21BCA5"/>
    </radialGradient>
    <radialGradient id="paint2_radial" cx="0" cy="0" r="1" gradientUnits="userSpaceOnUse" gradientTransform="matrix(-8.5 0 0 -21 8.5 65)">
      <stop stop-color="#41A38E"/>
      <stop offset="1" stop-color="#21BCA5"/>
    </radialGradient>
    <radialGradient id="paint3_radial" cx="0" cy="0" r="1" gradientUnits="userSpaceOnUse" gradientTransform="matrix(-54.0273 0 0 -23.81 65.53 69.81)">
      <stop stop-color="#41A38E"/>
      <stop offset="1" stop-color="#21BCA5"/>
    </radialGradient>
    <radialGradient id="paint4_radial" cx="0" cy="0" r="1" gradientUnits="userSpaceOnUse" gradientTransform="matrix(-27.9925 0 0 -25 55 47)">
      <stop stop-color="#41A38E"/>
      <stop offset="1" stop-color="#21BCA5"/>
    </radialGradient>
    <radialGradient id="paint5_radial" cx="0" cy="0" r="1" gradientUnits="userSpaceOnUse" gradientTransform="matrix(-22.005 0 0 -19.49 70 19.49)">
      <stop stop-color="#41A38E"/>
      <stop offset="1" stop-color="#21BCA5"/>
    </radialGradient>
    <clipPath id="clip0">
      <path fill="#fff" d="M0 0h70v69.81H0z"/>
    </clipPath>
  </defs>
</svg>
