<svg width="63" height="12" viewBox="0 0 63 12" fill="none" xmlns="http://www.w3.org/2000/svg">
  <g clip-path="url(#clip0)" fill="#fff">
    <path fill-rule="evenodd" clip-rule="evenodd" d="M0 0h9.59v2.4h-3.6V12H3.6V2.4H0V0zM18.45 0h-7.19v12h7.2V9.6h-4.8V7.2h3.6V4.8h-3.6V2.4h4.8V0z"/>
    <path d="M58 0v.96l.02 1.44L56.44 0h-.72v3.6h.72v-.96c0-.72-.03-1.43-.03-1.43L58 3.6h.72V0H58zM52.8 0l-1.4 3.6h.77l.28-.72h1.5l.27.72h.77L53.59 0h-.78zm-.09 2.22l.5-1.26.48 1.26h-.98zM50.17 1.74A.96.96 0 0049.6 0h-1.44v3.6h1.68c.52 0 .95-.43.95-.96a.95.95 0 00-.63-.9zM48.89.54h.48a.48.48 0 010 .96h-.48V.54zm.7 2.52h-.7V2.04h.7c.27 0 .5.23.5.5 0 .28-.23.52-.5.52zM62.67 0h-.99l-1.17 1.26V0h-.72v3.6h.72V2.32L60.8 2l1.02 1.6h.85L61.3 1.46 62.67 0zM38.53 4.14L41.02 0h-8.19v2.4h3.96L34.63 6h1.8c1.05 0 1.91.8 1.91 1.8s-.86 1.8-1.91 1.8c-.94 0-2.12-.48-3.02-1.57l-1.29 2.13a6.24 6.24 0 004.3 1.84 4.26 4.26 0 004.32-4.2c0-1.57-.89-2.94-2.2-3.66z"/>
    <path fill-rule="evenodd" clip-rule="evenodd" d="M43.26 0h-.28l-1.44 2.4h1.72v7.44l2.4-4V0h-2.4zM26.96 0v7.37L22.54 0h-2.41v12h2.4V4.63L26.95 12h2.4V0h-2.39z"/>
  </g>
  <defs>
    <clipPath id="clip0">
      <path fill="#fff" d="M0 0h62.67v12H0z"/>
    </clipPath>
  </defs>
</svg>
